<svg width="26" height="26" viewBox="0 0 26 26" fill="none" xmlns="http://www.w3.org/2000/svg">
<rect width="26" height="26" rx="13" fill="#1AA3C1"/>
<path d="M15.7702 8.33594C16.1028 8.3359 16.4229 8.46211 16.666 8.68907C16.9091 8.91603 17.057 9.22681 17.0798 9.5586L17.0827 9.64844V16.2109C17.0825 16.2838 17.1097 16.3541 17.1588 16.408C17.2079 16.4618 17.2754 16.4954 17.348 16.5019C17.4206 16.5085 17.493 16.4877 17.551 16.4436C17.609 16.3994 17.6484 16.3352 17.6614 16.2634L17.666 16.2109V10.0941C17.9705 10.1281 18.2534 10.2676 18.4659 10.4884C18.6783 10.7091 18.8068 10.9972 18.8292 11.3028L18.8327 11.3984V15.7734C18.8327 16.2577 18.6474 16.7236 18.3149 17.0756C17.9823 17.4276 17.5277 17.6389 17.0442 17.6664L16.9368 17.6693H9.06185C8.5776 17.6693 8.1117 17.484 7.75971 17.1515C7.40773 16.8189 7.19635 16.3642 7.16893 15.8808L7.16602 15.7734V9.64844C7.16597 9.31586 7.29219 8.99568 7.51915 8.75258C7.74611 8.50949 8.05689 8.36162 8.38868 8.33885L8.47852 8.33594H15.7702ZM11.394 12.4193H9.35235C9.23632 12.4193 9.12504 12.4654 9.04299 12.5474C8.96094 12.6295 8.91485 12.7407 8.91485 12.8568V14.8984C8.91485 15.1399 9.11085 15.3359 9.35235 15.3359H11.394C11.51 15.3359 11.6213 15.2898 11.7034 15.2078C11.7854 15.1257 11.8315 15.0145 11.8315 14.8984V12.8568C11.8315 12.7407 11.7854 12.6295 11.7034 12.5474C11.6213 12.4654 11.51 12.4193 11.394 12.4193ZM14.8963 14.4609H13.4392L13.3797 14.465C13.2699 14.4801 13.1699 14.5364 13.0999 14.6223C13.03 14.7083 12.9953 14.8177 13.0028 14.9283C13.0104 15.0388 13.0596 15.1424 13.1406 15.2181C13.2216 15.2938 13.3283 15.3359 13.4392 15.3359H14.8963L14.9558 15.3319C15.0657 15.3167 15.1656 15.2605 15.2356 15.1745C15.3055 15.0885 15.3403 14.9792 15.3327 14.8686C15.3251 14.758 15.2759 14.6544 15.1949 14.5788C15.1139 14.5031 15.0072 14.461 14.8963 14.4609ZM10.9565 13.2943V14.4609H9.78985V13.2943H10.9565ZM14.8952 12.4193L13.438 12.4222L13.3785 12.4257C13.2676 12.4397 13.1663 12.4957 13.0954 12.582C13.0244 12.6684 12.9892 12.7786 12.997 12.8901C13.0048 13.0016 13.0549 13.1059 13.1371 13.1816C13.2194 13.2573 13.3274 13.2987 13.4392 13.2972L14.8969 13.2943L14.9558 13.2902C15.0657 13.2751 15.1657 13.2188 15.2357 13.1327C15.3056 13.0467 15.3403 12.9373 15.3327 12.8267C15.325 12.716 15.2757 12.6124 15.1946 12.5368C15.1135 12.4612 15.0067 12.4192 14.8958 12.4193M14.8963 10.3799H9.35235L9.29285 10.384C9.18304 10.3991 9.08305 10.4554 9.0131 10.5413C8.94315 10.6273 8.90845 10.7367 8.916 10.8473C8.92356 10.9578 8.97281 11.0614 9.0538 11.1371C9.1348 11.2128 9.2415 11.2549 9.35235 11.2549H14.8963L14.9558 11.2514C15.0666 11.2374 15.1678 11.1815 15.2387 11.0953C15.3096 11.0091 15.3449 10.899 15.3373 10.7876C15.3297 10.6762 15.2798 10.572 15.1978 10.4962C15.1158 10.4204 15.008 10.3788 14.8963 10.3799Z" fill="white"/>
</svg>
