<svg width="17" height="16" viewBox="0 0 17 16" fill="none" xmlns="http://www.w3.org/2000/svg">
<g id="solar:file-bold-duotone">
<path id="Vector" opacity="0.5" fill-rule="evenodd" clip-rule="evenodd" d="M10.0599 14.6654H7.39321C4.87921 14.6654 3.62188 14.6654 2.84121 13.884C2.06054 13.1027 2.05988 11.846 2.05988 9.33203V6.66536C2.05988 4.15136 2.05988 2.89403 2.84121 2.11336C3.62254 1.3327 4.88588 1.33203 7.41321 1.33203C7.81721 1.33203 8.14054 1.33203 8.41321 1.34336C8.40432 1.3967 8.39988 1.45092 8.39988 1.50603L8.39321 3.39536C8.39321 4.1267 8.39321 4.77336 8.46321 5.29403C8.53921 5.8587 8.71321 6.42336 9.17454 6.8847C9.63454 7.3447 10.1999 7.51936 10.7645 7.59536C11.2852 7.66536 11.9319 7.66536 12.6632 7.66536H15.3645C15.3932 8.02136 15.3932 8.4587 15.3932 9.0407V9.33203C15.3932 11.846 15.3932 13.1034 14.6119 13.884C13.8305 14.6647 12.5739 14.6654 10.0599 14.6654Z" fill="#A4A9AE"/>
<path id="Vector_2" d="M8.39992 1.50594L8.39325 3.39594C8.39325 4.12727 8.39325 4.77327 8.46325 5.2946C8.53925 5.85927 8.71325 6.42394 9.17458 6.8846C9.63458 7.34527 10.1999 7.51994 10.7646 7.59594C11.2852 7.66594 11.9319 7.66594 12.6632 7.66594H15.3646C15.3735 7.76905 15.3797 7.88016 15.3833 7.99927H15.3932C15.3932 7.8206 15.3932 7.73127 15.3866 7.62594C15.3359 6.99228 15.1153 6.38402 14.7479 5.86527C14.6852 5.77994 14.6426 5.72927 14.5579 5.62727C14.0292 4.99527 13.3332 4.20727 12.7266 3.66594C12.1866 3.18327 11.4459 2.65594 10.7999 2.22527C10.2452 1.8546 9.96792 1.66927 9.58725 1.53194C9.47637 1.49277 9.36382 1.45852 9.24992 1.42927C8.99392 1.36594 8.74458 1.34394 8.39325 1.33594L8.39992 1.50594Z" fill="#A4A9AE"/>
</g>
</svg>
