<svg width="16" height="16" viewBox="0 0 16 16" fill="none" xmlns="http://www.w3.org/2000/svg">
<path d="M12.6667 2H3.33333C2.59695 2 2 2.59695 2 3.33333V12.6667C2 13.403 2.59695 14 3.33333 14H12.6667C13.403 14 14 13.403 14 12.6667V3.33333C14 2.59695 13.403 2 12.6667 2Z" stroke="#8C959F" stroke-linecap="round" stroke-linejoin="round"/>
<path d="M6.66675 5.73432C6.83341 5.40099 7.08341 5.06766 7.41675 4.90099C7.76186 4.70147 8.16474 4.62575 8.55874 4.68637C8.95274 4.74698 9.31424 4.9403 9.58341 5.23432C9.83341 5.56766 10.0001 5.90099 10.0001 6.31766C10.0001 7.40099 8.33341 7.98432 8.33341 7.98432V9.33268M8.33341 11.3177H8.34175" stroke="#8C959F" stroke-linecap="round" stroke-linejoin="round"/>
</svg>
