<svg width="16" height="16" viewBox="0 0 16 16" fill="none" xmlns="http://www.w3.org/2000/svg">
<g id="thumbs-up" clip-path="url(#clip0_2068_23417)">
<path id="Vector" d="M4.66732 6.66927V14.6693M10.0007 3.9226L9.33398 6.66927H13.2207C13.4276 6.66927 13.6318 6.71746 13.8169 6.81003C14.0021 6.9026 14.1631 7.03701 14.2873 7.2026C14.4115 7.3682 14.4954 7.56044 14.5325 7.76409C14.5695 7.96775 14.5586 8.17722 14.5007 8.37594L12.9473 13.7093C12.8665 13.9862 12.6981 14.2295 12.4673 14.4026C12.2365 14.5757 11.9558 14.6693 11.6673 14.6693H2.66732C2.3137 14.6693 1.97456 14.5288 1.72451 14.2787C1.47446 14.0287 1.33398 13.6896 1.33398 13.3359V8.0026C1.33398 7.64898 1.47446 7.30984 1.72451 7.0598C1.97456 6.80975 2.3137 6.66927 2.66732 6.66927H4.50732C4.75537 6.66914 4.99848 6.59981 5.20929 6.46908C5.4201 6.33836 5.59027 6.15141 5.70065 5.92927L8.00065 1.33594C8.31504 1.33983 8.62448 1.41472 8.90585 1.555C9.18723 1.69529 9.43327 1.89734 9.62559 2.14607C9.81791 2.3948 9.95153 2.68378 10.0165 2.99141C10.0814 3.29903 10.076 3.61736 10.0007 3.9226Z" stroke="#8C959F" stroke-linecap="round" stroke-linejoin="round"/>
</g>
<defs>
<clipPath id="clip0_2068_23417">
<rect width="16" height="16" fill="white"/>
</clipPath>
</defs>
</svg>
