<svg width="16" height="20" viewBox="0 0 16 20" fill="none" xmlns="http://www.w3.org/2000/svg">
<g id="info-icon 1">
<g id="Group 48096458">
<path id="Vector" d="M8.78055 7.7326C8.78055 8.14584 8.44555 8.48083 8.03232 8.48083C7.61909 8.48083 7.28409 8.14584 7.28409 7.7326C7.28409 7.31937 7.61909 6.98438 8.03232 6.98438C8.44555 6.98438 8.78055 7.31937 8.78055 7.7326ZM9.42437 12.6964C9.42437 12.8886 9.26856 13.0444 9.07636 13.0444H7.33629C7.14409 13.0444 6.98828 12.8886 6.98828 12.6964V12.3484C6.98828 12.1562 7.14409 12.0004 7.33629 12.0004H7.68431V9.97729H7.33629C7.14409 9.97729 6.98828 9.82148 6.98828 9.62927V9.28126C6.98828 9.08906 7.14409 8.93325 7.33629 8.93325H8.38033C8.57254 8.93325 8.72835 9.08906 8.72835 9.28126V12.0004H9.07636C9.26856 12.0004 9.42437 12.1562 9.42437 12.3484V12.6964Z" fill="#EF5350"/>
<path id="Vector_2" d="M2.95703 10.0147C2.95703 7.21925 5.22316 4.95312 8.01857 4.95312C10.814 4.95312 13.0801 7.21925 13.0801 10.0147C13.0801 12.8101 10.814 15.0762 8.01857 15.0762C5.22316 15.0762 2.95703 12.8101 2.95703 10.0147Z" stroke="#EF5350"/>
</g>
</g>
</svg>
