<svg width="53" height="53" viewBox="0 0 53 53" fill="none" xmlns="http://www.w3.org/2000/svg">
<path d="M21.0833 23.25L31.9167 34.0833M31.9167 23.25L21.0833 34.0833M9.16668 43.8333H43.8333C44.9826 43.8333 46.0848 43.3768 46.8975 42.5641C47.7101 41.7515 48.1667 40.6493 48.1667 39.5V17.8333C48.1667 16.6841 47.7101 15.5819 46.8975 14.7692C46.0848 13.9565 44.9826 13.5 43.8333 13.5H26.6517C25.9379 13.4963 25.2362 13.3164 24.6087 12.9762C23.9813 12.636 23.4476 12.1461 23.055 11.55L21.2783 8.95C20.8858 8.3539 20.3521 7.864 19.7246 7.52381C19.0972 7.18363 18.3954 7.00369 17.6817 7H9.16668C8.01741 7 6.9152 7.45655 6.10255 8.2692C5.28989 9.08186 4.83334 10.1841 4.83334 11.3333V39.5C4.83334 41.8833 6.78334 43.8333 9.16668 43.8333Z" stroke="#959595" stroke-width="4.33333" stroke-linecap="round" stroke-linejoin="round"/>
</svg>
