<svg width="24" height="24" viewBox="0 0 24 24" fill="none" xmlns="http://www.w3.org/2000/svg">
<circle cx="12" cy="12" r="12" fill="#EEF3F9"/>
<path d="M7.2 17H16.8C17.1183 17 17.4235 16.8761 17.6485 16.6554C17.8736 16.4348 18 16.1355 18 15.8235V9.94118C18 9.62916 17.8736 9.32992 17.6485 9.10929C17.4235 8.88866 17.1183 8.76471 16.8 8.76471H12.042C11.8444 8.7637 11.65 8.71485 11.4763 8.62249C11.3025 8.53014 11.1547 8.39713 11.046 8.23529L10.554 7.52941C10.4453 7.36758 10.2975 7.23457 10.1237 7.14221C9.94998 7.04985 9.75565 7.001 9.558 7H7.2C6.88174 7 6.57652 7.12395 6.35147 7.34458C6.12643 7.56521 6 7.86445 6 8.17647V15.8235C6 16.4706 6.54 17 7.2 17Z" fill="white"/>
<path d="M6 11.1176H18H6Z" fill="white"/>
<path d="M6 11.1176H18M7.2 17H16.8C17.1183 17 17.4235 16.8761 17.6485 16.6554C17.8736 16.4348 18 16.1355 18 15.8235V9.94118C18 9.62916 17.8736 9.32992 17.6485 9.10929C17.4235 8.88866 17.1183 8.76471 16.8 8.76471H12.042C11.8444 8.7637 11.65 8.71485 11.4763 8.62249C11.3025 8.53014 11.1547 8.39713 11.046 8.23529L10.554 7.52941C10.4453 7.36758 10.2975 7.23457 10.1237 7.14221C9.94998 7.04985 9.75565 7.001 9.558 7H7.2C6.88174 7 6.57652 7.12395 6.35147 7.34458C6.12643 7.56521 6 7.86445 6 8.17647V15.8235C6 16.4706 6.54 17 7.2 17Z" stroke="#5695D0" stroke-width="1.2" stroke-linecap="round" stroke-linejoin="round"/>
</svg>
