<svg width="16" height="16" viewBox="0 0 16 16" fill="none" xmlns="http://www.w3.org/2000/svg">
<path d="M4 12.0714H12C12.2652 12.0714 12.5196 11.9652 12.7071 11.7761C12.8946 11.587 13 11.3305 13 11.063V6.02101C13 5.75356 12.8946 5.49707 12.7071 5.30796C12.5196 5.11885 12.2652 5.01261 12 5.01261H8.035C7.87029 5.01175 7.70835 4.96987 7.56355 4.89071C7.41875 4.81155 7.29559 4.69754 7.205 4.55882L6.795 3.95378C6.70441 3.81506 6.58125 3.70106 6.43645 3.6219C6.29165 3.54273 6.12971 3.50086 5.965 3.5H4C3.73478 3.5 3.48043 3.60624 3.29289 3.79535C3.10536 3.98447 3 4.24096 3 4.5084V11.063C3 11.6176 3.45 12.0714 4 12.0714Z" fill="#EEF3F9"/>
<path d="M3 7.02941H13H3Z" fill="#EEF3F9"/>
<path d="M3 7.02941H13M4 12.0714H12C12.2652 12.0714 12.5196 11.9652 12.7071 11.7761C12.8946 11.587 13 11.3305 13 11.063V6.02101C13 5.75356 12.8946 5.49707 12.7071 5.30796C12.5196 5.11885 12.2652 5.01261 12 5.01261H8.035C7.87029 5.01175 7.70835 4.96987 7.56355 4.89071C7.41875 4.81155 7.29559 4.69754 7.205 4.55882L6.795 3.95378C6.70441 3.81506 6.58125 3.70106 6.43645 3.6219C6.29165 3.54273 6.12971 3.50086 5.965 3.5H4C3.73478 3.5 3.48043 3.60624 3.29289 3.79535C3.10536 3.98447 3 4.24096 3 4.5084V11.063C3 11.6176 3.45 12.0714 4 12.0714Z" stroke="#5695D0" stroke-linecap="round" stroke-linejoin="round"/>
</svg>
