<svg width="21" height="20" viewBox="0 0 21 20" fill="none" xmlns="http://www.w3.org/2000/svg">
<g id="General/ico_check_20_wh">
<path id="Vector" d="M3.8741 10.1683C3.78605 10.0691 3.6622 10.0089 3.5298 10.0011C3.3974 9.99318 3.26729 10.0382 3.1681 10.1263C3.06891 10.2143 3.00876 10.3382 3.00088 10.4706C2.99301 10.603 3.03805 10.7331 3.1261 10.8323L7.1261 15.3323C7.17133 15.3834 7.22653 15.4246 7.28832 15.4536C7.3501 15.4825 7.41715 15.4985 7.48535 15.5006C7.55354 15.5027 7.62144 15.4907 7.68486 15.4656C7.74827 15.4404 7.80587 15.4025 7.8541 15.3543L18.3541 4.85428C18.448 4.76052 18.5008 4.63331 18.5009 4.50063C18.501 4.36795 18.4484 4.24066 18.3546 4.14678C18.2608 4.05289 18.1336 4.00009 18.001 4C17.8683 3.99991 17.741 4.05252 17.6471 4.14628L7.5201 14.2713L3.8741 10.1683Z" fill="white"/>
</g>
</svg>
