<svg width="18" height="17" viewBox="0 0 18 17" fill="none" xmlns="http://www.w3.org/2000/svg">
<g id="General/ico_error_outlined_20_bk">
<path id="Vector" d="M8.50621 1.41951C8.5544 1.33022 8.62584 1.25564 8.71297 1.20366C8.8001 1.15167 8.89967 1.12423 9.00113 1.12423C9.10258 1.12423 9.20215 1.15167 9.28928 1.20366C9.37641 1.25564 9.44785 1.33022 9.49604 1.41951L16.8073 14.9172C16.8539 15.0029 16.8775 15.0993 16.8756 15.1969C16.8737 15.2945 16.8465 15.3899 16.7965 15.4737C16.7466 15.5576 16.6757 15.627 16.5908 15.6752C16.5059 15.7233 16.41 15.7486 16.3124 15.7484H1.68763C1.59019 15.7485 1.49441 15.7232 1.40968 15.6751C1.32494 15.627 1.25415 15.5577 1.20426 15.474C1.15436 15.3903 1.12706 15.2951 1.12504 15.1977C1.12301 15.1003 1.14634 15.004 1.19272 14.9183L8.50621 1.41951ZM10.4836 0.884098C9.84585 -0.294699 8.15527 -0.294699 7.5175 0.884098L0.204011 14.3818C0.0646887 14.6387 -0.00549496 14.9275 0.000335833 15.2197C0.00616663 15.5119 0.0878119 15.7976 0.237272 16.0488C0.386733 16.3 0.598881 16.508 0.852933 16.6525C1.10698 16.7971 1.39422 16.8731 1.68651 16.8732H16.3124C16.6047 16.8733 16.8921 16.7974 17.1463 16.6529C17.4005 16.5085 17.6128 16.3005 17.7624 16.0493C17.912 15.7981 17.9938 15.5123 17.9997 15.22C18.0055 14.9276 17.9354 14.6388 17.796 14.3818L10.4836 0.884098ZM9.56128 6.18644C9.56128 6.03728 9.50203 5.89423 9.39655 5.78876C9.29108 5.68329 9.14803 5.62403 8.99888 5.62403C8.84972 5.62403 8.70667 5.68329 8.6012 5.78876C8.49572 5.89423 8.43647 6.03728 8.43647 6.18644V10.6857C8.43647 10.8348 8.49572 10.9779 8.6012 11.0833C8.70667 11.1888 8.84972 11.2481 8.99888 11.2481C9.14803 11.2481 9.29108 11.1888 9.39655 11.0833C9.50203 10.9779 9.56128 10.8348 9.56128 10.6857V6.18644ZM9.84248 13.2165C9.84248 13.4402 9.7536 13.6548 9.59539 13.813C9.43719 13.9712 9.22261 14.0601 8.99888 14.0601C8.77514 14.0601 8.56056 13.9712 8.40236 13.813C8.24415 13.6548 8.15527 13.4402 8.15527 13.2165C8.15527 12.9927 8.24415 12.7782 8.40236 12.62C8.56056 12.4618 8.77514 12.3729 8.99888 12.3729C9.22261 12.3729 9.43719 12.4618 9.59539 12.62C9.7536 12.7782 9.84248 12.9927 9.84248 13.2165Z" fill="#EE444A"/>
</g>
</svg>
