<svg width="28" height="28" viewBox="0 0 28 28" fill="none" xmlns="http://www.w3.org/2000/svg">
<g id="General/ico_check_28_bk">
<path id="Vector" d="M4.02997 13.47C3.88779 13.3375 3.69975 13.2654 3.50545 13.2688C3.31114 13.2722 3.12576 13.3509 2.98835 13.4883C2.85093 13.6258 2.77222 13.8111 2.76879 14.0054C2.76537 14.1997 2.83749 14.3878 2.96997 14.53L9.96997 21.53C10.1106 21.6704 10.3012 21.7493 10.5 21.7493C10.6987 21.7493 10.8893 21.6704 11.03 21.53L25.03 7.52997C25.1625 7.38779 25.2346 7.19975 25.2311 7.00545C25.2277 6.81114 25.149 6.62576 25.0116 6.48835C24.8742 6.35093 24.6888 6.27222 24.4945 6.26879C24.3002 6.26537 24.1121 6.33749 23.97 6.46997L10.5 19.94L4.02997 13.47Z" fill="#2589F4"/>
</g>
</svg>
