<svg width="24" height="24" viewBox="0 0 24 24" fill="none" xmlns="http://www.w3.org/2000/svg">
<g id="General/ico_close_24_bk">
<path id="Vector" d="M5.56427 5.56476C5.69243 5.43661 5.86266 5.3592 6.04347 5.34685C6.22429 5.3345 6.40346 5.38805 6.54786 5.49758L6.62493 5.56476L11.7522 10.6906L16.8808 5.56193C17.0152 5.4276 17.1956 5.34931 17.3855 5.34285C17.5754 5.3364 17.7607 5.40228 17.9039 5.52718C18.0471 5.65207 18.1376 5.82668 18.157 6.0157C18.1765 6.20473 18.1234 6.39409 18.0086 6.54551L17.9415 6.62259L12.8128 11.7512L17.9408 16.8763C18.0748 17.0109 18.1529 17.1913 18.1592 17.3811C18.1654 17.5709 18.0994 17.7561 17.9745 17.8991C17.8495 18.0422 17.675 18.1325 17.486 18.1519C17.2971 18.1713 17.1078 18.1182 16.9565 18.0035L16.8794 17.9363L11.7522 12.8119L6.62634 17.9377C6.49194 18.072 6.31155 18.1503 6.12164 18.1568C5.93172 18.1632 5.74644 18.0974 5.60323 17.9725C5.46001 17.8476 5.36955 17.673 5.35011 17.4839C5.33067 17.2949 5.38371 17.1056 5.49851 16.9541L5.56568 16.8771L10.6922 11.7505L5.56427 6.62542C5.42362 6.48477 5.3446 6.294 5.3446 6.09509C5.3446 5.89618 5.42362 5.70541 5.56427 5.56476Z" fill="#0C0C0D" fill-opacity="0.88"/>
</g>
</svg>
