<svg width="30" height="30" viewBox="0 0 30 30" fill="none" xmlns="http://www.w3.org/2000/svg">
<circle cx="15" cy="15" r="15" fill="#D9D9D9"/>
<circle cx="15" cy="15" r="15" fill="#E9ECEF"/>
<path fill-rule="evenodd" clip-rule="evenodd" d="M15 15C17.4162 15 19.375 13.0412 19.375 10.625C19.375 8.20875 17.4162 6.25 15 6.25C12.5838 6.25 10.625 8.20875 10.625 10.625C10.625 13.0412 12.5838 15 15 15ZM14.9604 22.7229C20 22.7229 21.875 21.4007 21.875 20C21.875 18.5993 21.1708 16.6895 14.9604 16.6895C8.75 16.6895 8.125 18.5993 8.125 20C8.125 21.4007 10 22.7229 14.9604 22.7229Z" fill="#F9AA01"/>
<path fill-rule="evenodd" clip-rule="evenodd" d="M15 15C17.4162 15 19.375 13.0412 19.375 10.625C19.375 8.20875 17.4162 6.25 15 6.25C12.5838 6.25 10.625 8.20875 10.625 10.625C10.625 13.0412 12.5838 15 15 15ZM14.9604 22.7229C20 22.7229 21.875 21.4007 21.875 20C21.875 18.5993 21.1708 16.6895 14.9604 16.6895C8.75 16.6895 8.125 18.5993 8.125 20C8.125 21.4007 10 22.7229 14.9604 22.7229Z" fill="white"/>
</svg>
