<svg width="20" height="20" viewBox="0 0 20 20" fill="none" xmlns="http://www.w3.org/2000/svg">
<g id="General/ico_caution_outlined_20_bk">
<path id="Vector" d="M10 2C12.1217 2 14.1566 2.84285 15.6569 4.34315C17.1571 5.84344 18 7.87827 18 10C18 12.1217 17.1571 14.1566 15.6569 15.6569C14.1566 17.1571 12.1217 18 10 18C7.87827 18 5.84344 17.1571 4.34315 15.6569C2.84285 14.1566 2 12.1217 2 10C2 7.87827 2.84285 5.84344 4.34315 4.34315C5.84344 2.84285 7.87827 2 10 2ZM10 3C9.08075 3 8.1705 3.18106 7.32122 3.53284C6.47194 3.88463 5.70026 4.40024 5.05025 5.05025C4.40024 5.70026 3.88463 6.47194 3.53284 7.32122C3.18106 8.1705 3 9.08075 3 10C3 10.9193 3.18106 11.8295 3.53284 12.6788C3.88463 13.5281 4.40024 14.2997 5.05025 14.9497C5.70026 15.5998 6.47194 16.1154 7.32122 16.4672C8.1705 16.8189 9.08075 17 10 17C11.8565 17 13.637 16.2625 14.9497 14.9497C16.2625 13.637 17 11.8565 17 10C17 8.14348 16.2625 6.36301 14.9497 5.05025C13.637 3.7375 11.8565 3 10 3ZM10 12.5C10.1989 12.5 10.3897 12.579 10.5303 12.7197C10.671 12.8603 10.75 13.0511 10.75 13.25C10.75 13.4489 10.671 13.6397 10.5303 13.7803C10.3897 13.921 10.1989 14 10 14C9.80109 14 9.61032 13.921 9.46967 13.7803C9.32902 13.6397 9.25 13.4489 9.25 13.25C9.25 13.0511 9.32902 12.8603 9.46967 12.7197C9.61032 12.579 9.80109 12.5 10 12.5ZM10 6C10.117 5.99996 10.2304 6.04097 10.3203 6.11589C10.4102 6.19081 10.4709 6.29489 10.492 6.41L10.5 6.5V11C10.5002 11.1249 10.4537 11.2455 10.3695 11.3378C10.2853 11.4301 10.1696 11.4876 10.0452 11.4989C9.92074 11.5102 9.79659 11.4745 9.69717 11.3988C9.59775 11.3231 9.53026 11.2129 9.508 11.09L9.5 11V6.5C9.5 6.36739 9.55268 6.24021 9.64645 6.14645C9.74021 6.05268 9.86739 6 10 6Z" fill="#C5CBD1"/>
</g>
</svg>
