<svg width="21" height="20" viewBox="0 0 21 20" fill="none" xmlns="http://www.w3.org/2000/svg">
<g id="General/ico_plus_20_wh">
<path id="Vector" d="M10.5 2.5C10.5 2.36739 10.4473 2.24021 10.3536 2.14645C10.2598 2.05268 10.1326 2 10 2C9.86739 2 9.74021 2.05268 9.64645 2.14645C9.55268 2.24021 9.5 2.36739 9.5 2.5V9H3C2.86739 9 2.74021 9.05268 2.64645 9.14645C2.55268 9.24021 2.5 9.36739 2.5 9.5C2.5 9.63261 2.55268 9.75979 2.64645 9.85355C2.74021 9.94732 2.86739 10 3 10H9.5V16.5C9.5 16.6326 9.55268 16.7598 9.64645 16.8536C9.74021 16.9473 9.86739 17 10 17C10.1326 17 10.2598 16.9473 10.3536 16.8536C10.4473 16.7598 10.5 16.6326 10.5 16.5V10H17C17.1326 10 17.2598 9.94732 17.3536 9.85355C17.4473 9.75979 17.5 9.63261 17.5 9.5C17.5 9.36739 17.4473 9.24021 17.3536 9.14645C17.2598 9.05268 17.1326 9 17 9H10.5V2.5Z" fill="white"/>
</g>
</svg>
