<svg width="20" height="20" viewBox="0 0 20 20" fill="none" xmlns="http://www.w3.org/2000/svg">
<g id="General/ico_share_20_wh">
<path id="Vector" d="M10.287 2.057C10.15 2.00036 9.9992 1.98561 9.85379 2.01463C9.70837 2.04364 9.57481 2.11511 9.47 2.22L5.22 6.47C5.08752 6.61217 5.0154 6.80022 5.01883 6.99452C5.02225 7.18882 5.10097 7.37421 5.23838 7.51162C5.37579 7.64903 5.56118 7.72774 5.75548 7.73117C5.94978 7.7346 6.13783 7.66248 6.28 7.53L9.25 4.56V12.25C9.25 12.4489 9.32902 12.6397 9.46967 12.7803C9.61032 12.921 9.80109 13 10 13C10.1989 13 10.3897 12.921 10.5303 12.7803C10.671 12.6397 10.75 12.4489 10.75 12.25V4.56L13.72 7.53C13.7887 7.60368 13.8715 7.66279 13.9635 7.70378C14.0555 7.74477 14.1548 7.76681 14.2555 7.76859C14.3562 7.77037 14.4562 7.75184 14.5496 7.71412C14.643 7.6764 14.7278 7.62025 14.799 7.54904C14.8703 7.47782 14.9264 7.39298 14.9641 7.29959C15.0018 7.20621 15.0204 7.10618 15.0186 7.00547C15.0168 6.90477 14.9948 6.80546 14.9538 6.71346C14.9128 6.62146 14.8537 6.53866 14.78 6.47L10.53 2.22C10.4597 2.15119 10.3773 2.09593 10.287 2.057ZM3.75 9C3.94891 9 4.13968 9.07902 4.28033 9.21967C4.42098 9.36032 4.5 9.55108 4.5 9.75V13.75C4.5 14.716 5.284 15.5 6.25 15.5H13.75C14.2141 15.5 14.6592 15.3156 14.9874 14.9874C15.3156 14.6592 15.5 14.2141 15.5 13.75V9.75C15.5 9.55108 15.579 9.36032 15.7197 9.21967C15.8603 9.07902 16.0511 9 16.25 9C16.4489 9 16.6397 9.07902 16.7803 9.21967C16.921 9.36032 17 9.55108 17 9.75V13.75C17 14.612 16.6576 15.4386 16.0481 16.0481C15.4386 16.6576 14.612 17 13.75 17H6.25C5.38805 17 4.5614 16.6576 3.9519 16.0481C3.34241 15.4386 3 14.612 3 13.75V9.75C3 9.55108 3.07902 9.36032 3.21967 9.21967C3.36032 9.07902 3.55109 9 3.75 9Z" fill="white"/>
</g>
</svg>
