<svg xmlns="http://www.w3.org/2000/svg" width="18" height="18" viewBox="0 0 18 18" fill="none">
<path d="M15.9433 8.40927L15.3418 8.65562L15.9433 8.40927ZM2.05667 9.59073L1.45516 9.83709L2.05667 9.59073ZM2.65818 8.65562C3.68123 6.15768 6.13612 4.4 9 4.4V3.1C5.59037 3.1 2.67127 5.1936 1.45516 8.16291L2.65818 8.65562ZM9 4.4C11.8639 4.4 14.3188 6.15769 15.3418 8.65562L16.5448 8.16292C15.3287 5.1936 12.4096 3.1 9 3.1V4.4ZM15.3418 9.34438C14.3188 11.8423 11.8639 13.6 9 13.6V14.9C12.4096 14.9 15.3287 12.8064 16.5448 9.83709L15.3418 9.34438ZM9 13.6C6.13612 13.6 3.68123 11.8423 2.65818 9.34438L1.45516 9.83709C2.67127 12.8064 5.59037 14.9 9 14.9V13.6ZM15.3418 8.65562C15.4322 8.87617 15.4322 9.12383 15.3418 9.34438L16.5448 9.83709C16.7645 9.3008 16.7645 8.69921 16.5448 8.16292L15.3418 8.65562ZM1.45516 8.16291C1.23552 8.69921 1.23552 9.30079 1.45516 9.83709L2.65818 9.34438C2.56785 9.12383 2.56785 8.87617 2.65818 8.65562L1.45516 8.16291Z" fill="#919191"/>
<circle cx="9" cy="9" r="2.25" stroke="#919191" stroke-width="1.3" stroke-linecap="round" stroke-linejoin="round"/>
</svg>