<svg width="35" height="34" viewBox="0 0 35 34" fill="none" xmlns="http://www.w3.org/2000/svg">
<mask id="mask0_449_2262" style="mask-type:luminance" maskUnits="userSpaceOnUse" x="0" y="0" width="35" height="34">
<rect width="34" height="34" rx="10" transform="matrix(1 0 0 -1 0.5 34)" fill="white"/>
</mask>
<g mask="url(#mask0_449_2262)">
<rect x="0.5" width="34" height="34" fill="#F8F8F8"/>
</g>
<path fill-rule="evenodd" clip-rule="evenodd" d="M21.5243 21.4258C21.29 21.6601 20.9101 21.6601 20.6757 21.4258L16.2515 17.0016L20.6757 12.5773C20.9101 12.343 21.29 12.343 21.5243 12.5773C21.7586 12.8116 21.7586 13.1915 21.5243 13.4258L17.9485 17.0016L21.5243 20.5773C21.7586 20.8116 21.7586 21.1915 21.5243 21.4258Z" fill="#8A9099"/>
<path fill-rule="evenodd" clip-rule="evenodd" d="M17.5243 21.4258C17.29 21.6601 16.9101 21.6601 16.6757 21.4258L12.2515 17.0016L16.6757 12.5773C16.9101 12.343 17.29 12.343 17.5243 12.5773C17.7586 12.8116 17.7586 13.1915 17.5243 13.4258L13.9485 17.0016L17.5243 20.5773C17.7586 20.8116 17.7586 21.1915 17.5243 21.4258Z" fill="#8A9099"/>
</svg>
