<svg width="28" height="28" viewBox="0 0 28 28" fill="none" xmlns="http://www.w3.org/2000/svg">
<g id="Group 251">
<rect id="Rectangle 243" x="0.5" y="0.5" width="27" height="27" rx="5.5" fill="" stroke="none"/>
<g id="Group 232">
<path id="Rectangle 234" d="M12.0201 10.5356C11.8248 10.3403 11.5082 10.3403 11.313 10.5356C11.1177 10.7308 11.1177 11.0474 11.313 11.2427L12.0201 10.5356ZM14.7776 14.0002L15.1312 14.3538C15.2249 14.26 15.2776 14.1328 15.2776 14.0002C15.2776 13.8676 15.2249 13.7404 15.1312 13.6467L14.7776 14.0002ZM11.313 16.7578C11.1177 16.953 11.1177 17.2696 11.313 17.4649C11.5082 17.6601 11.8248 17.6601 12.0201 17.4649L11.313 16.7578ZM11.313 11.2427L14.4241 14.3538L15.1312 13.6467L12.0201 10.5356L11.313 11.2427ZM14.4241 13.6467L11.313 16.7578L12.0201 17.4649L15.1312 14.3538L14.4241 13.6467Z" fill="#999999"/>
<path id="Rectangle 244" d="M15.1313 10.5356C14.936 10.3403 14.6194 10.3403 14.4242 10.5356C14.2289 10.7308 14.2289 11.0474 14.4242 11.2427L15.1313 10.5356ZM17.8888 14.0002L18.2424 14.3538C18.3361 14.26 18.3888 14.1328 18.3888 14.0002C18.3888 13.8676 18.3361 13.7404 18.2424 13.6467L17.8888 14.0002ZM14.4242 16.7578C14.2289 16.953 14.2289 17.2696 14.4242 17.4649C14.6194 17.6601 14.936 17.6601 15.1313 17.4649L14.4242 16.7578ZM14.4242 11.2427L17.5353 14.3538L18.2424 13.6467L15.1313 10.5356L14.4242 11.2427ZM17.5353 13.6467L14.4242 16.7578L15.1313 17.4649L18.2424 14.3538L17.5353 13.6467Z" fill="#999999"/>
</g>
</g>
</svg>
