<svg width="35" height="34" viewBox="0 0 35 34" fill="none" xmlns="http://www.w3.org/2000/svg">
<g opacity="0.1">
<mask id="mask0_449_2229" style="mask-type:luminance" maskUnits="userSpaceOnUse" x="0" y="0" width="35" height="34">
<rect width="34" height="34" rx="10" transform="matrix(1 0 0 -1 0.5 34)" fill="white"/>
</mask>
<g mask="url(#mask0_449_2229)">
<rect x="0.5" width="34" height="34" fill="#EF5350"/>
</g>
</g>
<path fill-rule="evenodd" clip-rule="evenodd" d="M17.4757 12.5742C17.71 12.3399 18.0899 12.3399 18.3243 12.5742L22.7485 16.9984L18.3243 21.4227C18.0899 21.657 17.71 21.657 17.4757 21.4227C17.2414 21.1884 17.2414 20.8085 17.4757 20.5742L21.0515 16.9984L17.4757 13.4227C17.2414 13.1884 17.2414 12.8085 17.4757 12.5742Z" fill="#EF5350"/>
<path fill-rule="evenodd" clip-rule="evenodd" d="M13.4757 12.5742C13.71 12.3399 14.0899 12.3399 14.3243 12.5742L18.7485 16.9984L14.3243 21.4227C14.0899 21.657 13.71 21.657 13.4757 21.4227C13.2414 21.1884 13.2414 20.8085 13.4757 20.5742L17.0515 16.9984L13.4757 13.4227C13.2414 13.1884 13.2414 12.8085 13.4757 12.5742Z" fill="#E53935"/>
</svg>
