<svg width="28" height="28" viewBox="0 0 28 28" fill="none" xmlns="http://www.w3.org/2000/svg">
<g id="Group 134">
<rect id="Rectangle 243" x="0.5" y="0.5" width="27" height="27" rx="5.5" fill="" stroke="none"/>
<path id="Rectangle 234" d="M15.2021 10.5341C15.3974 10.3388 15.714 10.3388 15.9092 10.5341C16.1045 10.7294 16.1045 11.0459 15.9092 11.2412L15.2021 10.5341ZM12.4446 13.9988L12.091 14.3523C11.9972 14.2585 11.9446 14.1314 11.9446 13.9988C11.9446 13.8661 11.9972 13.739 12.091 13.6452L12.4446 13.9988ZM15.9092 16.7563C16.1045 16.9516 16.1045 17.2682 15.9092 17.4634C15.714 17.6587 15.3974 17.6587 15.2021 17.4634L15.9092 16.7563ZM15.9092 11.2412L12.7981 14.3523L12.091 13.6452L15.2021 10.5341L15.9092 11.2412ZM12.7981 13.6452L15.9092 16.7563L15.2021 17.4634L12.091 14.3523L12.7981 13.6452Z" fill="#999999"/>
</g>
</svg>
