<svg width="28" height="28" viewBox="0 0 28 28" fill="none" xmlns="http://www.w3.org/2000/svg">
<g id="Group 137">
<rect id="Rectangle 243" x="0.5" y="0.5" width="27" height="27" rx="5.5" fill="" stroke="none"/>
<path id="Rectangle 234" d="M12.798 10.5356C12.6027 10.3403 12.2862 10.3403 12.0909 10.5356C11.8956 10.7308 11.8956 11.0474 12.0909 11.2427L12.798 10.5356ZM15.5556 14.0002L15.9091 14.3538C16.0029 14.26 16.0556 14.1328 16.0556 14.0002C16.0556 13.8676 16.0029 13.7404 15.9091 13.6467L15.5556 14.0002ZM12.0909 16.7578C11.8956 16.953 11.8956 17.2696 12.0909 17.4649C12.2862 17.6601 12.6027 17.6601 12.798 17.4649L12.0909 16.7578ZM12.0909 11.2427L15.202 14.3538L15.9091 13.6467L12.798 10.5356L12.0909 11.2427ZM15.202 13.6467L12.0909 16.7578L12.798 17.4649L15.9091 14.3538L15.202 13.6467Z" fill="#999999"/>
</g>
</svg>
