<svg width="30" height="30" viewBox="0 0 30 30" fill="none" xmlns="http://www.w3.org/2000/svg">
<path d="M6 8.75C6 8.19772 5.55229 7.75 5 7.75C4.44772 7.75 4 8.19772 4 8.75H6ZM5 21.6912L6 21.6925V21.6912H5ZM5.60049 23.146L6.30846 22.4397L5.60049 23.146ZM7.05375 23.75L7.05254 24.75H7.05375V23.75ZM22.9463 23.75V24.75H22.9475L22.9463 23.75ZM24.3995 23.146L23.6915 22.4397L23.6915 22.4397L24.3995 23.146ZM25 21.6912H24L24 21.6925L25 21.6912ZM25 10.8088L24 10.8075V10.8088H25ZM24.3995 9.35403L23.6915 10.0603V10.0603L24.3995 9.35403ZM22.9463 8.75L22.9475 7.75H22.9463V8.75ZM15.67 7.75C15.1177 7.75 14.67 8.19772 14.67 8.75C14.67 9.30228 15.1177 9.75 15.67 9.75V7.75ZM4 8.75C4 9.30228 4.44772 9.75 5 9.75C5.55229 9.75 6 9.30228 6 8.75H4ZM5 7.05875H6L6 7.05753L5 7.05875ZM7.05375 5V4L7.05254 4L7.05375 5ZM13.6163 5L13.6175 4H13.6163V5ZM15.67 7.05875L14.67 7.05753V7.05875H15.67ZM14.67 8.75C14.67 9.30228 15.1177 9.75 15.67 9.75C16.2223 9.75 16.67 9.30228 16.67 8.75H14.67ZM5 7.75C4.44772 7.75 4 8.19772 4 8.75C4 9.30228 4.44772 9.75 5 9.75V7.75ZM15.67 9.75C16.2223 9.75 16.67 9.30228 16.67 8.75C16.67 8.19772 16.2223 7.75 15.67 7.75V9.75ZM4 8.75V21.6912H6V8.75H4ZM4 21.69C3.99902 22.5006 4.32007 23.2784 4.89253 23.8522L6.30846 22.4397C6.11062 22.2414 5.99966 21.9726 6 21.6925L4 21.69ZM4.89253 23.8522C5.46499 24.4261 6.24197 24.749 7.05254 24.75L7.05497 22.75C6.77483 22.7497 6.50631 22.6381 6.30846 22.4397L4.89253 23.8522ZM7.05375 24.75H22.9463V22.75H7.05375V24.75ZM22.9475 24.75C23.758 24.749 24.535 24.4261 25.1075 23.8522L23.6915 22.4397C23.4937 22.6381 23.2252 22.7497 22.945 22.75L22.9475 24.75ZM25.1075 23.8522C25.6799 23.2784 26.001 22.5006 26 21.69L24 21.6925C24.0003 21.9726 23.8894 22.2414 23.6915 22.4397L25.1075 23.8522ZM26 21.6912V10.8088H24V21.6912H26ZM26 10.81C26.001 9.9994 25.6799 9.22164 25.1075 8.64778L23.6915 10.0603C23.8894 10.2586 24.0003 10.5274 24 10.8075L26 10.81ZM25.1075 8.64778C24.535 8.07393 23.758 7.75099 22.9475 7.75L22.945 9.75C23.2252 9.75034 23.4937 9.86195 23.6915 10.0603L25.1075 8.64778ZM22.9463 7.75H15.67V9.75H22.9463V7.75ZM6 8.75V7.05875H4V8.75H6ZM6 7.05753C5.99966 6.7774 6.11062 6.5086 6.30846 6.31028L4.89253 4.89778C4.32007 5.47164 3.99902 6.2494 4 7.05997L6 7.05753ZM6.30846 6.31028C6.50631 6.11195 6.77483 6.00034 7.05497 6L7.05254 4C6.24197 4.00099 5.46499 4.32393 4.89253 4.89778L6.30846 6.31028ZM7.05375 6H13.6163V4H7.05375V6ZM13.615 6C13.8952 6.00034 14.1637 6.11195 14.3615 6.31028L15.7775 4.89778C15.205 4.32393 14.428 4.00099 13.6175 4L13.615 6ZM14.3615 6.31028C14.5594 6.5086 14.6703 6.7774 14.67 7.05753L16.67 7.05996C16.671 6.2494 16.3499 5.47164 15.7775 4.89778L14.3615 6.31028ZM14.67 7.05875V8.75H16.67V7.05875H14.67ZM5 9.75H15.67V7.75H5V9.75Z" fill="#A7A7A7"/>
<path d="M18.2071 18.2071C18.5976 17.8166 18.5976 17.1834 18.2071 16.7929C17.8166 16.4024 17.1834 16.4024 16.7929 16.7929L18.2071 18.2071ZM14.2929 19.2929C13.9024 19.6834 13.9024 20.3166 14.2929 20.7071C14.6834 21.0976 15.3166 21.0976 15.7071 20.7071L14.2929 19.2929ZM14.2929 20.7071C14.6834 21.0976 15.3166 21.0976 15.7071 20.7071C16.0976 20.3166 16.0976 19.6834 15.7071 19.2929L14.2929 20.7071ZM13.2071 16.7929C12.8166 16.4024 12.1834 16.4024 11.7929 16.7929C11.4024 17.1834 11.4024 17.8166 11.7929 18.2071L13.2071 16.7929ZM14 20C14 20.5523 14.4477 21 15 21C15.5523 21 16 20.5523 16 20H14ZM16 12.5C16 11.9477 15.5523 11.5 15 11.5C14.4477 11.5 14 11.9477 14 12.5H16ZM16.7929 16.7929L14.2929 19.2929L15.7071 20.7071L18.2071 18.2071L16.7929 16.7929ZM15.7071 19.2929L13.2071 16.7929L11.7929 18.2071L14.2929 20.7071L15.7071 19.2929ZM16 20V12.5H14V20H16Z" fill="#A7A7A7"/>
</svg>
