<svg width="24" height="24" viewBox="0 0 24 24" fill="none" xmlns="http://www.w3.org/2000/svg">
<g id="icon/star/24">
<path id="Star 1" d="M11.0988 4.50724C11.5011 3.83092 12.4989 3.83092 12.9012 4.50724L14.8031 7.70467C14.9505 7.95242 15.1975 8.1281 15.4836 8.18878L19.1769 8.9719C19.9582 9.13755 20.2665 10.0668 19.7339 10.6504L17.2161 13.4097C17.021 13.6235 16.9266 13.9077 16.9561 14.193L17.3368 17.8744C17.4173 18.6531 16.6101 19.2274 15.8786 18.9118L12.4206 17.4196C12.1526 17.304 11.8474 17.304 11.5794 17.4196L8.12138 18.9118C7.38993 19.2274 6.58267 18.6531 6.66319 17.8744L7.04386 14.193C7.07336 13.9077 6.97903 13.6235 6.78394 13.4097L4.26607 10.6504C3.7335 10.0668 4.04184 9.13755 4.82305 8.9719L8.51638 8.18878C8.80255 8.1281 9.04949 7.95242 9.19686 7.70467L11.0988 4.50724Z" fill="#FED70B"/>
</g>
</svg>
