<svg width="20" height="20" viewBox="0 0 20 20" fill="none" xmlns="http://www.w3.org/2000/svg">
<path d="M18.3337 9.99967V4.99967C18.3337 4.55765 18.1581 4.13372 17.8455 3.82116C17.5329 3.5086 17.109 3.33301 16.667 3.33301H3.33366C2.89163 3.33301 2.46771 3.5086 2.15515 3.82116C1.84259 4.13372 1.66699 4.55765 1.66699 4.99967V14.9997C1.66699 15.9163 2.41699 16.6663 3.33366 16.6663H9.16699M18.3337 5.83301L16.4649 7.02051L14.5962 8.20801L12.7274 9.39551L10.8587 10.583C10.6014 10.7442 10.3039 10.8297 10.0003 10.8297C9.69673 10.8297 9.39927 10.7442 9.14199 10.583L1.66699 5.83301" stroke="#32383F" stroke-linecap="round" stroke-linejoin="round"/>
<path d="M18.3333 17.4997C18.3333 16.7419 18.026 16.0152 17.4791 15.4794C16.9321 14.9436 16.1902 14.6425 15.4167 14.6425M15.4167 14.6425C14.6431 14.6425 13.9013 14.9436 13.3543 15.4794C12.8073 16.0152 12.5 16.7419 12.5 17.4997M15.4167 14.6425C16.4906 14.6425 17.3611 13.7897 17.3611 12.7378C17.3611 11.6858 16.4906 10.833 15.4167 10.833C14.3428 10.833 13.4722 11.6858 13.4722 12.7378C13.4722 13.7897 14.3428 14.6425 15.4167 14.6425Z" stroke="black" stroke-linecap="round" stroke-linejoin="round"/>
</svg>
