<svg width="20" height="20" viewBox="0 0 20 20" fill="none" xmlns="http://www.w3.org/2000/svg">
<g id="mail-x">
<path id="Vector" d="M18.3327 10.832V4.9987C18.3327 4.55667 18.1571 4.13275 17.8445 3.82019C17.532 3.50763 17.108 3.33203 16.666 3.33203H3.33268C2.89065 3.33203 2.46673 3.50763 2.15417 3.82019C1.84161 4.13275 1.66602 4.55667 1.66602 4.9987V14.9987C1.66602 15.9154 2.41602 16.6654 3.33268 16.6654H10.8327M18.3327 5.83203L10.8577 10.582C10.6004 10.7432 10.3029 10.8287 9.99935 10.8287C9.69575 10.8287 9.39829 10.7432 9.14102 10.582L1.66602 5.83203M14.166 14.1654L17.4993 17.4987M17.4993 14.1654L14.166 17.4987" stroke="#32383F" stroke-linecap="round" stroke-linejoin="round"/>
</g>
</svg>
