<svg width="20" height="20" viewBox="0 0 20 20" fill="none" xmlns="http://www.w3.org/2000/svg">
<g id="folder-plus">
<path id="Vector" d="M9.99935 8.33333V13.3333M7.49935 10.8333H12.4993M3.33268 16.6667H16.666C17.108 16.6667 17.532 16.4911 17.8445 16.1785C18.1571 15.866 18.3327 15.442 18.3327 15V6.66667C18.3327 6.22464 18.1571 5.80072 17.8445 5.48816C17.532 5.17559 17.108 5 16.666 5H10.0577C9.78317 4.99858 9.51326 4.92937 9.27193 4.79853C9.0306 4.66769 8.82533 4.47927 8.67435 4.25L7.99102 3.25C7.84004 3.02073 7.63476 2.83231 7.39343 2.70147C7.15211 2.57063 6.88219 2.50142 6.60768 2.5H3.33268C2.89065 2.5 2.46673 2.67559 2.15417 2.98816C1.84161 3.30072 1.66602 3.72464 1.66602 4.16667V15C1.66602 15.9167 2.41602 16.6667 3.33268 16.6667Z" stroke="#32383F" stroke-linecap="round" stroke-linejoin="round"/>
</g>
</svg>
