<svg width="20" height="20" viewBox="0 0 20 20" fill="none" xmlns="http://www.w3.org/2000/svg">
<g id="book">
<path id="Vector" d="M3.33301 16.2474V3.7474C3.33301 3.19486 3.5525 2.66496 3.9432 2.27426C4.3339 1.88356 4.86381 1.66406 5.41634 1.66406H16.6663V18.3307H5.41634C4.86381 18.3307 4.3339 18.1112 3.9432 17.7205C3.5525 17.3298 3.33301 16.7999 3.33301 16.2474ZM3.33301 16.2474C3.33301 15.6949 3.5525 15.165 3.9432 14.7743C4.3339 14.3836 4.86381 14.1641 5.41634 14.1641H16.6663" stroke="#32383F" stroke-linecap="round" stroke-linejoin="round"/>
<path id="Vector_2" d="M9.88954 8.94444C11.1168 8.94444 12.1118 7.94952 12.1118 6.72222C12.1118 5.49492 11.1168 4.5 9.88954 4.5C8.66224 4.5 7.66732 5.49492 7.66732 6.72222C7.66732 7.94952 8.66224 8.94444 9.88954 8.94444ZM9.88954 8.94444C10.8325 8.94444 11.7369 9.31905 12.4037 9.98584C13.0705 10.6526 13.4451 11.557 13.4451 12.5M9.88954 8.94444C8.94655 8.94444 8.04218 9.31905 7.37538 9.98584C6.70859 10.6526 6.33398 11.557 6.33398 12.5" stroke="#32383F" stroke-linecap="round" stroke-linejoin="round"/>
</g>
</svg>
