<svg width="20" height="20" viewBox="0 0 20 20" fill="none" xmlns="http://www.w3.org/2000/svg">
<g id="mail-incoming">
<path id="Vector" d="M18.3327 10.0026V5.0026C18.3327 4.56058 18.1571 4.13665 17.8445 3.82409C17.532 3.51153 17.108 3.33594 16.666 3.33594H3.33268C2.89065 3.33594 2.46673 3.51153 2.15417 3.82409C1.84161 4.13665 1.66602 4.56058 1.66602 5.0026V15.0026C1.66602 15.9193 2.41602 16.6693 3.33268 16.6693H9.16602M18.3327 5.83594L16.4639 7.02344L14.5952 8.21094L12.7264 9.39844L10.8577 10.5859C10.6004 10.7471 10.3029 10.8326 9.99935 10.8326C9.69575 10.8326 9.39829 10.7471 9.14102 10.5859L1.66602 5.83594" stroke="#32383F" stroke-linecap="round" stroke-linejoin="round"/>
<path id="Vector_2" d="M18.334 14.1641L11.6673 14.1641M11.6673 14.1641L14.1673 11.6641M11.6673 14.1641L14.1673 16.6641" stroke="#32383F" stroke-linecap="round" stroke-linejoin="round"/>
</g>
</svg>
