<svg width="20" height="20" viewBox="0 0 20 20" fill="none" xmlns="http://www.w3.org/2000/svg">
<path d="M7.50033 16.6667H3.33366C2.89163 16.6667 2.46771 16.4912 2.15515 16.1786C1.84259 15.866 1.66699 15.4421 1.66699 15.0001V4.16675C1.66699 3.72472 1.84259 3.3008 2.15515 2.98824C2.46771 2.67567 2.89163 2.50008 3.33366 2.50008H6.58366C6.8624 2.49735 7.13737 2.56457 7.38341 2.6956C7.62945 2.82662 7.83869 3.01727 7.99199 3.25008L8.66699 4.25008C8.81875 4.48052 9.02535 4.66968 9.26824 4.80058C9.51114 4.93149 9.78274 5.00003 10.0587 5.00008H16.667C17.109 5.00008 17.5329 5.17567 17.8455 5.48824C18.1581 5.8008 18.3337 6.22472 18.3337 6.66675V7.50008" stroke="#32383F" stroke-linecap="round" stroke-linejoin="round"/>
<path d="M18.3337 16.667C18.3337 15.8145 17.9825 14.9969 17.3573 14.3941C16.7322 13.7914 15.8844 13.4527 15.0003 13.4527M15.0003 13.4527C14.1163 13.4527 13.2684 13.7914 12.6433 14.3941C12.0182 14.9969 11.667 15.8145 11.667 16.667M15.0003 13.4527C16.2276 13.4527 17.2225 12.4933 17.2225 11.3098C17.2225 10.1264 16.2276 9.16699 15.0003 9.16699C13.773 9.16699 12.7781 10.1264 12.7781 11.3098C12.7781 12.4933 13.773 13.4527 15.0003 13.4527Z" stroke="black" stroke-linecap="round" stroke-linejoin="round"/>
</svg>
