<svg width="24" height="24" viewBox="0 0 24 24" fill="none" xmlns="http://www.w3.org/2000/svg">
<path d="M11.5285 4.76285C11.737 4.41238 12.263 4.41238 12.4715 4.76285L14.3734 7.96028C14.5933 8.32995 14.9595 8.58877 15.3799 8.6779L19.0732 9.46103C19.4886 9.5491 19.6282 10.0244 19.3646 10.3134L16.8467 13.0726C16.5565 13.3906 16.4145 13.8158 16.4588 14.2444L16.8395 17.9258C16.8787 18.3051 16.4755 18.6248 16.0767 18.4527L12.6187 16.9606C12.2243 16.7904 11.7757 16.7904 11.3813 16.9606L7.92329 18.4527C7.52446 18.6248 7.12132 18.3051 7.16054 17.9258L7.54121 14.2444C7.58552 13.8158 7.44345 13.3906 7.15328 13.0726L4.63541 10.3134C4.37175 10.0244 4.51138 9.5491 4.92677 9.46103L8.62009 8.6779C9.04045 8.58877 9.40669 8.32995 9.62658 7.96028L11.5285 4.76285Z" stroke="#999999"/>
</svg>
