<svg width="20" height="20" viewBox="0 0 20 20" fill="none" xmlns="http://www.w3.org/2000/svg">
<g clip-path="url(#clip0_2068_23151)">
<path d="M3.79 13V7.41H4.98L5.1 8.15H5.13C5.6 7.67 6.12 7.27 6.84 7.27C7.65 7.27 8.12 7.62 8.38 8.24C8.9 7.71 9.44 7.27 10.17 7.27C11.36 7.27 11.9 8.11 11.9 9.51V13H10.43V9.7C10.43 8.82 10.19 8.53 9.65 8.53C9.33 8.53 8.98 8.73 8.58 9.15V13H7.11V9.7C7.11 8.82 6.86 8.53 6.32 8.53C6.01 8.53 5.64 8.73 5.26 9.15V13H3.79ZM14.8687 13.14C13.2987 13.14 12.0787 12.06 12.0787 10.21C12.0787 8.39 13.3587 7.27 14.6787 7.27C16.2287 7.27 17.0187 8.39 17.0187 9.94C17.0187 10.22 16.9887 10.48 16.9587 10.62H13.4987C13.6287 11.54 14.2287 12.01 15.0587 12.01C15.5087 12.01 15.9087 11.87 16.3187 11.62L16.8087 12.53C16.2587 12.91 15.5587 13.14 14.8687 13.14ZM13.4787 9.64H15.7687C15.7687 8.88 15.4287 8.4 14.7087 8.4C14.1187 8.4 13.5987 8.82 13.4787 9.64Z" fill="#32383F"/>
<circle cx="10" cy="10" r="9.5" stroke="#32383F"/>
</g>
<defs>
<clipPath id="clip0_2068_23151">
<rect width="20" height="20" fill="white"/>
</clipPath>
</defs>
</svg>
