<svg width="20" height="20" viewBox="0 0 20 20" fill="none" xmlns="http://www.w3.org/2000/svg">
<g id="mailbox">
<path id="Vector" d="M5.41602 4.16797C3.33268 4.16797 1.66602 5.83464 1.66602 7.91797V14.168C1.66602 14.61 1.84161 15.0339 2.15417 15.3465C2.46673 15.659 2.89065 15.8346 3.33268 15.8346H16.666C17.108 15.8346 17.532 15.659 17.8445 15.3465C18.1571 15.0339 18.3327 14.61 18.3327 14.168V7.5013C18.3327 5.66797 16.8327 4.16797 14.9993 4.16797H5.41602ZM5.41602 4.16797C7.49935 4.16797 9.16602 5.83464 9.16602 7.91797V14.168C9.16602 14.61 8.99042 15.0339 8.67786 15.3465C8.3653 15.659 7.94138 15.8346 7.49935 15.8346M12.4993 7.5013H14.9993V9.16797M4.99935 8.33464H5.83268" stroke="#32383F" stroke-linecap="round" stroke-linejoin="round"/>
</g>
</svg>
