<svg width="20" height="20" viewBox="0 0 20 20" fill="none" xmlns="http://www.w3.org/2000/svg">
<path d="M7.50033 16.6667H3.33366C2.89163 16.6667 2.46771 16.4912 2.15515 16.1786C1.84259 15.866 1.66699 15.4421 1.66699 15.0001V4.16675C1.66699 3.72472 1.84259 3.3008 2.15515 2.98824C2.46771 2.67567 2.89163 2.50008 3.33366 2.50008H6.58366C6.8624 2.49735 7.13737 2.56457 7.38341 2.6956C7.62945 2.82662 7.83869 3.01727 7.99199 3.25008L8.66699 4.25008C8.81875 4.48052 9.02535 4.66968 9.26824 4.80058C9.51114 4.93149 9.78274 5.00003 10.0587 5.00008H16.667C17.109 5.00008 17.5329 5.17567 17.8455 5.48824C18.1581 5.8008 18.3337 6.22472 18.3337 6.66675V7.50008" stroke="#32383F" stroke-linecap="round" stroke-linejoin="round"/>
<path d="M12.983 14.6909L15.3545 16.0728M15.3511 12.2603L12.983 13.6423M17.292 11.736C17.292 12.3113 16.8256 12.7777 16.2503 12.7777C15.675 12.7777 15.2087 12.3113 15.2087 11.736C15.2087 11.1607 15.675 10.6943 16.2503 10.6943C16.8256 10.6943 17.292 11.1607 17.292 11.736ZM13.1253 14.1666C13.1253 14.7419 12.659 15.2082 12.0837 15.2082C11.5084 15.2082 11.042 14.7419 11.042 14.1666C11.042 13.5913 11.5084 13.1249 12.0837 13.1249C12.659 13.1249 13.1253 13.5913 13.1253 14.1666ZM17.292 16.5971C17.292 17.1724 16.8256 17.6388 16.2503 17.6388C15.675 17.6388 15.2087 17.1724 15.2087 16.5971C15.2087 16.0218 15.675 15.5554 16.2503 15.5554C16.8256 15.5554 17.292 16.0218 17.292 16.5971Z" stroke="black" stroke-linecap="round" stroke-linejoin="round"/>
</svg>
