<svg width="20" height="20" viewBox="0 0 20 20" fill="none" xmlns="http://www.w3.org/2000/svg">
<path d="M18.3333 10.0007V5.00065C18.3333 4.55862 18.1577 4.1347 17.8451 3.82214C17.5326 3.50958 17.1087 3.33398 16.6666 3.33398H3.33329C2.89127 3.33398 2.46734 3.50958 2.15478 3.82214C1.84222 4.1347 1.66663 4.55862 1.66663 5.00065V15.0007C1.66663 15.9173 2.41663 16.6673 3.33329 16.6673H9.16663M18.3333 5.83398L16.4645 7.02148L14.5958 8.20898L12.727 9.39648L10.8583 10.584C10.601 10.7452 10.3036 10.8307 9.99996 10.8307C9.69636 10.8307 9.3989 10.7452 9.14163 10.584L1.66663 5.83398" stroke="#32383F" stroke-linecap="round" stroke-linejoin="round"/>
<path d="M11.6666 14.166H18.3333M18.3333 14.166L15.8333 16.666M18.3333 14.166L15.8333 11.666" stroke="black" stroke-linecap="round" stroke-linejoin="round"/>
</svg>
