<svg width="20" height="20" viewBox="0 0 20 20" fill="none" xmlns="http://www.w3.org/2000/svg">
<g id="mail-check">
<path id="Vector" d="M18.3337 10.833V4.99967C18.3337 4.55765 18.1581 4.13372 17.8455 3.82116C17.5329 3.5086 17.109 3.33301 16.667 3.33301H3.33366C2.89163 3.33301 2.46771 3.5086 2.15515 3.82116C1.84259 4.13372 1.66699 4.55765 1.66699 4.99967V14.9997C1.66699 15.9163 2.41699 16.6663 3.33366 16.6663H9.14199M18.3337 5.83301L10.8587 10.583C10.6014 10.7442 10.3039 10.8297 10.0003 10.8297C9.69673 10.8297 9.39927 10.7442 9.14199 10.583L1.66699 5.83301" stroke="#32383F" stroke-linecap="round" stroke-linejoin="round"/>
<g id="me">
<path id="Vector_2" d="M17.0265 16.2768C17.3236 16.2768 17.5853 16.183 17.8117 15.9955C18.0309 15.814 18.1441 15.5848 18.1512 15.308C18.1512 15.0985 18.3211 14.9286 18.5307 14.9286H18.6071C18.8241 14.9286 19 15.1045 19 15.3214C19 15.7381 18.7878 16.1369 18.3634 16.5179C18.0027 16.8393 17.5464 17 16.9947 17C16.443 17 15.9726 16.8363 15.5836 16.5089C15.1945 16.1815 15 15.7857 15 15.3214V13.6786C15 13.2143 15.1945 12.8185 15.5836 12.4911C15.9726 12.1637 16.443 12 16.9947 12C17.5252 12 17.9973 12.1637 18.4111 12.4911C18.8037 12.8006 19 13.1964 19 13.6786V14.0982L15.8488 15.2768C15.8488 15.5595 15.9602 15.7976 16.183 15.9911C16.4058 16.1815 16.687 16.2768 17.0265 16.2768ZM16.9629 12.7232C16.6658 12.7232 16.4058 12.817 16.183 13.0045C15.9602 13.192 15.8488 13.4167 15.8488 13.6786C15.8488 13.6845 15.8488 13.689 15.8488 13.692V14.4955L18.1459 13.6339C18.1282 13.3839 18.0168 13.1741 17.8117 13.0045C17.5853 12.817 17.3024 12.7232 16.9629 12.7232Z" fill="#32383F"/>
<path id="Vector_3" d="M9.43041 17C9.1927 17 9 16.8073 9 16.5696V13.2143C9 12.881 9.14337 12.5952 9.43011 12.3571C9.71685 12.119 10.0627 12 10.4677 12C10.8871 12 11.233 12.1161 11.5054 12.3482C11.7921 12.1161 12.1362 12 12.5376 12C12.9677 12 13.3172 12.1161 13.586 12.3482C13.8584 12.5833 13.9964 12.8735 14 13.2188V16.5702C14 16.8076 13.8076 17 13.5702 17C13.3326 17 13.1401 16.8072 13.1404 16.5696L13.1452 13.2366C13.1452 13.0878 13.086 12.9613 12.9677 12.8571C12.8495 12.753 12.7097 12.7009 12.5484 12.7009C12.3799 12.7009 12.2366 12.753 12.1183 12.8571C11.9964 12.9643 11.9355 13.0893 11.9355 13.2321V13.2366L11.9307 16.5705C11.9304 16.8078 11.7379 17 11.5006 17C11.2628 17 11.0702 16.8071 11.0705 16.5693L11.0753 13.2366C11.0753 13.0878 11.0161 12.9613 10.8978 12.8571C10.7796 12.753 10.6398 12.7009 10.4785 12.7009C10.3136 12.7009 10.1703 12.753 10.0484 12.8571C9.92652 12.9613 9.86559 13.0878 9.86559 13.2366L9.86083 16.5702C9.86049 16.8077 9.66789 17 9.43041 17Z" fill="#32383F"/>
</g>
</g>
</svg>
