<svg width="20" height="20" viewBox="0 0 20 20" fill="none" xmlns="http://www.w3.org/2000/svg">
<path d="M18.3327 9.9987V4.9987C18.3327 4.55667 18.1571 4.13275 17.8445 3.82019C17.532 3.50763 17.108 3.33203 16.666 3.33203H3.33268C2.89065 3.33203 2.46673 3.50763 2.15417 3.82019C1.84161 4.13275 1.66602 4.55667 1.66602 4.9987V14.9987C1.66602 15.9154 2.41602 16.6654 3.33268 16.6654H9.16602M18.3327 5.83203L16.4639 7.01953L14.5952 8.20703L12.7264 9.39453L10.8577 10.582C10.6004 10.7432 10.3029 10.8287 9.99935 10.8287C9.69575 10.8287 9.39829 10.7432 9.14102 10.582L1.66602 5.83203" stroke="#32383F" stroke-linecap="round" stroke-linejoin="round"/>
<path d="M14.2634 14.2626C14.1611 14.358 14.079 14.473 14.0221 14.6008C13.9651 14.7285 13.9345 14.8665 13.932 15.0063C13.9296 15.1462 13.9553 15.2851 14.0077 15.4148C14.0601 15.5445 14.1381 15.6624 14.237 15.7613C14.3359 15.8602 14.4537 15.9382 14.5834 15.9906C14.7131 16.043 14.8521 16.0687 14.9919 16.0662C15.1318 16.0638 15.2697 16.0331 15.3975 15.9762C15.5253 15.9193 15.6403 15.8372 15.7356 15.7348M14.9996 12.5682C17.4301 12.5682 18.4718 14.9987 18.4718 14.9987C18.384 15.1866 18.2836 15.3682 18.1714 15.5422M13.128 13.1272C12.4375 13.5976 11.8849 14.2436 11.5273 14.9987C11.5273 14.9987 12.569 17.4293 14.9996 17.4293C15.6648 17.4311 16.3158 17.2366 16.8711 16.8703M12.0829 12.082L17.8919 17.8911" stroke="black" stroke-linecap="round" stroke-linejoin="round"/>
</svg>
