<svg width="24" height="24" viewBox="0 0 24 24" fill="none" xmlns="http://www.w3.org/2000/svg">
<path fill-rule="evenodd" clip-rule="evenodd" d="M5.5106 7.1659C3.92199 9.55439 4.23201 12.6916 6.25931 14.7423C8.25396 16.7644 11.4629 17.0806 13.8343 15.4889C14.3328 15.1554 14.7772 14.7511 15.1525 14.2897C15.5216 13.836 15.8217 13.3332 16.0436 12.7965C16.4989 11.6943 16.6167 10.4875 16.3828 9.3217C16.1525 8.16663 15.581 7.10184 14.7382 6.25754C13.9081 5.42308 12.8389 4.85077 11.6698 4.61503C10.5053 4.38369 9.29596 4.50306 8.20305 4.95722C7.09975 5.41693 6.16238 6.18588 5.5106 7.1659Z" stroke="#0046FF" stroke-width="2" stroke-linecap="round" stroke-linejoin="round"/>
<path d="M16.4 14.2401C15.9804 13.8811 15.3491 13.9303 14.9901 14.35C14.6311 14.7696 14.6803 15.4009 15.1 15.7599L16.4 14.2401ZM19.6 19.6094C20.0196 19.9684 20.6509 19.9192 21.0099 19.4996C21.3689 19.0799 21.3197 18.4486 20.9 18.0896L19.6 19.6094ZM15.1 15.7599L19.6 19.6094L20.9 18.0896L16.4 14.2401L15.1 15.7599Z" fill="#0046FF"/>
</svg>
