<svg width="20" height="20" viewBox="0 0 20 20" fill="none" xmlns="http://www.w3.org/2000/svg">
<path d="M18.3327 10.0026V5.0026C18.3327 4.56058 18.1571 4.13665 17.8445 3.82409C17.532 3.51153 17.108 3.33594 16.666 3.33594H3.33268C2.89065 3.33594 2.46673 3.51153 2.15417 3.82409C1.84161 4.13665 1.66602 4.56058 1.66602 5.0026V15.0026C1.66602 15.9193 2.41602 16.6693 3.33268 16.6693H9.16602M18.3327 5.83594L16.4639 7.02344L14.5952 8.21094L12.7264 9.39844L10.8577 10.5859C10.6004 10.7471 10.3029 10.8326 9.99935 10.8326C9.69575 10.8326 9.39829 10.7471 9.14102 10.5859L1.66602 5.83594" stroke="#32383F" stroke-linecap="round" stroke-linejoin="round"/>
<path d="M14.2634 14.2665C14.1611 14.3619 14.079 14.4769 14.0221 14.6047C13.9651 14.7324 13.9345 14.8704 13.932 15.0102C13.9296 15.1501 13.9553 15.289 14.0077 15.4187C14.0601 15.5485 14.1381 15.6663 14.237 15.7652C14.3359 15.8641 14.4537 15.9421 14.5834 15.9945C14.7131 16.0469 14.8521 16.0726 14.9919 16.0701C15.1318 16.0677 15.2697 16.037 15.3975 15.9801C15.5253 15.9232 15.6403 15.8411 15.7356 15.7388M14.9996 12.5721C17.4301 12.5721 18.4718 15.0026 18.4718 15.0026C18.384 15.1906 18.2836 15.3721 18.1714 15.5461M13.128 13.1311C12.4375 13.6015 11.8849 14.2475 11.5273 15.0026C11.5273 15.0026 12.569 17.4332 14.9996 17.4332C15.6648 17.435 16.3158 17.2405 16.8711 16.8742M12.0829 12.0859L17.8919 17.895" stroke="black" stroke-linecap="round" stroke-linejoin="round"/>
</svg>
