<svg width="20" height="20" viewBox="0 0 20 20" fill="none" xmlns="http://www.w3.org/2000/svg">
<g id="network">
<path id="Vector" d="M4.16699 13.3307V10.8307C4.16699 10.6097 4.25479 10.3978 4.41107 10.2415C4.56735 10.0852 4.77931 9.9974 5.00033 9.9974H15.0003C15.2213 9.9974 15.4333 10.0852 15.5896 10.2415C15.7459 10.3978 15.8337 10.6097 15.8337 10.8307V13.3307M10.0003 9.9974V6.66406M14.167 13.3307H17.5003C17.9606 13.3307 18.3337 13.7038 18.3337 14.1641V17.4974C18.3337 17.9576 17.9606 18.3307 17.5003 18.3307H14.167C13.7068 18.3307 13.3337 17.9576 13.3337 17.4974V14.1641C13.3337 13.7038 13.7068 13.3307 14.167 13.3307ZM2.50033 13.3307H5.83366C6.2939 13.3307 6.66699 13.7038 6.66699 14.1641V17.4974C6.66699 17.9576 6.2939 18.3307 5.83366 18.3307H2.50033C2.04009 18.3307 1.66699 17.9576 1.66699 17.4974V14.1641C1.66699 13.7038 2.04009 13.3307 2.50033 13.3307ZM8.33366 1.66406H11.667C12.1272 1.66406 12.5003 2.03716 12.5003 2.4974V5.83073C12.5003 6.29097 12.1272 6.66406 11.667 6.66406H8.33366C7.87342 6.66406 7.50033 6.29097 7.50033 5.83073V2.4974C7.50033 2.03716 7.87342 1.66406 8.33366 1.66406Z" stroke="#32383F" stroke-linecap="round" stroke-linejoin="round"/>
</g>
</svg>
