<svg width="20" height="20" viewBox="0 0 20 20" fill="none" xmlns="http://www.w3.org/2000/svg">
<path d="M4.16699 13.3337V10.8337C4.16699 10.6126 4.25479 10.4007 4.41107 10.2444C4.56735 10.0881 4.77931 10.0003 5.00033 10.0003H15.0003C15.2213 10.0003 15.4333 10.0881 15.5896 10.2444C15.7459 10.4007 15.8337 10.6126 15.8337 10.8337V13.3337M10.0003 10.0003V6.66699M14.167 13.3337H17.5003C17.9606 13.3337 18.3337 13.7068 18.3337 14.167V17.5003C18.3337 17.9606 17.9606 18.3337 17.5003 18.3337H14.167C13.7068 18.3337 13.3337 17.9606 13.3337 17.5003V14.167C13.3337 13.7068 13.7068 13.3337 14.167 13.3337ZM2.50033 13.3337H5.83366C6.2939 13.3337 6.66699 13.7068 6.66699 14.167V17.5003C6.66699 17.9606 6.2939 18.3337 5.83366 18.3337H2.50033C2.04009 18.3337 1.66699 17.9606 1.66699 17.5003V14.167C1.66699 13.7068 2.04009 13.3337 2.50033 13.3337ZM8.33366 1.66699H11.667C12.1272 1.66699 12.5003 2.04009 12.5003 2.50033V5.83366C12.5003 6.2939 12.1272 6.66699 11.667 6.66699H8.33366C7.87342 6.66699 7.50033 6.2939 7.50033 5.83366V2.50033C7.50033 2.04009 7.87342 1.66699 8.33366 1.66699Z" stroke="#32383F" stroke-linecap="round" stroke-linejoin="round"/>
</svg>
