<svg width="20" height="20" viewBox="0 0 20 20" fill="none" xmlns="http://www.w3.org/2000/svg">
<path d="M14.4444 17.5C14.4444 16.3213 13.9762 15.1908 13.1427 14.3573C12.3092 13.5238 11.1787 13.0556 10 13.0556M10 13.0556C8.82126 13.0556 7.6908 13.5238 6.8573 14.3573C6.02381 15.1908 5.55556 16.3213 5.55556 17.5M10 13.0556C11.6364 13.0556 12.963 11.729 12.963 10.0926C12.963 8.45619 11.6364 7.12963 10 7.12963C8.3636 7.12963 7.03704 8.45619 7.03704 10.0926C7.03704 11.729 8.3636 13.0556 10 13.0556ZM10.7407 2.5H3.98148C3.16328 2.5 2.5 3.16328 2.5 3.98148V16.0185C2.5 16.8367 3.16328 17.5 3.98148 17.5H15.1852C16.8367 17.5 17.5 16.8367 17.5 16.0185V10.8333" stroke="#32383F" stroke-linecap="round" stroke-linejoin="round"/>
<path d="M15 2.66602V7.66602M12.5 5.16602H17.5" stroke="#32383F" stroke-linecap="round" stroke-linejoin="round"/>
</svg>
