<svg width="20" height="20" viewBox="0 0 20 20" fill="none" xmlns="http://www.w3.org/2000/svg">
<path d="M18.3337 8.74967V4.99967C18.3337 4.55765 18.1581 4.13372 17.8455 3.82116C17.5329 3.5086 17.109 3.33301 16.667 3.33301H3.33366C2.89163 3.33301 2.46771 3.5086 2.15515 3.82116C1.84259 4.13372 1.66699 4.55765 1.66699 4.99967V14.9997C1.66699 15.9163 2.41699 16.6663 3.33366 16.6663H13.7503M18.3337 5.83301L10.8587 10.583C10.6014 10.7442 10.3039 10.8297 10.0003 10.8297C9.69673 10.8297 9.39927 10.7442 9.14199 10.583L1.66699 5.83301M15.0003 12.733C15.167 12.3997 15.417 12.0664 15.7503 11.8997C16.0954 11.7002 16.4983 11.6245 16.8923 11.6851C17.2863 11.7457 17.6478 11.939 17.917 12.233C18.167 12.5664 18.3337 12.8997 18.3337 13.3164C18.3337 14.3997 16.667 14.983 16.667 14.983M16.667 18.333V18.3413" stroke="#32383F" stroke-linecap="round" stroke-linejoin="round"/>
</svg>
