<svg width="20" height="20" viewBox="0 0 20 20" fill="none" xmlns="http://www.w3.org/2000/svg">
<g id="paperclip">
<path id="Vector" d="M17.8667 9.20806L10.2084 16.8664C9.27017 17.8046 7.99769 18.3317 6.67087 18.3317C5.34405 18.3317 4.07157 17.8046 3.13337 16.8664C2.19517 15.9282 1.66809 14.6557 1.66809 13.3289C1.66809 12.0021 2.19517 10.7296 3.13337 9.79139L10.275 2.64972C10.9005 2.02315 11.7493 1.6707 12.6346 1.66992C13.5199 1.66914 14.3693 2.02009 14.9959 2.64556C15.6224 3.27103 15.9749 4.11978 15.9757 5.00511C15.9765 5.89044 15.6255 6.73982 15 7.36639L7.8417 14.5081C7.52897 14.8208 7.10481 14.9965 6.66254 14.9965C6.22026 14.9965 5.79611 14.8208 5.48337 14.5081C5.17064 14.1953 4.99494 13.7712 4.99494 13.3289C4.99494 12.8866 5.17064 12.4625 5.48337 12.1497L12.5584 5.08306" stroke="#57606A" stroke-width="1.4" stroke-linecap="round" stroke-linejoin="round"/>
</g>
</svg>
