<svg width="20" height="20" viewBox="0 0 20 20" fill="none" xmlns="http://www.w3.org/2000/svg">
<g id="star-02">
<path id="Icon" d="M9.57918 2.26159C9.75132 1.9128 10.2487 1.9128 10.4208 2.26159L12.6492 6.77669C12.7175 6.9152 12.8496 7.0112 13.0025 7.03341L17.9852 7.75744C18.3701 7.81337 18.5238 8.28639 18.2453 8.55788L14.6398 12.0724C14.5292 12.1802 14.4787 12.3355 14.5048 12.4878L15.3559 17.4504C15.4217 17.8337 15.0193 18.126 14.675 17.9451L10.2184 15.602C10.0817 15.5302 9.91834 15.5302 9.78163 15.602L5.32495 17.9451C4.98068 18.126 4.5783 17.8337 4.64405 17.4504L5.4952 12.4878C5.52131 12.3355 5.47084 12.1802 5.36024 12.0724L1.75472 8.55788C1.47619 8.28639 1.62989 7.81337 2.0148 7.75744L6.99751 7.03341C7.15036 7.0112 7.28249 6.9152 7.35084 6.77669L9.57918 2.26159Z" fill="#0046FF" stroke="#0046FF" stroke-width="1.5" stroke-linejoin="round"/>
</g>
</svg>
