<svg width="21" height="20" viewBox="0 0 21 20" fill="none" xmlns="http://www.w3.org/2000/svg">
<g id="file-none">
<path id="Icon" d="M12.7857 3.77778V6.11111C12.7857 6.54067 13.1055 6.88889 13.5 6.88889H15.6428M12.7857 3.77778H13.1842C13.3853 3.77778 13.5768 3.87003 13.7154 4.02879C13.9236 4.26737 14.2535 4.63472 14.5714 4.94444C14.8206 5.18719 15.212 5.62283 15.4464 5.88759C15.5732 6.03076 15.6429 6.22194 15.6428 6.42082L15.6428 6.88889M12.7857 3.77778H7.42835M15.6428 6.88889L15.6427 15.8333M6.35692 7.66667V14.6666C6.35691 15.5257 6.99651 16.2222 7.78549 16.2222H12.4283M16 17L6 3" stroke="#606060" stroke-width="1.5" stroke-linecap="round" stroke-linejoin="round"/>
</g>
</svg>
