<svg width="16" height="17" viewBox="0 0 16 17" fill="none" xmlns="http://www.w3.org/2000/svg">
<g id="Vector">
<path id="file-download" fill-rule="evenodd" clip-rule="evenodd" d="M5.25673 1.00001H10.712C10.7687 1.00001 10.825 1.00363 10.881 1.01088C13.1016 1.16617 14.8259 3.009 14.8334 5.235V11.5875C14.8252 13.9313 12.9205 15.8259 10.5766 15.8215H5.25673C2.91247 15.8259 1.00763 13.9307 1 11.5865V5.235C1.00763 2.89075 2.91247 0.995634 5.25673 1.00001Z" stroke="#222222" stroke-width="1.5" stroke-linecap="round" stroke-linejoin="round"/>
<path id="file-download-2" d="M10.881 13.6081C11.2952 13.6081 11.631 13.2723 11.631 12.8581C11.631 12.4439 11.2952 12.1081 10.881 12.1081V13.6081ZM4.95239 12.1081C4.53818 12.1081 4.20239 12.4439 4.20239 12.8581C4.20239 13.2723 4.53818 13.6081 4.95239 13.6081V12.1081ZM14.8334 5.98584C15.2476 5.98584 15.5834 5.65005 15.5834 5.23584C15.5834 4.82162 15.2476 4.48584 14.8334 4.48584V5.98584ZM10.881 5.23584H10.131C10.131 5.65005 10.4668 5.98584 10.881 5.98584V5.23584ZM11.631 1.01172C11.631 0.597505 11.2952 0.261719 10.881 0.261719C10.4668 0.261719 10.131 0.597505 10.131 1.01172H11.631ZM10.4232 8.44793C10.7161 8.15504 10.7161 7.68016 10.4232 7.38727C10.1303 7.09438 9.65545 7.09438 9.36255 7.38727L10.4232 8.44793ZM7.38636 9.36346C7.09346 9.65636 7.09346 10.1312 7.38636 10.4241C7.67925 10.717 8.15412 10.717 8.44702 10.4241L7.38636 9.36346ZM7.3864 10.4241C7.6793 10.717 8.15417 10.717 8.44707 10.4241C8.73996 10.1312 8.73996 9.65636 8.44707 9.36346L7.3864 10.4241ZM6.47087 7.38727C6.17798 7.09438 5.7031 7.09438 5.41021 7.38727C5.11732 7.68016 5.11732 8.15504 5.41021 8.44793L6.47087 7.38727ZM7.16674 9.89302C7.16674 10.3072 7.50252 10.643 7.91674 10.643C8.33095 10.643 8.66674 10.3072 8.66674 9.89302H7.16674ZM8.66674 3.96443C8.66674 3.55022 8.33095 3.21443 7.91674 3.21443C7.50252 3.21443 7.16674 3.55022 7.16674 3.96443H8.66674ZM10.881 12.1081H4.95239V13.6081H10.881V12.1081ZM14.8334 4.48584H10.881V5.98584H14.8334V4.48584ZM11.631 5.23584V1.01172H10.131V5.23584H11.631ZM9.36255 7.38727L7.38636 9.36346L8.44702 10.4241L10.4232 8.44793L9.36255 7.38727ZM8.44707 9.36346L6.47087 7.38727L5.41021 8.44793L7.3864 10.4241L8.44707 9.36346ZM8.66674 9.89302V3.96443H7.16674V9.89302H8.66674Z" fill="#222222"/>
</g>
</svg>
