<svg width="20" height="20" viewBox="0 0 20 20" fill="none" xmlns="http://www.w3.org/2000/svg">
<path fill-rule="evenodd" clip-rule="evenodd" d="M4.16663 10.0015C4.16683 7.21854 6.13283 4.82329 8.86231 4.28056C11.5918 3.73782 14.3246 5.19874 15.3894 7.76989C16.4542 10.341 15.5545 13.3063 13.2405 14.8523C10.9265 16.3983 7.84268 16.0944 5.87496 14.1265C4.78102 13.0324 4.16651 11.5486 4.16663 10.0015Z" stroke="#EB4747" stroke-width="1.5" stroke-linecap="round" stroke-linejoin="round"/>
<path d="M7.28227 11.6571C6.98932 11.9499 6.98923 12.4248 7.28207 12.7177C7.57491 13.0107 8.04978 13.0108 8.34273 12.7179L7.28227 11.6571ZM10.5302 10.5313C10.8232 10.2384 10.8233 9.76355 10.5304 9.4706C10.2376 9.17766 9.76272 9.17756 9.46977 9.4704L10.5302 10.5313ZM9.46947 9.47071C9.17669 9.76371 9.17687 10.2386 9.46987 10.5314C9.76288 10.8241 10.2378 10.824 10.5305 10.531L9.46947 9.47071ZM12.7172 8.34263C13.01 8.04962 13.0098 7.57475 12.7168 7.28197C12.4238 6.98919 11.9489 6.98937 11.6561 7.28237L12.7172 8.34263ZM10.5302 9.4704C10.2373 9.17756 9.76241 9.17766 9.46957 9.4706C9.17673 9.76355 9.17682 10.2384 9.46977 10.5313L10.5302 9.4704ZM11.6573 12.7179C11.9502 13.0108 12.4251 13.0107 12.7179 12.7177C13.0108 12.4248 13.0107 11.9499 12.7177 11.6571L11.6573 12.7179ZM9.46957 10.5311C9.76241 10.824 10.2373 10.8241 10.5302 10.5313C10.8232 10.2384 10.8233 9.76355 10.5304 9.4706L9.46957 10.5311ZM8.34293 7.28227C8.05009 6.98932 7.57522 6.98923 7.28227 7.28207C6.98932 7.57491 6.98923 8.04978 7.28207 8.34273L8.34293 7.28227ZM8.34273 12.7179L10.5302 10.5313L9.46977 9.4704L7.28227 11.6571L8.34273 12.7179ZM10.5305 10.531L12.7172 8.34263L11.6561 7.28237L9.46947 9.47071L10.5305 10.531ZM9.46977 10.5313L11.6573 12.7179L12.7177 11.6571L10.5302 9.4704L9.46977 10.5313ZM10.5304 9.4706L8.34293 7.28227L7.28207 8.34273L9.46957 10.5311L10.5304 9.4706Z" fill="#EB4747"/>
</svg>
