<svg width="20" height="20" viewBox="0 0 20 20" fill="none" xmlns="http://www.w3.org/2000/svg">
<path fill-rule="evenodd" clip-rule="evenodd" d="M4.59217 5.97159C3.26833 7.96199 3.52668 10.5763 5.21609 12.2853C6.8783 13.9703 9.5524 14.2339 11.5286 12.9074C11.944 12.6295 12.3143 12.2926 12.6271 11.9081C12.9347 11.53 13.1848 11.111 13.3697 10.6637C13.7491 9.74521 13.8473 8.73961 13.6523 7.76809C13.4604 6.80553 12.9842 5.9182 12.2818 5.21462C11.5901 4.51924 10.6991 4.04231 9.72483 3.84586C8.75443 3.65307 7.74663 3.75255 6.83588 4.13101C5.91646 4.51411 5.13532 5.1549 4.59217 5.97159Z" stroke="#606060" stroke-width="1.5" stroke-linecap="round" stroke-linejoin="round"/>
<path d="M13.6125 11.9301C13.2978 11.6608 12.8243 11.6977 12.5551 12.0125C12.2858 12.3272 12.3227 12.8007 12.6375 13.0699L13.6125 11.9301ZM16.3875 16.2778C16.7022 16.5471 17.1757 16.5102 17.4449 16.1955C17.7142 15.8807 17.6773 15.4073 17.3625 15.138L16.3875 16.2778ZM12.6375 13.0699L16.3875 16.2778L17.3625 15.138L13.6125 11.9301L12.6375 13.0699Z" fill="#606060"/>
</svg>
