<svg width="20" height="20" viewBox="0 0 20 20" fill="none" xmlns="http://www.w3.org/2000/svg">
<g id="user-profile-square">
<g id="Group 469">
<path id="Ellipse 12" d="M10.8 19.0865C11.2142 19.0865 11.55 18.7507 11.55 18.3365C11.55 17.9223 11.2142 17.5865 10.8 17.5865V19.0865ZM10.8 17.5865C10.7988 17.5865 10.7976 17.5865 10.7965 17.5865C10.7953 17.5865 10.7942 17.5865 10.793 17.5865C10.7918 17.5865 10.7907 17.5865 10.7896 17.5865C10.7884 17.5865 10.7873 17.5865 10.7862 17.5865C10.785 17.5865 10.7839 17.5865 10.7828 17.5865C10.7817 17.5865 10.7806 17.5865 10.7795 17.5865C10.7784 17.5865 10.7773 17.5865 10.7762 17.5865C10.7752 17.5865 10.7741 17.5865 10.773 17.5865C10.772 17.5865 10.7709 17.5865 10.7698 17.5865C10.7688 17.5865 10.7677 17.5865 10.7667 17.5865C10.7657 17.5865 10.7646 17.5865 10.7636 17.5865C10.7626 17.5865 10.7616 17.5865 10.7605 17.5865C10.7595 17.5865 10.7585 17.5865 10.7575 17.5865C10.7565 17.5865 10.7555 17.5865 10.7546 17.5865C10.7536 17.5865 10.7526 17.5865 10.7516 17.5865C10.7506 17.5865 10.7497 17.5865 10.7487 17.5865C10.7478 17.5865 10.7468 17.5865 10.7459 17.5865C10.7449 17.5865 10.744 17.5865 10.7431 17.5865C10.7421 17.5865 10.7412 17.5865 10.7403 17.5865C10.7394 17.5865 10.7385 17.5865 10.7376 17.5865C10.7366 17.5865 10.7358 17.5865 10.7349 17.5865C10.734 17.5865 10.7331 17.5865 10.7322 17.5865C10.7313 17.5865 10.7305 17.5865 10.7296 17.5865C10.7287 17.5865 10.7279 17.5865 10.727 17.5865C10.7262 17.5865 10.7253 17.5865 10.7245 17.5865C10.7236 17.5865 10.7228 17.5865 10.722 17.5865C10.7211 17.5865 10.7203 17.5865 10.7195 17.5865C10.7187 17.5865 10.7179 17.5865 10.7171 17.5865C10.7163 17.5865 10.7155 17.5865 10.7147 17.5865C10.7139 17.5865 10.7131 17.5865 10.7124 17.5865C10.7116 17.5865 10.7108 17.5865 10.71 17.5865C10.7093 17.5865 10.7085 17.5865 10.7078 17.5865C10.707 17.5865 10.7063 17.5865 10.7055 17.5865C10.7048 17.5865 10.7041 17.5865 10.7033 17.5865C10.7026 17.5865 10.7019 17.5865 10.7012 17.5865C10.7005 17.5865 10.6997 17.5865 10.699 17.5865C10.6983 17.5865 10.6976 17.5865 10.697 17.5865C10.6963 17.5865 10.6956 17.5865 10.6949 17.5865C10.6942 17.5865 10.6935 17.5865 10.6929 17.5865C10.6922 17.5865 10.6916 17.5865 10.6909 17.5865C10.6902 17.5865 10.6896 17.5865 10.6889 17.5865C10.6883 17.5865 10.6877 17.5865 10.687 17.5865C10.6864 17.5865 10.6858 17.5865 10.6852 17.5865C10.6845 17.5865 10.6839 17.5865 10.6833 17.5865C10.6827 17.5865 10.6821 17.5865 10.6815 17.5865C10.6809 17.5865 10.6803 17.5865 10.6797 17.5865C10.6791 17.5865 10.6786 17.5865 10.678 17.5865C10.6774 17.5865 10.6768 17.5865 10.6763 17.5865C10.6757 17.5865 10.6752 17.5865 10.6746 17.5865C10.6741 17.5865 10.6735 17.5865 10.673 17.5865C10.6724 17.5865 10.6719 17.5865 10.6714 17.5865C10.6708 17.5865 10.6703 17.5865 10.6698 17.5865C10.6693 17.5865 10.6688 17.5865 10.6682 17.5865C10.6677 17.5865 10.6672 17.5865 10.6667 17.5865C10.6662 17.5865 10.6658 17.5865 10.6653 17.5865C10.6648 17.5865 10.6643 17.5865 10.6638 17.5865C10.6633 17.5865 10.6629 17.5865 10.6624 17.5865C10.6619 17.5865 10.6615 17.5865 10.661 17.5865C10.6606 17.5865 10.6601 17.5865 10.6597 17.5865C10.6592 17.5865 10.6588 17.5865 10.6584 17.5865C10.6579 17.5865 10.6575 17.5865 10.6571 17.5865C10.6567 17.5865 10.6562 17.5865 10.6558 17.5865C10.6554 17.5865 10.655 17.5865 10.6546 17.5865C10.6542 17.5865 10.6538 17.5865 10.6534 17.5865C10.653 17.5865 10.6526 17.5865 10.6522 17.5865C10.6519 17.5865 10.6515 17.5865 10.6511 17.5865C10.6507 17.5865 10.6504 17.5865 10.65 17.5865C10.6496 17.5865 10.6493 17.5865 10.6489 17.5865C10.6486 17.5865 10.6482 17.5865 10.6479 17.5865C10.6475 17.5865 10.6472 17.5865 10.6469 17.5865C10.6465 17.5865 10.6462 17.5865 10.6459 17.5865C10.6456 17.5865 10.6452 17.5865 10.6449 17.5865C10.6446 17.5865 10.6443 17.5865 10.644 17.5865C10.6437 17.5865 10.6434 17.5865 10.6431 17.5865C10.6428 17.5865 10.6425 17.5865 10.6422 17.5865C10.6419 17.5865 10.6417 17.5865 10.6414 17.5865C10.6411 17.5865 10.6408 17.5865 10.6406 17.5865C10.6403 17.5865 10.64 17.5865 10.6398 17.5865C10.6395 17.5865 10.6393 17.5865 10.639 17.5865C10.6388 17.5865 10.6385 17.5865 10.6383 17.5865C10.6381 17.5865 10.6378 17.5865 10.6376 17.5865C10.6374 17.5865 10.6371 17.5865 10.6369 17.5865C10.6367 17.5865 10.6365 17.5865 10.6363 17.5865C10.636 17.5865 10.6358 17.5865 10.6356 17.5865C10.6354 17.5865 10.6352 17.5865 10.635 17.5865C10.6348 17.5865 10.6346 17.5865 10.6345 17.5865C10.6343 17.5865 10.6341 17.5865 10.6339 17.5865C10.6337 17.5865 10.6336 17.5865 10.6334 17.5865C10.6332 17.5865 10.633 17.5865 10.6329 17.5865C10.6327 17.5865 10.6326 17.5865 10.6324 17.5865C10.6323 17.5865 10.6321 17.5865 10.632 17.5865C10.6318 17.5865 10.6317 17.5865 10.6315 17.5865C10.6314 17.5865 10.6313 17.5865 10.6311 17.5865C10.631 17.5865 10.6309 17.5865 10.6308 17.5865C10.6306 17.5865 10.6305 17.5865 10.6304 17.5865C10.6303 17.5865 10.6302 17.5865 10.6301 17.5865C10.63 17.5865 10.6299 17.5865 10.6298 17.5865C10.6297 17.5865 10.6296 17.5865 10.6295 17.5865C10.6294 17.5865 10.6293 17.5865 10.6293 17.5865C10.6292 17.5865 10.6291 17.5865 10.629 17.5865C10.6289 17.5865 10.6289 17.5865 10.6288 17.5865C10.6287 17.5865 10.6287 17.5865 10.6286 17.5865C10.6286 17.5865 10.6285 17.5865 10.6285 17.5865C10.6284 17.5865 10.6284 17.5865 10.6283 17.5865C10.6283 17.5865 10.6282 17.5865 10.6282 17.5865C10.6282 17.5865 10.6281 17.5865 10.6281 17.5865C10.6281 17.5865 10.628 17.5865 10.628 17.5865C10.628 17.5865 10.628 17.5865 10.628 17.5865C10.6279 17.5865 10.6279 17.5865 10.6279 17.5865C10.6279 17.5865 10.6279 17.5865 10.6279 17.5865C10.6279 18.3365 10.6279 19.0865 10.6279 19.0865C10.6279 19.0865 10.6279 19.0865 10.6279 19.0865C10.628 19.0865 10.628 19.0865 10.628 19.0865C10.628 19.0865 10.628 19.0865 10.6281 19.0865C10.6281 19.0865 10.6281 19.0865 10.6281 19.0865C10.6282 19.0865 10.6282 19.0865 10.6283 19.0865C10.6283 19.0865 10.6283 19.0865 10.6284 19.0865C10.6284 19.0865 10.6285 19.0865 10.6285 19.0865C10.6286 19.0865 10.6286 19.0865 10.6287 19.0865C10.6288 19.0865 10.6288 19.0865 10.6289 19.0865C10.6289 19.0865 10.629 19.0865 10.6291 19.0865C10.6292 19.0865 10.6292 19.0865 10.6293 19.0865C10.6294 19.0865 10.6295 19.0865 10.6295 19.0865C10.6296 19.0865 10.6297 19.0865 10.6298 19.0865C10.6299 19.0865 10.63 19.0865 10.6301 19.0865C10.6302 19.0865 10.6303 19.0865 10.6304 19.0865C10.6305 19.0865 10.6306 19.0865 10.6307 19.0865C10.6308 19.0865 10.6309 19.0865 10.631 19.0865C10.6311 19.0865 10.6312 19.0865 10.6314 19.0865C10.6315 19.0865 10.6316 19.0865 10.6317 19.0865C10.6318 19.0865 10.632 19.0865 10.6321 19.0865C10.6322 19.0865 10.6324 19.0865 10.6325 19.0865C10.6326 19.0865 10.6328 19.0865 10.6329 19.0865C10.633 19.0865 10.6332 19.0865 10.6333 19.0865C10.6335 19.0865 10.6336 19.0865 10.6338 19.0865C10.6339 19.0865 10.6341 19.0865 10.6342 19.0865C10.6344 19.0865 10.6345 19.0865 10.6347 19.0865C10.6349 19.0865 10.635 19.0865 10.6352 19.0865C10.6354 19.0865 10.6355 19.0865 10.6357 19.0865C10.6359 19.0865 10.636 19.0865 10.6362 19.0865C10.6364 19.0865 10.6366 19.0865 10.6367 19.0865C10.6369 19.0865 10.6371 19.0865 10.6373 19.0865C10.6375 19.0865 10.6377 19.0865 10.6378 19.0865C10.638 19.0865 10.6382 19.0865 10.6384 19.0865C10.6386 19.0865 10.6388 19.0865 10.639 19.0865C10.6392 19.0865 10.6394 19.0865 10.6396 19.0865C10.6398 19.0865 10.64 19.0865 10.6402 19.0865C10.6404 19.0865 10.6406 19.0865 10.6409 19.0865C10.6411 19.0865 10.6413 19.0865 10.6415 19.0865C10.6417 19.0865 10.6419 19.0865 10.6422 19.0865C10.6424 19.0865 10.6426 19.0865 10.6428 19.0865C10.643 19.0865 10.6433 19.0865 10.6435 19.0865C10.6437 19.0865 10.644 19.0865 10.6442 19.0865C10.6444 19.0865 10.6447 19.0865 10.6449 19.0865C10.6451 19.0865 10.6454 19.0865 10.6456 19.0865C10.6458 19.0865 10.6461 19.0865 10.6463 19.0865C10.6466 19.0865 10.6468 19.0865 10.6471 19.0865C10.6473 19.0865 10.6476 19.0865 10.6478 19.0865C10.6481 19.0865 10.6483 19.0865 10.6486 19.0865C10.6488 19.0865 10.6491 19.0865 10.6493 19.0865C10.6496 19.0865 10.6499 19.0865 10.6501 19.0865C10.6504 19.0865 10.6506 19.0865 10.6509 19.0865C10.6512 19.0865 10.6514 19.0865 10.6517 19.0865C10.652 19.0865 10.6522 19.0865 10.6525 19.0865C10.6528 19.0865 10.6531 19.0865 10.6533 19.0865C10.6536 19.0865 10.6539 19.0865 10.6542 19.0865C10.6544 19.0865 10.6547 19.0865 10.655 19.0865C10.6553 19.0865 10.6556 19.0865 10.6558 19.0865C10.6561 19.0865 10.6564 19.0865 10.6567 19.0865C10.657 19.0865 10.6573 19.0865 10.6576 19.0865C10.6579 19.0865 10.6581 19.0865 10.6584 19.0865C10.6587 19.0865 10.659 19.0865 10.6593 19.0865C10.6596 19.0865 10.6599 19.0865 10.6602 19.0865C10.6605 19.0865 10.6608 19.0865 10.6611 19.0865C10.6614 19.0865 10.6617 19.0865 10.662 19.0865C10.6623 19.0865 10.6626 19.0865 10.6629 19.0865C10.6632 19.0865 10.6635 19.0865 10.6638 19.0865C10.6641 19.0865 10.6644 19.0865 10.6648 19.0865C10.6651 19.0865 10.6654 19.0865 10.6657 19.0865C10.666 19.0865 10.6663 19.0865 10.6666 19.0865C10.6669 19.0865 10.6672 19.0865 10.6676 19.0865C10.6679 19.0865 10.6682 19.0865 10.6685 19.0865C10.6688 19.0865 10.6691 19.0865 10.6695 19.0865C10.6698 19.0865 10.6701 19.0865 10.6704 19.0865C10.6707 19.0865 10.6711 19.0865 10.6714 19.0865C10.6717 19.0865 10.672 19.0865 10.6724 19.0865C10.6727 19.0865 10.673 19.0865 10.6733 19.0865C10.6737 19.0865 10.674 19.0865 10.6743 19.0865C10.6746 19.0865 10.675 19.0865 10.6753 19.0865C10.6756 19.0865 10.676 19.0865 10.6763 19.0865C10.6766 19.0865 10.677 19.0865 10.6773 19.0865C10.6776 19.0865 10.6779 19.0865 10.6783 19.0865C10.6786 19.0865 10.6789 19.0865 10.6793 19.0865C10.6796 19.0865 10.6799 19.0865 10.6803 19.0865C10.6806 19.0865 10.681 19.0865 10.6813 19.0865C10.6816 19.0865 10.682 19.0865 10.6823 19.0865C10.6826 19.0865 10.683 19.0865 10.6833 19.0865C10.6837 19.0865 10.684 19.0865 10.6843 19.0865C10.6847 19.0865 10.685 19.0865 10.6854 19.0865C10.6857 19.0865 10.686 19.0865 10.6864 19.0865C10.6867 19.0865 10.6871 19.0865 10.6874 19.0865C10.6877 19.0865 10.6881 19.0865 10.6884 19.0865C10.6888 19.0865 10.6891 19.0865 10.6894 19.0865C10.6898 19.0865 10.6901 19.0865 10.6905 19.0865C10.6908 19.0865 10.6912 19.0865 10.6915 19.0865C10.6918 19.0865 10.6922 19.0865 10.6925 19.0865C10.6929 19.0865 10.6932 19.0865 10.6936 19.0865C10.6939 19.0865 10.6943 19.0865 10.6946 19.0865C10.6949 19.0865 10.6953 19.0865 10.6956 19.0865C10.696 19.0865 10.6963 19.0865 10.6967 19.0865C10.697 19.0865 10.6973 19.0865 10.6977 19.0865C10.698 19.0865 10.6984 19.0865 10.6987 19.0865C10.6991 19.0865 10.6994 19.0865 10.6998 19.0865C10.7001 19.0865 10.7004 19.0865 10.7008 19.0865C10.7011 19.0865 10.7015 19.0865 10.7018 19.0865C10.7022 19.0865 10.7025 19.0865 10.7028 19.0865C10.7032 19.0865 10.7035 19.0865 10.7039 19.0865C10.7042 19.0865 10.7046 19.0865 10.7049 19.0865C10.7052 19.0865 10.7056 19.0865 10.7059 19.0865C10.7063 19.0865 10.7066 19.0865 10.7069 19.0865C10.7073 19.0865 10.7076 19.0865 10.708 19.0865C10.7083 19.0865 10.7086 19.0865 10.709 19.0865C10.7093 19.0865 10.7097 19.0865 10.71 19.0865C10.7103 19.0865 10.7107 19.0865 10.711 19.0865C10.7113 19.0865 10.7117 19.0865 10.712 19.0865C10.7124 19.0865 10.7127 19.0865 10.713 19.0865C10.7134 19.0865 10.7137 19.0865 10.714 19.0865C10.7144 19.0865 10.7147 19.0865 10.715 19.0865C10.7154 19.0865 10.7157 19.0865 10.716 19.0865C10.7164 19.0865 10.7167 19.0865 10.717 19.0865C10.7173 19.0865 10.7177 19.0865 10.718 19.0865C10.7183 19.0865 10.7187 19.0865 10.719 19.0865C10.7193 19.0865 10.7196 19.0865 10.72 19.0865C10.7203 19.0865 10.7206 19.0865 10.7209 19.0865C10.7213 19.0865 10.7216 19.0865 10.7219 19.0865C10.7222 19.0865 10.7225 19.0865 10.7229 19.0865C10.7232 19.0865 10.7235 19.0865 10.7238 19.0865C10.7241 19.0865 10.7245 19.0865 10.7248 19.0865C10.7251 19.0865 10.7254 19.0865 10.7257 19.0865C10.726 19.0865 10.7263 19.0865 10.7267 19.0865C10.727 19.0865 10.7273 19.0865 10.7276 19.0865C10.7279 19.0865 10.7282 19.0865 10.7285 19.0865C10.7288 19.0865 10.7291 19.0865 10.7294 19.0865C10.7297 19.0865 10.7301 19.0865 10.7304 19.0865C10.7307 19.0865 10.731 19.0865 10.7313 19.0865C10.7316 19.0865 10.7319 19.0865 10.7322 19.0865C10.7325 19.0865 10.7328 19.0865 10.7331 19.0865C10.7334 19.0865 10.7336 19.0865 10.7339 19.0865C10.7342 19.0865 10.7345 19.0865 10.7348 19.0865C10.7351 19.0865 10.7354 19.0865 10.7357 19.0865C10.736 19.0865 10.7363 19.0865 10.7365 19.0865C10.7368 19.0865 10.7371 19.0865 10.7374 19.0865C10.7377 19.0865 10.738 19.0865 10.7382 19.0865C10.7385 19.0865 10.7388 19.0865 10.7391 19.0865C10.7393 19.0865 10.7396 19.0865 10.7399 19.0865C10.7402 19.0865 10.7404 19.0865 10.7407 19.0865C10.741 19.0865 10.7412 19.0865 10.7415 19.0865C10.7418 19.0865 10.742 19.0865 10.7423 19.0865C10.7426 19.0865 10.7428 19.0865 10.7431 19.0865C10.7434 19.0865 10.7436 19.0865 10.7439 19.0865C10.7441 19.0865 10.7444 19.0865 10.7446 19.0865C10.7449 19.0865 10.7451 19.0865 10.7454 19.0865C10.7456 19.0865 10.7459 19.0865 10.7461 19.0865C10.7464 19.0865 10.7466 19.0865 10.7469 19.0865C10.7471 19.0865 10.7473 19.0865 10.7476 19.0865C10.7478 19.0865 10.7481 19.0865 10.7483 19.0865C10.7485 19.0865 10.7488 19.0865 10.749 19.0865C10.7492 19.0865 10.7494 19.0865 10.7497 19.0865C10.7499 19.0865 10.7501 19.0865 10.7503 19.0865C10.7506 19.0865 10.7508 19.0865 10.751 19.0865C10.7512 19.0865 10.7514 19.0865 10.7517 19.0865C10.7519 19.0865 10.7521 19.0865 10.7523 19.0865C10.7525 19.0865 10.7527 19.0865 10.7529 19.0865C10.7531 19.0865 10.7533 19.0865 10.7535 19.0865C10.7537 19.0865 10.7539 19.0865 10.7541 19.0865C10.7543 19.0865 10.7545 19.0865 10.7547 19.0865C10.7549 19.0865 10.7551 19.0865 10.7553 19.0865C10.7555 19.0865 10.7556 19.0865 10.7558 19.0865C10.756 19.0865 10.7562 19.0865 10.7564 19.0865C10.7565 19.0865 10.7567 19.0865 10.7569 19.0865C10.7571 19.0865 10.7572 19.0865 10.7574 19.0865C10.7576 19.0865 10.7577 19.0865 10.7579 19.0865C10.7581 19.0865 10.7582 19.0865 10.7584 19.0865C10.7585 19.0865 10.7587 19.0865 10.7589 19.0865C10.759 19.0865 10.7592 19.0865 10.7593 19.0865C10.7595 19.0865 10.7596 19.0865 10.7597 19.0865C10.7599 19.0865 10.76 19.0865 10.7602 19.0865C10.7603 19.0865 10.7604 19.0865 10.7606 19.0865C10.7607 19.0865 10.7608 19.0865 10.761 19.0865C10.7611 19.0865 10.7612 19.0865 10.7613 19.0865C10.7614 19.0865 10.7616 19.0865 10.7617 19.0865C10.7618 19.0865 10.7619 19.0865 10.762 19.0865C10.7621 19.0865 10.7622 19.0865 10.7623 19.0865C10.7624 19.0865 10.7625 19.0865 10.7626 19.0865C10.7627 19.0865 10.7628 19.0865 10.7629 19.0865C10.763 19.0865 10.7631 19.0865 10.7632 19.0865C10.7633 19.0865 10.7634 19.0865 10.7634 19.0865C10.7635 19.0865 10.7636 19.0865 10.7637 19.0865C10.7638 19.0865 10.7638 19.0865 10.7639 19.0865C10.764 19.0865 10.764 19.0865 10.7641 19.0865C10.7641 19.0865 10.7642 19.0865 10.7643 19.0865C10.7643 19.0865 10.7644 19.0865 10.7644 19.0865C10.7645 19.0865 10.7645 19.0865 10.7646 19.0865C10.7646 19.0865 10.7646 19.0865 10.7647 19.0865C10.7647 19.0865 10.7647 19.0865 10.7648 19.0865C10.7648 19.0865 10.7648 19.0865 10.7649 19.0865C10.7649 19.0865 10.7649 19.0865 10.7649 19.0865C10.7649 19.0865 10.7649 19.0865 10.765 19.0865C10.765 19.0865 10.765 19.0865 10.765 19.0865C10.765 18.3365 10.765 17.5865 10.765 17.5865C10.765 17.5865 10.765 17.5865 10.7649 17.5865C10.7649 17.5865 10.7649 17.5865 10.7649 17.5865C10.7649 17.5865 10.7649 17.5865 10.7648 17.5865C10.7648 17.5865 10.7648 17.5865 10.7648 17.5865C10.7647 17.5865 10.7647 17.5865 10.7646 17.5865C10.7646 17.5865 10.7646 17.5865 10.7645 17.5865C10.7645 17.5865 10.7644 17.5865 10.7644 17.5865C10.7643 17.5865 10.7643 17.5865 10.7642 17.5865C10.7641 17.5865 10.7641 17.5865 10.764 17.5865C10.7639 17.5865 10.7638 17.5865 10.7638 17.5865C10.7637 17.5865 10.7636 17.5865 10.7635 17.5865C10.7634 17.5865 10.7634 17.5865 10.7633 17.5865C10.7632 17.5865 10.7631 17.5865 10.763 17.5865C10.7629 17.5865 10.7628 17.5865 10.7627 17.5865C10.7626 17.5865 10.7624 17.5865 10.7623 17.5865C10.7622 17.5865 10.7621 17.5865 10.762 17.5865C10.7618 17.5865 10.7617 17.5865 10.7616 17.5865C10.7614 17.5865 10.7613 17.5865 10.7612 17.5865C10.761 17.5865 10.7609 17.5865 10.7607 17.5865C10.7606 17.5865 10.7604 17.5865 10.7603 17.5865C10.7601 17.5865 10.76 17.5865 10.7598 17.5865C10.7596 17.5865 10.7595 17.5865 10.7593 17.5865C10.7591 17.5865 10.7589 17.5865 10.7588 17.5865C10.7586 17.5865 10.7584 17.5865 10.7582 17.5865C10.758 17.5865 10.7578 17.5865 10.7576 17.5865C10.7574 17.5865 10.7572 17.5865 10.757 17.5865C10.7568 17.5865 10.7566 17.5865 10.7564 17.5865C10.7561 17.5865 10.7559 17.5865 10.7557 17.5865C10.7555 17.5865 10.7552 17.5865 10.755 17.5865C10.7548 17.5865 10.7545 17.5865 10.7543 17.5865C10.754 17.5865 10.7538 17.5865 10.7535 17.5865C10.7533 17.5865 10.753 17.5865 10.7528 17.5865C10.7525 17.5865 10.7522 17.5865 10.752 17.5865C10.7517 17.5865 10.7514 17.5865 10.7511 17.5865C10.7509 17.5865 10.7506 17.5865 10.7503 17.5865C10.75 17.5865 10.7497 17.5865 10.7494 17.5865C10.7491 17.5865 10.7488 17.5865 10.7485 17.5865C10.7482 17.5865 10.7479 17.5865 10.7476 17.5865C10.7472 17.5865 10.7469 17.5865 10.7466 17.5865C10.7463 17.5865 10.7459 17.5865 10.7456 17.5865C10.7453 17.5865 10.7449 17.5865 10.7446 17.5865C10.7442 17.5865 10.7439 17.5865 10.7435 17.5865C10.7431 17.5865 10.7428 17.5865 10.7424 17.5865C10.7421 17.5865 10.7417 17.5865 10.7413 17.5865C10.7409 17.5865 10.7405 17.5865 10.7402 17.5865C10.7398 17.5865 10.7394 17.5865 10.739 17.5865C10.7386 17.5865 10.7382 17.5865 10.7378 17.5865C10.7374 17.5865 10.737 17.5865 10.7365 17.5865C10.7361 17.5865 10.7357 17.5865 10.7353 17.5865C10.7348 17.5865 10.7344 17.5865 10.734 17.5865C10.7335 17.5865 10.7331 17.5865 10.7326 17.5865C10.7322 17.5865 10.7317 17.5865 10.7313 17.5865C10.7308 17.5865 10.7304 17.5865 10.7299 17.5865C10.7294 17.5865 10.7289 17.5865 10.7285 17.5865C10.728 17.5865 10.7275 17.5865 10.727 17.5865C10.7265 17.5865 10.726 17.5865 10.7255 17.5865C10.725 17.5865 10.7245 17.5865 10.724 17.5865C10.7235 17.5865 10.723 17.5865 10.7224 17.5865C10.7219 17.5865 10.7214 17.5865 10.7209 17.5865C10.7203 17.5865 10.7198 17.5865 10.7192 17.5865C10.7187 17.5865 10.7181 17.5865 10.7176 17.5865C10.717 17.5865 10.7165 17.5865 10.7159 17.5865C10.7153 17.5865 10.7148 17.5865 10.7142 17.5865C10.7136 17.5865 10.713 17.5865 10.7124 17.5865C10.7118 17.5865 10.7112 17.5865 10.7106 17.5865C10.71 17.5865 10.7094 17.5865 10.7088 17.5865C10.7082 17.5865 10.7076 17.5865 10.7069 17.5865C10.7063 17.5865 10.7057 17.5865 10.7051 17.5865C10.7044 17.5865 10.7038 17.5865 10.7031 17.5865C10.7025 17.5865 10.7018 17.5865 10.7012 17.5865C10.7005 17.5865 10.6998 17.5865 10.6992 17.5865C10.6985 17.5865 10.6978 17.5865 10.6971 17.5865C10.6964 17.5865 10.6958 17.5865 10.6951 17.5865C10.6944 17.5865 10.6937 17.5865 10.693 17.5865C10.6922 17.5865 10.6915 17.5865 10.6908 17.5865C10.6901 17.5865 10.6894 17.5865 10.6886 17.5865C10.6879 17.5865 10.6872 17.5865 10.6864 17.5865C10.6857 17.5865 10.6849 17.5865 10.6842 17.5865C10.6834 17.5865 10.6826 17.5865 10.6819 17.5865C10.6811 17.5865 10.6803 17.5865 10.6796 17.5865C10.6788 17.5865 10.678 17.5865 10.6772 17.5865C10.6764 17.5865 10.6756 17.5865 10.6748 17.5865C10.674 17.5865 10.6732 17.5865 10.6723 17.5865C10.6715 17.5865 10.6707 17.5865 10.6699 17.5865C10.669 17.5865 10.6682 17.5865 10.6674 17.5865C10.6665 17.5865 10.6657 17.5865 10.6648 17.5865C10.6639 17.5865 10.6631 17.5865 10.6622 17.5865C10.6613 17.5865 10.6605 17.5865 10.6596 17.5865C10.6587 17.5865 10.6578 17.5865 10.6569 17.5865C10.656 17.5865 10.6551 17.5865 10.6542 17.5865C10.6533 17.5865 10.6524 17.5865 10.6514 17.5865C10.6505 17.5865 10.6496 17.5865 10.6487 17.5865C10.6477 17.5865 10.6468 17.5865 10.6458 17.5865C10.6449 17.5865 10.6439 17.5865 10.643 17.5865C10.642 17.5865 10.641 17.5865 10.64 17.5865C10.6391 17.5865 10.6381 17.5865 10.6371 17.5865C10.6361 17.5865 10.6351 17.5865 10.6341 17.5865C10.6331 17.5865 10.6321 17.5865 10.6311 17.5865C10.63 17.5865 10.629 17.5865 10.628 17.5865C10.627 17.5865 10.6259 17.5865 10.6249 17.5865C10.6238 17.5865 10.6228 17.5865 10.6217 17.5865C10.6207 17.5865 10.6196 17.5865 10.6185 17.5865C10.6174 17.5865 10.6164 17.5865 10.6153 17.5865C10.6142 17.5865 10.6131 17.5865 10.612 17.5865C10.6109 17.5865 10.6098 17.5865 10.6087 17.5865C10.6076 17.5865 10.6064 17.5865 10.6053 17.5865C10.6042 17.5865 10.603 17.5865 10.6019 17.5865C10.6007 17.5865 10.5996 17.5865 10.5984 17.5865C10.5973 17.5865 10.5961 17.5865 10.5949 17.5865C10.5938 17.5865 10.5926 17.5865 10.5914 17.5865C10.5902 17.5865 10.589 17.5865 10.5878 17.5865C10.5866 17.5865 10.5854 17.5865 10.5842 17.5865C10.583 17.5865 10.5817 17.5865 10.5805 17.5865C10.5793 17.5865 10.578 17.5865 10.5768 17.5865C10.5755 17.5865 10.5743 17.5865 10.573 17.5865C10.5718 17.5865 10.5705 17.5865 10.5692 17.5865C10.5679 17.5865 10.5667 17.5865 10.5654 17.5865C10.5641 17.5865 10.5628 17.5865 10.5615 17.5865C10.5602 17.5865 10.5589 17.5865 10.5575 17.5865C10.5562 17.5865 10.5549 17.5865 10.5535 17.5865C10.5522 17.5865 10.5509 17.5865 10.5495 17.5865C10.5482 17.5865 10.5468 17.5865 10.5454 17.5865C10.5441 17.5865 10.5427 17.5865 10.5413 17.5865C10.5399 17.5865 10.5385 17.5865 10.5371 17.5865C10.5357 17.5865 10.5343 17.5865 10.5329 17.5865C10.5315 17.5865 10.5301 17.5865 10.5287 17.5865C10.5272 17.5865 10.5258 17.5865 10.5243 17.5865C10.5229 17.5865 10.5214 17.5865 10.52 17.5865C10.5185 17.5865 10.517 17.5865 10.5156 17.5865C10.5141 17.5865 10.5126 17.5865 10.5111 17.5865C10.5096 17.5865 10.5081 17.5865 10.5066 17.5865C10.5051 17.5865 10.5036 17.5865 10.5021 17.5865C10.5005 17.5865 10.499 17.5865 10.4975 17.5865C10.4959 17.5865 10.4944 17.5865 10.4928 17.5865C10.4913 17.5865 10.4897 17.5865 10.4881 17.5865C10.4865 17.5865 10.485 17.5865 10.4834 17.5865C10.4818 17.5865 10.4802 17.5865 10.4786 17.5865C10.477 17.5865 10.4754 17.5865 10.4737 17.5865C10.4721 17.5865 10.4705 17.5865 10.4688 17.5865C10.4672 17.5865 10.4656 17.5865 10.4639 17.5865C10.4622 17.5865 10.4606 17.5865 10.4589 17.5865C10.4572 17.5865 10.4556 17.5865 10.4539 17.5865C10.4522 17.5865 10.4505 17.5865 10.4488 17.5865C10.4471 17.5865 10.4453 17.5865 10.4436 17.5865C10.4419 17.5865 10.4402 17.5865 10.4384 17.5865C10.4367 17.5865 10.4349 17.5865 10.4332 17.5865C10.4314 17.5865 10.4297 17.5865 10.4279 17.5865C10.4261 17.5865 10.4243 17.5865 10.4225 17.5865C10.4207 17.5865 10.4189 17.5865 10.4171 17.5865C10.4153 17.5865 10.4135 17.5865 10.4117 17.5865C10.4099 17.5865 10.408 17.5865 10.4062 17.5865C10.4043 17.5865 10.4025 17.5865 10.4006 17.5865C10.3988 17.5865 10.3969 17.5865 10.395 17.5865C10.3931 17.5865 10.3913 17.5865 10.3894 17.5865C10.3875 17.5865 10.3856 17.5865 10.3836 17.5865C10.3817 17.5865 10.3798 17.5865 10.3779 17.5865C10.3759 17.5865 10.374 17.5865 10.3721 17.5865C10.3701 17.5865 10.3681 17.5865 10.3662 17.5865C10.3642 17.5865 10.3622 17.5865 10.3603 17.5865C10.3583 17.5865 10.3563 17.5865 10.3543 17.5865C10.3523 17.5865 10.3503 17.5865 10.3482 17.5865C10.3462 17.5865 10.3442 17.5865 10.3421 17.5865C10.3401 17.5865 10.3381 17.5865 10.336 17.5865C10.3339 17.5865 10.3319 17.5865 10.3298 17.5865C10.3277 17.5865 10.3256 17.5865 10.3235 17.5865C10.3214 17.5865 10.3193 17.5865 10.3172 17.5865C10.3151 17.5865 10.313 17.5865 10.3109 17.5865C10.3087 17.5865 10.3066 17.5865 10.3044 17.5865C10.3023 17.5865 10.3001 17.5865 10.298 17.5865C10.2958 17.5865 10.2936 17.5865 10.2914 17.5865C10.2893 17.5865 10.2871 17.5865 10.2849 17.5865C10.2826 17.5865 10.2804 17.5865 10.2782 17.5865C10.276 17.5865 10.2737 17.5865 10.2715 17.5865C10.2693 17.5865 10.267 17.5865 10.2647 17.5865C10.2625 17.5865 10.2602 17.5865 10.2579 17.5865C10.2556 17.5865 10.2534 17.5865 10.2511 17.5865C10.2488 17.5865 10.2464 17.5865 10.2441 17.5865C10.2418 17.5865 10.2395 17.5865 10.2371 17.5865C10.2348 17.5865 10.2325 17.5865 10.2301 17.5865C10.2277 17.5865 10.2254 17.5865 10.223 17.5865C10.2206 17.5865 10.2182 17.5865 10.2158 17.5865C10.2134 17.5865 10.211 17.5865 10.2086 17.5865C10.2062 17.5865 10.2038 17.5865 10.2013 17.5865C10.1989 17.5865 10.1964 17.5865 10.194 17.5865C10.1915 17.5865 10.1891 17.5865 10.1866 17.5865C10.1841 17.5865 10.1816 17.5865 10.1791 17.5865C10.1766 17.5865 10.1741 17.5865 10.1716 17.5865C10.1691 17.5865 10.1666 17.5865 10.164 17.5865C10.1615 17.5865 10.159 17.5865 10.1564 17.5865C10.1539 17.5865 10.1513 17.5865 10.1487 17.5865C10.1461 17.5865 10.1436 17.5865 10.141 17.5865C10.1384 17.5865 10.1358 17.5865 10.1331 17.5865C10.1305 17.5865 10.1279 17.5865 10.1253 17.5865C10.1226 17.5865 10.12 17.5865 10.1173 17.5865C10.1147 17.5865 10.112 17.5865 10.1093 17.5865C10.1067 17.5865 10.104 17.5865 10.1013 17.5865C10.0986 17.5865 10.0959 17.5865 10.0931 17.5865C10.0904 17.5865 10.0877 17.5865 10.085 17.5865C10.0822 17.5865 10.0795 17.5865 10.0767 17.5865C10.074 17.5865 10.0712 17.5865 10.0684 17.5865C10.0656 17.5865 10.0628 17.5865 10.06 17.5865C10.0572 17.5865 10.0544 17.5865 10.0516 17.5865V19.0865C10.0544 19.0865 10.0572 19.0865 10.06 19.0865C10.0628 19.0865 10.0656 19.0865 10.0684 19.0865C10.0712 19.0865 10.074 19.0865 10.0767 19.0865C10.0795 19.0865 10.0822 19.0865 10.085 19.0865C10.0877 19.0865 10.0904 19.0865 10.0931 19.0865C10.0959 19.0865 10.0986 19.0865 10.1013 19.0865C10.104 19.0865 10.1067 19.0865 10.1093 19.0865C10.112 19.0865 10.1147 19.0865 10.1173 19.0865C10.12 19.0865 10.1226 19.0865 10.1253 19.0865C10.1279 19.0865 10.1305 19.0865 10.1331 19.0865C10.1358 19.0865 10.1384 19.0865 10.141 19.0865C10.1436 19.0865 10.1461 19.0865 10.1487 19.0865C10.1513 19.0865 10.1539 19.0865 10.1564 19.0865C10.159 19.0865 10.1615 19.0865 10.164 19.0865C10.1666 19.0865 10.1691 19.0865 10.1716 19.0865C10.1741 19.0865 10.1766 19.0865 10.1791 19.0865C10.1816 19.0865 10.1841 19.0865 10.1866 19.0865C10.1891 19.0865 10.1915 19.0865 10.194 19.0865C10.1964 19.0865 10.1989 19.0865 10.2013 19.0865C10.2038 19.0865 10.2062 19.0865 10.2086 19.0865C10.211 19.0865 10.2134 19.0865 10.2158 19.0865C10.2182 19.0865 10.2206 19.0865 10.223 19.0865C10.2254 19.0865 10.2277 19.0865 10.2301 19.0865C10.2325 19.0865 10.2348 19.0865 10.2371 19.0865C10.2395 19.0865 10.2418 19.0865 10.2441 19.0865C10.2464 19.0865 10.2488 19.0865 10.2511 19.0865C10.2534 19.0865 10.2556 19.0865 10.2579 19.0865C10.2602 19.0865 10.2625 19.0865 10.2647 19.0865C10.267 19.0865 10.2693 19.0865 10.2715 19.0865C10.2737 19.0865 10.276 19.0865 10.2782 19.0865C10.2804 19.0865 10.2826 19.0865 10.2849 19.0865C10.2871 19.0865 10.2893 19.0865 10.2914 19.0865C10.2936 19.0865 10.2958 19.0865 10.298 19.0865C10.3001 19.0865 10.3023 19.0865 10.3044 19.0865C10.3066 19.0865 10.3087 19.0865 10.3109 19.0865C10.313 19.0865 10.3151 19.0865 10.3172 19.0865C10.3193 19.0865 10.3214 19.0865 10.3235 19.0865C10.3256 19.0865 10.3277 19.0865 10.3298 19.0865C10.3319 19.0865 10.3339 19.0865 10.336 19.0865C10.3381 19.0865 10.3401 19.0865 10.3421 19.0865C10.3442 19.0865 10.3462 19.0865 10.3482 19.0865C10.3503 19.0865 10.3523 19.0865 10.3543 19.0865C10.3563 19.0865 10.3583 19.0865 10.3603 19.0865C10.3622 19.0865 10.3642 19.0865 10.3662 19.0865C10.3681 19.0865 10.3701 19.0865 10.3721 19.0865C10.374 19.0865 10.3759 19.0865 10.3779 19.0865C10.3798 19.0865 10.3817 19.0865 10.3836 19.0865C10.3856 19.0865 10.3875 19.0865 10.3894 19.0865C10.3913 19.0865 10.3931 19.0865 10.395 19.0865C10.3969 19.0865 10.3988 19.0865 10.4006 19.0865C10.4025 19.0865 10.4043 19.0865 10.4062 19.0865C10.408 19.0865 10.4099 19.0865 10.4117 19.0865C10.4135 19.0865 10.4153 19.0865 10.4171 19.0865C10.4189 19.0865 10.4207 19.0865 10.4225 19.0865C10.4243 19.0865 10.4261 19.0865 10.4279 19.0865C10.4297 19.0865 10.4314 19.0865 10.4332 19.0865C10.4349 19.0865 10.4367 19.0865 10.4384 19.0865C10.4402 19.0865 10.4419 19.0865 10.4436 19.0865C10.4453 19.0865 10.4471 19.0865 10.4488 19.0865C10.4505 19.0865 10.4522 19.0865 10.4539 19.0865C10.4556 19.0865 10.4572 19.0865 10.4589 19.0865C10.4606 19.0865 10.4622 19.0865 10.4639 19.0865C10.4656 19.0865 10.4672 19.0865 10.4688 19.0865C10.4705 19.0865 10.4721 19.0865 10.4737 19.0865C10.4754 19.0865 10.477 19.0865 10.4786 19.0865C10.4802 19.0865 10.4818 19.0865 10.4834 19.0865C10.485 19.0865 10.4865 19.0865 10.4881 19.0865C10.4897 19.0865 10.4913 19.0865 10.4928 19.0865C10.4944 19.0865 10.4959 19.0865 10.4975 19.0865C10.499 19.0865 10.5005 19.0865 10.5021 19.0865C10.5036 19.0865 10.5051 19.0865 10.5066 19.0865C10.5081 19.0865 10.5096 19.0865 10.5111 19.0865C10.5126 19.0865 10.5141 19.0865 10.5156 19.0865C10.517 19.0865 10.5185 19.0865 10.52 19.0865C10.5214 19.0865 10.5229 19.0865 10.5243 19.0865C10.5258 19.0865 10.5272 19.0865 10.5287 19.0865C10.5301 19.0865 10.5315 19.0865 10.5329 19.0865C10.5343 19.0865 10.5357 19.0865 10.5371 19.0865C10.5385 19.0865 10.5399 19.0865 10.5413 19.0865C10.5427 19.0865 10.5441 19.0865 10.5454 19.0865C10.5468 19.0865 10.5482 19.0865 10.5495 19.0865C10.5509 19.0865 10.5522 19.0865 10.5535 19.0865C10.5549 19.0865 10.5562 19.0865 10.5575 19.0865C10.5589 19.0865 10.5602 19.0865 10.5615 19.0865C10.5628 19.0865 10.5641 19.0865 10.5654 19.0865C10.5667 19.0865 10.5679 19.0865 10.5692 19.0865C10.5705 19.0865 10.5718 19.0865 10.573 19.0865C10.5743 19.0865 10.5755 19.0865 10.5768 19.0865C10.578 19.0865 10.5793 19.0865 10.5805 19.0865C10.5817 19.0865 10.583 19.0865 10.5842 19.0865C10.5854 19.0865 10.5866 19.0865 10.5878 19.0865C10.589 19.0865 10.5902 19.0865 10.5914 19.0865C10.5926 19.0865 10.5938 19.0865 10.5949 19.0865C10.5961 19.0865 10.5973 19.0865 10.5984 19.0865C10.5996 19.0865 10.6007 19.0865 10.6019 19.0865C10.603 19.0865 10.6042 19.0865 10.6053 19.0865C10.6064 19.0865 10.6076 19.0865 10.6087 19.0865C10.6098 19.0865 10.6109 19.0865 10.612 19.0865C10.6131 19.0865 10.6142 19.0865 10.6153 19.0865C10.6164 19.0865 10.6174 19.0865 10.6185 19.0865C10.6196 19.0865 10.6207 19.0865 10.6217 19.0865C10.6228 19.0865 10.6238 19.0865 10.6249 19.0865C10.6259 19.0865 10.627 19.0865 10.628 19.0865C10.629 19.0865 10.63 19.0865 10.6311 19.0865C10.6321 19.0865 10.6331 19.0865 10.6341 19.0865C10.6351 19.0865 10.6361 19.0865 10.6371 19.0865C10.6381 19.0865 10.6391 19.0865 10.64 19.0865C10.641 19.0865 10.642 19.0865 10.643 19.0865C10.6439 19.0865 10.6449 19.0865 10.6458 19.0865C10.6468 19.0865 10.6477 19.0865 10.6487 19.0865C10.6496 19.0865 10.6505 19.0865 10.6514 19.0865C10.6524 19.0865 10.6533 19.0865 10.6542 19.0865C10.6551 19.0865 10.656 19.0865 10.6569 19.0865C10.6578 19.0865 10.6587 19.0865 10.6596 19.0865C10.6605 19.0865 10.6613 19.0865 10.6622 19.0865C10.6631 19.0865 10.6639 19.0865 10.6648 19.0865C10.6657 19.0865 10.6665 19.0865 10.6674 19.0865C10.6682 19.0865 10.669 19.0865 10.6699 19.0865C10.6707 19.0865 10.6715 19.0865 10.6723 19.0865C10.6732 19.0865 10.674 19.0865 10.6748 19.0865C10.6756 19.0865 10.6764 19.0865 10.6772 19.0865C10.678 19.0865 10.6788 19.0865 10.6796 19.0865C10.6803 19.0865 10.6811 19.0865 10.6819 19.0865C10.6826 19.0865 10.6834 19.0865 10.6842 19.0865C10.6849 19.0865 10.6857 19.0865 10.6864 19.0865C10.6872 19.0865 10.6879 19.0865 10.6886 19.0865C10.6894 19.0865 10.6901 19.0865 10.6908 19.0865C10.6915 19.0865 10.6922 19.0865 10.693 19.0865C10.6937 19.0865 10.6944 19.0865 10.6951 19.0865C10.6958 19.0865 10.6964 19.0865 10.6971 19.0865C10.6978 19.0865 10.6985 19.0865 10.6992 19.0865C10.6998 19.0865 10.7005 19.0865 10.7012 19.0865C10.7018 19.0865 10.7025 19.0865 10.7031 19.0865C10.7038 19.0865 10.7044 19.0865 10.7051 19.0865C10.7057 19.0865 10.7063 19.0865 10.7069 19.0865C10.7076 19.0865 10.7082 19.0865 10.7088 19.0865C10.7094 19.0865 10.71 19.0865 10.7106 19.0865C10.7112 19.0865 10.7118 19.0865 10.7124 19.0865C10.713 19.0865 10.7136 19.0865 10.7142 19.0865C10.7148 19.0865 10.7153 19.0865 10.7159 19.0865C10.7165 19.0865 10.717 19.0865 10.7176 19.0865C10.7181 19.0865 10.7187 19.0865 10.7192 19.0865C10.7198 19.0865 10.7203 19.0865 10.7209 19.0865C10.7214 19.0865 10.7219 19.0865 10.7224 19.0865C10.723 19.0865 10.7235 19.0865 10.724 19.0865C10.7245 19.0865 10.725 19.0865 10.7255 19.0865C10.726 19.0865 10.7265 19.0865 10.727 19.0865C10.7275 19.0865 10.728 19.0865 10.7285 19.0865C10.7289 19.0865 10.7294 19.0865 10.7299 19.0865C10.7304 19.0865 10.7308 19.0865 10.7313 19.0865C10.7317 19.0865 10.7322 19.0865 10.7326 19.0865C10.7331 19.0865 10.7335 19.0865 10.734 19.0865C10.7344 19.0865 10.7348 19.0865 10.7353 19.0865C10.7357 19.0865 10.7361 19.0865 10.7365 19.0865C10.737 19.0865 10.7374 19.0865 10.7378 19.0865C10.7382 19.0865 10.7386 19.0865 10.739 19.0865C10.7394 19.0865 10.7398 19.0865 10.7402 19.0865C10.7405 19.0865 10.7409 19.0865 10.7413 19.0865C10.7417 19.0865 10.7421 19.0865 10.7424 19.0865C10.7428 19.0865 10.7431 19.0865 10.7435 19.0865C10.7439 19.0865 10.7442 19.0865 10.7446 19.0865C10.7449 19.0865 10.7453 19.0865 10.7456 19.0865C10.7459 19.0865 10.7463 19.0865 10.7466 19.0865C10.7469 19.0865 10.7472 19.0865 10.7476 19.0865C10.7479 19.0865 10.7482 19.0865 10.7485 19.0865C10.7488 19.0865 10.7491 19.0865 10.7494 19.0865C10.7497 19.0865 10.75 19.0865 10.7503 19.0865C10.7506 19.0865 10.7509 19.0865 10.7511 19.0865C10.7514 19.0865 10.7517 19.0865 10.752 19.0865C10.7522 19.0865 10.7525 19.0865 10.7528 19.0865C10.753 19.0865 10.7533 19.0865 10.7535 19.0865C10.7538 19.0865 10.754 19.0865 10.7543 19.0865C10.7545 19.0865 10.7548 19.0865 10.755 19.0865C10.7552 19.0865 10.7555 19.0865 10.7557 19.0865C10.7559 19.0865 10.7561 19.0865 10.7564 19.0865C10.7566 19.0865 10.7568 19.0865 10.757 19.0865C10.7572 19.0865 10.7574 19.0865 10.7576 19.0865C10.7578 19.0865 10.758 19.0865 10.7582 19.0865C10.7584 19.0865 10.7586 19.0865 10.7588 19.0865C10.7589 19.0865 10.7591 19.0865 10.7593 19.0865C10.7595 19.0865 10.7596 19.0865 10.7598 19.0865C10.76 19.0865 10.7601 19.0865 10.7603 19.0865C10.7604 19.0865 10.7606 19.0865 10.7607 19.0865C10.7609 19.0865 10.761 19.0865 10.7612 19.0865C10.7613 19.0865 10.7614 19.0865 10.7616 19.0865C10.7617 19.0865 10.7618 19.0865 10.762 19.0865C10.7621 19.0865 10.7622 19.0865 10.7623 19.0865C10.7624 19.0865 10.7626 19.0865 10.7627 19.0865C10.7628 19.0865 10.7629 19.0865 10.763 19.0865C10.7631 19.0865 10.7632 19.0865 10.7633 19.0865C10.7634 19.0865 10.7634 19.0865 10.7635 19.0865C10.7636 19.0865 10.7637 19.0865 10.7638 19.0865C10.7638 19.0865 10.7639 19.0865 10.764 19.0865C10.7641 19.0865 10.7641 19.0865 10.7642 19.0865C10.7643 19.0865 10.7643 19.0865 10.7644 19.0865C10.7644 19.0865 10.7645 19.0865 10.7645 19.0865C10.7646 19.0865 10.7646 19.0865 10.7646 19.0865C10.7647 19.0865 10.7647 19.0865 10.7648 19.0865C10.7648 19.0865 10.7648 19.0865 10.7648 19.0865C10.7649 19.0865 10.7649 19.0865 10.7649 19.0865C10.7649 19.0865 10.7649 19.0865 10.7649 19.0865C10.765 19.0865 10.765 19.0865 10.765 19.0865C10.765 19.0865 10.765 18.3365 10.765 17.5865C10.765 17.5865 10.765 17.5865 10.765 17.5865C10.7649 17.5865 10.7649 17.5865 10.7649 17.5865C10.7649 17.5865 10.7649 17.5865 10.7649 17.5865C10.7648 17.5865 10.7648 17.5865 10.7648 17.5865C10.7647 17.5865 10.7647 17.5865 10.7647 17.5865C10.7646 17.5865 10.7646 17.5865 10.7646 17.5865C10.7645 17.5865 10.7645 17.5865 10.7644 17.5865C10.7644 17.5865 10.7643 17.5865 10.7643 17.5865C10.7642 17.5865 10.7641 17.5865 10.7641 17.5865C10.764 17.5865 10.764 17.5865 10.7639 17.5865C10.7638 17.5865 10.7638 17.5865 10.7637 17.5865C10.7636 17.5865 10.7635 17.5865 10.7634 17.5865C10.7634 17.5865 10.7633 17.5865 10.7632 17.5865C10.7631 17.5865 10.763 17.5865 10.7629 17.5865C10.7628 17.5865 10.7627 17.5865 10.7626 17.5865C10.7625 17.5865 10.7624 17.5865 10.7623 17.5865C10.7622 17.5865 10.7621 17.5865 10.762 17.5865C10.7619 17.5865 10.7618 17.5865 10.7617 17.5865C10.7616 17.5865 10.7614 17.5865 10.7613 17.5865C10.7612 17.5865 10.7611 17.5865 10.761 17.5865C10.7608 17.5865 10.7607 17.5865 10.7606 17.5865C10.7604 17.5865 10.7603 17.5865 10.7602 17.5865C10.76 17.5865 10.7599 17.5865 10.7597 17.5865C10.7596 17.5865 10.7595 17.5865 10.7593 17.5865C10.7592 17.5865 10.759 17.5865 10.7589 17.5865C10.7587 17.5865 10.7585 17.5865 10.7584 17.5865C10.7582 17.5865 10.7581 17.5865 10.7579 17.5865C10.7577 17.5865 10.7576 17.5865 10.7574 17.5865C10.7572 17.5865 10.7571 17.5865 10.7569 17.5865C10.7567 17.5865 10.7565 17.5865 10.7564 17.5865C10.7562 17.5865 10.756 17.5865 10.7558 17.5865C10.7556 17.5865 10.7555 17.5865 10.7553 17.5865C10.7551 17.5865 10.7549 17.5865 10.7547 17.5865C10.7545 17.5865 10.7543 17.5865 10.7541 17.5865C10.7539 17.5865 10.7537 17.5865 10.7535 17.5865C10.7533 17.5865 10.7531 17.5865 10.7529 17.5865C10.7527 17.5865 10.7525 17.5865 10.7523 17.5865C10.7521 17.5865 10.7519 17.5865 10.7517 17.5865C10.7514 17.5865 10.7512 17.5865 10.751 17.5865C10.7508 17.5865 10.7506 17.5865 10.7503 17.5865C10.7501 17.5865 10.7499 17.5865 10.7497 17.5865C10.7494 17.5865 10.7492 17.5865 10.749 17.5865C10.7488 17.5865 10.7485 17.5865 10.7483 17.5865C10.7481 17.5865 10.7478 17.5865 10.7476 17.5865C10.7473 17.5865 10.7471 17.5865 10.7469 17.5865C10.7466 17.5865 10.7464 17.5865 10.7461 17.5865C10.7459 17.5865 10.7456 17.5865 10.7454 17.5865C10.7451 17.5865 10.7449 17.5865 10.7446 17.5865C10.7444 17.5865 10.7441 17.5865 10.7439 17.5865C10.7436 17.5865 10.7434 17.5865 10.7431 17.5865C10.7428 17.5865 10.7426 17.5865 10.7423 17.5865C10.742 17.5865 10.7418 17.5865 10.7415 17.5865C10.7412 17.5865 10.741 17.5865 10.7407 17.5865C10.7404 17.5865 10.7402 17.5865 10.7399 17.5865C10.7396 17.5865 10.7393 17.5865 10.7391 17.5865C10.7388 17.5865 10.7385 17.5865 10.7382 17.5865C10.738 17.5865 10.7377 17.5865 10.7374 17.5865C10.7371 17.5865 10.7368 17.5865 10.7365 17.5865C10.7363 17.5865 10.736 17.5865 10.7357 17.5865C10.7354 17.5865 10.7351 17.5865 10.7348 17.5865C10.7345 17.5865 10.7342 17.5865 10.7339 17.5865C10.7336 17.5865 10.7334 17.5865 10.7331 17.5865C10.7328 17.5865 10.7325 17.5865 10.7322 17.5865C10.7319 17.5865 10.7316 17.5865 10.7313 17.5865C10.731 17.5865 10.7307 17.5865 10.7304 17.5865C10.7301 17.5865 10.7297 17.5865 10.7294 17.5865C10.7291 17.5865 10.7288 17.5865 10.7285 17.5865C10.7282 17.5865 10.7279 17.5865 10.7276 17.5865C10.7273 17.5865 10.727 17.5865 10.7267 17.5865C10.7263 17.5865 10.726 17.5865 10.7257 17.5865C10.7254 17.5865 10.7251 17.5865 10.7248 17.5865C10.7245 17.5865 10.7241 17.5865 10.7238 17.5865C10.7235 17.5865 10.7232 17.5865 10.7229 17.5865C10.7225 17.5865 10.7222 17.5865 10.7219 17.5865C10.7216 17.5865 10.7213 17.5865 10.7209 17.5865C10.7206 17.5865 10.7203 17.5865 10.72 17.5865C10.7196 17.5865 10.7193 17.5865 10.719 17.5865C10.7187 17.5865 10.7183 17.5865 10.718 17.5865C10.7177 17.5865 10.7173 17.5865 10.717 17.5865C10.7167 17.5865 10.7164 17.5865 10.716 17.5865C10.7157 17.5865 10.7154 17.5865 10.715 17.5865C10.7147 17.5865 10.7144 17.5865 10.714 17.5865C10.7137 17.5865 10.7134 17.5865 10.713 17.5865C10.7127 17.5865 10.7124 17.5865 10.712 17.5865C10.7117 17.5865 10.7113 17.5865 10.711 17.5865C10.7107 17.5865 10.7103 17.5865 10.71 17.5865C10.7097 17.5865 10.7093 17.5865 10.709 17.5865C10.7086 17.5865 10.7083 17.5865 10.708 17.5865C10.7076 17.5865 10.7073 17.5865 10.7069 17.5865C10.7066 17.5865 10.7063 17.5865 10.7059 17.5865C10.7056 17.5865 10.7052 17.5865 10.7049 17.5865C10.7046 17.5865 10.7042 17.5865 10.7039 17.5865C10.7035 17.5865 10.7032 17.5865 10.7028 17.5865C10.7025 17.5865 10.7022 17.5865 10.7018 17.5865C10.7015 17.5865 10.7011 17.5865 10.7008 17.5865C10.7004 17.5865 10.7001 17.5865 10.6998 17.5865C10.6994 17.5865 10.6991 17.5865 10.6987 17.5865C10.6984 17.5865 10.698 17.5865 10.6977 17.5865C10.6973 17.5865 10.697 17.5865 10.6967 17.5865C10.6963 17.5865 10.696 17.5865 10.6956 17.5865C10.6953 17.5865 10.6949 17.5865 10.6946 17.5865C10.6943 17.5865 10.6939 17.5865 10.6936 17.5865C10.6932 17.5865 10.6929 17.5865 10.6925 17.5865C10.6922 17.5865 10.6918 17.5865 10.6915 17.5865C10.6912 17.5865 10.6908 17.5865 10.6905 17.5865C10.6901 17.5865 10.6898 17.5865 10.6894 17.5865C10.6891 17.5865 10.6888 17.5865 10.6884 17.5865C10.6881 17.5865 10.6877 17.5865 10.6874 17.5865C10.6871 17.5865 10.6867 17.5865 10.6864 17.5865C10.686 17.5865 10.6857 17.5865 10.6854 17.5865C10.685 17.5865 10.6847 17.5865 10.6843 17.5865C10.684 17.5865 10.6837 17.5865 10.6833 17.5865C10.683 17.5865 10.6826 17.5865 10.6823 17.5865C10.682 17.5865 10.6816 17.5865 10.6813 17.5865C10.681 17.5865 10.6806 17.5865 10.6803 17.5865C10.6799 17.5865 10.6796 17.5865 10.6793 17.5865C10.6789 17.5865 10.6786 17.5865 10.6783 17.5865C10.6779 17.5865 10.6776 17.5865 10.6773 17.5865C10.677 17.5865 10.6766 17.5865 10.6763 17.5865C10.676 17.5865 10.6756 17.5865 10.6753 17.5865C10.675 17.5865 10.6746 17.5865 10.6743 17.5865C10.674 17.5865 10.6737 17.5865 10.6733 17.5865C10.673 17.5865 10.6727 17.5865 10.6724 17.5865C10.672 17.5865 10.6717 17.5865 10.6714 17.5865C10.6711 17.5865 10.6707 17.5865 10.6704 17.5865C10.6701 17.5865 10.6698 17.5865 10.6695 17.5865C10.6691 17.5865 10.6688 17.5865 10.6685 17.5865C10.6682 17.5865 10.6679 17.5865 10.6676 17.5865C10.6672 17.5865 10.6669 17.5865 10.6666 17.5865C10.6663 17.5865 10.666 17.5865 10.6657 17.5865C10.6654 17.5865 10.6651 17.5865 10.6648 17.5865C10.6644 17.5865 10.6641 17.5865 10.6638 17.5865C10.6635 17.5865 10.6632 17.5865 10.6629 17.5865C10.6626 17.5865 10.6623 17.5865 10.662 17.5865C10.6617 17.5865 10.6614 17.5865 10.6611 17.5865C10.6608 17.5865 10.6605 17.5865 10.6602 17.5865C10.6599 17.5865 10.6596 17.5865 10.6593 17.5865C10.659 17.5865 10.6587 17.5865 10.6584 17.5865C10.6581 17.5865 10.6579 17.5865 10.6576 17.5865C10.6573 17.5865 10.657 17.5865 10.6567 17.5865C10.6564 17.5865 10.6561 17.5865 10.6558 17.5865C10.6556 17.5865 10.6553 17.5865 10.655 17.5865C10.6547 17.5865 10.6544 17.5865 10.6542 17.5865C10.6539 17.5865 10.6536 17.5865 10.6533 17.5865C10.6531 17.5865 10.6528 17.5865 10.6525 17.5865C10.6522 17.5865 10.652 17.5865 10.6517 17.5865C10.6514 17.5865 10.6512 17.5865 10.6509 17.5865C10.6506 17.5865 10.6504 17.5865 10.6501 17.5865C10.6499 17.5865 10.6496 17.5865 10.6493 17.5865C10.6491 17.5865 10.6488 17.5865 10.6486 17.5865C10.6483 17.5865 10.6481 17.5865 10.6478 17.5865C10.6476 17.5865 10.6473 17.5865 10.6471 17.5865C10.6468 17.5865 10.6466 17.5865 10.6463 17.5865C10.6461 17.5865 10.6458 17.5865 10.6456 17.5865C10.6454 17.5865 10.6451 17.5865 10.6449 17.5865C10.6447 17.5865 10.6444 17.5865 10.6442 17.5865C10.644 17.5865 10.6437 17.5865 10.6435 17.5865C10.6433 17.5865 10.643 17.5865 10.6428 17.5865C10.6426 17.5865 10.6424 17.5865 10.6422 17.5865C10.6419 17.5865 10.6417 17.5865 10.6415 17.5865C10.6413 17.5865 10.6411 17.5865 10.6409 17.5865C10.6406 17.5865 10.6404 17.5865 10.6402 17.5865C10.64 17.5865 10.6398 17.5865 10.6396 17.5865C10.6394 17.5865 10.6392 17.5865 10.639 17.5865C10.6388 17.5865 10.6386 17.5865 10.6384 17.5865C10.6382 17.5865 10.638 17.5865 10.6378 17.5865C10.6377 17.5865 10.6375 17.5865 10.6373 17.5865C10.6371 17.5865 10.6369 17.5865 10.6367 17.5865C10.6366 17.5865 10.6364 17.5865 10.6362 17.5865C10.636 17.5865 10.6359 17.5865 10.6357 17.5865C10.6355 17.5865 10.6354 17.5865 10.6352 17.5865C10.635 17.5865 10.6349 17.5865 10.6347 17.5865C10.6345 17.5865 10.6344 17.5865 10.6342 17.5865C10.6341 17.5865 10.6339 17.5865 10.6338 17.5865C10.6336 17.5865 10.6335 17.5865 10.6333 17.5865C10.6332 17.5865 10.633 17.5865 10.6329 17.5865C10.6328 17.5865 10.6326 17.5865 10.6325 17.5865C10.6324 17.5865 10.6322 17.5865 10.6321 17.5865C10.632 17.5865 10.6318 17.5865 10.6317 17.5865C10.6316 17.5865 10.6315 17.5865 10.6314 17.5865C10.6312 17.5865 10.6311 17.5865 10.631 17.5865C10.6309 17.5865 10.6308 17.5865 10.6307 17.5865C10.6306 17.5865 10.6305 17.5865 10.6304 17.5865C10.6303 17.5865 10.6302 17.5865 10.6301 17.5865C10.63 17.5865 10.6299 17.5865 10.6298 17.5865C10.6297 17.5865 10.6296 17.5865 10.6295 17.5865C10.6295 17.5865 10.6294 17.5865 10.6293 17.5865C10.6292 17.5865 10.6292 17.5865 10.6291 17.5865C10.629 17.5865 10.6289 17.5865 10.6289 17.5865C10.6288 17.5865 10.6288 17.5865 10.6287 17.5865C10.6286 17.5865 10.6286 17.5865 10.6285 17.5865C10.6285 17.5865 10.6284 17.5865 10.6284 17.5865C10.6283 17.5865 10.6283 17.5865 10.6283 17.5865C10.6282 17.5865 10.6282 17.5865 10.6281 17.5865C10.6281 17.5865 10.6281 17.5865 10.6281 17.5865C10.628 17.5865 10.628 17.5865 10.628 17.5865C10.628 17.5865 10.628 17.5865 10.6279 17.5865C10.6279 17.5865 10.6279 17.5865 10.6279 17.5865C10.6279 17.5865 10.6279 18.3365 10.6279 19.0865C10.6279 19.0865 10.6279 19.0865 10.6279 19.0865C10.6279 19.0865 10.6279 19.0865 10.628 19.0865C10.628 19.0865 10.628 19.0865 10.628 19.0865C10.628 19.0865 10.6281 19.0865 10.6281 19.0865C10.6281 19.0865 10.6282 19.0865 10.6282 19.0865C10.6282 19.0865 10.6283 19.0865 10.6283 19.0865C10.6284 19.0865 10.6284 19.0865 10.6285 19.0865C10.6285 19.0865 10.6286 19.0865 10.6286 19.0865C10.6287 19.0865 10.6287 19.0865 10.6288 19.0865C10.6289 19.0865 10.6289 19.0865 10.629 19.0865C10.6291 19.0865 10.6292 19.0865 10.6293 19.0865C10.6293 19.0865 10.6294 19.0865 10.6295 19.0865C10.6296 19.0865 10.6297 19.0865 10.6298 19.0865C10.6299 19.0865 10.63 19.0865 10.6301 19.0865C10.6302 19.0865 10.6303 19.0865 10.6304 19.0865C10.6305 19.0865 10.6306 19.0865 10.6308 19.0865C10.6309 19.0865 10.631 19.0865 10.6311 19.0865C10.6313 19.0865 10.6314 19.0865 10.6315 19.0865C10.6317 19.0865 10.6318 19.0865 10.632 19.0865C10.6321 19.0865 10.6323 19.0865 10.6324 19.0865C10.6326 19.0865 10.6327 19.0865 10.6329 19.0865C10.633 19.0865 10.6332 19.0865 10.6334 19.0865C10.6336 19.0865 10.6337 19.0865 10.6339 19.0865C10.6341 19.0865 10.6343 19.0865 10.6345 19.0865C10.6346 19.0865 10.6348 19.0865 10.635 19.0865C10.6352 19.0865 10.6354 19.0865 10.6356 19.0865C10.6358 19.0865 10.636 19.0865 10.6363 19.0865C10.6365 19.0865 10.6367 19.0865 10.6369 19.0865C10.6371 19.0865 10.6374 19.0865 10.6376 19.0865C10.6378 19.0865 10.6381 19.0865 10.6383 19.0865C10.6385 19.0865 10.6388 19.0865 10.639 19.0865C10.6393 19.0865 10.6395 19.0865 10.6398 19.0865C10.64 19.0865 10.6403 19.0865 10.6406 19.0865C10.6408 19.0865 10.6411 19.0865 10.6414 19.0865C10.6417 19.0865 10.6419 19.0865 10.6422 19.0865C10.6425 19.0865 10.6428 19.0865 10.6431 19.0865C10.6434 19.0865 10.6437 19.0865 10.644 19.0865C10.6443 19.0865 10.6446 19.0865 10.6449 19.0865C10.6452 19.0865 10.6456 19.0865 10.6459 19.0865C10.6462 19.0865 10.6465 19.0865 10.6469 19.0865C10.6472 19.0865 10.6475 19.0865 10.6479 19.0865C10.6482 19.0865 10.6486 19.0865 10.6489 19.0865C10.6493 19.0865 10.6496 19.0865 10.65 19.0865C10.6504 19.0865 10.6507 19.0865 10.6511 19.0865C10.6515 19.0865 10.6519 19.0865 10.6522 19.0865C10.6526 19.0865 10.653 19.0865 10.6534 19.0865C10.6538 19.0865 10.6542 19.0865 10.6546 19.0865C10.655 19.0865 10.6554 19.0865 10.6558 19.0865C10.6562 19.0865 10.6567 19.0865 10.6571 19.0865C10.6575 19.0865 10.6579 19.0865 10.6584 19.0865C10.6588 19.0865 10.6592 19.0865 10.6597 19.0865C10.6601 19.0865 10.6606 19.0865 10.661 19.0865C10.6615 19.0865 10.6619 19.0865 10.6624 19.0865C10.6629 19.0865 10.6633 19.0865 10.6638 19.0865C10.6643 19.0865 10.6648 19.0865 10.6653 19.0865C10.6658 19.0865 10.6662 19.0865 10.6667 19.0865C10.6672 19.0865 10.6677 19.0865 10.6682 19.0865C10.6688 19.0865 10.6693 19.0865 10.6698 19.0865C10.6703 19.0865 10.6708 19.0865 10.6714 19.0865C10.6719 19.0865 10.6724 19.0865 10.673 19.0865C10.6735 19.0865 10.6741 19.0865 10.6746 19.0865C10.6752 19.0865 10.6757 19.0865 10.6763 19.0865C10.6768 19.0865 10.6774 19.0865 10.678 19.0865C10.6786 19.0865 10.6791 19.0865 10.6797 19.0865C10.6803 19.0865 10.6809 19.0865 10.6815 19.0865C10.6821 19.0865 10.6827 19.0865 10.6833 19.0865C10.6839 19.0865 10.6845 19.0865 10.6852 19.0865C10.6858 19.0865 10.6864 19.0865 10.687 19.0865C10.6877 19.0865 10.6883 19.0865 10.6889 19.0865C10.6896 19.0865 10.6902 19.0865 10.6909 19.0865C10.6916 19.0865 10.6922 19.0865 10.6929 19.0865C10.6935 19.0865 10.6942 19.0865 10.6949 19.0865C10.6956 19.0865 10.6963 19.0865 10.697 19.0865C10.6976 19.0865 10.6983 19.0865 10.699 19.0865C10.6997 19.0865 10.7005 19.0865 10.7012 19.0865C10.7019 19.0865 10.7026 19.0865 10.7033 19.0865C10.7041 19.0865 10.7048 19.0865 10.7055 19.0865C10.7063 19.0865 10.707 19.0865 10.7078 19.0865C10.7085 19.0865 10.7093 19.0865 10.71 19.0865C10.7108 19.0865 10.7116 19.0865 10.7124 19.0865C10.7131 19.0865 10.7139 19.0865 10.7147 19.0865C10.7155 19.0865 10.7163 19.0865 10.7171 19.0865C10.7179 19.0865 10.7187 19.0865 10.7195 19.0865C10.7203 19.0865 10.7211 19.0865 10.722 19.0865C10.7228 19.0865 10.7236 19.0865 10.7245 19.0865C10.7253 19.0865 10.7262 19.0865 10.727 19.0865C10.7279 19.0865 10.7287 19.0865 10.7296 19.0865C10.7305 19.0865 10.7313 19.0865 10.7322 19.0865C10.7331 19.0865 10.734 19.0865 10.7349 19.0865C10.7358 19.0865 10.7366 19.0865 10.7376 19.0865C10.7385 19.0865 10.7394 19.0865 10.7403 19.0865C10.7412 19.0865 10.7421 19.0865 10.7431 19.0865C10.744 19.0865 10.7449 19.0865 10.7459 19.0865C10.7468 19.0865 10.7478 19.0865 10.7487 19.0865C10.7497 19.0865 10.7506 19.0865 10.7516 19.0865C10.7526 19.0865 10.7536 19.0865 10.7546 19.0865C10.7555 19.0865 10.7565 19.0865 10.7575 19.0865C10.7585 19.0865 10.7595 19.0865 10.7605 19.0865C10.7616 19.0865 10.7626 19.0865 10.7636 19.0865C10.7646 19.0865 10.7657 19.0865 10.7667 19.0865C10.7677 19.0865 10.7688 19.0865 10.7698 19.0865C10.7709 19.0865 10.772 19.0865 10.773 19.0865C10.7741 19.0865 10.7752 19.0865 10.7762 19.0865C10.7773 19.0865 10.7784 19.0865 10.7795 19.0865C10.7806 19.0865 10.7817 19.0865 10.7828 19.0865C10.7839 19.0865 10.785 19.0865 10.7862 19.0865C10.7873 19.0865 10.7884 19.0865 10.7896 19.0865C10.7907 19.0865 10.7918 19.0865 10.793 19.0865C10.7942 19.0865 10.7953 19.0865 10.7965 19.0865C10.7976 19.0865 10.7988 19.0865 10.8 19.0865V17.5865ZM10.0516 17.5865C9.50662 17.5865 9.17668 17.4095 8.97797 17.1937C8.76995 16.9678 8.63452 16.6212 8.63452 16.1694H7.13452C7.13452 16.9145 7.36027 17.6514 7.87462 18.2099C8.39826 18.7784 9.15186 19.0865 10.0516 19.0865V17.5865Z" fill="#222222"/>
<path id="Subtract" fill-rule="evenodd" clip-rule="evenodd" d="M10.0515 2.5C12.8136 2.5 15.0528 4.73913 15.0528 7.50123V11H16.5528V7.50146C16.5528 3.91093 13.6421 1 10.0515 1C6.46099 1 3.55029 3.91093 3.55029 7.50146L3.55024 11.8355L2.10685 14.7224C1.77442 15.3873 2.25792 16.1696 3.00129 16.1696H12V14.6696H3.81028L4.87514 12.5398C4.98685 12.3301 5.05029 12.0905 5.05029 11.8354V7.50123C5.05029 4.73913 7.28942 2.5 10.0515 2.5Z" fill="#222222"/>
<path id="Vector" d="M18.3334 18.3332L14.1667 14.1665M14.1667 18.3332L18.3334 14.1665" stroke="#222222" stroke-width="1.5" stroke-linecap="round" stroke-linejoin="round"/>
<path id="Line 48" d="M7 15.4199H12" stroke="#222222" stroke-width="1.5" stroke-linecap="round"/>
<path id="Line 49" d="M15.8 9V12" stroke="#222222" stroke-width="1.5" stroke-linecap="round"/>
</g>
</g>
</svg>
