<svg width="22" height="23" viewBox="0 0 22 23" fill="none" xmlns="http://www.w3.org/2000/svg">
<g id="mail">
<g id="Vector">
<path d="M19 4H3C1.89543 4 1 4.89543 1 6V18C1 19.1046 1.89543 20 3 20H19C20.1046 20 21 19.1046 21 18V6C21 4.89543 20.1046 4 19 4Z" fill="#EE6C6C"/>
<path d="M21 7L12.03 12.7C11.7213 12.8934 11.3643 12.996 11 12.996C10.6357 12.996 10.2787 12.8934 9.97 12.7L1 7" fill="#EE6C6C"/>
</g>
<path id="Vector_2" d="M20.1667 6.91675L11.9442 12.1417C11.6612 12.3191 11.334 12.4131 11 12.4131C10.6661 12.4131 10.3389 12.3191 10.0559 12.1417L1.83337 6.91675" stroke="#FFF4F6" stroke-linecap="round" stroke-linejoin="round"/>
</g>
</svg>
