<svg width="16" height="16" viewBox="0 0 16 16" fill="none" xmlns="http://www.w3.org/2000/svg">
<g id="thumbs-up" clip-path="url(#clip0_2033_28741)">
<path id="Vector" d="M4.66659 6.66634V14.6663M9.99992 3.91967L9.33325 6.66634H13.2199C13.4269 6.66634 13.6311 6.71453 13.8162 6.8071C14.0013 6.89968 14.1624 7.03408 14.2866 7.19967C14.4108 7.36527 14.4947 7.55751 14.5317 7.76116C14.5688 7.96482 14.5579 8.17429 14.4999 8.37301L12.9466 13.7063C12.8658 13.9833 12.6974 14.2266 12.4666 14.3997C12.2358 14.5728 11.9551 14.6663 11.6666 14.6663H2.66659C2.31296 14.6663 1.97382 14.5259 1.72378 14.2758C1.47373 14.0258 1.33325 13.6866 1.33325 13.333V7.99967C1.33325 7.64605 1.47373 7.30691 1.72378 7.05687C1.97382 6.80682 2.31296 6.66634 2.66659 6.66634H4.50659C4.75464 6.66621 4.99774 6.59688 5.20856 6.46615C5.41937 6.33543 5.58953 6.14848 5.69992 5.92634L7.99992 1.33301C8.3143 1.3369 8.62374 1.41179 8.90512 1.55207C9.1865 1.69236 9.43254 1.89441 9.62486 2.14314C9.81717 2.39187 9.9508 2.68085 10.0157 2.98848C10.0807 3.2961 10.0753 3.61443 9.99992 3.91967Z" stroke="#8C959F" stroke-linecap="round" stroke-linejoin="round"/>
</g>
<defs>
<clipPath id="clip0_2033_28741">
<rect width="16" height="16" fill="white"/>
</clipPath>
</defs>
</svg>
