<svg width="18" height="16" viewBox="0 0 18 16" fill="none" xmlns="http://www.w3.org/2000/svg">
<g id="Vector">
<path id="Vector-69" d="M4.46401 8.16524C4.63524 8.5424 5.0798 8.70935 5.45696 8.53813C5.83413 8.3669 6.00108 7.92234 5.82985 7.54517L4.46401 8.16524ZM3.16196 6.58523L3.15206 7.33516C3.15693 7.33523 3.16181 7.33524 3.16669 7.33521L3.16196 6.58523ZM1 8.69019L0.25 8.68006V8.69019H1ZM1 12.9021H0.249906L0.250094 12.914L1 12.9021ZM3.16196 15.0021L3.16787 14.2521C3.16259 14.2521 3.15731 14.2521 3.15203 14.2522L3.16196 15.0021ZM5.92927 13.7887C6.0638 13.397 5.85529 12.9703 5.46354 12.8358C5.07178 12.7012 4.64513 12.9098 4.51059 13.3015L5.92927 13.7887ZM5.83261 7.55056C5.6642 7.17212 5.2209 7.00187 4.84246 7.17028C4.46403 7.33869 4.29378 7.78199 4.46219 8.16042L5.83261 7.55056ZM5.3244 8.69048L4.57439 8.68977V8.69048H5.3244ZM5.3244 12.9024H4.57438L4.57441 12.9076L5.3244 12.9024ZM4.51098 13.318C4.38319 13.712 4.599 14.135 4.99301 14.2628C5.38702 14.3906 5.81002 14.1748 5.93781 13.7808L4.51098 13.318ZM4.47558 7.52133C4.29103 7.89216 4.44203 8.34239 4.81285 8.52694C5.18368 8.7115 5.6339 8.5605 5.81846 8.18967L4.47558 7.52133ZM5.85501 6.98652L5.4122 6.38119C5.4054 6.38617 5.39868 6.39126 5.39205 6.39646L5.85501 6.98652ZM6.233 6.45053L6.95186 6.66442C6.95451 6.65549 6.95701 6.6465 6.95933 6.63747L6.233 6.45053ZM7.31399 2.2506L6.59386 2.04103C6.59167 2.04854 6.58961 2.05608 6.58766 2.06365L7.31399 2.2506ZM9.43295 1.06062L9.23708 1.78459C9.24281 1.78614 9.24855 1.78762 9.25431 1.78903L9.43295 1.06062ZM10.4769 1.83446L9.83194 2.21719V2.21719L10.4769 1.83446ZM10.6559 3.12158L11.379 3.32081L11.3809 3.3138L10.6559 3.12158ZM10.0379 5.36454L9.31479 5.1653L9.31184 5.17671L10.0379 5.36454ZM10.1928 6.1011L9.60388 6.56547V6.56547L10.1928 6.1011ZM10.8729 6.42353V5.67341L10.8596 5.67364L10.8729 6.42353ZM14.4049 6.42353V7.1736L14.4152 7.17346L14.4049 6.42353ZM16.2257 7.14886L16.7488 6.61143L16.7488 6.61143L16.2257 7.14886ZM16.9998 8.94949H17.7499L17.7498 8.9396L16.9998 8.94949ZM16.9998 12.3164L17.7498 12.3266V12.3164H16.9998ZM16.2254 14.1164L15.7023 13.5789L15.7023 13.5789L16.2254 14.1164ZM14.4049 14.8414L14.4152 14.0914H14.4049V14.8414ZM7.48598 14.8414V14.0914L7.48219 14.0914L7.48598 14.8414ZM5.86838 13.1684C5.66016 12.8103 5.20109 12.6888 4.84302 12.8971C4.48494 13.1053 4.36345 13.5643 4.57166 13.9224L5.86838 13.1684ZM5.82985 7.54517C5.35437 6.49782 4.30745 5.828 3.15724 5.83524L3.16669 7.33521C3.72502 7.3317 4.23321 7.65684 4.46401 8.16524L5.82985 7.54517ZM3.17187 5.83529C1.57957 5.81425 0.27157 7.08777 0.250068 8.68007L1.74993 8.70032C1.76025 7.9362 2.38794 7.32507 3.15206 7.33516L3.17187 5.83529ZM0.25 8.69019V12.9021H1.75V8.69019H0.25ZM0.250094 12.914C0.275285 14.5036 1.58219 15.7731 3.1719 15.752L3.15203 14.2522C2.38916 14.2623 1.76199 13.6531 1.74991 12.8902L0.250094 12.914ZM3.15605 15.7521C4.40643 15.7619 5.52312 14.9713 5.92927 13.7887L4.51059 13.3015C4.31395 13.8741 3.77328 14.2569 3.16787 14.2521L3.15605 15.7521ZM4.46219 8.16042C4.53633 8.32704 4.57457 8.5074 4.5744 8.68977L6.07439 8.69118C6.07476 8.29821 5.99238 7.90958 5.83261 7.55056L4.46219 8.16042ZM4.57439 8.69048V12.9024H6.0744V8.69048H4.57439ZM4.57441 12.9076C4.57538 13.0469 4.55396 13.1855 4.51098 13.318L5.93781 13.7808C6.03035 13.4955 6.07646 13.1971 6.07438 12.8972L4.57441 12.9076ZM5.81846 8.18967C5.93737 7.95075 6.108 7.74131 6.31797 7.57658L5.39205 6.39646C5.00682 6.69871 4.69375 7.08297 4.47558 7.52133L5.81846 8.18967ZM6.29782 7.59185C6.61134 7.3625 6.84107 7.03674 6.95186 6.66442L5.51415 6.23663C5.49688 6.29466 5.46107 6.34544 5.4122 6.38119L6.29782 7.59185ZM6.95933 6.63747L8.04031 2.43754L6.58766 2.06365L5.50668 6.26358L6.95933 6.63747ZM8.03411 2.46016C8.18408 1.94483 8.71901 1.64442 9.23708 1.78459L9.62882 0.336643C8.32177 -0.0169729 6.9722 0.740924 6.59386 2.04103L8.03411 2.46016ZM9.25431 1.78903C9.49652 1.84843 9.70468 2.00272 9.83194 2.21719L11.1219 1.45172C10.7892 0.890946 10.2449 0.487517 9.61159 0.332201L9.25431 1.78903ZM9.83194 2.21719C9.95921 2.43167 9.9949 2.6883 9.93098 2.92936L11.3809 3.3138C11.548 2.68351 11.4547 2.01249 11.1219 1.45172L9.83194 2.21719ZM9.93287 2.92236L9.31488 5.16533L10.761 5.56376L11.379 3.3208L9.93287 2.92236ZM9.31184 5.17671C9.18686 5.65983 9.2949 6.1736 9.60388 6.56547L10.7818 5.63672C10.763 5.61293 10.7564 5.58172 10.764 5.55238L9.31184 5.17671ZM9.60388 6.56547C9.91286 6.95734 10.3873 7.18224 10.8862 7.17341L10.8596 5.67364C10.8293 5.67418 10.8005 5.66052 10.7818 5.63672L9.60388 6.56547ZM10.8729 7.17353H14.4049V5.67353H10.8729V7.17353ZM14.4152 7.17346C14.8954 7.16685 15.3585 7.35133 15.7026 7.68628L16.7488 6.61143C16.1196 5.99888 15.2727 5.66151 14.3945 5.6736L14.4152 7.17346ZM15.7026 7.68628C16.0467 8.02124 16.2436 8.47921 16.2499 8.95937L17.7498 8.9396C17.7382 8.06149 17.3781 7.22398 16.7488 6.61143L15.7026 7.68628ZM16.2498 8.94949V12.3164H17.7498V8.94949H16.2498ZM16.2499 12.3062C16.2434 12.7863 16.0464 13.2441 15.7023 13.5789L16.7484 14.6539C17.3776 14.0417 17.7378 13.2045 17.7498 12.3266L16.2499 12.3062ZM15.7023 13.5789C15.3582 13.9137 14.8952 14.0981 14.4152 14.0915L14.3945 15.5913C15.2724 15.6034 16.1191 15.2662 16.7484 14.6539L15.7023 13.5789ZM14.4049 14.0914H7.48598V15.5914H14.4049V14.0914ZM7.48219 14.0914C6.81783 14.0948 6.20234 13.7427 5.86838 13.1684L4.57166 13.9224C5.17554 14.9609 6.28846 15.5975 7.48977 15.5914L7.48219 14.0914Z" fill="#606060"/>
</g>
</svg>
