<svg width="20" height="20" viewBox="0 0 20 20" fill="none" xmlns="http://www.w3.org/2000/svg">
<g id="laugh" clip-path="url(#clip0_2033_29558)">
<path id="Vector" d="M7.49996 7.50033H7.50829M12.5 7.50033H12.5083M18.3333 10.0003C18.3333 14.6027 14.6023 18.3337 9.99996 18.3337C5.39759 18.3337 1.66663 14.6027 1.66663 10.0003C1.66663 5.39795 5.39759 1.66699 9.99996 1.66699C14.6023 1.66699 18.3333 5.39795 18.3333 10.0003ZM15 10.8337C14.8011 12.0107 14.1878 13.0777 13.2707 13.8419C12.3537 14.6061 11.1935 15.017 9.99996 15.0003C8.80638 15.017 7.64621 14.6061 6.72919 13.8419C5.81216 13.0777 5.19879 12.0107 4.99996 10.8337H15Z" stroke="#57606A" stroke-width="1.4" stroke-linecap="round" stroke-linejoin="round"/>
</g>
<defs>
<clipPath id="clip0_2033_29558">
<rect width="20" height="20" fill="white"/>
</clipPath>
</defs>
</svg>
