<svg width="14" height="14" viewBox="0 0 14 14" fill="none" xmlns="http://www.w3.org/2000/svg">
<g id="paperclip">
<path id="Vector" d="M12.507 6.44857L7.14617 11.8094C6.48942 12.4661 5.59869 12.8351 4.66992 12.8351C3.74114 12.8351 2.85041 12.4661 2.19367 11.8094C1.53692 11.1527 1.16797 10.2619 1.16797 9.33315C1.16797 8.40438 1.53692 7.51364 2.19367 6.8569L7.19283 1.85774C7.63066 1.41913 8.22479 1.17242 8.84452 1.17188C9.46425 1.17133 10.0588 1.41699 10.4974 1.85482C10.936 2.29265 11.1827 2.88678 11.1833 3.50651C11.1838 4.12624 10.9382 4.7208 10.5003 5.1594L5.4895 10.1586C5.27058 10.3775 4.97367 10.5005 4.66408 10.5005C4.35449 10.5005 4.05758 10.3775 3.83867 10.1586C3.61975 9.93965 3.49677 9.64274 3.49677 9.33315C3.49677 9.02356 3.61975 8.72665 3.83867 8.50774L8.79116 3.56107" stroke="#24292F" stroke-width="0.8" stroke-linecap="round" stroke-linejoin="round"/>
</g>
</svg>
