<svg width="20" height="20" viewBox="0 0 20 20" fill="none" xmlns="http://www.w3.org/2000/svg">
<path d="M7.94282 15.8496L7.66989 15.151L7.94282 15.8496ZM4.56248 16.4987L4.18748 17.1482H4.18748L4.56248 16.4987ZM3.43447 13.2467L2.69302 13.3596L3.43447 13.2467ZM3.84305 11.0781L4.49257 11.4531L3.84305 11.0781ZM3.35626 12.1092L2.61922 11.9703H2.61922L3.35626 12.1092ZM9.61655 14.4114L10.2661 14.7864L9.61655 14.4114ZM8.96703 15.3485L9.45581 15.9174H9.45581L8.96703 15.3485ZM7.00841 5.59553L6.35889 5.22053L7.00841 5.59553ZM16.1751 17.6254C16.5893 17.6254 16.9251 17.2897 16.9251 16.8754C16.9251 16.4612 16.5893 16.1254 16.1751 16.1254V17.6254ZM11.1751 16.1254C10.7609 16.1254 10.4251 16.4612 10.4251 16.8754C10.4251 17.2897 10.7609 17.6254 11.1751 17.6254V16.1254ZM12.1324 8.55386L8.96703 14.0364L10.2661 14.7864L13.4314 9.30386L12.1324 8.55386ZM4.49257 11.4531L7.65793 5.97053L6.35889 5.22053L3.19353 10.7031L4.49257 11.4531ZM7.66989 15.151C6.75252 15.5094 6.14009 15.7467 5.67051 15.8564C5.22053 15.9615 5.04731 15.9126 4.93748 15.8492L4.18748 17.1482C4.77138 17.4853 5.39278 17.4617 6.01177 17.3171C6.61116 17.177 7.34203 16.8895 8.21574 16.5481L7.66989 15.151ZM2.69302 13.3596C2.83425 14.2869 2.95068 15.0636 3.1291 15.6527C3.31335 16.2611 3.60358 16.8111 4.18748 17.1482L4.93748 15.8492C4.82766 15.7857 4.69865 15.6602 4.5647 15.218C4.42493 14.7564 4.32421 14.1074 4.17592 13.1337L2.69302 13.3596ZM3.19353 10.7031C2.92961 11.1602 2.70089 11.5368 2.61922 11.9703L4.09329 12.248C4.11673 12.1236 4.17751 11.9988 4.49257 11.4531L3.19353 10.7031ZM4.17592 13.1337C4.08104 12.5108 4.06985 12.3724 4.09329 12.248L2.61922 11.9703C2.53756 12.4037 2.61354 12.8378 2.69302 13.3596L4.17592 13.1337ZM8.96703 14.0364C8.65197 14.5821 8.57428 14.6972 8.47825 14.7797L9.45581 15.9174C9.79034 15.6299 10.0021 15.2436 10.2661 14.7864L8.96703 14.0364ZM8.21574 16.5481C8.7074 16.356 9.12127 16.2048 9.45581 15.9174L8.47825 14.7797C8.38222 14.8622 8.2568 14.9217 7.66989 15.151L8.21574 16.5481ZM11.1868 5.02497C11.8856 5.4284 12.3436 5.69464 12.6569 5.93644C12.953 6.16495 13.0275 6.30357 13.0573 6.4149L14.5062 6.02668C14.3573 5.47118 14.0023 5.07996 13.5733 4.74892C13.1616 4.43119 12.5989 4.10816 11.9368 3.72593L11.1868 5.02497ZM13.4314 9.30386C13.8137 8.64181 14.1395 8.08073 14.3372 7.59969C14.5431 7.09851 14.655 6.58218 14.5062 6.02668L13.0573 6.4149C13.0871 6.52624 13.092 6.68352 12.9498 7.02947C12.7993 7.39555 12.5358 7.85509 12.1324 8.55386L13.4314 9.30386ZM11.9368 3.72593C11.2748 3.34369 10.7137 3.01791 10.2327 2.8202C9.73148 2.61422 9.21514 2.50232 8.65964 2.65117L9.04787 4.10006C9.1592 4.07023 9.31649 4.06541 9.66244 4.20759C10.0285 4.35805 10.4881 4.62153 11.1868 5.02497L11.9368 3.72593ZM7.65793 5.97053C8.06137 5.27176 8.3276 4.81381 8.56941 4.50047C8.79792 4.20436 8.93654 4.12989 9.04787 4.10006L8.65964 2.65117C8.10414 2.80001 7.71293 3.15509 7.38189 3.58406C7.06415 3.9958 6.74113 4.55848 6.35889 5.22053L7.65793 5.97053ZM13.1569 8.27935L7.38341 4.94601L6.63341 6.24505L12.4069 9.57838L13.1569 8.27935ZM16.1751 16.1254H11.1751V17.6254H16.1751V16.1254Z" fill="#222222"/>
</svg>
