<svg width="17" height="15" viewBox="0 0 17 15" fill="none" xmlns="http://www.w3.org/2000/svg">
<g id="Vector">
<path id="Vector-69" d="M4.5753 7.85684C4.74652 8.23401 5.19108 8.40096 5.56825 8.22973C5.94542 8.05851 6.11236 7.61395 5.94114 7.23678L4.5753 7.85684ZM3.45931 6.39588L3.4494 7.14581C3.45428 7.14587 3.45916 7.14589 3.46404 7.14586L3.45931 6.39588ZM1.5 8.30353L0.75 8.2934V8.30353H1.5ZM1.5 12.1207H0.749906L0.750094 12.1325L1.5 12.1207ZM3.45931 14.0238L3.46522 13.2738C3.45994 13.2738 3.45466 13.2738 3.44938 13.2738L3.45931 14.0238ZM6.03371 12.947C6.16825 12.5552 5.95973 12.1286 5.56798 11.994C5.17622 11.8595 4.74958 12.068 4.61504 12.4598L6.03371 12.947ZM5.94341 7.24199C5.775 6.86356 5.33169 6.6933 4.95326 6.86171C4.57483 7.03012 4.40457 7.47343 4.57298 7.85186L5.94341 7.24199ZM5.4186 8.30364L4.6686 8.30294V8.30364H5.4186ZM5.4186 12.1208H4.66858L4.66862 12.126L5.4186 12.1208ZM4.61456 12.4757C4.48677 12.8697 4.70258 13.2927 5.09659 13.4205C5.4906 13.5483 5.9136 13.3325 6.04139 12.9385L4.61456 12.4757ZM4.58675 7.21076C4.4022 7.58159 4.5532 8.03182 4.92402 8.21637C5.29485 8.40093 5.74508 8.24993 5.92963 7.8791L4.58675 7.21076ZM5.89982 6.7574L5.45701 6.15207C5.45021 6.15705 5.44349 6.16214 5.43686 6.16734L5.89982 6.7574ZM6.24238 6.27165L6.96123 6.48555C6.96389 6.47661 6.96638 6.46763 6.96871 6.4586L6.24238 6.27165ZM7.22204 2.4654L6.50191 2.25584C6.49973 2.26335 6.49766 2.27089 6.49571 2.27846L7.22204 2.4654ZM9.14238 1.38696L8.94651 2.11094C8.95224 2.11249 8.95798 2.11397 8.96374 2.11538L9.14238 1.38696ZM10.0885 2.08827L9.44352 2.47101V2.47101L10.0885 2.08827ZM10.2507 3.25475L10.9738 3.45397L10.9757 3.44697L10.2507 3.25475ZM9.69066 5.28746L8.96752 5.08822L8.96457 5.09963L9.69066 5.28746ZM9.83103 5.95498L9.24208 6.41935L9.24208 6.41935L9.83103 5.95498ZM10.4474 6.24718V5.49707L10.4341 5.4973L10.4474 6.24718ZM13.6483 6.24718V6.99725L13.6586 6.99711L13.6483 6.24718ZM15.2984 6.90452L15.8216 6.3671V6.3671L15.2984 6.90452ZM16 8.53637H16.75L16.7499 8.52648L16 8.53637ZM16 11.5877L16.75 11.5979V11.5877H16ZM15.2981 13.219L14.7751 12.6814V12.6814L15.2981 13.219ZM13.6483 13.876L13.6586 13.126H13.6483V13.876ZM7.37791 13.876V13.126L7.37412 13.126L7.37791 13.876ZM5.97271 12.3245C5.76449 11.9664 5.30542 11.8449 4.94735 12.0531C4.58927 12.2614 4.46778 12.7204 4.67599 13.0785L5.97271 12.3245ZM5.94114 7.23678C5.49876 6.26234 4.52472 5.63915 3.45459 5.64589L3.46404 7.14586C3.94229 7.14285 4.3776 7.42136 4.5753 7.85684L5.94114 7.23678ZM3.46922 5.64594C1.98736 5.62636 0.770079 6.81155 0.750068 8.29341L2.24993 8.31366C2.25876 7.65998 2.79572 7.13717 3.4494 7.14581L3.46922 5.64594ZM0.75 8.30353V12.1207H2.25V8.30353H0.75ZM0.750094 12.1325C0.773538 13.6119 1.9898 14.7933 3.46925 14.7737L3.44938 13.2738C2.79677 13.2825 2.26025 12.7614 2.24991 12.1088L0.750094 12.1325ZM3.4534 14.7738C4.6168 14.7829 5.65582 14.0473 6.03371 12.947L4.61504 12.4598C4.44665 12.9501 3.98365 13.2779 3.46522 13.2738L3.4534 14.7738ZM4.57298 7.85186C4.63617 7.99384 4.66875 8.14753 4.6686 8.30294L6.1686 8.30435C6.16894 7.93835 6.09221 7.57637 5.94341 7.24199L4.57298 7.85186ZM4.6686 8.30364V12.1208H6.1686V8.30364H4.6686ZM4.66862 12.126C4.66944 12.2447 4.65119 12.3628 4.61456 12.4757L6.04139 12.9385C6.12758 12.6728 6.17052 12.3949 6.16858 12.1156L4.66862 12.126ZM5.92963 7.8791C6.03274 7.67192 6.18071 7.49031 6.36278 7.34746L5.43686 6.16734C5.07953 6.44771 4.78913 6.80415 4.58675 7.21076L5.92963 7.8791ZM6.34262 7.36273C6.63916 7.14581 6.85645 6.8377 6.96123 6.48555L5.52353 6.05775C5.51226 6.09562 5.4889 6.12875 5.45701 6.15207L6.34262 7.36273ZM6.96871 6.4586L7.94837 2.65235L6.49571 2.27846L5.51605 6.08471L6.96871 6.4586ZM7.94216 2.67497C8.06737 2.24472 8.51398 1.99392 8.94651 2.11094L9.33825 0.662992C8.11674 0.332519 6.85549 1.04082 6.50191 2.25584L7.94216 2.67497ZM8.96374 2.11538C9.16492 2.16472 9.33781 2.29287 9.44352 2.47101L10.7335 1.70553C10.4223 1.18109 9.91329 0.803803 9.32102 0.658551L8.96374 2.11538ZM9.44352 2.47101C9.54922 2.64915 9.57887 2.8623 9.52578 3.06252L10.9757 3.44697C11.132 2.85751 11.0447 2.22997 10.7335 1.70553L9.44352 2.47101ZM9.52767 3.05553L8.96761 5.08825L10.4137 5.48668L10.9738 3.45397L9.52767 3.05553ZM8.96457 5.09963C8.8458 5.55873 8.94846 6.04696 9.24208 6.41935L10.42 5.4906C10.4166 5.48629 10.4154 5.48063 10.4168 5.4753L8.96457 5.09963ZM9.24208 6.41935C9.5357 6.79174 9.98651 7.00546 10.4607 6.99707L10.4341 5.4973C10.4286 5.4974 10.4234 5.49492 10.42 5.4906L9.24208 6.41935ZM10.4474 6.99718H13.6483V5.49718H10.4474V6.99718ZM13.6586 6.99711C14.0751 6.99138 14.4768 7.1514 14.7753 7.44195L15.8216 6.3671C15.2379 5.79896 14.4524 5.48605 13.6379 5.49725L13.6586 6.99711ZM14.7753 7.44195C15.0738 7.7325 15.2445 8.12975 15.25 8.54626L16.7499 8.52648C16.7392 7.71203 16.4052 6.93524 15.8216 6.3671L14.7753 7.44195ZM15.25 8.53637V11.5877H16.75V8.53637H15.25ZM15.25 11.5775C15.2444 11.9939 15.0735 12.391 14.7751 12.6814L15.8211 13.7565C16.4048 13.1886 16.7388 12.4121 16.7499 11.5979L15.25 11.5775ZM14.7751 12.6814C14.4766 12.9719 14.075 13.1318 13.6586 13.1261L13.6379 14.6259C14.4522 14.6371 15.2375 14.3244 15.8211 13.7565L14.7751 12.6814ZM13.6483 13.126H7.37791V14.626H13.6483V13.126ZM7.37412 13.126C6.7972 13.1289 6.26272 12.8232 5.97271 12.3245L4.67599 13.0785C5.23591 14.0414 6.26783 14.6316 7.3817 14.626L7.37412 13.126Z" fill="#222222"/>
</g>
</svg>
