<svg width="20" height="20" viewBox="0 0 20 20" fill="none" xmlns="http://www.w3.org/2000/svg">
<path fill-rule="evenodd" clip-rule="evenodd" d="M8.34141 0.849609H8.34101C7.60275 0.850004 6.92803 1.26728 6.59791 1.9276L6.59784 1.92773L6.59774 1.92794L5.93643 3.24965L3.99984 3.25007C3.58562 3.25016 3.24991 3.58602 3.25 4.00024C3.25009 4.41445 3.58595 4.75016 4.00016 4.75007L6.39986 4.74954H6.40003H13.5995H13.5997L15.9993 4.75007C16.4135 4.75016 16.7493 4.41445 16.7494 4.00024C16.7495 3.58602 16.4138 3.25016 15.9996 3.25007L14.0631 3.24965L13.4018 1.92794L13.4016 1.9276C13.0715 1.26728 12.3968 0.850004 11.6585 0.849609H11.6581H8.34141ZM12.3858 3.24954H7.61376L7.93937 2.59879L7.93954 2.59844C8.01568 2.44607 8.17132 2.34976 8.34165 2.34961H11.6579C11.8282 2.34976 11.9839 2.44607 12.06 2.59844L12.0602 2.59879L12.3858 3.24954ZM4.99974 5.65042C4.03347 5.65042 3.25016 6.43373 3.25016 7.39999V15.4002C3.25016 17.4712 4.92906 19.1501 7.00008 19.1501H11V17.6501H7.00008C5.75749 17.6501 4.75016 16.6428 4.75016 15.4002V7.39999C4.75016 7.26215 4.8619 7.15042 4.99974 7.15042H15.0003C15.1381 7.15042 15.2498 7.26215 15.2498 7.39999V12H16.7498V7.39999C16.7498 6.43373 15.9665 5.65042 15.0003 5.65042H4.99974ZM8.7495 10.3974C8.7495 9.98318 8.41371 9.6474 7.9995 9.6474C7.58529 9.6474 7.2495 9.98318 7.2495 10.3974V14.3969C7.2495 14.8111 7.58529 15.1469 7.9995 15.1469C8.41371 15.1469 8.7495 14.8111 8.7495 14.3969V10.3974ZM12.7502 10.3974C12.7502 9.98318 12.4144 9.6474 12.0002 9.6474C11.586 9.6474 11.2502 9.98318 11.2502 10.3974V14.3969C11.2502 14.8111 11.586 15.1469 12.0002 15.1469C12.4144 15.1469 12.7502 14.8111 12.7502 14.3969V10.3974Z" fill="#222222"/>
<path d="M16 9V12" stroke="#222222" stroke-width="1.5" stroke-linecap="round"/>
<path d="M8.5 18.3999L11.5 18.3999" stroke="#222222" stroke-width="1.5" stroke-linecap="round"/>
<path d="M18.3334 18.3332L14.1667 14.1665M14.1667 18.3332L18.3334 14.1665" stroke="#222222" stroke-width="1.5" stroke-linecap="round" stroke-linejoin="round"/>
</svg>
