<svg width="20" height="20" viewBox="0 0 20 20" fill="none" xmlns="http://www.w3.org/2000/svg">
<g id="camera">
<g id="Vector">
<path d="M12.0827 2.5H7.91602L5.83268 5H3.33268C2.89065 5 2.46673 5.17559 2.15417 5.48816C1.84161 5.80072 1.66602 6.22464 1.66602 6.66667V15.8333C1.66602 16.2754 1.84161 16.6993 2.15417 17.0118C2.46673 17.3244 2.89065 17.5 3.33268 17.5H16.666C17.108 17.5 17.532 17.3244 17.8445 17.0118C18.1571 16.6993 18.3327 16.2754 18.3327 15.8333V6.66667C18.3327 6.22464 18.1571 5.80072 17.8445 5.48816C17.532 5.17559 17.108 5 16.666 5H14.166L12.0827 2.5Z" stroke="#57606A" stroke-width="1.4" stroke-linecap="round" stroke-linejoin="round"/>
<path d="M9.99935 13.3333C11.3801 13.3333 12.4993 12.214 12.4993 10.8333C12.4993 9.45262 11.3801 8.33333 9.99935 8.33333C8.61864 8.33333 7.49935 9.45262 7.49935 10.8333C7.49935 12.214 8.61864 13.3333 9.99935 13.3333Z" stroke="#57606A" stroke-width="1.4" stroke-linecap="round" stroke-linejoin="round"/>
</g>
</g>
</svg>
