<svg width="18" height="18" viewBox="0 0 18 18" fill="none" xmlns="http://www.w3.org/2000/svg">
<g id="link-off">
<path id="Vector" d="M6.75 11.25L9 9M10.5 7.5L11.25 6.75M8.25 4.5L8.59725 4.098C9.3006 3.39475 10.2545 2.9997 11.2491 2.99977C12.2438 2.99984 13.1976 3.39502 13.9009 4.09838C14.6041 4.80173 14.9992 5.75564 14.9991 6.75027C14.999 7.74489 14.6039 8.69875 13.9005 9.402L13.5 9.75M2.25 2.25L15.75 15.75M9.75002 13.5L9.45226 13.9005C8.7407 14.6041 7.78036 14.9988 6.77964 14.9988C5.77892 14.9988 4.81858 14.6041 4.10701 13.9005C3.75628 13.5537 3.47784 13.1408 3.2878 12.6856C3.09776 12.2304 2.99991 11.7421 2.99991 11.2489C2.99991 10.7556 3.09776 10.2673 3.2878 9.81214C3.47784 9.35698 3.75628 8.94405 4.10701 8.59725L4.50001 8.25" stroke="#A7A7A7" stroke-width="1.5" stroke-linecap="round" stroke-linejoin="round"/>
</g>
</svg>
