<svg width="36" height="36" viewBox="0 0 36 36" fill="none" xmlns="http://www.w3.org/2000/svg">
<circle cx="18" cy="18" r="18" fill="#FFF4F6"/>
<path d="M25.5922 21.9013V19.6713C25.5915 19.1121 25.3691 18.5761 24.9737 18.1808C24.5784 17.7854 24.0424 17.563 23.4833 17.5623H18.7024V14.9601C19.556 14.7859 20.3145 14.3009 20.8309 13.5992C21.3472 12.8975 21.5846 12.0291 21.4971 11.1623C21.4095 10.2954 21.0032 9.49203 20.357 8.90776C19.7107 8.32349 18.8705 8 17.9993 8C17.1281 8 16.2879 8.32349 15.6416 8.90776C14.9954 9.49203 14.5891 10.2954 14.5015 11.1623C14.414 12.0291 14.6514 12.8975 15.1677 13.5992C15.6841 14.3009 16.4426 14.7859 17.2962 14.9601V17.5618H12.5154C11.9562 17.5625 11.4201 17.785 11.0247 18.1805C10.6293 18.5759 10.407 19.1121 10.4064 19.6713V21.9013C9.93721 22.0671 9.54179 22.3935 9.28999 22.8227C9.03819 23.2519 8.94624 23.7563 9.03038 24.2468C9.11451 24.7372 9.36933 25.1821 9.74978 25.5029C10.1302 25.8236 10.6118 25.9995 11.1094 25.9995C11.6071 25.9995 12.0886 25.8236 12.4691 25.5029C12.8496 25.1821 13.1044 24.7372 13.1885 24.2468C13.2726 23.7563 13.1807 23.2519 12.9289 22.8227C12.6771 22.3935 12.2817 22.0671 11.8125 21.9013V19.6713C11.8127 19.4849 11.8869 19.3062 12.0188 19.1744C12.1506 19.0426 12.3294 18.9685 12.5158 18.9684H17.2962V21.9017C16.8271 22.0676 16.4316 22.394 16.1799 22.8232C15.9281 23.2524 15.8361 23.7568 15.9202 24.2472C16.0044 24.7377 16.2592 25.1826 16.6396 25.5033C17.0201 25.8241 17.5017 26 17.9993 26C18.4969 26 18.9785 25.8241 19.359 25.5033C19.7394 25.1826 19.9942 24.7377 20.0784 24.2472C20.1625 23.7568 20.0706 23.2524 19.8188 22.8232C19.567 22.394 19.1715 22.0676 18.7024 21.9017V18.968H23.4833C23.6697 18.9681 23.8486 19.0422 23.9804 19.1741C24.1123 19.306 24.1864 19.4848 24.1865 19.6713V21.9013C23.7174 22.0671 23.322 22.3935 23.0702 22.8227C22.8184 23.2519 22.7264 23.7563 22.8106 24.2468C22.8947 24.7372 23.1495 25.1821 23.53 25.5029C23.9104 25.8236 24.392 25.9995 24.8896 25.9995C25.3872 25.9995 25.8688 25.8236 26.2493 25.5029C26.6297 25.1821 26.8845 24.7372 26.9687 24.2468C27.0528 23.7563 26.9609 23.2519 26.7091 22.8227C26.4573 22.3935 26.0614 22.0671 25.5922 21.9013ZM11.1092 24.5925C10.9701 24.5926 10.834 24.5514 10.7183 24.4742C10.6026 24.3969 10.5124 24.2871 10.4591 24.1586C10.4058 24.0301 10.3918 23.8886 10.419 23.7521C10.4461 23.6157 10.5131 23.4903 10.6115 23.3919C10.7098 23.2935 10.8352 23.2266 10.9717 23.1994C11.1081 23.1723 11.2496 23.1863 11.3781 23.2396C11.5066 23.2928 11.6165 23.3831 11.6937 23.4988C11.771 23.6145 11.8121 23.7505 11.8121 23.8897C11.8118 24.076 11.7377 24.2547 11.6059 24.3864C11.4742 24.5182 11.2955 24.5923 11.1092 24.5925ZM17.9995 24.5925C17.8604 24.5925 17.7244 24.5513 17.6088 24.474C17.4931 24.3967 17.4029 24.2868 17.3497 24.1583C17.2965 24.0297 17.2826 23.8883 17.3098 23.7519C17.337 23.6154 17.404 23.4901 17.5024 23.3918C17.6008 23.2934 17.7261 23.2265 17.8626 23.1994C17.9991 23.1723 18.1405 23.1863 18.269 23.2396C18.3975 23.2929 18.5073 23.3831 18.5845 23.4988C18.6617 23.6145 18.7029 23.7506 18.7028 23.8897C18.7026 24.0762 18.6283 24.2549 18.4964 24.3867C18.3644 24.5185 18.186 24.5925 17.9995 24.5925ZM17.9991 13.6246C17.5819 13.6246 17.174 13.5009 16.8271 13.2691C16.4802 13.0373 16.2098 12.7078 16.0502 12.3223C15.8905 11.9369 15.8488 11.5127 15.9302 11.1035C16.0116 10.6943 16.2126 10.3184 16.5076 10.0234C16.8027 9.72845 17.1786 9.52758 17.5878 9.44624C17.997 9.3649 18.4212 9.40674 18.8066 9.56647C19.1921 9.72619 19.5215 9.99663 19.7532 10.3436C19.985 10.6905 20.1086 11.0984 20.1085 11.5157C20.1078 12.0748 19.8853 12.6109 19.4899 13.0063C19.0944 13.4017 18.5583 13.624 17.9991 13.6246ZM24.8894 24.5925C24.7503 24.5925 24.6143 24.5513 24.4986 24.474C24.3829 24.3967 24.2928 24.2868 24.2396 24.1583C24.1864 24.0297 24.1725 23.8883 24.1996 23.7519C24.2268 23.6154 24.2938 23.4901 24.3922 23.3918C24.4906 23.2934 24.616 23.2265 24.7525 23.1994C24.8889 23.1723 25.0303 23.1863 25.1588 23.2396C25.2873 23.2929 25.3972 23.3831 25.4744 23.4988C25.5516 23.6145 25.5928 23.7506 25.5927 23.8897C25.5924 24.0761 25.5183 24.2548 25.3864 24.3866C25.2546 24.5183 25.0758 24.5924 24.8894 24.5925Z" fill="#E53935"/>
</svg>
