<svg width="16" height="20" viewBox="0 0 16 20" fill="none" xmlns="http://www.w3.org/2000/svg">
<g id="info-icon 1">
<g id="Group 48096458">
<path id="Vector" d="M8.77982 7.73572C8.77982 8.14895 8.44482 8.48394 8.03159 8.48394C7.61835 8.48394 7.28336 8.14895 7.28336 7.73572C7.28336 7.32248 7.61835 6.98749 8.03159 6.98749C8.44482 6.98749 8.77982 7.32248 8.77982 7.73572ZM9.42364 12.6995C9.42364 12.8917 9.26783 13.0475 9.07563 13.0475H7.33556C7.14336 13.0475 6.98755 12.8917 6.98755 12.6995V12.3515C6.98755 12.1593 7.14336 12.0035 7.33556 12.0035H7.68357V9.9804H7.33556C7.14336 9.9804 6.98755 9.82459 6.98755 9.63239V9.28437C6.98755 9.09217 7.14336 8.93636 7.33556 8.93636H8.3796C8.5718 8.93636 8.72761 9.09217 8.72761 9.28437V12.0035H9.07563C9.26783 12.0035 9.42364 12.1593 9.42364 12.3515V12.6995Z" fill="#EF5350"/>
<path id="Vector_2" d="M2.9563 10.0178C2.9563 7.22237 5.22243 4.95624 8.01784 4.95624C10.8132 4.95624 13.0794 7.22237 13.0794 10.0178C13.0794 12.8132 10.8132 15.0793 8.01784 15.0793C5.22243 15.0793 2.9563 12.8132 2.9563 10.0178Z" stroke="#EF5350"/>
</g>
</g>
</svg>
