<svg width="208" height="36" viewBox="0 0 208 36" fill="none" xmlns="http://www.w3.org/2000/svg">
<g id="logo" clip-path="url(#clip0_520_12454)">
<path id="Vector" d="M17.988 0C8.05488 0 0 8.06024 0 18C0 27.9398 8.05488 36 17.988 36C27.9212 36 35.976 27.9398 35.976 18C35.976 8.06024 27.9212 0 17.988 0ZM18.3673 32.6928C16.2181 33 12.7144 32.4578 10.3485 30.9398C8.2716 29.6205 7.02544 27.9759 6.23079 26.3133C5.41808 24.6145 5.02075 22.5361 5.9057 22.6446C6.32109 22.6988 6.66424 23.4759 7.45889 24.488C8.0007 25.1747 8.48832 25.753 8.86759 25.8434C9.03013 25.8795 9.17461 25.8072 9.30103 25.5723C9.51776 25.1386 9.82478 24.3253 10.3666 23.6747C10.8 23.1687 11.3238 22.9337 11.6308 24.1627C11.7753 24.7771 11.9017 25.4096 11.9559 25.9518C12.0462 26.7289 12.1004 27.1988 12.3713 27.3253C12.6241 27.4518 13.0756 27.2892 13.78 27.0181C14.2857 26.8373 14.9358 26.5843 15.7666 26.3494C16.5251 26.1325 17.0128 26.241 16.5251 27.4337C16.2904 27.994 16.0556 28.4639 15.2429 29.6386C15.0984 29.8554 15.1345 30.0542 15.3151 30.2349C15.586 30.506 16.2181 30.8313 16.9044 31.1386C17.4462 31.3735 18.1144 31.5904 18.5479 31.6988C19.2342 31.8976 19.0897 32.5843 18.4034 32.6747L18.3673 32.6928ZM27.5961 28.8253C26.9278 29.9096 25.5191 31.1024 23.8215 31.8795C23.5686 31.988 23.2797 31.9518 23.2255 31.753C23.1713 31.5723 23.3158 31.3554 23.4783 31.1566C25.6997 28.2831 24.0563 25.6446 20.4623 23.5843C17.8255 22.0663 16.1278 21.1988 14.1773 20.0422C8.4522 16.6807 7.35053 13.7349 7.1338 12C6.57393 7.60843 10.186 4.31928 13.9245 3.54217C14.0328 3.5241 14.3398 3.46988 14.4301 3.72289C14.5204 3.9759 14.3037 4.15663 14.1773 4.22892C12.5158 5.1506 10.8723 7.10241 11.0529 9.27108C11.1612 10.4819 11.6669 12.2169 14.9358 14.5482C16.9044 15.9578 19.3245 17.1145 24.2007 20.0422C29.3479 23.1325 28.77 26.9096 27.5961 28.8253ZM28.3907 12.3614C27.2168 13.8072 26.0429 13.2651 25.1399 11.241C24.58 9.9759 23.8395 9.66868 23.3158 9.99398C22.7379 10.3554 22.9726 11.2229 23.6048 12.2169C24.0201 12.8675 23.8395 13.6446 23.4061 14.0964C22.9546 14.5663 22.1961 14.7651 21.3833 14.5843C19.9385 14.259 18.5118 12.3253 19.5412 8.07831C19.9566 6.36145 19.1439 5.63855 18.6201 4.96988C18.3673 4.64458 18.3312 4.44578 18.4215 4.30121C18.5298 4.15663 18.7646 4.13855 19.1981 4.22892C19.7579 4.35542 20.5887 4.62651 21.2569 4.73494C21.7084 4.80723 22.2141 4.8253 22.7379 4.80723C24.1827 4.75301 25.2482 4.96988 26.3499 5.51205C28.1921 6.43373 28.3907 8.00602 27.3613 7.87952C27.0001 7.84337 26.5486 7.57229 26.1693 7.37349C25.9165 7.24699 25.6997 7.21084 25.5372 7.31928C25.3927 7.42771 25.3205 7.66265 25.4288 7.87952C25.6636 8.36747 26.4402 8.62048 27.4877 8.90964C29.3299 9.41566 29.366 11.1325 28.4088 12.3072L28.3907 12.3614Z" fill="white"/>
<g id="Group">
<path id="Vector_2" d="M50.0269 8.27706C50.0269 7.80718 49.9908 7.42766 49.9366 7.13851C49.8644 6.84935 49.7018 6.56019 49.449 6.25296C49.2864 6.05417 49.2322 5.85537 49.3045 5.69272C49.3767 5.53007 49.5212 5.43971 49.7199 5.43971H54.542V9.14453C54.542 10.0481 54.7406 10.8795 55.156 11.6204C55.5714 12.3614 56.0951 12.9939 56.7273 13.5542C57.3774 14.1144 58.0998 14.6024 58.8945 15C59.7072 15.4156 60.5199 15.759 61.3326 16.0301L60.1406 18.2891C59.96 18.6325 59.5266 18.7228 58.8403 18.5602C58.154 18.4156 57.2149 17.9638 56.0048 17.2228C55.3186 16.7891 54.6684 16.3192 54.0363 15.7771C53.4042 15.253 52.8804 14.6927 52.465 14.0963C51.4356 15.5421 50.1714 16.771 48.6724 17.7831C48.2389 18.0542 47.8055 18.3253 47.354 18.5783C46.9025 18.8313 46.469 19.0301 46.0536 19.1927C45.6383 19.3554 45.2951 19.4457 45.0061 19.4638C44.7172 19.5 44.5185 19.4277 44.4282 19.2469L43.1459 16.8253C44.067 16.4638 44.952 16.0481 45.7827 15.5602C46.6135 15.0722 47.3359 14.512 47.968 13.8975C48.6001 13.2831 49.1058 12.5963 49.467 11.8554C49.8282 11.1144 50.0088 10.3012 50.0088 9.39754V8.22284L50.0269 8.27706ZM68.3581 27.7951V30.9397H52.447C51.6162 30.9397 50.8938 30.8855 50.2797 30.759C49.6838 30.6325 49.1961 30.4337 48.8169 30.1626C48.4376 29.8915 48.1667 29.512 47.9861 29.024C47.8055 28.5542 47.7152 27.9578 47.7152 27.253V23.2048C47.7152 22.9337 47.661 22.6807 47.5707 22.4457C47.4804 22.2289 47.3359 21.9939 47.1192 21.7409C46.9567 21.5421 46.9025 21.3433 46.9747 21.1807C47.047 21.018 47.1914 20.9277 47.3901 20.9277H52.1219V26.6385C52.1219 27.0722 52.2122 27.3614 52.3747 27.524C52.5373 27.6867 52.8443 27.759 53.2597 27.759H68.3219L68.3581 27.7951ZM63.5179 22.3734V7.8614C63.5179 7.37345 63.4637 6.99393 63.3554 6.6867C63.247 6.39754 63.0664 6.09031 62.8136 5.80116C62.651 5.60236 62.5968 5.42164 62.6871 5.25899C62.7774 5.09634 62.9219 5.02405 63.1206 5.02405H67.8885V22.3734H63.5179Z" fill="white"/>
<path id="Vector_3" d="M77.5869 7.0843C77.5869 6.59635 77.5507 6.21683 77.4966 5.92767C77.4243 5.63851 77.2618 5.33129 77.0089 5.02406C76.8283 4.82526 76.7741 4.64454 76.8464 4.48189C76.9367 4.31924 77.0812 4.24695 77.2798 4.24695H82.0477V7.37345H88.3688V10.4457H85.4431C85.8765 10.9337 86.2016 11.4759 86.4544 12.0722C86.7073 12.6686 86.8337 13.3373 86.8337 14.0421C86.8337 14.9096 86.6712 15.7229 86.3641 16.4819C86.0571 17.2409 85.5876 17.8915 84.9735 18.4518C84.3595 19.012 83.6009 19.4457 82.6979 19.771C81.7949 20.0963 80.7655 20.2409 79.6096 20.2409C78.4538 20.2409 77.4424 20.0783 76.5394 19.771C75.6544 19.4638 74.8959 19.012 74.2818 18.4518C73.6678 17.8915 73.1982 17.2409 72.8731 16.4819C72.548 15.7229 72.3855 14.9096 72.3855 14.0421C72.3855 13.3192 72.4939 12.6506 72.7287 12.0542C72.9634 11.4578 73.2885 10.9156 73.722 10.4277H70.7962V7.35538H77.5688V7.0843H77.5869ZM95.3582 27.7951V30.9397H79.718C78.8872 30.9397 78.1648 30.8855 77.5507 30.759C76.9547 30.6325 76.4491 30.4337 76.0879 30.1626C75.7086 29.8915 75.4377 29.512 75.2571 29.0241C75.0765 28.5542 74.9862 27.9578 74.9862 27.253V24.3253C74.9862 24.0542 74.932 23.8012 74.8417 23.5662C74.7514 23.3494 74.6069 23.1144 74.3902 22.8614C74.2276 22.6626 74.1735 22.4638 74.2457 22.3012C74.318 22.1385 74.4624 22.0482 74.6611 22.0482H79.3929V26.6566C79.3929 27.0903 79.4832 27.3795 79.6457 27.5421C79.8083 27.7048 80.1153 27.7771 80.5307 27.7771H95.304L95.3582 27.7951ZM79.6277 17.1506C80.5849 17.1506 81.3434 16.8253 81.8671 16.1927C82.3909 15.5421 82.6618 14.7831 82.6618 13.8976C82.6618 12.9397 82.3909 12.1626 81.8671 11.512C81.3434 10.8614 80.5849 10.5542 79.6277 10.5542C78.6705 10.5542 77.8939 10.8795 77.3701 11.512C76.8464 12.1626 76.5935 12.9397 76.5935 13.8976C76.5935 14.7831 76.8464 15.5602 77.3701 16.1927C77.8939 16.8433 78.6344 17.1506 79.6277 17.1506ZM90.6444 22.771V7.86141C90.6444 7.37345 90.5902 6.99394 90.4999 6.70478C90.4096 6.41562 90.229 6.10839 89.9762 5.80117C89.7956 5.60237 89.7414 5.42165 89.8137 5.259C89.904 5.09635 90.0484 5.02406 90.2471 5.02406H95.015V11.6024H98.1936V14.7469H95.015V22.753H90.6444V22.771Z" fill="white"/>
<path id="Vector_4" d="M125.537 21.1807V24.3253H114.52V31.2651H110.005V24.3253H98.9702V21.1807H125.537ZM122.304 5.58436V8.6205H106.646V10.7892H122.232V13.8253H106.646V15C106.646 15.4157 106.736 15.6868 106.899 15.8313C107.061 15.9759 107.368 16.0482 107.784 16.0482H122.665V19.0844H106.754C105.129 19.0844 103.955 18.7952 103.232 18.1988C102.492 17.6024 102.131 16.5904 102.131 15.1265V8.43978C102.131 7.95183 102.077 7.57231 101.968 7.26508C101.86 6.97592 101.679 6.66869 101.426 6.37954C101.264 6.18074 101.21 5.98195 101.264 5.8193C101.336 5.65665 101.463 5.56628 101.661 5.56628H122.286L122.304 5.58436Z" fill="white"/>
<path id="Vector_5" d="M127.794 9.23489V6.09031H143.236V9.23489H137.854V13.8614C137.854 15.3795 138.125 16.753 138.649 17.9277C139.172 19.1204 139.949 20.2228 140.942 21.2168C141.484 21.7228 142.062 22.2108 142.676 22.6626C143.29 23.1325 143.94 23.5481 144.59 23.9096L142.983 26.3855C142.893 26.5301 142.712 26.5843 142.459 26.5301C142.206 26.4759 141.881 26.3493 141.52 26.1325C141.141 25.9156 140.744 25.6265 140.274 25.265C139.823 24.9036 139.353 24.506 138.901 24.0542C138.631 23.8012 138.342 23.4939 138.035 23.1506C137.746 22.8072 137.439 22.4457 137.15 22.0843C136.861 21.7048 136.608 21.3253 136.373 20.9457C136.138 20.5481 135.958 20.1867 135.831 19.8253C135.669 20.2409 135.452 20.6566 135.181 21.1084C134.928 21.5602 134.621 21.9939 134.296 22.4277C133.971 22.8614 133.628 23.2951 133.267 23.6927C132.905 24.1084 132.544 24.4698 132.165 24.8132C131.136 25.771 130.269 26.4759 129.546 26.9277C128.824 27.3975 128.354 27.4879 128.156 27.2349L126.205 24.8313C126.927 24.3614 127.596 23.8915 128.192 23.3855C128.788 22.8975 129.384 22.3554 129.962 21.7771C131.136 20.6204 131.984 19.4096 132.508 18.1445C133.032 16.8795 133.303 15.4337 133.303 13.8253V9.1626H127.776L127.794 9.23489ZM145.945 31.265V7.89754C145.945 7.40959 145.891 7.03007 145.8 6.74092C145.71 6.45176 145.53 6.14453 145.277 5.8373C145.114 5.63851 145.06 5.43971 145.132 5.27706C145.204 5.11441 145.349 5.02405 145.548 5.02405H150.316V13.8433H153.946V17.0602H150.316V31.2831H145.945V31.265Z" fill="white"/>
<path id="Vector_6" d="M181.578 16.6626V19.6807H155.011V16.6626H181.578ZM158.136 8.45781V5.31323H178.453V8.45781H170.76C170.976 8.89155 171.374 9.30721 171.952 9.72287C172.512 10.1385 173.198 10.5361 174.011 10.9156C174.823 11.2952 175.726 11.6385 176.738 11.9638C177.749 12.2891 178.797 12.5241 179.916 12.7229L178.905 15.2349C178.797 15.4879 178.327 15.5602 177.514 15.4518C176.702 15.3253 175.473 14.9819 173.866 14.4397C172.638 14.006 171.572 13.5361 170.651 13.0301C169.73 12.5241 168.918 11.9819 168.213 11.4036C167.599 11.9638 166.913 12.4699 166.172 12.9217C165.414 13.3735 164.511 13.8253 163.445 14.2409C162.759 14.512 162.073 14.765 161.386 14.9638C160.7 15.1626 160.068 15.3253 159.526 15.4337C158.966 15.5421 158.497 15.5964 158.136 15.5783C157.756 15.5783 157.54 15.4518 157.467 15.2711L156.438 12.8674C157.558 12.6867 158.623 12.4337 159.653 12.1446C160.682 11.8554 161.621 11.494 162.452 11.1144C163.283 10.7168 163.987 10.3012 164.565 9.86745C165.143 9.43371 165.54 8.96383 165.757 8.47588H158.154L158.136 8.45781ZM178.724 26.259C178.724 27.0903 178.49 27.8675 178.02 28.5542C177.55 29.2409 176.864 29.8193 175.979 30.3072C175.094 30.7771 173.992 31.1566 172.71 31.4096C171.41 31.6626 169.947 31.8072 168.322 31.8072C166.696 31.8072 165.197 31.6807 163.897 31.4096C162.596 31.1566 161.513 30.7771 160.628 30.3072C159.743 29.8373 159.057 29.259 158.587 28.5542C158.118 27.8675 157.883 27.1084 157.883 26.259C157.883 25.4096 158.118 24.6687 158.587 23.9638C159.057 23.2771 159.725 22.6988 160.628 22.2289C161.513 21.759 162.615 21.3795 163.897 21.1265C165.197 20.8735 166.66 20.7289 168.322 20.7289C169.983 20.7289 171.428 20.8554 172.71 21.1265C174.011 21.3795 175.094 21.759 175.979 22.2289C176.864 22.6988 177.55 23.2771 178.02 23.9638C178.49 24.6506 178.724 25.4096 178.724 26.259ZM174.444 26.259C174.444 25.4277 173.92 24.7952 172.891 24.3614C171.861 23.9277 170.326 23.7108 168.304 23.7108C166.281 23.7108 164.746 23.9277 163.716 24.3614C162.687 24.7952 162.163 25.4277 162.163 26.259C162.163 27.0903 162.687 27.7229 163.716 28.1566C164.746 28.5903 166.281 28.8072 168.304 28.8072C170.326 28.8072 171.861 28.5903 172.891 28.1566C173.92 27.7229 174.444 27.0903 174.444 26.259Z" fill="white"/>
<path id="Vector_7" d="M195.99 9.46983C195.99 9.07224 195.791 8.87345 195.322 8.87345H184.847V5.85537H196.893C197.633 5.85537 198.247 5.90959 198.699 6.01802C199.169 6.12646 199.512 6.28911 199.765 6.54212C199.999 6.77706 200.162 7.12043 200.216 7.55417C200.27 7.9879 200.27 8.512 200.216 9.14453L199.801 14.765H202.148V16.9698C201.733 17.259 201.191 17.4578 200.505 17.5481C199.819 17.6385 199.006 17.6927 198.049 17.6927H193.75V22.0481H189.506V17.6927H182.643V14.765H195.665L196.008 9.46983H195.99ZM186.851 25.7168C186.851 25.4457 186.797 25.1927 186.707 24.9578C186.617 24.7409 186.472 24.506 186.255 24.253C186.093 24.0542 186.039 23.8554 186.111 23.6927C186.183 23.5301 186.328 23.4397 186.526 23.4397H191.258V27.018C191.258 27.271 191.33 27.4698 191.493 27.6144C191.655 27.759 191.854 27.8313 192.125 27.8313H207.982V30.9216H190.175C189.091 30.9216 188.278 30.6325 187.7 30.0361C187.122 29.4578 186.833 28.6807 186.833 27.7409V25.6987L186.851 25.7168ZM203.431 24.1626V22.012H196.965V19.1385H203.431V7.91561C203.431 7.40959 203.377 7.012 203.268 6.72284C203.16 6.43369 202.979 6.14453 202.726 5.85537C202.564 5.62043 202.51 5.42164 202.6 5.25899C202.69 5.09634 202.835 5.02405 203.033 5.02405H207.711V24.1626H203.413H203.431Z" fill="white"/>
</g>
</g>
<defs>
<clipPath id="clip0_520_12454">
<rect width="208" height="36" fill="white"/>
</clipPath>
</defs>
</svg>
