<svg width="161" height="26" viewBox="0 0 161 26" fill="none" xmlns="http://www.w3.org/2000/svg">
<g id="Logo">
<path id="?&#226;&#145;&#165;&#235;&#146;&#170;_1_3_" d="M161 15.4068C161 13.1138 159.44 11.1655 157.276 10.4674C156.712 7.31562 153.835 4.91163 150.362 4.91163C148.939 4.90871 147.546 5.32349 146.357 6.10925C145.031 3.65852 142.352 1.97894 139.256 1.97894C134.845 1.97894 131.267 5.38191 131.267 9.58524C131.267 9.74006 131.282 9.89195 131.29 10.0438C128.749 10.6339 126.865 12.8071 126.865 15.4068C126.865 18.3775 129.322 20.7873 132.406 20.9217C133.677 22.9313 135.897 24.1435 138.275 24.1231C139.872 24.1289 141.423 23.5885 142.671 22.5896C144.152 24.4619 146.413 25.5485 148.799 25.5339C152.158 25.5339 155.006 23.4688 156.028 20.6004C158.818 20.3579 161 18.1263 161 15.4068Z" fill="#CB151D"/>
<g id="&#230;&#180;&#185;&#235;&#170;&#131;&#239;&#188;&#153;_1_3_">
<path id="?&#226;&#145;&#165;&#235;&#146;&#170;_2_3_" d="M142.817 15.1206H137.486C137.486 15.4185 137.506 15.7165 137.547 16.0115C137.696 16.8527 138.441 17.1916 139.849 17.1916C140.982 17.1886 142.113 17.0455 143.214 16.7651L143.521 18.1321C143.541 18.3658 143.41 18.5849 143.196 18.6754C142.025 18.9734 140.825 19.1223 139.615 19.1223C136.534 19.1223 135.389 17.9569 135.205 16.0261C135.152 15.4711 135.12 14.9044 135.12 14.3348C135.12 13.7652 135.161 13.1985 135.199 12.6406C135.313 10.8559 136.51 9.39832 139.691 9.39832C142.811 9.39832 143.743 10.8647 143.851 12.6406C143.88 13.2073 143.874 13.774 143.833 14.3377C143.807 14.773 143.287 15.1176 142.817 15.1206ZM137.489 13.2248H141.537V12.7779C141.537 11.925 141.003 11.3291 139.712 11.3291C138.494 11.3291 137.594 11.8695 137.527 12.6494C137.512 12.8393 137.501 13.035 137.489 13.2248Z" fill="white"/>
<path id="?&#226;&#145;&#165;&#235;&#146;&#170;_3_3_" d="M152.538 16.4817C151.553 16.9257 150.163 16.9316 149.152 16.9316H147.61L151.962 11.9834C152.106 11.8052 152.24 11.6183 152.36 11.4255C152.427 11.3057 152.462 11.1684 152.465 11.0311V10.4177C152.465 10.076 152.298 9.90363 151.959 9.90363H144.876L145.215 11.4109C145.256 11.7293 145.542 11.9571 145.863 11.9279H149.561L145.384 16.6511C145.241 16.8089 145.11 16.9783 144.99 17.1565C144.943 17.361 144.923 17.5683 144.926 17.7787V18.3629C144.926 18.7075 145.095 18.877 145.431 18.8799H149.038C149.144 18.8799 149.95 18.8916 150.073 18.877C151.136 18.8215 152.158 18.7105 152.517 18.4563C152.71 18.322 152.877 18.1613 152.856 17.9335L152.538 16.4817Z" fill="white"/>
</g>
<g id="Group">
<path id="Vector" d="M40.415 8.04019C40.415 12.8306 39.1619 16.8587 33.577 19.7856L32.3589 18.0943C34.7804 16.8237 36.2847 15.3865 37.1815 13.6777L32.7299 14.0838L32.4436 12.2055L37.8592 11.9018C38.011 11.2416 38.1308 10.5639 38.198 9.81908H33.2732V8.04311H40.415V8.04019ZM45.5268 6.55048V22.1399H43.2922V14.3379H40.38V12.5269H43.2922V6.55048H45.5268Z" fill="#454545"/>
<path id="Vector_2" d="M61.7588 18.433V20.244H47.6445V18.433H61.7588ZM60.3188 15.7573C57.611 15.217 55.613 13.7097 54.617 11.7293C53.618 13.7097 51.6375 15.2316 48.9298 15.7573L47.9834 13.8791C51.4857 13.2862 53.434 10.815 53.434 8.58335V7.46753H55.8204V8.58335C55.8204 10.8676 57.7483 13.2891 61.271 13.8791L60.3188 15.7573Z" fill="#454545"/>
<path id="Vector_3" d="M65.7197 16.841C67.817 16.8235 69.5287 16.7388 71.4391 16.435L71.6406 18.2285C69.3885 18.5849 67.3935 18.6345 64.7704 18.6345H63.4998V7.856H70.7088V9.6495H65.7168V12.1879H70.1859V13.9317H65.7168V16.841H65.7197ZM75.8731 6.53571V22.1719H73.6386V13.8295H70.9658V12.036H73.6386V6.53571H75.8731Z" fill="#454545"/>
<path id="Vector_4" d="M78.4144 8.0254H85.86V18.3482H78.4144V8.0254ZM80.6139 16.5869H83.6605V9.78385H80.6139V16.5869ZM92.4089 14.2676H90.1422V22.1397H87.9077V6.57074H90.1422V12.4274H92.4089V14.2676Z" fill="#454545"/>
<path id="Vector_5" d="M101.718 13.1868C101.718 16.6219 99.9744 18.7718 97.6229 18.7718C95.2715 18.7718 93.5277 16.6219 93.5277 13.1868C93.5277 9.76926 95.2715 7.63692 97.6229 7.63692C99.9744 7.63692 101.718 9.76634 101.718 13.1868ZM95.6776 13.1868C95.6776 15.5061 96.4721 16.7417 97.6229 16.7417C98.7738 16.7417 99.5683 15.5061 99.5683 13.1868C99.5683 10.8851 98.7738 9.6495 97.6229 9.6495C96.4721 9.6495 95.6776 10.8851 95.6776 13.1868ZM106 6.53571V22.1719H103.766V6.53571H106Z" fill="#454545"/>
<path id="Vector_6" d="M116.834 15.3192C115.108 14.7934 113.922 13.7126 113.212 12.3573C112.517 13.8791 111.267 15.1147 109.456 15.7076L108.305 13.9638C110.811 13.1518 111.945 11.256 112.029 9.34277H108.898V7.58141H117.378V9.34277H114.293C114.395 11.0866 115.529 12.8305 117.947 13.5724L116.834 15.3192ZM121.233 19.1603C121.233 21.056 119.186 22.1718 115.92 22.1718C112.637 22.1718 110.589 21.056 110.589 19.1603C110.589 17.2324 112.637 16.1137 115.92 16.1137C119.186 16.1137 121.233 17.2295 121.233 19.1603ZM119.016 19.1603C119.016 18.2635 117.933 17.84 115.92 17.84C113.89 17.84 112.806 18.2635 112.806 19.1603C112.806 20.0395 113.89 20.463 115.92 20.463C117.933 20.463 119.016 20.0395 119.016 19.1603ZM121.181 15.8099H118.929V6.55029H121.181V15.8099Z" fill="#454545"/>
</g>
<g id="Group_2">
<g id="Group_3">
<path id="Vector_7" d="M8.49136 13.4059L14.6138 5.86974H11.2722C9.77369 5.86974 8.74549 6.32542 7.83414 7.39159L4.61227 11.3612V0.465881H1.37872C0.616333 0.465881 0 1.08221 0 1.84752V22.1719H3.23355C3.99594 22.1719 4.61227 21.5555 4.61227 20.7932V15.3864L7.23241 18.6024L9.46114 21.3482C9.91097 21.9119 10.5039 22.1748 11.1115 22.1748H15.6274L12.7064 18.5936L8.49136 13.4059ZM22.6407 18.3366C21.963 18.3366 21.4051 17.7816 21.4051 17.0981V0.465881H18.1687C17.4092 0.465881 16.7899 1.08221 16.7899 1.8446V17.9627C16.7899 20.4543 18.5104 22.1719 21.002 22.1719H24.5569C25.3193 22.1719 25.9385 21.5555 25.9385 20.7932V18.3366H22.6407Z" fill="black"/>
<path id="Vector_8" d="M5.05334 10.8062L5.05918 10.7975C5.05626 10.8004 5.05334 10.8033 5.05042 10.8033L5.05334 10.8062ZM26.6045 7.7304L26.6016 4.66919L26.3183 4.97297C26.3066 4.97882 25.442 5.86388 22.9533 5.86388H11.1904C9.33261 5.86388 8.45339 6.62042 7.79032 7.4383L7.42811 7.88522C7.41935 7.89982 7.40475 7.91151 7.39598 7.92319L5.0621 10.7975C5.91211 10.1548 7.07175 9.77219 8.2606 9.77219H22.9533C24.7351 9.77219 26.4497 9.24933 26.5899 7.91443C26.6074 7.80343 26.6045 7.7304 26.6045 7.7304Z" fill="#E60012"/>
</g>
</g>
</g>
</svg>
