<svg width="162" height="28" viewBox="0 0 162 28" fill="none" xmlns="http://www.w3.org/2000/svg">
<g id="logo" clip-path="url(#clip0_572_8520)">
<path id="Vector" d="M14.0099 0C6.27351 0 0 6.26908 0 14C0 21.7309 6.27351 28 14.0099 28C21.7463 28 28.0198 21.7309 28.0198 14C28.0198 6.26908 21.7463 0 14.0099 0ZM14.3053 25.4277C12.6314 25.6667 9.90258 25.245 8.05991 24.0643C6.4423 23.0382 5.47174 21.759 4.85283 20.4659C4.21985 19.1446 3.91039 17.5281 4.59964 17.6124C4.92316 17.6546 5.19041 18.259 5.80933 19.0462C6.23131 19.5803 6.6111 20.0301 6.90649 20.1004C7.03308 20.1285 7.14561 20.0723 7.24407 19.8896C7.41287 19.5522 7.65199 18.9197 8.07398 18.4137C8.41157 18.0201 8.81948 17.8373 9.05861 18.7932C9.17114 19.2711 9.2696 19.7631 9.3118 20.1847C9.38213 20.7892 9.42433 21.1546 9.63532 21.253C9.83225 21.3514 10.1839 21.2249 10.7325 21.0141C11.1263 20.8735 11.6327 20.6767 12.2798 20.494C12.8705 20.3253 13.2503 20.4096 12.8705 21.3373C12.6877 21.7731 12.5048 22.1386 11.8718 23.0522C11.7593 23.2209 11.7874 23.3755 11.9281 23.5161C12.1391 23.7269 12.6314 23.9799 13.1659 24.2189C13.5879 24.4016 14.1084 24.5703 14.446 24.6546C14.9805 24.8092 14.8679 25.3434 14.3334 25.4137L14.3053 25.4277ZM21.4931 22.4197C20.9726 23.2631 19.8755 24.1908 18.5533 24.7952C18.3563 24.8795 18.1313 24.8514 18.0891 24.6968C18.0469 24.5562 18.1594 24.3876 18.286 24.2329C20.0161 21.998 18.7361 19.9458 15.937 18.3434C13.8833 17.1627 12.5611 16.488 11.0419 15.5884C6.58296 12.9739 5.72493 10.6827 5.55613 9.33333C5.12008 5.91767 7.93332 3.35944 10.845 2.75502C10.9294 2.74096 11.1685 2.6988 11.2389 2.89558C11.3092 3.09237 11.1404 3.23293 11.0419 3.28916C9.74785 4.00602 8.46783 5.5241 8.60849 7.21084C8.69289 8.15261 9.08674 9.50201 11.6327 11.3153C13.1659 12.4116 15.0508 13.3112 18.8487 15.5884C22.8575 17.992 22.4074 20.9297 21.4931 22.4197ZM22.112 9.61446C21.1977 10.739 20.2834 10.3173 19.5801 8.74297C19.144 7.75904 18.5673 7.52008 18.1594 7.77309C17.7093 8.05422 17.8922 8.72892 18.3845 9.50201C18.708 10.008 18.5673 10.6124 18.2297 10.9639C17.8781 11.3293 17.2873 11.4839 16.6543 11.3434C15.529 11.0904 14.4178 9.58634 15.2196 6.28313C15.5431 4.94779 14.9101 4.38554 14.5022 3.86546C14.3053 3.61245 14.2772 3.45783 14.3475 3.34538C14.4319 3.23293 14.6147 3.21888 14.9523 3.28916C15.3884 3.38755 16.0354 3.59839 16.5559 3.68273C16.9075 3.73896 17.3014 3.75301 17.7093 3.73896C18.8346 3.69679 19.6645 3.86546 20.5225 4.28715C21.9573 5.00402 22.112 6.22691 21.3102 6.12851C21.0289 6.1004 20.6773 5.88956 20.3819 5.73494C20.1849 5.63655 20.0162 5.60843 19.8896 5.69277C19.777 5.77711 19.7208 5.95984 19.8052 6.12851C19.988 6.50803 20.5929 6.70482 21.4087 6.92972C22.8434 7.32329 22.8716 8.65863 22.1261 9.57229L22.112 9.61446Z" fill="#00236E"/>
<g id="Group">
<path id="Vector_2" d="M38.9632 6.43784C38.9632 6.07237 38.9351 5.77719 38.8929 5.55229C38.8366 5.32739 38.71 5.10249 38.5131 4.86354C38.3865 4.70892 38.3443 4.5543 38.4006 4.4278C38.4568 4.30129 38.5694 4.23101 38.7241 4.23101H42.4798V7.11253C42.4798 7.81535 42.6345 8.46193 42.958 9.03824C43.2815 9.61454 43.6894 10.1065 44.1818 10.5423C44.6881 10.978 45.2508 11.3575 45.8697 11.6668C46.5027 11.99 47.1357 12.2571 47.7686 12.468L46.8403 14.225C46.6996 14.4921 46.362 14.5623 45.8275 14.4358C45.293 14.3234 44.5615 13.972 43.6191 13.3957C43.0846 13.0583 42.5782 12.6929 42.0859 12.2712C41.5936 11.8635 41.1857 11.4278 40.8621 10.9639C40.0604 12.0884 39.0757 13.0443 37.9083 13.8314C37.5707 14.0423 37.2331 14.2531 36.8814 14.4499C36.5298 14.6467 36.1922 14.8013 35.8687 14.9278C35.5451 15.0543 35.2779 15.1246 35.0528 15.1386C34.8278 15.1668 34.673 15.1105 34.6027 14.97L33.604 13.0864C34.3214 12.8053 35.0106 12.482 35.6577 12.1025C36.3047 11.723 36.8674 11.2872 37.3597 10.8093C37.852 10.3314 38.2458 9.79727 38.5272 9.22097C38.8085 8.64466 38.9491 8.01213 38.9491 7.30932V6.39567L38.9632 6.43784ZM53.2404 21.6186V24.0643H40.8481C40.201 24.0643 39.6384 24.0222 39.1601 23.9238C38.696 23.8254 38.3162 23.6708 38.0208 23.4599C37.7254 23.2491 37.5144 22.9539 37.3737 22.5744C37.2331 22.2089 37.1627 21.7451 37.1627 21.1969V18.0483C37.1627 17.8374 37.1205 17.6406 37.0502 17.4579C36.9799 17.2892 36.8674 17.1065 36.6986 16.9097C36.572 16.7551 36.5298 16.6005 36.586 16.474C36.6423 16.3475 36.7548 16.2772 36.9096 16.2772H40.5949V20.719C40.5949 21.0563 40.6652 21.2812 40.7918 21.4077C40.9184 21.5342 41.1575 21.5904 41.4811 21.5904H53.2122L53.2404 21.6186ZM49.4706 17.4017V6.11454C49.4706 5.73502 49.4284 5.43984 49.344 5.20089C49.2596 4.97599 49.119 4.73703 48.9221 4.51213C48.7955 4.35751 48.7533 4.21695 48.8236 4.09045C48.8939 3.96394 49.0065 3.90771 49.1612 3.90771H52.8746V17.4017H49.4706Z" fill="#00236E"/>
<path id="Vector_3" d="M60.4283 5.51005C60.4283 5.13053 60.4001 4.83535 60.3579 4.61045C60.3017 4.38555 60.1751 4.1466 59.9782 3.90764C59.8375 3.75302 59.7953 3.61246 59.8516 3.48595C59.9219 3.35945 60.0344 3.30322 60.1892 3.30322H63.9026V5.73495H68.8258V8.12451H66.5471C66.8847 8.50403 67.1378 8.92571 67.3348 9.38957C67.5317 9.85342 67.6302 10.3735 67.6302 10.9217C67.6302 11.5964 67.5036 12.2289 67.2644 12.8193C67.0253 13.4096 66.6596 13.9157 66.1813 14.3514C65.7031 14.7872 65.1123 15.1245 64.409 15.3775C63.7057 15.6305 62.9039 15.743 62.0037 15.743C61.1035 15.743 60.3158 15.6165 59.6124 15.3775C58.9232 15.1386 58.3324 14.7872 57.8542 14.3514C57.3759 13.9157 57.0102 13.4096 56.757 12.8193C56.5038 12.2289 56.3772 11.5964 56.3772 10.9217C56.3772 10.3594 56.4616 9.83937 56.6445 9.37551C56.8273 8.91166 57.0805 8.48997 57.4181 8.11045H55.1394V5.72089H60.4142V5.51005H60.4283ZM74.2694 21.6185V24.0643H62.0881C61.441 24.0643 60.8784 24.0221 60.4001 23.9237C59.936 23.8253 59.5421 23.6707 59.2608 23.4598C58.9654 23.249 58.7544 22.9538 58.6137 22.5743C58.4731 22.2088 58.4028 21.745 58.4028 21.1968V18.9197C58.4028 18.7088 58.3606 18.5121 58.2902 18.3293C58.2199 18.1607 58.1074 17.9779 57.9386 17.7811C57.812 17.6265 57.7698 17.4719 57.826 17.3454C57.8823 17.2189 57.9948 17.1486 58.1496 17.1486H61.8349V20.7329C61.8349 21.0703 61.9052 21.2952 62.0318 21.4217C62.1584 21.5482 62.3975 21.6044 62.7211 21.6044H74.2272L74.2694 21.6185ZM62.0178 13.3394C62.7633 13.3394 63.354 13.0864 63.762 12.5944C64.1699 12.0884 64.3809 11.498 64.3809 10.8092C64.3809 10.0643 64.1699 9.45985 63.762 8.95382C63.354 8.4478 62.7633 8.20885 62.0178 8.20885C61.2723 8.20885 60.6674 8.46186 60.2595 8.95382C59.8516 9.45985 59.6546 10.0643 59.6546 10.8092C59.6546 11.498 59.8516 12.1024 60.2595 12.5944C60.6674 13.1004 61.2441 13.3394 62.0178 13.3394ZM70.5981 17.7109V6.11447C70.5981 5.73495 70.5559 5.43977 70.4856 5.21487C70.4153 4.98997 70.2746 4.75101 70.0777 4.51206C69.937 4.35744 69.8948 4.21688 69.9511 4.09037C70.0214 3.96387 70.1339 3.90764 70.2887 3.90764H74.0021V9.02411H76.4778V11.4699H74.0021V17.6968H70.5981V17.7109Z" fill="#00236E"/>
<path id="Vector_4" d="M97.7738 16.4739V18.9197H89.1935V24.3173H85.6769V18.9197H77.0825V16.4739H97.7738ZM95.256 4.3434V6.70485H83.0606V8.39159H95.1997V10.753H83.0606V11.6667C83.0606 11.99 83.131 12.2008 83.2576 12.3133C83.3842 12.4257 83.6233 12.482 83.9468 12.482H95.5373V14.8434H83.145C81.8791 14.8434 80.9648 14.6185 80.4021 14.1546C79.8254 13.6908 79.5441 12.9036 79.5441 11.7651V6.56429C79.5441 6.18477 79.5019 5.88959 79.4175 5.65063C79.3331 5.42573 79.1924 5.18678 78.9955 4.96188C78.8689 4.80726 78.8267 4.65264 78.8689 4.52613C78.9252 4.39963 79.0237 4.32935 79.1784 4.32935H95.2419L95.256 4.3434Z" fill="#00236E"/>
<path id="Vector_5" d="M99.532 7.18282V4.73703H111.559V7.18282H107.367V10.7812C107.367 11.9619 107.578 13.0302 107.986 13.9439C108.394 14.8716 108.999 15.729 109.772 16.5021C110.194 16.8957 110.644 17.2752 111.123 17.6266C111.601 17.9921 112.107 18.3153 112.614 18.5965L111.362 20.5222C111.291 20.6346 111.151 20.6768 110.954 20.6346C110.757 20.5925 110.504 20.4941 110.222 20.3254C109.927 20.1567 109.617 19.9318 109.252 19.6507C108.9 19.3696 108.534 19.0603 108.183 18.7089C107.972 18.5121 107.747 18.2732 107.508 18.0061C107.282 17.739 107.043 17.4579 106.818 17.1768C106.593 16.8816 106.396 16.5864 106.213 16.2912C106.031 15.982 105.89 15.7009 105.791 15.4198C105.665 15.7431 105.496 16.0663 105.285 16.4178C105.088 16.7692 104.849 17.1065 104.596 17.4439C104.343 17.7812 104.075 18.1186 103.794 18.4278C103.513 18.7511 103.231 19.0322 102.936 19.2993C102.134 20.0443 101.459 20.5925 100.896 20.9439C100.334 21.3093 99.9681 21.3796 99.8133 21.1828L98.2942 19.3133C98.8568 18.9479 99.3773 18.5824 99.8415 18.1888C100.306 17.8093 100.77 17.3876 101.22 16.9378C102.134 16.0382 102.795 15.0965 103.203 14.1125C103.611 13.1286 103.822 12.0041 103.822 10.7531V7.12659H99.5179L99.532 7.18282ZM113.669 24.3174V6.14265C113.669 5.76314 113.626 5.46796 113.556 5.24306C113.486 5.01816 113.345 4.7792 113.148 4.54025C113.021 4.38563 112.979 4.23101 113.036 4.1045C113.092 3.978 113.204 3.90771 113.359 3.90771H117.073V10.7672H119.9V13.2692H117.073V24.3314H113.669V24.3174Z" fill="#00236E"/>
<path id="Vector_6" d="M141.421 12.9599V15.3073H120.73V12.9599H141.421ZM123.163 6.57835V4.13257H138.988V6.57835H132.995C133.164 6.9157 133.474 7.23899 133.924 7.56229C134.36 7.88558 134.894 8.19482 135.527 8.49C136.16 8.78518 136.864 9.05225 137.651 9.30526C138.439 9.55827 139.255 9.741 140.127 9.89562L139.339 11.8494C139.255 12.0462 138.889 12.1024 138.256 12.0181C137.623 11.9197 136.667 11.6526 135.415 11.231C134.458 10.8936 133.628 10.5282 132.911 10.1346C132.194 9.741 131.561 9.31931 131.012 8.86952C130.534 9.30526 129.999 9.69883 129.423 10.0502C128.832 10.4016 128.129 10.7531 127.299 11.0763C126.764 11.2872 126.23 11.484 125.695 11.6386C125.161 11.7932 124.668 11.9197 124.246 12.0041C123.81 12.0884 123.444 12.1306 123.163 12.1165C122.868 12.1165 122.699 12.0181 122.643 11.8775L121.841 10.0081C122.713 9.86751 123.543 9.67072 124.345 9.44582C125.147 9.22092 125.878 8.9398 126.525 8.64462C127.172 8.33538 127.721 8.01209 128.171 7.67474C128.621 7.33739 128.93 6.97193 129.099 6.59241H123.177L123.163 6.57835ZM139.199 20.4237C139.199 21.0703 139.016 21.6747 138.65 22.2089C138.284 22.743 137.75 23.1928 137.061 23.5723C136.371 23.9378 135.513 24.233 134.515 24.4298C133.502 24.6265 132.362 24.739 131.096 24.739C129.831 24.739 128.663 24.6406 127.65 24.4298C126.638 24.233 125.794 23.9378 125.104 23.5723C124.415 23.2069 123.881 22.7571 123.515 22.2089C123.149 21.6747 122.966 21.0844 122.966 20.4237C122.966 19.7631 123.149 19.1868 123.515 18.6386C123.881 18.1045 124.401 17.6547 125.104 17.2892C125.794 16.9237 126.652 16.6286 127.65 16.4318C128.663 16.235 129.802 16.1225 131.096 16.1225C132.391 16.1225 133.516 16.2209 134.515 16.4318C135.527 16.6286 136.371 16.9237 137.061 17.2892C137.75 17.6547 138.284 18.1045 138.65 18.6386C139.016 19.1727 139.199 19.7631 139.199 20.4237ZM135.865 20.4237C135.865 19.7771 135.457 19.2852 134.655 18.9478C133.853 18.6105 132.658 18.4418 131.082 18.4418C129.507 18.4418 128.311 18.6105 127.51 18.9478C126.708 19.2852 126.3 19.7771 126.3 20.4237C126.3 21.0703 126.708 21.5623 127.51 21.8996C128.311 22.237 129.507 22.4057 131.082 22.4057C132.658 22.4057 133.853 22.237 134.655 21.8996C135.457 21.5623 135.865 21.0703 135.865 20.4237Z" fill="#00236E"/>
<path id="Vector_7" d="M152.646 7.36555C152.646 7.05631 152.491 6.90169 152.125 6.90169H143.967V4.5543H153.349C153.926 4.5543 154.404 4.59647 154.756 4.68081C155.122 4.76514 155.389 4.89165 155.586 5.08844C155.769 5.27117 155.895 5.53824 155.937 5.87559C155.98 6.21294 155.98 6.62057 155.937 7.11253L155.614 11.484H157.442V13.1989C157.119 13.4238 156.697 13.5784 156.162 13.6487C155.628 13.719 154.995 13.7611 154.249 13.7611H150.902V17.1487H147.596V13.7611H142.251V11.484H152.393L152.66 7.36555H152.646ZM145.528 20.0021C145.528 19.7912 145.486 19.5945 145.416 19.4117C145.346 19.2431 145.233 19.0603 145.064 18.8635C144.938 18.7089 144.895 18.5543 144.952 18.4278C145.008 18.3013 145.12 18.231 145.275 18.231H148.961V21.0141C148.961 21.2109 149.017 21.3655 149.143 21.478C149.27 21.5904 149.425 21.6467 149.636 21.6467H161.986V24.0503H148.117C147.273 24.0503 146.64 23.8254 146.19 23.3615C145.739 22.9117 145.514 22.3073 145.514 21.5764V19.988L145.528 20.0021ZM158.441 18.7933V17.1206H153.405V14.8856H158.441V6.15671C158.441 5.76314 158.399 5.4539 158.315 5.229C158.23 5.0041 158.089 4.7792 157.893 4.5543C157.766 4.37157 157.724 4.21695 157.794 4.09045C157.864 3.96394 157.977 3.90771 158.132 3.90771H161.775V18.7933H158.427H158.441Z" fill="#00236E"/>
</g>
</g>
<defs>
<clipPath id="clip0_572_8520">
<rect width="162" height="28" fill="white"/>
</clipPath>
</defs>
</svg>
