<svg width="36" height="36" viewBox="0 0 36 36" fill="none" xmlns="http://www.w3.org/2000/svg">
<path id="Vector" d="M17.988 0C8.05488 0 0 8.06024 0 18C0 27.9398 8.05488 36 17.988 36C27.9212 36 35.976 27.9398 35.976 18C35.976 8.06024 27.9212 0 17.988 0ZM18.3673 32.6928C16.2181 33 12.7144 32.4578 10.3485 30.9398C8.2716 29.6205 7.02544 27.9759 6.23079 26.3133C5.41808 24.6145 5.02075 22.5361 5.9057 22.6446C6.32109 22.6988 6.66424 23.4759 7.45889 24.488C8.0007 25.1747 8.48832 25.753 8.86759 25.8434C9.03013 25.8795 9.17461 25.8072 9.30103 25.5723C9.51776 25.1386 9.82478 24.3253 10.3666 23.6747C10.8 23.1687 11.3238 22.9337 11.6308 24.1627C11.7753 24.7771 11.9017 25.4096 11.9559 25.9518C12.0462 26.7289 12.1004 27.1988 12.3713 27.3253C12.6241 27.4518 13.0756 27.2892 13.78 27.0181C14.2857 26.8373 14.9358 26.5843 15.7666 26.3494C16.5251 26.1325 17.0128 26.241 16.5251 27.4337C16.2904 27.994 16.0556 28.4639 15.2429 29.6386C15.0984 29.8554 15.1345 30.0542 15.3151 30.2349C15.586 30.506 16.2181 30.8313 16.9044 31.1386C17.4462 31.3735 18.1144 31.5904 18.5479 31.6988C19.2342 31.8976 19.0897 32.5843 18.4034 32.6747L18.3673 32.6928ZM27.5961 28.8253C26.9278 29.9096 25.5191 31.1024 23.8215 31.8795C23.5686 31.988 23.2797 31.9518 23.2255 31.753C23.1713 31.5723 23.3158 31.3554 23.4783 31.1566C25.6997 28.2831 24.0563 25.6446 20.4623 23.5843C17.8255 22.0663 16.1278 21.1988 14.1773 20.0422C8.4522 16.6807 7.35053 13.7349 7.1338 12C6.57393 7.60843 10.186 4.31928 13.9245 3.54217C14.0328 3.5241 14.3398 3.46988 14.4301 3.72289C14.5204 3.9759 14.3037 4.15663 14.1773 4.22892C12.5158 5.1506 10.8723 7.10241 11.0529 9.27108C11.1612 10.4819 11.6669 12.2169 14.9358 14.5482C16.9044 15.9578 19.3245 17.1145 24.2007 20.0422C29.3479 23.1325 28.77 26.9096 27.5961 28.8253ZM28.3907 12.3614C27.2168 13.8072 26.0429 13.2651 25.1399 11.241C24.58 9.9759 23.8395 9.66868 23.3158 9.99398C22.7379 10.3554 22.9726 11.2229 23.6048 12.2169C24.0201 12.8675 23.8395 13.6446 23.4061 14.0964C22.9546 14.5663 22.1961 14.7651 21.3833 14.5843C19.9385 14.259 18.5118 12.3253 19.5412 8.07831C19.9566 6.36145 19.1439 5.63855 18.6201 4.96988C18.3673 4.64458 18.3312 4.44578 18.4215 4.30121C18.5298 4.15663 18.7646 4.13855 19.1981 4.22892C19.7579 4.35542 20.5887 4.62651 21.2569 4.73494C21.7084 4.80723 22.2141 4.8253 22.7379 4.80723C24.1827 4.75301 25.2482 4.96988 26.3499 5.51205C28.1921 6.43373 28.3907 8.00602 27.3613 7.87952C27.0001 7.84337 26.5486 7.57229 26.1693 7.37349C25.9165 7.24699 25.6997 7.21084 25.5372 7.31928C25.3927 7.42771 25.3205 7.66265 25.4288 7.87952C25.6636 8.36747 26.4402 8.62048 27.4877 8.90964C29.3299 9.41566 29.366 11.1325 28.4088 12.3072L28.3907 12.3614Z" fill="white"/>
</svg>
