<svg width="24" height="24" viewBox="0 0 24 24" fill="none" xmlns="http://www.w3.org/2000/svg">
<path d="M11.7434 4.89066C11.8549 4.70311 12.1451 4.70311 12.2566 4.89066L14.1586 8.08809C14.4147 8.51872 14.8406 8.8191 15.3281 8.92246L19.0214 9.70559C19.2538 9.75488 19.3091 10.0033 19.1799 10.1449L16.6621 12.9041C16.3243 13.2742 16.1584 13.7699 16.2101 14.2701L16.5908 17.9515C16.6094 18.1311 16.4083 18.3235 16.1758 18.2231L12.7177 16.731C12.2601 16.5336 11.7399 16.5336 11.2823 16.731L7.82424 18.2231C7.59172 18.3235 7.39064 18.1312 7.40922 17.9515L7.78988 14.2701C7.84161 13.7699 7.67566 13.2742 7.33795 12.9041L4.82008 10.1449C4.69088 10.0033 4.74615 9.75488 4.97862 9.70559L8.67195 8.92246C9.15941 8.8191 9.58529 8.51872 9.84144 8.08809L11.7434 4.89066Z" stroke="#555555" stroke-width="1.5"/>
</svg>
