<svg width="24" height="24" viewBox="0 0 24 24" fill="none" xmlns="http://www.w3.org/2000/svg">
<path fill-rule="evenodd" clip-rule="evenodd" d="M19 16C19 17.1046 18.1046 18 17 18C15.8954 18 15 17.1046 15 16C15 14.8954 15.8954 14 17 14C17.5304 14 18.0391 14.2107 18.4142 14.5858C18.7893 14.9609 19 15.4696 19 16Z" stroke="#555555" stroke-width="1.5" stroke-linecap="round" stroke-linejoin="round"/>
<path fill-rule="evenodd" clip-rule="evenodd" d="M9 16C9 17.1046 8.10457 18 7 18C5.89543 18 5 17.1046 5 16C5 14.8954 5.89543 14 7 14C8.10457 14 9 14.8954 9 16Z" stroke="#555555" stroke-width="1.5" stroke-linecap="round" stroke-linejoin="round"/>
<path fill-rule="evenodd" clip-rule="evenodd" d="M14 6C14 7.10457 13.1046 8 12 8C10.8954 8 10 7.10457 10 6C10 4.89543 10.8954 4 12 4C12.5304 4 13.0391 4.21071 13.4142 4.58579C13.7893 4.96086 14 5.46957 14 6Z" stroke="#555555" stroke-width="1.5" stroke-linecap="round" stroke-linejoin="round"/>
<path d="M16.25 14C16.25 14.4142 16.5858 14.75 17 14.75C17.4142 14.75 17.75 14.4142 17.75 14L16.25 14ZM17 12.3333L16.25 12.3277L16.25 12.3333L17 12.3333ZM16.547 11.5363L16.0773 12.1211L16.0832 12.1257L16.547 11.5363ZM14.714 11L14.7171 10.25L14.714 10.25L14.714 11ZM9.28598 11L9.28598 10.2499L9.27355 10.2501L9.28598 11ZM6.99998 12.3333L7.74998 12.3333C7.74998 12.3204 7.74965 12.3075 7.74898 12.2946L6.99998 12.3333ZM6.24998 14C6.24998 14.4142 6.58577 14.75 6.99998 14.75C7.41419 14.75 7.74998 14.4142 7.74998 14L6.24998 14ZM12.75 8.636C12.75 8.22179 12.4142 7.886 12 7.886C11.5858 7.886 11.25 8.22179 11.25 8.636L12.75 8.636ZM11.25 10.636C11.25 11.0502 11.5858 11.386 12 11.386C12.4142 11.386 12.75 11.0502 12.75 10.636L11.25 10.636ZM17.75 14L17.75 12.3333L16.25 12.3333L16.25 14L17.75 14ZM17.75 12.3389C17.7543 11.7511 17.4258 11.2735 17.0108 10.9469L16.0832 12.1257C16.1703 12.1942 16.2137 12.2512 16.2336 12.2861C16.2432 12.3031 16.2471 12.3144 16.2486 12.32C16.2501 12.3253 16.25 12.3275 16.25 12.3277L17.75 12.3389ZM17.0166 10.9515C16.4273 10.4783 15.5568 10.2534 14.7171 10.25L14.7109 11.75C15.3386 11.7526 15.8374 11.9284 16.0774 12.1211L17.0166 10.9515ZM14.714 10.25L9.28598 10.25L9.28598 11.75L14.714 11.75L14.714 10.25ZM9.27355 10.2501C8.52233 10.2626 7.80983 10.4402 7.26368 10.7587C6.74112 11.0635 6.21144 11.6077 6.25098 12.3721L7.74898 12.2946C7.75152 12.3438 7.71477 12.2321 8.01942 12.0544C8.30049 11.8905 8.74948 11.759 9.29841 11.7499L9.27355 10.2501ZM6.24998 12.3333L6.24998 14L7.74998 14L7.74998 12.3333L6.24998 12.3333ZM11.25 8.636L11.25 10.636L12.75 10.636L12.75 8.636L11.25 8.636Z" fill="#555555"/>
</svg>
