<svg width="24" height="24" viewBox="0 0 24 24" fill="none" xmlns="http://www.w3.org/2000/svg">
<path d="M14 18C14 19.1046 13.3333 20 12 20C10.6667 20 10 19.1046 10 18" stroke="#555555" stroke-width="1.5"/>
<mask id="path-2-inside-1_1_219" fill="white">
<path fill-rule="evenodd" clip-rule="evenodd" d="M17.9999 10C17.9999 6.68629 15.3136 4 11.9999 4C8.68617 4 5.99988 6.68629 5.99988 10V13.7639C5.99988 13.9192 5.96374 14.0723 5.89432 14.2111L4.72355 16.5528C4.39112 17.2177 4.87462 18 5.61799 18H18.3819C19.1253 18 19.6088 17.2177 19.2763 16.5528L18.1055 14.2112C18.036 14.0723 17.9999 13.9192 17.9999 13.7639V10Z"/>
</mask>
<path d="M18.1055 14.2112L16.7638 14.882L18.1055 14.2112ZM19.2763 16.5528L17.9347 17.2236L19.2763 16.5528ZM4.72355 16.5528L6.06521 17.2236L4.72355 16.5528ZM11.9999 5.5C14.4852 5.5 16.4999 7.51472 16.4999 10H19.4999C19.4999 5.85786 16.142 2.5 11.9999 2.5V5.5ZM7.49988 10C7.49988 7.51472 9.5146 5.5 11.9999 5.5V2.5C7.85774 2.5 4.49988 5.85786 4.49988 10H7.49988ZM4.49988 10V13.7639H7.49988V10H4.49988ZM4.55266 13.5403L3.38189 15.882L6.06521 17.2236L7.23597 14.8819L4.55266 13.5403ZM5.61799 19.5H18.3819V16.5H5.61799V19.5ZM20.618 15.8819L19.4471 13.5403L16.7638 14.882L17.9347 17.2236L20.618 15.8819ZM19.4999 13.7639V10H16.4999V13.7639H19.4999ZM19.4471 13.5403C19.4818 13.6097 19.4999 13.6863 19.4999 13.7639H16.4999C16.4999 14.1521 16.5903 14.5349 16.7638 14.882L19.4471 13.5403ZM18.3819 19.5C20.2404 19.5 21.4491 17.5442 20.618 15.8819L17.9347 17.2236C17.7685 16.8912 18.0102 16.5 18.3819 16.5V19.5ZM3.38189 15.882C2.55082 17.5443 3.75956 19.5 5.61799 19.5V16.5C5.98967 16.5 6.23142 16.8911 6.06521 17.2236L3.38189 15.882ZM4.49988 13.7639C4.49988 13.6863 4.51795 13.6098 4.55266 13.5403L7.23597 14.8819C7.40952 14.5348 7.49988 14.152 7.49988 13.7639H4.49988Z" fill="#555555" mask="url(#path-2-inside-1_1_219)"/>
<!-- <circle cx="17" cy="6" r="4" fill="#E32A2A"/> -->
</svg>
