<svg width="20" height="20" viewBox="0 0 20 20" fill="none" xmlns="http://www.w3.org/2000/svg">
<g id="General/ico_error_outlined_20_wh">
<path id="Vector" d="M9.56237 3.262C9.60522 3.18262 9.66873 3.11632 9.74619 3.0701C9.82365 3.02389 9.91217 2.99949 10.0024 2.99949C10.0926 2.99949 10.1811 3.02389 10.2586 3.0701C10.336 3.11632 10.3995 3.18262 10.4424 3.262L16.9424 15.262C16.9838 15.3382 17.0048 15.4239 17.0031 15.5107C17.0014 15.5974 16.9772 15.6822 16.9328 15.7568C16.8884 15.8313 16.8254 15.8931 16.7499 15.9359C16.6745 15.9787 16.5891 16.0011 16.5024 16.001H3.50037C3.41375 16.001 3.32859 15.9786 3.25326 15.9358C3.17793 15.8931 3.11499 15.8315 3.07063 15.757C3.02627 15.6826 3.002 15.598 3.0002 15.5114C2.99841 15.4248 3.01914 15.3392 3.06037 15.263L9.56237 3.262ZM11.3204 2.786C10.7534 1.738 9.25037 1.738 8.68337 2.786L2.18137 14.786C2.05751 15.0144 1.99511 15.2711 2.0003 15.5309C2.00548 15.7907 2.07807 16.0447 2.21094 16.268C2.34382 16.4913 2.53243 16.6763 2.75829 16.8048C2.98415 16.9333 3.23952 17.0009 3.49937 17.001H16.5024C16.7623 17.0011 17.0178 16.9336 17.2438 16.8052C17.4698 16.6767 17.6586 16.4918 17.7915 16.2685C17.9245 16.0451 17.9972 15.7911 18.0024 15.5312C18.0077 15.2713 17.9453 15.0145 17.8214 14.786L11.3204 2.786ZM10.5004 7.5C10.5004 7.36739 10.4477 7.24021 10.3539 7.14645C10.2602 7.05268 10.133 7 10.0004 7C9.86777 7 9.74059 7.05268 9.64682 7.14645C9.55305 7.24021 9.50037 7.36739 9.50037 7.5V11.5C9.50037 11.6326 9.55305 11.7598 9.64682 11.8536C9.74059 11.9473 9.86777 12 10.0004 12C10.133 12 10.2602 11.9473 10.3539 11.8536C10.4477 11.7598 10.5004 11.6326 10.5004 11.5V7.5ZM10.7504 13.75C10.7504 13.9489 10.6714 14.1397 10.5307 14.2803C10.3901 14.421 10.1993 14.5 10.0004 14.5C9.80146 14.5 9.6107 14.421 9.47004 14.2803C9.32939 14.1397 9.25037 13.9489 9.25037 13.75C9.25037 13.5511 9.32939 13.3603 9.47004 13.2197C9.6107 13.079 9.80146 13 10.0004 13C10.1993 13 10.3901 13.079 10.5307 13.2197C10.6714 13.3603 10.7504 13.5511 10.7504 13.75Z" fill="#EE444A"/>
</g>
</svg>
