<svg width="20" height="20" viewBox="0 0 20 20" fill="none" xmlns="http://www.w3.org/2000/svg">
<path d="M9.50621 2.41951C9.5544 2.33022 9.62584 2.25564 9.71297 2.20366C9.8001 2.15167 9.89967 2.12423 10.0011 2.12423C10.1026 2.12423 10.2022 2.15167 10.2893 2.20366C10.3764 2.25564 10.4479 2.33022 10.496 2.41951L17.8073 15.9172C17.8539 16.0029 17.8775 16.0993 17.8756 16.1969C17.8737 16.2945 17.8465 16.3899 17.7965 16.4737C17.7466 16.5576 17.6757 16.627 17.5908 16.6752C17.5059 16.7233 17.41 16.7486 17.3124 16.7484H2.68763C2.59019 16.7485 2.49441 16.7232 2.40968 16.6751C2.32494 16.627 2.25415 16.5577 2.20426 16.474C2.15436 16.3903 2.12706 16.2951 2.12504 16.1977C2.12301 16.1003 2.14634 16.004 2.19272 15.9183L9.50621 2.41951ZM11.4836 1.8841C10.8459 0.705301 9.15527 0.705301 8.5175 1.8841L1.20401 15.3818C1.06469 15.6387 0.994505 15.9275 1.00034 16.2197C1.00617 16.5119 1.08781 16.7976 1.23727 17.0488C1.38673 17.3 1.59888 17.508 1.85293 17.6525C2.10698 17.7971 2.39422 17.8731 2.68651 17.8732H17.3124C17.6047 17.8733 17.8921 17.7974 18.1463 17.6529C18.4005 17.5085 18.6128 17.3005 18.7624 17.0493C18.912 16.7981 18.9938 16.5123 18.9997 16.22C19.0055 15.9276 18.9354 15.6388 18.796 15.3818L11.4836 1.8841ZM10.5613 7.18644C10.5613 7.03728 10.502 6.89423 10.3966 6.78876C10.2911 6.68329 10.148 6.62403 9.99888 6.62403C9.84972 6.62403 9.70667 6.68329 9.6012 6.78876C9.49572 6.89423 9.43647 7.03728 9.43647 7.18644V11.6857C9.43647 11.8348 9.49572 11.9779 9.6012 12.0833C9.70667 12.1888 9.84972 12.2481 9.99888 12.2481C10.148 12.2481 10.2911 12.1888 10.3966 12.0833C10.502 11.9779 10.5613 11.8348 10.5613 11.6857V7.18644ZM10.8425 14.2165C10.8425 14.4402 10.7536 14.6548 10.5954 14.813C10.4372 14.9712 10.2226 15.0601 9.99888 15.0601C9.77514 15.0601 9.56056 14.9712 9.40236 14.813C9.24415 14.6548 9.15527 14.4402 9.15527 14.2165C9.15527 13.9927 9.24415 13.7782 9.40236 13.62C9.56056 13.4618 9.77514 13.3729 9.99888 13.3729C10.2226 13.3729 10.4372 13.4618 10.5954 13.62C10.7536 13.7782 10.8425 13.9927 10.8425 14.2165Z" fill="#EE444A"/>
</svg>
