<svg width="20" height="20" viewBox="0 0 20 20" fill="none" xmlns="http://www.w3.org/2000/svg">
<path fill-rule="evenodd" clip-rule="evenodd" d="M10 17.5C14.1421 17.5 17.5 14.1421 17.5 10C17.5 5.85786 14.1421 2.5 10 2.5C5.85786 2.5 2.5 5.85786 2.5 10C2.5 14.1421 5.85786 17.5 10 17.5ZM10 19C14.9706 19 19 14.9706 19 10C19 5.02944 14.9706 1 10 1C5.02944 1 1 5.02944 1 10C1 14.9706 5.02944 19 10 19Z" fill="#FEBB10"/>
<path d="M9.05166 12.7938C8.79848 13.047 8.65625 13.3904 8.65625 13.7484C8.65625 14.1065 8.79848 14.4499 9.05166 14.703C9.30483 14.9562 9.64821 15.0984 10.0062 15.0984C10.3643 15.0984 10.7077 14.9562 10.9608 14.703C11.214 14.4499 11.3562 14.1065 11.3562 13.7484C11.3562 13.3904 11.214 13.047 10.9608 12.7938C10.7077 12.5407 10.3643 12.3984 10.0062 12.3984C9.64821 12.3984 9.30483 12.5407 9.05166 12.7938Z" fill="#FEBB10"/>
<path d="M9.42464 5.41236C9.26278 5.54754 9.15354 5.73527 9.11596 5.94277L9.10156 6.10477V10.6048L9.11596 10.7668C9.15354 10.9743 9.26278 11.162 9.42464 11.2972C9.58649 11.4324 9.79068 11.5064 10.0016 11.5064C10.2124 11.5064 10.4166 11.4324 10.5785 11.2972C10.7403 11.162 10.8496 10.9743 10.8872 10.7668L10.9016 10.6048V6.10477L10.8872 5.94277C10.8496 5.73527 10.7403 5.54754 10.5785 5.41236C10.4166 5.27718 10.2124 5.20312 10.0016 5.20312C9.79068 5.20312 9.58649 5.27718 9.42464 5.41236Z" fill="#FEBB10"/>
</svg>
