<svg width="18" height="18" viewBox="0 0 18 18" fill="none" xmlns="http://www.w3.org/2000/svg">
<path d="M3.98418 8.5715C6.17268 4.69025 7.26693 2.75 9.00018 2.75C10.7334 2.75 11.8277 4.69025 14.0162 8.5715L14.2892 9.0545C16.1079 12.2795 17.0177 13.892 16.1957 15.071C15.3737 16.25 13.3397 16.25 9.27318 16.25H8.72718C4.66068 16.25 2.62668 16.25 1.80468 15.071C0.98268 13.892 1.89243 12.2795 3.71118 9.0545L3.98418 8.5715Z" stroke="#EE444A" stroke-width="1.125"/>
<path d="M9 6.5V10.25" stroke="#EE444A" stroke-width="1.125" stroke-linecap="round"/>
<path d="M9 13.25C9.41421 13.25 9.75 12.9142 9.75 12.5C9.75 12.0858 9.41421 11.75 9 11.75C8.58579 11.75 8.25 12.0858 8.25 12.5C8.25 12.9142 8.58579 13.25 9 13.25Z" fill="#EE444A"/>
</svg>
