<svg width="18" height="18" viewBox="0 0 18 18" fill="none" xmlns="http://www.w3.org/2000/svg">
<path d="M15.8033 4.42155C15.9567 4.58448 16.039 4.80163 16.0323 5.02526C16.0255 5.24888 15.9302 5.46067 15.7673 5.61405L6.84609 14.0223C6.66423 14.1936 6.42257 14.2869 6.1728 14.2822C5.92303 14.2776 5.68499 14.1754 5.50959 13.9976L2.49459 10.9376C2.41475 10.8591 2.35132 10.7656 2.30798 10.6624C2.26465 10.5592 2.24228 10.4484 2.24219 10.3364C2.24209 10.2245 2.26427 10.1137 2.30742 10.0104C2.35057 9.90712 2.41385 9.81346 2.49355 9.73488C2.57325 9.65629 2.6678 9.59435 2.77167 9.55266C2.87555 9.51097 2.98668 9.49037 3.0986 9.49205C3.21052 9.49373 3.32098 9.51766 3.42356 9.56245C3.52614 9.60723 3.61878 9.67198 3.69609 9.75293L6.20934 12.3033L14.6108 4.38555C14.7738 4.23222 14.9909 4.14988 15.2145 4.15663C15.4382 4.16339 15.65 4.25868 15.8033 4.42155Z" fill="#00AD7C"/>
</svg>
