<svg width="14" height="15" viewBox="0 0 14 15" fill="none" xmlns="http://www.w3.org/2000/svg">
<g clip-path="url(#clip0_3154_35238)">
<path d="M7.00521 13.6354C10.5289 13.6354 13.3854 10.7789 13.3854 7.25521C13.3854 3.73152 10.5289 0.875 7.00521 0.875C3.48152 0.875 0.625 3.73152 0.625 7.25521C0.625 10.7789 3.48152 13.6354 7.00521 13.6354Z" stroke="#1AA3C1" stroke-width="1.14844"/>
<path d="M5.8125 5.25863C5.81253 5.04913 5.86757 4.84331 5.97213 4.66176C6.07668 4.48022 6.22708 4.32931 6.40827 4.22415C6.58946 4.11898 6.7951 4.06324 7.00459 4.06251C7.21409 4.06177 7.42011 4.11607 7.60204 4.21996C7.78396 4.32385 7.93541 4.4737 8.04124 4.65451C8.14706 4.83532 8.20355 5.04075 8.20505 5.25024C8.20654 5.45974 8.153 5.66595 8.04977 5.84825C7.94654 6.03055 7.79724 6.18255 7.61682 6.28903C7.31376 6.46832 7.00879 6.74075 7.00879 7.09294V7.89047" stroke="#1AA3C1" stroke-width="1.14844" stroke-linecap="round"/>
<path d="M7.00521 10.4479C7.35758 10.4479 7.64323 10.1623 7.64323 9.8099C7.64323 9.45753 7.35758 9.17188 7.00521 9.17188C6.65284 9.17188 6.36719 9.45753 6.36719 9.8099C6.36719 10.1623 6.65284 10.4479 7.00521 10.4479Z" fill="#1AA3C1"/>
</g>
<defs>
<clipPath id="clip0_3154_35238">
<rect width="14" height="14" fill="white" transform="translate(0 0.25)"/>
</clipPath>
</defs>
</svg>
