<svg width="14" height="15" viewBox="0 0 14 15" fill="none" xmlns="http://www.w3.org/2000/svg">
<g clip-path="url(#clip0_3154_34943)">
<path d="M1.25 6.23713C1.25 4.19091 1.25 3.1678 1.49186 2.82356C1.73308 2.47996 2.69477 2.15045 4.61878 1.49205L4.98541 1.36664C5.98804 1.02304 6.48904 0.851562 7.00859 0.851562C7.52815 0.851562 8.02914 1.02304 9.03178 1.36664L9.39841 1.49205C11.3224 2.15045 12.2841 2.47996 12.5253 2.82356C12.7672 3.1678 12.7672 4.19155 12.7672 6.23713V7.24424C12.7672 10.8517 10.0549 12.6029 8.35291 13.3458C7.89158 13.5473 7.66123 13.6484 7.00859 13.6484C6.35595 13.6484 6.12561 13.5473 5.66428 13.3458C3.9623 12.6023 1.25 10.8523 1.25 7.24424V6.23713Z" stroke="#FEBB10" stroke-width="1.15172"/>
<path d="M7.00781 4.6875V7.24688" stroke="#FEBB10" stroke-width="1.15172" stroke-linecap="round"/>
<path d="M7.00703 9.81094C7.36041 9.81094 7.64688 9.52447 7.64688 9.17109C7.64688 8.81772 7.36041 8.53125 7.00703 8.53125C6.65366 8.53125 6.36719 8.81772 6.36719 9.17109C6.36719 9.52447 6.65366 9.81094 7.00703 9.81094Z" fill="#FEBB10"/>
</g>
<defs>
<clipPath id="clip0_3154_34943">
<rect width="14" height="14" fill="white" transform="translate(0 0.25)"/>
</clipPath>
</defs>
</svg>
