<svg width="18" height="18" viewBox="0 0 18 18" fill="none" xmlns="http://www.w3.org/2000/svg">
<g clip-path="url(#clip0_3154_39416)">
<path d="M9 17C13.1421 17 16.5 13.6421 16.5 9.5C16.5 5.35786 13.1421 2 9 2C4.85786 2 1.5 5.35786 1.5 9.5C1.5 13.6421 4.85786 17 9 17Z" stroke="#1AA3C1" stroke-width="1.125"/>
<path d="M7.59375 7.15606C7.59378 6.90979 7.65849 6.66785 7.78139 6.45444C7.9043 6.24103 8.08109 6.06364 8.29408 5.94002C8.50708 5.81639 8.7488 5.75087 8.99507 5.75001C9.24134 5.74915 9.48352 5.81297 9.69737 5.9351C9.91122 6.05722 10.0893 6.23337 10.2137 6.44591C10.3381 6.65845 10.4045 6.89994 10.4062 7.1462C10.408 7.39247 10.345 7.63487 10.2237 7.84917C10.1023 8.06347 9.92684 8.24214 9.71475 8.36731C9.3585 8.57806 9 8.89831 9 9.31231V10.2498" stroke="#1AA3C1" stroke-width="1.125" stroke-linecap="round"/>
<path d="M9 13.25C9.41421 13.25 9.75 12.9142 9.75 12.5C9.75 12.0858 9.41421 11.75 9 11.75C8.58579 11.75 8.25 12.0858 8.25 12.5C8.25 12.9142 8.58579 13.25 9 13.25Z" fill="#1AA3C1"/>
</g>
<defs>
<clipPath id="clip0_3154_39416">
<rect width="18" height="18" fill="white" transform="translate(0 0.5)"/>
</clipPath>
</defs>
</svg>
