<svg width="20" height="20" viewBox="0 0 20 20" fill="none" xmlns="http://www.w3.org/2000/svg">
<g id="General/ico_check_20_wh">
<path id="Vector" d="M3.3741 10.1683C3.28605 10.0691 3.1622 10.0089 3.0298 10.0011C2.8974 9.99318 2.76729 10.0382 2.6681 10.1263C2.56891 10.2143 2.50876 10.3382 2.50088 10.4706C2.49301 10.603 2.53805 10.7331 2.6261 10.8323L6.6261 15.3323C6.67133 15.3834 6.72653 15.4246 6.78832 15.4536C6.8501 15.4825 6.91715 15.4985 6.98535 15.5006C7.05354 15.5027 7.12144 15.4907 7.18486 15.4656C7.24827 15.4404 7.30587 15.4025 7.3541 15.3543L17.8541 4.85428C17.948 4.76052 18.0008 4.63331 18.0009 4.50063C18.001 4.36795 17.9484 4.24066 17.8546 4.14678C17.7608 4.05289 17.6336 4.00009 17.501 4C17.3683 3.99991 17.241 4.05252 17.1471 4.14628L7.0201 14.2713L3.3741 10.1683Z" fill="#00AD7C"/>
</g>
</svg>
