<svg width="18" height="18" viewBox="0 0 18 18" fill="none" xmlns="http://www.w3.org/2000/svg">
<path d="M2.25 8.31275C2.25 5.91425 2.25 4.715 2.5335 4.3115C2.81625 3.90875 3.9435 3.5225 6.19875 2.75075L6.6285 2.60375C7.80375 2.201 8.391 2 9 2C9.609 2 10.1962 2.201 11.3715 2.60375L11.8012 2.75075C14.0565 3.5225 15.1837 3.90875 15.4665 4.3115C15.75 4.715 15.75 5.915 15.75 8.31275V9.49325C15.75 13.7218 12.5707 15.7745 10.5757 16.6453C10.035 16.8815 9.765 17 9 17C8.235 17 7.965 16.8815 7.42425 16.6453C5.42925 15.7738 2.25 13.7225 2.25 9.49325V8.31275Z" stroke="#FEBB10" stroke-width="1.125"/>
<path d="M9 6.5V9.5" stroke="#FEBB10" stroke-width="1.125" stroke-linecap="round"/>
<path d="M9 12.5C9.41421 12.5 9.75 12.1642 9.75 11.75C9.75 11.3358 9.41421 11 9 11C8.58579 11 8.25 11.3358 8.25 11.75C8.25 12.1642 8.58579 12.5 9 12.5Z" fill="#FEBB10"/>
</svg>
