<svg width="45" height="44" viewBox="0 0 45 44" fill="none" xmlns="http://www.w3.org/2000/svg">
<g id="fluent:arrow-trending-lines-24-filled">
<path id="Vector" d="M31.5 7.33366C31.0138 7.33366 30.5475 7.14051 30.2036 6.79669C29.8598 6.45287 29.6667 5.98656 29.6667 5.50033C29.6667 5.0141 29.8598 4.54778 30.2036 4.20396C30.5475 3.86015 31.0138 3.66699 31.5 3.66699H38.8333C39.3196 3.66699 39.7859 3.86015 40.1297 4.20396C40.4735 4.54778 40.6667 5.0141 40.6667 5.50033V12.8337C40.6667 13.3199 40.4735 13.7862 40.1297 14.13C39.7859 14.4738 39.3196 14.667 38.8333 14.667C38.3471 14.667 37.8808 14.4738 37.537 14.13C37.1932 13.7862 37 13.3199 37 12.8337V9.92599L26.3795 20.5465C26.0357 20.8902 25.5695 21.0833 25.0833 21.0833C24.5972 21.0833 24.131 20.8902 23.7872 20.5465L18.6667 15.426L8.96284 25.1298C8.61707 25.4638 8.15397 25.6486 7.67327 25.6444C7.19258 25.6402 6.73276 25.4474 6.39284 25.1075C6.05293 24.7676 5.86012 24.3078 5.85594 23.8271C5.85176 23.3464 6.03655 22.8833 6.37051 22.5375L17.3705 11.5375C17.7143 11.1938 18.1805 11.0007 18.6667 11.0007C19.1528 11.0007 19.619 11.1938 19.9628 11.5375L25.0833 16.658L34.4077 7.33366H31.5ZM9.50001 33.0003V38.5003C9.50001 38.9866 9.30685 39.4529 8.96304 39.7967C8.61922 40.1405 8.15291 40.3337 7.66668 40.3337C7.18045 40.3337 6.71413 40.1405 6.37031 39.7967C6.0265 39.4529 5.83334 38.9866 5.83334 38.5003V33.0003C5.83334 32.5141 6.0265 32.0478 6.37031 31.704C6.71413 31.3601 7.18045 31.167 7.66668 31.167C8.15291 31.167 8.61922 31.3601 8.96304 31.704C9.30685 32.0478 9.50001 32.5141 9.50001 33.0003ZM18.6667 25.667C18.6667 25.1808 18.4735 24.7145 18.1297 24.3706C17.7859 24.0268 17.3196 23.8337 16.8333 23.8337C16.3471 23.8337 15.8808 24.0268 15.537 24.3706C15.1932 24.7145 15 25.1808 15 25.667V38.5003C15 38.9866 15.1932 39.4529 15.537 39.7967C15.8808 40.1405 16.3471 40.3337 16.8333 40.3337C17.3196 40.3337 17.7859 40.1405 18.1297 39.7967C18.4735 39.4529 18.6667 38.9866 18.6667 38.5003V25.667ZM26 27.5003C26.4862 27.5003 26.9526 27.6935 27.2964 28.0373C27.6402 28.3811 27.8333 28.8474 27.8333 29.3337V38.5003C27.8333 38.9866 27.6402 39.4529 27.2964 39.7967C26.9526 40.1405 26.4862 40.3337 26 40.3337C25.5138 40.3337 25.0475 40.1405 24.7036 39.7967C24.3598 39.4529 24.1667 38.9866 24.1667 38.5003V29.3337C24.1667 28.8474 24.3598 28.3811 24.7036 28.0373C25.0475 27.6935 25.5138 27.5003 26 27.5003ZM37 20.167C37 19.6808 36.8069 19.2144 36.463 18.8706C36.1192 18.5268 35.6529 18.3337 35.1667 18.3337C34.6804 18.3337 34.2141 18.5268 33.8703 18.8706C33.5265 19.2144 33.3333 19.6808 33.3333 20.167V38.5003C33.3333 38.9866 33.5265 39.4529 33.8703 39.7967C34.2141 40.1405 34.6804 40.3337 35.1667 40.3337C35.6529 40.3337 36.1192 40.1405 36.463 39.7967C36.8069 39.4529 37 38.9866 37 38.5003V20.167Z" fill="url(#paint0_linear_3065_36972)"/>
</g>
<defs>
<linearGradient id="paint0_linear_3065_36972" x1="23.25" y1="3.66699" x2="23.25" y2="40.3337" gradientUnits="userSpaceOnUse">
<stop stop-color="#2658ED"/>
<stop offset="1" stop-color="#1641D0"/>
</linearGradient>
</defs>
</svg>
