<svg width="48" height="48" viewBox="0 0 48 48" fill="none" xmlns="http://www.w3.org/2000/svg">
<g id="solar:wallet-money-linear">
<g id="Group">
<path id="Vector" d="M13 20H21" stroke="url(#paint0_linear_3065_37026)" stroke-width="3" stroke-linecap="round" stroke-linejoin="round"/>
<path id="Vector_2" d="M42.666 22H37.462C33.892 22 31 24.686 31 28C31 31.314 33.894 34 37.46 34H42.666C42.834 34 42.916 34 42.986 33.996C44.066 33.93 44.926 33.132 44.996 32.13C45 32.066 45 31.988 45 31.834V24.166C45 24.012 45 23.934 44.996 23.87C44.924 22.868 44.066 22.07 42.986 22.004C42.916 22 42.834 22 42.666 22Z" stroke="url(#paint1_linear_3065_37026)" stroke-width="3"/>
<path id="Vector_3" d="M42.93 22C42.774 18.256 42.274 15.96 40.656 14.344C38.314 12 34.542 12 27 12H21C13.458 12 9.686 12 7.344 14.344C5.002 16.688 5 20.458 5 28C5 35.542 5 39.314 7.344 41.656C9.688 43.998 13.458 44 21 44H27C34.542 44 38.314 44 40.656 41.656C42.274 40.04 42.776 37.744 42.93 34" stroke="url(#paint2_linear_3065_37026)" stroke-width="3"/>
<path id="Vector_4" d="M13 11.9999L20.47 7.04589C21.5208 6.3633 22.747 6 24 6C25.253 6 26.4792 6.3633 27.53 7.04589L35 11.9999" stroke="url(#paint3_linear_3065_37026)" stroke-width="3" stroke-linecap="round"/>
<path id="Vector_5" d="M36.982 28H37.002" stroke="url(#paint4_linear_3065_37026)" stroke-width="3" stroke-linecap="round" stroke-linejoin="round"/>
</g>
</g>
<defs>
<linearGradient id="paint0_linear_3065_37026" x1="13" y1="20" x2="13.016" y2="20.9997" gradientUnits="userSpaceOnUse">
<stop stop-color="#C45FEC"/>
<stop offset="1" stop-color="#B348E5"/>
</linearGradient>
<linearGradient id="paint1_linear_3065_37026" x1="31" y1="22" x2="32.2995" y2="33.8576" gradientUnits="userSpaceOnUse">
<stop stop-color="#C45FEC"/>
<stop offset="1" stop-color="#B348E5"/>
</linearGradient>
<linearGradient id="paint2_linear_3065_37026" x1="5" y1="12" x2="8.41217" y2="43.6319" gradientUnits="userSpaceOnUse">
<stop stop-color="#C45FEC"/>
<stop offset="1" stop-color="#B348E5"/>
</linearGradient>
<linearGradient id="paint3_linear_3065_37026" x1="13" y1="6" x2="13.209" y2="11.9926" gradientUnits="userSpaceOnUse">
<stop stop-color="#C45FEC"/>
<stop offset="1" stop-color="#B348E5"/>
</linearGradient>
<linearGradient id="paint4_linear_3065_37026" x1="36.982" y1="28" x2="37.1347" y2="28.0239" gradientUnits="userSpaceOnUse">
<stop stop-color="#C45FEC"/>
<stop offset="1" stop-color="#B348E5"/>
</linearGradient>
</defs>
</svg>
