<svg width="49" height="48" viewBox="0 0 49 48" fill="none" xmlns="http://www.w3.org/2000/svg">
<g id="fluent:checkmark-starburst-24-regular">
<path id="Vector" d="M20.3387 4.06794C20.5627 4.14528 20.782 4.23594 20.9967 4.33994L23.5627 5.60394C23.9062 5.773 24.2839 5.86091 24.6667 5.86091C25.0495 5.86091 25.4272 5.773 25.7707 5.60394L28.3367 4.33994C28.9848 4.02091 29.6893 3.83266 30.4101 3.78594C31.131 3.73922 31.8539 3.83495 32.5377 4.06766C33.2216 4.30036 33.8529 4.66549 34.3956 5.1422C34.9383 5.6189 35.3817 6.19783 35.7007 6.84594L35.8467 7.16994L35.9727 7.50394L36.8927 10.2099C37.1427 10.9459 37.7207 11.5219 38.4547 11.7719L41.1627 12.6919C41.9034 12.944 42.5819 13.3511 43.1527 13.8863C43.7235 14.4214 44.1736 15.0721 44.4729 15.7951C44.7722 16.518 44.9138 17.2965 44.8882 18.0785C44.8627 18.8605 44.6705 19.6281 44.3247 20.3299L43.0627 22.8959C42.8936 23.2394 42.8057 23.6171 42.8057 23.9999C42.8057 24.3828 42.8936 24.7605 43.0627 25.1039L44.3247 27.6699C44.6702 28.3717 44.862 29.1391 44.8874 29.9209C44.9128 30.7027 44.7711 31.4809 44.4719 32.2036C44.1726 32.9263 43.7226 33.5768 43.152 34.1118C42.5814 34.6468 41.9032 35.0539 41.1627 35.3059L38.4547 36.2259C38.0924 36.3495 37.7634 36.5546 37.4929 36.8254C37.2225 37.0962 37.0178 37.4255 36.8947 37.7879L35.9727 40.4959C35.7206 41.2364 35.3135 41.9146 34.7785 42.4853C34.2436 43.0559 33.593 43.5059 32.8703 43.8051C32.1476 44.1044 31.3694 44.2461 30.5876 44.2207C29.8058 44.1953 29.0384 44.0034 28.3367 43.6579L25.7707 42.3959C25.4272 42.2269 25.0495 42.139 24.6667 42.139C24.2839 42.139 23.9062 42.2269 23.5627 42.3959L20.9967 43.6579C20.2949 44.0034 19.5275 44.1953 18.7458 44.2207C17.964 44.2461 17.1858 44.1044 16.4631 43.8051C15.7404 43.5059 15.0898 43.0559 14.5548 42.4853C14.0199 41.9146 13.6128 41.2364 13.3607 40.4959L12.4407 37.7879C12.3169 37.4255 12.1115 37.0963 11.8403 36.8258C11.5692 36.5553 11.2395 36.3508 10.8767 36.2279L8.17069 35.3059C7.43004 35.0541 6.75163 34.6471 6.18077 34.1122C5.60991 33.5774 5.15972 32.9268 4.86026 32.2041C4.5608 31.4814 4.41896 30.7031 4.44421 29.9212C4.46946 29.1393 4.66122 28.3718 5.00669 27.6699L6.27069 25.1039C6.43974 24.7605 6.52766 24.3828 6.52766 23.9999C6.52766 23.6171 6.43974 23.2394 6.27069 22.8959L5.00669 20.3299C4.66122 19.6281 4.46946 18.8605 4.44421 18.0787C4.41896 17.2968 4.5608 16.5185 4.86026 15.7958C5.15972 15.073 5.60991 14.4225 6.18077 13.8876C6.75163 13.3528 7.43004 12.9458 8.17069 12.6939L10.8767 11.7739C11.2395 11.6504 11.5691 11.4451 11.8399 11.174C12.1108 10.9028 12.3156 10.5729 12.4387 10.2099L13.3587 7.50394C13.5913 6.81993 13.9563 6.18843 14.433 5.64553C14.9097 5.10263 15.4887 4.65897 16.1368 4.33989C16.785 4.02081 17.4897 3.83256 18.2107 3.7859C18.9317 3.73924 19.6548 3.83508 20.3387 4.06794ZM16.1987 8.46794L15.2787 11.1759C15.0074 11.9736 14.5565 12.6982 13.9607 13.294C13.365 13.8897 12.6403 14.3406 11.8427 14.6119L9.13669 15.5319C8.7999 15.6464 8.49142 15.8314 8.23185 16.0747C7.97228 16.3179 7.76761 16.6137 7.63149 16.9423C7.49538 17.271 7.43097 17.6249 7.44255 17.9804C7.45414 18.3359 7.54146 18.6849 7.69869 19.0039L8.96269 21.5699C9.33499 22.3259 9.52861 23.1573 9.52861 23.9999C9.52861 24.8426 9.33499 25.674 8.96269 26.4299L7.69869 28.9939C7.54146 29.313 7.45414 29.662 7.44255 30.0175C7.43097 30.373 7.49538 30.7269 7.63149 31.0556C7.76761 31.3842 7.97228 31.68 8.23185 31.9232C8.49142 32.1664 8.7999 32.3515 9.13669 32.4659L11.8427 33.3859C12.6403 33.6572 13.365 34.1082 13.9607 34.7039C14.5565 35.2997 15.0074 36.0243 15.2787 36.8219L16.1987 39.5299C16.3126 39.8671 16.4973 40.1761 16.7404 40.436C16.9836 40.6959 17.2795 40.9009 17.6083 41.037C17.9371 41.1732 18.2912 41.2375 18.647 41.2256C19.0027 41.2137 19.3517 41.1258 19.6707 40.9679L22.2367 39.7039C22.9926 39.3316 23.824 39.138 24.6667 39.138C25.5093 39.138 26.3407 39.3316 27.0967 39.7039L29.6607 40.9679C29.7594 41.0146 29.8594 41.0553 29.9607 41.0899C30.5882 41.3036 31.2749 41.2592 31.8697 40.9667C32.4645 40.6742 32.9188 40.1574 33.1327 39.5299L34.0527 36.8219C34.324 36.0243 34.7749 35.2997 35.3707 34.7039C35.9664 34.1082 36.691 33.6572 37.4887 33.3859L40.1967 32.4659C40.2967 32.4313 40.3967 32.3899 40.4967 32.3419C40.7913 32.1969 41.0544 31.9952 41.271 31.7484C41.4877 31.5016 41.6536 31.2146 41.7592 30.9037C41.8649 30.5928 41.9083 30.2641 41.8869 29.9364C41.8656 29.6087 41.7799 29.2885 41.6347 28.9939L40.3707 26.4279C39.9987 25.6723 39.8053 24.8412 39.8053 23.9989C39.8053 23.1567 39.9987 22.3256 40.3707 21.5699L41.6347 19.0039C41.7919 18.6849 41.8792 18.3359 41.8908 17.9804C41.9024 17.6249 41.838 17.271 41.7019 16.9423C41.5658 16.6137 41.3611 16.3179 41.1015 16.0747C40.842 15.8314 40.5335 15.6464 40.1967 15.5319L37.4887 14.6119C36.691 14.3406 35.9664 13.8897 35.3707 13.294C34.7749 12.6982 34.324 11.9736 34.0527 11.1759L33.1327 8.46994L33.0747 8.31794L33.0087 8.16994L32.8847 7.94794C32.5561 7.42312 32.0445 7.03889 31.4489 6.86967C30.8533 6.70045 30.2161 6.75827 29.6607 7.03194L27.0947 8.29594C26.339 8.66792 25.508 8.86137 24.6657 8.86137C23.8234 8.86137 22.9924 8.66792 22.2367 8.29594L19.6707 7.03194C19.3517 6.87507 19.0029 6.78802 18.6476 6.77661C18.2923 6.76521 17.9387 6.8297 17.6103 6.96579C17.2819 7.10188 16.9863 7.30643 16.7432 7.56581C16.5002 7.82519 16.3152 8.13342 16.2007 8.46994M20.7667 28.7799L31.6067 17.9399C31.8743 17.6716 32.2337 17.5144 32.6124 17.5002C32.9912 17.486 33.3613 17.6156 33.6484 17.8632C33.9354 18.1107 34.1181 18.4577 34.1597 18.8345C34.2013 19.2112 34.0988 19.5897 33.8727 19.8939L33.7267 20.0619L21.7267 32.0619C21.4554 32.3332 21.0904 32.4902 20.7068 32.5006C20.3233 32.5111 19.9503 32.3741 19.6647 32.1179L19.5147 31.9619L14.5147 25.9619C14.2729 25.671 14.15 25.2995 14.1705 24.9218C14.191 24.5441 14.3535 24.1881 14.6253 23.9251C14.8972 23.6621 15.2584 23.5115 15.6365 23.5035C16.0147 23.4955 16.3819 23.6307 16.6647 23.8819L16.8187 24.0419L20.7667 28.7799Z" fill="url(#paint0_linear_3065_36969)"/>
</g>
<defs>
<linearGradient id="paint0_linear_3065_36969" x1="4.44135" y1="3.77441" x2="10.6513" y2="43.2466" gradientUnits="userSpaceOnUse">
<stop stop-color="#46B6CF"/>
<stop offset="1" stop-color="#1B91AC"/>
</linearGradient>
</defs>
</svg>
