<svg width="99" height="96" viewBox="0 0 99 96" fill="none" xmlns="http://www.w3.org/2000/svg">
<rect width="98.6667" height="96" rx="32" fill="#748495" fill-opacity="0.05"/>
<g clip-path="url(#clip0_4756_106377)">
<path d="M27.6681 47.7516C27.6674 40.2085 27.667 36.4369 30.0102 34.0934C32.3534 31.75 36.125 31.75 43.6681 31.75H54.0779C61.6203 31.75 65.3916 31.75 67.7347 34.0931C70.0779 36.4363 70.0779 40.2075 70.0779 47.75V49.5585C70.0779 56.1582 70.0779 59.458 68.0276 61.5083C65.9773 63.5585 62.6775 63.5585 56.0779 63.5585H41.6683C35.0693 63.5585 31.7697 63.5585 29.7195 61.5085C27.6693 59.4585 27.669 56.159 27.6683 49.5599L27.6681 47.7516Z" fill="white"/>
<rect x="27.7476" y="38.25" width="41.1667" height="6.5" fill="#2589F4"/>
<path d="M26.6711 47.7516C26.6703 40.2085 26.6699 36.4369 29.0131 34.0934C31.3563 31.75 35.1279 31.75 42.6711 31.75H53.0808C60.6233 31.75 64.3945 31.75 66.7376 34.0931C69.0808 36.4363 69.0808 40.2075 69.0808 47.75V49.5585C69.0808 56.1582 69.0808 59.458 67.0305 61.5083C64.9803 63.5585 61.6804 63.5585 55.0808 63.5585H40.6713C34.0722 63.5585 30.7727 63.5585 28.7225 61.5085C26.6723 59.4585 26.6719 56.159 26.6712 49.5599L26.6711 47.7516Z" stroke="#0871F3" stroke-width="3"/>
<circle cx="66.1278" cy="60.4583" r="9.20833" fill="#2589F4"/>
<path d="M62.875 63.7031L69.375 57.2031" stroke="white" stroke-width="1.5" stroke-linecap="round"/>
<path d="M69.9167 63.1615C69.9167 63.7598 69.4316 64.2448 68.8333 64.2448C68.235 64.2448 67.75 63.7598 67.75 63.1615C67.75 62.5631 68.235 62.0781 68.8333 62.0781C69.4316 62.0781 69.9167 62.5631 69.9167 63.1615Z" fill="white"/>
<path d="M64.5002 57.7474C64.5002 58.3457 64.0151 58.8307 63.4168 58.8307C62.8185 58.8307 62.3335 58.3457 62.3335 57.7474C62.3335 57.1491 62.8185 56.6641 63.4168 56.6641C64.0151 56.6641 64.5002 57.1491 64.5002 57.7474Z" fill="white"/>
</g>
<defs>
<clipPath id="clip0_4756_106377">
<rect width="52" height="52" fill="white" transform="translate(23.3335 22)"/>
</clipPath>
</defs>
</svg>
