<svg width="99" height="96" viewBox="0 0 99 96" fill="none" xmlns="http://www.w3.org/2000/svg">
<rect x="0.333496" width="98.6667" height="96" rx="32" fill="#748495" fill-opacity="0.05"/>
<g clip-path="url(#clip0_4756_106392)">
<path d="M68.7134 47.4568C68.7134 50.0889 68.195 52.6951 67.1878 55.1268C66.1805 57.5585 64.7042 59.768 62.843 61.6292C60.9819 63.4903 58.7724 64.9667 56.3407 65.9739C53.909 66.9811 51.3027 67.4996 48.6707 67.4996C46.0386 67.4996 43.4323 66.9811 41.0006 65.9739C38.569 64.9667 36.3595 63.4903 34.4983 61.6292C32.6372 59.768 31.1608 57.5585 30.1536 55.1268C29.1464 52.6951 28.6279 50.0889 28.6279 47.4568C28.6279 42.1411 30.7396 37.0432 34.4983 33.2844C38.2571 29.5257 43.355 27.4141 48.6707 27.4141C53.9863 27.4141 59.0843 29.5257 62.843 33.2844C66.6018 37.0432 68.7134 42.1411 68.7134 47.4568Z" fill="white"/>
<path d="M56.6849 47.4558C56.6849 50.0873 56.4764 52.6947 56.0736 55.1258C55.6728 57.5568 55.0815 59.7654 54.336 61.6273C53.5924 63.4892 52.7086 64.9643 51.7366 65.9724C50.7625 66.9785 49.7204 67.4976 48.6682 67.4976C47.616 67.4976 46.5738 66.9785 45.6018 65.9724C44.6278 64.9643 43.7439 63.4872 43.0004 61.6273C42.2548 59.7654 41.6636 57.5589 41.2607 55.1258C40.8497 52.5899 40.6459 50.0248 40.6515 47.4558C40.6515 44.8243 40.8579 42.2169 41.2607 39.7858C41.6636 37.3548 42.2548 35.1462 43.0004 33.2843C43.7439 31.4224 44.6278 29.9473 45.5998 28.9392C46.5738 27.9351 47.616 27.4141 48.6682 27.4141C49.7204 27.4141 50.7625 27.9331 51.7346 28.9392C52.7086 29.9473 53.5924 31.4244 54.336 33.2843C55.0815 35.1462 55.6728 37.3528 56.0736 39.7858C56.4784 42.2169 56.6849 44.8243 56.6849 47.4558Z" stroke="#2589F4" stroke-width="3"/>
<path d="M28.6279 47.4531H68.7114" stroke="#2589F4" stroke-width="3" stroke-linecap="round"/>
<path d="M68.7134 47.4568C68.7134 50.0889 68.195 52.6951 67.1878 55.1268C66.1805 57.5585 64.7042 59.768 62.843 61.6292C60.9819 63.4903 58.7724 64.9667 56.3407 65.9739C53.909 66.9811 51.3027 67.4996 48.6707 67.4996C46.0386 67.4996 43.4323 66.9811 41.0006 65.9739C38.569 64.9667 36.3595 63.4903 34.4983 61.6292C32.6372 59.768 31.1608 57.5585 30.1536 55.1268C29.1464 52.6951 28.6279 50.0889 28.6279 47.4568C28.6279 42.1411 30.7396 37.0432 34.4983 33.2844C38.2571 29.5257 43.355 27.4141 48.6707 27.4141C53.9863 27.4141 59.0843 29.5257 62.843 33.2844C66.6018 37.0432 68.7134 42.1411 68.7134 47.4568Z" stroke="#0871F3" stroke-width="3"/>
<circle cx="66.4588" cy="60.4583" r="9.20833" fill="#2589F4"/>
<path d="M66.459 64.523C67.8057 64.523 68.8965 63.6138 68.8965 62.4926C68.8965 61.3713 67.8057 60.4609 66.459 60.4609C65.1123 60.4609 64.0215 59.5518 64.0215 58.4293C64.0215 57.308 65.1123 56.3988 66.459 56.3988M66.459 64.523C65.1123 64.523 64.0215 63.6138 64.0215 62.4926M66.459 64.523V65.3359M66.459 56.3988V55.5859M66.459 56.3988C67.8057 56.3988 68.8965 57.308 68.8965 58.4293" stroke="white" stroke-width="1.5" stroke-linecap="round"/>
</g>
<defs>
<clipPath id="clip0_4756_106392">
<rect width="52" height="52" fill="white" transform="translate(23.667 22)"/>
</clipPath>
</defs>
</svg>
