<svg width="52" height="52" viewBox="0 0 52 52" fill="none" xmlns="http://www.w3.org/2000/svg">
<path fill-rule="evenodd" clip-rule="evenodd" d="M23.0671 6.8278L14.9814 12.1901C14.2335 12.6861 13.2251 12.4819 12.7291 11.7339C12.233 10.986 12.4373 9.97759 13.1852 9.48157L21.2841 4.11047L21.2906 4.10627C22.6925 3.19561 24.3283 2.71094 26 2.71094C27.6717 2.71094 29.3075 3.19561 30.7094 4.10627L30.7158 4.11047L38.8148 9.48157C39.5627 9.97759 39.7669 10.986 39.2709 11.7339C38.7749 12.4819 37.7665 12.6861 37.0185 12.1901L28.9329 6.8278C28.0594 6.26202 27.0408 5.96094 26 5.96094C24.9591 5.96094 23.9406 6.26202 23.0671 6.8278Z" fill="#2589F4"/>
<path d="M46.5075 21.6693C46.3385 17.6133 45.7968 15.1259 44.044 13.3753C41.5068 10.8359 37.4205 10.8359 29.25 10.8359H22.75C14.5795 10.8359 10.4931 10.8359 7.95596 13.3753C5.41879 15.9146 5.41663 19.9988 5.41663 28.1693C5.41663 36.3398 5.41663 40.4261 7.95596 42.9633C10.4953 45.5004 14.5795 45.5026 22.75 45.5026H29.25C37.4205 45.5026 41.5068 45.5026 44.044 42.9633C45.7968 41.2126 46.3406 38.7253 46.5075 34.6693" fill="white"/>
<path fill-rule="evenodd" clip-rule="evenodd" d="M22.6277 9.21094H29.3722C33.3538 9.2109 36.5077 9.21088 38.9761 9.54286C41.5157 9.88443 43.5716 10.604 45.1923 12.2255C47.4242 14.4547 47.9613 17.5268 48.1311 21.6016L44.8839 21.7369C44.7157 17.6997 44.1694 15.7972 42.8956 14.525L42.8944 14.5238C41.9782 13.6068 40.7227 13.057 38.5429 12.7639C36.3163 12.4644 33.3812 12.4609 29.25 12.4609H22.75C18.6188 12.4609 15.6836 12.4644 13.4571 12.7639C11.2772 13.057 10.0217 13.6068 9.1055 14.5238C8.18856 15.4416 7.63875 16.6979 7.34533 18.8774C7.04562 21.1036 7.04163 24.0383 7.04163 28.1693C7.04163 32.3005 7.04508 35.2356 7.34454 37.4622C7.63772 39.642 8.1875 40.8975 9.10452 41.8137C10.0222 42.7307 11.2786 43.2805 13.4581 43.5739C15.6843 43.8736 18.619 43.8776 22.75 43.8776H29.25C33.3812 43.8776 36.3163 43.8742 38.5429 43.5747C40.7227 43.2815 41.9782 42.7317 42.8944 41.8147L42.8956 41.8135C44.1696 40.5411 44.7178 38.638 44.8838 34.6025L48.1311 34.7361C47.9634 38.8126 47.424 41.8841 45.1923 44.113C43.5716 45.7345 41.5157 46.4541 38.9761 46.7957C36.5078 47.1277 33.3538 47.1276 29.3723 47.1276H22.6467C18.656 47.1276 15.4965 47.1277 13.0245 46.7948C10.4844 46.4529 8.42901 45.733 6.8074 44.1128C5.18509 42.4919 4.4652 40.4356 4.12355 37.8954C3.79156 35.4271 3.79159 32.2731 3.79163 28.2915L3.79163 28.066C3.7916 24.0753 3.79158 20.9158 4.12439 18.4438C4.46634 15.9037 5.1862 13.8483 6.80642 12.2267C8.42735 10.6044 10.4836 9.88451 13.0239 9.54286C15.4922 9.21088 18.6462 9.2109 22.6277 9.21094Z" fill="#0871F3"/>
<path fill-rule="evenodd" clip-rule="evenodd" d="M38.4388 28.1719C38.4388 27.2744 39.1664 26.5469 40.0638 26.5469H40.0855C40.983 26.5469 41.7105 27.2744 41.7105 28.1719C41.7105 29.0693 40.983 29.7969 40.0855 29.7969H40.0638C39.1664 29.7969 38.4388 29.0693 38.4388 28.1719Z" fill="#0871F3"/>
<path fill-rule="evenodd" clip-rule="evenodd" d="M46.257 20.0469C46.4027 20.0468 46.537 20.0468 46.6608 20.0539L46.6672 20.0542L46.6672 20.0542C48.5578 20.1698 50.2237 21.5947 50.3664 23.5813L50.3675 23.5964L50.3674 23.5964C50.375 23.7185 50.375 23.853 50.3749 23.9839C50.3749 23.9954 50.3749 24.0069 50.3749 24.0184V32.3254C50.3749 32.3369 50.3749 32.3484 50.3749 32.3599C50.375 32.4908 50.375 32.6253 50.3674 32.7474L50.3667 32.7593L50.3666 32.7593C50.2275 34.751 48.555 36.1742 46.6672 36.2895L46.6608 36.2899C46.5369 36.297 46.4027 36.2969 46.2569 36.2969C46.2451 36.2969 46.2333 36.2969 46.2214 36.2969H40.5816C35.9364 36.2969 31.9583 32.7708 31.9583 28.1719C31.9583 23.573 35.9343 20.0469 40.5838 20.0469H46.2214C46.2334 20.0469 46.2452 20.0469 46.257 20.0469ZM46.4727 23.2984C46.4541 23.2975 46.4161 23.2969 46.2214 23.2969H40.5838C37.4982 23.2969 35.2083 25.5905 35.2083 28.1719C35.2083 30.7533 37.5004 33.0469 40.5816 33.0469H46.2214C46.4161 33.0469 46.4541 33.0463 46.4727 33.0453C46.9153 33.0167 47.1061 32.7209 47.1238 32.5412C47.124 32.5353 47.1243 32.524 47.1245 32.5049C47.1249 32.465 47.1249 32.4122 47.1249 32.3254V24.0184C47.1249 23.9316 47.1249 23.8788 47.1245 23.8389C47.1243 23.8213 47.124 23.8103 47.1239 23.8041C47.1045 23.6194 46.9113 23.3268 46.4727 23.2984Z" fill="#0871F3"/>
<path fill-rule="evenodd" clip-rule="evenodd" d="M12.4583 19.5C12.4583 18.6025 13.1858 17.875 14.0833 17.875H22.7499C23.6474 17.875 24.3749 18.6025 24.3749 19.5C24.3749 20.3975 23.6474 21.125 22.7499 21.125H14.0833C13.1858 21.125 12.4583 20.3975 12.4583 19.5Z" fill="#2589F4"/>
</svg>
