<svg width="52" height="53" viewBox="0 0 52 53" fill="none" xmlns="http://www.w3.org/2000/svg">
<g id="Color / ico_like_outlined_48">
<g id="Group 2997">
<path id="Vector 57" d="M22.3648 15.3224C19.9317 18.3956 17.3921 20.6692 15.9129 21.884C15.1271 22.5292 14.6538 23.4979 14.6967 24.5138L15.4539 42.4487C15.5082 43.737 16.3791 44.8457 17.6237 45.1827C20.9016 46.0702 27.2709 47.6976 30.904 47.9866C35.9473 48.3877 38.2397 47.8719 39.2713 46.6111C40.3029 45.3503 39.8473 43.4415 40.3029 42.7739C40.7585 42.1063 42.7001 41.1954 43.1503 40.3083C43.6005 39.4213 43.4859 37.3329 43.7702 36.6131C44.0544 35.8933 46.1869 34.5091 46.5832 32.7672C46.9795 31.0254 45.0023 30.0224 45.031 28.1025C45.0596 26.1827 47.2661 25.3517 47.6959 23.4816C48.1257 21.6115 47.7346 20.4506 45.862 19.1908C43.9893 17.931 33.3019 18.9231 33.3019 18.9231C33.3019 18.9231 35.0746 14.5617 35.2997 13.0143C35.5248 11.4669 35.5999 9.43286 34.6525 7.46754C33.7051 5.50221 31.7323 4.04517 29.242 5.40726C26.7518 6.76934 26.1072 10.5954 22.3648 15.3224Z" fill="white" stroke="#0871F3" stroke-width="4" stroke-linecap="round" stroke-linejoin="round"/>
<path id="Vector 56" d="M15.9447 34.3819C15.9306 32.2959 15.7869 29.6099 15.6359 27.3181L15.6359 27.318C15.624 27.1372 15.618 27.0468 15.6061 26.9383C15.3408 24.5236 13.281 22.5951 10.8541 22.4891C10.7451 22.4844 10.6377 22.4844 10.423 22.4844C10.2702 22.4844 10.1937 22.4844 10.0868 22.489C7.76187 22.5885 5.66552 24.4961 5.34762 26.8013C5.33299 26.9073 5.32924 26.947 5.32174 27.0264C5.11699 29.1927 4.93066 31.8576 4.93066 34.3819C4.93066 36.8715 5.11191 39.4731 5.31333 41.5954C5.3228 41.6952 5.32753 41.7451 5.34455 41.8637C5.67175 44.1438 7.75354 46.0374 10.0544 46.1477C10.174 46.1535 10.2625 46.1535 10.4395 46.1535C10.6711 46.1535 10.7868 46.1535 10.9086 46.1475C13.2982 46.0309 15.3496 44.1162 15.6304 41.7403C15.6447 41.6192 15.6511 41.5257 15.6641 41.3387C15.8194 39.0869 15.9586 36.452 15.9447 34.3819Z" fill="white" stroke="#0871F3" stroke-width="4" stroke-linecap="round" stroke-linejoin="round"/>
<path id="Vector 58" d="M25.7119 38.8984C27.3689 39.2744 31.111 40.0377 32.823 40.0838" stroke="#2589F4" stroke-width="4" stroke-linecap="round" stroke-linejoin="round"/>
</g>
</g>
</svg>
