<svg width="53" height="52" viewBox="0 0 53 52" fill="none" xmlns="http://www.w3.org/2000/svg">
<path d="M35.3338 10.0001C34.8033 10.0001 34.2946 9.78935 33.9195 9.41427C33.5444 9.03919 33.3337 8.53047 33.3337 8.00003C33.3337 7.46959 33.5444 6.96087 33.9195 6.5858C34.2946 6.21072 34.8033 6 35.3338 6H43.3339C43.8643 6 44.373 6.21072 44.7481 6.5858C45.1232 6.96087 45.3339 7.46959 45.3339 8.00003V16.0002C45.3339 16.5306 45.1232 17.0393 44.7481 17.4144C44.373 17.7895 43.8643 18.0002 43.3339 18.0002C42.8034 18.0002 42.2947 17.7895 41.9197 17.4144C41.5446 17.0393 41.3339 16.5306 41.3339 16.0002V12.8281L29.7477 24.4143C29.3726 24.7892 28.864 24.9999 28.3337 24.9999C27.8033 24.9999 27.2947 24.7892 26.9196 24.4143L21.3335 18.8282L10.7474 29.4144C10.3702 29.7787 9.86496 29.9803 9.34056 29.9757C8.81616 29.9712 8.31453 29.7608 7.94371 29.39C7.57288 29.0192 7.36254 28.5175 7.35799 27.9931C7.35343 27.4687 7.55502 26.9635 7.91934 26.5863L19.9195 14.5861C20.2946 14.2112 20.8032 14.0006 21.3335 14.0006C21.8639 14.0006 22.3725 14.2112 22.7476 14.5861L28.3337 20.1722L38.5058 10.0001H35.3338Z" fill="#0871F3"/>
<path d="M11.3334 44.0002V38.0001C11.3334 37.4697 11.1227 36.9609 10.7476 36.5859C10.3725 36.2108 9.86378 36.0001 9.33334 36.0001C8.8029 36.0001 8.29419 36.2108 7.91911 36.5859C7.54403 36.9609 7.33331 37.4697 7.33331 38.0001V44.0002C7.33331 44.5306 7.54403 45.0393 7.91911 45.4144C8.29419 45.7895 8.8029 46.0002 9.33334 46.0002C9.86378 46.0002 10.3725 45.7895 10.7476 45.4144C11.1227 45.0393 11.3334 44.5306 11.3334 44.0002Z" fill="#2589F4"/>
<path d="M30.7479 32.5858C30.3728 32.2107 29.8641 32 29.3337 32C28.8032 32 28.2945 32.2107 27.9194 32.5858C27.5443 32.9609 27.3336 33.4696 27.3336 34V44.0002C27.3336 44.5306 27.5443 45.0393 27.9194 45.4144C28.2945 45.7895 28.8032 46.0002 29.3337 46.0002C29.8641 46.0002 30.3728 45.7895 30.7479 45.4144C31.123 45.0393 31.3337 44.5306 31.3337 44.0002V34C31.3337 33.4696 31.123 32.9609 30.7479 32.5858Z" fill="#2589F4"/>
<path d="M20.7478 28.5859C21.1228 28.961 21.3336 29.4697 21.3336 30.0001V44.0003C21.3336 44.5308 21.1228 45.0395 20.7478 45.4146C20.3727 45.7897 19.864 46.0004 19.3335 46.0004C18.8031 46.0004 18.2944 45.7897 17.9193 45.4146C17.5442 45.0395 17.3335 44.5308 17.3335 44.0003V30.0001C17.3335 29.4697 17.5442 28.961 17.9193 28.5859C18.2944 28.2108 18.8031 28.0001 19.3335 28.0001C19.864 28.0001 20.3727 28.2108 20.7478 28.5859Z" fill="#0871F3"/>
<path d="M40.7481 22.5858C41.1232 22.9609 41.3339 23.4696 41.3339 24V44.0003C41.3339 44.5308 41.1232 45.0395 40.7481 45.4146C40.373 45.7897 39.8643 46.0004 39.3338 46.0004C38.8034 46.0004 38.2947 45.7897 37.9196 45.4146C37.5445 45.0395 37.3338 44.5308 37.3338 44.0003V24C37.3338 23.4696 37.5445 22.9609 37.9196 22.5858C38.2947 22.2107 38.8034 22 39.3338 22C39.8643 22 40.373 22.2107 40.7481 22.5858Z" fill="#0871F3"/>
</svg>
