<svg width="100" height="96" viewBox="0 0 100 96" fill="none" xmlns="http://www.w3.org/2000/svg">
<rect x="0.666504" width="98.6667" height="96" rx="32" fill="#748495" fill-opacity="0.05"/>
<path d="M53.2983 35C55.5531 33.8002 57.0926 30.8044 57.0926 28.9718C57.0926 26.3485 53.9377 26.3369 50.046 26.3369C46.1544 26.3369 42.9995 26.3485 42.9995 28.9718C42.9995 30.8044 44.539 33.8002 46.7938 35" stroke="#2589F4" stroke-width="3"/>
<path d="M70.0973 55.9065C70.0973 64.9425 65.761 67.4956 50.0418 67.4956C34.3227 67.4956 29.9863 64.9425 29.9863 55.9065C29.9863 46.8705 36.4908 34.7734 50.0418 34.7734C63.5928 34.7734 70.0973 46.8705 70.0973 55.9065Z" fill="white" stroke="#0871F3" stroke-width="3"/>
<path d="M49.9998 58.5592C52.394 58.5592 54.3332 57.0439 54.3332 55.1752C54.3332 53.3064 52.394 51.7891 49.9998 51.7891C47.6057 51.7891 45.6665 50.2738 45.6665 48.403C45.6665 46.5342 47.6057 45.0189 49.9998 45.0189M49.9998 58.5592C47.6057 58.5592 45.6665 57.0439 45.6665 55.1752M49.9998 58.5592V59.9141M49.9998 45.0189V43.6641M49.9998 45.0189C52.394 45.0189 54.3332 46.5342 54.3332 48.403" stroke="#2589F4" stroke-width="3" stroke-linecap="round"/>
</svg>
