<svg width="53" height="52" viewBox="0 0 53 52" fill="none" xmlns="http://www.w3.org/2000/svg">
<path d="M10.9584 10.8359L8.90221 11.5206C6.75721 12.2356 5.68471 12.5931 5.07154 13.4446C4.45837 14.2961 4.45837 15.4293 4.45837 17.6869V17.8451C4.45837 19.7084 4.45837 20.6423 4.90687 21.4049C5.35537 22.1676 6.17221 22.6204 7.80154 23.5283L14.2084 27.0859" stroke="#2589F4" stroke-width="3"/>
<path d="M41.8334 10.8359L43.8895 11.5206C46.0345 12.2356 47.107 12.5931 47.7202 13.4446C48.3334 14.2961 48.3334 15.4293 48.3334 17.6869V17.8451C48.3334 19.7084 48.3334 20.6423 47.8849 21.4049C47.4364 22.1676 46.6195 22.6204 44.9902 23.5283L38.5834 27.0859" stroke="#2589F4" stroke-width="3"/>
<path d="M26.6667 34.6719V41.1719" stroke="#2589F4" stroke-width="3" stroke-linecap="round"/>
<path d="M26.6668 34.6698C14.1868 34.6698 11.9768 22.2331 11.5868 12.3661C11.4763 9.62309 11.4221 8.24943 12.4534 6.98193C13.4826 5.71226 14.7154 5.50426 17.1833 5.08826C20.3181 4.57475 23.4902 4.32327 26.6668 4.33643C30.5321 4.33643 33.7149 4.67659 36.1503 5.08826C38.6181 5.50426 39.8509 5.71226 40.8823 6.98193C41.9136 8.25159 41.8573 9.62309 41.7489 12.3661C41.3589 22.2331 39.1489 34.6698 26.6689 34.6698H26.6668Z" fill="white" stroke="#0871F3" stroke-width="3"/>
<path d="M34.25 47.6667H19.0834L19.82 43.992C19.9182 43.501 20.1833 43.0592 20.5704 42.7416C20.9575 42.424 21.4427 42.2503 21.9434 42.25H31.39C31.8907 42.2503 32.3759 42.424 32.763 42.7416C33.1501 43.0592 33.4152 43.501 33.5134 43.992L34.25 47.6667Z" stroke="#2589F4" stroke-width="3" stroke-linecap="round" stroke-linejoin="round"/>
<path d="M24.8164 13.0524C25.6397 11.5726 26.0514 10.8359 26.6667 10.8359C27.2821 10.8359 27.6937 11.5726 28.5171 13.0524L28.7294 13.4338C28.9634 13.8541 29.0804 14.0621 29.2624 14.2008C29.4466 14.3394 29.6741 14.3914 30.1291 14.4933L30.5407 14.5886C32.1397 14.9504 32.9392 15.1303 33.1299 15.7413C33.3206 16.3523 32.7746 16.9914 31.6847 18.2654L31.4031 18.5948C31.0932 18.9566 30.9372 19.1364 30.8679 19.3618C30.7986 19.5871 30.8224 19.8276 30.8679 20.3108L30.9112 20.7506C31.0759 22.4514 31.1582 23.3029 30.6621 23.6799C30.1637 24.0569 29.4141 23.7124 27.9169 23.0234L27.5312 22.8458C27.1044 22.6508 26.8921 22.5533 26.6667 22.5533C26.4414 22.5533 26.2291 22.6508 25.8022 22.8458L25.4166 23.0234C23.9194 23.7146 23.1697 24.0569 22.6714 23.6799C22.1731 23.3029 22.2576 22.4514 22.4222 20.7506L22.4656 20.3108C22.5111 19.8276 22.5349 19.5871 22.4656 19.3618C22.3962 19.1364 22.2402 18.9566 21.9304 18.5948L21.6487 18.2654C20.5589 16.9914 20.0129 16.3544 20.2036 15.7413C20.3942 15.1303 21.1937 14.9504 22.7927 14.5886L23.2044 14.4933C23.6594 14.3914 23.8869 14.3416 24.0711 14.2008C24.2531 14.0621 24.3701 13.8541 24.6041 13.4338L24.8164 13.0524Z" stroke="#0871F3" stroke-width="3"/>
<path d="M39.6667 47.6719H13.6667" stroke="#0871F3" stroke-width="3" stroke-linecap="round"/>
</svg>
