<svg width="24" height="24" viewBox="0 0 24 24" fill="none" xmlns="http://www.w3.org/2000/svg">
<g id="Header/ico_home_24_bk">
<path id="Vector" d="M10.55 2.53149C10.9558 2.18951 11.4693 2.00195 12 2.00195C12.5307 2.00195 13.0442 2.18951 13.45 2.53149L20.2 8.22349C20.707 8.65149 21 9.28049 21 9.94349V19.2535C21 19.7176 20.8156 20.1627 20.4874 20.4909C20.1592 20.8191 19.7141 21.0035 19.25 21.0035H15.75C15.2859 21.0035 14.8408 20.8191 14.5126 20.4909C14.1844 20.1627 14 19.7176 14 19.2535V14.2465C14 14.1802 13.9737 14.1166 13.9268 14.0697C13.8799 14.0228 13.8163 13.9965 13.75 13.9965H10.25C10.1837 13.9965 10.1201 14.0228 10.0732 14.0697C10.0263 14.1166 10 14.1802 10 14.2465V19.2535C10 19.7176 9.81563 20.1627 9.48744 20.4909C9.15925 20.8191 8.71413 21.0035 8.25 21.0035H4.75C4.52019 21.0035 4.29262 20.9582 4.0803 20.8703C3.86798 20.7823 3.67507 20.6534 3.51256 20.4909C3.35006 20.3284 3.22116 20.1355 3.13321 19.9232C3.04527 19.7109 3 19.4833 3 19.2535V9.94349C3 9.28049 3.293 8.65149 3.8 8.22349L10.55 2.53149ZM12.483 3.67849C12.3478 3.56467 12.1767 3.50226 12 3.50226C11.8233 3.50226 11.6522 3.56467 11.517 3.67849L4.767 9.36949C4.68347 9.4398 4.6163 9.52751 4.57018 9.62648C4.52406 9.72545 4.50011 9.8333 4.5 9.94249V19.2525C4.5 19.3905 4.612 19.5025 4.75 19.5025H8.25C8.3163 19.5025 8.37989 19.4762 8.42678 19.4293C8.47366 19.3824 8.5 19.3188 8.5 19.2525V14.2455C8.5 13.2785 9.284 12.4955 10.25 12.4955H13.75C14.716 12.4955 15.5 13.2785 15.5 14.2455V19.2525C15.5 19.3905 15.612 19.5025 15.75 19.5025H19.25C19.3163 19.5025 19.3799 19.4762 19.4268 19.4293C19.4737 19.3824 19.5 19.3188 19.5 19.2525V9.94249C19.4999 9.8333 19.4759 9.72545 19.4298 9.62648C19.3837 9.52751 19.3165 9.4398 19.233 9.36949L12.483 3.67849Z" fill="#222236" fill-opacity="0.88"/>
</g>
</svg>
