<svg width="24" height="24" viewBox="0 0 24 24" fill="none" xmlns="http://www.w3.org/2000/svg">
<path d="M10.7999 21.6003H4.79989C3.47441 21.6003 2.39989 20.5258 2.3999 19.2003L2.4 4.80038C2.4 3.4749 3.47452 2.40039 4.79999 2.40039H15.6003C16.9257 2.40039 18.0003 3.47491 18.0003 4.80039V9.60039M17.3999 17.3494V17.2862M6.60028 7.20039H13.8003M6.60028 10.8004H13.8003M6.60028 14.4004H10.2003M21.5999 17.4004C21.5999 17.4004 20.6037 20.3401 17.3999 20.2887C14.1961 20.2374 13.1999 17.4004 13.1999 17.4004C13.1999 17.4004 14.1557 14.4094 17.3999 14.4094C20.6441 14.4094 21.5999 17.4004 21.5999 17.4004Z" stroke="#B0B0B0" stroke-width="1.5" stroke-linecap="round" stroke-linejoin="round"/>
</svg>
