<svg width="24" height="24" viewBox="0 0 24 24" fill="none" xmlns="http://www.w3.org/2000/svg">
<g id="solar:calendar-linear">
<g id="Group">
<path id="Vector" d="M2.4978 12.002C2.4978 8.23095 2.4978 6.34495 3.6698 5.17395C4.8418 4.00295 6.7268 4.00195 10.4978 4.00195H14.4978C18.2688 4.00195 20.1548 4.00195 21.3258 5.17395C22.4968 6.34595 22.4978 8.23095 22.4978 12.002V14.002C22.4978 17.773 22.4978 19.659 21.3258 20.83C20.1538 22.001 18.2688 22.002 14.4978 22.002H10.4978C6.7268 22.002 4.8408 22.002 3.6698 20.83C2.4988 19.658 2.4978 17.773 2.4978 14.002V12.002Z" stroke="#0C0C0D" stroke-opacity="0.88" stroke-width="1.75"/>
<path id="Vector_2" d="M7.4978 4.00195V2.50195M17.4978 4.00195V2.50195M2.9978 9.00195H21.9978" stroke="#0C0C0D" stroke-opacity="0.88" stroke-width="1.75" stroke-linecap="round"/>
<path id="Vector_3" d="M18.4978 17.002C18.4978 17.2672 18.3924 17.5215 18.2049 17.7091C18.0174 17.8966 17.763 18.002 17.4978 18.002C17.2326 18.002 16.9782 17.8966 16.7907 17.7091C16.6032 17.5215 16.4978 17.2672 16.4978 17.002C16.4978 16.7367 16.6032 16.4824 16.7907 16.2948C16.9782 16.1073 17.2326 16.002 17.4978 16.002C17.763 16.002 18.0174 16.1073 18.2049 16.2948C18.3924 16.4824 18.4978 16.7367 18.4978 17.002ZM18.4978 13.002C18.4978 13.2672 18.3924 13.5215 18.2049 13.7091C18.0174 13.8966 17.763 14.002 17.4978 14.002C17.2326 14.002 16.9782 13.8966 16.7907 13.7091C16.6032 13.5215 16.4978 13.2672 16.4978 13.002C16.4978 12.7367 16.6032 12.4824 16.7907 12.2948C16.9782 12.1073 17.2326 12.002 17.4978 12.002C17.763 12.002 18.0174 12.1073 18.2049 12.2948C18.3924 12.4824 18.4978 12.7367 18.4978 13.002ZM13.4978 17.002C13.4978 17.2672 13.3924 17.5215 13.2049 17.7091C13.0174 17.8966 12.763 18.002 12.4978 18.002C12.2326 18.002 11.9782 17.8966 11.7907 17.7091C11.6032 17.5215 11.4978 17.2672 11.4978 17.002C11.4978 16.7367 11.6032 16.4824 11.7907 16.2948C11.9782 16.1073 12.2326 16.002 12.4978 16.002C12.763 16.002 13.0174 16.1073 13.2049 16.2948C13.3924 16.4824 13.4978 16.7367 13.4978 17.002ZM13.4978 13.002C13.4978 13.2672 13.3924 13.5215 13.2049 13.7091C13.0174 13.8966 12.763 14.002 12.4978 14.002C12.2326 14.002 11.9782 13.8966 11.7907 13.7091C11.6032 13.5215 11.4978 13.2672 11.4978 13.002C11.4978 12.7367 11.6032 12.4824 11.7907 12.2948C11.9782 12.1073 12.2326 12.002 12.4978 12.002C12.763 12.002 13.0174 12.1073 13.2049 12.2948C13.3924 12.4824 13.4978 12.7367 13.4978 13.002ZM8.4978 17.002C8.4978 17.2672 8.39245 17.5215 8.20491 17.7091C8.01737 17.8966 7.76302 18.002 7.4978 18.002C7.23259 18.002 6.97823 17.8966 6.7907 17.7091C6.60316 17.5215 6.4978 17.2672 6.4978 17.002C6.4978 16.7367 6.60316 16.4824 6.7907 16.2948C6.97823 16.1073 7.23259 16.002 7.4978 16.002C7.76302 16.002 8.01737 16.1073 8.20491 16.2948C8.39245 16.4824 8.4978 16.7367 8.4978 17.002ZM8.4978 13.002C8.4978 13.2672 8.39245 13.5215 8.20491 13.7091C8.01737 13.8966 7.76302 14.002 7.4978 14.002C7.23259 14.002 6.97823 13.8966 6.7907 13.7091C6.60316 13.5215 6.4978 13.2672 6.4978 13.002C6.4978 12.7367 6.60316 12.4824 6.7907 12.2948C6.97823 12.1073 7.23259 12.002 7.4978 12.002C7.76302 12.002 8.01737 12.1073 8.20491 12.2948C8.39245 12.4824 8.4978 12.7367 8.4978 13.002Z" fill="#0C0C0D" fill-opacity="0.88"/>
</g>
</g>
</svg>
