<svg width="16" height="17" viewBox="0 0 16 17" fill="none" xmlns="http://www.w3.org/2000/svg">
<rect y="0.5" width="16" height="16" rx="2" fill="#AEB1C0"/>
<path fill-rule="evenodd" clip-rule="evenodd" d="M6 4.5C5.44772 4.5 5 4.94772 5 5.5V11.5C5 12.0523 5.44772 12.5 6 12.5C6.55228 12.5 7 12.0523 7 11.5V5.5C7 4.94772 6.55228 4.5 6 4.5ZM10 4.5C9.44772 4.5 9 4.94772 9 5.5V11.5C9 12.0523 9.44772 12.5 10 12.5C10.5523 12.5 11 12.0523 11 11.5V5.5C11 4.94772 10.5523 4.5 10 4.5Z" fill="white"/>
</svg>
