<svg width="32" height="32" viewBox="0 0 32 32" fill="none" xmlns="http://www.w3.org/2000/svg">
<path fill-rule="evenodd" clip-rule="evenodd" d="M7.34747 9.55454C5.22932 12.7392 5.64268 16.9221 8.34574 19.6564C11.0053 22.3525 15.2838 22.7742 18.4458 20.6519C19.1104 20.2072 19.7029 19.6682 20.2034 19.0529C20.6955 18.448 21.0956 17.7775 21.3915 17.062C21.9986 15.5923 22.1556 13.9834 21.8437 12.4289C21.5367 10.8888 20.7747 9.46912 19.6509 8.34339C18.5441 7.23078 17.1186 6.4677 15.5597 6.15337C14.0071 5.84492 12.3946 6.00408 10.9374 6.60962C9.46634 7.22258 8.21651 8.24784 7.34747 9.55454Z" stroke="white" stroke-width="2" stroke-linecap="round" stroke-linejoin="round"/>
<path d="M21.65 19.2401C21.2304 18.8811 20.5991 18.9303 20.2401 19.35C19.8811 19.7696 19.9303 20.4009 20.35 20.7599L21.65 19.2401ZM26.35 25.8926C26.7696 26.2516 27.4009 26.2024 27.7599 25.7827C28.1189 25.363 28.0697 24.7318 27.65 24.3728L26.35 25.8926ZM20.35 20.7599L26.35 25.8926L27.65 24.3728L21.65 19.2401L20.35 20.7599Z" fill="white"/>
</svg>
