<svg width="77" height="18" viewBox="0 0 77 18" fill="none" xmlns="http://www.w3.org/2000/svg">
<g id="&#235;&#160;&#136;&#236;&#157;&#180;&#236;&#150;&#180; 1">
<g id="Group">
<path id="Vector" d="M18.381 9C18.381 13.9714 14.2672 18 9.1905 18C4.11384 18 0 13.9714 0 9C0 4.02857 4.11384 0 9.1905 0C14.2672 0 18.381 4.02857 18.381 9Z" fill="white"/>
<path id="Vector_2" d="M9.20507 17.5714C14.0337 17.5714 17.9579 13.7286 17.9579 9.00002C17.9579 4.27145 14.0337 0.428589 9.20507 0.428589C4.37641 0.428589 0.437622 4.27145 0.437622 9.00002C0.437622 13.7286 4.36182 17.5714 9.19048 17.5714" fill="#007BC7"/>
<g id="Clip path group">
<mask id="mask0_6713_1482" style="mask-type:luminance" maskUnits="userSpaceOnUse" x="0" y="0" width="18" height="18">
<g id="clippath">
<path id="Vector_3" d="M0.437622 9.00002C0.437622 13.7286 4.36182 17.5714 9.19048 17.5714C14.0191 17.5714 17.9433 13.7286 17.9433 9.00002C17.9433 4.27145 14.0337 0.428589 9.20507 0.428589C4.37641 0.428589 0.437622 4.27145 0.437622 9.00002Z" fill="white"/>
</g>
</mask>
<g mask="url(#mask0_6713_1482)">
<g id="Group_2">
<path id="Vector_4" d="M9.27803 13.1429C13.1293 13.1429 16.4262 14.2 17.8412 15.6858C18.3081 14.6286 18.5707 13.4429 18.5707 12.2143C18.5707 7.28576 14.413 3.31433 9.27803 3.31433C4.14302 3.31433 0 7.30005 0 12.2143C0 13.4429 0.262586 14.6143 0.729405 15.6858C2.14445 14.2 5.44136 13.1429 9.29262 13.1429" fill="#007BC7"/>
<path id="Vector_5" d="M9.27803 13.1429C13.1147 13.1429 16.397 14.1857 17.8121 15.6715C18.2789 14.6143 18.5415 13.4572 18.5415 12.2286C18.5415 7.34289 14.3839 3.38574 9.27803 3.38574C4.1722 3.38574 0 7.34289 0 12.2286C0 13.4429 0.262586 14.6143 0.729405 15.6715C2.14445 14.1857 5.42677 13.1429 9.26344 13.1429" fill="#007DC8"/>
<path id="Vector_6" d="M9.27791 13.1572C13.1146 13.1572 16.3823 14.2 17.7974 15.6572C18.2642 14.6143 18.5268 13.4572 18.5268 12.2429C18.5268 7.40001 14.3837 3.45715 9.27791 3.45715C4.17207 3.45715 0.0290527 7.40001 0.0290527 12.2429C0.0290527 13.4572 0.291639 14.6 0.758458 15.6572C2.15892 14.1857 5.44124 13.1572 9.26332 13.1572" fill="#007FCA"/>
<path id="Vector_7" d="M9.27803 13.1714C13.1001 13.1714 16.3678 14.2 17.7683 15.6571C18.2351 14.6286 18.4831 13.4714 18.4831 12.2714C18.4831 7.47142 14.3547 3.54285 9.26344 3.54285C4.17219 3.54285 0.0583496 7.45713 0.0583496 12.2714C0.0583496 13.4714 0.320935 14.6143 0.787755 15.6571C2.18821 14.2 5.45595 13.1714 9.27803 13.1714Z" fill="#0080CB"/>
<path id="Vector_8" d="M9.27797 13.1715C13.0855 13.1715 16.3532 14.1858 17.7537 15.6287C18.2205 14.6001 18.4685 13.4572 18.4685 12.2715C18.4685 7.51438 14.3546 3.6001 9.27797 3.6001C4.20131 3.6001 0.072876 7.51438 0.072876 12.2858C0.072876 13.4715 0.335462 14.6144 0.802281 15.643C2.20274 14.2001 5.47047 13.1858 9.26338 13.1858" fill="#0082CC"/>
<path id="Vector_9" d="M9.2635 13.1858C13.071 13.1858 16.3096 14.2001 17.71 15.6286C18.1768 14.6144 18.4248 13.4858 18.4248 12.3001C18.4248 7.5715 14.311 3.70007 9.24891 3.70007C4.18684 3.70007 0.102173 7.5715 0.102173 12.3001C0.102173 13.4858 0.364759 14.6144 0.831578 15.6286C2.23204 14.2001 5.48518 13.1858 9.27809 13.1858" fill="#0084CD"/>
<path id="Vector_10" d="M9.2635 13.2001C13.0564 13.2001 16.295 14.2001 17.6954 15.6143C18.1622 14.6001 18.4102 13.4858 18.4102 12.3143C18.4102 7.62863 14.311 3.77148 9.2635 3.77148C4.21602 3.77148 0.131348 7.62863 0.131348 12.3143C0.131348 13.4858 0.393933 14.6001 0.846165 15.6143C2.23203 14.2001 5.48518 13.2001 9.2635 13.2001Z" fill="#0086CF"/>
<path id="Vector_11" d="M9.26344 13.2C13.0418 13.2 16.2803 14.2 17.6662 15.6C18.133 14.6 18.381 13.4858 18.381 12.3286C18.381 7.68575 14.2963 3.8429 9.24885 3.8429C4.20137 3.8429 0.145874 7.68575 0.145874 12.3286C0.145874 13.4858 0.40846 14.6 0.860691 15.6C2.24656 14.2 5.48512 13.2 9.26344 13.2Z" fill="#0088D0"/>
<path id="Vector_12" d="M9.26344 13.2143C13.0418 13.2143 16.2657 14.2 17.6516 15.6C18.1184 14.6143 18.3664 13.5 18.3664 12.3572C18.3664 7.75716 14.2963 3.92859 9.26344 3.92859C4.23054 3.92859 0.175049 7.74287 0.175049 12.3429C0.175049 13.5 0.437635 14.5857 0.889866 15.5857C2.27574 14.1857 5.49971 13.2 9.26344 13.2" fill="#008AD1"/>
<path id="Vector_13" d="M9.2635 13.2286C13.0272 13.2286 16.2512 14.2 17.6225 15.5857C18.0893 14.6 18.3373 13.5143 18.3373 12.3714C18.3373 7.8 14.2672 4 9.2635 4C4.25978 4 0.189697 7.8 0.189697 12.3714C0.189697 13.5143 0.452283 14.6 0.904514 15.5857C2.29038 14.2 5.49977 13.2286 9.2635 13.2286Z" fill="#008CD3"/>
<path id="Vector_14" d="M9.26337 13.2286C13.0125 13.2286 16.2219 14.2 17.6078 15.5714C18.06 14.6 18.3226 13.5143 18.3226 12.3857C18.3226 7.85713 14.2671 4.07141 9.26337 4.07141C4.25965 4.07141 0.21875 7.85713 0.21875 12.3857C0.21875 13.5143 0.481336 14.6 0.933567 15.5714C2.30485 14.2 5.52882 13.2286 9.26337 13.2286Z" fill="#008ED4"/>
<path id="Vector_15" d="M9.26343 13.2428C13.0126 13.2428 16.2074 14.2 17.5786 15.5571C18.0309 14.5857 18.2935 13.5143 18.2935 12.4C18.2935 7.91425 14.2526 4.14282 9.26343 4.14282C4.2743 4.14282 0.233398 7.91425 0.233398 12.4C0.233398 13.5285 0.495984 14.6 0.948215 15.5571C2.3195 14.2 5.52888 13.2428 9.26343 13.2428Z" fill="#0090D5"/>
<path id="Vector_16" d="M9.26343 13.2572C12.998 13.2572 16.1928 14.2144 17.5641 15.5572C18.0163 14.6001 18.2789 13.5286 18.2789 12.4286C18.2789 7.98578 14.2526 4.22864 9.27802 4.22864C4.30348 4.22864 0.262573 7.97149 0.262573 12.4144C0.262573 13.5286 0.525159 14.5858 0.97739 15.5429C2.34867 14.2001 5.54347 13.2429 9.26343 13.2429" fill="#0092D7"/>
<path id="Vector_17" d="M9.26337 13.2572C12.9833 13.2572 16.1781 14.2 17.5348 15.5286C17.9871 14.5858 18.2496 13.5286 18.2496 12.4286C18.2496 8.02862 14.2233 4.30005 9.26337 4.30005C4.30342 4.30005 0.2771 8.02862 0.2771 12.4286C0.2771 13.5286 0.525097 14.5858 0.991917 15.5286C2.3632 14.2 5.5434 13.2572 9.26337 13.2572Z" fill="#0094D8"/>
<path id="Vector_18" d="M9.26349 13.2715C12.9689 13.2715 16.1491 14.2 17.5204 15.5286C17.9726 14.5857 18.2206 13.5429 18.2206 12.4572C18.2206 8.08574 14.2089 4.38574 9.26349 4.38574C4.31812 4.38574 0.306396 8.08574 0.306396 12.4429C0.306396 13.5286 0.554394 14.5857 1.02121 15.5143C2.37791 14.2 5.55811 13.2572 9.26349 13.2572" fill="#0097D9"/>
<path id="Vector_19" d="M9.26343 13.2857C12.9688 13.2857 16.1344 14.2143 17.4911 15.5143C17.9433 14.5857 18.1913 13.5429 18.1913 12.4572C18.1913 8.12859 14.1942 4.44287 9.24884 4.44287C4.30347 4.44287 0.320923 8.14287 0.320923 12.4714C0.320923 13.5572 0.568921 14.5857 1.02115 15.5143C2.37785 14.2 5.54346 13.2857 9.24884 13.2857" fill="#0099DB"/>
<path id="Vector_20" d="M9.26343 13.2857C12.9542 13.2857 16.1198 14.2 17.4765 15.5C17.9288 14.5714 18.1768 13.5429 18.1768 12.4714C18.1768 8.18571 14.1796 4.51428 9.26343 4.51428C4.34724 4.51428 0.350098 8.2 0.350098 12.4857C0.350098 13.5571 0.598095 14.5857 1.05033 15.5C2.40702 14.2 5.57264 13.2857 9.24884 13.2857" fill="#009BDC"/>
<path id="Vector_21" d="M9.24884 13.3C12.925 13.3 16.0907 14.2143 17.4328 15.5C17.885 14.5857 18.133 13.5714 18.133 12.5C18.133 8.25712 14.1504 4.59998 9.24884 4.59998C4.34724 4.59998 0.379272 8.25712 0.379272 12.5C0.379272 13.5571 0.62727 14.5857 1.0795 15.5C2.43619 14.2143 5.58722 13.3 9.26343 13.3" fill="#009DDD"/>
<path id="Vector_22" d="M9.24878 13.3142C12.925 13.3142 16.0614 14.2142 17.4181 15.4857C17.8703 14.5857 18.1183 13.5714 18.1183 12.5142C18.1183 8.29996 14.1504 4.67139 9.24878 4.67139C4.34718 4.67139 0.393799 8.31424 0.393799 12.5142C0.393799 13.5714 0.641797 14.5714 1.09403 15.4857C2.43613 14.2142 5.58716 13.3142 9.24878 13.3142Z" fill="#009FDF"/>
<path id="Vector_23" d="M9.2489 13.3143C12.9105 13.3143 16.047 14.2001 17.3891 15.4715C17.8413 14.5715 18.0893 13.5715 18.0893 12.5286C18.0893 8.3572 14.1359 4.7572 9.2489 4.7572C4.36188 4.7572 0.423096 8.37149 0.423096 12.5286C0.423096 13.5715 0.671093 14.5715 1.12332 15.4715C2.46543 14.2143 5.60187 13.3143 9.26348 13.3143" fill="#00A2E0"/>
<path id="Vector_24" d="M9.24884 13.3286C12.8959 13.3286 16.0323 14.2143 17.3744 15.4572C17.8266 14.5715 18.0746 13.5715 18.0746 12.5429C18.0746 8.41433 14.1213 4.82861 9.26342 4.82861C4.40559 4.82861 0.437622 8.42861 0.437622 12.5429C0.437622 13.5715 0.68562 14.5715 1.13785 15.4572C2.47996 14.2 5.6164 13.3286 9.24884 13.3286Z" fill="#00A4E1"/>
<path id="Vector_25" d="M9.24883 13.3429C12.8959 13.3429 16.0177 14.2143 17.3452 15.4572C17.7975 14.5714 18.0455 13.6 18.0455 12.5714C18.0455 8.48574 14.1067 4.91431 9.24883 4.91431C4.391 4.91431 0.466797 8.47145 0.466797 12.5714C0.466797 13.6 0.714795 14.5714 1.16703 15.4572C2.50913 14.2143 5.63098 13.3429 9.26342 13.3429" fill="#00A6E3"/>
<path id="Vector_26" d="M9.24889 13.3429C12.8813 13.3429 15.9886 14.2143 17.3307 15.4286C17.7829 14.5571 18.0309 13.5857 18.0309 12.5714C18.0309 8.52858 14.1067 4.97144 9.26348 4.97144C4.42023 4.97144 0.481445 8.52858 0.481445 12.5857C0.481445 13.6 0.729443 14.5714 1.18167 15.4429C2.50919 14.2143 5.63105 13.3572 9.24889 13.3572" fill="#00A8E4"/>
<path id="Vector_27" d="M9.24889 13.3571C12.8667 13.3571 15.974 14.2143 17.3015 15.4286C17.7538 14.5714 17.9872 13.6 17.9872 12.6C17.9872 8.5857 14.0776 5.05713 9.2343 5.05713C4.39105 5.05713 0.51062 8.5857 0.51062 12.6C0.51062 13.6 0.758618 14.5714 1.19626 15.4286C2.52378 14.2143 5.63104 13.3571 9.24889 13.3571Z" fill="#00ABE6"/>
<path id="Vector_28" d="M9.24883 13.3714C12.8667 13.3714 15.9594 14.2143 17.2869 15.4143C17.7391 14.5571 17.9725 13.6143 17.9725 12.6143C17.9725 8.64283 14.0629 5.12854 9.24883 5.12854C4.43476 5.12854 0.525146 8.64283 0.525146 12.6143C0.525146 13.6143 0.773144 14.5571 1.21079 15.4143C2.5383 14.2143 5.63098 13.3714 9.23424 13.3714" fill="#00ADE7"/>
<path id="Vector_29" d="M9.24895 13.3714C12.8522 13.3714 15.9449 14.2142 17.2578 15.3999C17.7101 14.5571 17.9435 13.6142 17.9435 12.6285C17.9435 8.69995 14.0484 5.21423 9.24895 5.21423C4.44947 5.21423 0.554443 8.69995 0.554443 12.6285C0.554443 13.6142 0.802441 14.5571 1.24008 15.3999C2.5676 14.2142 5.64569 13.3714 9.24895 13.3714Z" fill="#00B0E8"/>
<path id="Vector_30" d="M9.24889 13.3858C12.8376 13.3858 15.9156 14.2143 17.2432 15.4C17.6808 14.5572 17.9288 13.6286 17.9288 12.6572C17.9288 8.77148 14.0484 5.30005 9.24889 5.30005C4.4494 5.30005 0.56897 8.75719 0.56897 12.6429C0.56897 13.6143 0.816967 14.5572 1.25461 15.3858C2.56754 14.2143 5.64563 13.3715 9.2343 13.3715" fill="#00B2EA"/>
<path id="Vector_31" d="M9.24877 13.4C12.8374 13.4 15.9009 14.2143 17.2139 15.3857C17.6515 14.5572 17.8995 13.6286 17.8995 12.6715C17.8995 8.81432 14.0191 5.37146 9.24877 5.37146C4.47846 5.37146 0.598022 8.81432 0.598022 12.6715C0.598022 13.6429 0.84602 14.5572 1.28366 15.3857C2.59659 14.2143 5.67468 13.4 9.24877 13.4Z" fill="#10B5EB"/>
<path id="Vector_32" d="M9.24889 13.4C12.823 13.4 15.8865 14.2143 17.1994 15.3714C17.637 14.5572 17.885 13.6429 17.885 12.6857C17.885 8.87144 14.0192 5.44287 9.26348 5.44287C4.50775 5.44287 0.627319 8.87144 0.627319 12.6857C0.627319 13.6429 0.875317 14.5572 1.31296 15.3714C2.62589 14.2143 5.68939 13.4 9.24889 13.4Z" fill="#1DB7EC"/>
<path id="Vector_33" d="M9.23424 13.4143C12.7937 13.4143 15.8572 14.2143 17.1556 15.3571C17.5932 14.5429 17.8412 13.6429 17.8412 12.7C17.8412 8.92857 13.99 5.51428 9.23424 5.51428C4.47852 5.51428 0.641846 8.92857 0.641846 12.7C0.641846 13.6429 0.889843 14.5571 1.32749 15.3571C2.64042 14.2143 5.68933 13.4143 9.24883 13.4143" fill="#26BAEE"/>
<path id="Vector_34" d="M9.23424 13.4285C12.7937 13.4285 15.8281 14.2285 17.141 15.3571C17.5786 14.5571 17.8266 13.6571 17.8266 12.7285C17.8266 8.99998 13.99 5.59998 9.24882 5.59998C4.50769 5.59998 0.671021 8.98569 0.671021 12.7143C0.671021 13.6428 0.919018 14.5428 1.35666 15.3428C2.655 14.2143 5.70392 13.4143 9.24882 13.4143" fill="#2FBCEF"/>
<path id="Vector_35" d="M9.2343 13.4285C12.7792 13.4285 15.8135 14.2142 17.1119 15.3285C17.5495 14.5428 17.7975 13.6428 17.7975 12.7285C17.7975 9.02853 13.9608 5.6571 9.2343 5.6571C4.50775 5.6571 0.685669 9.04282 0.685669 12.7285C0.685669 13.6571 0.919079 14.5428 1.35672 15.3285C2.65506 14.2142 5.68939 13.4285 9.2343 13.4285Z" fill="#37BEF0"/>
<path id="Vector_36" d="M9.23423 13.4571C12.7791 13.4571 15.7989 14.2428 17.0972 15.3571C17.5349 14.5714 17.7683 13.6857 17.7683 12.7714C17.7683 9.09994 13.9462 5.7428 9.21965 5.7428C4.4931 5.7428 0.700195 9.08566 0.700195 12.7571C0.700195 13.6857 0.948193 14.5571 1.37125 15.3428C2.66959 14.2285 5.70391 13.4428 9.23423 13.4428" fill="#45C0F0"/>
<path id="Vector_37" d="M9.2343 13.4714C12.7646 13.4714 15.7989 14.2428 17.0973 15.3571C17.5349 14.5714 17.7683 13.6999 17.7683 12.7856C17.7683 9.14278 13.9463 5.81421 9.2343 5.81421C4.52234 5.81421 0.714844 9.14278 0.714844 12.7856C0.714844 13.6999 0.948253 14.5714 1.3859 15.3571C2.68424 14.2571 5.70397 13.4714 9.2343 13.4714Z" fill="#50C2F1"/>
<path id="Vector_38" d="M9.23423 13.5C12.7646 13.5 15.7843 14.2715 17.0826 15.3715C17.5203 14.6 17.7537 13.7286 17.7537 12.8143C17.7537 9.20003 13.9316 5.87146 9.23423 5.87146C4.53686 5.87146 0.72937 9.18575 0.72937 12.8143C0.72937 13.7286 0.977368 14.5857 1.40042 15.3715C2.69876 14.2715 5.7185 13.5 9.24882 13.5" fill="#5BC4F1"/>
<path id="Vector_39" d="M9.23423 13.5286C12.7646 13.5286 15.7843 14.3 17.068 15.3857C17.5057 14.6143 17.7391 13.7429 17.7391 12.8429C17.7391 9.24287 13.9316 5.95715 9.23423 5.95715C4.53686 5.95715 0.72937 9.24287 0.72937 12.8429C0.72937 13.7429 0.96278 14.6143 1.40042 15.3857C2.69876 14.3 5.7185 13.5286 9.23423 13.5286Z" fill="#64C7F2"/>
<path id="Vector_40" d="M9.23429 13.5428C12.75 13.5428 15.7698 14.3 17.0535 15.3857C17.4912 14.6143 17.7246 13.7571 17.7246 12.8714C17.7246 9.29999 13.9171 6.02856 9.21971 6.02856C4.52234 6.02856 0.744019 9.29999 0.744019 12.8714C0.744019 13.7714 0.977428 14.6286 1.41507 15.3857C2.69882 14.3 5.71856 13.5428 9.23429 13.5428Z" fill="#6DC9F3"/>
<path id="Vector_41" d="M9.23423 13.5714C12.75 13.5714 15.7551 14.3285 17.0535 15.4C17.4911 14.6428 17.7245 13.7857 17.7245 12.9C17.7245 9.34283 13.9316 6.09998 9.23423 6.09998C4.53686 6.09998 0.758545 9.34283 0.758545 12.8857C0.758545 13.7714 0.991955 14.6285 1.4296 15.3857C2.71335 14.3143 5.73309 13.5571 9.23423 13.5571" fill="#75CBF3"/>
<path id="Vector_42" d="M9.23429 13.5857C12.75 13.5857 15.7552 14.3428 17.0389 15.4C17.4766 14.6428 17.71 13.8 17.71 12.9142C17.71 9.38568 13.9171 6.1571 9.23429 6.1571C4.55151 6.1571 0.773193 9.39996 0.773193 12.9142C0.773193 13.8 1.0066 14.6428 1.44425 15.4C2.728 14.3285 5.74774 13.5857 9.24888 13.5857" fill="#7DCDF4"/>
<path id="Vector_43" d="M9.23423 13.6142C12.7354 13.6142 15.7405 14.3571 17.0243 15.4142C17.4619 14.6571 17.6953 13.8285 17.6953 12.9428C17.6953 9.4428 13.9024 6.22852 9.23423 6.22852C4.56604 6.22852 0.78772 9.4428 0.78772 12.9428C0.78772 13.8285 1.02113 14.6571 1.45877 15.4142C2.74253 14.3571 5.74767 13.6142 9.24882 13.6142" fill="#84D0F4"/>
<path id="Vector_44" d="M9.23423 13.6285C12.7354 13.6285 15.7405 14.3714 17.0097 15.4285C17.4473 14.6856 17.6807 13.8428 17.6807 12.9714C17.6807 9.49993 13.9024 6.29993 9.23423 6.29993C4.56604 6.29993 0.78772 9.49993 0.78772 12.9714C0.78772 13.8428 1.02113 14.6714 1.45877 15.4285C2.74253 14.3714 5.74767 13.6285 9.23423 13.6285Z" fill="#8BD2F5"/>
<path id="Vector_45" d="M9.23429 13.6571C12.7354 13.6571 15.726 14.3999 17.0097 15.4428C17.4474 14.6999 17.6808 13.8713 17.6808 12.9999C17.6808 9.54277 13.9025 6.37134 9.23429 6.37134C4.5661 6.37134 0.802368 9.54277 0.802368 12.9999C0.802368 13.8713 1.03578 14.6999 1.47342 15.4428C2.75717 14.3999 5.74773 13.6571 9.23429 13.6571Z" fill="#92D4F5"/>
<path id="Vector_46" d="M9.23435 13.6714C12.7209 13.6714 15.7115 14.4 16.9952 15.4429C17.4329 14.7 17.6663 13.8857 17.6663 13.0286C17.6663 9.60001 13.888 6.44287 9.23435 6.44287C4.58075 6.44287 0.817017 9.60001 0.817017 13.0286C0.817017 13.8857 1.05043 14.7143 1.48807 15.4572C2.77182 14.4143 5.76238 13.6857 9.24894 13.6857" fill="#99D7F6"/>
<path id="Vector_47" d="M9.23429 13.7001C12.7208 13.7001 15.7114 14.4287 16.9806 15.4573C17.4036 14.7287 17.6516 13.9144 17.6516 13.0573C17.6516 9.64298 13.8879 6.5144 9.23429 6.5144C4.58068 6.5144 0.831543 9.64298 0.831543 13.0573C0.831543 13.9144 1.06495 14.7287 1.5026 15.4573C2.78635 14.4287 5.77691 13.7001 9.24888 13.7001" fill="#9FD9F7"/>
<path id="Vector_48" d="M9.23423 13.7144C12.7208 13.7144 15.6968 14.443 16.9659 15.4572C17.389 14.7287 17.637 13.9144 17.637 13.0715C17.637 9.68582 13.8732 6.57153 9.23423 6.57153C4.59521 6.57153 0.846069 9.7001 0.846069 13.0715C0.846069 13.9287 1.07948 14.7287 1.51712 15.4572C2.78629 14.4287 5.77685 13.7144 9.24882 13.7144" fill="#A5DBF7"/>
<path id="Vector_49" d="M9.23423 13.7428C12.7062 13.7428 15.6968 14.4571 16.9659 15.4714C17.389 14.7428 17.637 13.9428 17.637 13.1C17.637 9.74282 13.8732 6.64282 9.24882 6.64282C4.62439 6.64282 0.846069 9.74282 0.846069 13.1C0.846069 13.9428 1.07948 14.7428 1.50253 15.4714C2.7717 14.4571 5.76226 13.7428 9.23423 13.7428Z" fill="#ABDDF8"/>
<path id="Vector_50" d="M9.23416 13.7572C12.7061 13.7572 15.6821 14.4715 16.9513 15.4715C17.3743 14.7572 17.6223 13.9572 17.6223 13.1286C17.6223 9.80007 13.8732 6.71436 9.23416 6.71436C4.59515 6.71436 0.860596 9.80007 0.860596 13.1286C0.860596 13.9715 1.09401 14.7572 1.51706 15.4858C2.78622 14.4715 5.7622 13.7715 9.23416 13.7715" fill="#B1DFF8"/>
<path id="Vector_51" d="M9.23435 13.7858C12.7063 13.7858 15.6677 14.4858 16.9369 15.5C17.3599 14.7858 17.6079 14 17.6079 13.1715C17.6079 9.85719 13.8588 6.80005 9.23435 6.80005C4.60992 6.80005 0.875366 9.84291 0.875366 13.1572C0.875366 13.9858 1.10878 14.7858 1.53183 15.4858C2.801 14.4858 5.77697 13.7715 9.23435 13.7715" fill="#B6E1F9"/>
<path id="Vector_52" d="M9.23429 13.8C12.6917 13.8 15.6676 14.5 16.9368 15.5C17.3599 14.8 17.5933 14.0143 17.5933 13.1857C17.5933 9.90003 13.8441 6.85718 9.23429 6.85718C4.62445 6.85718 0.889893 9.90003 0.889893 13.1857C0.889893 14.0143 1.1233 14.8 1.54636 15.5C2.81552 14.5 5.79149 13.8 9.23429 13.8Z" fill="#BCE4F9"/>
<path id="Vector_53" d="M9.23429 13.8285C12.6917 13.8285 15.6531 14.5285 16.9222 15.5142C17.3453 14.8142 17.5787 14.0285 17.5787 13.2142C17.5787 9.94275 13.8441 6.92847 9.23429 6.92847C4.62445 6.92847 0.889893 9.94275 0.889893 13.2142C0.889893 14.0285 1.1233 14.8142 1.54636 15.5142C2.81552 14.5285 5.77691 13.8285 9.23429 13.8285Z" fill="#C1E6FA"/>
<path id="Vector_54" d="M9.23422 13.843C12.6916 13.843 15.653 14.5287 16.9076 15.5144C17.3306 14.8144 17.564 14.043 17.564 13.2287C17.564 9.98584 13.8295 6.98584 9.23422 6.98584C4.63897 6.98584 0.904419 10.0001 0.904419 13.2287C0.904419 14.043 1.13783 14.8144 1.56088 15.5144C2.83005 14.5287 5.79143 13.843 9.23422 13.843Z" fill="#C7E8FA"/>
<path id="Vector_55" d="M9.23416 13.8715C12.677 13.8715 15.6383 14.5572 16.8929 15.5287C17.316 14.8287 17.5494 14.0715 17.5494 13.2715C17.5494 10.0572 13.8148 7.07153 9.21957 7.07153C4.62432 7.07153 0.918945 10.043 0.918945 13.2572C0.918945 14.0715 1.15236 14.8287 1.57541 15.5287C2.84457 14.5572 5.79137 13.8715 9.23416 13.8715Z" fill="#CCEAFB"/>
<path id="Vector_56" d="M9.23435 13.9001C12.6771 13.9001 15.6239 14.5858 16.8931 15.5429C17.3162 14.8572 17.5496 14.1001 17.5496 13.3001C17.5496 10.1001 13.8296 7.14294 9.23435 7.14294C4.63909 7.14294 0.933716 10.1001 0.933716 13.2858C0.933716 14.0858 1.16713 14.8429 1.59018 15.5287C2.85935 14.5572 5.80614 13.8858 9.24893 13.8858" fill="#D1ECFB"/>
<path id="Vector_57" d="M9.23428 13.9144C12.6771 13.9144 15.6239 14.5858 16.8784 15.5429C17.3015 14.8572 17.5349 14.1001 17.5349 13.3144C17.5349 10.1429 13.8149 7.20007 9.23428 7.20007C4.65362 7.20007 0.948242 10.1429 0.948242 13.3144C0.948242 14.1144 1.18165 14.8715 1.60471 15.5429C2.85928 14.5858 5.82067 13.9144 9.24887 13.9144" fill="#D6EEFB"/>
<path id="Vector_58" d="M9.23428 13.9429C12.6625 13.9429 15.6093 14.6143 16.8639 15.5572C17.2869 14.8858 17.5203 14.1286 17.5203 13.3429C17.5203 10.2001 13.8149 7.27148 9.23428 7.27148C4.65362 7.27148 0.948242 10.2001 0.948242 13.3429C0.948242 14.1286 1.18165 14.8858 1.60471 15.5572C2.85928 14.6001 5.80608 13.9429 9.23428 13.9286" fill="#DBF0FC"/>
<path id="Vector_59" d="M9.23422 13.9572C12.6624 13.9572 15.6092 14.6286 16.8492 15.5572C17.2723 14.8858 17.5057 14.1429 17.5057 13.3572C17.5057 10.2429 13.8003 7.32861 9.23422 7.32861C4.66815 7.32861 0.962769 10.2572 0.962769 13.3715C0.962769 14.1572 1.19618 14.9 1.61923 15.5715C2.87381 14.6286 5.82061 13.9715 9.23422 13.9572Z" fill="#E0F2FC"/>
<path id="Vector_60" d="M9.23428 13.9857C12.6625 13.9857 15.5947 14.6429 16.8493 15.5857C17.2723 14.9143 17.5057 14.1857 17.5057 13.4C17.5057 10.3 13.8004 7.41431 9.23428 7.41431C4.66821 7.41431 0.977417 10.3 0.977417 13.4C0.977417 14.1714 1.21083 14.9143 1.63388 15.5857C2.88846 14.6572 5.82067 13.9857 9.24887 13.9857" fill="#E5F4FD"/>
<path id="Vector_61" d="M9.23422 14C12.6478 14 15.58 14.6571 16.8346 15.5857C17.2577 14.9286 17.4911 14.2 17.4911 13.4286C17.4911 10.3571 13.7857 7.48572 9.23422 7.48572C4.68273 7.48572 0.991943 10.3571 0.991943 13.4143C0.991943 14.1857 1.22535 14.9143 1.64841 15.5857C2.90298 14.6571 5.83519 14 9.24881 14" fill="#E9F6FD"/>
<path id="Vector_62" d="M9.23428 14.0287C12.6479 14.0287 15.5801 14.6858 16.8201 15.6001C17.2431 14.943 17.4766 14.2144 17.4766 13.4573C17.4766 10.4144 13.7858 7.55725 9.23428 7.55725C4.68279 7.55725 1.00659 10.4001 1.00659 13.443C1.00659 14.2144 1.24 14.9287 1.66306 15.6001C2.91763 14.6715 5.84984 14.0287 9.24887 14.0287" fill="#EEF8FE"/>
<path id="Vector_63" d="M9.23428 14.043C12.6479 14.043 15.5655 14.6858 16.8055 15.6001C17.2286 14.943 17.462 14.2287 17.462 13.4715C17.462 10.443 13.7712 7.61438 9.23428 7.61438C4.69738 7.61438 1.00659 10.4572 1.00659 13.4715C1.00659 14.2287 1.24 14.943 1.66306 15.6001C2.90304 14.6858 5.83525 14.043 9.23428 14.043Z" fill="#F2FAFE"/>
<path id="Vector_64" d="M9.23434 14.0715C12.6334 14.0715 15.5656 14.7144 16.8056 15.6144C17.2286 14.9715 17.462 14.2572 17.462 13.5001C17.462 10.5001 13.7712 7.68579 9.24893 7.68579C4.72662 7.68579 1.02124 10.5001 1.02124 13.5001C1.02124 14.2572 1.25465 14.9715 1.66312 15.6144C2.90311 14.7144 5.83531 14.0715 9.23434 14.0715Z" fill="#F7FCFE"/>
<path id="Vector_65" d="M9.23428 14.0858C12.6333 14.0858 15.5509 14.7286 16.7909 15.6143C17.214 14.9715 17.4474 14.2715 17.4474 13.5143C17.4474 10.5429 13.7712 7.74292 9.23428 7.74292C4.69738 7.74292 1.03577 10.5572 1.03577 13.5286C1.03577 14.2858 1.26918 14.9858 1.67764 15.6286C2.91763 14.7286 5.83525 14.1001 9.23428 14.0858Z" fill="#FBFDFF"/>
<path id="Vector_66" d="M9.23422 14.1143C12.6332 14.1143 15.5363 14.7429 16.7763 15.6429C17.1993 15 17.4327 14.3 17.4327 13.5572C17.4327 10.6 13.7565 7.8429 9.23422 7.8429C4.71191 7.8429 1.05029 10.6 1.05029 13.5572C1.05029 14.3 1.2837 15 1.69217 15.6429C2.93216 14.7572 5.84978 14.1143 9.23422 14.1143Z" fill="white"/>
</g>
</g>
</g>
<path id="Vector_67" d="M9.20509 11.1714C6.22912 11.1714 3.47197 11.6714 1.21082 12.5C2.5821 15.5 5.6456 17.5857 9.21968 17.5857C12.7938 17.5857 15.8427 15.5 17.214 12.5C14.9382 11.6571 12.1811 11.1714 9.21968 11.1714" fill="#007BC7"/>
<path id="Vector_68" d="M20.7588 11.5714H26.5503V16.4428H28.8114V11.5714H34.6029V10.1857H20.7588V11.5714Z" fill="#0062AC"/>
<path id="Vector_69" d="M24.1433 7.88563C24.5955 8.22849 25.1207 8.49992 25.7334 8.69992C26.3315 8.89992 26.988 8.99992 27.6882 8.99992C28.3885 8.99992 29.0303 8.89992 29.6284 8.69992C30.2266 8.49992 30.7663 8.22849 31.2185 7.88563C31.6708 7.52849 32.0355 7.12849 32.2981 6.65706C32.5606 6.19992 32.6919 5.68563 32.6919 5.15706C32.6919 4.62849 32.5606 4.14278 32.2981 3.67135C32.0355 3.21421 31.6708 2.79992 31.2185 2.44278C30.7663 2.09992 30.2411 1.82849 29.643 1.62849C29.0449 1.42849 28.3885 1.32849 27.7028 1.32849C27.0172 1.32849 26.3461 1.42849 25.748 1.62849C25.1499 1.82849 24.6101 2.09992 24.1725 2.44278C23.7203 2.79992 23.3556 3.19992 23.093 3.67135C22.8304 4.12849 22.6991 4.62849 22.6991 5.15706C22.6991 5.68563 22.8304 6.18563 23.093 6.65706C23.3556 7.11421 23.7203 7.52849 24.1725 7.88563M24.9457 5.15706C24.9457 4.84278 25.0186 4.52849 25.1645 4.22849C25.3104 3.92849 25.5 3.67135 25.748 3.45706C25.996 3.22849 26.2878 3.04278 26.6087 2.91421C26.9442 2.78563 27.2943 2.71421 27.6736 2.71421C28.0529 2.71421 28.403 2.78563 28.724 2.91421C29.0449 3.04278 29.3513 3.22849 29.5847 3.45706C29.8327 3.67135 30.0223 3.94278 30.1828 4.24278C30.3287 4.54278 30.4016 4.85706 30.4016 5.17135C30.4016 5.48563 30.3287 5.82849 30.1828 6.11421C30.0369 6.41421 29.8327 6.67135 29.5847 6.89992C29.3367 7.12849 29.0449 7.31421 28.724 7.42849C28.0529 7.68563 27.2506 7.67135 26.6087 7.42849C26.2732 7.29992 25.996 7.12849 25.748 6.89992C25.5 6.68563 25.3104 6.41421 25.1645 6.12849C25.0186 5.82849 24.9457 5.51421 24.9457 5.18563" fill="#0062AC"/>
<path id="Vector_70" d="M46.9153 1.58569H45.1502L45.2523 1.71426C45.2523 1.71426 45.3252 1.82855 45.3398 1.88569C45.3836 2.09998 45.4127 2.42855 45.4127 2.87141V9.75712C45.4127 10.1857 45.1502 10.4714 44.625 10.6428C44.4499 10.7 44.1728 10.7285 43.808 10.7571H39.0086C38.7606 10.7571 38.673 10.7 38.6439 10.6714C38.5855 10.6 38.5709 10.5 38.5709 10.3571V7.61426H42.7139C42.9619 7.61426 43.137 7.57141 43.2245 7.47141C43.3121 7.37141 43.3704 7.22855 43.3704 7.02855V2.61426C43.3704 2.41426 43.3121 2.27141 43.2245 2.17141C43.1224 2.07141 42.9474 2.02855 42.6994 2.02855H36.2222V3.41426H41.1093V6.24284H36.0618L36.2076 6.54284C36.266 6.71426 36.2952 6.92855 36.2952 7.18569V11.1428C36.2952 11.3857 36.3827 11.6143 36.5578 11.7857C36.7912 12.0286 37.1851 12.1571 37.6956 12.1571H43.3558L44.2603 12.1285C44.8 12.0714 45.1793 11.9857 45.4127 11.8428V16.3143H47.6739V2.18569C47.6739 1.91426 47.5426 1.59998 46.9007 1.58569" fill="#0062AC"/>
<path id="Vector_71" d="M52.984 7.55706C53.407 7.88563 53.9176 8.14277 54.5011 8.34277C55.0701 8.52849 55.6973 8.62849 56.3538 8.62849C57.0103 8.62849 57.6084 8.52849 58.1919 8.34277C58.7608 8.15706 59.2714 7.88563 59.7091 7.55706C60.1467 7.22849 60.4822 6.84277 60.7448 6.39992C60.9928 5.95706 61.1241 5.48563 61.1241 4.98563C61.1241 4.48563 60.9928 4.0142 60.7448 3.57134C60.4968 3.12849 60.1467 2.74277 59.7091 2.4142C59.286 2.08563 58.7754 1.82849 58.1919 1.62849C57.623 1.44277 56.9957 1.34277 56.3538 1.34277C55.7119 1.34277 55.0846 1.44277 54.5011 1.62849C53.9176 1.8142 53.4216 2.08563 52.984 2.4142C52.5463 2.74277 52.2108 3.14277 51.9628 3.57134C51.7148 4.0142 51.5835 4.48563 51.5835 4.98563C51.5835 5.48563 51.7148 5.95706 51.9628 6.39992C52.2108 6.84277 52.5609 7.22849 52.984 7.55706ZM53.8592 4.97134C53.8592 4.67134 53.9176 4.38563 54.0489 4.09992C54.1802 3.82849 54.3552 3.58563 54.5741 3.37134C54.7929 3.17134 55.0701 3.0142 55.3764 2.88563C55.6828 2.75706 56.0037 2.69992 56.3392 2.69992C56.6747 2.69992 56.9957 2.75706 57.2874 2.88563C57.5792 3.0142 57.8418 3.17134 58.0752 3.37134C58.294 3.58563 58.4837 3.82849 58.615 4.09992C58.7463 4.37134 58.8192 4.67134 58.8192 4.97134C58.8192 5.27134 58.7463 5.58563 58.615 5.85706C58.4837 6.12849 58.3086 6.37135 58.0752 6.58563C57.8564 6.78563 57.5792 6.94277 57.2874 7.07134C56.7039 7.3142 55.9745 7.3142 55.3764 7.07134C55.0701 6.95706 54.8075 6.78563 54.5886 6.58563C54.3698 6.37135 54.1802 6.12849 54.0635 5.85706C53.9322 5.58563 53.8738 5.28563 53.8738 4.97134" fill="#0062AC"/>
<path id="Vector_72" d="M49.4245 11.0857H51.321C51.4814 11.0999 51.5835 11.1714 51.6565 11.2999C51.6857 11.3571 51.7148 11.4285 51.7148 11.5428C51.7148 11.6571 51.7148 11.7714 51.7148 11.8999V15.2999C51.744 15.5714 51.8315 15.7857 51.9774 15.9285C52.2108 16.1714 52.6047 16.2999 53.1153 16.2999H61.3867V14.9285H54.399C54.1656 14.9285 54.0781 14.8714 54.0489 14.8428C53.9906 14.7714 53.976 14.6714 53.976 14.5285V11.7142C53.976 11.5714 53.9468 11.4285 53.9031 11.2857C53.8739 11.2142 53.8447 11.1428 53.8009 11.0999H63.254V9.71423H49.4099V11.0999L49.4245 11.0857Z" fill="#0062AC"/>
<path id="Vector_73" d="M75.1288 11.0143C74.7057 10.7143 74.2097 10.4714 73.6554 10.3C73.1011 10.1143 72.5029 10.0286 71.8757 10.0286C71.2484 10.0286 70.6357 10.1143 70.0813 10.3C69.527 10.4857 69.031 10.7143 68.6079 11.0143C68.1849 11.3286 67.8493 11.6857 67.6159 12.1C67.3825 12.5143 67.2512 12.9571 67.2512 13.4C67.2512 13.8429 67.3679 14.3143 67.6159 14.7286C67.8493 15.1429 68.1849 15.5 68.6079 15.8143C69.031 16.1143 69.5124 16.3428 70.0813 16.5286C70.6357 16.7 71.2338 16.7857 71.8757 16.7857C72.5175 16.7857 73.1011 16.7 73.6554 16.5286C74.2097 16.3571 74.7057 16.1143 75.1288 15.8143C75.5519 15.5 75.8874 15.1429 76.1354 14.7286C76.3834 14.3143 76.5001 13.8714 76.5001 13.4C76.5001 12.9286 76.3688 12.5 76.1354 12.1C75.8874 11.6857 75.5519 11.3286 75.1288 11.0143ZM74.2389 13.4C74.2389 13.6714 74.1806 13.9429 74.0493 14.1714C73.918 14.4143 73.7429 14.6286 73.5387 14.8143C73.3199 14.9857 73.0719 15.1286 72.7947 15.2429C72.2258 15.4571 71.5255 15.4429 70.9712 15.2429C70.694 15.1429 70.446 15 70.2272 14.8143C70.0084 14.6286 69.8479 14.4143 69.7166 14.1714C69.5999 13.9429 69.5416 13.6714 69.5416 13.4C69.5416 13.1286 69.5999 12.8857 69.7166 12.6429C69.8333 12.4 70.0084 12.1857 70.2272 12C70.446 11.8286 70.694 11.6714 70.9712 11.5714C71.2484 11.4571 71.5547 11.4 71.8902 11.4C72.2258 11.4 72.5175 11.4571 72.7947 11.5714C73.0719 11.6857 73.3345 11.8286 73.5387 12C73.7575 12.1857 73.918 12.4 74.0493 12.6429C74.1806 12.8857 74.2389 13.1429 74.2389 13.4Z" fill="#0062AC"/>
<path id="Vector_74" d="M76.3687 1.72855C76.2812 1.64284 76.1061 1.58569 75.8581 1.58569H74.2534L74.341 1.71426C74.341 1.71426 74.4139 1.84284 74.4285 1.89998C74.4722 2.09998 74.5014 2.41426 74.5014 2.85712V4.47141H73.7866V2.15712C73.7866 1.95712 73.7428 1.81426 73.6553 1.72855C73.5678 1.64284 73.3927 1.58569 73.1301 1.58569H71.54L71.6276 1.71426C71.6276 1.71426 71.7005 1.84284 71.7151 1.89998C71.7734 2.09998 71.788 2.41426 71.788 2.85712V9.65712H73.7866V5.94284H74.5014V9.65712H76.5V2.15712C76.5 1.95712 76.4562 1.81426 76.3687 1.72855Z" fill="#0062AC"/>
<path id="Vector_75" d="M68.8558 9.59994C69.3081 9.42852 69.7019 9.17137 70.0375 8.87137C70.373 8.57137 70.6356 8.21423 70.8398 7.79994C71.0295 7.38566 71.1316 6.9428 71.1316 6.47137C71.1316 5.99994 71.0295 5.55709 70.8398 5.15709C70.6502 4.75709 70.3876 4.39994 70.0521 4.08566H71.3212V2.69994H68.5641V1.82852C68.5641 1.4428 68.3453 1.22852 67.9222 1.22852H65.982L66.157 1.37137C66.157 1.37137 66.2154 1.4428 66.23 1.47137C66.2738 1.59994 66.3029 1.79994 66.3029 2.07137V2.69994H63.5458V4.08566H64.8003C64.4648 4.38566 64.2022 4.75709 64.0272 5.15709C63.8375 5.57137 63.7354 6.01423 63.7354 6.47137C63.7354 6.92852 63.8375 7.38566 64.0272 7.79994C64.2168 8.21423 64.4794 8.57137 64.8149 8.87137C65.1505 9.18566 65.5443 9.42852 65.9966 9.59994C66.4488 9.77137 66.9302 9.85709 67.4408 9.85709C67.9514 9.85709 68.4182 9.77137 68.8704 9.59994M66.3467 5.07137C66.653 4.67137 67.0177 4.48566 67.4408 4.48566C67.8639 4.48566 68.214 4.67137 68.5349 5.07137C68.8413 5.47137 69.0017 5.95709 69.0017 6.48566C69.0017 7.01423 68.8413 7.51423 68.5349 7.91423C68.2286 8.29994 67.8639 8.49994 67.4408 8.49994C67.0177 8.49994 66.6676 8.31423 66.3467 7.91423C66.0403 7.51423 65.8799 7.0428 65.8799 6.48566C65.8799 5.92852 66.0403 5.47137 66.3467 5.07137Z" fill="#0062AC"/>
</g>
</g>
</svg>
