<svg width="69" height="13" viewBox="0 0 69 13" fill="none" xmlns="http://www.w3.org/2000/svg">
<g id="&#235;&#160;&#136;&#236;&#157;&#180;&#236;&#150;&#180; 1">
<g id="Group">
<path id="Vector" d="M0 8.18298H4.63854V12.205H6.42789V8.18298H11.0527V7.21716H0V8.18298Z" fill="#B5B5B6"/>
<path id="Vector_2" d="M5.53316 6.15869C7.79049 6.15869 9.62113 4.98118 9.62113 3.22153C9.62113 1.46189 7.77673 0.297607 5.53316 0.297607C3.2896 0.297607 1.44519 1.47512 1.44519 3.22153C1.44519 4.96795 3.27583 6.15869 5.53316 6.15869ZM5.53316 1.28989C6.77194 1.28989 7.77673 2.04402 7.77673 3.22153C7.77673 4.39904 6.77194 5.15318 5.53316 5.15318C4.29438 5.15318 3.30336 4.39904 3.30336 3.22153C3.30336 2.04402 4.30815 1.28989 5.53316 1.28989Z" fill="#B5B5B6"/>
<path id="Vector_3" d="M67.7612 4.29319H61.1819C60.7965 4.31965 60.7552 4.13443 60.7414 3.92274V3.41998H66.8528C67.2381 3.41998 67.3345 3.28768 67.3345 3.02307V1.13112C67.3345 0.879741 67.2381 0.747437 66.8528 0.747437H58.9246V1.62065H65.6002V2.53354H58.8695C58.8695 2.53354 59.0071 2.71877 59.0071 3.2083V4.43873C59.0209 4.6901 59.1586 5.12671 60.1083 5.1664H67.7474V4.29319H67.7612Z" fill="#B5B5B6"/>
<path id="Vector_4" d="M67.1005 7.41553H65.5589C65.7929 7.56106 65.7654 7.97121 65.7654 7.97121V8.76503H60.8103V7.8389C60.8103 7.60075 60.7002 7.41553 60.4387 7.41553H58.9384C59.1173 7.54783 59.1035 7.97121 59.1035 7.97121V10.8687C59.1173 11.12 59.2549 11.5567 60.2047 11.5963H67.4859V7.8389C67.4859 7.60075 67.3758 7.41553 67.1143 7.41553M65.7654 10.7099H61.237C60.8516 10.7364 60.8241 10.5511 60.8103 10.3395V9.63824H65.7654V10.7231V10.7099Z" fill="#B5B5B6"/>
<path id="Vector_5" d="M69 5.86768H57.4105V6.84673H62.3932V8.09039H64.1825V6.84673H69V5.86768Z" fill="#B5B5B6"/>
<path id="Vector_6" d="M46.5506 6.5689V5.58984H35.4841V6.5689H38.003V7.98455C37.2735 8.3947 36.833 8.99006 36.833 9.70451C36.833 11.1599 38.6637 12.1521 41.0173 12.1521C43.371 12.1521 45.2017 11.1731 45.2017 9.70451C45.2017 8.99006 44.7612 8.3947 44.0317 7.98455V6.5689H46.5506ZM41.0173 11.2525C39.7373 11.2525 38.6637 10.6703 38.6637 9.71774C38.6637 8.76515 39.7373 8.18301 41.0173 8.18301C42.2974 8.18301 43.371 8.76515 43.371 9.71774C43.371 10.6703 42.2974 11.2525 41.0173 11.2525ZM42.3662 7.42887C41.9395 7.36272 41.4853 7.32303 41.0173 7.32303C40.5494 7.32303 40.0951 7.36272 39.6822 7.42887V6.58213H42.3662V7.42887Z" fill="#B5B5B6"/>
<path id="Vector_7" d="M41.0174 5.11349C43.3022 5.11349 45.0641 4.12121 45.0641 2.65263C45.0641 1.18405 43.3022 0.191772 41.0174 0.191772C38.7325 0.191772 36.9707 1.18405 36.9707 2.65263C36.9707 4.12121 38.7325 5.11349 41.0174 5.11349ZM41.0174 1.13113C42.2699 1.13113 43.2059 1.7265 43.2059 2.65263C43.2059 3.57876 42.2837 4.17413 41.0174 4.17413C39.7511 4.17413 38.8289 3.57876 38.8289 2.65263C38.8289 1.7265 39.7511 1.13113 41.0174 1.13113Z" fill="#B5B5B6"/>
<path id="Vector_8" d="M55.5111 9.73095C55.8276 9.30758 55.7863 8.51375 55.7863 8.51375V1.95146C55.7863 1.70008 55.5937 1.42224 55.167 1.42224H47.3902V2.41452H54.0933V8.71221C54.0933 8.71221 54.1209 9.73095 53.2813 9.73095H46.6744V10.7629H57.0802V9.73095H55.5111Z" fill="#B5B5B6"/>
<path id="Vector_9" d="M24.6792 8.11683V10.9614C24.7067 11.2128 24.8444 11.6891 25.7804 11.6891H32.9515V7.38916H24.4039C24.6792 7.60085 24.6792 8.11683 24.6792 8.11683ZM31.2172 10.7497H26.854C26.4686 10.7497 26.441 10.5909 26.4273 10.366V8.32852H31.231V10.7497H31.2172Z" fill="#B5B5B6"/>
<path id="Vector_10" d="M32.7451 5.32512C32.9791 4.9679 32.9515 4.42545 32.9515 4.42545V1.28984C32.9515 1.03846 32.7588 0.76062 32.3322 0.76062H24.6793V1.7529H31.2173V4.67683C31.2173 4.67683 31.2448 5.32512 30.6805 5.32512H23.234V6.30417H34.383V5.32512H32.7588H32.7451Z" fill="#B5B5B6"/>
<path id="Vector_11" d="M20.9905 0.496094H19.7379C19.7379 0.496094 19.8893 0.601937 19.8893 1.44868V7.08485C19.8893 7.94483 18.4854 7.91837 18.4854 7.91837H14.3974C14.012 7.94483 13.9845 7.7596 13.9707 7.54791V5.17967H17.5081C17.8935 5.17967 17.9899 5.03413 17.9899 4.78275V1.237C17.9899 0.98562 17.8935 0.853315 17.5081 0.853315H12.0575V1.79268H16.2556V4.22707H12.0988C12.0988 4.22707 12.2502 4.4123 12.2502 4.90183V8.14328C12.264 8.39466 12.4016 8.83127 13.3513 8.87096H18.1413C18.1413 8.87096 19.5452 8.91065 19.9169 8.55343V11.9007H21.5823V0.893007C21.5823 0.641628 21.4034 0.496094 21.018 0.496094" fill="#B5B5B6"/>
</g>
</g>
</svg>
