<svg width="68" height="21" viewBox="0 0 68 21" fill="none" xmlns="http://www.w3.org/2000/svg">
<g id="&#235;&#160;&#136;&#236;&#157;&#180;&#236;&#150;&#180; 1">
<g id="Group">
<path id="Vector" d="M22.7635 3.07674C22.9655 3.21776 23.2053 3.34597 23.4831 3.42289C23.7609 3.51263 24.0512 3.55109 24.3669 3.55109C24.6825 3.55109 24.9729 3.51263 25.2506 3.42289C25.5284 3.33315 25.7683 3.21776 25.9703 3.07674C26.1723 2.92289 26.3364 2.7434 26.4627 2.55109C26.5889 2.34597 26.6394 2.14084 26.6394 1.91007C26.6394 1.6793 26.5763 1.47417 26.4627 1.28186C26.3364 1.08956 26.1849 0.910069 25.9703 0.756222C25.7683 0.615197 25.5284 0.486992 25.2506 0.397248C24.9729 0.307505 24.6825 0.269043 24.3669 0.269043C24.0512 0.269043 23.7482 0.307505 23.4831 0.397248C23.2053 0.486992 22.9655 0.602376 22.7635 0.743402C22.5614 0.897248 22.3973 1.07674 22.2837 1.26904C22.1701 1.47417 22.1069 1.6793 22.1069 1.89725C22.1069 2.12802 22.1701 2.33315 22.2837 2.53827C22.3973 2.7434 22.5614 2.91007 22.7635 3.06391M23.1675 1.48699C23.2306 1.34597 23.3316 1.23058 23.4452 1.14084C23.5588 1.03827 23.6977 0.961351 23.8619 0.897248C24.0134 0.833146 24.1901 0.807504 24.3669 0.807504C24.5436 0.807504 24.7078 0.833146 24.8593 0.897248C25.0108 0.961351 25.1496 1.03827 25.2759 1.14084C25.3895 1.2434 25.4905 1.35879 25.5536 1.48699C25.6294 1.62802 25.6546 1.76904 25.6546 1.91007C25.6546 2.05109 25.6168 2.20494 25.5536 2.34597C25.4779 2.47417 25.3895 2.60238 25.2759 2.69212C25.1623 2.79468 25.0234 2.87161 24.8593 2.93571C24.7078 2.98699 24.531 3.02545 24.3542 3.02545C24.1775 3.02545 24.0007 2.99981 23.8492 2.93571C23.6977 2.88443 23.5588 2.79468 23.4452 2.69212C23.3316 2.58956 23.2306 2.47417 23.1675 2.34597C23.1043 2.20494 23.0665 2.06391 23.0665 1.91007C23.0665 1.75622 23.1043 1.6152 23.1675 1.48699Z" fill="#0062AC"/>
<path id="Vector_2" d="M21.2106 4.67933H23.8871V6.83317H24.8467V4.67933L27.5232 4.69215V4.15369H21.2106V4.67933Z" fill="#0062AC"/>
<path id="Vector_3" d="M33.2299 0.384399H32.4976C32.4976 0.384399 32.5355 0.448502 32.5481 0.474143C32.5734 0.563887 32.586 0.717733 32.586 0.91004V3.92286C32.586 4.12799 32.4597 4.26901 32.1946 4.34594C32.1062 4.37158 31.98 4.3844 31.8032 4.39722H29.5812C29.4802 4.39722 29.417 4.37158 29.3792 4.34594C29.3539 4.30748 29.3413 4.25619 29.3413 4.19209V2.9485H31.2982C31.3992 2.9485 31.475 2.93568 31.5128 2.89722C31.5507 2.85876 31.5633 2.80748 31.5633 2.73055V0.794656C31.5633 0.717733 31.5381 0.666451 31.5002 0.627989C31.4623 0.589528 31.3866 0.576707 31.2856 0.576707H28.3313V1.11517H30.5912V2.42286H28.2808L28.3313 2.5126C28.3565 2.58953 28.3818 2.69209 28.3818 2.80748V4.53825C28.3818 4.64081 28.4196 4.73055 28.4954 4.79466C28.5964 4.89722 28.7605 4.9485 29.0004 4.9485H31.6138L32.0305 4.93568C32.3209 4.91004 32.5102 4.85876 32.5986 4.76901V6.76902H33.5708V0.615169C33.5708 0.474143 33.4698 0.39722 33.2551 0.384399" fill="#0062AC"/>
<path id="Vector_4" d="M36.0453 0.820372V0.974218V4.26909C36.0453 4.37165 36.0958 4.4614 36.1589 4.5255C36.2599 4.62806 36.4241 4.67935 36.6513 4.67935H39.4415V0.576782H35.8938C35.9569 0.628064 36.0074 0.704987 36.0201 0.820372M37.0301 1.11524H38.4946V4.15371H37.27C37.169 4.15371 37.1058 4.14088 37.068 4.10242C37.0427 4.06396 37.0301 4.01268 37.0301 3.94858V1.11524Z" fill="#0062AC"/>
<path id="Vector_5" d="M41.31 0.602348C41.31 0.461322 41.209 0.384399 40.9944 0.384399H40.2495L40.2874 0.474143C40.3126 0.576707 40.3379 0.717733 40.3379 0.91004V6.75619H41.2974V2.97414H42.2822V2.43568H41.2974V0.589528L41.31 0.602348Z" fill="#0062AC"/>
<path id="Vector_6" d="M43.873 2.53829C44.075 2.66649 44.3149 2.75624 44.5926 2.83316C44.8704 2.91008 45.1608 2.93573 45.489 2.93573C45.8173 2.93573 46.0951 2.89726 46.3728 2.83316C46.6506 2.76906 46.8905 2.66649 47.1051 2.53829C47.3071 2.41008 47.4712 2.26906 47.5975 2.10239C47.7237 1.93573 47.7742 1.75624 47.7742 1.56393C47.7742 1.38444 47.7111 1.20496 47.5975 1.03829C47.4712 0.871623 47.3197 0.730597 47.1051 0.602392C46.8905 0.474187 46.6506 0.384443 46.3728 0.30752C46.0951 0.243418 45.8047 0.204956 45.489 0.204956C45.1734 0.204956 44.8704 0.243418 44.5926 0.30752C44.3149 0.384443 44.075 0.474187 43.873 0.602392C43.6584 0.730597 43.4942 0.871623 43.3806 1.03829C43.267 1.20496 43.2039 1.38444 43.2039 1.56393C43.2039 1.74342 43.2544 1.93573 43.3806 2.10239C43.4942 2.26906 43.6584 2.41008 43.873 2.53829ZM44.2896 1.24342C44.3528 1.14085 44.4538 1.05111 44.5674 0.974187C44.681 0.897264 44.8199 0.833161 44.984 0.7947C45.1482 0.743418 45.3123 0.730597 45.489 0.730597C45.6658 0.730597 45.8299 0.756238 45.9941 0.7947C46.1456 0.845982 46.2971 0.897264 46.4107 0.974187C46.5243 1.05111 46.6253 1.14085 46.6884 1.24342C46.7642 1.34598 46.7894 1.44855 46.7894 1.56393C46.7894 1.67931 46.7516 1.78188 46.6884 1.88444C46.6127 1.98701 46.5243 2.07675 46.4107 2.15367C46.2971 2.2306 46.1582 2.28188 45.9941 2.33316C45.8299 2.37162 45.6658 2.39726 45.489 2.39726C45.3123 2.39726 45.1355 2.37162 44.984 2.33316C44.8199 2.2947 44.681 2.2306 44.5674 2.15367C44.4538 2.07675 44.3528 1.98701 44.2896 1.88444C44.2139 1.78188 44.1886 1.67931 44.1886 1.56393C44.1886 1.44855 44.2265 1.34598 44.2896 1.24342Z" fill="#0062AC"/>
<path id="Vector_7" d="M48.6454 3.46143H42.3328V3.99989H48.6454V3.46143Z" fill="#0062AC"/>
<path id="Vector_8" d="M43.0524 4.69217C43.0903 4.78191 43.1029 4.88447 43.1029 4.99986V6.26909C43.1029 6.3973 43.1534 6.49986 43.2418 6.5896C43.3554 6.70499 43.5448 6.75627 43.7973 6.75627H47.85V4.57678H42.9893C42.9893 4.57678 43.0398 4.65371 43.0524 4.67935M44.0877 5.11524H46.8905V6.23063H44.3275C44.2392 6.23063 44.1887 6.20499 44.1508 6.17935C44.1129 6.14088 44.1003 6.0896 44.1003 6.0255V5.11524H44.0877Z" fill="#0062AC"/>
<path id="Vector_9" d="M51.6376 1.9485C51.8017 1.83311 51.9406 1.71773 52.0795 1.60234C52.8118 2.17926 53.6072 2.5767 54.4783 2.80747L54.9455 2.0767C54.0996 1.9485 53.2537 1.66644 52.4204 1.26901C52.6098 1.03824 52.7486 0.820291 52.8118 0.602342C52.8244 0.538239 52.8118 0.486957 52.7865 0.448496C52.7613 0.422855 52.7234 0.410034 52.6855 0.410034H51.5114L51.5745 0.461316C51.5745 0.461316 51.6376 0.576701 51.6376 0.640803C51.4104 1.47414 50.6023 2.08952 49.2009 2.47414L49.3272 2.83311C50.2362 2.71773 51.0063 2.42285 51.6502 1.96132" fill="#0062AC"/>
<path id="Vector_10" d="M54.1121 4.67932H49.6554V5.21778H53.4935V6.76906H54.4656V4.98701C54.4656 4.91009 54.4404 4.83317 54.3773 4.78189C54.3141 4.71778 54.2384 4.69214 54.1248 4.69214" fill="#0062AC"/>
<path id="Vector_11" d="M52.5718 3.52549V2.83318C52.5718 2.69216 52.4708 2.61523 52.2688 2.61523H51.5239C51.5239 2.61523 51.5618 2.67934 51.5744 2.70498C51.5997 2.79472 51.6123 2.94857 51.6123 3.14088V3.52549H48.9484V4.06395H55.261V3.53831H52.5845L52.5718 3.52549Z" fill="#0062AC"/>
<path id="Vector_12" d="M24.7331 18.8075C24.7331 18.8075 24.6573 18.6536 24.6573 18.5254V16.269C24.6573 16.0382 24.5563 15.9229 24.3543 15.9229H22.8898C22.9655 15.9741 23.016 16.0767 23.016 16.1921C23.016 16.3203 23.0287 16.41 23.0413 16.4741V19.1152C23.0413 19.2946 23.0918 19.4485 23.2054 19.5639C23.3695 19.7305 23.6599 19.8203 24.0639 19.8203H30.6796V18.8972H25.0361C24.8719 18.8972 24.7709 18.8716 24.7204 18.8075" fill="#0062AC"/>
<path id="Vector_13" d="M27.2076 12.4229H29.0256V16.5511H30.629V9.11521C30.629 8.8588 30.4649 8.73059 30.1114 8.73059H28.8867C28.8867 8.73059 28.9372 8.83315 28.9625 8.88444C29.013 9.06392 29.0382 9.30751 29.0382 9.65367V11.487H27.2202V9.46136C27.2202 9.19213 27.1065 9.06392 26.8667 9.06392H25.4274C25.5158 9.11521 25.5663 9.20495 25.5789 9.30751C25.5915 9.41008 25.6041 9.51264 25.6041 9.60239V10.9101H23.1674V9.47418C23.1674 9.20495 23.0538 9.06392 22.8139 9.06392H21.3999C21.4757 9.11521 21.5135 9.20495 21.5388 9.30751C21.5514 9.41008 21.564 9.51264 21.564 9.61521V14.1408C21.5767 14.3332 21.6398 14.4742 21.7408 14.5896C21.9049 14.7691 22.1827 14.846 22.5741 14.846H27.2202V12.4229H27.2076ZM25.5915 13.9229H23.5462C23.3821 13.9229 23.2811 13.8973 23.2306 13.8332C23.1801 13.7691 23.1548 13.6793 23.1548 13.5511V11.846H25.5915V13.9229Z" fill="#0062AC"/>
<path id="Vector_14" d="M42.1308 8.74341H41.0071C41.0071 8.74341 41.0703 8.85879 41.0829 8.89725C41.1208 9.0511 41.146 9.30751 41.146 9.64084V12.1537H40.4264V9.1152C40.4264 8.987 40.4011 8.88443 40.338 8.83315C40.2875 8.76905 40.1739 8.74341 39.9971 8.74341H38.8608C38.8608 8.74341 38.924 8.85879 38.9366 8.89725C38.9745 9.0511 38.9997 9.30751 38.9997 9.64084V19.8203H40.4138V13.1408H41.1334V19.8203H42.5601V9.1152C42.5601 8.987 42.5348 8.88443 42.4843 8.83315C42.4212 8.76905 42.3076 8.74341 42.1308 8.74341Z" fill="#0062AC"/>
<path id="Vector_15" d="M37.2574 9.99986H38.2548V9.07678H32.2073V9.99986H32.9521C33.1037 9.99986 33.1668 10.0768 33.1542 10.2563C33.1542 12.487 32.788 14.2178 32.0052 15.4486L32.5355 15.846C33.1415 15.1537 33.6213 14.3717 33.9748 13.5383C34.1768 14.0127 34.4167 14.4486 34.6818 14.846C34.4419 15.3845 34.1642 15.8717 33.8485 16.3204L34.4419 16.7563C35.3257 15.9358 35.9949 14.9614 36.4494 13.8332C36.7776 14.7947 37.1311 15.6024 37.5225 16.2306L38.8103 15.2947C38.2295 14.6152 37.5856 13.6409 36.9165 12.3973C37.1059 11.6409 37.2195 10.846 37.2574 10.0127M34.4041 12.2434C34.5808 11.5255 34.6818 10.7819 34.6944 9.99986H35.5025C35.6161 9.99986 35.6792 10.0511 35.6918 10.1665C35.6287 11.3332 35.4646 12.3845 35.2121 13.3332C34.9217 13.0127 34.6566 12.6409 34.4041 12.2434Z" fill="#0062AC"/>
<path id="Vector_16" d="M55.3495 12.7177V12.4101L55.3621 9.34595C55.3621 9.21775 55.3116 9.08954 55.2106 8.98698C55.1096 8.88441 54.9707 8.83313 54.7939 8.83313H47.3703V9.75621H53.7587V12.6536C53.746 12.8075 53.7208 12.9101 53.6955 12.9742C53.6072 13.1793 53.4683 13.2818 53.2537 13.2818H46.1835V14.2049H56.6625V13.2818H55.1601C55.2485 13.128 55.3116 12.9357 55.3495 12.7177Z" fill="#0062AC"/>
<path id="Vector_17" d="M47.3955 15.9485C47.4586 16.1024 47.4965 16.2819 47.4965 16.487V18.9742C47.4965 19.1921 47.5722 19.3716 47.7237 19.5255C47.9131 19.7178 48.2288 19.8203 48.6328 19.8203H55.3621V15.7562H47.2819C47.3324 15.8203 47.3702 15.8844 47.3955 15.9357M49.0999 16.6921H53.7587V18.9101H49.4913C49.3524 18.9101 49.2514 18.8716 49.1883 18.8075C49.1252 18.7434 49.0999 18.6537 49.0999 18.5511V16.6921Z" fill="#0062AC"/>
<path id="Vector_18" d="M60.0839 12.487C60.4248 12.7049 60.8288 12.8716 61.2833 12.9998C61.7378 13.128 62.2429 13.1793 62.7605 13.1793C63.2781 13.1793 63.7705 13.1152 64.225 12.9998C64.6795 12.8716 65.0836 12.7049 65.4371 12.487C65.778 12.269 66.0431 12.0254 66.2451 11.7305C66.4471 11.4485 66.5481 11.128 66.5481 10.8075C66.5481 10.487 66.4471 10.1793 66.2451 9.89721C66.0431 9.60234 65.778 9.35875 65.4371 9.1408C65.0836 8.92285 64.6795 8.75618 64.225 8.62798C63.7705 8.49977 63.2781 8.43567 62.7605 8.43567C62.2302 8.43567 61.7378 8.49977 61.2833 8.62798C60.8288 8.75618 60.4248 8.92285 60.0839 9.1408C59.7304 9.35875 59.4653 9.60234 59.2633 9.89721C59.0739 10.1921 58.9729 10.487 58.9729 10.8075C58.9729 11.128 59.0739 11.4485 59.2633 11.7305C59.4527 12.0126 59.7304 12.269 60.0839 12.487ZM60.7657 10.2434C60.8793 10.0767 61.0308 9.92285 61.2328 9.78182C61.4222 9.65362 61.6621 9.55105 61.9146 9.46131C62.1797 9.38439 62.4575 9.34593 62.7605 9.34593C63.0635 9.34593 63.3286 9.38439 63.5938 9.46131C63.8589 9.53823 64.0862 9.6408 64.2755 9.78182C64.4649 9.91003 64.629 10.0639 64.7427 10.2434C64.8563 10.4228 64.9194 10.6023 64.9194 10.7946C64.9194 10.987 64.8563 11.1793 64.7427 11.3587C64.629 11.5382 64.4649 11.6921 64.2755 11.8203C64.0862 11.9485 63.8463 12.0511 63.5938 12.128C63.3413 12.2049 63.0509 12.2434 62.7605 12.2434C62.4575 12.2434 62.1797 12.2049 61.9146 12.128C61.6495 12.0511 61.4222 11.9485 61.2328 11.8203C61.0435 11.6921 60.8793 11.5382 60.7657 11.3587C60.6521 11.1793 60.6016 10.987 60.6016 10.7946C60.6016 10.6023 60.6521 10.41 60.7783 10.2434" fill="#0062AC"/>
<path id="Vector_19" d="M68 14.6409V13.7178H57.521V14.6409H59.9324V16.1409C59.6168 16.346 59.3517 16.5896 59.1623 16.8588C58.9603 17.1537 58.8593 17.4614 58.8593 17.7947C58.8593 18.128 58.9603 18.4485 59.1623 18.7434C59.3643 19.0383 59.642 19.2947 59.9956 19.4998C60.3491 19.7178 60.7657 19.8973 61.2328 20.0255C61.7 20.1537 62.2176 20.205 62.7605 20.205C63.3034 20.205 63.7958 20.1409 64.2755 20.0255C64.7427 19.8973 65.1593 19.7306 65.5255 19.5126C65.879 19.2947 66.1567 19.0511 66.3587 18.7562C66.5607 18.4614 66.6744 18.1537 66.6744 17.8075C66.6744 17.4614 66.5734 17.1665 66.3587 16.8716C66.1693 16.6024 65.9168 16.3588 65.6012 16.1537V14.6409H68.0126H68ZM64.8563 18.3716C64.7301 18.5511 64.5659 18.705 64.3513 18.846C64.1493 18.9742 63.9094 19.0767 63.6317 19.1665C63.3539 19.2434 63.0635 19.2819 62.7605 19.2819C62.4575 19.2819 62.1419 19.2434 61.8641 19.1665C61.5863 19.0896 61.3465 18.987 61.1445 18.846C60.9298 18.705 60.7657 18.5511 60.6521 18.3716C60.5384 18.1921 60.4753 17.9998 60.4753 17.7947C60.4753 17.5896 60.5384 17.4101 60.6521 17.2306C60.7657 17.0511 60.9298 16.8973 61.1445 16.7562C61.3465 16.628 61.5863 16.5126 61.8641 16.4357C62.1419 16.3588 62.4322 16.3075 62.7605 16.3075C63.0888 16.3075 63.3665 16.346 63.6317 16.4357C63.9094 16.5126 64.1493 16.628 64.3513 16.7562C64.5659 16.8973 64.7301 17.0511 64.8437 17.2306C64.9699 17.4101 65.0331 17.6024 65.0331 17.7947C65.0331 17.987 64.9699 18.1921 64.8437 18.3716M63.9725 15.5126C63.5811 15.4357 63.1771 15.3844 62.7479 15.3844C62.3186 15.3844 61.9146 15.4229 61.5358 15.4998V14.6409H63.9725V15.5126Z" fill="#0062AC"/>
<path id="Vector_20" d="M17.6124 8.89726C17.6629 9.06392 17.6882 9.32033 17.6882 9.66649V11.4229H15.5166V12.346H17.6882V15.3588H19.2916V9.11521C19.2916 8.8588 19.1274 8.73059 18.7866 8.73059H17.5367C17.5367 8.73059 17.5998 8.83315 17.6124 8.88444" fill="#1EAFE6"/>
<path id="Vector_21" d="M9.5321 14.1537L9.98662 14.7563C11.2618 14.2307 12.2844 13.5512 13.0419 12.7307C13.7868 13.4999 14.5949 14.1281 15.4534 14.6153L16.3624 13.3973C15.2009 12.9358 14.2919 12.4871 13.5975 12.0383C13.6732 11.923 13.749 11.8204 13.8121 11.705C13.9131 11.5383 14.0267 11.3076 14.1277 11.0383C14.2161 10.8076 14.254 10.6409 14.2792 10.5127H16.1351V9.58962H14.1656V8.8845C14.1656 8.61527 14.0267 8.48706 13.7363 8.48706H12.4233C12.4233 8.48706 12.4864 8.55116 12.4991 8.58962C12.5369 8.69219 12.5622 8.85886 12.5622 9.0768V9.58962H10.2391V10.5127H12.2339C12.297 10.5127 12.3476 10.5383 12.3602 10.5512C12.4107 10.5896 12.4359 10.6537 12.4359 10.7563C12.2844 11.9742 11.3123 13.1153 9.54473 14.1665" fill="#1EAFE6"/>
<path id="Vector_22" d="M16.173 16.7947C16.375 16.4357 16.5139 16.0639 16.6023 15.6922C16.6276 15.5639 16.6023 15.487 16.5644 15.4357C16.5139 15.3845 16.4634 15.3588 16.3877 15.3588H14.4434L14.5444 15.4486C14.6075 15.5383 14.6454 15.6409 14.6454 15.7691C14.6454 15.8588 14.6075 15.9486 14.5823 16.0383C14.557 16.1281 14.5318 16.2178 14.4939 16.3075C14.3424 16.705 14.1151 17.0768 13.8374 17.3973C13.5217 17.7691 13.1556 18.0896 12.7642 18.3588C12.638 18.4486 12.4991 18.5383 12.3728 18.6152C11.2239 19.2434 10.1255 19.346 9.60788 19.3332C4.86075 19.2563 0.757522 15.2563 0.833274 10.4357C0.909026 5.69215 4.785 1.83318 9.45637 1.83318C9.50687 1.83318 9.55737 1.83318 9.60788 1.83318C12.7516 1.88446 15.5292 3.65369 16.9937 6.33318C17.0947 6.56395 17.0442 6.75626 16.9937 6.79472H18.4961C18.6981 6.79472 18.8496 6.57677 18.7739 6.38446C17.3219 2.7819 13.8879 0.294719 9.89826 0.230616C9.84776 0.230616 9.78463 0.230616 9.73413 0.230616C4.16636 0.217796 -0.378757 5.06395 0.0252532 10.8204C0.404013 16.1024 4.89863 20.1281 10.1129 19.987C10.1508 19.987 10.2013 19.987 10.2391 19.987C10.8578 19.9614 11.4512 19.8588 12.0572 19.705C12.6001 19.5639 13.143 19.3716 13.648 19.1152C14.1151 18.8845 14.5444 18.6024 14.9358 18.2563C15.1883 18.0383 15.4155 17.8075 15.6175 17.5896C16.5013 18.5511 17.5997 19.3204 18.938 19.9229L19.7208 18.6793C18.3067 18.1409 17.1326 17.5127 16.1857 16.7947" fill="#1EAFE6"/>
<path id="Vector_23" d="M22.7635 3.07674C22.9655 3.21776 23.2053 3.34597 23.4831 3.42289C23.7609 3.51263 24.0512 3.55109 24.3669 3.55109C24.6825 3.55109 24.9729 3.51263 25.2506 3.42289C25.5284 3.33315 25.7683 3.21776 25.9703 3.07674C26.1723 2.92289 26.3364 2.7434 26.4627 2.55109C26.5889 2.34597 26.6394 2.14084 26.6394 1.91007C26.6394 1.6793 26.5763 1.47417 26.4627 1.28186C26.3364 1.08956 26.1849 0.910069 25.9703 0.756222C25.7683 0.615197 25.5284 0.486992 25.2506 0.397248C24.9729 0.307505 24.6825 0.269043 24.3669 0.269043C24.0512 0.269043 23.7482 0.307505 23.4831 0.397248C23.2053 0.486992 22.9655 0.602376 22.7635 0.743402C22.5614 0.897248 22.3973 1.07674 22.2837 1.26904C22.1701 1.47417 22.1069 1.6793 22.1069 1.89725C22.1069 2.12802 22.1701 2.33315 22.2837 2.53827C22.3973 2.7434 22.5614 2.91007 22.7635 3.06391M23.1675 1.48699C23.2306 1.34597 23.3316 1.23058 23.4452 1.14084C23.5588 1.03827 23.6977 0.961351 23.8619 0.897248C24.0134 0.833146 24.1901 0.807504 24.3669 0.807504C24.5436 0.807504 24.7078 0.833146 24.8593 0.897248C25.0108 0.961351 25.1496 1.03827 25.2759 1.14084C25.3895 1.2434 25.4905 1.35879 25.5536 1.48699C25.6294 1.62802 25.6546 1.76904 25.6546 1.91007C25.6546 2.05109 25.6168 2.20494 25.5536 2.34597C25.4779 2.47417 25.3895 2.60238 25.2759 2.69212C25.1623 2.79468 25.0234 2.87161 24.8593 2.93571C24.7078 2.98699 24.531 3.02545 24.3542 3.02545C24.1775 3.02545 24.0007 2.99981 23.8492 2.93571C23.6977 2.88443 23.5588 2.79468 23.4452 2.69212C23.3316 2.58956 23.2306 2.47417 23.1675 2.34597C23.1043 2.20494 23.0665 2.06391 23.0665 1.91007C23.0665 1.75622 23.1043 1.6152 23.1675 1.48699Z" fill="#0062AC"/>
<path id="Vector_24" d="M21.2106 4.67933H23.8871V6.83317H24.8467V4.67933L27.5232 4.69215V4.15369H21.2106V4.67933Z" fill="#0062AC"/>
<path id="Vector_25" d="M33.2299 0.384399H32.4976C32.4976 0.384399 32.5355 0.448502 32.5481 0.474143C32.5734 0.563887 32.586 0.717733 32.586 0.91004V3.92286C32.586 4.12799 32.4597 4.26901 32.1946 4.34594C32.1062 4.37158 31.98 4.3844 31.8032 4.39722H29.5812C29.4802 4.39722 29.417 4.37158 29.3792 4.34594C29.3539 4.30748 29.3413 4.25619 29.3413 4.19209V2.9485H31.2982C31.3992 2.9485 31.475 2.93568 31.5128 2.89722C31.5507 2.85876 31.5633 2.80748 31.5633 2.73055V0.794656C31.5633 0.717733 31.5381 0.666451 31.5002 0.627989C31.4623 0.589528 31.3866 0.576707 31.2856 0.576707H28.3313V1.11517H30.5912V2.42286H28.2808L28.3313 2.5126C28.3565 2.58953 28.3818 2.69209 28.3818 2.80748V4.53825C28.3818 4.64081 28.4196 4.73055 28.4954 4.79466C28.5964 4.89722 28.7605 4.9485 29.0004 4.9485H31.6138L32.0305 4.93568C32.3209 4.91004 32.5102 4.85876 32.5986 4.76901V6.76902H33.5708V0.615169C33.5708 0.474143 33.4698 0.39722 33.2551 0.384399" fill="#0062AC"/>
<path id="Vector_26" d="M36.0453 0.820372V0.974218V4.26909C36.0453 4.37165 36.0958 4.4614 36.1589 4.5255C36.2599 4.62806 36.4241 4.67935 36.6513 4.67935H39.4415V0.576782H35.8938C35.9569 0.628064 36.0074 0.704987 36.0201 0.820372M37.0301 1.11524H38.4946V4.15371H37.27C37.169 4.15371 37.1058 4.14088 37.068 4.10242C37.0427 4.06396 37.0301 4.01268 37.0301 3.94858V1.11524Z" fill="#0062AC"/>
<path id="Vector_27" d="M41.31 0.602348C41.31 0.461322 41.209 0.384399 40.9944 0.384399H40.2495L40.2874 0.474143C40.3126 0.576707 40.3379 0.717733 40.3379 0.91004V6.75619H41.2974V2.97414H42.2822V2.43568H41.2974V0.589528L41.31 0.602348Z" fill="#0062AC"/>
<path id="Vector_28" d="M43.873 2.53829C44.075 2.66649 44.3149 2.75624 44.5926 2.83316C44.8704 2.91008 45.1608 2.93573 45.489 2.93573C45.8173 2.93573 46.0951 2.89726 46.3728 2.83316C46.6506 2.76906 46.8905 2.66649 47.1051 2.53829C47.3071 2.41008 47.4712 2.26906 47.5975 2.10239C47.7237 1.93573 47.7742 1.75624 47.7742 1.56393C47.7742 1.38444 47.7111 1.20496 47.5975 1.03829C47.4712 0.871623 47.3197 0.730597 47.1051 0.602392C46.8905 0.474187 46.6506 0.384443 46.3728 0.30752C46.0951 0.243418 45.8047 0.204956 45.489 0.204956C45.1734 0.204956 44.8704 0.243418 44.5926 0.30752C44.3149 0.384443 44.075 0.474187 43.873 0.602392C43.6584 0.730597 43.4942 0.871623 43.3806 1.03829C43.267 1.20496 43.2039 1.38444 43.2039 1.56393C43.2039 1.74342 43.2544 1.93573 43.3806 2.10239C43.4942 2.26906 43.6584 2.41008 43.873 2.53829ZM44.2896 1.24342C44.3528 1.14085 44.4538 1.05111 44.5674 0.974187C44.681 0.897264 44.8199 0.833161 44.984 0.7947C45.1482 0.743418 45.3123 0.730597 45.489 0.730597C45.6658 0.730597 45.8299 0.756238 45.9941 0.7947C46.1456 0.845982 46.2971 0.897264 46.4107 0.974187C46.5243 1.05111 46.6253 1.14085 46.6884 1.24342C46.7642 1.34598 46.7894 1.44855 46.7894 1.56393C46.7894 1.67931 46.7516 1.78188 46.6884 1.88444C46.6127 1.98701 46.5243 2.07675 46.4107 2.15367C46.2971 2.2306 46.1582 2.28188 45.9941 2.33316C45.8299 2.37162 45.6658 2.39726 45.489 2.39726C45.3123 2.39726 45.1355 2.37162 44.984 2.33316C44.8199 2.2947 44.681 2.2306 44.5674 2.15367C44.4538 2.07675 44.3528 1.98701 44.2896 1.88444C44.2139 1.78188 44.1886 1.67931 44.1886 1.56393C44.1886 1.44855 44.2265 1.34598 44.2896 1.24342Z" fill="#0062AC"/>
<path id="Vector_29" d="M48.6454 3.46143H42.3328V3.99989H48.6454V3.46143Z" fill="#0062AC"/>
<path id="Vector_30" d="M43.0524 4.69217C43.0903 4.78191 43.1029 4.88447 43.1029 4.99986V6.26909C43.1029 6.3973 43.1534 6.49986 43.2418 6.5896C43.3554 6.70499 43.5448 6.75627 43.7973 6.75627H47.85V4.57678H42.9893C42.9893 4.57678 43.0398 4.65371 43.0524 4.67935M44.0877 5.11524H46.8905V6.23063H44.3275C44.2392 6.23063 44.1887 6.20499 44.1508 6.17935C44.1129 6.14088 44.1003 6.0896 44.1003 6.0255V5.11524H44.0877Z" fill="#0062AC"/>
<path id="Vector_31" d="M51.6376 1.9485C51.8017 1.83311 51.9406 1.71773 52.0795 1.60234C52.8118 2.17926 53.6072 2.5767 54.4783 2.80747L54.9455 2.0767C54.0996 1.9485 53.2537 1.66644 52.4204 1.26901C52.6098 1.03824 52.7486 0.820291 52.8118 0.602342C52.8244 0.538239 52.8118 0.486957 52.7865 0.448496C52.7613 0.422855 52.7234 0.410034 52.6855 0.410034H51.5114L51.5745 0.461316C51.5745 0.461316 51.6376 0.576701 51.6376 0.640803C51.4104 1.47414 50.6023 2.08952 49.2009 2.47414L49.3272 2.83311C50.2362 2.71773 51.0063 2.42285 51.6502 1.96132" fill="#0062AC"/>
<path id="Vector_32" d="M54.1121 4.67932H49.6554V5.21778H53.4935V6.76906H54.4656V4.98701C54.4656 4.91009 54.4404 4.83317 54.3773 4.78189C54.3141 4.71778 54.2384 4.69214 54.1248 4.69214" fill="#0062AC"/>
<path id="Vector_33" d="M52.5718 3.52549V2.83318C52.5718 2.69216 52.4708 2.61523 52.2688 2.61523H51.5239C51.5239 2.61523 51.5618 2.67934 51.5744 2.70498C51.5997 2.79472 51.6123 2.94857 51.6123 3.14088V3.52549H48.9484V4.06395H55.261V3.53831H52.5845L52.5718 3.52549Z" fill="#0062AC"/>
<path id="Vector_34" d="M24.7331 18.8075C24.7331 18.8075 24.6573 18.6536 24.6573 18.5254V16.269C24.6573 16.0382 24.5563 15.9229 24.3543 15.9229H22.8898C22.9655 15.9741 23.016 16.0767 23.016 16.1921C23.016 16.3203 23.0287 16.41 23.0413 16.4741V19.1152C23.0413 19.2946 23.0918 19.4485 23.2054 19.5639C23.3695 19.7305 23.6599 19.8203 24.0639 19.8203H30.6796V18.8972H25.0361C24.8719 18.8972 24.7709 18.8716 24.7204 18.8075" fill="#0062AC"/>
<path id="Vector_35" d="M27.2076 12.4229H29.0256V16.5511H30.629V9.11521C30.629 8.8588 30.4649 8.73059 30.1114 8.73059H28.8867C28.8867 8.73059 28.9372 8.83315 28.9625 8.88444C29.013 9.06392 29.0382 9.30751 29.0382 9.65367V11.487H27.2202V9.46136C27.2202 9.19213 27.1065 9.06392 26.8667 9.06392H25.4274C25.5158 9.11521 25.5663 9.20495 25.5789 9.30751C25.5915 9.41008 25.6041 9.51264 25.6041 9.60239V10.9101H23.1674V9.47418C23.1674 9.20495 23.0538 9.06392 22.8139 9.06392H21.3999C21.4757 9.11521 21.5135 9.20495 21.5388 9.30751C21.5514 9.41008 21.564 9.51264 21.564 9.61521V14.1408C21.5767 14.3332 21.6398 14.4742 21.7408 14.5896C21.9049 14.7691 22.1827 14.846 22.5741 14.846H27.2202V12.4229H27.2076ZM25.5915 13.9229H23.5462C23.3821 13.9229 23.2811 13.8973 23.2306 13.8332C23.1801 13.7691 23.1548 13.6793 23.1548 13.5511V11.846H25.5915V13.9229Z" fill="#0062AC"/>
<path id="Vector_36" d="M42.1308 8.74341H41.0071C41.0071 8.74341 41.0703 8.85879 41.0829 8.89725C41.1208 9.0511 41.146 9.30751 41.146 9.64084V12.1537H40.4264V9.1152C40.4264 8.987 40.4011 8.88443 40.338 8.83315C40.2875 8.76905 40.1739 8.74341 39.9971 8.74341H38.8608C38.8608 8.74341 38.924 8.85879 38.9366 8.89725C38.9745 9.0511 38.9997 9.30751 38.9997 9.64084V19.8203H40.4138V13.1408H41.1334V19.8203H42.5601V9.1152C42.5601 8.987 42.5348 8.88443 42.4843 8.83315C42.4212 8.76905 42.3076 8.74341 42.1308 8.74341Z" fill="#0062AC"/>
<path id="Vector_37" d="M37.2574 9.99986H38.2548V9.07678H32.2073V9.99986H32.9521C33.1037 9.99986 33.1668 10.0768 33.1542 10.2563C33.1542 12.487 32.788 14.2178 32.0052 15.4486L32.5355 15.846C33.1415 15.1537 33.6213 14.3717 33.9748 13.5383C34.1768 14.0127 34.4167 14.4486 34.6818 14.846C34.4419 15.3845 34.1642 15.8717 33.8485 16.3204L34.4419 16.7563C35.3257 15.9358 35.9949 14.9614 36.4494 13.8332C36.7776 14.7947 37.1311 15.6024 37.5225 16.2306L38.8103 15.2947C38.2295 14.6152 37.5856 13.6409 36.9165 12.3973C37.1059 11.6409 37.2195 10.846 37.2574 10.0127M34.4041 12.2434C34.5808 11.5255 34.6818 10.7819 34.6944 9.99986H35.5025C35.6161 9.99986 35.6792 10.0511 35.6918 10.1665C35.6287 11.3332 35.4646 12.3845 35.2121 13.3332C34.9217 13.0127 34.6566 12.6409 34.4041 12.2434Z" fill="#0062AC"/>
<path id="Vector_38" d="M55.3495 12.7177V12.4101L55.3621 9.34595C55.3621 9.21775 55.3116 9.08954 55.2106 8.98698C55.1096 8.88441 54.9707 8.83313 54.7939 8.83313H47.3703V9.75621H53.7587V12.6536C53.746 12.8075 53.7208 12.9101 53.6955 12.9742C53.6072 13.1793 53.4683 13.2818 53.2537 13.2818H46.1835V14.2049H56.6625V13.2818H55.1601C55.2485 13.128 55.3116 12.9357 55.3495 12.7177Z" fill="#0062AC"/>
<path id="Vector_39" d="M47.3955 15.9485C47.4586 16.1024 47.4965 16.2819 47.4965 16.487V18.9742C47.4965 19.1921 47.5722 19.3716 47.7237 19.5255C47.9131 19.7178 48.2288 19.8203 48.6328 19.8203H55.3621V15.7562H47.2819C47.3324 15.8203 47.3702 15.8844 47.3955 15.9357M49.0999 16.6921H53.7587V18.9101H49.4913C49.3524 18.9101 49.2514 18.8716 49.1883 18.8075C49.1252 18.7434 49.0999 18.6537 49.0999 18.5511V16.6921Z" fill="#0062AC"/>
<path id="Vector_40" d="M60.0839 12.487C60.4248 12.7049 60.8288 12.8716 61.2833 12.9998C61.7378 13.128 62.2429 13.1793 62.7605 13.1793C63.2781 13.1793 63.7705 13.1152 64.225 12.9998C64.6795 12.8716 65.0836 12.7049 65.4371 12.487C65.778 12.269 66.0431 12.0254 66.2451 11.7305C66.4471 11.4485 66.5481 11.128 66.5481 10.8075C66.5481 10.487 66.4471 10.1793 66.2451 9.89721C66.0431 9.60234 65.778 9.35875 65.4371 9.1408C65.0836 8.92285 64.6795 8.75618 64.225 8.62798C63.7705 8.49977 63.2781 8.43567 62.7605 8.43567C62.2302 8.43567 61.7378 8.49977 61.2833 8.62798C60.8288 8.75618 60.4248 8.92285 60.0839 9.1408C59.7304 9.35875 59.4653 9.60234 59.2633 9.89721C59.0739 10.1921 58.9729 10.487 58.9729 10.8075C58.9729 11.128 59.0739 11.4485 59.2633 11.7305C59.4527 12.0126 59.7304 12.269 60.0839 12.487ZM60.7657 10.2434C60.8793 10.0767 61.0308 9.92285 61.2328 9.78182C61.4222 9.65362 61.6621 9.55105 61.9146 9.46131C62.1797 9.38439 62.4575 9.34593 62.7605 9.34593C63.0635 9.34593 63.3286 9.38439 63.5938 9.46131C63.8589 9.53823 64.0862 9.6408 64.2755 9.78182C64.4649 9.91003 64.629 10.0639 64.7427 10.2434C64.8563 10.4228 64.9194 10.6023 64.9194 10.7946C64.9194 10.987 64.8563 11.1793 64.7427 11.3587C64.629 11.5382 64.4649 11.6921 64.2755 11.8203C64.0862 11.9485 63.8463 12.0511 63.5938 12.128C63.3413 12.2049 63.0509 12.2434 62.7605 12.2434C62.4575 12.2434 62.1797 12.2049 61.9146 12.128C61.6495 12.0511 61.4222 11.9485 61.2328 11.8203C61.0435 11.6921 60.8793 11.5382 60.7657 11.3587C60.6521 11.1793 60.6016 10.987 60.6016 10.7946C60.6016 10.6023 60.6521 10.41 60.7783 10.2434" fill="#0062AC"/>
<path id="Vector_41" d="M68 14.6409V13.7178H57.521V14.6409H59.9324V16.1409C59.6168 16.346 59.3517 16.5896 59.1623 16.8588C58.9603 17.1537 58.8593 17.4614 58.8593 17.7947C58.8593 18.128 58.9603 18.4485 59.1623 18.7434C59.3643 19.0383 59.642 19.2947 59.9956 19.4998C60.3491 19.7178 60.7657 19.8973 61.2328 20.0255C61.7 20.1537 62.2176 20.205 62.7605 20.205C63.3034 20.205 63.7958 20.1409 64.2755 20.0255C64.7427 19.8973 65.1593 19.7306 65.5255 19.5126C65.879 19.2947 66.1567 19.0511 66.3587 18.7562C66.5607 18.4614 66.6744 18.1537 66.6744 17.8075C66.6744 17.4614 66.5734 17.1665 66.3587 16.8716C66.1693 16.6024 65.9168 16.3588 65.6012 16.1537V14.6409H68.0126H68ZM64.8563 18.3716C64.7301 18.5511 64.5659 18.705 64.3513 18.846C64.1493 18.9742 63.9094 19.0767 63.6317 19.1665C63.3539 19.2434 63.0635 19.2819 62.7605 19.2819C62.4575 19.2819 62.1419 19.2434 61.8641 19.1665C61.5863 19.0896 61.3465 18.987 61.1445 18.846C60.9298 18.705 60.7657 18.5511 60.6521 18.3716C60.5384 18.1921 60.4753 17.9998 60.4753 17.7947C60.4753 17.5896 60.5384 17.4101 60.6521 17.2306C60.7657 17.0511 60.9298 16.8973 61.1445 16.7562C61.3465 16.628 61.5863 16.5126 61.8641 16.4357C62.1419 16.3588 62.4322 16.3075 62.7605 16.3075C63.0888 16.3075 63.3665 16.346 63.6317 16.4357C63.9094 16.5126 64.1493 16.628 64.3513 16.7562C64.5659 16.8973 64.7301 17.0511 64.8437 17.2306C64.9699 17.4101 65.0331 17.6024 65.0331 17.7947C65.0331 17.987 64.9699 18.1921 64.8437 18.3716M63.9725 15.5126C63.5811 15.4357 63.1771 15.3844 62.7479 15.3844C62.3186 15.3844 61.9146 15.4229 61.5358 15.4998V14.6409H63.9725V15.5126Z" fill="#0062AC"/>
<path id="Vector_42" d="M17.6124 8.89726C17.6629 9.06392 17.6882 9.32033 17.6882 9.66649V11.4229H15.5166V12.346H17.6882V15.3588H19.2916V9.11521C19.2916 8.8588 19.1274 8.73059 18.7866 8.73059H17.5367C17.5367 8.73059 17.5998 8.83315 17.6124 8.88444" fill="#1EAFE6"/>
<path id="Vector_43" d="M9.5321 14.1537L9.98662 14.7563C11.2618 14.2307 12.2844 13.5512 13.0419 12.7307C13.7868 13.4999 14.5949 14.1281 15.4534 14.6153L16.3624 13.3973C15.2009 12.9358 14.2919 12.4871 13.5975 12.0383C13.6732 11.923 13.749 11.8204 13.8121 11.705C13.9131 11.5383 14.0267 11.3076 14.1277 11.0383C14.2161 10.8076 14.254 10.6409 14.2792 10.5127H16.1351V9.58962H14.1656V8.8845C14.1656 8.61527 14.0267 8.48706 13.7363 8.48706H12.4233C12.4233 8.48706 12.4864 8.55116 12.4991 8.58962C12.5369 8.69219 12.5622 8.85886 12.5622 9.0768V9.58962H10.2391V10.5127H12.2339C12.297 10.5127 12.3476 10.5383 12.3602 10.5512C12.4107 10.5896 12.4359 10.6537 12.4359 10.7563C12.2844 11.9742 11.3123 13.1153 9.54473 14.1665" fill="#1EAFE6"/>
<path id="Vector_44" d="M16.173 16.7947C16.375 16.4357 16.5139 16.0639 16.6023 15.6922C16.6276 15.5639 16.6023 15.487 16.5644 15.4357C16.5139 15.3845 16.4634 15.3588 16.3877 15.3588H14.4434L14.5444 15.4486C14.6075 15.5383 14.6454 15.6409 14.6454 15.7691C14.6454 15.8588 14.6075 15.9486 14.5823 16.0383C14.557 16.1281 14.5318 16.2178 14.4939 16.3075C14.3424 16.705 14.1151 17.0768 13.8374 17.3973C13.5217 17.7691 13.1556 18.0896 12.7642 18.3588C12.638 18.4486 12.4991 18.5383 12.3728 18.6152C11.2239 19.2434 10.1255 19.346 9.60788 19.3332C4.86075 19.2563 0.757522 15.2563 0.833274 10.4357C0.909026 5.69215 4.785 1.83318 9.45637 1.83318C9.50687 1.83318 9.55737 1.83318 9.60788 1.83318C12.7516 1.88446 15.5292 3.65369 16.9937 6.33318C17.0947 6.56395 17.0442 6.75626 16.9937 6.79472H18.4961C18.6981 6.79472 18.8496 6.57677 18.7739 6.38446C17.3219 2.7819 13.8879 0.294719 9.89826 0.230616C9.84776 0.230616 9.78463 0.230616 9.73413 0.230616C4.16636 0.217796 -0.378757 5.06395 0.0252532 10.8204C0.404013 16.1024 4.89863 20.1281 10.1129 19.987C10.1508 19.987 10.2013 19.987 10.2391 19.987C10.8578 19.9614 11.4512 19.8588 12.0572 19.705C12.6001 19.5639 13.143 19.3716 13.648 19.1152C14.1151 18.8845 14.5444 18.6024 14.9358 18.2563C15.1883 18.0383 15.4155 17.8075 15.6175 17.5896C16.5013 18.5511 17.5997 19.3204 18.938 19.9229L19.7208 18.6793C18.3067 18.1409 17.1326 17.5127 16.1857 16.7947" fill="#1EAFE6"/>
</g>
</g>
</svg>
