<svg width="108" height="18" viewBox="0 0 108 18" fill="none" xmlns="http://www.w3.org/2000/svg">
<g id="Layer 1">
<g id="Group">
<g id="Group_2">
<path id="Vector" d="M18.524 9C18.524 13.9715 14.3771 18 9.27116 18C4.16525 18 0.0109863 13.9715 0.0109863 9C0.0109863 4.02847 4.15427 0 9.27116 0C14.388 0 18.524 4.03203 18.524 9Z" fill="white"/>
<path id="Vector_2" d="M9.27848 17.5765C14.1428 17.5765 18.0885 13.7366 18.0885 9.00351C18.0885 4.27042 14.1428 0.427002 9.27482 0.427002C4.40682 0.427002 0.45752 4.26686 0.45752 9.00351C0.45752 13.7402 4.40316 17.5765 9.27482 17.5765H9.27848Z" fill="#0083CA"/>
<g id="Clip path group">
<mask id="mask0_1119_4953" style="mask-type:luminance" maskUnits="userSpaceOnUse" x="0" y="0" width="19" height="18">
<g id="clippath-1">
<path id="Vector_3" d="M9.27848 17.5766C14.1428 17.5766 18.0885 13.7367 18.0885 9.0036C18.0885 4.2705 14.1428 0.434204 9.27482 0.434204C4.40682 0.434204 0.45752 4.2705 0.45752 9.0036C0.45752 13.7367 4.40316 17.5766 9.27482 17.5766H9.27848Z" fill="white"/>
</g>
</mask>
<g mask="url(#mask0_1119_4953)">
<g id="Group_3">
<g id="Group_4">
<path id="Vector_4" d="M9.35534 13.1389C13.2351 13.1389 16.5512 14.1923 17.9786 15.6798C18.4508 14.6193 18.7107 13.4414 18.7107 12.2136C18.7107 7.2919 14.5161 3.30969 9.35168 3.30969C4.18721 3.30969 0 7.2919 0 12.2172C0 13.4449 0.263531 14.6193 0.73569 15.6798C2.15949 14.1887 5.4829 13.1389 9.35534 13.1389Z" fill="#0083CA"/>
<path id="Vector_5" d="M9.35535 13.1495C13.2241 13.1495 16.5329 14.1922 17.9567 15.6726C18.4252 14.6228 18.6887 13.452 18.6887 12.2314C18.6887 7.34879 14.5052 3.38794 9.35535 3.38794C4.20552 3.38794 0.0219727 7.34879 0.0219727 12.2349C0.0219727 13.452 0.285503 14.6193 0.757662 15.6726C2.1778 14.1958 5.49023 13.1495 9.35535 13.1495Z" fill="#0085CB"/>
<path id="Vector_6" d="M9.3517 13.1566C13.2095 13.1566 16.511 14.1922 17.9311 15.6584C18.3996 14.6157 18.6631 13.4555 18.6631 12.2456C18.6631 7.40217 14.4905 3.45911 9.3517 3.45911C4.21285 3.45911 0.0439453 7.40572 0.0439453 12.2491C0.0439453 13.4555 0.307476 14.6121 0.775975 15.6584C2.19245 14.1922 5.49757 13.1566 9.3517 13.1566Z" fill="#0086CD"/>
<path id="Vector_7" d="M9.35172 13.1674C13.2022 13.1674 16.4927 14.1958 17.9091 15.6478C18.3776 14.6122 18.6375 13.4627 18.6375 12.2635C18.6375 7.45918 14.4759 3.53748 9.35172 3.53748C4.22751 3.53748 0.0695801 7.46274 0.0695801 12.267C0.0695801 13.4663 0.333111 14.6122 0.80161 15.6478C2.21443 14.1958 5.51222 13.1674 9.35538 13.1674H9.35172Z" fill="#0088CE"/>
<path id="Vector_8" d="M9.35173 13.178C13.1912 13.178 16.4744 14.1958 17.8872 15.6371C18.3557 14.6122 18.6156 13.4698 18.6156 12.2812C18.6156 7.51608 14.465 3.61572 9.35173 3.61572C4.2385 3.61572 0.0915527 7.51964 0.0915527 12.2848C0.0915527 13.4734 0.355083 14.6122 0.819922 15.6371C2.22908 14.1958 5.51589 13.178 9.34807 13.178H9.35173Z" fill="#008ACF"/>
<path id="Vector_9" d="M9.34808 13.1851C13.1766 13.1851 16.4524 14.1958 17.8616 15.6264C18.3264 14.6086 18.5863 13.4769 18.5863 12.299C18.5863 7.57299 14.4467 3.69043 9.34808 3.69043C4.24949 3.69043 0.113525 7.57655 0.113525 12.299C0.113525 13.4769 0.373396 14.605 0.841895 15.6264C2.24739 14.1958 5.52689 13.1851 9.34808 13.1851Z" fill="#008CD0"/>
<path id="Vector_10" d="M9.34797 13.1958C13.1655 13.1958 16.434 14.1958 17.8395 15.6158C18.3044 14.6087 18.5642 13.4841 18.5642 12.3168C18.5642 7.63001 14.4356 3.7688 9.34797 3.7688C4.26036 3.7688 0.135376 7.63001 0.135376 12.3168C0.135376 13.4877 0.395246 14.6051 0.863745 15.6158C2.26558 14.1994 5.53775 13.1958 9.34797 13.1958Z" fill="#008ED2"/>
<path id="Vector_11" d="M9.34798 13.2065C13.1582 13.2065 16.4157 14.1994 17.8176 15.6051C18.2824 14.6051 18.5386 13.4912 18.5386 12.3311C18.5386 7.68692 14.4209 3.84351 9.34798 3.84351C4.27502 3.84351 0.157349 7.68692 0.157349 12.3346C0.157349 13.4948 0.417219 14.6051 0.882058 15.6051C2.28023 14.1994 5.54143 13.2065 9.34432 13.2065H9.34798Z" fill="#008FD3"/>
<path id="Vector_12" d="M9.34433 13.2136C13.1436 13.2136 16.3938 14.1994 17.792 15.5908C18.2568 14.5979 18.513 13.4947 18.513 12.3453C18.513 7.74029 14.4063 3.91467 9.34433 3.91467C4.28235 3.91467 0.182983 7.74385 0.182983 12.3488C0.182983 13.4983 0.442854 14.5979 0.907693 15.5908C2.30221 14.1958 5.55608 13.2136 9.34799 13.2136H9.34433Z" fill="#0091D4"/>
<path id="Vector_13" d="M9.34435 13.2242C13.1326 13.2242 16.3755 14.1993 17.77 15.5801C18.2312 14.5979 18.4874 13.5018 18.4874 12.363C18.4874 7.79719 14.3917 3.99292 9.34435 3.99292C4.297 3.99292 0.204956 7.80075 0.204956 12.3666C0.204956 13.5089 0.464827 14.5979 0.926005 15.5837C2.31686 14.2029 5.56341 13.2278 9.34435 13.2278V13.2242Z" fill="#0093D5"/>
<path id="Vector_14" d="M9.34436 13.235C13.1253 13.235 16.3572 14.2029 17.7481 15.573C18.2092 14.598 18.4655 13.5161 18.4655 12.3844C18.4655 7.85775 14.3807 4.07483 9.34436 4.07483C4.30799 4.07483 0.226929 7.85775 0.226929 12.3844C0.226929 13.5161 0.486799 14.598 0.947978 15.573C2.33517 14.2029 5.57075 13.235 9.34436 13.235Z" fill="#0095D7"/>
<path id="Vector_15" d="M9.34071 13.2421C13.1107 13.2421 16.3353 14.1994 17.7224 15.5588C18.1836 14.5944 18.4398 13.5197 18.4398 12.3987C18.4398 7.91112 14.3661 4.146 9.34437 4.146C4.32265 4.146 0.248901 7.91468 0.248901 12.3987C0.248901 13.5197 0.505112 14.5908 0.96629 15.5588C2.34983 14.1994 5.57808 13.2421 9.34071 13.2421Z" fill="#0097D8"/>
<path id="Vector_16" d="M9.34072 13.2527C13.0997 13.2527 16.317 14.2029 17.6968 15.5481C18.158 14.5908 18.4106 13.5268 18.4106 12.4129C18.4106 7.96448 14.3478 4.2207 9.33706 4.2207C4.32632 4.2207 0.270874 7.97159 0.270874 12.4164C0.270874 13.5268 0.527084 14.5908 0.988263 15.5481C2.36814 14.2029 5.58907 13.2527 9.34072 13.2527Z" fill="#0099D9"/>
<path id="Vector_17" d="M9.34074 13.2634C13.0887 13.2634 16.2987 14.2029 17.6749 15.5374C18.1361 14.5872 18.3886 13.5338 18.3886 12.4306C18.3886 8.02495 14.3368 4.29541 9.34074 4.29541C4.34463 4.29541 0.296509 8.02495 0.296509 12.4342C0.296509 13.5374 0.552719 14.5908 1.01024 15.5374C2.38645 14.2029 5.5964 13.2634 9.34074 13.2634Z" fill="#009BDA"/>
<path id="Vector_18" d="M9.33709 13.2741C13.0778 13.2741 16.2767 14.2065 17.6493 15.5303C18.1068 14.5908 18.3594 13.5446 18.3594 12.4521C18.3594 8.08551 14.3185 4.37732 9.33343 4.37732C4.3483 4.37732 0.318481 8.08195 0.318481 12.4485C0.318481 13.541 0.574692 14.5873 1.03221 15.5268C2.40477 14.2029 5.6074 13.2706 9.34075 13.2706L9.33709 13.2741Z" fill="#009DDC"/>
<path id="Vector_19" d="M9.3371 13.2812C13.0668 13.2812 16.2584 14.2065 17.6273 15.5161C18.0849 14.5837 18.3374 13.5481 18.3374 12.4663C18.3374 8.13886 14.3076 4.45203 9.3371 4.45203C4.36662 4.45203 0.340454 8.13886 0.340454 12.4663C0.340454 13.5481 0.596664 14.5837 1.05052 15.5161C2.41942 14.2065 5.61473 13.2812 9.3371 13.2812Z" fill="#009FDD"/>
<path id="Vector_20" d="M9.33699 13.2918C13.0557 13.2918 16.24 14.2064 17.6053 15.5054C18.0628 14.5837 18.3117 13.5552 18.3117 12.484C18.3117 8.19575 14.2928 4.53027 9.33333 4.53027C4.37383 4.53027 0.362305 8.19575 0.362305 12.484C0.362305 13.5552 0.614855 14.5837 1.07237 15.5054C2.43761 14.2064 5.62194 13.2918 9.33699 13.2918Z" fill="#00A1DE"/>
<path id="Vector_21" d="M9.33334 13.3026C13.0411 13.3026 16.2181 14.2101 17.5797 15.4948C18.0372 14.5802 18.2861 13.5624 18.2861 12.4984C18.2861 8.24925 14.2745 4.60156 9.33334 4.60156C4.39214 4.60156 0.384277 8.25281 0.384277 12.4984C0.384277 13.5624 0.636828 14.5802 1.09069 15.4912C2.45226 14.203 5.62927 13.2991 9.32968 13.2991L9.33334 13.3026Z" fill="#00A3DF"/>
<path id="Vector_22" d="M9.33335 13.3097C13.0338 13.3097 16.1998 14.2065 17.5577 15.4805C18.0116 14.5766 18.2641 13.5659 18.2641 12.5126C18.2641 8.3026 14.2636 4.67627 9.33335 4.67627C4.40313 4.67627 0.409912 8.30972 0.409912 12.5161C0.409912 13.5695 0.662462 14.5766 1.11632 15.4841C2.47424 14.2101 5.64392 13.3133 9.33335 13.3133V13.3097Z" fill="#00A5E1"/>
<path id="Vector_23" d="M9.33336 13.3204C13.0228 13.3204 16.1815 14.21 17.5358 15.4734C17.9896 14.5766 18.2385 13.5766 18.2385 12.5339C18.2385 8.36662 14.2489 4.75452 9.33336 4.75452C4.41779 4.75452 0.431885 8.36662 0.431885 12.5339C0.431885 13.5766 0.684435 14.5766 1.13463 15.4734C2.48889 14.21 5.65126 13.3204 9.3297 13.3204H9.33336Z" fill="#00A7E2"/>
<path id="Vector_24" d="M9.32972 13.331C13.0082 13.331 16.1596 14.21 17.5101 15.4627C17.964 14.573 18.2129 13.5837 18.2129 12.5516C18.2129 8.42351 14.2343 4.83276 9.32972 4.83276C4.42512 4.83276 0.453857 8.41995 0.453857 12.5516C0.453857 13.5872 0.706408 14.5765 1.15661 15.4627C2.5072 14.21 5.65859 13.331 9.32972 13.331Z" fill="#00A9E3"/>
<path id="Vector_25" d="M9.32973 13.3382C13.0009 13.3382 16.1413 14.2101 17.4882 15.4485C17.9421 14.5695 18.1873 13.5873 18.1873 12.566C18.1873 8.47699 14.2197 4.90759 9.32973 4.90759C4.43977 4.90759 0.47583 8.47699 0.47583 12.566C0.47583 13.5909 0.72472 14.5695 1.17492 15.4485C2.52185 14.2101 5.66592 13.3382 9.32607 13.3382H9.32973Z" fill="#00ABE5"/>
<path id="Vector_26" d="M9.32974 13.3489C12.9899 13.3489 16.123 14.2136 17.4663 15.4378C17.9165 14.5659 18.1653 13.5944 18.1653 12.5802C18.1653 8.53036 14.2087 4.97876 9.32974 4.97876C4.45076 4.97876 0.501465 8.53392 0.501465 12.5837C0.501465 13.598 0.750355 14.5695 1.20055 15.4414C2.54383 14.2136 5.68057 13.3524 9.32974 13.3524V13.3489Z" fill="#00ADE6"/>
<path id="Vector_27" d="M9.32609 13.3595C12.9753 13.3595 16.101 14.2136 17.4406 15.4307C17.8908 14.5694 18.1361 13.605 18.1361 12.6015C18.1361 8.5908 14.1904 5.06055 9.32609 5.06055C4.46176 5.06055 0.523438 8.5908 0.523438 12.6015C0.523438 13.605 0.772328 14.5694 1.22253 15.4307C2.56214 14.2171 5.68791 13.3595 9.32975 13.3595H9.32609Z" fill="#00AFE7"/>
<path id="Vector_28" d="M9.32611 13.3667C12.9643 13.3667 16.0827 14.2137 17.4187 15.4165C17.8689 14.5624 18.1141 13.6122 18.1141 12.6158C18.1141 8.64427 14.1795 5.13538 9.32611 5.13538C4.47275 5.13538 0.54541 8.64783 0.54541 12.6158C0.54541 13.6122 0.7943 14.5624 1.24084 15.4165C2.57679 14.2137 5.69524 13.3667 9.32611 13.3667Z" fill="#00B2E9"/>
<path id="Vector_29" d="M9.32612 13.3773C12.957 13.3773 16.0645 14.2136 17.3967 15.4058C17.8469 14.5588 18.0885 13.6193 18.0885 12.6336C18.0885 8.70119 14.1648 5.21008 9.32612 5.21008C4.4874 5.21008 0.567383 8.70475 0.567383 12.6336C0.567383 13.6193 0.816273 14.5624 1.26281 15.4058C2.59511 14.2136 5.70257 13.3773 9.32612 13.3773Z" fill="#00B4EA"/>
<path id="Vector_30" d="M9.32235 13.388C12.9422 13.388 16.0424 14.2172 17.371 15.3951C17.8176 14.5588 18.0628 13.6264 18.0628 12.6513C18.0628 8.76164 14.1501 5.28833 9.32601 5.28833C4.50193 5.28833 0.589233 8.76164 0.589233 12.6513C0.589233 13.6264 0.838123 14.5624 1.281 15.3987C2.60964 14.2207 5.70978 13.3915 9.32235 13.3915V13.388Z" fill="#00B6EB"/>
<path id="Vector_31" d="M9.32236 13.3986C12.9313 13.3986 16.0241 14.2171 17.3454 15.3879C17.7919 14.5587 18.0372 13.637 18.0372 12.6691C18.0372 8.81853 14.1355 5.36658 9.32236 5.36658C4.50927 5.36658 0.614868 8.81498 0.614868 12.6655C0.614868 13.6335 0.860098 14.5552 1.30664 15.3844C2.63161 14.2171 5.72443 13.395 9.32602 13.395L9.32236 13.3986Z" fill="#00B8ED"/>
<path id="Vector_32" d="M9.32237 13.4058C12.9203 13.4058 16.0058 14.2172 17.3235 15.3738C17.77 14.5553 18.0116 13.6407 18.0116 12.6834C18.0116 8.87203 14.1208 5.43787 9.32237 5.43787C4.52392 5.43787 0.636841 8.87203 0.636841 12.6834C0.636841 13.6407 0.882071 14.5553 1.32495 15.3738C2.64626 14.2172 5.73177 13.4058 9.32237 13.4058Z" fill="#01BBEE"/>
<path id="Vector_33" d="M9.31872 13.4165C12.9093 13.4165 15.9839 14.2207 17.2978 15.3631C17.7444 14.5517 17.986 13.6478 17.986 12.7012C17.986 8.92892 14.1062 5.51611 9.31872 5.51611C4.53125 5.51611 0.658813 8.92892 0.658813 12.7012C0.658813 13.6478 0.904043 14.5553 1.34692 15.3631C2.66457 14.2207 5.7391 13.4165 9.32238 13.4165H9.31872Z" fill="#11BDF0"/>
<path id="Vector_34" d="M9.31874 13.4271C12.8984 13.4271 15.9656 14.2207 17.2759 15.3524C17.7188 14.5481 17.9603 13.6549 17.9603 12.7189C17.9603 8.98582 14.0916 5.59436 9.31874 5.59436C4.5459 5.59436 0.680786 8.98582 0.680786 12.7154C0.680786 13.6513 0.926016 14.5481 1.36523 15.3524C2.67923 14.2207 5.74643 13.4271 9.31874 13.4271Z" fill="#1AC0F1"/>
<path id="Vector_35" d="M9.31875 13.4342C12.8874 13.4342 15.9473 14.2207 17.2539 15.3381C17.6968 14.5445 17.9384 13.6584 17.9384 12.7331C17.9384 9.03919 14.0806 5.66553 9.31875 5.66553C4.55689 5.66553 0.702759 9.04275 0.702759 12.7331C0.702759 13.662 0.947989 14.5481 1.38721 15.3417C2.69754 14.2207 5.75742 13.4378 9.31509 13.4378L9.31875 13.4342Z" fill="#1FC4F4"/>
<path id="Vector_36" d="M9.31876 13.4556C12.8837 13.4556 15.94 14.2349 17.243 15.3488C17.6859 14.5588 17.9238 13.6798 17.9238 12.7581C17.9238 9.08903 14.0696 5.73315 9.3151 5.73315C4.56056 5.73315 0.717407 9.09258 0.717407 12.7581C0.717407 13.6798 0.958977 14.5623 1.40185 15.3488C2.70853 14.2349 5.76475 13.4556 9.32242 13.4556H9.31876Z" fill="#32C5F4"/>
<path id="Vector_37" d="M9.31876 13.4805C12.8801 13.4805 15.929 14.2563 17.232 15.3595C17.6749 14.5765 17.9128 13.7011 17.9128 12.7865C17.9128 9.14238 14.0623 5.80786 9.3151 5.80786C4.56789 5.80786 0.728394 9.14238 0.728394 12.7865C0.728394 13.7011 0.969963 14.5765 1.40918 15.3595C2.71585 14.2527 5.76476 13.4805 9.31876 13.4805Z" fill="#3FC7F4"/>
<path id="Vector_38" d="M9.31877 13.5018C12.8728 13.5018 15.9217 14.274 17.221 15.3701C17.6602 14.5908 17.9018 13.7224 17.9018 12.815C17.9018 9.19219 14.0587 5.87903 9.31877 5.87903C4.57888 5.87903 0.73938 9.1922 0.73938 12.8114C0.73938 13.7224 0.98095 14.5908 1.42017 15.3666C2.72318 14.2705 5.77208 13.4982 9.31877 13.4982V13.5018Z" fill="#4AC8F5"/>
<path id="Vector_39" d="M9.31877 13.5232C12.8691 13.5232 15.9107 14.2883 17.2101 15.3773C17.6493 14.605 17.8908 13.7403 17.8908 12.8399C17.8908 9.24203 14.0513 5.94666 9.31877 5.94666C4.5862 5.94666 0.750366 9.24203 0.750366 12.8399C0.750366 13.7438 0.991936 14.6086 1.43115 15.3808C2.73417 14.2919 5.77575 13.5267 9.31877 13.5232Z" fill="#54CAF5"/>
<path id="Vector_40" d="M9.31878 13.5445C12.8655 13.5445 15.9034 14.3061 17.1991 15.3879C17.6383 14.6192 17.8762 13.7652 17.8762 12.8684C17.8762 9.2954 14.044 6.01782 9.31512 6.01782C4.58621 6.01782 0.761353 9.2954 0.761353 12.8648C0.761353 13.7616 1.00292 14.6192 1.43848 15.3879C2.73783 14.3061 5.77942 13.5445 9.31512 13.5445H9.31878Z" fill="#5CCCF5"/>
<path id="Vector_41" d="M9.31878 13.5659C12.8581 13.5659 15.8924 14.3203 17.1881 15.3951C17.6273 14.6299 17.8652 13.783 17.8652 12.8897C17.8652 9.3417 14.0367 6.08191 9.31513 6.08191C4.59353 6.08191 0.772339 9.34525 0.772339 12.8933C0.772339 13.7865 1.01391 14.6371 1.44947 15.3986C2.74882 14.3239 5.78308 13.5659 9.31513 13.5659H9.31878Z" fill="#64CDF6"/>
<path id="Vector_42" d="M9.31879 13.5872C12.8545 13.5872 15.8851 14.3381 17.1808 15.4057C17.62 14.6477 17.8579 13.8043 17.8579 12.9182C17.8579 9.39149 14.0331 6.15662 9.31879 6.15662C4.60452 6.15662 0.786987 9.39505 0.786987 12.9182C0.786987 13.8043 1.02856 14.6477 1.46411 15.4057C2.75981 14.3381 5.79041 13.5872 9.31879 13.5872Z" fill="#6CCFF6"/>
<path id="Vector_43" d="M9.31868 13.6086C12.8507 13.6086 15.8777 14.3523 17.1697 15.4164C17.6053 14.6619 17.8468 13.8256 17.8468 12.9466C17.8468 9.44487 14.0293 6.22778 9.32234 6.22778C4.61539 6.22778 0.797852 9.44486 0.797852 12.9431C0.797852 13.8221 1.03942 14.6619 1.47498 15.4164C2.77067 14.3559 5.79761 13.6086 9.31868 13.6086Z" fill="#73D1F6"/>
<path id="Vector_44" d="M9.31868 13.6336C12.8434 13.6336 15.8667 14.3738 17.1587 15.4272C17.5943 14.6799 17.8358 13.8471 17.8358 12.9752C17.8358 9.49836 14.022 6.29907 9.32234 6.29907C4.62271 6.29907 0.808838 9.4948 0.808838 12.9717C0.808838 13.8471 1.05041 14.6799 1.48231 15.4272C2.77434 14.3738 5.79762 13.6336 9.31502 13.6336H9.31868Z" fill="#7AD2F7"/>
<path id="Vector_45" d="M9.31869 13.6549C12.8398 13.6549 15.8594 14.3916 17.1477 15.4379C17.5833 14.6941 17.8212 13.8685 17.8212 13.0037C17.8212 9.54818 14.0147 6.37024 9.31869 6.37024C4.62272 6.37024 0.819824 9.54462 0.819824 12.9966C0.819824 13.8649 1.06139 14.6905 1.49329 15.4343C2.78532 14.388 5.80495 13.6514 9.31503 13.6514L9.31869 13.6549Z" fill="#81D4F7"/>
<path id="Vector_46" d="M9.31869 13.6762C12.8361 13.6762 15.8484 14.4057 17.1368 15.4449C17.5723 14.7047 17.8102 13.8862 17.8102 13.025C17.8102 9.59435 14.0073 6.4342 9.31869 6.4342C4.63004 6.4342 0.830811 9.59435 0.830811 13.025C0.830811 13.8862 1.07238 14.7082 1.50428 15.4449C2.79265 14.4057 5.80861 13.6762 9.31503 13.6762H9.31869Z" fill="#88D6F8"/>
<path id="Vector_47" d="M9.3187 13.6976C12.8288 13.6976 15.8411 14.4236 17.1258 15.4557C17.5614 14.7226 17.7993 13.9076 17.7993 13.0535C17.7993 9.64782 14.0037 6.50903 9.3187 6.50903C4.63371 6.50903 0.845459 9.64782 0.845459 13.05C0.845459 13.9076 1.08337 14.7226 1.51527 15.4557C2.80364 14.4236 5.81228 13.6976 9.31504 13.6976H9.3187Z" fill="#8ED8F8"/>
<path id="Vector_48" d="M9.31871 13.7189C12.8251 13.7189 15.8301 14.4377 17.1148 15.4627C17.5467 14.7331 17.7883 13.9253 17.7883 13.0783C17.7883 9.69753 13.9964 6.57654 9.32237 6.57654C4.64836 6.57654 0.856445 9.69753 0.856445 13.0783C0.856445 13.9289 1.09436 14.7367 1.52625 15.4662C2.81096 14.4413 5.81961 13.7224 9.31871 13.7224V13.7189Z" fill="#94DAF8"/>
<path id="Vector_49" d="M9.31872 13.7404C12.8215 13.7404 15.8228 14.4557 17.1039 15.4734C17.5357 14.751 17.7737 13.9468 17.7737 13.1069C17.7737 9.74747 13.9854 6.64783 9.31872 6.64783C4.65203 6.64783 0.867432 9.74747 0.867432 13.1033C0.867432 13.9468 1.10534 14.751 1.53724 15.4734C2.82195 14.4557 5.82327 13.7404 9.31872 13.7404Z" fill="#9BDCF9"/>
<path id="Vector_50" d="M9.31872 13.7616C12.8142 13.7616 15.8155 14.4733 17.0929 15.4805C17.5248 14.7616 17.7627 13.9644 17.7627 13.1317C17.7627 9.79718 13.9817 6.71533 9.31872 6.71533C4.65569 6.71533 0.878418 9.79718 0.878418 13.1281C0.878418 13.968 1.11633 14.7616 1.54823 15.4805C2.82928 14.4698 5.8306 13.7616 9.31872 13.7616Z" fill="#A1DDF9"/>
<path id="Vector_51" d="M9.31873 13.783C12.8105 13.783 15.8045 14.4876 17.0819 15.4911C17.5138 14.7794 17.7517 13.9894 17.7517 13.1566C17.7517 9.84702 13.9744 6.78296 9.31873 6.78296C4.66302 6.78296 0.889404 9.84702 0.889404 13.1566C0.889404 13.9894 1.12731 14.7794 1.55555 15.4911C2.8366 14.4876 5.83061 13.783 9.31507 13.783H9.31873Z" fill="#A7DFF9"/>
<path id="Vector_52" d="M9.31873 13.808C12.8069 13.808 15.7972 14.509 17.0709 15.5019C17.4992 14.7937 17.7407 14.0108 17.7407 13.1852C17.7407 9.89693 13.9708 6.85779 9.31873 6.85779C4.66668 6.85779 0.900391 9.89693 0.900391 13.1816C0.900391 14.0073 1.1383 14.7937 1.56654 15.5019C2.84393 14.5055 5.83427 13.808 9.31507 13.808H9.31873Z" fill="#ADE1FA"/>
<path id="Vector_53" d="M9.31874 13.8293C12.7995 13.8293 15.7862 14.5233 17.06 15.5126C17.4882 14.808 17.7261 14.0322 17.7261 13.2137C17.7261 9.95031 13.9598 6.92896 9.31874 6.92896C4.67767 6.92896 0.915039 9.94675 0.915039 13.2101C0.915039 14.0322 1.15295 14.808 1.58119 15.5126C2.85858 14.5233 5.84526 13.8293 9.31874 13.8293Z" fill="#B3E3FA"/>
<path id="Vector_54" d="M9.31875 13.8507C12.7959 13.8507 15.7789 14.5411 17.049 15.5197C17.4772 14.8222 17.7151 14.05 17.7151 13.2386C17.7151 10.0001 13.9525 6.99658 9.31875 6.99658C4.685 6.99658 0.926025 10.0001 0.926025 13.235C0.926025 14.05 1.16394 14.8222 1.58851 15.5197C2.86224 14.5375 5.84527 13.8507 9.31509 13.8471L9.31875 13.8507Z" fill="#B8E5FA"/>
<path id="Vector_55" d="M9.31875 13.8719C12.7922 13.8719 15.7716 14.5587 17.038 15.5303C17.4662 14.8363 17.7041 14.0712 17.7041 13.2634C17.7041 10.0463 13.9488 7.06409 9.31875 7.06409C4.68866 7.06409 0.937012 10.0499 0.937012 13.2634C0.937012 14.0712 1.17492 14.8363 1.5995 15.5303C2.87323 14.5587 5.85259 13.8719 9.31509 13.8719H9.31875Z" fill="#BEE7FB"/>
<path id="Vector_56" d="M9.31876 13.8933C12.7849 13.8933 15.7606 14.573 17.027 15.5374C17.4516 14.8506 17.6932 14.089 17.6932 13.2883C17.6932 10.0961 13.9415 7.13171 9.31876 7.13171C4.69599 7.13171 0.947998 10.0997 0.947998 13.2883C0.947998 14.0926 1.18591 14.8506 1.61048 15.541C2.88056 14.5766 5.85626 13.8968 9.3151 13.8933H9.31876Z" fill="#C4E9FB"/>
<path id="Vector_57" d="M9.31876 13.9146C12.7813 13.9146 15.7533 14.5908 17.0161 15.5481C17.4406 14.8648 17.6785 14.1104 17.6785 13.3168C17.6785 10.1495 13.9305 7.20288 9.3151 7.20288C4.69966 7.20288 0.958984 10.1495 0.958984 13.3168C0.958984 14.1139 1.19689 14.8684 1.62147 15.5516C2.89154 14.5943 5.85992 13.9182 9.3151 13.9182L9.31876 13.9146Z" fill="#CAEBFC"/>
<path id="Vector_58" d="M9.31877 13.936C12.7776 13.936 15.7423 14.605 17.0051 15.5552C17.4297 14.8755 17.6676 14.1281 17.6676 13.3417C17.6676 10.1993 13.9269 7.27405 9.31511 7.27405C4.70332 7.27405 0.973633 10.1993 0.973633 13.3417C0.973633 14.1317 1.20788 14.879 1.63246 15.5587C2.89887 14.6086 5.86725 13.9395 9.31877 13.936Z" fill="#CFEDFC"/>
<path id="Vector_59" d="M9.31878 13.961C12.774 13.961 15.735 14.6265 16.9941 15.5695C17.4187 14.8969 17.6566 14.1531 17.6566 13.3738C17.6566 10.2528 13.9196 7.34888 9.31878 7.34888C4.71797 7.34888 0.984619 10.2492 0.984619 13.3667C0.984619 14.1531 1.21887 14.8934 1.64345 15.566C2.90986 14.6229 5.87092 13.9574 9.31878 13.9574V13.961Z" fill="#D5EFFC"/>
<path id="Vector_60" d="M9.31878 13.9822C12.7666 13.9822 15.724 14.6406 16.9831 15.5765C17.4077 14.9075 17.6456 14.1708 17.6456 13.395C17.6456 10.299 13.9159 7.41284 9.31878 7.41284C4.72164 7.41284 0.995605 10.3025 0.995605 13.395C0.995605 14.1744 1.22985 14.9111 1.65443 15.5801C2.91718 14.6442 5.87824 13.9858 9.31878 13.9822Z" fill="#DAF1FD"/>
<path id="Vector_61" d="M9.31879 14.0036C12.763 14.0036 15.7167 14.6584 16.9758 15.5872C17.3967 14.9253 17.6346 14.1958 17.6346 13.4235C17.6346 10.3523 13.9086 7.48401 9.31879 7.48401C4.72896 7.48401 1.00659 10.3523 1.00659 13.42C1.00659 14.1922 1.24084 14.9217 1.66542 15.5872C2.92451 14.6584 5.88191 14.0036 9.31879 14.0036Z" fill="#E0F3FD"/>
<path id="Vector_62" d="M9.31879 14.0249C12.7557 14.0249 15.7094 14.6762 16.9648 15.5943C17.3858 14.936 17.6237 14.2136 17.6237 13.4484C17.6237 10.3986 13.905 7.55164 9.31879 7.55164C4.73263 7.55164 1.01758 10.4022 1.01758 13.4484C1.01758 14.2171 1.25183 14.9395 1.67274 15.5979C2.93184 14.6762 5.88192 14.0285 9.31514 14.0249H9.31879Z" fill="#E6F5FD"/>
<path id="Vector_63" d="M9.31868 14.0464C12.7519 14.0464 15.6983 14.6905 16.9537 15.6051C17.3747 14.9539 17.6126 14.235 17.6126 13.477C17.6126 10.4521 13.8975 7.62646 9.31868 7.62646C4.73983 7.62646 1.02844 10.4521 1.02844 13.4734C1.02844 14.235 1.26269 14.9503 1.68361 15.6051C2.9427 14.6905 5.88912 14.0464 9.31502 14.0464H9.31868Z" fill="#EBF7FE"/>
<path id="Vector_64" d="M9.31869 14.0677C12.7482 14.0677 15.691 14.7082 16.9428 15.6121C17.3637 14.9645 17.6016 14.2527 17.6016 13.4983C17.6016 10.4983 13.8902 7.69043 9.32235 7.69043C4.75448 7.69043 1.04309 10.5018 1.04309 13.5018C1.04309 14.2563 1.27734 14.968 1.69826 15.6157C2.95369 14.7082 5.89645 14.0712 9.31869 14.0677Z" fill="#F1FAFE"/>
<path id="Vector_65" d="M9.31869 14.089C12.7446 14.089 15.68 14.7225 16.9318 15.6228C17.3491 14.9787 17.587 14.2741 17.587 13.5267C17.587 10.5516 13.8829 7.7616 9.31869 7.7616C4.75449 7.7616 1.05408 10.5516 1.05408 13.5267C1.05408 14.2776 1.28833 14.9822 1.70558 15.6264C2.95735 14.726 5.90011 14.0926 9.31503 14.0926L9.31869 14.089Z" fill="#F7FCFE"/>
<path id="Vector_66" d="M9.3187 14.1104C12.7373 14.1104 15.6727 14.7403 16.9208 15.6299C17.3381 14.9929 17.576 14.2919 17.576 13.5516C17.576 10.5979 13.8756 7.82922 9.3187 7.82922C4.76181 7.82922 1.06506 10.6015 1.06506 13.5552C1.06506 14.299 1.29931 14.9965 1.71657 15.6371C2.96834 14.7438 5.90378 14.1175 9.31504 14.1139L9.3187 14.1104Z" fill="white"/>
</g>
</g>
</g>
</g>
<path id="Vector_67" d="M9.27486 11.1672C6.28452 11.1672 3.50646 11.6619 1.21887 12.4982C2.59509 15.4911 5.68059 17.5765 9.27852 17.5765C12.8764 17.5765 15.951 15.4875 17.3308 12.4982C15.0396 11.6619 12.2615 11.1672 9.27486 11.1672Z" fill="#0083CA"/>
</g>
<g id="Group_5">
<path id="Vector_68" d="M20.9214 11.6761H26.7557V16.5622H29.0396V11.6761H34.8702V10.2953H20.9214V11.6761Z" fill="#0067AC"/>
<path id="Vector_69" d="M24.3362 7.9929C24.7901 8.33098 25.3245 8.60144 25.9321 8.80073C26.536 8.99646 27.1985 9.09611 27.8976 9.09611C28.5967 9.09611 29.2408 8.99646 29.8484 8.80073C30.4524 8.605 30.9904 8.33098 31.4443 7.9929C31.8981 7.64059 32.2641 7.23134 32.5313 6.7687C32.7985 6.30607 32.9339 5.80073 32.9339 5.26693C32.9339 4.73312 32.7985 4.24557 32.5313 3.78294C32.2641 3.32031 31.8981 2.91105 31.4443 2.55874C30.9904 2.22066 30.456 1.94664 29.8484 1.74379C29.2445 1.54095 28.5893 1.43774 27.8976 1.43774C27.2058 1.43774 26.536 1.54095 25.9321 1.74379C25.3281 1.94664 24.7901 2.22066 24.3362 2.5623C23.8824 2.91461 23.52 3.32742 23.2565 3.7865C22.9966 4.24913 22.8612 4.75091 22.8612 5.27048C22.8612 5.79006 22.993 6.30607 23.2565 6.7687C23.5164 7.23134 23.8787 7.64415 24.3362 7.99646V7.9929ZM25.1451 5.26693C25.1451 4.94308 25.2183 4.62991 25.3611 4.33454C25.5075 4.03561 25.7051 3.77582 25.954 3.55518C26.1993 3.32386 26.4921 3.14237 26.8251 3.0107C27.1546 2.87903 27.5169 2.81497 27.8976 2.81497C28.2782 2.81497 28.6223 2.87903 28.9554 3.0107C29.2884 3.14237 29.5812 3.32742 29.8301 3.55518C30.0754 3.77226 30.2767 4.03561 30.4267 4.33454C30.5768 4.62991 30.65 4.94308 30.65 5.26337C30.65 5.58365 30.5768 5.91461 30.4267 6.20999C30.2767 6.50892 30.0754 6.77226 29.8265 6.9929C29.5812 7.22066 29.2884 7.40216 28.9554 7.52671C28.2819 7.78294 27.473 7.77582 26.8215 7.52671C26.4921 7.40216 26.1993 7.22066 25.9504 6.9929C25.7015 6.77226 25.5038 6.51248 25.3611 6.21354C25.2183 5.91817 25.1451 5.59789 25.1451 5.26693Z" fill="#0067AC"/>
<path id="Vector_70" d="M47.2744 1.69397H45.4992L45.609 1.82564C45.653 1.87902 45.6786 1.93596 45.6896 2.00358C45.7408 2.21354 45.7664 2.5445 45.7664 2.9929V9.87191C45.7664 10.3025 45.5066 10.5908 44.9758 10.7509C44.8002 10.8043 44.522 10.8399 44.1523 10.8612H39.3136C39.0537 10.8612 38.9732 10.8043 38.9476 10.7687C38.8963 10.7011 38.8707 10.5943 38.8707 10.452V7.7082H43.0469C43.2995 7.7082 43.4679 7.66194 43.563 7.5623C43.6582 7.46621 43.7094 7.3203 43.7094 7.12457V2.71888C43.7094 2.52671 43.6582 2.37724 43.5557 2.28116C43.4532 2.18507 43.2812 2.13525 43.0323 2.13525H36.5063V3.51247H41.4255V6.3381H36.3452L36.4953 6.64059C36.5575 6.81497 36.5868 7.02849 36.5868 7.2776V11.2385C36.5868 11.4876 36.6746 11.7011 36.8503 11.879C37.0919 12.121 37.4762 12.2456 37.9996 12.2456H43.7094L44.6098 12.2135C45.1515 12.1602 45.5322 12.0641 45.7664 11.9217V16.4022H48.0467V2.29539C48.0467 2.03205 47.9149 1.71176 47.2744 1.69397Z" fill="#0067AC"/>
<path id="Vector_71" d="M51.5642 10.9466C51.6337 11.0356 51.6776 11.1103 51.6996 11.1708C51.7801 11.3665 51.8204 11.5978 51.8204 11.8541V15.1174C51.8204 15.4199 51.9302 15.6832 52.1461 15.9039C52.417 16.1779 52.8452 16.3203 53.4089 16.3203H62.3396V10.8185H51.4653L51.5642 10.9466ZM54.1043 14.5516V12.1993H60.0594V14.943H54.5362C54.3788 14.943 54.269 14.9074 54.2068 14.8398C54.1409 14.7687 54.108 14.6761 54.108 14.5551L54.1043 14.5516Z" fill="#0067AC"/>
<path id="Vector_72" d="M62.3213 6.91099L62.336 6.50173V2.47682C62.336 2.28465 62.2591 2.10672 62.1127 1.95725C61.9626 1.80778 61.7577 1.72949 61.4978 1.72949H51.6557V3.11028H60.052V6.81846C60.0337 7.00707 60.0081 7.1423 59.9788 7.2206C59.8837 7.45903 59.7226 7.57291 59.4774 7.57291H50.1001V8.95369H64.0489V7.57291H62.1273C62.2152 7.3843 62.2811 7.16366 62.3177 6.91099H62.3213Z" fill="#0067AC"/>
<path id="Vector_73" d="M68.4448 6.66545C68.8986 6.95015 69.4367 7.1779 70.0442 7.33805C70.6518 7.50175 71.3143 7.58716 72.0134 7.58716C72.7125 7.58716 73.3567 7.50175 73.9643 7.33805C74.5718 7.17434 75.1172 6.95015 75.582 6.66545C76.0396 6.37719 76.4056 6.03555 76.6728 5.65121C76.9436 5.25975 77.079 4.83627 77.079 4.38787C77.079 3.93947 76.94 3.53378 76.6728 3.14232C76.4056 2.75797 76.0396 2.41634 75.582 2.13164C75.1209 1.84694 74.5755 1.61563 73.9679 1.44837C73.3603 1.27755 72.7015 1.19214 72.0134 1.19214C71.3253 1.19214 70.6518 1.27755 70.0442 1.44837C69.4367 1.61919 68.8986 1.84694 68.4448 2.13164C67.9763 2.41634 67.6066 2.75797 67.3467 3.14232C67.0832 3.53378 66.9478 3.9537 66.9478 4.38787C66.9478 4.82203 67.0832 5.25975 67.3467 5.65121C67.6102 6.03555 67.9799 6.37719 68.4448 6.66545ZM69.2463 4.39143C69.2463 4.14943 69.3159 3.91812 69.4586 3.70459C69.6014 3.48751 69.799 3.29534 70.0442 3.12808C70.2931 2.96082 70.5896 2.82559 70.9263 2.72595C71.2631 2.6263 71.6291 2.57648 72.0171 2.57648C72.405 2.57648 72.7527 2.6263 73.0895 2.72595C73.4262 2.82559 73.7263 2.96082 73.9716 3.12808C74.2168 3.29534 74.4181 3.49107 74.5645 3.70815C74.7109 3.92168 74.7841 4.14943 74.7841 4.39143C74.7841 4.63342 74.7109 4.8683 74.5645 5.08538C74.4145 5.30958 74.2168 5.50531 73.9716 5.67257C73.7263 5.83983 73.4262 5.9715 73.0895 6.06758C72.4014 6.25975 71.5925 6.25619 70.9263 6.06758C70.5859 5.9715 70.2931 5.83983 70.0442 5.67257C69.799 5.50531 69.6014 5.30958 69.4586 5.08538C69.3195 4.8683 69.2463 4.63342 69.2463 4.38787V4.39143Z" fill="#0067AC"/>
<path id="Vector_74" d="M65.0408 9.50176H68.2105V11.3416C67.8005 11.6121 67.4638 11.9288 67.2186 12.2882C66.944 12.6832 66.805 13.1103 66.805 13.5587C66.805 14.0071 66.944 14.4484 67.2186 14.847C67.4894 15.2384 67.8664 15.5836 68.3312 15.8683C68.8034 16.1637 69.3597 16.395 69.9893 16.5623C70.6115 16.726 71.2923 16.8078 72.0134 16.8078C72.7344 16.8078 73.4006 16.726 74.0228 16.5623C74.6487 16.3986 75.2087 16.1637 75.6808 15.8683C76.1493 15.5836 76.5263 15.2384 76.8045 14.847C77.0863 14.4519 77.2291 14.0178 77.2291 13.5587C77.2291 13.0996 77.0863 12.6832 76.8045 12.2882C76.5556 11.9359 76.2225 11.6228 75.8162 11.3523V9.50176H78.9859V8.12097H65.0408V9.50176ZM70.4944 9.50176H73.5323V10.4519C73.0492 10.3594 72.5404 10.3096 72.0134 10.3096C71.4863 10.3096 70.9739 10.3558 70.4944 10.4484V9.4982V9.50176ZM69.3195 12.8647C69.4659 12.6441 69.6782 12.4377 69.9417 12.2633C70.2016 12.0961 70.5127 11.9573 70.8677 11.8505C71.2228 11.7437 71.6071 11.6904 72.0134 11.6904C72.4196 11.6904 72.7856 11.7437 73.1407 11.8505C73.4921 11.9537 73.8032 12.0925 74.063 12.2633C74.3339 12.4413 74.5462 12.6441 74.6999 12.8647C74.85 13.0854 74.9268 13.3131 74.9268 13.5587C74.9268 13.8042 74.85 14.0498 74.6999 14.2669C74.5462 14.4911 74.3339 14.6939 74.0667 14.8683C73.8068 15.0356 73.4994 15.1708 73.1443 15.2704C72.4233 15.4733 71.5668 15.4662 70.8677 15.2704C70.5127 15.1708 70.2016 15.0356 69.9454 14.8683C69.6782 14.6904 69.4696 14.4911 69.3195 14.2669C69.1731 14.0498 69.0999 13.8114 69.0999 13.5587C69.0999 13.306 69.1731 13.0818 69.3195 12.8647Z" fill="#0067AC"/>
<path id="Vector_75" d="M91.4305 12.6689L91.4451 12.2597V3.20632C91.4451 3.01414 91.3682 2.83977 91.2218 2.68674C91.0718 2.53372 90.8668 2.45898 90.6106 2.45898H80.7685V3.83621H89.1648V12.5764C89.1465 12.7615 89.1209 12.9003 89.0916 12.9786C88.9965 13.217 88.8354 13.3309 88.5939 13.3309H79.2166V14.7117H93.1654V13.3309H91.2475C91.3353 13.1423 91.4012 12.9216 91.4378 12.6689H91.4305Z" fill="#0067AC"/>
<path id="Vector_76" d="M95.5334 4.21344L95.6615 4.43764C95.7311 4.61202 95.7677 4.85401 95.7677 5.1565V7.00704C95.7677 7.25615 95.8555 7.46967 96.0312 7.64761C96.2691 7.8896 96.6571 8.01415 97.1805 8.01415H106.364V6.63337H98.4945C98.2493 6.63337 98.1614 6.58355 98.1285 6.5444C98.0773 6.47679 98.048 6.37358 98.048 6.22768V5.59422H105.624C105.873 5.59422 106.045 5.54796 106.141 5.44832C106.236 5.35223 106.283 5.20632 106.283 5.01059V2.34867C106.283 2.15294 106.239 2.01415 106.148 1.92163C106.056 1.8291 105.884 1.78284 105.624 1.78284H95.6872V3.16006H104.003V4.217H95.5334V4.21344Z" fill="#0067AC"/>
<path id="Vector_77" d="M105.753 11.0463H103.604L103.794 11.1886C103.868 11.2456 103.915 11.3167 103.941 11.4164C103.97 11.5232 103.992 11.6619 104.003 11.8221V12.5196H98.048V11.6584C98.048 11.1495 97.7516 11.0427 97.499 11.0427H95.4054L95.5884 11.1851C95.6689 11.2491 95.7165 11.3345 95.7348 11.452C95.7568 11.5836 95.7677 11.7082 95.7677 11.8221V15.3132C95.7677 15.5623 95.8556 15.7758 96.0313 15.9538C96.2692 16.1957 96.6572 16.3203 97.1806 16.3203H106.287V11.6619C106.287 11.484 106.243 11.3381 106.159 11.2242C106.067 11.1068 105.932 11.0463 105.753 11.0463ZM98.048 14.5516V13.9004H104.003V14.9395H98.4763C98.1578 14.9395 98.1066 14.8683 98.0993 14.847C98.0663 14.758 98.048 14.6584 98.048 14.5516Z" fill="#0067AC"/>
<path id="Vector_78" d="M94.0548 8.88611V10.2633H99.8854V11.8719H102.166V10.2633H108V8.88611H94.0548Z" fill="#0067AC"/>
</g>
</g>
</g>
</svg>
