<svg width="68" height="17" viewBox="0 0 68 17" fill="none" xmlns="http://www.w3.org/2000/svg">
<g id="&#235;&#160;&#136;&#236;&#157;&#180;&#236;&#150;&#180; 1">
<g id="Group">
<path id="Vector" d="M16.3387 8.70312C16.3387 13.1222 12.6819 16.7031 8.16934 16.7031C3.65675 16.7031 0 13.1222 0 8.70312C0 4.28408 3.65675 0.703125 8.16934 0.703125C12.6819 0.703125 16.3387 4.28408 16.3387 8.70312Z" fill="white"/>
<path id="Vector_2" d="M8.18233 16.3222C12.4745 16.3222 15.9626 12.9063 15.9626 8.70315C15.9626 4.49998 12.4745 1.08411 8.18233 1.08411C3.89018 1.08411 0.389038 4.49998 0.389038 8.70315C0.389038 12.9063 3.87722 16.3222 8.16936 16.3222" fill="#007BC7"/>
<g id="Clip path group">
<mask id="mask0_1145_2" style="mask-type:luminance" maskUnits="userSpaceOnUse" x="0" y="1" width="16" height="16">
<g id="clippath">
<path id="Vector_3" d="M0.389038 8.70315C0.389038 12.9063 3.87722 16.3222 8.16936 16.3222C12.4615 16.3222 15.9497 12.9063 15.9497 8.70315C15.9497 4.49998 12.4745 1.08411 8.18233 1.08411C3.89018 1.08411 0.389038 4.49998 0.389038 8.70315Z" fill="white"/>
</g>
</mask>
<g mask="url(#mask0_1145_2)">
<g id="Group_2">
<path id="Vector_4" d="M8.24714 12.3857C11.6705 12.3857 14.6011 13.3254 15.8589 14.646C16.2738 13.7063 16.5072 12.6523 16.5072 11.5603C16.5072 7.17933 12.8116 3.64917 8.24714 3.64917C3.68269 3.64917 0 7.19203 0 11.5603C0 12.6523 0.23341 13.6936 0.64836 14.646C1.90618 13.3254 4.83677 12.3857 8.26011 12.3857" fill="#007BC7"/>
<path id="Vector_5" d="M8.24714 12.3857C11.6575 12.3857 14.5751 13.3126 15.833 14.6333C16.2479 13.6936 16.4813 12.665 16.4813 11.573C16.4813 7.23011 12.7857 3.71265 8.24714 3.71265C3.70862 3.71265 0 7.23011 0 11.573C0 12.6523 0.23341 13.6936 0.64836 14.6333C1.90618 13.3126 4.8238 12.3857 8.23417 12.3857" fill="#007DC8"/>
<path id="Vector_6" d="M8.24709 12.3983C11.6575 12.3983 14.5621 13.3253 15.8199 14.6206C16.2349 13.6936 16.4683 12.665 16.4683 11.5856C16.4683 7.28088 12.7856 3.77612 8.24709 3.77612C3.70856 3.77612 0.0258789 7.28088 0.0258789 11.5856C0.0258789 12.665 0.259289 13.6809 0.674239 14.6206C1.91909 13.3126 4.83671 12.3983 8.23412 12.3983" fill="#007FCA"/>
<path id="Vector_7" d="M8.24715 12.411C11.6446 12.411 14.5492 13.3253 15.7941 14.6205C16.209 13.7063 16.4295 12.6777 16.4295 11.611C16.4295 7.34436 12.7597 3.85229 8.23418 3.85229C3.70863 3.85229 0.0518799 7.33166 0.0518799 11.611C0.0518799 12.6777 0.28529 13.6936 0.70024 14.6205C1.94509 13.3253 4.84974 12.411 8.24715 12.411Z" fill="#0080CB"/>
<path id="Vector_8" d="M8.24712 12.4111C11.6316 12.4111 14.5362 13.3127 15.7811 14.5953C16.196 13.681 16.4165 12.6651 16.4165 11.6111C16.4165 7.38256 12.7597 3.9032 8.24712 3.9032C3.73454 3.9032 0.0648193 7.38256 0.0648193 11.6238C0.0648193 12.6778 0.298229 13.6937 0.713179 14.608C1.95803 13.3254 4.86268 12.4238 8.23415 12.4238" fill="#0082CC"/>
<path id="Vector_9" d="M8.23422 12.4238C11.6187 12.4238 14.4974 13.3254 15.7422 14.5952C16.1572 13.6937 16.3776 12.6905 16.3776 11.6365C16.3776 7.43333 12.7209 3.99207 8.22125 3.99207C3.72164 3.99207 0.0908203 7.43333 0.0908203 11.6365C0.0908203 12.6905 0.32423 13.6937 0.73918 14.5952C1.98403 13.3254 4.87572 12.4238 8.24719 12.4238" fill="#0084CD"/>
<path id="Vector_10" d="M8.23417 12.4365C11.6056 12.4365 14.4844 13.3254 15.7292 14.5825C16.1442 13.6809 16.3646 12.6905 16.3646 11.6492C16.3646 7.48411 12.7208 4.05554 8.23417 4.05554C3.74751 4.05554 0.116699 7.48411 0.116699 11.6492C0.116699 12.6905 0.350109 13.6809 0.752092 14.5825C1.98398 13.3254 4.87566 12.4365 8.23417 12.4365Z" fill="#0086CF"/>
<path id="Vector_11" d="M8.23414 12.4365C11.5926 12.4365 14.4714 13.3254 15.7032 14.5698C16.1182 13.6809 16.3386 12.6904 16.3386 11.6619C16.3386 7.53489 12.7078 4.11902 8.22117 4.11902C3.73452 4.11902 0.129639 7.53489 0.129639 11.6619C0.129639 12.6904 0.363048 13.6809 0.765032 14.5698C1.99692 13.3254 4.87563 12.4365 8.23414 12.4365Z" fill="#0088D0"/>
<path id="Vector_12" d="M8.23421 12.4492C11.5927 12.4492 14.4585 13.3253 15.6903 14.5698C16.1053 13.6936 16.3257 12.7031 16.3257 11.6873C16.3257 7.59836 12.7079 4.19519 8.23421 4.19519C3.76052 4.19519 0.15564 7.58567 0.15564 11.6746C0.15564 12.7031 0.389049 13.6682 0.791032 14.5571C2.02292 13.3126 4.88867 12.4365 8.23421 12.4365" fill="#008AD1"/>
<path id="Vector_13" d="M8.23418 12.4618C11.5797 12.4618 14.4455 13.3253 15.6644 14.5571C16.0793 13.6809 16.2998 12.7158 16.2998 11.6999C16.2998 7.63644 12.6819 4.25867 8.23418 4.25867C3.78643 4.25867 0.168579 7.63644 0.168579 11.6999C0.168579 12.7158 0.401989 13.6809 0.803972 14.5571C2.03586 13.3253 4.88864 12.4618 8.23418 12.4618Z" fill="#008CD3"/>
<path id="Vector_14" d="M8.23412 12.4618C11.5667 12.4618 14.4195 13.3253 15.6514 14.5444C16.0533 13.6809 16.2868 12.7158 16.2868 11.7126C16.2868 7.68722 12.6819 4.32214 8.23412 4.32214C3.78637 4.32214 0.194458 7.68722 0.194458 11.7126C0.194458 12.7158 0.427868 13.6809 0.829851 14.5444C2.04877 13.3253 4.91452 12.4618 8.23412 12.4618Z" fill="#008ED4"/>
<path id="Vector_15" d="M8.23422 12.4745C11.5668 12.4745 14.4066 13.3253 15.6255 14.5317C16.0275 13.6682 16.2609 12.7158 16.2609 11.7253C16.2609 7.738 12.669 4.38562 8.23422 4.38562C3.79943 4.38562 0.20752 7.738 0.20752 11.7253C0.20752 12.7285 0.440929 13.6809 0.842912 14.5317C2.06183 13.3253 4.91461 12.4745 8.23422 12.4745Z" fill="#0090D5"/>
<path id="Vector_16" d="M8.23416 12.4873C11.5538 12.4873 14.3936 13.3381 15.6125 14.5318C16.0145 13.681 16.2479 12.7286 16.2479 11.7508C16.2479 7.8016 12.6689 4.46191 8.24713 4.46191C3.82531 4.46191 0.233398 7.7889 0.233398 11.7381C0.233398 12.7286 0.466808 13.6683 0.868791 14.5191C2.08771 13.3254 4.92753 12.4746 8.23416 12.4746" fill="#0092D7"/>
<path id="Vector_17" d="M8.23413 12.4873C11.5408 12.4873 14.3806 13.3254 15.5865 14.5063C15.9885 13.6682 16.2219 12.7286 16.2219 11.7508C16.2219 7.83968 12.643 4.52539 8.23413 4.52539C3.82529 4.52539 0.246338 7.83968 0.246338 11.7508C0.246338 12.7286 0.46678 13.6682 0.881731 14.5063C2.10065 13.3254 4.9275 12.4873 8.23413 12.4873Z" fill="#0094D8"/>
<path id="Vector_18" d="M8.2342 12.5C11.5279 12.5 14.3547 13.3254 15.5736 14.5063C15.9756 13.6682 16.1961 12.7412 16.1961 11.7762C16.1961 7.89045 12.6301 4.60156 8.2342 4.60156C3.83832 4.60156 0.272339 7.89045 0.272339 11.7635C0.272339 12.7285 0.492781 13.6682 0.907732 14.4936C2.11368 13.3254 4.94053 12.4873 8.2342 12.4873" fill="#0097D9"/>
<path id="Vector_19" d="M8.23417 12.5127C11.5278 12.5127 14.3417 13.3381 15.5477 14.4936C15.9497 13.6682 16.1701 12.7412 16.1701 11.7762C16.1701 7.92853 12.6171 4.65234 8.22121 4.65234C3.82532 4.65234 0.285278 7.94123 0.285278 11.7889C0.285278 12.7539 0.505721 13.6682 0.907704 14.4936C2.11365 13.3254 4.92754 12.5127 8.22121 12.5127" fill="#0099DB"/>
<path id="Vector_20" d="M8.23412 12.5126C11.5148 12.5126 14.3287 13.3253 15.5347 14.4809C15.9366 13.6555 16.1571 12.7412 16.1571 11.7888C16.1571 7.97931 12.6041 4.71582 8.23412 4.71582C3.86417 4.71582 0.311157 7.99201 0.311157 11.8015C0.311157 12.7539 0.5316 13.6682 0.933583 14.4809C2.13953 13.3253 4.95342 12.5126 8.22115 12.5126" fill="#009BDC"/>
<path id="Vector_21" d="M8.22122 12.5253C11.489 12.5253 14.3028 13.338 15.4958 14.4809C15.8978 13.6682 16.1182 12.7666 16.1182 11.8142C16.1182 8.04279 12.5782 4.79199 8.22122 4.79199C3.86424 4.79199 0.337158 8.04279 0.337158 11.8142C0.337158 12.7539 0.557601 13.6682 0.959584 14.4809C2.16553 13.338 4.96645 12.5253 8.23418 12.5253" fill="#009DDD"/>
<path id="Vector_22" d="M8.22119 12.538C11.4889 12.538 14.2769 13.338 15.4828 14.4682C15.8848 13.6682 16.1052 12.7666 16.1052 11.8269C16.1052 8.08087 12.5782 4.85547 8.22119 4.85547C3.86421 4.85547 0.350098 8.09356 0.350098 11.8269C0.350098 12.7666 0.57054 13.6555 0.972523 14.4682C2.16551 13.338 4.96642 12.538 8.22119 12.538Z" fill="#009FDF"/>
<path id="Vector_23" d="M8.22125 12.5381C11.476 12.5381 14.264 13.3254 15.457 14.4556C15.8589 13.6556 16.0794 12.7667 16.0794 11.8397C16.0794 8.13176 12.5653 4.93176 8.22125 4.93176C3.87724 4.93176 0.376099 8.14446 0.376099 11.8397C0.376099 12.7667 0.596541 13.6556 0.998524 14.4556C2.19151 13.3381 4.97945 12.5381 8.23422 12.5381" fill="#00A2E0"/>
<path id="Vector_24" d="M8.22123 12.5508C11.463 12.5508 14.251 13.3381 15.444 14.4429C15.8459 13.6556 16.0664 12.7667 16.0664 11.8524C16.0664 8.18254 12.5523 4.99524 8.2342 4.99524C3.91612 4.99524 0.389038 8.19524 0.389038 11.8524C0.389038 12.7667 0.60948 13.6556 1.01146 14.4429C2.20445 13.3254 4.99239 12.5508 8.22123 12.5508Z" fill="#00A4E1"/>
<path id="Vector_25" d="M8.22117 12.5635C11.463 12.5635 14.238 13.3381 15.418 14.4428C15.82 13.6555 16.0404 12.792 16.0404 11.8778C16.0404 8.24601 12.5393 5.07141 8.22117 5.07141C3.90309 5.07141 0.414917 8.23332 0.414917 11.8778C0.414917 12.792 0.635359 13.6555 1.03734 14.4428C2.23033 13.3381 5.00531 12.5635 8.23414 12.5635" fill="#00A6E3"/>
<path id="Vector_26" d="M8.22127 12.5635C11.4501 12.5635 14.2121 13.3381 15.4051 14.4174C15.8071 13.6428 16.0275 12.7793 16.0275 11.8777C16.0275 8.2841 12.5393 5.12219 8.23423 5.12219C3.92912 5.12219 0.427979 8.2841 0.427979 11.8904C0.427979 12.792 0.648421 13.6555 1.0504 14.4301C2.23042 13.3381 5.0054 12.5762 8.22127 12.5762" fill="#00A8E4"/>
<path id="Vector_27" d="M8.22121 12.5761C11.4371 12.5761 14.1991 13.338 15.3791 14.4174C15.7811 13.6555 15.9886 12.792 15.9886 11.9031C15.9886 8.33487 12.5134 5.19836 8.20824 5.19836C3.90313 5.19836 0.453857 8.33487 0.453857 11.9031C0.453857 12.792 0.6743 13.6555 1.06332 14.4174C2.24333 13.338 5.00535 12.5761 8.22121 12.5761Z" fill="#00ABE6"/>
<path id="Vector_28" d="M8.22118 12.5888C11.437 12.5888 14.1861 13.338 15.3661 14.4047C15.7681 13.6428 15.9756 12.8047 15.9756 11.9158C15.9756 8.38565 12.5004 5.26184 8.22118 5.26184C3.94201 5.26184 0.466797 8.38565 0.466797 11.9158C0.466797 12.8047 0.687239 13.6428 1.07626 14.4047C2.25627 13.338 5.00532 12.5888 8.20822 12.5888" fill="#00ADE7"/>
<path id="Vector_29" d="M8.22125 12.5888C11.4241 12.5888 14.1732 13.338 15.3402 14.392C15.7422 13.6428 15.9497 12.8047 15.9497 11.9285C15.9497 8.43643 12.4875 5.33801 8.22125 5.33801C3.95504 5.33801 0.492798 8.43643 0.492798 11.9285C0.492798 12.8047 0.71324 13.6428 1.10226 14.392C2.28227 13.338 5.01835 12.5888 8.22125 12.5888Z" fill="#00B0E8"/>
<path id="Vector_30" d="M8.22122 12.6016C11.4112 12.6016 14.1472 13.3381 15.3272 14.3921C15.7163 13.6429 15.9367 12.8175 15.9367 11.954C15.9367 8.50002 12.4874 5.41431 8.22122 5.41431C3.95501 5.41431 0.505737 8.48732 0.505737 11.9413C0.505737 12.8048 0.72618 13.6429 1.1152 14.3794C2.28224 13.3381 5.01832 12.5889 8.20825 12.5889" fill="#00B2EA"/>
<path id="Vector_31" d="M8.22117 12.6143C11.4111 12.6143 14.1342 13.3381 15.3013 14.3794C15.6903 13.6429 15.9107 12.8175 15.9107 11.9667C15.9107 8.5381 12.4614 5.47778 8.22117 5.47778C3.98089 5.47778 0.531616 8.5381 0.531616 11.9667C0.531616 12.8302 0.752059 13.6429 1.14107 14.3794C2.30812 13.3381 5.0442 12.6143 8.22117 12.6143Z" fill="#10B5EB"/>
<path id="Vector_32" d="M8.22123 12.6143C11.3982 12.6143 14.1213 13.3381 15.2884 14.3667C15.6774 13.6428 15.8978 12.8301 15.8978 11.9794C15.8978 8.58888 12.4615 5.54126 8.2342 5.54126C4.00689 5.54126 0.557617 8.58888 0.557617 11.9794C0.557617 12.8301 0.77806 13.6428 1.16708 14.3667C2.33412 13.3381 5.05724 12.6143 8.22123 12.6143Z" fill="#1DB7EC"/>
<path id="Vector_33" d="M8.20824 12.627C11.3722 12.627 14.0953 13.3381 15.2494 14.3539C15.6384 13.6301 15.8589 12.8301 15.8589 11.992C15.8589 8.63966 12.4355 5.60474 8.20824 5.60474C3.98093 5.60474 0.570557 8.63966 0.570557 11.992C0.570557 12.8301 0.790999 13.6428 1.18002 14.3539C2.34706 13.3381 5.05721 12.627 8.22121 12.627" fill="#26BAEE"/>
<path id="Vector_34" d="M8.20818 12.6396C11.3722 12.6396 14.0694 13.3507 15.2364 14.3539C15.6254 13.6428 15.8459 12.8428 15.8459 12.0174C15.8459 8.70313 12.4355 5.68091 8.22115 5.68091C4.00681 5.68091 0.596436 8.69043 0.596436 12.0047C0.596436 12.8301 0.816878 13.6301 1.20589 14.3412C2.35997 13.3381 5.07012 12.6269 8.22115 12.6269" fill="#2FBCEF"/>
<path id="Vector_35" d="M8.20828 12.6396C11.3593 12.6396 14.0565 13.338 15.2106 14.3285C15.5996 13.6301 15.82 12.8301 15.82 12.0174C15.82 8.72851 12.4096 5.73169 8.20828 5.73169C4.0069 5.73169 0.609497 8.74121 0.609497 12.0174C0.609497 12.8428 0.816972 13.6301 1.20599 14.3285C2.36007 13.338 5.05725 12.6396 8.20828 12.6396Z" fill="#37BEF0"/>
<path id="Vector_36" d="M8.20825 12.665C11.3593 12.665 14.0435 13.3634 15.1976 14.3539C15.5866 13.6555 15.7941 12.8682 15.7941 12.0555C15.7941 8.79199 12.3967 5.80786 8.19528 5.80786C3.99391 5.80786 0.622437 8.77929 0.622437 12.0428C0.622437 12.8682 0.842879 13.6428 1.21893 14.3412C2.37301 13.3507 5.07019 12.6523 8.20825 12.6523" fill="#45C0F0"/>
<path id="Vector_37" d="M8.20822 12.6777C11.3463 12.6777 14.0435 13.3634 15.1975 14.3539C15.5866 13.6555 15.794 12.8809 15.794 12.0682C15.794 8.83007 12.3966 5.87134 8.20822 5.87134C4.01982 5.87134 0.635376 8.83007 0.635376 12.0682C0.635376 12.8809 0.842851 13.6555 1.23187 14.3539C2.38595 13.3761 5.07016 12.6777 8.20822 12.6777Z" fill="#50C2F1"/>
<path id="Vector_38" d="M8.20819 12.7032C11.3463 12.7032 14.0305 13.3889 15.1845 14.3667C15.5736 13.681 15.781 12.9064 15.781 12.0937C15.781 8.88097 12.3836 5.92224 8.20819 5.92224C4.03275 5.92224 0.648315 8.86827 0.648315 12.0937C0.648315 12.9064 0.868758 13.6683 1.24481 14.3667C2.39889 13.3889 5.0831 12.7032 8.22116 12.7032" fill="#5BC4F1"/>
<path id="Vector_39" d="M8.20819 12.7286C11.3463 12.7286 14.0305 13.4143 15.1716 14.3794C15.5606 13.6937 15.7681 12.919 15.7681 12.119C15.7681 8.91905 12.3836 5.99841 8.20819 5.99841C4.03275 5.99841 0.648315 8.91905 0.648315 12.119C0.648315 12.919 0.855791 13.6937 1.24481 14.3794C2.39889 13.4143 5.0831 12.7286 8.20819 12.7286Z" fill="#64C7F2"/>
<path id="Vector_40" d="M8.20829 12.7413C11.3334 12.7413 14.0176 13.4143 15.1587 14.3794C15.5477 13.6936 15.7552 12.9317 15.7552 12.1444C15.7552 8.96983 12.3708 6.06189 8.19532 6.06189C4.01988 6.06189 0.661377 8.96983 0.661377 12.1444C0.661377 12.9444 0.868852 13.7063 1.25787 14.3794C2.39898 13.4143 5.08319 12.7413 8.20829 12.7413Z" fill="#6DC9F3"/>
<path id="Vector_41" d="M8.20826 12.7666C11.3334 12.7666 14.0046 13.4397 15.1587 14.392C15.5477 13.719 15.7552 12.9571 15.7552 12.1698C15.7552 9.00791 12.3837 6.12537 8.20826 6.12537C4.03282 6.12537 0.674316 9.00791 0.674316 12.1571C0.674316 12.9444 0.881792 13.7063 1.27081 14.3793C2.41192 13.427 5.09613 12.7539 8.20826 12.7539" fill="#75CBF3"/>
<path id="Vector_42" d="M8.20823 12.7793C11.3333 12.7793 14.0046 13.4523 15.1457 14.392C15.5347 13.719 15.7422 12.9698 15.7422 12.1825C15.7422 9.04599 12.3707 6.17615 8.20823 6.17615C4.04576 6.17615 0.687256 9.05869 0.687256 12.1825C0.687256 12.9698 0.894731 13.719 1.28375 14.392C2.42486 13.4396 5.10907 12.7793 8.2212 12.7793" fill="#7DCDF4"/>
<path id="Vector_43" d="M8.20821 12.8047C11.3203 12.8047 13.9916 13.465 15.1327 14.4047C15.5217 13.7317 15.7292 12.9952 15.7292 12.2079C15.7292 9.09677 12.3577 6.23962 8.20821 6.23962C4.0587 6.23962 0.700195 9.09677 0.700195 12.2079C0.700195 12.9952 0.907671 13.7317 1.29669 14.4047C2.4378 13.465 5.10904 12.8047 8.22117 12.8047" fill="#84D0F4"/>
<path id="Vector_44" d="M8.2082 12.8174C11.3203 12.8174 13.9916 13.4777 15.1197 14.4174C15.5087 13.7571 15.7162 13.0079 15.7162 12.2333C15.7162 9.14755 12.3577 6.3031 8.2082 6.3031C4.0587 6.3031 0.700195 9.14755 0.700195 12.2333C0.700195 13.0079 0.90767 13.7444 1.29669 14.4174C2.4378 13.4777 5.10904 12.8174 8.2082 12.8174Z" fill="#8BD2F5"/>
<path id="Vector_45" d="M8.2083 12.8428C11.3204 12.8428 13.9787 13.5031 15.1198 14.4301C15.5088 13.7698 15.7163 13.0332 15.7163 12.2586C15.7163 9.18562 12.3578 6.36658 8.2083 6.36658C4.05879 6.36658 0.713257 9.18562 0.713257 12.2586C0.713257 13.0332 0.920732 13.7698 1.30975 14.4301C2.45086 13.5031 5.10914 12.8428 8.2083 12.8428Z" fill="#92D4F5"/>
<path id="Vector_46" d="M8.20827 12.8556C11.3074 12.8556 13.9657 13.5032 15.1068 14.4302C15.4958 13.7699 15.7033 13.046 15.7033 12.2841C15.7033 9.23652 12.3448 6.43018 8.20827 6.43018C4.07173 6.43018 0.726196 9.23652 0.726196 12.2841C0.726196 13.046 0.933671 13.7826 1.32269 14.4429C2.4638 13.5159 5.12208 12.8683 8.22124 12.8683" fill="#99D7F6"/>
<path id="Vector_47" d="M8.20824 12.881C11.3074 12.881 13.9657 13.5286 15.0938 14.4429C15.4699 13.7952 15.6903 13.0714 15.6903 12.3095C15.6903 9.27461 12.3448 6.49365 8.20824 6.49365C4.07171 6.49365 0.739136 9.27461 0.739136 12.3095C0.739136 13.0714 0.946611 13.7952 1.33563 14.4429C2.47674 13.5286 5.13502 12.881 8.22121 12.881" fill="#9FD9F7"/>
<path id="Vector_48" d="M8.20822 12.8936C11.3074 12.8936 13.9527 13.5413 15.0808 14.4428C15.4569 13.7952 15.6773 13.0714 15.6773 12.3222C15.6773 9.31269 12.3318 6.54443 8.20822 6.54443C4.08465 6.54443 0.752075 9.32539 0.752075 12.3222C0.752075 13.0841 0.95955 13.7952 1.34857 14.4428C2.47671 13.5286 5.13499 12.8936 8.22118 12.8936" fill="#A5DBF7"/>
<path id="Vector_49" d="M8.20822 12.919C11.2944 12.919 13.9527 13.5539 15.0808 14.4555C15.4569 13.8079 15.6773 13.0968 15.6773 12.3476C15.6773 9.36347 12.3318 6.60791 8.22118 6.60791C4.11058 6.60791 0.752075 9.36347 0.752075 12.3476C0.752075 13.0968 0.95955 13.8079 1.3356 14.4555C2.46375 13.5539 5.12202 12.919 8.20822 12.919Z" fill="#ABDDF8"/>
<path id="Vector_50" d="M8.20819 12.9317C11.2944 12.9317 13.9397 13.5666 15.0678 14.4555C15.4439 13.8206 15.6643 13.1095 15.6643 12.373C15.6643 9.41424 12.3318 6.67139 8.20819 6.67139C4.08462 6.67139 0.765015 9.41424 0.765015 12.373C0.765015 13.1222 0.97249 13.8206 1.34854 14.4682C2.47668 13.5666 5.12199 12.9444 8.20819 12.9444" fill="#B1DFF8"/>
<path id="Vector_51" d="M8.20828 12.9571C11.2945 12.9571 13.9268 13.5793 15.055 14.4809C15.431 13.846 15.6515 13.1476 15.6515 12.411C15.6515 9.46502 12.3189 6.74756 8.20828 6.74756C4.09768 6.74756 0.778076 9.45232 0.778076 12.3984C0.778076 13.1349 0.985551 13.846 1.3616 14.4682C2.48975 13.5793 5.13506 12.9444 8.20828 12.9444" fill="#B6E1F9"/>
<path id="Vector_52" d="M8.20825 12.9698C11.2815 12.9698 13.9268 13.592 15.0549 14.4809C15.431 13.8587 15.6385 13.1602 15.6385 12.4237C15.6385 9.5031 12.3059 6.79834 8.20825 6.79834C4.11062 6.79834 0.791016 9.5031 0.791016 12.4237C0.791016 13.1602 0.998491 13.8587 1.37454 14.4809C2.50269 13.592 5.14799 12.9698 8.20825 12.9698Z" fill="#BCE4F9"/>
<path id="Vector_53" d="M8.20825 12.9952C11.2815 12.9952 13.9138 13.6174 15.042 14.4936C15.418 13.8713 15.6255 13.1729 15.6255 12.4491C15.6255 9.54118 12.3059 6.86182 8.20825 6.86182C4.11062 6.86182 0.791016 9.54118 0.791016 12.4491C0.791016 13.1729 0.998491 13.8713 1.37454 14.4936C2.50269 13.6174 5.13503 12.9952 8.20825 12.9952Z" fill="#C1E6FA"/>
<path id="Vector_54" d="M8.20823 13.008C11.2815 13.008 13.9138 13.6175 15.029 14.4937C15.405 13.8714 15.6125 13.1857 15.6125 12.4619C15.6125 9.57939 12.2929 6.91272 8.20823 6.91272C4.12356 6.91272 0.803955 9.59208 0.803955 12.4619C0.803955 13.1857 1.01143 13.8714 1.38748 14.4937C2.51563 13.6175 5.14797 13.008 8.20823 13.008Z" fill="#C7E8FA"/>
<path id="Vector_55" d="M8.2082 13.0333C11.2685 13.0333 13.9008 13.6429 15.016 14.5064C15.392 13.8841 15.5995 13.2111 15.5995 12.5C15.5995 9.64286 12.2799 6.98889 8.19523 6.98889C4.11056 6.98889 0.816895 9.63016 0.816895 12.4873C0.816895 13.2111 1.02437 13.8841 1.40042 14.5064C2.52857 13.6429 5.14794 13.0333 8.2082 13.0333Z" fill="#CCEAFB"/>
<path id="Vector_56" d="M8.20829 13.0587C11.2686 13.0587 13.8879 13.6682 15.0161 14.519C15.3921 13.9095 15.5996 13.2365 15.5996 12.5254C15.5996 9.68094 12.293 7.05237 8.20829 7.05237C4.12362 7.05237 0.829956 9.68094 0.829956 12.5127C0.829956 13.2238 1.03743 13.8968 1.41348 14.5063C2.54163 13.6428 5.161 13.046 8.22126 13.046" fill="#D1ECFB"/>
<path id="Vector_57" d="M8.20827 13.0714C11.2685 13.0714 13.8879 13.6682 15.0031 14.519C15.3791 13.9095 15.5866 13.2365 15.5866 12.5381C15.5866 9.71902 12.28 7.10315 8.20827 7.10315C4.13656 7.10315 0.842896 9.71902 0.842896 12.5381C0.842896 13.2492 1.05037 13.9222 1.42642 14.519C2.5416 13.6682 5.17394 13.0714 8.22123 13.0714" fill="#D6EEFB"/>
<path id="Vector_58" d="M8.20826 13.0968C11.2556 13.0968 13.8749 13.6936 14.9901 14.5317C15.3662 13.9349 15.5736 13.2619 15.5736 12.5635C15.5736 9.7698 12.28 7.16663 8.20826 7.16663C4.13656 7.16663 0.842896 9.7698 0.842896 12.5635C0.842896 13.2619 1.05037 13.9349 1.42642 14.5317C2.5416 13.6809 5.16097 13.0968 8.20826 13.0841" fill="#DBF0FC"/>
<path id="Vector_59" d="M8.20824 13.1095C11.2555 13.1095 13.8749 13.7063 14.9771 14.5317C15.3532 13.9349 15.5606 13.2746 15.5606 12.5761C15.5606 9.80788 12.267 7.21741 8.20824 7.21741C4.1495 7.21741 0.855835 9.82058 0.855835 12.5888C0.855835 13.2872 1.06331 13.9476 1.43936 14.5444C2.55454 13.7063 5.17391 13.1222 8.20824 13.1095Z" fill="#E0F2FC"/>
<path id="Vector_60" d="M8.20821 13.1348C11.2555 13.1348 13.8619 13.719 14.9771 14.5571C15.3531 13.9602 15.5606 13.3126 15.5606 12.6142C15.5606 9.85866 12.2669 7.29358 8.20821 7.29358C4.14948 7.29358 0.868774 9.85866 0.868774 12.6142C0.868774 13.2999 1.07625 13.9602 1.4523 14.5571C2.56748 13.7317 5.17389 13.1348 8.22118 13.1348" fill="#E5F4FD"/>
<path id="Vector_61" d="M8.20818 13.1475C11.2425 13.1475 13.8489 13.7317 14.9641 14.5571C15.3401 13.9729 15.5476 13.3253 15.5476 12.6396C15.5476 9.90944 12.2539 7.35706 8.20818 7.35706C4.16242 7.35706 0.881714 9.90944 0.881714 12.6269C0.881714 13.3126 1.08919 13.9602 1.46524 14.5571C2.58042 13.7317 5.18682 13.1475 8.22115 13.1475" fill="#E9F6FD"/>
<path id="Vector_62" d="M8.20828 13.173C11.2426 13.173 13.849 13.7572 14.9512 14.5699C15.3273 13.9857 15.5347 13.3381 15.5347 12.6651C15.5347 9.96034 12.254 7.42065 8.20828 7.42065C4.16251 7.42065 0.894775 9.94764 0.894775 12.6524C0.894775 13.3381 1.10225 13.973 1.4783 14.5699C2.59348 13.7445 5.19989 13.173 8.22124 13.173" fill="#EEF8FE"/>
<path id="Vector_63" d="M8.20828 13.1857C11.2426 13.1857 13.836 13.7572 14.9383 14.5698C15.3143 13.9857 15.5218 13.3508 15.5218 12.6778C15.5218 9.98572 12.2411 7.47144 8.20828 7.47144C4.17548 7.47144 0.894775 9.99842 0.894775 12.6778C0.894775 13.3508 1.10225 13.9857 1.4783 14.5698C2.58051 13.7572 5.18692 13.1857 8.20828 13.1857Z" fill="#F2FAFE"/>
<path id="Vector_64" d="M8.20825 13.2111C11.2296 13.2111 13.836 13.7825 14.9382 14.5825C15.3143 14.0111 15.5218 13.3762 15.5218 12.7032C15.5218 10.0365 12.241 7.53491 8.22122 7.53491C4.20138 7.53491 0.907715 10.0365 0.907715 12.7032C0.907715 13.3762 1.11519 14.0111 1.47827 14.5825C2.58048 13.7825 5.18689 13.2111 8.20825 13.2111Z" fill="#F7FCFE"/>
<path id="Vector_65" d="M8.20822 13.2238C11.2296 13.2238 13.823 13.7952 14.9252 14.5825C15.3013 14.0111 15.5088 13.3889 15.5088 12.7159C15.5088 10.0746 12.241 7.58569 8.20822 7.58569C4.17542 7.58569 0.920654 10.0873 0.920654 12.7286C0.920654 13.4016 1.12813 14.0238 1.49121 14.5952C2.59342 13.7952 5.18686 13.2365 8.20822 13.2238Z" fill="#FBFDFF"/>
<path id="Vector_66" d="M8.20819 13.2492C11.2296 13.2492 13.81 13.8079 14.9122 14.6079C15.2883 14.0365 15.4958 13.4142 15.4958 12.7539C15.4958 10.1254 12.228 7.67456 8.20819 7.67456C4.18836 7.67456 0.933594 10.1254 0.933594 12.7539C0.933594 13.4142 1.14107 14.0365 1.50415 14.6079C2.60636 13.8206 5.1998 13.2492 8.20819 13.2492Z" fill="white"/>
</g>
</g>
</g>
<path id="Vector_67" d="M8.18232 10.6333C5.53701 10.6333 3.08621 11.0777 1.07629 11.8143C2.29521 14.4809 5.01832 16.3349 8.19529 16.3349C11.3723 16.3349 14.0824 14.4809 15.3013 11.8143C13.2784 11.065 10.8276 10.6333 8.19529 10.6333" fill="#007BC7"/>
<path id="Vector_68" d="M18.4523 10.9888H23.6003V15.319H25.6102V10.9888H30.7581V9.75708H18.4523V10.9888Z" fill="#0062AC"/>
<path id="Vector_69" d="M21.4608 7.71261C21.8627 8.01737 22.3296 8.25864 22.8742 8.43642C23.4058 8.61419 23.9894 8.70308 24.6118 8.70308C25.2342 8.70308 25.8048 8.61419 26.3364 8.43642C26.8681 8.25864 27.3479 8.01737 27.7498 7.71261C28.1518 7.39515 28.476 7.03959 28.7094 6.62054C28.9428 6.21419 29.0595 5.75705 29.0595 5.28721C29.0595 4.81737 28.9428 4.38562 28.7094 3.96657C28.476 3.56022 28.1518 3.19197 27.7498 2.87451C27.3479 2.56975 26.881 2.32848 26.3494 2.1507C25.8177 1.97292 25.2342 1.88403 24.6248 1.88403C24.0153 1.88403 23.4188 1.97292 22.8871 2.1507C22.3555 2.32848 21.8757 2.56975 21.4867 2.87451C21.0847 3.19197 20.7605 3.54753 20.5271 3.96657C20.2937 4.37292 20.177 4.81737 20.177 5.28721C20.177 5.75705 20.2937 6.20149 20.5271 6.62054C20.7605 7.02689 21.0847 7.39515 21.4867 7.71261M22.174 5.28721C22.174 5.00784 22.2388 4.72848 22.3685 4.46181C22.4981 4.19514 22.6667 3.96657 22.8871 3.7761C23.1076 3.57292 23.3669 3.40784 23.6522 3.29356C23.9505 3.17927 24.2617 3.11578 24.5988 3.11578C24.936 3.11578 25.2472 3.17927 25.5325 3.29356C25.8177 3.40784 26.09 3.57292 26.2975 3.7761C26.518 3.96657 26.6865 4.20784 26.8292 4.47451C26.9588 4.74118 27.0237 5.02054 27.0237 5.29991C27.0237 5.57927 26.9588 5.88403 26.8292 6.138C26.6995 6.40467 26.518 6.63324 26.2975 6.83641C26.0771 7.03959 25.8177 7.20467 25.5325 7.30626C24.936 7.53483 24.2228 7.52213 23.6522 7.30626C23.354 7.19197 23.1076 7.03959 22.8871 6.83641C22.6667 6.64594 22.4981 6.40467 22.3685 6.1507C22.2388 5.88403 22.174 5.60467 22.174 5.31261" fill="#0062AC"/>
<path id="Vector_70" d="M41.7025 2.11267H40.1335L40.2243 2.22696C40.2243 2.22696 40.2891 2.32854 40.3021 2.37934C40.341 2.56981 40.3669 2.86188 40.3669 3.25553V9.37616C40.3669 9.75711 40.1335 10.0111 39.6667 10.1635C39.5111 10.2143 39.2647 10.2397 38.9405 10.2651H34.6743C34.4539 10.2651 34.3761 10.2143 34.3501 10.1889C34.2983 10.1254 34.2853 10.0365 34.2853 9.9095V7.4714H37.968C38.1884 7.4714 38.344 7.43331 38.4218 7.34442C38.4996 7.25553 38.5515 7.12854 38.5515 6.95077V3.02696C38.5515 2.84918 38.4996 2.72219 38.4218 2.63331C38.3311 2.54442 38.1755 2.50632 37.955 2.50632H32.1976V3.73807H36.5416V6.25235H32.0549L32.1846 6.51902C32.2365 6.6714 32.2624 6.86188 32.2624 7.09045V10.6079C32.2624 10.8238 32.3402 11.027 32.4958 11.1793C32.7033 11.3952 33.0534 11.5095 33.5073 11.5095H38.5385L39.3425 11.4841C39.8223 11.4333 40.1594 11.3571 40.3669 11.2301V15.2047H42.3768V2.646C42.3768 2.40473 42.2601 2.12537 41.6896 2.11267" fill="#0062AC"/>
<path id="Vector_71" d="M47.0969 7.42054C47.473 7.7126 47.9268 7.94117 48.4455 8.11895C48.9512 8.28403 49.5088 8.37292 50.0923 8.37292C50.6759 8.37292 51.2075 8.28403 51.7262 8.11895C52.2319 7.95387 52.6858 7.7126 53.0748 7.42054C53.4638 7.12847 53.762 6.78562 53.9955 6.39197C54.2159 5.99832 54.3326 5.57927 54.3326 5.13482C54.3326 4.69038 54.2159 4.27133 53.9955 3.87768C53.775 3.48403 53.4638 3.14117 53.0748 2.84911C52.6987 2.55705 52.2449 2.32847 51.7262 2.1507C51.2205 1.98562 50.6629 1.89673 50.0923 1.89673C49.5218 1.89673 48.9642 1.98562 48.4455 2.1507C47.9268 2.31578 47.4859 2.55705 47.0969 2.84911C46.7079 3.14117 46.4096 3.49673 46.1892 3.87768C45.9688 4.27133 45.8521 4.69038 45.8521 5.13482C45.8521 5.57927 45.9688 5.99832 46.1892 6.39197C46.4096 6.78562 46.7209 7.12847 47.0969 7.42054ZM47.8749 5.12213C47.8749 4.85546 47.9268 4.60149 48.0435 4.34752C48.1602 4.10625 48.3158 3.89038 48.5103 3.6999C48.7048 3.52213 48.9512 3.38244 49.2235 3.26816C49.4958 3.15387 49.7811 3.10308 50.0794 3.10308C50.3776 3.10308 50.6629 3.15387 50.9222 3.26816C51.1816 3.38244 51.415 3.52213 51.6225 3.6999C51.817 3.89038 51.9855 4.10625 52.1022 4.34752C52.2189 4.58879 52.2838 4.85546 52.2838 5.12213C52.2838 5.38879 52.2189 5.66816 52.1022 5.90943C51.9855 6.1507 51.8299 6.36657 51.6225 6.55705C51.4279 6.73482 51.1816 6.87451 50.9222 6.98879C50.4035 7.20466 49.7552 7.20466 49.2235 6.98879C48.9512 6.8872 48.7178 6.73482 48.5233 6.55705C48.3288 6.36657 48.1602 6.1507 48.0565 5.90943C47.9398 5.66816 47.8879 5.40149 47.8879 5.12213" fill="#0062AC"/>
<path id="Vector_72" d="M43.9329 10.5571H45.6186C45.7613 10.5698 45.852 10.6333 45.9169 10.7475C45.9428 10.7983 45.9687 10.8618 45.9687 10.9634C45.9687 11.065 45.9687 11.1666 45.9687 11.2809V14.3031C45.9947 14.5444 46.0725 14.7348 46.2022 14.8618C46.4096 15.0777 46.7597 15.192 47.2136 15.192H54.566V13.9729H48.3547C48.1472 13.9729 48.0694 13.9221 48.0435 13.8967C47.9916 13.8333 47.9787 13.7444 47.9787 13.6174V11.1158C47.9787 10.9888 47.9527 10.8618 47.9138 10.7348C47.8879 10.6713 47.862 10.6079 47.8231 10.5698H56.2258V9.33801H43.9199V10.5698L43.9329 10.5571Z" fill="#0062AC"/>
<path id="Vector_73" d="M66.7811 10.4936C66.405 10.227 65.9642 10.0111 65.4714 9.8587C64.9787 9.69362 64.447 9.61743 63.8894 9.61743C63.3318 9.61743 62.7872 9.69362 62.2944 9.8587C61.8017 10.0238 61.3608 10.227 60.9848 10.4936C60.6087 10.773 60.3105 11.0904 60.103 11.4587C59.8955 11.827 59.7788 12.2206 59.7788 12.6143C59.7788 13.0079 59.8825 13.427 60.103 13.7952C60.3105 14.1635 60.6087 14.4809 60.9848 14.7603C61.3608 15.027 61.7887 15.2301 62.2944 15.3952C62.7872 15.5476 63.3189 15.6238 63.8894 15.6238C64.46 15.6238 64.9787 15.5476 65.4714 15.3952C65.9642 15.2428 66.405 15.027 66.7811 14.7603C67.1571 14.4809 67.4554 14.1635 67.6758 13.7952C67.8963 13.427 68 13.0333 68 12.6143C68 12.1952 67.8833 11.8143 67.6758 11.4587C67.4554 11.0904 67.1571 10.773 66.7811 10.4936ZM65.9901 12.6143C65.9901 12.8555 65.9382 13.0968 65.8215 13.3C65.7048 13.5158 65.5492 13.7063 65.3677 13.8714C65.1732 14.0238 64.9527 14.1508 64.7063 14.2524C64.2006 14.4428 63.5782 14.4301 63.0854 14.2524C62.8391 14.1635 62.6186 14.0365 62.4241 13.8714C62.2296 13.7063 62.087 13.5158 61.9703 13.3C61.8665 13.0968 61.8147 12.8555 61.8147 12.6143C61.8147 12.373 61.8665 12.1571 61.9703 11.9412C62.074 11.7254 62.2296 11.5349 62.4241 11.3698C62.6186 11.2174 62.8391 11.0777 63.0854 10.9889C63.3318 10.8873 63.6041 10.8365 63.9024 10.8365C64.2006 10.8365 64.46 10.8873 64.7063 10.9889C64.9527 11.0904 65.1861 11.2174 65.3677 11.3698C65.5622 11.5349 65.7048 11.7254 65.8215 11.9412C65.9382 12.1571 65.9901 12.3857 65.9901 12.6143Z" fill="#0062AC"/>
<path id="Vector_74" d="M67.8833 2.23966C67.8055 2.16346 67.6499 2.11267 67.4295 2.11267H66.0031L66.0809 2.22696C66.0809 2.22696 66.1457 2.34124 66.1587 2.39204C66.1976 2.56981 66.2235 2.84918 66.2235 3.24283V4.67775H65.5881V2.62061C65.5881 2.44283 65.5492 2.31585 65.4714 2.23966C65.3936 2.16346 65.238 2.11267 65.0046 2.11267H63.5912L63.669 2.22696C63.669 2.22696 63.7338 2.34124 63.7468 2.39204C63.7987 2.56981 63.8116 2.84918 63.8116 3.24283V9.28727H65.5881V5.98569H66.2235V9.28727H68V2.62061C68 2.44283 67.9611 2.31585 67.8833 2.23966Z" fill="#0062AC"/>
<path id="Vector_75" d="M61.2052 9.23644C61.6072 9.08405 61.9573 8.85548 62.2555 8.58882C62.5538 8.32215 62.7872 8.00469 62.9687 7.63644C63.1373 7.26818 63.228 6.87453 63.228 6.45548C63.228 6.03644 63.1373 5.64279 62.9687 5.28723C62.8001 4.93167 62.5667 4.61421 62.2685 4.33485H63.3966V3.1031H60.9458V2.3285C60.9458 1.98564 60.7513 1.79517 60.3753 1.79517H58.6506L58.8062 1.92215C58.8062 1.92215 58.8581 1.98564 58.8711 2.01104C58.91 2.12532 58.9359 2.3031 58.9359 2.54437V3.1031H56.4851V4.33485H57.6003C57.302 4.60152 57.0686 4.93167 56.913 5.28723C56.7444 5.65548 56.6537 6.04913 56.6537 6.45548C56.6537 6.86183 56.7444 7.26818 56.913 7.63644C57.0816 8.00469 57.315 8.32215 57.6133 8.58882C57.9115 8.86818 58.2616 9.08405 58.6636 9.23644C59.0656 9.38882 59.4935 9.46501 59.9473 9.46501C60.4012 9.46501 60.8161 9.38882 61.2181 9.23644M58.9748 5.21104C59.2471 4.85548 59.5713 4.6904 59.9473 4.6904C60.3234 4.6904 60.6346 4.85548 60.9199 5.21104C61.1922 5.56659 61.3348 5.99834 61.3348 6.46818C61.3348 6.93802 61.1922 7.38247 60.9199 7.73802C60.6476 8.08088 60.3234 8.25866 59.9473 8.25866C59.5713 8.25866 59.2601 8.09358 58.9748 7.73802C58.7025 7.38247 58.5599 6.96342 58.5599 6.46818C58.5599 5.97294 58.7025 5.56659 58.9748 5.21104Z" fill="#0062AC"/>
</g>
</g>
</svg>
