<svg width="113" height="16" viewBox="0 0 113 16" fill="none" xmlns="http://www.w3.org/2000/svg">
<g id="Layer 1">
<g id="Group">
<g id="Group_2">
<g id="Group_3">
<path id="Vector" d="M0.377197 6.17712V7.77939H3.6747V15.7071H5.6111V7.77939H8.91141V6.17712H0.377197Z" fill="#301D0E"/>
<path id="Vector_2" d="M22.3146 6.17712L20.9199 12.2685L20.8553 12.5973C20.8553 12.5973 20.8245 12.7311 20.802 12.8342C20.7459 12.6196 20.6869 12.4106 20.6448 12.2741L18.7814 6.17991H17.1453L15.3099 12.1459C15.3099 12.1459 15.2117 12.5305 15.1275 12.8648C15.0517 12.5165 14.9731 12.1403 14.9731 12.1403L13.5896 6.17991H11.6279L14.0021 15.7071H15.8656L17.7374 9.6213C17.7374 9.6213 17.8525 9.17545 17.9479 8.82156C18.0433 9.18938 18.1584 9.6213 18.1584 9.6213L19.9461 15.7071H21.8404L24.2118 6.17991H22.3146V6.17712Z" fill="#301D0E"/>
<path id="Vector_3" d="M32.0837 6.02942C29.1482 6.02942 27.1753 8.00508 27.1753 10.9393C27.1753 13.8736 29.1482 15.8492 32.0837 15.8492C35.0191 15.8492 37.0089 13.8791 37.0089 10.9393C37.0089 7.99951 35.0304 6.02942 32.0837 6.02942ZM32.0837 14.2219C30.2146 14.2219 29.1454 13.0237 29.1454 10.9393C29.1454 8.85498 30.2174 7.65676 32.0837 7.65676C33.9499 7.65676 35.0332 8.85219 35.0332 10.9393C35.0332 13.0264 33.9611 14.2219 32.0837 14.2219Z" fill="#301D0E"/>
</g>
<g id="Group_4">
<path id="Vector_4" d="M53.5496 13.1128C52.9491 13.8903 52.2306 14.2219 51.1502 14.2219C49.298 14.2219 48.2259 13.0237 48.2259 10.9393C48.2259 8.85498 49.298 7.65676 51.1502 7.65676C52.3457 7.65676 52.8789 8.04967 53.4009 8.72959L53.4626 8.80482L55.1745 7.92985L55.0988 7.81838C54.2709 6.61459 52.9771 6.02942 51.1502 6.02942C48.2147 6.02942 46.2446 8.00508 46.2446 10.9393C46.2446 13.8736 48.2147 15.8492 51.1502 15.8492C52.8873 15.8492 54.3102 15.1972 55.1437 14.0212L55.2279 13.9154L53.6058 13.0292L53.5468 13.1128H53.5496Z" fill="#301D0E"/>
<path id="Vector_5" d="M65.9006 6.17712V9.93339H60.9305V6.17712H58.9885V15.7043H60.9305V11.5357H65.9006V15.7043H67.8314V6.17712H65.9006Z" fill="#301D0E"/>
<path id="Vector_6" d="M76.9718 6.17712H75.1028L70.9241 15.7043H72.9447C72.9447 15.7043 73.8231 13.6367 73.8848 13.5002H78.2543C78.3133 13.6367 79.2141 15.7043 79.2141 15.7043H81.2796L77.0504 6.17712H76.9746M77.6341 12.0177H74.4966C74.6145 11.7391 75.3357 10.056 75.3357 10.056C75.5799 9.48476 75.8773 8.70731 76.0485 8.21688C76.2057 8.62929 76.4583 9.2284 76.6715 9.74669L76.7894 10.0449C76.7894 10.0449 77.4293 11.5329 77.6313 12.0177H77.6341Z" fill="#301D0E"/>
<path id="Vector_7" d="M84.4451 6.17712V15.7043H86.3815V10.9407V6.17712H86.2608H84.4451Z" fill="#301D0E"/>
<path id="Vector_8" d="M100.223 9.09743C100.158 7.30568 98.8784 6.1827 96.5604 6.1827L91.8316 6.17712H91.7109V15.7043H93.6165V12.0261H95.9879C96.0524 12.1348 98.233 15.7043 98.233 15.7043H100.467C100.467 15.7043 98.2835 12.1097 98.1319 11.8645C99.0637 11.6332 100.228 10.7777 100.228 9.09743M93.6137 7.72645C93.8354 7.72645 96.5604 7.73481 96.5604 7.73481C97.6913 7.73481 98.3649 8.25032 98.3649 9.11693C98.3649 9.98355 97.7082 10.4907 96.5604 10.4907C96.5604 10.4907 93.8382 10.4796 93.6137 10.4796V7.72645Z" fill="#301D0E"/>
<path id="Vector_9" d="M108.661 10.003C106.624 9.50425 106.282 9.18658 106.282 8.67107C106.282 8.0218 106.941 7.63169 108.05 7.63169C109.158 7.63169 109.905 7.89641 110.609 8.49273L110.688 8.55961L110.699 8.54567L111.883 7.26386C110.8 6.42511 109.624 6.02942 108.179 6.02942C105.908 6.02942 104.328 7.14125 104.328 8.73795C104.328 10.5659 105.698 11.0341 107.96 11.5858C109.826 12.0456 110.421 12.3911 110.421 13.0153C110.421 13.8485 109.694 14.2525 108.196 14.2525C107.174 14.2525 106.071 13.8429 105.333 13.1769L105.26 13.1156L105.128 13.2187L104.039 14.3919C105.066 15.3365 106.489 15.8548 108.069 15.8548C111.813 15.8548 112.377 14.0185 112.377 12.9233C112.377 11.087 110.693 10.5186 108.664 10.0086L108.661 10.003Z" fill="#301D0E"/>
</g>
</g>
<g id="Group_5">
<path id="Vector_10" d="M82.9606 4.44389L81.1477 2.64935L82.9606 0.849243L84.7707 2.64935L82.9606 4.44389Z" fill="#301D0E"/>
<path id="Vector_11" d="M87.7792 4.45229L85.9663 2.65497L87.7792 0.854858L89.5922 2.65497L87.7792 4.45229Z" fill="#301D0E"/>
</g>
</g>
</g>
</svg>
