<svg width="46" height="46" viewBox="0 0 46 46" fill="none" xmlns="http://www.w3.org/2000/svg">
<circle cx="23" cy="23" r="23" fill="#EAF4FF"/>
<path d="M23.0003 14.375C23.2862 14.375 23.5604 14.4886 23.7626 14.6908C23.9648 14.893 24.0784 15.1672 24.0784 15.4531V28.0844L28.3061 23.3594C28.4002 23.2529 28.5145 23.1661 28.6422 23.1039C28.77 23.0418 28.9089 23.0055 29.0507 22.9972C29.1926 22.9889 29.3347 23.0087 29.4689 23.0555C29.6031 23.1023 29.7267 23.1751 29.8326 23.2699C29.9385 23.3646 30.0247 23.4794 30.0861 23.6075C30.1475 23.7357 30.183 23.8747 30.1904 24.0166C30.1979 24.1585 30.1773 24.3005 30.1297 24.4344C30.0821 24.5683 30.0086 24.6915 29.9132 24.7969L23.8038 31.625C23.7027 31.7381 23.5789 31.8285 23.4404 31.8904C23.3019 31.9523 23.152 31.9843 23.0003 31.9843C22.8486 31.9843 22.6986 31.9523 22.5601 31.8904C22.4217 31.8285 22.2978 31.7381 22.1967 31.625L16.0873 24.7969C15.992 24.6915 15.9184 24.5683 15.8708 24.4344C15.8232 24.3005 15.8026 24.1585 15.8101 24.0166C15.8176 23.8747 15.8531 23.7357 15.9145 23.6075C15.9759 23.4794 16.062 23.3646 16.168 23.2699C16.2739 23.1751 16.3975 23.1023 16.5317 23.0555C16.6658 23.0087 16.808 22.9889 16.9498 22.9972C17.0917 23.0055 17.2305 23.0418 17.3583 23.1039C17.4861 23.1661 17.6003 23.2529 17.6945 23.3594L21.9221 28.0844V15.4531C21.9221 15.3115 21.95 15.1713 22.0042 15.0405C22.0584 14.9097 22.1378 14.7909 22.2379 14.6908C22.338 14.5907 22.4569 14.5112 22.5877 14.4571C22.7185 14.4029 22.8587 14.375 23.0003 14.375Z" fill="#2589F4"/>
</svg>
