<svg width="40" height="40" viewBox="0 0 40 40" fill="none" xmlns="http://www.w3.org/2000/svg">
<path fill-rule="evenodd" clip-rule="evenodd" d="M15.1038 13.8749C14.1607 13.8749 13.3962 14.6394 13.3962 15.5824C13.3962 16.5255 14.1607 17.29 15.1038 17.29C16.0468 17.29 16.8113 16.5255 16.8113 15.5824C16.8113 14.6394 16.0468 13.8749 15.1038 13.8749ZM10.9569 15.5824C10.9569 13.2922 12.8135 11.4355 15.1038 11.4355C17.394 11.4355 19.2507 13.2922 19.2507 15.5824C19.2507 17.8727 17.394 19.7293 15.1038 19.7293C12.8135 19.7293 10.9569 17.8727 10.9569 15.5824Z" fill="#3F72FD"/>
<path fill-rule="evenodd" clip-rule="evenodd" d="M11.5054 20.6989C10.5762 21.1635 10.4653 21.58 10.4653 21.6781C10.4653 22.5717 10.528 22.641 10.6926 22.7602C10.8504 22.8744 11.198 23.0431 11.9314 23.175C12.6555 23.3052 13.6735 23.3857 15.1001 23.3857C16.5266 23.3857 17.5447 23.3052 18.2688 23.175C19.0021 23.0431 19.3498 22.8744 19.5076 22.7602C19.6722 22.641 19.7348 22.5717 19.7348 21.6781C19.7348 21.58 19.624 21.1635 18.6948 20.6989C17.8382 20.2707 16.5692 19.9706 15.1001 19.9706C13.6309 19.9706 12.3619 20.2707 11.5054 20.6989ZM10.4145 18.5171C11.6765 17.8861 13.3347 17.5312 15.1001 17.5312C16.8655 17.5312 18.5237 17.8861 19.7857 18.5171C20.9751 19.1118 22.1742 20.1589 22.1742 21.6781C22.1742 21.7088 22.1743 21.7407 22.1744 21.7738C22.177 22.5193 22.1817 23.836 20.9378 24.7363C20.3638 25.1517 19.6137 25.4116 18.7006 25.5758C17.7781 25.7417 16.6007 25.825 15.1001 25.825C13.5994 25.825 12.4221 25.7417 11.4996 25.5758C10.5864 25.4116 9.83638 25.1517 9.26237 24.7363C8.01848 23.836 8.02313 22.5193 8.02577 21.7738C8.02588 21.7407 8.026 21.7088 8.026 21.6781C8.026 20.1589 9.22509 19.1118 10.4145 18.5171Z" fill="#3F72FD"/>
<path fill-rule="evenodd" clip-rule="evenodd" d="M21.1968 13.6279C21.1968 12.9543 21.7429 12.4082 22.4165 12.4082H29.7345C30.4081 12.4082 30.9542 12.9543 30.9542 13.6279C30.9542 14.3015 30.4081 14.8475 29.7345 14.8475H22.4165C21.7429 14.8475 21.1968 14.3015 21.1968 13.6279ZM22.6604 18.0187C22.6604 17.3451 23.2065 16.799 23.8801 16.799H29.7345C30.4081 16.799 30.9542 17.3451 30.9542 18.0187C30.9542 18.6923 30.4081 19.2384 29.7345 19.2384H23.8801C23.2065 19.2384 22.6604 18.6923 22.6604 18.0187Z" fill="#7A9EFA"/>
<path fill-rule="evenodd" clip-rule="evenodd" d="M24.1283 22.413C24.1283 21.7394 24.6744 21.1934 25.348 21.1934H29.7388C30.4124 21.1934 30.9584 21.7394 30.9584 22.413C30.9584 23.0866 30.4124 23.6327 29.7388 23.6327H25.348C24.6744 23.6327 24.1283 23.0866 24.1283 22.413Z" fill="#7A9EFA"/>
<path fill-rule="evenodd" clip-rule="evenodd" d="M22.5782 7.57783C25.522 7.57783 27.6007 7.58056 29.1748 7.79227C30.7119 7.99901 31.5738 8.38356 32.198 9.00831C32.8228 9.63362 33.2074 10.4962 33.4143 12.0331C33.6262 13.6069 33.6293 15.6853 33.6293 18.6289C33.6293 20.2486 33.6285 21.6063 33.5924 22.7623L36.0096 25.1794C36.1993 23.4757 36.1993 21.3476 36.1993 18.7248V18.7247V18.5465V18.5465C36.1993 15.7139 36.1993 13.4581 35.9613 11.6902C35.716 9.86815 35.197 8.37373 34.0161 7.19181C32.8346 6.00933 31.3395 5.49026 29.5174 5.24519C27.7521 5.00776 25.5002 5.00778 22.674 5.00781H22.674H16.3278H16.3277C13.4951 5.00779 11.2393 5.00778 9.4714 5.24579C7.6494 5.49108 6.15498 6.01012 4.97306 7.19103C3.79058 8.37251 3.27151 9.86759 3.02644 11.6897C2.78901 13.455 2.78903 15.7069 2.78906 18.5331V18.5331V18.7113V18.7113C2.78904 21.544 2.78903 23.7997 3.02704 25.5677C3.27233 27.3897 3.79137 28.8841 4.97228 30.066C6.15376 31.2485 7.64884 31.7676 9.47099 32.0126C11.2363 32.2501 13.4882 32.25 16.3144 32.25H21.1821C21.4559 31.393 21.8469 30.5167 22.3845 29.68H16.4102C13.4664 29.68 11.3876 29.6773 9.81356 29.4655C8.27644 29.2588 7.41456 28.8743 6.79034 28.2495C6.16556 27.6242 5.78098 26.7616 5.57408 25.2248C5.3622 23.6509 5.35908 21.5725 5.35908 18.6289C5.35908 15.6851 5.36181 13.6064 5.57352 12.0323C5.78026 10.4952 6.16481 9.63331 6.78956 9.00909C7.41487 8.38431 8.27742 7.99973 9.8143 7.79283C11.3881 7.58095 13.4666 7.57783 16.4102 7.57783H22.5782Z" fill="#3F72FD"/>
<path d="M39.1205 27.1286L31.603 19.6111C31.4716 19.4797 31.3041 19.3902 31.1219 19.354C30.9396 19.3177 30.7507 19.3363 30.579 19.4075C30.4073 19.4786 30.2606 19.599 30.1573 19.7535C30.0541 19.908 29.999 20.0896 29.9989 20.2754V23.6066C27.4319 23.8442 25.046 25.0311 23.308 26.9351C21.57 28.839 20.6051 31.323 20.602 33.901V35.3105C20.6021 35.5056 20.663 35.6957 20.7761 35.8547C20.8892 36.0136 21.049 36.1334 21.2332 36.1974C21.4175 36.2614 21.6171 36.2666 21.8044 36.212C21.9916 36.1575 22.1573 36.046 22.2784 35.8931C23.1992 34.7985 24.3288 33.8983 25.6012 33.245C26.8737 32.5917 28.2636 32.1985 29.6898 32.0883C29.7367 32.0827 29.8542 32.0733 29.9989 32.0639V35.3105C29.999 35.4963 30.0541 35.678 30.1573 35.8325C30.2606 35.987 30.4073 36.1074 30.579 36.1785C30.7507 36.2496 30.9396 36.2682 31.1219 36.232C31.3041 36.1957 31.4716 36.1062 31.603 35.9749L39.1205 28.4573C39.2967 28.2811 39.3956 28.0421 39.3956 27.793C39.3956 27.5438 39.2967 27.3048 39.1205 27.1286ZM31.8783 33.0421V31.0819C31.8783 30.8327 31.7793 30.5937 31.6031 30.4174C31.4268 30.2412 31.1878 30.1422 30.9386 30.1422C30.699 30.1422 29.7208 30.1892 29.4708 30.2221C26.9381 30.4552 24.5273 31.4174 22.5302 32.9923C22.7569 30.9197 23.7401 29.0036 25.2916 27.6108C26.843 26.218 28.8537 25.4464 30.9386 25.4437C31.1878 25.4437 31.4268 25.3447 31.6031 25.1685C31.7793 24.9923 31.8783 24.7533 31.8783 24.504V22.5438L37.1274 27.793L31.8783 33.0421Z" fill="#3F72FD"/>
</svg>
