<svg width="40" height="40" viewBox="0 0 40 40" fill="none" xmlns="http://www.w3.org/2000/svg">
<path fill-rule="evenodd" clip-rule="evenodd" d="M22.4016 3H26.2492C28.2131 2.99998 29.7846 2.99997 31.047 3.12001C32.3448 3.2434 33.4571 3.50328 34.4522 4.11309C35.4686 4.73592 36.3231 5.59045 36.946 6.60682C37.5558 7.60195 37.8156 8.71424 37.939 10.0121C38.0591 11.2745 38.0591 12.846 38.059 14.8098V16.1651C38.0591 17.563 38.0591 18.6819 37.9971 19.5907C37.9335 20.5225 37.8002 21.3333 37.4841 22.0964C36.7174 23.9472 35.247 25.4177 33.3962 26.1843C32.445 26.5783 31.4062 26.692 30.1392 26.7341L30.048 23.9889C31.2456 23.9491 31.8712 23.8429 32.345 23.6467C33.5228 23.1588 34.4586 22.223 34.9464 21.0452C35.1008 20.6726 35.2027 20.1956 35.2567 19.4037C35.3116 18.5994 35.3123 17.5743 35.3123 16.1157V14.8796C35.3123 12.83 35.3109 11.3892 35.2047 10.272C35.1004 9.17528 34.9049 8.533 34.604 8.04198C34.2077 7.3952 33.6639 6.8514 33.0171 6.45506C32.5261 6.15416 31.8838 5.95868 30.787 5.8544C29.6698 5.74818 28.2291 5.74673 26.1795 5.74673H22.4714C20.4218 5.74673 18.981 5.74818 17.8638 5.8544C16.767 5.95868 16.1248 6.15416 15.6337 6.45506C14.987 6.8514 14.4432 7.3952 14.0468 8.04198C13.6781 8.64368 13.4735 9.45992 13.3915 11.0369L10.6484 10.8942C10.7365 9.20098 10.9659 7.81262 11.7049 6.60682C12.3277 5.59045 13.1822 4.73592 14.1986 4.11309C15.1937 3.50328 16.306 3.2434 17.6038 3.12001C18.8663 2.99997 20.4378 2.99998 22.4016 3Z" fill="#7A9EFA"/>
<path fill-rule="evenodd" clip-rule="evenodd" d="M15.9942 8.32031H20.0899C22.1882 8.3203 23.8608 8.32028 25.2031 8.44791C26.5807 8.57889 27.7515 8.85394 28.7961 9.49411C29.868 10.1509 30.7691 11.0521 31.4259 12.1239C32.0661 13.1685 32.3411 14.3393 32.4721 15.7169C32.5997 17.0592 32.5997 18.7318 32.5997 20.8302V22.2685C32.5997 23.7622 32.5997 24.953 32.5338 25.9192C32.4663 26.9085 32.3251 27.7622 31.9933 28.5632C31.1849 30.5149 29.6342 32.0656 27.6824 32.8741C26.6747 33.2915 25.5689 33.4112 24.2012 33.4549C23.4647 33.4785 23.0026 33.4945 22.6536 33.5371C22.3263 33.577 22.2207 33.6284 22.1751 33.6554C22.121 33.6874 22.0291 33.754 21.8525 33.9971C21.6597 34.2627 21.4397 34.6315 21.0841 35.2323L20.6566 35.9546C19.4878 37.9293 16.5963 37.9293 15.4274 35.9546L14.9999 35.2323C14.6443 34.6315 14.4244 34.2627 14.2315 33.9971C14.0549 33.754 13.963 33.6874 13.9089 33.6554C13.8633 33.6284 13.7577 33.577 13.4304 33.5371C13.0814 33.4945 12.6193 33.4785 11.8828 33.4549C10.5151 33.4112 9.40932 33.2915 8.40161 32.8741C6.44984 32.0656 4.89916 30.5149 4.09071 28.5632C3.75895 27.7622 3.61778 26.9085 3.55029 25.9192C3.48436 24.953 3.48437 23.7622 3.48438 22.2685V20.8302C3.48436 18.7318 3.48435 17.0592 3.61197 15.7169C3.74295 14.3393 4.018 13.1685 4.65817 12.1239C5.31497 11.0521 6.21611 10.1509 7.28792 9.49411C8.33257 8.85394 9.50336 8.57889 10.881 8.44791C12.2232 8.32028 13.8958 8.3203 15.9942 8.32031ZM11.141 11.1823C9.9644 11.2942 9.26363 11.5048 8.72308 11.8361C8.02087 12.2664 7.43046 12.8568 7.00014 13.559C6.66889 14.0996 6.45823 14.8004 6.34636 15.9769C6.23255 17.1739 6.2311 18.7159 6.2311 20.9004V22.2188C6.2311 23.7734 6.23185 24.8705 6.29064 25.7323C6.3486 26.5817 6.45833 27.1016 6.62836 27.512C7.15804 28.7908 8.174 29.8068 9.45275 30.3364C9.97944 30.5546 10.6682 30.6679 11.9706 30.7096L12.0261 30.7114C12.6905 30.7326 13.2771 30.7513 13.763 30.8106C14.284 30.8741 14.8072 30.9955 15.3074 31.2913C15.799 31.5822 16.1514 31.9665 16.4538 32.3829C16.7317 32.7655 17.0169 33.2474 17.335 33.7849L17.7912 34.5555C17.8389 34.6362 17.9222 34.6889 18.042 34.6889C18.1618 34.6889 18.2451 34.6362 18.2929 34.5555L18.749 33.7849C19.0671 33.2474 19.3523 32.7655 19.6302 32.3829C19.9327 31.9665 20.285 31.5822 20.7767 31.2913C21.2768 30.9955 21.8 30.8741 22.3211 30.8106C22.8069 30.7513 23.3935 30.7326 24.0578 30.7114L24.1134 30.7096C25.4159 30.6679 26.1046 30.5546 26.6313 30.3364C27.9101 29.8068 28.926 28.7908 29.4557 27.512C29.6257 27.1016 29.7355 26.5817 29.7934 25.7323C29.8522 24.8705 29.853 23.7734 29.853 22.2188V20.9004C29.853 18.7159 29.8515 17.1739 29.7377 15.9769C29.6258 14.8004 29.4152 14.0996 29.0839 13.559C28.6536 12.8568 28.0632 12.2664 27.361 11.8361C26.8204 11.5048 26.1197 11.2942 24.9431 11.1823C23.7461 11.0685 22.2042 11.067 20.0197 11.067H16.0644C13.8799 11.067 12.338 11.0685 11.141 11.1823Z" fill="#3F72FD"/>
<path fill-rule="evenodd" clip-rule="evenodd" d="M15.8442 17.6608C15.6256 17.6608 15.416 17.7476 15.2615 17.9021C15.107 18.0567 15.0202 18.2663 15.0202 18.4848V20.4075H16.6682V18.4848C16.6682 18.2663 16.5814 18.0567 16.4269 17.9021C16.2723 17.7476 16.0627 17.6608 15.8442 17.6608ZM19.4149 18.4848C19.4149 17.5378 19.0387 16.6296 18.3691 15.9599C17.6994 15.2903 16.7912 14.9141 15.8442 14.9141C14.8972 14.9141 13.9889 15.2903 13.3193 15.9599C12.6496 16.6296 12.2734 17.5378 12.2734 18.4848V25.077C12.2734 25.8354 12.8883 26.4503 13.6468 26.4503C14.4053 26.4503 15.0202 25.8354 15.0202 25.077V23.1542H16.6682V25.077C16.6682 25.8354 17.2831 26.4503 18.0416 26.4503C18.8001 26.4503 19.4149 25.8354 19.4149 25.077V18.4848ZM22.4363 14.9141C23.1948 14.9141 23.8097 15.5289 23.8097 16.2874V25.077C23.8097 25.8354 23.1948 26.4503 22.4363 26.4503C21.6778 26.4503 21.063 25.8354 21.063 25.077V16.2874C21.063 15.5289 21.6778 14.9141 22.4363 14.9141Z" fill="#3F72FD"/>
</svg>
