<svg width="40" height="40" viewBox="0 0 40 40" fill="none" xmlns="http://www.w3.org/2000/svg">
<path d="M14.9658 20C16.8201 20 18.3232 18.4968 18.3232 16.6426C18.3232 14.7883 16.8201 13.2852 14.9658 13.2852C13.1116 13.2852 11.6084 14.7883 11.6084 16.6426C11.6084 18.4968 13.1116 20 14.9658 20Z" stroke="#3F72FD" stroke-width="2.5"/>
<path d="M21.6807 23.9199C21.6807 25.7749 21.6807 27.2773 14.9658 27.2773C8.25098 27.2773 8.25098 25.7749 8.25098 23.9199C8.25098 22.0649 11.2559 20.5625 14.9658 20.5625C18.6758 20.5625 21.6807 22.0649 21.6807 23.9199Z" stroke="#3F72FD" stroke-width="2.5"/>
<path d="M3.21484 20C3.21484 13.6696 3.21484 10.5035 5.18229 8.53776C7.14974 6.57199 10.3141 6.57031 16.6445 6.57031H23.3594C29.6898 6.57031 32.8558 6.57031 34.8216 8.53776C36.7874 10.5052 36.7891 13.6696 36.7891 20C36.7891 26.3304 36.7891 29.4965 34.8216 31.4622C32.8542 33.428 29.6898 33.4297 23.3594 33.4297H16.6445C10.3141 33.4297 7.14806 33.4297 5.18229 31.4622C3.21652 29.4948 3.21484 26.3304 3.21484 20Z" stroke="#3F72FD" stroke-width="2.5"/>
<path d="M31.7529 19.4385H25.0381M31.7529 14.4023H23.3594M31.7529 24.4746H26.7168" stroke="#7A9EFA" stroke-width="2.5" stroke-linecap="round"/>
</svg>
