<svg width="34" height="33" viewBox="0 0 34 33" fill="none" xmlns="http://www.w3.org/2000/svg">
<g id="Group">
<path id="Vector (Stroke)" fill-rule="evenodd" clip-rule="evenodd" d="M1.5 11.5C1.5 10.8096 2.05964 10.25 2.75 10.25H31.25C31.9404 10.25 32.5 10.8096 32.5 11.5C32.5 12.1904 31.9404 12.75 31.25 12.75H2.75C2.05964 12.75 1.5 12.1904 1.5 11.5Z" fill="#7A9EFA"/>
<path id="Vector (Stroke)_2" fill-rule="evenodd" clip-rule="evenodd" d="M26.4169 5.4586C24.8857 5.25266 22.8636 5.25 20 5.25H14C11.1366 5.25 9.1148 5.25303 7.58384 5.45914C6.08883 5.66041 5.24978 6.03451 4.64151 6.64226C4.03378 7.24948 3.6597 8.08788 3.4586 9.58312C3.25266 11.1143 3.25 13.1364 3.25 16V19C3.25 21.8634 3.25303 23.8852 3.45914 25.4162C3.66041 26.9112 4.03451 27.7502 4.64226 28.3585C5.24948 28.9662 6.08788 29.3403 7.58312 29.5414C9.11431 29.7473 11.1364 29.75 14 29.75H20C22.8634 29.75 24.8852 29.747 26.4162 29.5409C27.9112 29.3396 28.7502 28.9655 29.3585 28.3577C29.9662 27.7505 30.3403 26.9121 30.5414 25.4169C30.7473 23.8857 30.75 21.8636 30.75 19V16C30.75 13.1366 30.747 11.1148 30.5409 9.58384C30.3396 8.08883 29.9655 7.24978 29.3577 6.64151C28.7505 6.03378 27.9121 5.6597 26.4169 5.4586ZM26.7501 2.98091C28.5226 3.2193 29.977 3.72423 31.1263 4.8745C32.275 6.02422 32.7799 7.47792 33.0185 9.25029C33.25 10.9701 33.25 13.1644 33.25 15.9199V19.0932C33.25 21.8424 33.2501 24.0329 33.0191 25.7501C32.7807 27.5226 32.2758 28.977 31.1255 30.1263C29.9758 31.275 28.5221 31.7799 26.7497 32.0185C25.0299 32.25 22.8356 32.25 20.0801 32.25H13.9068C11.1576 32.25 8.96709 32.2501 7.24988 32.0191C5.47738 31.7807 4.02303 31.2758 2.87374 30.1255C1.725 28.9758 1.2201 27.5221 0.98149 25.7497C0.749962 24.0299 0.749979 21.8356 0.750001 19.0801L0.750001 15.9068C0.749972 13.1577 0.749948 10.9671 0.980906 9.24988C1.2193 7.47738 1.72423 6.02303 2.8745 4.87374C4.02422 3.725 5.47792 3.2201 7.25029 2.98149C8.97006 2.74996 11.1644 2.74998 13.9199 2.75L20.0932 2.75C22.8423 2.74997 25.0329 2.74995 26.7501 2.98091Z" fill="#3F72FD"/>
<g id="Vector (Stroke)_3">
<path d="M9.5 0C10.1904 0 10.75 0.559644 10.75 1.25V3.5C10.75 4.19036 10.1904 4.75 9.5 4.75C8.80964 4.75 8.25 4.19036 8.25 3.5V1.25C8.25 0.559644 8.80964 0 9.5 0Z" fill="#7A9EFA"/>
<path d="M24.5 0C25.1904 0 25.75 0.559644 25.75 1.25V3.5C25.75 4.19036 25.1904 4.75 24.5 4.75C23.8096 4.75 23.25 4.19036 23.25 3.5V1.25C23.25 0.559644 23.8096 0 24.5 0Z" fill="#7A9EFA"/>
</g>
<g id="Group 2951">
<circle id="Ellipse 483" cx="10" cy="17.75" r="1.75" fill="#3F72FD"/>
<circle id="Ellipse 486" cx="10" cy="23.75" r="1.75" fill="#3F72FD"/>
<circle id="Ellipse 484" cx="17" cy="17.75" r="1.75" fill="#3F72FD"/>
<circle id="Ellipse 487" cx="17" cy="23.75" r="1.75" fill="#3F72FD"/>
<circle id="Ellipse 485" cx="24" cy="17.75" r="1.75" fill="#3F72FD"/>
<circle id="Ellipse 488" cx="24" cy="23.75" r="1.75" fill="#3F72FD"/>
</g>
</g>
</svg>
