<svg width="28" height="28" viewBox="0 0 28 28" fill="none" xmlns="http://www.w3.org/2000/svg">
<path d="M3.00006 6.75C3.00006 5.75544 3.39515 4.80161 4.09841 4.09835C4.80167 3.39509 5.7555 3 6.75006 3H21.2501C22.2446 3 23.1985 3.39509 23.9017 4.09835C24.605 4.80161 25.0001 5.75544 25.0001 6.75V21.25C25.0001 22.2446 24.605 23.1984 23.9017 23.9017C23.1985 24.6049 22.2446 25 21.2501 25H6.75006C5.7555 25 4.80167 24.6049 4.09841 23.9017C3.39515 23.1984 3.00006 22.2446 3.00006 21.25V6.75ZM6.75006 4.5C6.15332 4.5 5.58103 4.73705 5.15907 5.15901C4.73711 5.58097 4.50006 6.15326 4.50006 6.75V21.25C4.50006 21.611 4.58506 21.952 4.73606 22.255L12.6021 14.567C12.9757 14.2017 13.4775 13.9972 14.0001 13.9972C14.5226 13.9972 15.0244 14.2017 15.3981 14.567L23.2641 22.255C23.4192 21.9427 23.5 21.5987 23.5001 21.25V6.75C23.5001 6.15326 23.263 5.58097 22.8411 5.15901C22.4191 4.73705 21.8468 4.5 21.2501 4.5H6.75006ZM22.1851 23.297L14.3491 15.64C14.2556 15.5487 14.1302 15.4976 13.9996 15.4976C13.8689 15.4976 13.7435 15.5487 13.6501 15.64L5.81506 23.297C6.10006 23.427 6.41606 23.5 6.75006 23.5H21.2501C21.5831 23.5 21.9011 23.427 22.1851 23.297ZM18.5001 11C18.2348 11 17.9805 10.8946 17.793 10.7071C17.6054 10.5196 17.5001 10.2652 17.5001 10C17.5001 9.73478 17.6054 9.48043 17.793 9.29289C17.9805 9.10536 18.2348 9 18.5001 9C18.7653 9 19.0196 9.10536 19.2072 9.29289C19.3947 9.48043 19.5001 9.73478 19.5001 10C19.5001 10.2652 19.3947 10.5196 19.2072 10.7071C19.0196 10.8946 18.7653 11 18.5001 11ZM18.5001 12.5C19.1631 12.5 19.799 12.2366 20.2678 11.7678C20.7367 11.2989 21.0001 10.663 21.0001 10C21.0001 9.33696 20.7367 8.70107 20.2678 8.23223C19.799 7.76339 19.1631 7.5 18.5001 7.5C17.837 7.5 17.2011 7.76339 16.7323 8.23223C16.2635 8.70107 16.0001 9.33696 16.0001 10C16.0001 10.663 16.2635 11.2989 16.7323 11.7678C17.2011 12.2366 17.837 12.5 18.5001 12.5Z" fill="#CFD4D9"/>
</svg>
