<svg width="80" height="71" viewBox="0 0 80 71" fill="none" xmlns="http://www.w3.org/2000/svg">
<g id="Group 2958">
<g id="Group 2957">
<g id="Group">
<path id="Vector" d="M2.83594 30.1693C2.83594 17.285 2.83594 10.8412 6.84027 6.84027C10.8446 2.83935 17.285 2.83594 30.1693 2.83594H43.8359C56.7202 2.83594 63.164 2.83594 67.1649 6.84027C71.1659 10.8446 71.1693 17.285 71.1693 30.1693C71.1693 43.0535 71.1693 49.4974 67.1649 53.4983C63.1606 57.4992 56.7202 57.5026 43.8359 57.5026H30.1693C17.285 57.5026 10.8412 57.5026 6.84027 53.4983C2.83935 49.4939 2.83594 43.0535 2.83594 30.1693Z" stroke="#CFD4D9" stroke-width="4.5"/>
<path id="Vector_2" d="M26.7525 26.7526C30.5265 26.7526 33.5859 23.6932 33.5859 19.9193C33.5859 16.1453 30.5265 13.0859 26.7525 13.0859C22.9786 13.0859 19.9192 16.1453 19.9192 19.9193C19.9192 23.6932 22.9786 26.7526 26.7525 26.7526Z" stroke="#CFD4D9" stroke-width="4.5"/>
<path id="Vector_3" d="M40.4193 40.4193C40.4193 44.1947 40.4193 47.2526 26.7526 47.2526C13.0859 47.2526 13.0859 44.1947 13.0859 40.4193C13.0859 36.6439 19.2018 33.5859 26.7526 33.5859C34.3034 33.5859 40.4193 36.6439 40.4193 40.4193Z" stroke="#CFD4D9" stroke-width="4.5"/>
<path id="Vector_4" d="M60.9193 30.1693H47.2526M60.9193 19.9193H43.8359" stroke="#CFD4D9" stroke-width="4.5" stroke-linecap="round"/>
<path id="Vector_5" opacity="0.9" d="M60.9192 40.4193H50.6692" stroke="#CFD4D9" stroke-width="4.5" stroke-linecap="round"/>
</g>
</g>
<g id="Group 2928">
<circle id="Ellipse 450" cx="67" cy="57.1641" r="11.25" fill="white" stroke="#CFD4D9" stroke-width="3.5"/>
<g id="Group 2911">
<path id="Line 94" d="M63.4636 53.6285L70.5347 60.6996" stroke="#CFD4D9" stroke-width="3.5" stroke-linecap="round"/>
<path id="Line 95" d="M63.4636 60.6996L70.5347 53.6285" stroke="#CFD4D9" stroke-width="3.5" stroke-linecap="round"/>
</g>
</g>
</g>
</svg>
