<svg width="54" height="54" viewBox="0 0 54 54" fill="none" xmlns="http://www.w3.org/2000/svg">
<path d="M4.5 30H3V33H4.5V30ZM49.5 33H51V30H49.5V33ZM20.25 48C19.4216 48 18.75 48.6716 18.75 49.5C18.75 50.3284 19.4216 51 20.25 51V48ZM33.75 51C34.5784 51 35.25 50.3284 35.25 49.5C35.25 48.6716 34.5784 48 33.75 48V51ZM28.5 40.5C28.5 39.6716 27.8284 39 27 39C26.1716 39 25.5 39.6716 25.5 40.5H28.5ZM11.25 6H42.75V3H11.25V6ZM48 11.25V33.75H51V11.25H48ZM42.75 39H11.25V42H42.75V39ZM6 33.75V11.25H3V33.75H6ZM11.25 39C8.3505 39 6 36.6495 6 33.75H3C3 38.3063 6.69365 42 11.25 42V39ZM48 33.75C48 36.6495 45.6495 39 42.75 39V42C47.3064 42 51 38.3064 51 33.75H48ZM42.75 6C45.6495 6 48 8.35051 48 11.25H51C51 6.69365 47.3064 3 42.75 3V6ZM11.25 3C6.69365 3 3 6.69365 3 11.25H6C6 8.35051 8.35051 6 11.25 6V3ZM4.5 33H49.5V30H4.5V33ZM20.25 51H27V48H20.25V51ZM27 51H33.75V48H27V51ZM28.5 49.5V40.5H25.5V49.5H28.5Z" fill="#2878F5"/>
<path d="M7.5 30H6V33H7.5V30ZM46.5 33H48V30H46.5V33ZM7.5 33H46.5V30H7.5V33Z" fill="#F37E00"/>
</svg>
