<svg width="54" height="54" viewBox="0 0 54 54" fill="none" xmlns="http://www.w3.org/2000/svg">
<path d="M19.6928 47.25H42.75M26.5149 11.9514C26.5149 11.9514 26.5149 15.6293 30.1928 19.3072C33.8707 22.9851 37.5486 22.9851 37.5486 22.9851M11.9692 40.4732L19.6928 39.3698C20.8069 39.2106 21.8393 38.6944 22.6351 37.8986L41.2266 19.3072C43.2578 17.2759 43.2578 13.9826 41.2266 11.9513L37.5487 8.27344C35.5174 6.24219 32.2241 6.24219 30.1928 8.27344L11.6014 26.8649C10.8056 27.6607 10.2894 28.6931 10.1302 29.8072L9.02683 37.5308C8.78164 39.2472 10.2528 40.7184 11.9692 40.4732Z" stroke="#2878F5" stroke-width="3" stroke-linecap="round"/>
<path d="M19.7 45.75C18.8715 45.75 18.2 46.4216 18.2 47.25C18.2 48.0784 18.8715 48.75 19.7 48.75V45.75ZM42.7572 48.75C43.5856 48.75 44.2572 48.0784 44.2572 47.25C44.2572 46.4216 43.5856 45.75 42.7572 45.75V48.75ZM19.7 48.75H42.7572V45.75H19.7V48.75Z" fill="#F37E00"/>
</svg>
