<svg width="54" height="54" viewBox="0 0 54 54" fill="none" xmlns="http://www.w3.org/2000/svg">
<path d="M18 37.125H16.5C16.5 37.65 16.7745 38.1368 17.2237 38.4085C17.6729 38.6802 18.2315 38.6973 18.6964 38.4535L18 37.125ZM3 49.5C3 50.3284 3.67157 51 4.5 51C5.32843 51 6 50.3284 6 49.5H3ZM25.2963 33.3001L25.9928 34.6286L26.0485 34.5994L26.1016 34.5656L25.2963 33.3001ZM28.7805 38.8247L29.4849 40.149L29.5311 40.1244L29.5755 40.0967L28.7805 38.8247ZM19.7196 43.644L19.0152 42.3197L18.969 42.3443L18.9246 42.372L19.7196 43.644ZM13.4275 42.0606L14.7299 41.3164L13.4275 42.0606ZM12.5524 37.5058C12.1413 36.7865 11.2251 36.5366 10.5058 36.9476C9.78652 37.3587 9.53662 38.2749 9.94764 38.9942L12.5524 37.5058ZM29.85 34.3751L31.1363 33.6033L29.85 34.3751ZM19.5 45C19.5 44.1716 18.8284 43.5 18 43.5C17.1716 43.5 16.5 44.1716 16.5 45H19.5ZM16.5 49.5C16.5 50.3284 17.1716 51 18 51C18.8284 51 19.5 50.3284 19.5 49.5H16.5ZM29.1095 31.8197L28.3042 33.0852L30.8352 34.6958L31.6405 33.4303L29.1095 31.8197ZM39.5155 21.0553C39.9603 20.3564 39.7542 19.4293 39.0553 18.9845C38.3564 18.5397 37.4293 18.7458 36.9845 19.4447L39.5155 21.0553ZM12 10.125C12 10.9534 12.6716 11.625 13.5 11.625C14.3284 11.625 15 10.9534 15 10.125H12ZM42.75 25.5C41.9216 25.5 41.25 26.1716 41.25 27C41.25 27.8284 41.9216 28.5 42.75 28.5V25.5ZM22.5 12C21.6716 12 21 12.6716 21 13.5C21 14.3284 21.6716 15 22.5 15V12ZM40.5 15C41.3284 15 42 14.3284 42 13.5C42 12.6716 41.3284 12 40.5 12V15ZM22.5 18.75C21.6716 18.75 21 19.4216 21 20.25C21 21.0784 21.6716 21.75 22.5 21.75V18.75ZM31.5 21.75C32.3284 21.75 33 21.0784 33 20.25C33 19.4216 32.3284 18.75 31.5 18.75V21.75ZM14.25 20.25C14.25 21.9069 12.9069 23.25 11.25 23.25V26.25C14.5637 26.25 17.25 23.5637 17.25 20.25H14.25ZM11.25 23.25C9.59315 23.25 8.25 21.9069 8.25 20.25H5.25C5.25 23.5637 7.93629 26.25 11.25 26.25V23.25ZM8.25 20.25C8.25 18.5931 9.59315 17.25 11.25 17.25V14.25C7.93629 14.25 5.25 16.9363 5.25 20.25H8.25ZM11.25 17.25C12.9069 17.25 14.25 18.5931 14.25 20.25H17.25C17.25 16.9363 14.5637 14.25 11.25 14.25V17.25ZM19.5 37.125V36H16.5V37.125H19.5ZM3 36V49.5H6V36H3ZM18.6964 38.4535L25.9928 34.6286L24.5999 31.9716L17.3036 35.7965L18.6964 38.4535ZM28.0761 37.5004L19.0152 42.3197L20.424 44.9683L29.4849 40.149L28.0761 37.5004ZM14.7299 41.3164L12.5524 37.5058L9.94764 38.9942L12.1251 42.8048L14.7299 41.3164ZM26.1016 34.5656C26.9397 34.0322 28.0527 34.295 28.5638 35.1468L31.1363 33.6033C29.7568 31.3042 26.753 30.5951 24.491 32.0346L26.1016 34.5656ZM18.9246 42.372C17.4802 43.2747 15.5749 42.7953 14.7299 41.3164L12.1251 42.8048C13.8153 45.7625 17.6259 46.7215 20.5146 44.916L18.9246 42.372ZM6 36C6 33.1005 8.35051 30.75 11.25 30.75V27.75C6.69365 27.75 3 31.4437 3 36H6ZM28.5638 35.1468C29.0591 35.9723 28.8019 37.0425 27.9855 37.5527L29.5755 40.0967C31.7789 38.7196 32.4731 35.8313 31.1363 33.6033L28.5638 35.1468ZM19.5 36C19.5 31.4437 15.8063 27.75 11.25 27.75V30.75C14.1495 30.75 16.5 33.1005 16.5 36H19.5ZM16.5 45V49.5H19.5V45H16.5ZM31.6405 33.4303L39.5155 21.0553L36.9845 19.4447L29.1095 31.8197L31.6405 33.4303ZM15 10.125V9H12V10.125H15ZM18 6H45V3H18V6ZM48 9V22.5H51V9H48ZM45 25.5H42.75V28.5H45V25.5ZM48 22.5C48 24.1569 46.6569 25.5 45 25.5V28.5C48.3137 28.5 51 25.8137 51 22.5H48ZM45 6C46.6569 6 48 7.34315 48 9H51C51 5.68629 48.3137 3 45 3V6ZM15 9C15 7.34315 16.3431 6 18 6V3C14.6863 3 12 5.68629 12 9H15ZM22.5 15H40.5V12H22.5V15ZM22.5 21.75H31.5V18.75H22.5V21.75Z" fill="#2878F5"/>
<path d="M22.5 12C21.6716 12 21 12.6716 21 13.5C21 14.3284 21.6716 15 22.5 15V12ZM40.5 15C41.3284 15 42 14.3284 42 13.5C42 12.6716 41.3284 12 40.5 12V15ZM22.5 18.75C21.6716 18.75 21 19.4216 21 20.25C21 21.0784 21.6716 21.75 22.5 21.75V18.75ZM31.5 21.75C32.3284 21.75 33 21.0784 33 20.25C33 19.4216 32.3284 18.75 31.5 18.75V21.75ZM22.5 15H40.5V12H22.5V15ZM22.5 21.75H31.5V18.75H22.5V21.75Z" fill="#F37E00"/>
</svg>
