<svg width="54" height="54" viewBox="0 0 54 54" fill="none" xmlns="http://www.w3.org/2000/svg">
<path d="M6.75 13.5V12C5.92157 12 5.25 12.6716 5.25 13.5H6.75ZM47.25 13.5H48.75C48.75 12.6716 48.0784 12 47.25 12V13.5ZM16.7138 30.7283C16.2875 31.4386 16.5179 32.36 17.2283 32.7862C17.9386 33.2125 18.86 32.9821 19.2862 32.2717L16.7138 30.7283ZM20.4351 27.4416L19.1488 26.6698L20.4351 27.4416ZM33.5649 26.5584L34.8512 27.3302L33.5649 26.5584ZM37.2862 23.2717C37.7125 22.5614 37.4821 21.64 36.7717 21.2138C36.0614 20.7875 35.14 21.0179 34.7138 21.7283L37.2862 23.2717ZM28.5 40.5C28.5 39.6716 27.8284 39 27 39C26.1716 39 25.5 39.6716 25.5 40.5H28.5ZM25.5 49.5C25.5 50.3284 26.1716 51 27 51C27.8284 51 28.5 50.3284 28.5 49.5H25.5ZM9 6H45V3H9V6ZM45 12H9V15H45V12ZM9 12C7.34315 12 6 10.6569 6 9H3C3 12.3137 5.68629 15 9 15V12ZM48 9C48 10.6569 46.6569 12 45 12V15C48.3137 15 51 12.3137 51 9H48ZM45 6C46.6569 6 48 7.34315 48 9H51C51 5.68629 48.3137 3 45 3V6ZM9 3C5.68629 3 3 5.68629 3 9H6C6 7.34315 7.34315 6 9 6V3ZM6.75 15H47.25V12H6.75V15ZM45.75 13.5V36H48.75V13.5H45.75ZM42.75 39H11.25V42H42.75V39ZM8.25 36V13.5H5.25V36H8.25ZM11.25 39C9.59315 39 8.25 37.6569 8.25 36H5.25C5.25 39.3137 7.93629 42 11.25 42V39ZM45.75 36C45.75 37.6569 44.4069 39 42.75 39V42C46.0637 42 48.75 39.3137 48.75 36H45.75ZM19.2862 32.2717L21.7213 28.2133L19.1488 26.6698L16.7138 30.7283L19.2862 32.2717ZM34.8512 27.3302L37.2862 23.2717L34.7138 21.7283L32.2787 25.7867L34.8512 27.3302ZM25.8287 27.937C28.2261 30.9338 32.8767 30.621 34.8512 27.3302L32.2787 25.7867C31.3798 27.2848 29.2627 27.4272 28.1713 26.063L25.8287 27.937ZM21.7213 28.2133C22.6202 26.7152 24.7373 26.5728 25.8287 27.937L28.1713 26.063C25.7739 23.0662 21.1233 23.379 19.1488 26.6698L21.7213 28.2133ZM25.5 40.5V49.5H28.5V40.5H25.5Z" fill="#2878F5"/>
<path d="M16.7138 30.7283C16.2875 31.4386 16.5179 32.36 17.2283 32.7862C17.9386 33.2125 18.86 32.9821 19.2862 32.2717L16.7138 30.7283ZM20.4351 27.4416L19.1488 26.6698L19.1488 26.6698L20.4351 27.4416ZM33.5649 26.5584L34.8512 27.3302L33.5649 26.5584ZM37.2862 23.2717C37.7125 22.5614 37.4821 21.64 36.7717 21.2138C36.0614 20.7875 35.14 21.0179 34.7138 21.7283L37.2862 23.2717ZM19.2862 32.2717L21.7213 28.2133L19.1488 26.6698L16.7138 30.7283L19.2862 32.2717ZM34.8512 27.3302L37.2862 23.2717L34.7138 21.7283L32.2787 25.7867L34.8512 27.3302ZM25.8287 27.937C28.2261 30.9338 32.8767 30.621 34.8512 27.3302L32.2787 25.7867C31.3798 27.2848 29.2627 27.4272 28.1713 26.063L25.8287 27.937ZM21.7213 28.2133C22.6202 26.7152 24.7373 26.5728 25.8287 27.937L28.1713 26.063C25.7739 23.0662 21.1233 23.379 19.1488 26.6698L21.7213 28.2133Z" fill="#F37E00"/>
</svg>
