<svg width="25" height="23" viewBox="0 0 25 23" fill="none" xmlns="http://www.w3.org/2000/svg">
<g id="hum" clip-path="url(#clip0_113_1070)">
<path id="Vector" d="M12.7771 2.87458L7.8271 7.46394C6.84821 8.37161 6.18159 9.52802 5.91155 10.7869C5.64152 12.0459 5.78018 13.3507 6.31002 14.5366C6.83985 15.7225 7.73706 16.736 8.88819 17.4491C10.0393 18.1622 11.3927 18.5428 12.7771 18.5428C14.1615 18.5428 15.5149 18.1622 16.666 17.4491C17.8171 16.736 18.7144 15.7225 19.2442 14.5366C19.774 13.3507 19.9127 12.0459 19.6427 10.7869C19.3726 9.52802 18.706 8.37161 17.7271 7.46394L12.7771 2.87458ZM12.7771 0.252625L19.1411 6.15296C20.3998 7.31994 21.2569 8.80674 21.6042 10.4254C21.9514 12.044 21.7732 13.7218 21.092 15.2465C20.4108 16.7712 19.2573 18.0744 17.7772 18.9913C16.2972 19.9081 14.5571 20.3975 12.7771 20.3975C10.9971 20.3975 9.25702 19.9081 7.77698 18.9913C6.29694 18.0744 5.14339 16.7712 4.4622 15.2465C3.78101 13.7218 3.60277 12.044 3.95003 10.4254C4.29729 8.80674 5.15444 7.31994 6.4131 6.15296L12.7771 0.252625Z" fill="#688AB1"/>
</g>
<defs>
<clipPath id="clip0_113_1070">
<rect width="24" height="22.2514" fill="white" transform="translate(0.7771)"/>
</clipPath>
</defs>
</svg>
