<svg width="50" height="51" viewBox="0 0 50 51" fill="none" xmlns="http://www.w3.org/2000/svg">
<g clip-path="url(#clip0_0_4867)">
<path d="M24.9999 39.8094C32.8109 39.8094 39.1429 33.4774 39.1429 25.6664C39.1429 17.8555 32.8109 11.5234 24.9999 11.5234C17.189 11.5234 10.8569 17.8555 10.8569 25.6664C10.8569 33.4774 17.189 39.8094 24.9999 39.8094Z" fill="#FFD347"/>
<path d="M25.0002 6.21768C24.5829 6.21768 24.2446 5.87949 24.2446 5.46211V1.42158C24.2446 1.0042 24.5829 0.666016 25.0002 0.666016C25.4175 0.666016 25.7558 1.0042 25.7558 1.42158V5.46221C25.7558 5.87949 25.4175 6.21768 25.0002 6.21768Z" fill="#FFD347"/>
<path d="M14.8986 8.92451C14.6375 8.92451 14.3836 8.78906 14.2436 8.54668L12.2234 5.04746C12.0148 4.68614 12.1385 4.22403 12.5 4.01534C12.8614 3.80694 13.3234 3.93037 13.5321 4.2919L15.5523 7.79112C15.7609 8.15244 15.6372 8.61455 15.2758 8.82324C15.1567 8.8919 15.0268 8.92451 14.8986 8.92451Z" fill="#FFD347"/>
<path d="M7.5022 16.3206C7.37407 16.3206 7.24409 16.288 7.12515 16.2193L3.62593 14.199C3.2646 13.9905 3.14077 13.5283 3.34936 13.1669C3.55796 12.8055 4.02007 12.6819 4.38149 12.8904L7.88071 14.9106C8.24204 15.1192 8.36587 15.5813 8.15728 15.9427C8.01724 16.1852 7.76333 16.3206 7.5022 16.3206Z" fill="#FFD347"/>
<path d="M4.79609 26.4213H0.755566C0.338281 26.4213 0 26.0831 0 25.6657C0 25.2483 0.338281 24.9102 0.755566 24.9102H4.79619C5.21348 24.9102 5.55176 25.2483 5.55176 25.6657C5.55176 26.0831 5.21338 26.4213 4.79609 26.4213Z" fill="#FFD347"/>
<path d="M4.00437 38.5432C3.74323 38.5432 3.48933 38.4077 3.34939 38.1653C3.14079 37.804 3.26452 37.3419 3.62595 37.1332L7.12517 35.113C7.4865 34.9046 7.94861 35.028 8.1573 35.3896C8.36589 35.7509 8.24216 36.213 7.88073 36.4217L4.38151 38.4419C4.26247 38.5106 4.13249 38.5432 4.00437 38.5432Z" fill="#FFD347"/>
<path d="M12.877 47.4188C12.7489 47.4188 12.6189 47.3862 12.5 47.3174C12.1386 47.1088 12.0148 46.6467 12.2234 46.2853L14.2436 42.7861C14.4522 42.4246 14.9143 42.301 15.2757 42.5095C15.6371 42.7181 15.7609 43.1802 15.5523 43.5416L13.5321 47.0408C13.392 47.2832 13.1381 47.4188 12.877 47.4188Z" fill="#FFD347"/>
<path d="M25.0002 50.665C24.5829 50.665 24.2446 50.3269 24.2446 49.9095V45.8688C24.2446 45.4515 24.5829 45.1133 25.0002 45.1133C25.4175 45.1133 25.7558 45.4515 25.7558 45.8688V49.9095C25.7558 50.3269 25.4175 50.665 25.0002 50.665Z" fill="#FFD347"/>
<path d="M37.1227 47.4187C36.8616 47.4187 36.6077 47.2832 36.4677 47.0408L34.4475 43.5416C34.2389 43.1803 34.3627 42.7182 34.7241 42.5095C35.0854 42.3011 35.5475 42.4245 35.7562 42.786L37.7764 46.2853C37.985 46.6466 37.8613 47.1087 37.4999 47.3174C37.3808 47.386 37.251 47.4187 37.1227 47.4187Z" fill="#FFD347"/>
<path d="M45.9954 38.5433C45.8672 38.5433 45.7373 38.5107 45.6183 38.4419L42.1191 36.4217C41.7578 36.2131 41.6339 35.751 41.8425 35.3896C42.0511 35.0282 42.5132 34.9045 42.8747 35.113L46.3739 37.1332C46.7352 37.3418 46.859 37.8039 46.6504 38.1654C46.5104 38.4077 46.2565 38.5433 45.9954 38.5433Z" fill="#FFD347"/>
<path d="M49.2444 26.4213H45.2038C44.7865 26.4213 44.4482 26.0831 44.4482 25.6657C44.4482 25.2483 44.7865 24.9102 45.2038 24.9102H49.2444C49.6617 24.9102 50 25.2483 50 25.6657C50 26.0831 49.6617 26.4213 49.2444 26.4213Z" fill="#FFD347"/>
<path d="M42.4975 16.3205C42.2364 16.3205 41.9825 16.1851 41.8425 15.9427C41.634 15.5814 41.7577 15.1192 42.1191 14.9106L45.6183 12.8903C45.9797 12.6819 46.4418 12.8054 46.6505 13.1669C46.8591 13.5282 46.7353 13.9903 46.3739 14.199L42.8747 16.2192C42.7556 16.2879 42.6257 16.3205 42.4975 16.3205Z" fill="#FFD347"/>
<path d="M35.1011 8.92463C34.973 8.92463 34.843 8.89202 34.7241 8.82327C34.3627 8.61467 34.2389 8.15256 34.4475 7.79114L36.4677 4.29192C36.6763 3.93049 37.1384 3.80686 37.4999 4.01536C37.8612 4.22395 37.985 4.68606 37.7764 5.04749L35.7562 8.5467C35.6162 8.78919 35.3622 8.92463 35.1011 8.92463Z" fill="#FFD347"/>
<path d="M25.0001 11.5234C24.4882 11.5234 23.9827 11.5514 23.4849 11.6043C30.583 12.3604 36.1121 18.3672 36.1121 25.6659C36.1121 32.9646 30.5829 38.9715 23.4849 39.7276C23.9827 39.7808 24.4881 39.8085 25.0001 39.8085C32.8108 39.8085 39.1427 33.4767 39.1427 25.6659C39.1427 17.8552 32.8109 11.5234 25.0001 11.5234Z" fill="#FFBE31"/>
</g>
<defs>
<clipPath id="clip0_0_4867">
<rect width="50" height="50" fill="white" transform="translate(0 0.666016)"/>
</clipPath>
</defs>
</svg>
