<svg width="50" height="50" viewBox="0 0 50 50" fill="none" xmlns="http://www.w3.org/2000/svg">
<g clip-path="url(#clip0_0_4887)">
<path d="M43.4792 35.7433C39.9174 41.2993 33.6933 44.9845 26.6074 44.9998C15.6298 45.0237 6.61617 36.1441 6.48344 25.1673C6.35859 14.8389 14.0321 6.27664 23.9855 5.00211C24.1983 4.97484 24.3369 5.2182 24.2076 5.38929C21.8077 8.56593 20.3848 12.521 20.3848 16.8094C20.3848 27.283 28.8752 35.7733 39.3487 35.7733C40.6772 35.7733 41.9731 35.637 43.2243 35.3768C43.4344 35.3331 43.595 35.5627 43.4792 35.7433Z" fill="#47B2FF"/>
<path d="M43.2249 35.3763C43.4346 35.3327 43.5952 35.5616 43.4797 35.742C39.9105 41.3102 33.6679 44.9998 26.5634 44.9998C15.4724 44.9998 6.48242 36.0089 6.48242 24.9188C6.48242 20.4806 7.9218 16.3792 10.3602 13.0547C9.80656 14.8707 9.50383 16.7959 9.49172 18.7905C9.42398 29.9649 18.3987 38.9964 29.5733 38.9959C33.6226 38.9958 37.3917 37.7973 40.5448 35.735C41.4577 35.6788 42.3523 35.5578 43.2249 35.3763Z" fill="#48A3ED"/>
<path d="M34.6985 8.97684C34.8184 8.72126 35.182 8.72126 35.3019 8.97685L36.5452 11.6253L39.3594 12.0579C39.6275 12.0991 39.7368 12.4261 39.5473 12.6202L37.5002 14.7168L37.9797 17.6564C38.0245 17.9311 37.7329 18.1365 37.4894 18.0018L35.0002 16.6253L32.511 18.0018C32.2675 18.1365 31.9759 17.9311 32.0207 17.6564L32.5002 14.7168L30.4531 12.6202C30.2636 12.4261 30.3729 12.0991 30.641 12.0579L33.4552 11.6253L34.6985 8.97684Z" fill="#FFD347"/>
</g>
<defs>
<clipPath id="clip0_0_4887">
<rect width="40" height="40" fill="white" transform="translate(5 5)"/>
</clipPath>
</defs>
</svg>
