<svg width="50" height="50" viewBox="0 0 50 50" fill="none" xmlns="http://www.w3.org/2000/svg">
<g clip-path="url(#clip0_0_4899)">
<path d="M16.6664 27.7616C21.8737 27.7616 26.0951 23.5402 26.0951 18.3329C26.0951 13.1256 21.8737 8.9043 16.6664 8.9043C11.4591 8.9043 7.23779 13.1256 7.23779 18.3329C7.23779 23.5402 11.4591 27.7616 16.6664 27.7616Z" fill="#FFD347"/>
<path d="M16.6668 5.36712C16.3886 5.36712 16.1631 5.14167 16.1631 4.86341V2.16973C16.1631 1.89147 16.3886 1.66602 16.6668 1.66602C16.945 1.66602 17.1705 1.89147 17.1705 2.16973V4.86348C17.1705 5.14167 16.945 5.36712 16.6668 5.36712Z" fill="#FFD347"/>
<path d="M9.93257 7.17233C9.75848 7.17233 9.58921 7.08203 9.49591 6.92044L8.1491 4.58763C8.01004 4.34675 8.09253 4.03867 8.33348 3.89955C8.57443 3.76061 8.88244 3.84291 9.02156 4.08392L10.3684 6.41673C10.5074 6.65762 10.4249 6.96569 10.184 7.10482C10.1046 7.15059 10.018 7.17233 9.93257 7.17233Z" fill="#FFD347"/>
<path d="M5.00163 12.1024C4.91621 12.1024 4.82956 12.0807 4.75026 12.0348L2.41745 10.688C2.17656 10.549 2.09401 10.2409 2.23307 9.99995C2.37213 9.759 2.68021 9.67658 2.92116 9.81558L5.25397 11.1624C5.49486 11.3014 5.57741 11.6095 5.43835 11.8505C5.34499 12.0121 5.17572 12.1024 5.00163 12.1024Z" fill="#FFD347"/>
<path d="M3.1974 18.8355H0.503711C0.225521 18.8355 0 18.6101 0 18.3318C0 18.0536 0.225521 17.8281 0.503711 17.8281H3.19746C3.47565 17.8281 3.70117 18.0536 3.70117 18.3318C3.70117 18.6101 3.47559 18.8355 3.1974 18.8355Z" fill="#FFD347"/>
<path d="M2.66974 26.9188C2.49565 26.9188 2.32638 26.8285 2.23309 26.6669C2.09402 26.426 2.17651 26.1179 2.41746 25.9788L4.75027 24.632C4.99116 24.493 5.29923 24.5753 5.43836 24.8163C5.57742 25.0572 5.49494 25.3653 5.25398 25.5044L2.92117 26.8512C2.84181 26.897 2.75516 26.9188 2.66974 26.9188Z" fill="#FFD347"/>
<path d="M8.58483 32.8345C8.49941 32.8345 8.41276 32.8128 8.33346 32.7669C8.09258 32.6279 8.01003 32.3198 8.14909 32.0789L9.4959 29.746C9.63496 29.5051 9.94303 29.4227 10.184 29.5617C10.4249 29.7007 10.5074 30.0088 10.3684 30.2498L9.02155 32.5826C8.92819 32.7442 8.75892 32.8345 8.58483 32.8345Z" fill="#FFD347"/>
<path d="M16.6668 35C16.3886 35 16.1631 34.7745 16.1631 34.4963V31.8025C16.1631 31.5243 16.3886 31.2988 16.6668 31.2988C16.945 31.2988 17.1705 31.5243 17.1705 31.8025V34.4963C17.1705 34.7745 16.945 35 16.6668 35Z" fill="#FFD347"/>
<path d="M24.7485 32.8344C24.5744 32.8344 24.4051 32.7441 24.3118 32.5826L22.965 30.2497C22.826 30.0089 22.9084 29.7008 23.1494 29.5617C23.3903 29.4227 23.6984 29.505 23.8375 29.746L25.1843 32.0788C25.3234 32.3197 25.2409 32.6278 24.9999 32.7669C24.9206 32.8127 24.834 32.8344 24.7485 32.8344Z" fill="#FFD347"/>
<path d="M30.6637 26.9188C30.5783 26.9188 30.4917 26.8971 30.4124 26.8513L28.0796 25.5044C27.8387 25.3654 27.7561 25.0573 27.8952 24.8164C28.0342 24.5754 28.3423 24.493 28.5833 24.632L30.9161 25.9788C31.157 26.1179 31.2395 26.4259 31.1005 26.6669C31.0071 26.8285 30.8378 26.9188 30.6637 26.9188Z" fill="#FFD347"/>
<path d="M32.8298 18.8355H30.136C29.8578 18.8355 29.6323 18.6101 29.6323 18.3318C29.6323 18.0536 29.8578 17.8281 30.136 17.8281H32.8298C33.108 17.8281 33.3335 18.0536 33.3335 18.3318C33.3335 18.6101 33.108 18.8355 32.8298 18.8355Z" fill="#FFD347"/>
<path d="M28.3318 12.1023C28.1578 12.1023 27.9885 12.012 27.8952 11.8505C27.7561 11.6096 27.8386 11.3015 28.0796 11.1624L30.4124 9.81556C30.6533 9.67663 30.9613 9.75892 31.1005 9.99994C31.2395 10.2408 31.157 10.5489 30.9161 10.688L28.5833 12.0348C28.5039 12.0806 28.4173 12.1023 28.3318 12.1023Z" fill="#FFD347"/>
<path d="M23.4007 7.17241C23.3153 7.17241 23.2287 7.15067 23.1494 7.10483C22.9085 6.96577 22.8259 6.6577 22.965 6.41675L24.3118 4.08394C24.4509 3.84299 24.759 3.76056 24.9999 3.89956C25.2408 4.03862 25.3233 4.3467 25.1843 4.58765L23.8375 6.92046C23.7441 7.08211 23.5748 7.17241 23.4007 7.17241Z" fill="#FFD347"/>
<path d="M16.6669 8.9043C16.3256 8.9043 15.9886 8.92292 15.6567 8.9582C20.3888 9.4623 24.0749 13.4668 24.0749 18.3326C24.0749 23.1984 20.3888 27.203 15.6567 27.7071C15.9886 27.7425 16.3256 27.761 16.6669 27.761C21.8741 27.761 26.0953 23.5398 26.0953 18.3326C26.0953 13.1255 21.8741 8.9043 16.6669 8.9043Z" fill="#FFBE31"/>
</g>
<path d="M40.8423 26.4905C40.83 26.4905 40.8183 26.4923 40.8062 26.4923C40.4366 21.0068 35.7867 16.666 30.0896 16.666C26.8177 16.666 23.8928 18.1015 21.9206 20.3585C21.3173 20.2384 20.6932 20.1748 20.0537 20.1748C15.7708 20.1748 12.172 23.0069 11.0814 26.8598C7.56094 27.9146 5 31.1195 5 34.9115C5 39.5623 8.8513 43.3325 13.6022 43.3325H40.8423C45.5931 43.3325 49.4444 39.5623 49.4444 34.9115C49.4444 30.2608 45.5931 26.4905 40.8423 26.4905Z" fill="white"/>
<path d="M40.1259 40.5247H22.4924C17.7459 40.5247 13.6769 36.8826 13.6037 32.2366C13.5486 28.7421 15.6704 25.7316 18.7261 24.4075C19.4022 24.1145 19.9516 23.6086 20.2506 22.9467C20.6771 22.0025 21.2418 21.1317 21.918 20.357C21.3157 20.2374 20.6927 20.1738 20.0542 20.1738C15.7713 20.1738 12.1725 23.0059 11.0819 26.8588C7.49716 27.9331 4.90723 31.2365 5.00306 35.1189C5.11686 39.7343 9.16765 43.3317 13.8835 43.3317H40.1259C40.9177 43.3317 41.5596 42.7033 41.5596 41.9282C41.5596 41.153 40.9177 40.5247 40.1259 40.5247Z" fill="#DCE5EF"/>
<defs>
<clipPath id="clip0_0_4899">
<rect width="33.3333" height="33.3333" fill="white" transform="translate(0 1.66602)"/>
</clipPath>
</defs>
</svg>
