<svg width="50" height="50" viewBox="0 0 50 50" fill="none" xmlns="http://www.w3.org/2000/svg">
<g clip-path="url(#clip0_0_4920)">
<path d="M37.0659 30.6194C34.0978 35.2494 28.911 38.3204 23.0061 38.3332C13.8581 38.3531 6.34673 30.9534 6.23611 21.8061C6.13208 13.1991 12.5267 6.06386 20.8212 5.00176C20.9985 4.97903 21.114 5.18183 21.0062 5.32441C19.0063 7.97161 17.8206 11.2675 17.8206 14.8411C17.8206 23.5692 24.8959 30.6444 33.6239 30.6444C34.7309 30.6444 35.8109 30.5309 36.8535 30.314C37.0286 30.2776 37.1624 30.4689 37.0659 30.6194Z" fill="#47B2FF"/>
<path d="M36.8541 30.3142C37.0288 30.2779 37.1627 30.4687 37.0664 30.619C34.0921 35.2591 28.8899 38.3338 22.9695 38.3338C13.727 38.3338 6.23535 30.8414 6.23535 21.5996C6.23535 17.9012 7.43483 14.4833 9.4668 11.7129C9.00547 13.2262 8.75319 14.8306 8.7431 16.4928C8.68665 25.8048 16.1656 33.331 25.4777 33.3306C28.8521 33.3305 31.9931 32.3318 34.6207 30.6132C35.3814 30.5663 36.1269 30.4655 36.8541 30.3142Z" fill="#48A3ED"/>
<path d="M28.4827 7.25521C28.5691 7.07118 28.8308 7.07118 28.9172 7.25521L29.8124 9.16216L31.8387 9.47359C32.0317 9.50326 32.1104 9.73875 31.9739 9.87848L30.5 11.3881L30.8452 13.5047C30.8775 13.7024 30.6675 13.8503 30.4922 13.7533L28.6999 12.7622L26.9077 13.7533C26.7324 13.8503 26.5224 13.7024 26.5547 13.5047L26.8999 11.3881L25.426 9.87848C25.2895 9.73875 25.3682 9.50326 25.5612 9.47359L27.5875 9.16216L28.4827 7.25521Z" fill="#FFD347"/>
</g>
<path d="M40.8423 26.4905C40.83 26.4905 40.8183 26.4923 40.8062 26.4923C40.4366 21.0068 35.7867 16.666 30.0896 16.666C26.8177 16.666 23.8928 18.1015 21.9206 20.3585C21.3173 20.2384 20.6932 20.1748 20.0537 20.1748C15.7708 20.1748 12.172 23.0069 11.0814 26.8598C7.56094 27.9146 5 31.1195 5 34.9115C5 39.5623 8.8513 43.3325 13.6022 43.3325H40.8423C45.5931 43.3325 49.4444 39.5623 49.4444 34.9115C49.4444 30.2608 45.5931 26.4905 40.8423 26.4905Z" fill="white"/>
<path d="M40.1264 40.5247H22.4929C17.7464 40.5247 13.6774 36.8826 13.6042 32.2366C13.549 28.7421 15.6709 25.7316 18.7266 24.4075C19.4027 24.1145 19.9521 23.6086 20.2511 22.9467C20.6776 22.0025 21.2423 21.1317 21.9185 20.357C21.3162 20.2374 20.6931 20.1738 20.0547 20.1738C15.7718 20.1738 12.173 23.0059 11.0824 26.8588C7.49765 27.9331 4.90772 31.2365 5.00355 35.1189C5.11735 39.7343 9.16814 43.3317 13.884 43.3317H40.1264C40.9182 43.3317 41.5601 42.7033 41.5601 41.9282C41.5601 41.153 40.9182 40.5247 40.1264 40.5247Z" fill="#DCE5EF"/>
<defs>
<clipPath id="clip0_0_4920">
<rect width="33.3333" height="33.3333" fill="white" transform="translate(5 5)"/>
</clipPath>
</defs>
</svg>
