<svg width="50" height="50" viewBox="0 0 50 50" fill="none" xmlns="http://www.w3.org/2000/svg">
<g clip-path="url(#clip0_0_4929)">
<path d="M24.9999 39.1434C32.8109 39.1434 39.1429 32.8113 39.1429 25.0004C39.1429 17.1894 32.8109 10.8574 24.9999 10.8574C17.189 10.8574 10.8569 17.1894 10.8569 25.0004C10.8569 32.8113 17.189 39.1434 24.9999 39.1434Z" fill="#FFD347"/>
<path d="M25.0002 5.55166C24.5829 5.55166 24.2446 5.21348 24.2446 4.79609V0.755566C24.2446 0.338184 24.5829 0 25.0002 0C25.4175 0 25.7558 0.338184 25.7558 0.755566V4.79619C25.7558 5.21348 25.4175 5.55166 25.0002 5.55166Z" fill="#FFD347"/>
<path d="M14.8986 8.2585C14.6375 8.2585 14.3836 8.12305 14.2436 7.88067L12.2234 4.38145C12.0148 4.02012 12.1385 3.55801 12.5 3.34932C12.8614 3.14092 13.3234 3.26436 13.5321 3.62588L15.5523 7.1251C15.7609 7.48643 15.6372 7.94854 15.2758 8.15723C15.1567 8.22588 15.0268 8.2585 14.8986 8.2585Z" fill="#FFD347"/>
<path d="M7.5022 15.6546C7.37407 15.6546 7.24409 15.622 7.12515 15.5532L3.62593 13.533C3.2646 13.3244 3.14077 12.8623 3.34936 12.5009C3.55796 12.1395 4.02007 12.0158 4.38149 12.2243L7.88071 14.2446C8.24204 14.4532 8.36587 14.9153 8.15728 15.2767C8.01724 15.5192 7.76333 15.6546 7.5022 15.6546Z" fill="#FFD347"/>
<path d="M4.79609 25.7553H0.755566C0.338281 25.7553 0 25.4171 0 24.9997C0 24.5823 0.338281 24.2441 0.755566 24.2441H4.79619C5.21348 24.2441 5.55176 24.5823 5.55176 24.9997C5.55176 25.4171 5.21338 25.7553 4.79609 25.7553Z" fill="#FFD347"/>
<path d="M4.00437 37.8772C3.74323 37.8772 3.48933 37.7417 3.34939 37.4993C3.14079 37.138 3.26452 36.6759 3.62595 36.4672L7.12517 34.447C7.4865 34.2386 7.94861 34.362 8.1573 34.7235C8.36589 35.0849 8.24216 35.547 7.88073 35.7557L4.38151 37.7759C4.26247 37.8445 4.13249 37.8772 4.00437 37.8772Z" fill="#FFD347"/>
<path d="M12.877 46.7528C12.7489 46.7528 12.6189 46.7201 12.5 46.6514C12.1386 46.4428 12.0148 45.9807 12.2234 45.6193L14.2436 42.12C14.4522 41.7586 14.9143 41.635 15.2757 41.8435C15.6371 42.0521 15.7609 42.5142 15.5523 42.8756L13.5321 46.3748C13.392 46.6172 13.1381 46.7528 12.877 46.7528Z" fill="#FFD347"/>
<path d="M25.0002 49.999C24.5829 49.999 24.2446 49.6608 24.2446 49.2435V45.2028C24.2446 44.7854 24.5829 44.4473 25.0002 44.4473C25.4175 44.4473 25.7558 44.7854 25.7558 45.2028V49.2435C25.7558 49.6608 25.4175 49.999 25.0002 49.999Z" fill="#FFD347"/>
<path d="M37.1227 46.7526C36.8616 46.7526 36.6077 46.6172 36.4677 46.3748L34.4475 42.8756C34.2389 42.5143 34.3627 42.0522 34.7241 41.8435C35.0854 41.6351 35.5475 41.7585 35.7562 42.12L37.7764 45.6192C37.985 45.9806 37.8613 46.4427 37.4999 46.6514C37.3808 46.72 37.251 46.7526 37.1227 46.7526Z" fill="#FFD347"/>
<path d="M45.9958 37.8773C45.8677 37.8773 45.7377 37.8447 45.6188 37.7759L42.1196 35.7557C41.7583 35.5471 41.6344 35.085 41.843 34.7236C42.0516 34.3621 42.5137 34.2385 42.8751 34.447L46.3744 36.4672C46.7357 36.6758 46.8595 37.1379 46.6509 37.4993C46.5109 37.7417 46.257 37.8773 45.9958 37.8773Z" fill="#FFD347"/>
<path d="M49.2444 25.7553H45.2038C44.7865 25.7553 44.4482 25.4171 44.4482 24.9997C44.4482 24.5823 44.7865 24.2441 45.2038 24.2441H49.2444C49.6617 24.2441 50 24.5823 50 24.9997C50 25.4171 49.6617 25.7553 49.2444 25.7553Z" fill="#FFD347"/>
<path d="M42.4975 15.6545C42.2364 15.6545 41.9825 15.519 41.8425 15.2767C41.634 14.9153 41.7577 14.4532 42.1191 14.2445L45.6183 12.2243C45.9797 12.0159 46.4418 12.1394 46.6505 12.5009C46.8591 12.8622 46.7353 13.3243 46.3739 13.533L42.8747 15.5532C42.7556 15.6219 42.6257 15.6545 42.4975 15.6545Z" fill="#FFD347"/>
<path d="M35.1011 8.25862C34.973 8.25862 34.843 8.226 34.7241 8.15725C34.3627 7.94866 34.2389 7.48655 34.4475 7.12512L36.4677 3.6259C36.6763 3.26448 37.1384 3.14085 37.4999 3.34934C37.8612 3.55794 37.985 4.02005 37.7764 4.38147L35.7562 7.88069C35.6162 8.12317 35.3622 8.25862 35.1011 8.25862Z" fill="#FFD347"/>
<path d="M25.0001 10.8574C24.4882 10.8574 23.9827 10.8854 23.4849 10.9383C30.583 11.6944 36.1121 17.7012 36.1121 24.9999C36.1121 32.2986 30.5829 38.3055 23.4849 39.0616C23.9827 39.1147 24.4881 39.1425 25.0001 39.1425C32.8108 39.1425 39.1427 32.8106 39.1427 24.9999C39.1427 17.1892 32.8109 10.8574 25.0001 10.8574Z" fill="#FFBE31"/>
</g>
<path d="M43.5482 32.3684C43.539 32.3684 43.5302 32.3697 43.5212 32.3697C43.244 28.2556 39.7565 25 35.4837 25C33.0298 25 30.8361 26.0766 29.3569 27.7693C28.9045 27.6793 28.4364 27.6316 27.9568 27.6316C24.7446 27.6316 22.0455 29.7557 21.2276 32.6453C18.5872 33.4364 16.6665 35.8401 16.6665 38.6841C16.6665 42.1722 19.555 44.9999 23.1181 44.9999H43.5482C47.1114 44.9999 49.9998 42.1722 49.9998 38.6841C49.9998 35.1961 47.1114 32.3684 43.5482 32.3684Z" fill="white"/>
<path d="M43.0111 42.894H29.7859C26.2261 42.894 23.1743 40.1624 23.1194 36.6779C23.078 34.0571 24.6694 31.7992 26.9612 30.8061C27.4683 30.5864 27.8803 30.207 28.1046 29.7105C28.4245 29.0024 28.848 28.3493 29.3551 27.7683C28.9034 27.6785 28.4361 27.6309 27.9573 27.6309C24.7451 27.6309 22.046 29.7549 21.228 32.6446C18.5395 33.4503 16.597 35.9279 16.6689 38.8397C16.7543 42.3012 19.7924 44.9993 23.3293 44.9993H43.0111C43.6049 44.9993 44.0863 44.528 44.0863 43.9466C44.0863 43.3653 43.6049 42.894 43.0111 42.894Z" fill="#DCE5EF"/>
<defs>
<clipPath id="clip0_0_4929">
<rect width="50" height="50" fill="white"/>
</clipPath>
</defs>
</svg>
