<svg width="50" height="50" viewBox="0 0 50 50" fill="none" xmlns="http://www.w3.org/2000/svg">
<g clip-path="url(#clip0_0_4951)">
<path d="M41.8127 35.7433C38.2509 41.2993 32.0268 44.9845 24.9409 44.9998C13.9633 45.0237 4.94967 36.1441 4.81693 25.1673C4.69209 14.8389 12.3656 6.27664 22.319 5.00211C22.5318 4.97484 22.6704 5.2182 22.5411 5.38929C20.1411 8.56593 18.7183 12.521 18.7183 16.8094C18.7183 27.283 27.2086 35.7733 37.6822 35.7733C39.0107 35.7733 40.3066 35.637 41.5578 35.3768C41.7679 35.3331 41.9285 35.5627 41.8127 35.7433Z" fill="#47B2FF"/>
<path d="M41.5584 35.3763C41.7681 35.3327 41.9287 35.5616 41.8132 35.742C38.244 41.3102 32.0014 44.9998 24.8969 44.9998C13.8059 44.9998 4.81592 36.0089 4.81592 24.9188C4.81592 20.4806 6.25529 16.3792 8.69365 13.0547C8.14006 14.8707 7.83732 16.7959 7.82522 18.7905C7.75748 29.9649 16.7322 38.9964 27.9068 38.9959C31.9561 38.9958 35.7252 37.7973 38.8783 35.735C39.7912 35.6788 40.6858 35.5578 41.5584 35.3763Z" fill="#48A3ED"/>
<path d="M33.032 8.97684C33.1519 8.72126 33.5155 8.72126 33.6354 8.97685L34.8787 11.6253L37.6929 12.0579C37.961 12.0991 38.0703 12.4261 37.8808 12.6202L35.8337 14.7168L36.3132 17.6564C36.358 17.9311 36.0664 18.1365 35.8229 18.0018L33.3337 16.6253L30.8445 18.0018C30.601 18.1365 30.3094 17.9311 30.3542 17.6564L30.8337 14.7168L28.7866 12.6202C28.5971 12.4261 28.7064 12.0991 28.9745 12.0579L31.7887 11.6253L33.032 8.97684Z" fill="#FFD347"/>
</g>
<path d="M40.2152 29.0344C40.206 29.0344 40.1972 29.0358 40.1882 29.0358C39.911 24.9216 36.4235 21.666 32.1507 21.666C29.6968 21.666 27.5031 22.7426 26.0239 24.4354C25.5715 24.3453 25.1034 24.2976 24.6238 24.2976C21.4116 24.2976 18.7125 26.4217 17.8946 29.3113C15.2542 30.1025 13.3335 32.5062 13.3335 35.3501C13.3335 38.8382 16.222 41.6659 19.7851 41.6659H40.2152C43.7784 41.6659 46.6668 38.8383 46.6668 35.3501C46.6668 31.8621 43.7784 29.0344 40.2152 29.0344Z" fill="white"/>
<path d="M39.678 39.56H26.4529C22.8931 39.56 19.8413 36.8284 19.7864 33.3439C19.745 30.7231 21.3364 28.4652 23.6282 27.4721C24.1353 27.2524 24.5473 26.873 24.7716 26.3765C25.0915 25.6684 25.515 25.0153 26.0221 24.4343C25.5704 24.3445 25.1031 24.2969 24.6243 24.2969C21.4121 24.2969 18.713 26.4209 17.895 29.3106C15.2065 30.1163 13.264 32.5939 13.3359 35.5057C13.4213 38.9672 16.4594 41.6653 19.9963 41.6653H39.678C40.2719 41.6653 40.7533 41.194 40.7533 40.6127C40.7533 40.0313 40.2719 39.56 39.678 39.56Z" fill="#DCE5EF"/>
<defs>
<clipPath id="clip0_0_4951">
<rect width="40" height="40" fill="white" transform="translate(3.3335 5)"/>
</clipPath>
</defs>
</svg>
