<svg width="50" height="50" viewBox="0 0 50 50" fill="none" xmlns="http://www.w3.org/2000/svg">
<path d="M40.3226 16.0526C40.3088 16.0526 40.2956 16.0546 40.282 16.0546C39.8662 9.88334 34.6351 5 28.2258 5C24.5449 5 21.2544 6.61487 19.0356 9.15401C18.3569 9.01893 17.6549 8.94742 16.9354 8.94742C12.1172 8.94742 8.06855 12.1335 6.8416 16.468C2.88105 17.6547 0 21.2602 0 25.5262C0 30.7583 4.33271 34.9998 9.67744 34.9998H40.3226C45.6673 34.9998 50 30.7584 50 25.5262C50 20.2941 45.6673 16.0526 40.3226 16.0526Z" fill="#DCE5EF"/>
<path d="M39.5171 31.842H19.6794C14.3396 31.842 9.76198 27.7446 9.67956 22.5179C9.61755 18.5866 12.0047 15.1998 15.4423 13.7102C16.2029 13.3805 16.821 12.8114 17.1574 12.0667C17.6372 11.0046 18.2724 10.0249 19.0332 9.15338C18.3556 9.01877 17.6547 8.94727 16.9364 8.94727C12.1181 8.94727 8.0695 12.1333 6.84255 16.4678C2.80973 17.6764 -0.10394 21.3928 0.00387268 25.7605C0.1319 30.9528 4.68903 34.9999 9.9944 34.9999H39.5171C40.4079 34.9999 41.13 34.2929 41.13 33.4209C41.13 32.5489 40.4079 31.842 39.5171 31.842Z" fill="#DCE5EF"/>
<path d="M43.5482 30.7024C43.539 30.7024 43.5302 30.7037 43.5212 30.7037C43.244 26.5895 39.7565 23.334 35.4837 23.334C33.0298 23.334 30.8361 24.4106 29.3569 26.1033C28.9045 26.0133 28.4364 25.9656 27.9568 25.9656C24.7446 25.9656 22.0455 28.0896 21.2276 30.9793C18.5872 31.7704 16.6665 34.1741 16.6665 37.0181C16.6665 40.5062 19.555 43.3339 23.1181 43.3339H43.5482C47.1114 43.3339 49.9998 40.5062 49.9998 37.0181C49.9998 33.53 47.1114 30.7024 43.5482 30.7024Z" fill="white"/>
<path d="M43.0111 41.228H29.7859C26.2261 41.228 23.1743 38.4964 23.1194 35.0119C23.078 32.3911 24.6694 30.1332 26.9612 29.1401C27.4683 28.9203 27.8803 28.5409 28.1046 28.0445C28.4245 27.3364 28.848 26.6832 29.3551 26.1023C28.9034 26.0125 28.4361 25.9648 27.9573 25.9648C24.7451 25.9648 22.046 28.0889 21.228 30.9786C18.5395 31.7843 16.597 34.2618 16.6689 37.1737C16.7543 40.6352 19.7924 43.3333 23.3293 43.3333H43.0111C43.6049 43.3333 44.0863 42.8619 44.0863 42.2806C44.0863 41.6993 43.6049 41.228 43.0111 41.228Z" fill="white"/>
</svg>
