<svg width="50" height="50" viewBox="0 0 50 50" fill="none" xmlns="http://www.w3.org/2000/svg">
<path d="M40.3226 16.0526C40.3088 16.0526 40.2956 16.0546 40.282 16.0546C39.8662 9.88334 34.6351 5 28.2258 5C24.5449 5 21.2544 6.61487 19.0356 9.15401C18.3569 9.01893 17.6549 8.94742 16.9354 8.94742C12.1172 8.94742 8.06855 12.1335 6.8416 16.468C2.88105 17.6547 0 21.2602 0 25.5262C0 30.7583 4.33271 34.9998 9.67744 34.9998H40.3226C45.6673 34.9998 50 30.7584 50 25.5262C50 20.2941 45.6673 16.0526 40.3226 16.0526Z" fill="#DCE5EF"/>
<path d="M39.5171 31.842H19.6794C14.3396 31.842 9.76198 27.7446 9.67956 22.5179C9.61755 18.5866 12.0047 15.1998 15.4423 13.7102C16.2029 13.3805 16.821 12.8114 17.1574 12.0667C17.6372 11.0046 18.2724 10.0249 19.0332 9.15338C18.3556 9.01877 17.6547 8.94727 16.9364 8.94727C12.1181 8.94727 8.0695 12.1333 6.84255 16.4678C2.80973 17.6764 -0.10394 21.3928 0.00387268 25.7605C0.1319 30.9528 4.68903 34.9999 9.9944 34.9999H39.5171C40.4079 34.9999 41.13 34.2929 41.13 33.4209C41.13 32.5489 40.4079 31.842 39.5171 31.842Z" fill="#EEF3F9"/>
<path d="M38.1193 34.5286L36.749 31.666L35.3787 34.5286C35.2427 34.7672 35.1649 35.0445 35.1649 35.3403C35.1649 36.2332 35.8741 36.957 36.749 36.957C37.6239 36.957 38.3332 36.2332 38.3332 35.3403C38.3332 35.0444 38.2553 34.7671 38.1193 34.5286Z" fill="#47B2FF"/>
<path d="M33.3669 40.3488L31.9965 37.4861L30.6263 40.3485C30.4903 40.5871 30.4124 40.8645 30.4124 41.1604C30.4124 42.0533 31.1216 42.7771 31.9965 42.7771C32.8714 42.7771 33.5807 42.0533 33.5807 41.1604C33.5807 40.8646 33.5028 40.5873 33.3669 40.3488Z" fill="#47B2FF"/>
<path d="M28.6144 34.5286L27.2441 31.666L25.8738 34.5286C25.7378 34.7671 25.6599 35.0444 25.6599 35.3403C25.6599 36.2332 26.3692 36.957 27.2441 36.957C28.119 36.957 28.8282 36.2332 28.8282 35.3403C28.8282 35.0445 28.7503 34.7672 28.6144 34.5286Z" fill="#47B2FF"/>
<path d="M24.1259 40.3486L22.7556 37.4861L21.3853 40.3487C21.2493 40.5873 21.1715 40.8646 21.1715 41.1604C21.1715 42.0533 21.8807 42.7771 22.7556 42.7771C23.6305 42.7771 24.3398 42.0533 24.3398 41.1604C24.3398 40.8645 24.2619 40.5872 24.1259 40.3486Z" fill="#47B2FF"/>
<path d="M19.3735 34.5287L18.0031 31.666L16.6329 34.5285C16.4969 34.7671 16.419 35.0444 16.419 35.3403C16.419 36.2332 17.1282 36.957 18.0031 36.957C18.878 36.957 19.5873 36.2332 19.5873 35.3403C19.5873 35.0445 19.5094 34.7672 19.3735 34.5287Z" fill="#47B2FF"/>
<path d="M14.6209 40.3487L13.2507 37.4861L11.8804 40.3487C11.7444 40.5872 11.6665 40.8645 11.6665 41.1604C11.6665 42.0533 12.3758 42.7771 13.2507 42.7771C14.1256 42.7771 14.8348 42.0533 14.8348 41.1604C14.8348 40.8645 14.7569 40.5872 14.6209 40.3487Z" fill="#47B2FF"/>
</svg>
