<svg width="50" height="50" viewBox="0 0 50 50" fill="none" xmlns="http://www.w3.org/2000/svg">
<path d="M40.3226 16.0526C40.3088 16.0526 40.2956 16.0546 40.282 16.0546C39.8662 9.88334 34.6351 5 28.2258 5C24.5449 5 21.2544 6.61487 19.0356 9.15401C18.3569 9.01893 17.6549 8.94742 16.9354 8.94742C12.1172 8.94742 8.06855 12.1335 6.8416 16.468C2.88105 17.6547 0 21.2602 0 25.5262C0 30.7583 4.33271 34.9998 9.67744 34.9998H40.3226C45.6673 34.9998 50 30.7584 50 25.5262C50 20.2941 45.6673 16.0526 40.3226 16.0526Z" fill="#DCE5EF"/>
<path d="M39.5171 31.842H19.6794C14.3396 31.842 9.76198 27.7446 9.67956 22.5179C9.61755 18.5866 12.0047 15.1998 15.4423 13.7102C16.2029 13.3805 16.821 12.8114 17.1574 12.0667C17.6372 11.0046 18.2724 10.0249 19.0332 9.15338C18.3556 9.01877 17.6547 8.94727 16.9364 8.94727C12.1181 8.94727 8.0695 12.1333 6.84255 16.4678C2.80973 17.6764 -0.10394 21.3928 0.00387268 25.7605C0.1319 30.9528 4.68903 34.9999 9.9944 34.9999H39.5171C40.4079 34.9999 41.13 34.2929 41.13 33.4209C41.13 32.5489 40.4079 31.842 39.5171 31.842Z" fill="#EEF3F9"/>
<path d="M40.3226 16.0526C40.3088 16.0526 40.2956 16.0546 40.282 16.0546C39.8662 9.88334 34.6351 5 28.2258 5C24.5449 5 21.2544 6.61487 19.0356 9.15401C18.3569 9.01893 17.6549 8.94742 16.9354 8.94742C12.1172 8.94742 8.06855 12.1335 6.8416 16.468C2.88105 17.6547 0 21.2602 0 25.5262C0 30.7583 4.33271 34.9998 9.67744 34.9998H40.3226C45.6673 34.9998 50 30.7584 50 25.5262C50 20.2941 45.6673 16.0526 40.3226 16.0526Z" fill="#DCE5EF"/>
<path d="M39.5171 31.842H19.6794C14.3396 31.842 9.76198 27.7446 9.67956 22.5179C9.61755 18.5866 12.0047 15.1998 15.4423 13.7102C16.2029 13.3805 16.821 12.8114 17.1574 12.0667C17.6372 11.0046 18.2724 10.0249 19.0332 9.15338C18.3556 9.01877 17.6547 8.94727 16.9364 8.94727C12.1181 8.94727 8.0695 12.1333 6.84255 16.4678C2.80973 17.6764 -0.10394 21.3928 0.00387268 25.7605C0.1319 30.9528 4.68903 34.9999 9.9944 34.9999H39.5171C40.4079 34.9999 41.13 34.2929 41.13 33.4209C41.13 32.5489 40.4079 31.842 39.5171 31.842Z" fill="#EEF3F9"/>
<path d="M38.1193 36.0986L36.8483 25.8038C36.8338 25.6868 36.6642 25.6868 36.6498 25.8038L35.3787 36.0987C35.2427 36.3561 35.1649 36.6554 35.1649 36.9746C35.1649 37.9382 35.8741 38.7193 36.749 38.7193C37.6239 38.7193 38.3332 37.9382 38.3332 36.9746C38.3332 36.6553 38.2553 36.3561 38.1193 36.0986Z" fill="#47B2FF"/>
<path d="M33.3669 42.3795L32.0958 32.0846C32.0814 31.9676 31.9117 31.9676 31.8973 32.0846L30.6263 42.3792C30.4903 42.6367 30.4124 42.936 30.4124 43.2554C30.4124 44.2189 31.1216 45 31.9965 45C32.8714 45 33.5807 44.2189 33.5807 43.2554C33.5807 42.9361 33.5028 42.6369 33.3669 42.3795Z" fill="#47B2FF"/>
<path d="M28.6144 36.0987L27.3433 25.8038C27.3289 25.6868 27.1593 25.6868 27.1448 25.8038L25.8738 36.0986C25.7378 36.3561 25.6599 36.6553 25.6599 36.9746C25.6599 37.9382 26.3692 38.7193 27.2441 38.7193C28.119 38.7193 28.8282 37.9382 28.8282 36.9746C28.8282 36.6554 28.7503 36.3561 28.6144 36.0987Z" fill="#47B2FF"/>
<path d="M24.1259 42.3793L22.8548 32.0846C22.8404 31.9676 22.6708 31.9676 22.6564 32.0846L21.3853 42.3794C21.2493 42.6369 21.1715 42.9361 21.1715 43.2554C21.1715 44.2189 21.8807 45 22.7556 45C23.6305 45 24.3398 44.2189 24.3398 43.2554C24.3398 42.936 24.2619 42.6367 24.1259 42.3793Z" fill="#47B2FF"/>
<path d="M19.3735 36.0988L18.1024 25.8038C18.0879 25.6868 17.9183 25.6868 17.9039 25.8038L16.6329 36.0985C16.4969 36.356 16.419 36.6553 16.419 36.9746C16.419 37.9382 17.1282 38.7193 18.0031 38.7193C18.878 38.7193 19.5873 37.9382 19.5873 36.9746C19.5873 36.6554 19.5094 36.3562 19.3735 36.0988Z" fill="#47B2FF"/>
<path d="M14.6209 42.3793L13.3499 32.0846C13.3355 31.9676 13.1659 31.9676 13.1514 32.0846L11.8804 42.3793C11.7444 42.6368 11.6665 42.9361 11.6665 43.2554C11.6665 44.2189 12.3758 45 13.2507 45C14.1256 45 14.8348 44.2189 14.8348 43.2554C14.8348 42.9361 14.7569 42.6368 14.6209 42.3793Z" fill="#47B2FF"/>
</svg>
