<svg width="50" height="50" viewBox="0 0 50 50" fill="none" xmlns="http://www.w3.org/2000/svg">
<path d="M40.3226 16.0526C40.3088 16.0526 40.2956 16.0546 40.282 16.0546C39.8662 9.88334 34.6351 5 28.2258 5C24.5449 5 21.2544 6.61487 19.0356 9.15401C18.3569 9.01893 17.6549 8.94742 16.9354 8.94742C12.1172 8.94742 8.06855 12.1335 6.8416 16.468C2.88105 17.6547 0 21.2602 0 25.5262C0 30.7583 4.33271 34.9998 9.67744 34.9998H40.3226C45.6673 34.9998 50 30.7584 50 25.5262C50 20.2941 45.6673 16.0526 40.3226 16.0526Z" fill="#DCE5EF"/>
<path d="M39.5171 31.842H19.6794C14.3396 31.842 9.76198 27.7446 9.67956 22.5179C9.61755 18.5866 12.0047 15.1998 15.4423 13.7102C16.2029 13.3805 16.821 12.8114 17.1574 12.0667C17.6372 11.0046 18.2724 10.0249 19.0332 9.15338C18.3556 9.01877 17.6547 8.94727 16.9364 8.94727C12.1181 8.94727 8.0695 12.1333 6.84255 16.4678C2.80973 17.6764 -0.10394 21.3928 0.00387268 25.7605C0.1319 30.9528 4.68903 34.9999 9.9944 34.9999H39.5171C40.4079 34.9999 41.13 34.2929 41.13 33.4209C41.13 32.5489 40.4079 31.842 39.5171 31.842Z" fill="#EEF3F9"/>
<path d="M40.3226 16.0526C40.3088 16.0526 40.2956 16.0546 40.282 16.0546C39.8662 9.88334 34.6351 5 28.2258 5C24.5449 5 21.2544 6.61487 19.0356 9.15401C18.3569 9.01893 17.6549 8.94742 16.9354 8.94742C12.1172 8.94742 8.06855 12.1335 6.8416 16.468C2.88105 17.6547 0 21.2602 0 25.5262C0 30.7583 4.33271 34.9998 9.67744 34.9998H40.3226C45.6673 34.9998 50 30.7584 50 25.5262C50 20.2941 45.6673 16.0526 40.3226 16.0526Z" fill="#DCE5EF"/>
<path d="M39.5171 31.842H19.6794C14.3396 31.842 9.76198 27.7446 9.67956 22.5179C9.61755 18.5866 12.0047 15.1998 15.4423 13.7102C16.2029 13.3805 16.821 12.8114 17.1574 12.0667C17.6372 11.0046 18.2724 10.0249 19.0332 9.15338C18.3556 9.01877 17.6547 8.94727 16.9364 8.94727C12.1181 8.94727 8.0695 12.1333 6.84255 16.4678C2.80973 17.6764 -0.10394 21.3928 0.00387268 25.7605C0.1319 30.9528 4.68903 34.9999 9.9944 34.9999H39.5171C40.4079 34.9999 41.13 34.2929 41.13 33.4209C41.13 32.5489 40.4079 31.842 39.5171 31.842Z" fill="#EEF3F9"/>
<path d="M11.1873 31.8619C11.2576 31.6766 11.0493 31.5851 10.9521 31.7579L5.24061 41.9038C5.08762 42.1717 5 42.483 5 42.8152C5 43.8177 5.79791 44.6304 6.78218 44.6304C7.76645 44.6304 8.56436 43.8177 8.56436 42.8152C8.56436 42.662 8.54572 42.5133 8.51064 42.3712C8.49239 42.2973 8.4697 42.2252 8.44286 42.1552C8.51064 40.2077 10.0296 34.9118 11.1873 31.8619Z" fill="#47B2FF"/>
<path d="M24.5208 31.8619C24.5911 31.6766 24.3828 31.5851 24.2856 31.7579L18.5741 41.9038C18.4211 42.1717 18.3335 42.483 18.3335 42.8152C18.3335 43.8177 19.1314 44.6304 20.1157 44.6304C21.0999 44.6304 21.8979 43.8177 21.8979 42.8152C21.8979 42.662 21.8792 42.5133 21.8441 42.3712C21.8259 42.2973 21.8032 42.2252 21.7764 42.1552C21.7764 39.9993 23.3631 34.9118 24.5208 31.8619Z" fill="#47B2FF"/>
<path d="M37.8538 31.8619C37.9242 31.6766 37.7158 31.5851 37.6186 31.7579L31.9071 41.9038C31.7541 42.1717 31.6665 42.483 31.6665 42.8152C31.6665 43.8177 32.4644 44.6304 33.4487 44.6304C34.433 44.6304 35.2309 43.8177 35.2309 42.8152C35.2309 42.662 35.2122 42.5133 35.1771 42.3712C35.1589 42.2973 35.1362 42.2252 35.1094 42.1552C35.1094 39.9993 36.6961 34.9118 37.8538 31.8619Z" fill="#47B2FF"/>
<path d="M19.5208 26.8619C19.5911 26.6766 19.3828 26.5851 19.2856 26.7579L13.5741 36.9038C13.4211 37.1717 13.3335 37.483 13.3335 37.8152C13.3335 38.8177 14.1314 39.6304 15.1157 39.6304C16.0999 39.6304 16.8979 38.8177 16.8979 37.8152C16.8979 37.662 16.8792 37.5133 16.8441 37.3712C16.8259 37.2973 16.8032 37.2252 16.7764 37.1552C16.7764 34.9993 18.3631 29.9118 19.5208 26.8619Z" fill="#47B2FF"/>
<path d="M32.8543 26.8619C32.9246 26.6766 32.7163 26.5851 32.6191 26.7579L26.9076 36.9038C26.7546 37.1717 26.667 37.483 26.667 37.8152C26.667 38.8177 27.4649 39.6304 28.4492 39.6304C29.4334 39.6304 30.2313 38.8177 30.2313 37.8152C30.2313 37.662 30.2127 37.5133 30.1776 37.3712C30.1594 37.2973 30.1367 37.2252 30.1099 37.1552C30.1099 34.9993 31.6966 29.9118 32.8543 26.8619Z" fill="#47B2FF"/>
<path d="M46.1873 26.8619C46.2576 26.6766 46.0493 26.5851 45.9521 26.7579L40.2406 36.9038C40.0876 37.1717 40 37.483 40 37.8152C40 38.8177 40.7979 39.6304 41.7822 39.6304C42.7664 39.6304 43.5644 38.8177 43.5644 37.8152C43.5644 37.662 43.5457 37.5133 43.5106 37.3712C43.4924 37.2973 43.4697 37.2252 43.4429 37.1552C43.4429 34.9993 45.0296 29.9118 46.1873 26.8619Z" fill="#47B2FF"/>
</svg>
