<svg width="50" height="50" viewBox="0 0 50 50" fill="none" xmlns="http://www.w3.org/2000/svg">
<path d="M9.42358 3.48871C9.093 2.91612 9.28918 2.18395 9.86177 1.85336C10.4344 1.52278 11.1665 1.71896 11.4971 2.29155L13.6588 6.03572L14.5397 3.38243C14.7466 2.75934 15.4215 2.41546 16.0471 2.61434C16.6728 2.81322 17.0123 3.47955 16.8055 4.10263L15.2492 8.79032L17.9297 13.4331L20.8078 8.51137L19.402 4.14567C19.2017 3.52359 19.5483 2.85244 20.1763 2.64661C20.8042 2.44077 21.4757 2.7782 21.676 3.40028L22.4291 5.73897L24.4651 2.25714C24.7957 1.69184 25.5249 1.49644 26.0938 1.8207C26.6628 2.14495 26.856 2.86607 26.5254 3.43136L24.3241 7.19582L27.0259 6.61092C27.6717 6.4711 28.3035 6.87639 28.4369 7.51617C28.5704 8.15594 28.155 8.78792 27.5091 8.92774L22.7029 9.96823L20.042 14.5185L25.729 14.487L28.817 11.0832C29.2611 10.5937 30.0161 10.55 30.5034 10.9855C30.9907 11.4209 31.0258 12.1707 30.5818 12.6601L28.9406 14.4692L32.9462 14.4469C33.601 14.4433 34.1289 14.9712 34.1253 15.6261C34.1216 16.2809 33.5878 16.8147 32.9329 16.8183L28.5445 16.8427L30.4067 18.8999C30.8453 19.3844 30.8018 20.1346 30.3096 20.5755C29.8174 21.0164 29.0628 20.9811 28.6242 20.4965L25.333 16.8605L19.9258 16.8905L22.7972 21.8638L27.3212 22.7953C27.9642 22.9277 28.3715 23.5549 28.2309 24.1962C28.0903 24.8375 27.4551 25.25 26.812 25.1176L24.3876 24.6184L26.3734 28.058C26.704 28.6306 26.5078 29.3628 25.9352 29.6933C25.3626 30.0239 24.6305 29.8277 24.2999 29.2552L22.152 25.5349L21.2841 28.1489C21.0773 28.772 20.4024 29.1158 19.7767 28.917C19.151 28.7181 18.8115 28.0517 19.0183 27.4287L20.5616 22.7803L17.9033 18.1759L14.9804 23.1742L16.3735 27.5004C16.5738 28.1225 16.2272 28.7937 15.5993 28.9995C14.9713 29.2053 14.2999 28.8679 14.0996 28.2458L13.3592 25.9466L11.3372 29.4043C11.0067 29.9696 10.2775 30.165 9.70853 29.8407C9.1396 29.5165 8.94636 28.7953 9.27693 28.2301L11.4923 24.4416L8.74979 25.0354C8.10394 25.1752 7.47218 24.7699 7.33873 24.1301C7.20528 23.4903 7.62067 22.8584 8.26652 22.7185L13.1135 21.6692L15.8949 16.9128L10.0904 16.945L6.97452 20.3795C6.53051 20.869 5.77551 20.9127 5.28817 20.4772C4.80084 20.0418 4.76573 19.292 5.20974 18.8026L6.87883 16.9628L2.8456 16.9852C2.19076 16.9888 1.66287 16.4609 1.66652 15.8061C1.67018 15.1513 2.20399 14.6175 2.85883 14.6138L7.21949 14.5896L5.38486 12.5628C4.94629 12.0783 4.98978 11.3281 5.482 10.8872C5.97423 10.4463 6.72879 10.4817 7.16737 10.9662L10.4311 14.5718L15.8052 14.542L12.986 9.659L8.50254 8.7359C7.85951 8.6035 7.45221 7.97631 7.59281 7.33502C7.73341 6.69372 8.36867 6.28118 9.01171 6.41358L11.3956 6.90441L9.42358 3.48871Z" fill="#47B2FF"/>
<path d="M43.6698 1.83637C43.7475 1.70164 43.9198 1.65548 44.0545 1.73327C44.1893 1.81105 44.2354 1.98333 44.1576 2.11806L43.649 2.99904L44.2933 2.86638C44.4446 2.83523 44.5941 2.9323 44.6272 3.08319C44.6602 3.23408 44.5644 3.38166 44.4131 3.41281L43.2748 3.64718L42.6441 4.73961L43.9856 4.74705L44.7098 3.94697C44.813 3.83297 44.9906 3.82465 45.1064 3.92839C45.2222 4.03212 45.2324 4.20864 45.1292 4.32265L44.7413 4.75124L45.6903 4.75651C45.8444 4.75736 45.97 4.88296 45.9709 5.03704C45.9717 5.19112 45.8475 5.31533 45.6934 5.31448L44.6674 5.30879L45.1044 5.79052C45.2089 5.90567 45.2006 6.08209 45.0859 6.18455C44.9713 6.28701 44.7936 6.27672 44.6891 6.16156L43.9117 5.3046L42.6714 5.29772L43.3469 6.45285L44.4038 6.68166C44.5558 6.71456 44.6535 6.86326 44.6221 7.01379C44.5907 7.16433 44.4421 7.25969 44.2901 7.22679L43.7284 7.10519L44.2041 7.9188C44.2819 8.05181 44.2365 8.22148 44.1026 8.29778C43.9687 8.37407 43.7971 8.3281 43.7194 8.19509L43.1981 7.30372L42.998 7.92521C42.9509 8.07158 42.7929 8.15098 42.6451 8.10255C42.4974 8.05412 42.4158 7.8962 42.4629 7.74983L42.8167 6.65139L42.1744 5.55311L41.4988 6.72331L41.8412 7.75475C41.8899 7.90136 41.81 8.05814 41.6628 8.10494C41.5156 8.15173 41.3568 8.07082 41.3081 7.92421L41.1246 7.37145L40.6573 8.18076C40.5796 8.31549 40.4073 8.36165 40.2726 8.28386C40.1378 8.20608 40.0917 8.0338 40.1694 7.89907L40.6748 7.02371L40.0401 7.1544C39.8888 7.18555 39.7393 7.08848 39.7062 6.93759C39.6731 6.7867 39.769 6.63913 39.9203 6.60797L41.049 6.37557L41.6745 5.29219L40.3122 5.28463L39.5945 6.07748C39.4913 6.19149 39.3138 6.19981 39.1979 6.09607C39.0821 5.99233 39.0719 5.81582 39.1751 5.70181L39.5565 5.28044L38.614 5.27521C38.46 5.27436 38.3344 5.14876 38.3335 4.99468C38.3326 4.8406 38.4568 4.71638 38.6109 4.71724L39.6435 4.72297L39.1999 4.23398C39.0954 4.11882 39.1037 3.94241 39.2184 3.83995C39.333 3.73749 39.5107 3.74778 39.6151 3.86293L40.3992 4.72716L41.6956 4.73435L41.0062 3.55535L39.9398 3.32449C39.7878 3.29159 39.6901 3.14289 39.7215 2.99235C39.7529 2.84182 39.9015 2.74646 40.0535 2.77935L40.6247 2.90302L40.1457 2.0838C40.0679 1.95079 40.1134 1.78112 40.2472 1.70482C40.3811 1.62853 40.5527 1.6745 40.6304 1.80751L41.1484 2.69324L41.3456 2.08095C41.3927 1.93458 41.5507 1.85518 41.6984 1.90361C41.8462 1.95204 41.9277 2.10996 41.8806 2.25633L41.5299 3.34557L42.1682 4.43716L42.8315 3.2882L42.4922 2.26601C42.4435 2.1194 42.5234 1.96261 42.6706 1.91582C42.8178 1.86902 42.9766 1.94994 43.0253 2.09655L43.2057 2.64006L43.6698 1.83637Z" fill="#47B2FF"/>
<path d="M37.3363 24.1684C37.414 24.0337 37.5863 23.9875 37.721 24.0653C37.8558 24.1431 37.9019 24.3154 37.8241 24.4501L37.3155 25.3311L37.9598 25.1984C38.1111 25.1673 38.2606 25.2643 38.2937 25.4152C38.3267 25.5661 38.2309 25.7137 38.0796 25.7448L36.9413 25.9792L36.3106 27.0716L37.6521 27.0791L38.3763 26.279C38.4795 26.165 38.6571 26.1567 38.7729 26.2604C38.8887 26.3642 38.8989 26.5407 38.7957 26.6547L38.4078 27.0833L39.3568 27.0885C39.5109 27.0894 39.6365 27.215 39.6374 27.3691C39.6382 27.5232 39.514 27.6474 39.3599 27.6465L38.3339 27.6408L38.7709 28.1226C38.8754 28.2377 38.8671 28.4141 38.7524 28.5166C38.6378 28.619 38.4601 28.6088 38.3556 28.4936L37.5782 27.6366L36.3379 27.6298L37.0134 28.7849L38.0703 29.0137C38.2223 29.0466 38.32 29.1953 38.2886 29.3458C38.2572 29.4964 38.1086 29.5917 37.9566 29.5588L37.3949 29.4372L37.8706 30.2508C37.9484 30.3838 37.903 30.5535 37.7691 30.6298C37.6352 30.7061 37.4636 30.6601 37.3859 30.5271L36.8646 29.6358L36.6645 30.2572C36.6174 30.4036 36.4594 30.483 36.3116 30.4346C36.1639 30.3862 36.0823 30.2282 36.1294 30.0819L36.4832 28.9834L35.8409 27.8851L35.1653 29.0553L35.5077 30.0868C35.5564 30.2334 35.4765 30.3902 35.3293 30.437C35.1821 30.4838 35.0233 30.4029 34.9746 30.2562L34.7911 29.7035L34.3238 30.5128C34.2461 30.6475 34.0738 30.6937 33.9391 30.6159C33.8043 30.5381 33.7582 30.3658 33.8359 30.2311L34.3413 29.3557L33.7066 29.4864C33.5553 29.5176 33.4058 29.4205 33.3727 29.2696C33.3396 29.1187 33.4355 28.9712 33.5868 28.94L34.7155 28.7076L35.341 27.6242L33.9787 27.6167L33.261 28.4095C33.1578 28.5235 32.9803 28.5318 32.8644 28.4281C32.7486 28.3244 32.7384 28.1479 32.8416 28.0338L33.223 27.6125L32.2805 27.6072C32.1265 27.6064 32.0009 27.4808 32 27.3267C31.9991 27.1726 32.1233 27.0484 32.2774 27.0493L33.31 27.055L32.8664 26.566C32.7619 26.4509 32.7702 26.2744 32.8849 26.172C32.9995 26.0695 33.1772 26.0798 33.2816 26.195L34.0657 27.0592L35.3621 27.0664L34.6727 25.8874L33.6063 25.6565C33.4543 25.6236 33.3566 25.4749 33.388 25.3244C33.4194 25.1739 33.568 25.0785 33.72 25.1114L34.2912 25.2351L33.8122 24.4158C33.7344 24.2828 33.7799 24.1132 33.9137 24.0369C34.0476 23.9606 34.2192 24.0065 34.2969 24.1395L34.8149 25.0253L35.0121 24.413C35.0592 24.2666 35.2172 24.1872 35.3649 24.2356C35.5127 24.2841 35.5942 24.442 35.5471 24.5884L35.1964 25.6776L35.8347 26.7692L36.498 25.6202L36.1587 24.598C36.11 24.4514 36.1899 24.2946 36.3371 24.2479C36.4843 24.2011 36.6431 24.282 36.6918 24.4286L36.8722 24.9721L37.3363 24.1684Z" fill="#47B2FF"/>
<path d="M9.67089 35.2526C9.78757 35.0505 10.046 34.9813 10.2481 35.098C10.4502 35.2146 10.5194 35.473 10.4027 35.6751L9.63977 36.9966L10.6062 36.7976C10.8332 36.7509 11.0574 36.8965 11.107 37.1228C11.1566 37.3492 11.0129 37.5705 10.7859 37.6173L9.07847 37.9688L8.13239 39.6075L10.1447 39.6186L11.231 38.4185C11.3858 38.2475 11.6521 38.235 11.8258 38.3906C11.9995 38.5462 12.0149 38.811 11.8601 38.982L11.2782 39.6249L12.7017 39.6328C12.9328 39.6341 13.1212 39.8225 13.1225 40.0536C13.1238 40.2847 12.9375 40.4711 12.7064 40.4698L11.1673 40.4612L11.8229 41.1838C11.9796 41.3566 11.9672 41.6212 11.7952 41.7749C11.6232 41.9286 11.3567 41.9131 11.2 41.7404L10.0338 40.4549L8.17338 40.4446L9.18662 42.1773L10.772 42.5205C10.9999 42.5699 11.1465 42.7929 11.0994 43.0187C11.0523 43.2445 10.8293 43.3876 10.6014 43.3382L9.75881 43.1558L10.4725 44.3762C10.5891 44.5758 10.5209 44.8303 10.3201 44.9447C10.1193 45.0592 9.86198 44.9902 9.74531 44.7907L8.96345 43.4536L8.66325 44.3859C8.59255 44.6054 8.35558 44.7245 8.13395 44.6519C7.91233 44.5792 7.78998 44.3423 7.86068 44.1228L8.39125 42.4751L7.42789 40.8277L6.41446 42.583L6.92811 44.1302C7.00112 44.3501 6.88129 44.5853 6.66046 44.6555C6.43964 44.7257 6.20143 44.6043 6.12843 44.3844L5.85315 43.5552L5.15227 44.7692C5.03559 44.9713 4.77718 45.0405 4.57509 44.9238C4.373 44.8072 4.30376 44.5488 4.42043 44.3467L5.17852 43.0336L4.22638 43.2297C3.99943 43.2764 3.77522 43.1308 3.7256 42.9044C3.67597 42.6781 3.81973 42.4567 4.04668 42.41L5.73983 42.0614L6.67806 40.4363L4.63451 40.425L3.558 41.6143C3.40321 41.7853 3.1369 41.7978 2.96317 41.6422C2.78944 41.4865 2.77409 41.2218 2.92889 41.0508L3.50101 40.4187L2.08733 40.4109C1.85621 40.4096 1.6678 40.2212 1.66651 39.9901C1.66522 39.7589 1.85153 39.5726 2.08265 39.5739L3.63155 39.5825L2.96611 38.849C2.8094 38.6763 2.82179 38.4117 2.99379 38.258C3.16579 38.1043 3.43226 38.1197 3.58897 38.2925L4.76505 39.5888L6.70971 39.5996L5.67555 37.8311L4.07591 37.4848C3.84796 37.4354 3.70135 37.2124 3.74845 36.9866C3.79555 36.7608 4.01852 36.6177 4.24647 36.6671L5.10335 36.8526L4.38477 35.6238C4.2681 35.4242 4.3363 35.1697 4.5371 35.0553C4.7379 34.9408 4.99526 35.0098 5.11193 35.2093L5.88885 36.5379L6.1846 35.6195C6.2553 35.3999 6.49228 35.2808 6.7139 35.3535C6.93553 35.4261 7.05788 35.663 6.98717 35.8826L6.46105 37.5164L7.41854 39.1538L8.41357 37.4304L7.90452 35.8971C7.83151 35.6771 7.95134 35.442 8.17217 35.3718C8.39299 35.3016 8.63119 35.423 8.7042 35.6429L8.97487 36.4581L9.67089 35.2526Z" fill="#47B2FF"/>
<path d="M18.6698 33.5005C18.7475 33.3658 18.9198 33.3196 19.0545 33.3974C19.1893 33.4752 19.2354 33.6474 19.1576 33.7822L18.649 34.6632L19.2933 34.5305C19.4446 34.4993 19.5941 34.5964 19.6272 34.7473C19.6602 34.8982 19.5644 35.0458 19.4131 35.0769L18.2748 35.3113L17.6441 36.4037L18.9856 36.4112L19.7098 35.6111C19.813 35.4971 19.9906 35.4888 20.1064 35.5925C20.2222 35.6962 20.2324 35.8728 20.1292 35.9868L19.7413 36.4154L20.6903 36.4206C20.8444 36.4215 20.97 36.5471 20.9709 36.7012C20.9717 36.8552 20.8475 36.9795 20.6934 36.9786L19.6674 36.9729L20.1044 37.4546C20.2089 37.5698 20.2006 37.7462 20.0859 37.8487C19.9713 37.9511 19.7936 37.9408 19.6891 37.8257L18.9117 36.9687L17.6714 36.9618L18.3469 38.117L19.4038 38.3458C19.5558 38.3787 19.6535 38.5274 19.6221 38.6779C19.5907 38.8284 19.4421 38.9238 19.2901 38.8909L18.7284 38.7693L19.2041 39.5829C19.2819 39.7159 19.2365 39.8856 19.1026 39.9619C18.9687 40.0382 18.7971 39.9922 18.7194 39.8592L18.1981 38.9678L17.998 39.5893C17.9509 39.7357 17.7929 39.8151 17.6451 39.7667C17.4974 39.7182 17.4158 39.5603 17.4629 39.4139L17.8167 38.3155L17.1744 37.2172L16.4988 38.3874L16.8412 39.4189C16.8899 39.5655 16.81 39.7223 16.6628 39.7691C16.5156 39.8159 16.3568 39.7349 16.3081 39.5883L16.1246 39.0356L15.6573 39.8449C15.5796 39.9796 15.4073 40.0258 15.2726 39.948C15.1378 39.8702 15.0917 39.6979 15.1694 39.5632L15.6748 38.6878L15.0401 38.8185C14.8888 38.8497 14.7393 38.7526 14.7062 38.6017C14.6731 38.4508 14.769 38.3032 14.9203 38.2721L16.049 38.0397L16.6745 36.9563L15.3122 36.9487L14.5945 37.7416C14.4913 37.8556 14.3138 37.8639 14.1979 37.7602C14.0821 37.6564 14.0719 37.4799 14.1751 37.3659L14.5565 36.9446L13.614 36.9393C13.46 36.9385 13.3344 36.8129 13.3335 36.6588C13.3326 36.5047 13.4568 36.3805 13.6109 36.3814L14.6435 36.3871L14.1999 35.8981C14.0954 35.7829 14.1037 35.6065 14.2184 35.5041C14.333 35.4016 14.5107 35.4119 14.6151 35.5271L15.3992 36.3913L16.6956 36.3985L16.0062 35.2195L14.9398 34.9886C14.7878 34.9557 14.6901 34.807 14.7215 34.6565C14.7529 34.5059 14.9015 34.4106 15.0535 34.4435L15.6247 34.5671L15.1457 33.7479C15.0679 33.6149 15.1134 33.4452 15.2472 33.3689C15.3811 33.2926 15.5527 33.3386 15.6304 33.4716L16.1484 34.3574L16.3456 33.7451C16.3927 33.5987 16.5507 33.5193 16.6984 33.5677C16.8462 33.6162 16.9277 33.7741 16.8806 33.9205L16.5299 35.0097L17.1682 36.1013L17.8315 34.9523L17.4922 33.9301C17.4435 33.7835 17.5234 33.6267 17.6706 33.5799C17.8178 33.5331 17.9766 33.6141 18.0253 33.7607L18.2057 34.3042L18.6698 33.5005Z" fill="#47B2FF"/>
<path d="M44.6709 38.5886C44.7876 38.3865 45.046 38.3172 45.2481 38.4338C45.4502 38.5505 45.5194 38.809 45.4027 39.0111L44.6398 40.3326L45.6062 40.1335C45.8332 40.0868 46.0574 40.2324 46.107 40.4587C46.1566 40.6851 46.0129 40.9065 45.7859 40.9533L44.0785 41.3047L43.1324 42.9435L45.1447 42.9545L46.231 41.7544C46.3858 41.5834 46.6521 41.571 46.8258 41.7266C46.9995 41.8822 47.0149 42.147 46.8601 42.318L46.2782 42.9609L47.7017 42.9688C47.9328 42.9701 48.1212 43.1584 48.1225 43.3895C48.1238 43.6206 47.9375 43.8069 47.7064 43.8057L46.1673 43.7972L46.8229 44.5197C46.9796 44.6924 46.9672 44.9571 46.7952 45.1108C46.6232 45.2644 46.3567 45.2491 46.2 45.0764L45.0338 43.7908L43.1734 43.7805L44.1866 45.5132L45.772 45.8564C45.9999 45.9058 46.1465 46.1288 46.0994 46.3546C46.0523 46.5804 45.8293 46.7235 45.6014 46.6741L44.7588 46.4917L45.4725 47.7122C45.5891 47.9117 45.5209 48.1663 45.3201 48.2807C45.1193 48.3951 44.862 48.3261 44.7453 48.1266L43.9634 46.7896L43.6633 47.7218C43.5926 47.9413 43.3556 48.0605 43.134 47.9879C42.9123 47.9152 42.79 47.6782 42.8607 47.4587L43.3913 45.8111L42.4279 44.1637L41.4145 45.9189L41.9281 47.4661C42.0011 47.686 41.8813 47.9211 41.6605 47.9913C41.4396 48.0615 41.2014 47.9402 41.1284 47.7203L40.8532 46.8911L40.1523 48.1051C40.0356 48.3072 39.7772 48.3765 39.5751 48.2598C39.373 48.1432 39.3038 47.8846 39.4204 47.6825L40.1785 46.3695L39.2264 46.5655C38.9994 46.6123 38.7752 46.4667 38.7256 46.2403C38.676 46.014 38.8197 45.7926 39.0467 45.7459L40.7398 45.3974L41.6781 43.7723L39.6345 43.7609L38.558 44.9502C38.4032 45.1212 38.1369 45.1337 37.9632 44.9781C37.7894 44.8225 37.7741 44.5577 37.9289 44.3867L38.501 43.7547L37.0873 43.7468C36.8562 43.7455 36.6678 43.5572 36.6665 43.3261C36.6652 43.0949 36.8515 42.9086 37.0827 42.9099L38.6315 42.9184L37.9661 42.1849C37.8094 42.0122 37.8218 41.7475 37.9938 41.5939C38.1658 41.4402 38.4323 41.4556 38.589 41.6283L39.765 42.9247L41.7097 42.9356L40.6755 41.167L39.0759 40.8208C38.848 40.7714 38.7014 40.5483 38.7485 40.3225C38.7956 40.0967 39.0185 39.9536 39.2465 40.003L40.1034 40.1885L39.3848 38.9596C39.2681 38.7601 39.3363 38.5057 39.5371 38.3913C39.7379 38.2768 39.9953 38.3458 40.1119 38.5453L40.8889 39.8738L41.1846 38.9554C41.2553 38.7358 41.4923 38.6167 41.7139 38.6894C41.9355 38.762 42.0579 38.9989 41.9872 39.2184L41.461 40.8523L42.4185 42.4898L43.4136 40.7663L42.9045 39.2329C42.8315 39.013 42.9513 38.7779 43.1722 38.7077C43.393 38.6375 43.6312 38.7588 43.7042 38.9788L43.9749 39.794L44.6709 38.5886Z" fill="#47B2FF"/>
</svg>
