<svg width="50" height="50" viewBox="0 0 50 50" fill="none" xmlns="http://www.w3.org/2000/svg">
<path d="M18.7494 16.3524C18.5043 15.928 18.6497 15.3853 19.0741 15.1403C19.4985 14.8953 20.0412 15.0407 20.2862 15.4651L21.8884 18.2402L22.5413 16.2736C22.6946 15.8118 23.1949 15.5569 23.6586 15.7043C24.1223 15.8517 24.374 16.3456 24.2206 16.8074L23.0672 20.2818L25.0539 23.723L27.1871 20.0751L26.1451 16.8393C25.9967 16.3782 26.2536 15.8808 26.719 15.7282C27.1844 15.5757 27.6821 15.8258 27.8305 16.2868L28.3887 18.0202L29.8978 15.4396C30.1428 15.0206 30.6833 14.8758 31.105 15.1161C31.5266 15.3564 31.6699 15.8909 31.4249 16.3099L29.7933 19.1L31.7958 18.6665C32.2744 18.5629 32.7427 18.8633 32.8416 19.3374C32.9405 19.8116 32.6326 20.28 32.1539 20.3837L28.5917 21.1548L26.6195 24.5275L30.8346 24.5041L33.1233 21.9812C33.4524 21.6185 34.012 21.5861 34.3732 21.9088C34.7344 22.2316 34.7604 22.7873 34.4314 23.15L33.2149 24.4909L36.1838 24.4744C36.6691 24.4717 37.0604 24.863 37.0577 25.3483C37.055 25.8337 36.6593 26.2293 36.174 26.232L32.9214 26.2501L34.3016 27.7749C34.6266 28.134 34.5944 28.69 34.2296 29.0168C33.8648 29.3435 33.3055 29.3173 32.9804 28.9582L30.541 26.2633L26.5334 26.2855L28.6616 29.9716L32.0147 30.662C32.4913 30.7601 32.7931 31.225 32.6889 31.7003C32.5847 32.1756 32.1139 32.4814 31.6373 32.3832L29.8403 32.0133L31.3122 34.5626C31.5572 34.987 31.4118 35.5297 30.9874 35.7747C30.563 36.0197 30.0203 35.8743 29.7753 35.4499L28.1833 32.6925L27.5401 34.6299C27.3868 35.0918 26.8866 35.3466 26.4228 35.1992C25.9591 35.0518 25.7075 34.558 25.8608 34.0961L27.0046 30.6509L25.0343 27.2382L22.8679 30.9428L23.9005 34.1494C24.049 34.6104 23.792 35.1079 23.3266 35.2604C22.8612 35.413 22.3636 35.1629 22.2151 34.7018L21.6663 32.9977L20.1677 35.5604C19.9227 35.9794 19.3822 36.1242 18.9606 35.8839C18.5389 35.6436 18.3957 35.1091 18.6407 34.6901L20.2826 31.8822L18.25 32.3223C17.7713 32.4259 17.303 32.1255 17.2041 31.6513C17.1052 31.1772 17.4131 30.7088 17.8918 30.6051L21.4842 29.8274L23.5457 26.3021L19.2436 26.3259L16.9342 28.8715C16.6051 29.2342 16.0455 29.2667 15.6843 28.9439C15.3231 28.6212 15.2971 28.0655 15.6262 27.7027L16.8633 26.3391L13.8739 26.3557C13.3886 26.3584 12.9973 25.9671 13 25.4818C13.0027 24.9964 13.3984 24.6008 13.8837 24.5981L17.1157 24.5802L15.756 23.0779C15.4309 22.7188 15.4631 22.1628 15.828 21.836C16.1928 21.5092 16.752 21.5355 17.0771 21.8946L19.4961 24.567L23.4793 24.5449L21.3897 20.9257L18.0667 20.2415C17.5901 20.1433 17.2882 19.6785 17.3924 19.2032C17.4966 18.7279 17.9675 18.4221 18.4441 18.5202L20.211 18.884L18.7494 16.3524Z" fill="#47B2FF"/>
<path d="M45.3363 1.83442C45.414 1.69969 45.5863 1.65353 45.721 1.73132C45.8558 1.8091 45.9019 1.98138 45.8241 2.11611L45.3155 2.99709L45.9598 2.86443C46.1111 2.83328 46.2606 2.93035 46.2937 3.08124C46.3268 3.23213 46.2309 3.37971 46.0796 3.41086L44.9413 3.64523L44.3106 4.73766L45.6521 4.7451L46.3763 3.94502C46.4795 3.83102 46.6571 3.8227 46.7729 3.92644C46.8887 4.03017 46.8989 4.20669 46.7957 4.3207L46.4078 4.74929L47.3568 4.75456C47.5109 4.75541 47.6365 4.88101 47.6374 5.03509C47.6382 5.18917 47.514 5.31338 47.3599 5.31253L46.3339 5.30684L46.7709 5.78857C46.8754 5.90372 46.8671 6.08014 46.7524 6.1826C46.6378 6.28506 46.4601 6.27477 46.3557 6.15961L45.5782 5.30265L44.3379 5.29577L45.0134 6.4509L46.0703 6.67971C46.2223 6.71261 46.32 6.86131 46.2886 7.01184C46.2572 7.16238 46.1086 7.25774 45.9566 7.22484L45.3949 7.10324L45.8706 7.91685C45.9484 8.04986 45.903 8.21953 45.7691 8.29583C45.6352 8.37212 45.4637 8.32615 45.3859 8.19314L44.8646 7.30177L44.6645 7.92326C44.6174 8.06963 44.4594 8.14903 44.3116 8.1006C44.1639 8.05217 44.0823 7.89425 44.1295 7.74788L44.4832 6.64944L43.8409 5.55116L43.1653 6.72136L43.5077 7.7528C43.5564 7.89941 43.4765 8.05619 43.3293 8.10299C43.1821 8.14978 43.0233 8.06887 42.9746 7.92226L42.7911 7.3695L42.3238 8.17881C42.2461 8.31354 42.0738 8.3597 41.9391 8.28191C41.8043 8.20413 41.7582 8.03185 41.836 7.89712L42.3413 7.02176L41.7066 7.15245C41.5553 7.1836 41.4058 7.08653 41.3727 6.93564C41.3396 6.78475 41.4355 6.63718 41.5868 6.60602L42.7155 6.37362L43.341 5.29024L41.9787 5.28268L41.261 6.07553C41.1578 6.18954 40.9803 6.19786 40.8644 6.09412C40.7486 5.99038 40.7384 5.81387 40.8416 5.69986L41.223 5.27849L40.2805 5.27326C40.1265 5.27241 40.0009 5.14681 40 4.99273C39.9991 4.83865 40.1234 4.71443 40.2774 4.71529L41.31 4.72102L40.8664 4.23203C40.7619 4.11687 40.7702 3.94046 40.8849 3.838C40.9995 3.73554 41.1772 3.74583 41.2816 3.86098L42.0657 4.72521L43.3621 4.7324L42.6727 3.5534L41.6063 3.32254C41.4543 3.28964 41.3566 3.14094 41.388 2.9904C41.4194 2.83987 41.568 2.74451 41.72 2.7774L42.2912 2.90107L41.8122 2.08185C41.7344 1.94884 41.7799 1.77917 41.9137 1.70287C42.0476 1.62658 42.2192 1.67255 42.297 1.80556L42.8149 2.69129L43.0121 2.079C43.0592 1.93263 43.2172 1.85323 43.3649 1.90166C43.5127 1.95009 43.5942 2.10801 43.5471 2.25438L43.1964 3.34362L43.8347 4.43521L44.498 3.28625L44.1587 2.26406C44.11 2.11745 44.1899 1.96066 44.3371 1.91387C44.4843 1.86707 44.6431 1.94799 44.6918 2.0946L44.8722 2.63811L45.3363 1.83442Z" fill="#47B2FF"/>
<path d="M8.33683 40.2105C8.43406 40.0421 8.6494 39.9844 8.81781 40.0816C8.98622 40.1789 9.04392 40.3942 8.94669 40.5626L8.3109 41.6638L9.11627 41.498C9.3054 41.4591 9.49224 41.5804 9.53359 41.769C9.57495 41.9576 9.45515 42.1421 9.26602 42.1811L7.84314 42.474L7.05475 43.8396L8.73164 43.8489L9.63691 42.8488C9.7659 42.7063 9.98783 42.6959 10.1326 42.8255C10.2774 42.9552 10.2902 43.1758 10.1612 43.3183L9.67623 43.8541L10.8625 43.8607C11.0551 43.8617 11.2121 44.0187 11.2132 44.2113C11.2143 44.4039 11.059 44.5592 10.8664 44.5581L9.58383 44.551L10.1301 45.1532C10.2607 45.2971 10.2504 45.5177 10.1071 45.6457C9.96372 45.7738 9.74166 45.7609 9.61107 45.617L8.63924 44.5458L7.0889 44.5372L7.93326 45.9811L9.25439 46.2671C9.44434 46.3082 9.56651 46.4941 9.52727 46.6823C9.48802 46.8705 9.30221 46.9897 9.11225 46.9485L8.41009 46.7965L9.00481 47.8135C9.10204 47.9798 9.0452 48.1919 8.87787 48.2873C8.71054 48.3826 8.49607 48.3252 8.39884 48.1589L7.74729 47.0447L7.49713 47.8216C7.43821 48.0045 7.24073 48.1038 7.05604 48.0432C6.87136 47.9827 6.7694 47.7853 6.82832 47.6023L7.27046 46.2293L6.46765 44.8564L5.62313 46.3192L6.05117 47.6085C6.11202 47.7917 6.01216 47.9877 5.82814 48.0462C5.64411 48.1047 5.44561 48.0036 5.38477 47.8203L5.15538 47.1294L4.57131 48.141C4.47408 48.3094 4.25873 48.3671 4.09033 48.2699C3.92192 48.1726 3.86421 47.9573 3.96145 47.7889L4.59319 46.6947L3.79974 46.858C3.61061 46.897 3.42377 46.7756 3.38242 46.587C3.34106 46.3984 3.46086 46.2139 3.64998 46.175L5.06094 45.8845L5.8428 44.5303L4.13984 44.5208L3.24275 45.5119C3.11376 45.6544 2.89183 45.6648 2.74706 45.5351C2.60229 45.4055 2.5895 45.1848 2.71849 45.0423L3.19526 44.5156L2.01719 44.5091C1.82459 44.508 1.66758 44.351 1.66651 44.1584C1.66543 43.9658 1.8207 43.8105 2.0133 43.8116L3.30404 43.8188L2.74951 43.2075C2.61891 43.0636 2.62924 42.8431 2.77258 42.715C2.91591 42.5869 3.13797 42.5998 3.26856 42.7437L4.24862 43.824L5.86917 43.833L5.00737 42.3592L3.67434 42.0707C3.48438 42.0295 3.36221 41.8437 3.40146 41.6555C3.44071 41.4673 3.62652 41.3481 3.81648 41.3892L4.53054 41.5438L3.93172 40.5198C3.8345 40.3535 3.89133 40.1414 4.05867 40.0461C4.226 39.9507 4.44047 40.0082 4.53769 40.1744L5.18513 41.2816L5.43159 40.5162C5.4905 40.3333 5.68798 40.234 5.87267 40.2946C6.05736 40.3551 6.15931 40.5525 6.1004 40.7355L5.66196 42.097L6.45987 43.4615L7.28906 42.0253L6.86485 40.7476C6.80401 40.5643 6.90387 40.3683 7.08789 40.3098C7.27191 40.2513 7.47041 40.3525 7.53125 40.5357L7.75681 41.2151L8.33683 40.2105Z" fill="#47B2FF"/>
</svg>
