<svg width="25" height="24" viewBox="0 0 25 24" fill="none" xmlns="http://www.w3.org/2000/svg">
<g id="windy" clip-path="url(#clip0_113_1067)">
<path id="Vector" d="M11.1387 16.9998H4.63867V14.9998H11.1387C11.7774 15 12.4039 15.175 12.9503 15.5059C13.4967 15.8367 13.9421 16.3108 14.2383 16.8767C14.5345 17.4426 14.6702 18.0788 14.6307 18.7163C14.5912 19.3539 14.378 19.9684 14.0141 20.4934C13.6503 21.0184 13.1497 21.4338 12.5667 21.6947C11.9836 21.9555 11.3403 22.0518 10.7064 21.9731C10.0725 21.8945 9.47223 21.6438 8.97061 21.2484C8.46899 20.853 8.08515 20.3278 7.86067 19.7298L9.73367 19.0268C9.82985 19.2831 9.99433 19.5082 10.2093 19.6777C10.4243 19.8472 10.6815 19.9546 10.9532 19.9883C11.2248 20.0221 11.5006 19.9808 11.7505 19.8691C12.0004 19.7573 12.2149 19.5793 12.3709 19.3543C12.5268 19.1293 12.6182 18.8659 12.6352 18.5927C12.6521 18.3195 12.594 18.0468 12.4671 17.8043C12.3401 17.5617 12.1492 17.3585 11.9151 17.2167C11.6809 17.0749 11.4124 16.9999 11.1387 16.9998ZM5.63867 10.9998H19.1387C19.7774 11 20.4039 11.175 20.9503 11.5059C21.4967 11.8367 21.9421 12.3108 22.2383 12.8767C22.5345 13.4426 22.6702 14.0788 22.6307 14.7163C22.5912 15.3539 22.378 15.9684 22.0141 16.4934C21.6503 17.0184 21.1497 17.4338 20.5667 17.6947C19.9836 17.9555 19.3403 18.0518 18.7064 17.9731C18.0725 17.8945 17.4722 17.6438 16.9706 17.2484C16.469 16.853 16.0851 16.3278 15.8607 15.7298L17.7337 15.0268C17.8298 15.2831 17.9943 15.5082 18.2093 15.6777C18.4243 15.8472 18.6815 15.9546 18.9532 15.9883C19.2248 16.0221 19.5006 15.9808 19.7505 15.8691C20.0004 15.7573 20.2149 15.5793 20.3709 15.3543C20.5268 15.1293 20.6182 14.8659 20.6352 14.5927C20.6521 14.3195 20.594 14.0468 20.4671 13.8043C20.3401 13.5617 20.1492 13.3585 19.9151 13.2167C19.6809 13.0749 19.4124 12.9999 19.1387 12.9998H5.63867C4.84302 12.9998 4.07996 12.6837 3.51735 12.1211C2.95474 11.5585 2.63867 10.7954 2.63867 9.99978C2.63867 9.20413 2.95474 8.44107 3.51735 7.87846C4.07996 7.31585 4.84302 6.99978 5.63867 6.99978H14.1387C14.4124 6.99967 14.6809 6.92464 14.9151 6.78283C15.1492 6.64102 15.3401 6.43784 15.4671 6.19529C15.594 5.95274 15.6521 5.68009 15.6352 5.40686C15.6182 5.13364 15.5268 4.87026 15.3709 4.64527C15.2149 4.42028 15.0004 4.24226 14.7505 4.13049C14.5006 4.01873 14.2248 3.97748 13.9532 4.01122C13.6815 4.04496 13.4243 4.15239 13.2093 4.32189C12.9943 4.49139 12.8299 4.71648 12.7337 4.97278L10.8607 4.27078C11.1491 3.50359 11.6976 2.86192 12.4106 2.45759C13.1236 2.05326 13.9558 1.9119 14.7623 2.05813C15.5688 2.20436 16.2984 2.62893 16.824 3.25784C17.3496 3.88675 17.6379 4.68015 17.6387 5.49978C17.6387 6.42804 17.2699 7.31828 16.6135 7.97466C15.9572 8.63103 15.0669 8.99978 14.1387 8.99978H5.63867C5.37346 8.99978 5.1191 9.10514 4.93157 9.29268C4.74403 9.48021 4.63867 9.73457 4.63867 9.99978C4.63867 10.265 4.74403 10.5194 4.93157 10.7069C5.1191 10.8944 5.37346 10.9998 5.63867 10.9998Z" fill="#688AB1"/>
</g>
<defs>
<clipPath id="clip0_113_1067">
<rect width="24" height="24" fill="white" transform="translate(0.638672)"/>
</clipPath>
</defs>
</svg>
