<svg width="40" height="40" viewBox="0 0 40 40" fill="none" xmlns="http://www.w3.org/2000/svg">
<g id="User Circle">
<path id="Vector 1" d="M27.1784 30.8401C26.826 27.9867 24.3932 25.7778 21.4444 25.7778H18.5556C15.6068 25.7778 13.174 27.9867 12.8216 30.8401M27.1784 30.8401C30.6869 28.5121 33 24.5262 33 20C33 12.8203 27.1797 7 20 7C12.8203 7 7 12.8203 7 20C7 24.5262 9.31308 28.5121 12.8216 30.8401M27.1784 30.8401C25.1214 32.205 22.6535 33 20 33C17.3465 33 14.8786 32.205 12.8216 30.8401M24.3333 17.9778C24.3333 20.371 22.3932 22.3111 20 22.3111C17.6068 22.3111 15.6667 20.371 15.6667 17.9778C15.6667 15.5845 17.6068 13.6444 20 13.6444C22.3932 13.6444 24.3333 15.5845 24.3333 17.9778Z" stroke="white" stroke-width="1.5" stroke-linecap="round" stroke-linejoin="round"/>
</g>
</svg>
