<svg width="40" height="40" viewBox="0 0 40 40" fill="none" xmlns="http://www.w3.org/2000/svg">
<g id="grid-01">
<g id="Icon">
<path d="M28.3333 9C29.8061 9 31 10.1776 31 11.6301L31 29.3699C31 30.8224 29.8061 32 28.3333 32H24.3333C22.8606 32 21.6667 30.8224 21.6667 29.3699V11.6301C21.6667 10.1775 22.8606 9 24.3333 9L28.3333 9Z" stroke="white" stroke-width="1.5" stroke-linecap="round" stroke-linejoin="round"/>
<path d="M11.6667 9C10.1939 9 9 10.1776 9 11.6301L9.00001 16.1199C9.00001 17.5725 10.1939 18.75 11.6667 18.75H15.6667C17.1394 18.75 18.3333 17.5725 18.3333 16.1199L18.3333 11.6301C18.3333 10.1775 17.1394 9 15.6667 9L11.6667 9Z" stroke="white" stroke-width="1.5" stroke-linecap="round" stroke-linejoin="round"/>
<path d="M11.6667 22.25C10.1939 22.25 9.00001 23.4276 9.00001 24.8801L9.00002 29.3699C9.00002 30.8224 10.1939 32 11.6667 32H15.6667C17.1394 32 18.3333 30.8224 18.3333 29.3699L18.3333 24.8801C18.3333 23.4276 17.1394 22.25 15.6667 22.25H11.6667Z" stroke="white" stroke-width="1.5" stroke-linecap="round" stroke-linejoin="round"/>
</g>
</g>
</svg>
