<svg width="40" height="40" viewBox="0 0 40 40" fill="none" xmlns="http://www.w3.org/2000/svg">
<path fill-rule="evenodd" clip-rule="evenodd" d="M13.3333 21.6666C17.0152 21.6666 20 18.6819 20 15H13.3333V8.33331C9.65139 8.33331 6.66663 11.3181 6.66663 15C6.66663 18.6819 9.65139 21.6666 13.3333 21.6666Z" stroke="white" stroke-width="1.5" stroke-linecap="round" stroke-linejoin="round"/>
<path fill-rule="evenodd" clip-rule="evenodd" d="M16.6666 11.5638V7.5C18.564 8.17358 20.0569 9.6664 20.7304 11.5638H16.6666Z" stroke="white" stroke-width="1.5" stroke-linecap="round" stroke-linejoin="round"/>
<path fill-rule="evenodd" clip-rule="evenodd" d="M20 30.9152V22.8447C19.9974 22.4327 20.329 22.0965 20.741 22.0933H23.7038C24.1158 22.0965 24.4474 22.4327 24.4448 22.8447V19.0847C24.4421 18.6731 24.7731 18.337 25.1848 18.3333H28.1486C28.5606 18.3365 28.8922 18.6727 28.8895 19.0847V21.3409C28.8869 20.9289 29.2185 20.5926 29.6305 20.5895H32.5934C33.005 20.5932 33.336 20.9293 33.3333 21.3409V30.9152C33.336 31.3272 33.0044 31.6635 32.5924 31.6666H20.741C20.329 31.6635 19.9974 31.3272 20 30.9152V30.9152Z" stroke="white" stroke-width="1.5" stroke-linecap="round" stroke-linejoin="round"/>
<path d="M23.6947 31.6666C23.6947 32.0808 24.0305 32.4166 24.4447 32.4166C24.8589 32.4166 25.1947 32.0808 25.1947 31.6666H23.6947ZM25.1947 22.8447C25.1947 22.4305 24.8589 22.0947 24.4447 22.0947C24.0305 22.0947 23.6947 22.4305 23.6947 22.8447H25.1947ZM28.1385 31.6666C28.1385 32.0808 28.4743 32.4166 28.8885 32.4166C29.3027 32.4166 29.6385 32.0808 29.6385 31.6666H28.1385ZM29.6385 21.3409C29.6385 20.9267 29.3027 20.5909 28.8885 20.5909C28.4743 20.5909 28.1385 20.9267 28.1385 21.3409H29.6385ZM25.1947 31.6666V22.8447H23.6947V31.6666H25.1947ZM29.6385 31.6666V21.3409H28.1385V31.6666H29.6385Z" fill="white"/>
</svg>
