<svg width="40" height="40" viewBox="0 0 40 40" fill="none" xmlns="http://www.w3.org/2000/svg">
<path d="M8 8V29H17.999M13.2498 21.1251L17.8433 16.5314L21.1244 19.8126L28.3428 12.5939M23.4318 11.9375H29V17.506" stroke="white" stroke-width="1.5" stroke-linecap="round" stroke-linejoin="round"/>
<path fill-rule="evenodd" clip-rule="evenodd" d="M25.65 31.3333C25.3794 31.3333 25.1486 31.1375 25.1046 30.8706C25.064 30.6546 24.9085 30.4781 24.6993 30.4107C24.5289 30.3522 24.3623 30.2832 24.2004 30.2041C24.0078 30.1055 23.7767 30.1203 23.5981 30.2424C23.382 30.3978 23.0852 30.3738 22.8969 30.1856L22.1647 29.4534C21.9677 29.2563 21.9421 28.9457 22.1042 28.719C22.2292 28.5363 22.2472 28.3008 22.1514 28.1012C22.0883 27.9626 22.0326 27.8207 21.9846 27.6761C21.9159 27.4482 21.7261 27.2775 21.4923 27.2332C21.2104 27.1882 21.0022 26.946 21 26.6605V25.7445C20.9985 25.4153 21.2362 25.1338 21.561 25.0802C21.8073 25.0333 22.013 24.8646 22.1072 24.6322C22.1352 24.5667 22.1647 24.5018 22.1957 24.4373C22.3209 24.1963 22.3036 23.906 22.1507 23.6815C21.9594 23.4157 21.9888 23.0505 22.2201 22.8187L22.7582 22.2806C23.0235 22.0151 23.4421 21.9808 23.7472 22.1994L23.7642 22.2112C23.992 22.3646 24.2819 22.3923 24.5347 22.285C24.8052 22.1877 25.0045 21.9553 25.0595 21.6731L25.0669 21.648C25.1277 21.2746 25.4502 21.0002 25.8286 21H26.4782C26.8668 20.9998 27.1984 21.2809 27.262 21.6643L27.2738 21.716C27.326 21.9862 27.515 22.2099 27.7728 22.3064C28.0212 22.4131 28.3069 22.3852 28.5301 22.2326L28.567 22.206C28.88 21.9804 29.3105 22.0151 29.5833 22.288L30.0786 22.784C30.3268 23.0336 30.358 23.4261 30.1524 23.7118C29.9913 23.9506 29.9708 24.2574 30.0985 24.5156L30.1303 24.5894C30.2337 24.8414 30.4575 25.0241 30.7252 25.075C31.0749 25.132 31.3322 25.4336 31.3333 25.788V26.6095C31.3332 26.922 31.1072 27.1886 30.799 27.2399C30.5454 27.2885 30.3389 27.4721 30.2609 27.7181C30.2265 27.8166 30.1881 27.915 30.1458 28.0134C30.0473 28.2296 30.0691 28.4816 30.2033 28.6777C30.3804 28.9241 30.3529 29.2625 30.1384 29.477L29.4512 30.1649C29.2547 30.3614 28.9448 30.3867 28.719 30.2247C28.5305 30.096 28.2864 30.0818 28.0843 30.1878C27.9402 30.2592 27.7924 30.3225 27.6414 30.3775C27.4303 30.4503 27.2747 30.6311 27.234 30.8506C27.1909 31.1269 26.9541 31.3312 26.6745 31.3333H25.65Z" stroke="white" stroke-width="1.5" stroke-linecap="round" stroke-linejoin="round"/>
<path fill-rule="evenodd" clip-rule="evenodd" d="M27.8887 26.1667C27.8887 27.1177 27.1177 27.8887 26.1667 27.8887C25.2157 27.8887 24.4447 27.1177 24.4447 26.1667C24.4447 25.2157 25.2157 24.4447 26.1667 24.4447C27.1177 24.4447 27.8887 25.2157 27.8887 26.1667Z" stroke="white" stroke-width="1.5" stroke-linecap="round" stroke-linejoin="round"/>
</svg>
