<svg width="40" height="40" viewBox="0 0 40 40" fill="none" xmlns="http://www.w3.org/2000/svg">
<path d="M14.3335 21.75C13.9193 21.75 13.5835 22.0858 13.5835 22.5C13.5835 22.9142 13.9193 23.25 14.3335 23.25V21.75ZM19.3335 23.25C19.7478 23.25 20.0835 22.9142 20.0835 22.5C20.0835 22.0858 19.7478 21.75 19.3335 21.75V23.25ZM13.1368 17.5566C12.7226 17.5566 12.3868 17.8924 12.3868 18.3066C12.3868 18.7208 12.7226 19.0566 13.1368 19.0566V17.5566ZM21.4702 19.0566C21.8844 19.0566 22.2202 18.7208 22.2202 18.3066C22.2202 17.8924 21.8844 17.5566 21.4702 17.5566V19.0566ZM12.4081 11.7803C11.9995 11.8486 11.7237 12.2351 11.7921 12.6437C11.8604 13.0522 12.2469 13.328 12.6555 13.2597L12.4081 11.7803ZM13.3651 12.4516L13.3636 13.2016H13.3651V12.4516ZM22.5318 12.4516L22.5374 11.7016H22.5318V12.4516ZM27.5584 17.5533L26.8084 17.5479V17.5533H27.5584ZM27.5584 23.7466H26.8084L26.8084 23.7475L27.5584 23.7466ZM26.74 24.5307C26.6676 24.9385 26.9396 25.3278 27.3475 25.4001C27.7553 25.4725 28.1446 25.2005 28.2169 24.7926L26.74 24.5307ZM12.6621 13.2586C13.0701 13.1866 13.3424 12.7975 13.2704 12.3896C13.1984 11.9817 12.8093 11.7094 12.4014 11.7814L12.6621 13.2586ZM8.33345 17.5516H9.08346L9.08344 17.5476L8.33345 17.5516ZM8.33345 31.6666H7.58345C7.58345 31.9329 7.72462 32.1792 7.95437 32.3138C8.18411 32.4484 8.46799 32.4511 8.70024 32.3208L8.33345 31.6666ZM13.3601 28.8483V28.0983C13.2317 28.0983 13.1054 28.1313 12.9933 28.1941L13.3601 28.8483ZM22.5268 28.8483V29.5983L22.5317 29.5983L22.5268 28.8483ZM28.2073 24.7956C28.2785 24.3875 28.0054 23.999 27.5974 23.9278C27.1893 23.8566 26.8008 24.1297 26.7296 24.5377L28.2073 24.7956ZM11.7928 12.3918C11.722 12.7999 11.9955 13.1881 12.4036 13.2589C12.8117 13.3297 13.1999 13.0563 13.2707 12.6482L11.7928 12.3918ZM17.4784 8.33331V7.5833L17.4741 7.58333L17.4784 8.33331ZM26.6451 8.33331L26.6515 7.58331H26.6451V8.33331ZM31.6668 13.435L30.9168 13.4295V13.435H31.6668ZM31.6668 19.6283H30.9168L30.9168 19.6333L31.6668 19.6283ZM27.3381 23.9281C26.9302 24.0001 26.6579 24.3891 26.7299 24.797C26.8019 25.2049 27.1909 25.4772 27.5988 25.4052L27.3381 23.9281ZM14.3335 23.25H19.3335V21.75H14.3335V23.25ZM13.1368 19.0566H21.4702V17.5566H13.1368V19.0566ZM12.6555 13.2597C12.8895 13.2206 13.1263 13.2012 13.3636 13.2016L13.3667 11.7016C13.0455 11.701 12.7248 11.7273 12.4081 11.7803L12.6555 13.2597ZM13.3651 13.2016H22.5318V11.7016H13.3651V13.2016ZM22.5261 13.2016C24.9087 13.2196 26.8258 15.1653 26.8085 17.5479L28.3084 17.5588C28.3318 14.3479 25.7483 11.7259 22.5374 11.7017L22.5261 13.2016ZM26.8084 17.5533V23.7466H28.3084V17.5533H26.8084ZM26.8084 23.7475C26.8087 24.0101 26.7858 24.2721 26.74 24.5307L28.2169 24.7926C28.2782 24.4471 28.3088 24.0968 28.3084 23.7458L26.8084 23.7475ZM12.4014 11.7814C9.60312 12.2753 7.56817 14.7142 7.58346 17.5557L9.08344 17.5476C9.07208 15.437 10.5836 13.6254 12.6621 13.2586L12.4014 11.7814ZM7.58345 17.5516V31.6666H9.08345V17.5516H7.58345ZM8.70024 32.3208L13.7269 29.5025L12.9933 28.1941L7.96666 31.0125L8.70024 32.3208ZM13.3601 29.5983H22.5268V28.0983H13.3601V29.5983ZM22.5317 29.5983C25.3358 29.5799 27.7252 27.558 28.2073 24.7956L26.7296 24.5377C26.3722 26.5857 24.6008 28.0847 22.5219 28.0983L22.5317 29.5983ZM13.2707 12.6482C13.6266 10.5969 15.4009 9.09526 17.4828 9.0833L17.4741 7.58333C14.666 7.59945 12.2728 9.62496 11.7928 12.3918L13.2707 12.6482ZM17.4784 9.08331H26.6451V7.58331H17.4784V9.08331ZM26.6387 9.08329C29.0196 9.10359 30.9341 11.0486 30.9168 13.4295L32.4168 13.4404C32.4401 10.2318 29.8601 7.61071 26.6515 7.58334L26.6387 9.08329ZM30.9168 13.435V19.6283H32.4168V13.435H30.9168ZM30.9168 19.6333C30.9309 21.7461 29.4188 23.5608 27.3381 23.9281L27.5988 25.4052C30.4 24.9109 32.4358 22.4677 32.4168 19.6233L30.9168 19.6333Z" fill="white"/>
</svg>
