<svg width="40" height="40" viewBox="0 0 40 40" fill="none" xmlns="http://www.w3.org/2000/svg">
<path d="M19.1843 9.22167C19.5491 8.59278 20.4509 8.59278 20.8157 9.22167L23.9063 14.5507C24.2512 15.1454 24.8298 15.5681 25.5015 15.7142L31.5032 17.0194C32.2083 17.1727 32.4938 18.0387 32.0073 18.5855L27.9158 23.1842C27.4589 23.6977 27.2386 24.3797 27.3075 25.0635L27.9261 31.1992C27.9998 31.9308 27.2634 32.4579 26.6063 32.1671L20.9869 29.6802C20.3582 29.402 19.6418 29.402 19.0131 29.6802L13.3937 32.1671C12.7366 32.4579 12.0002 31.9308 12.0739 31.1992L12.6925 25.0635C12.7614 24.3797 12.5411 23.6977 12.0842 23.1842L7.9927 18.5855C7.50621 18.0387 7.79171 17.1727 8.49684 17.0194L14.4985 15.7142C15.1702 15.5681 15.7488 15.1454 16.0937 14.5507L19.1843 9.22167Z" stroke="white" stroke-width="1.5"/>
</svg>
