<svg width="60" height="62" viewBox="0 0 60 62" fill="none" xmlns="http://www.w3.org/2000/svg">
<g filter="url(#filter0_d_112_980)">
<rect x="4" width="52" height="54" rx="17.3241" fill="#FFF4F6"/>
</g>
<path d="M20 30C20 30 20.625 28.75 22.5 28.75C24.375 28.75 25.625 31.25 27.5 31.25C29.375 31.25 30.625 28.75 32.5 28.75C34.375 28.75 35.625 31.25 37.5 31.25C39.375 31.25 40 30 40 30M23.75 15H23.7625M30 15H30.0125M36.25 15H36.2625M40 36.25V26.25C40 25.587 39.7366 24.9511 39.2678 24.4822C38.7989 24.0134 38.163 23.75 37.5 23.75H22.5C21.837 23.75 21.2011 24.0134 20.7322 24.4822C20.2634 24.9511 20 25.587 20 26.25V36.25H40Z" stroke="white" stroke-width="2" stroke-linecap="round" stroke-linejoin="round"/>
<path d="M20 30C20 30 20.625 28.75 22.5 28.75C24.375 28.75 25.625 31.25 27.5 31.25C29.375 31.25 30.625 28.75 32.5 28.75C34.375 28.75 35.625 31.25 37.5 31.25C39.375 31.25 40 30 40 30M23.75 20V22.5M30 20V22.5M36.25 20V22.5M23.75 15H23.7625M30 15H30.0125M36.25 15H36.2625" stroke="#FE798E" stroke-width="2" stroke-linecap="round" stroke-linejoin="round"/>
<path d="M40 36.25V26.25C40 25.587 39.7366 24.9511 39.2678 24.4822C38.7989 24.0134 38.163 23.75 37.5 23.75H22.5C21.837 23.75 21.2011 24.0134 20.7322 24.4822C20.2634 24.9511 20 25.587 20 26.25V36.25M20 30C20 30 20.625 28.75 22.5 28.75C24.375 28.75 25.625 31.25 27.5 31.25C29.375 31.25 30.625 28.75 32.5 28.75C34.375 28.75 35.625 31.25 37.5 31.25C39.375 31.25 40 30 40 30M17.5 36.25H30H42.5" stroke="#FFB8C3" stroke-width="2" stroke-linecap="round" stroke-linejoin="round"/>
<defs>
<filter id="filter0_d_112_980" x="0.140143" y="0" width="59.7197" height="61.7197" filterUnits="userSpaceOnUse" color-interpolation-filters="sRGB">
<feFlood flood-opacity="0" result="BackgroundImageFix"/>
<feColorMatrix in="SourceAlpha" type="matrix" values="0 0 0 0 0 0 0 0 0 0 0 0 0 0 0 0 0 0 127 0" result="hardAlpha"/>
<feOffset dy="3.85986"/>
<feGaussianBlur stdDeviation="1.92993"/>
<feComposite in2="hardAlpha" operator="out"/>
<feColorMatrix type="matrix" values="0 0 0 0 0.627451 0 0 0 0 0.890196 0 0 0 0 0.886274 0 0 0 0.15 0"/>
<feBlend mode="normal" in2="BackgroundImageFix" result="effect1_dropShadow_112_980"/>
<feBlend mode="normal" in="SourceGraphic" in2="effect1_dropShadow_112_980" result="shape"/>
</filter>
</defs>
</svg>
