<svg width="60" height="62" viewBox="0 0 60 62" fill="none" xmlns="http://www.w3.org/2000/svg">
<g filter="url(#filter0_d_126_1676)">
<rect x="4" width="52" height="54" rx="17.3241" fill="#CDF2C7"/>
</g>
<path d="M25.6365 24.9095H21.273C20.6702 24.9095 20.092 24.67 19.6657 24.2438C19.2395 23.8175 19 23.2393 19 22.6365V18.273C19 17.6702 19.2395 17.092 19.6657 16.6657C20.092 16.2395 20.6702 16 21.273 16H25.6365C26.2393 16 26.8175 16.2395 27.2438 16.6657C27.67 17.092 27.9095 17.6702 27.9095 18.273V22.6365C27.9095 22.935 27.8507 23.2306 27.7365 23.5063C27.6222 23.7821 27.4548 24.0327 27.2438 24.2438C27.0327 24.4548 26.7821 24.6222 26.5063 24.7365C26.2306 24.8507 25.935 24.9095 25.6365 24.9095Z" fill="#CDFFD8" stroke="#A4D1AD" stroke-width="2"/>
<path d="M25.6365 37.9095H21.273C20.6702 37.9095 20.092 37.67 19.6657 37.2438C19.2395 36.8175 19 36.2393 19 35.6365V31.273C19 30.6702 19.2395 30.092 19.6657 29.6657C20.092 29.2395 20.6702 29 21.273 29H25.6365C26.2393 29 26.8175 29.2395 27.2438 29.6657C27.67 30.092 27.9095 30.6702 27.9095 31.273V35.6365C27.9095 35.935 27.8507 36.2306 27.7365 36.5063C27.6222 36.7821 27.4548 37.0327 27.2438 37.2438C27.0327 37.4548 26.7821 37.6222 26.5063 37.7365C26.2306 37.8507 25.935 37.9095 25.6365 37.9095Z" fill="#CDFFD8" stroke="#A4D1AD" stroke-width="2"/>
<path d="M38.6365 24.9095H34.273C33.6702 24.9095 33.092 24.67 32.6657 24.2438C32.2395 23.8175 32 23.2393 32 22.6365V18.273C32 17.6702 32.2395 17.092 32.6657 16.6657C33.092 16.2395 33.6702 16 34.273 16H38.6365C39.2393 16 39.8175 16.2395 40.2438 16.6657C40.67 17.092 40.9095 17.6702 40.9095 18.273V22.6365C40.9095 22.935 40.8507 23.2306 40.7365 23.5063C40.6222 23.7821 40.4548 24.0327 40.2438 24.2438C40.0327 24.4548 39.7821 24.6222 39.5063 24.7365C39.2306 24.8507 38.935 24.9095 38.6365 24.9095Z" fill="#CDFFD8" stroke="#A4D1AD" stroke-width="2"/>
<path d="M38.6365 37.9095H34.273C33.6702 37.9095 33.092 37.67 32.6657 37.2438C32.2395 36.8175 32 36.2393 32 35.6365V31.273C32 30.6702 32.2395 30.092 32.6657 29.6657C33.092 29.2395 33.6702 29 34.273 29H38.6365C39.2393 29 39.8175 29.2395 40.2438 29.6657C40.67 30.092 40.9095 30.6702 40.9095 31.273V35.6365C40.9095 35.935 40.8507 36.2306 40.7365 36.5063C40.6222 36.7821 40.4548 37.0327 40.2438 37.2438C40.0327 37.4548 39.7821 37.6222 39.5063 37.7365C39.2306 37.8507 38.935 37.9095 38.6365 37.9095Z" fill="#CDFFD8" stroke="#A4D1AD" stroke-width="2"/>
<defs>
<filter id="filter0_d_126_1676" x="0.140143" y="0" width="59.7197" height="61.7197" filterUnits="userSpaceOnUse" color-interpolation-filters="sRGB">
<feFlood flood-opacity="0" result="BackgroundImageFix"/>
<feColorMatrix in="SourceAlpha" type="matrix" values="0 0 0 0 0 0 0 0 0 0 0 0 0 0 0 0 0 0 127 0" result="hardAlpha"/>
<feOffset dy="3.85986"/>
<feGaussianBlur stdDeviation="1.92993"/>
<feComposite in2="hardAlpha" operator="out"/>
<feColorMatrix type="matrix" values="0 0 0 0 0.627451 0 0 0 0 0.890196 0 0 0 0 0.886274 0 0 0 0.15 0"/>
<feBlend mode="normal" in2="BackgroundImageFix" result="effect1_dropShadow_126_1676"/>
<feBlend mode="normal" in="SourceGraphic" in2="effect1_dropShadow_126_1676" result="shape"/>
</filter>
</defs>
</svg>
