<svg width="60" height="62" viewBox="0 0 60 62" fill="none" xmlns="http://www.w3.org/2000/svg">
<g filter="url(#filter0_d_53_815)">
<rect x="4" width="52" height="54" rx="17.3241" fill="#DDF4FF"/>
</g>
<rect width="29.8519" height="30" transform="translate(15.2667 12.4426)" fill="#DDF4FF"/>
<path d="M22.088 17.0204C22.088 15.3635 23.4312 14.0204 25.088 14.0204H40.3625C42.0194 14.0204 43.3625 15.3635 43.3625 17.0204V38.3733C43.3625 40.0302 42.0194 41.3733 40.3625 41.3733H23.088C22.5357 41.3733 22.088 40.9256 22.088 40.3733V17.0204Z" fill="white"/>
<path d="M17.0227 24.125C17.0227 23.0204 17.9181 22.125 19.0227 22.125H22.088V41.3734H20.0227C18.3658 41.3734 17.0227 40.0302 17.0227 38.3734V24.125Z" fill="#A2D7EF"/>
<rect x="26.1403" y="19.0858" width="13.1699" height="5.06536" rx="1" fill="#A2D7EF"/>
<path d="M27.4066 27.8235H38.1705" stroke="#A2D7EF" stroke-linecap="round"/>
<path d="M27.4066 36.308H38.1705" stroke="#A2D7EF" stroke-linecap="round"/>
<path d="M27.4066 32.2557H38.1705" stroke="#A2D7EF" stroke-linecap="round"/>
<defs>
<filter id="filter0_d_53_815" x="0.140143" y="0" width="59.7197" height="61.7197" filterUnits="userSpaceOnUse" color-interpolation-filters="sRGB">
<feFlood flood-opacity="0" result="BackgroundImageFix"/>
<feColorMatrix in="SourceAlpha" type="matrix" values="0 0 0 0 0 0 0 0 0 0 0 0 0 0 0 0 0 0 127 0" result="hardAlpha"/>
<feOffset dy="3.85986"/>
<feGaussianBlur stdDeviation="1.92993"/>
<feComposite in2="hardAlpha" operator="out"/>
<feColorMatrix type="matrix" values="0 0 0 0 0.627451 0 0 0 0 0.890196 0 0 0 0 0.886274 0 0 0 0.15 0"/>
<feBlend mode="normal" in2="BackgroundImageFix" result="effect1_dropShadow_53_815"/>
<feBlend mode="normal" in="SourceGraphic" in2="effect1_dropShadow_53_815" result="shape"/>
</filter>
</defs>
</svg>
