<svg width="60" height="62" viewBox="0 0 60 62" fill="none" xmlns="http://www.w3.org/2000/svg">
<g filter="url(#filter0_d_53_954)">
<rect x="4" width="52" height="54" rx="17.3241" fill="#FFF4F6"/>
</g>
<g clip-path="url(#clip0_53_954)">
<mask id="mask0_53_954" style="mask-type:alpha" maskUnits="userSpaceOnUse" x="17" y="10" width="24" height="15">
<rect x="17" y="10" width="24" height="15" fill="#D9D9D9"/>
</mask>
<g mask="url(#mask0_53_954)">
<path d="M21.5 17.5L20.5 21L24 23.5H27.5L31 20.5L29.5 17.5H21.5Z" fill="white"/>
<path d="M25.4375 10.0812C25.15 10.225 25.125 10.3687 25.125 11.8625C25.125 13.4125 25.1562 13.5562 25.5062 13.6812C25.7375 13.7625 26.075 13.6437 26.1812 13.45C26.225 13.3687 26.25 12.7812 26.25 11.8437V10.3625L26.0688 10.1812C25.8688 9.98749 25.6875 9.95624 25.4375 10.0812Z" fill="#FE798E"/>
<path d="M17.6688 13.3812C17.6125 13.4125 17.5188 13.5312 17.4625 13.6312C17.2938 13.9562 17.4125 14.1375 18.5188 15.2375C19.4438 16.1562 19.5625 16.25 19.7563 16.25C20.175 16.25 20.4375 15.9125 20.3125 15.5312C20.2688 15.4062 19.875 14.9688 19.225 14.325C18.3063 13.4125 18.1813 13.3125 17.9938 13.3125C17.875 13.3125 17.7313 13.3438 17.6688 13.3812Z" fill="#FE798E"/>
<path d="M32.1438 14.3875C31.1188 15.4062 31.0625 15.475 31.0625 15.7063C31.0625 16.0312 31.2812 16.25 31.6062 16.25C31.825 16.25 31.9062 16.1875 32.9188 15.1687C33.8813 14.2062 34 14.0687 34 13.8812C34 13.6 33.7125 13.3125 33.4313 13.3125C33.25 13.3125 33.1 13.4375 32.1438 14.3875Z" fill="#FE798E"/>
<path d="M21.475 17.45C21.3562 17.5562 21.1562 18.0125 20.75 19.1125C20.1875 20.6312 20.1312 20.8437 20.25 21.0625C20.2812 21.125 21.1375 21.7187 22.1562 22.3812C23.1687 23.0437 23.9875 23.5937 23.9812 23.6062C23.9687 23.6125 23.6937 23.6937 23.3687 23.775C21.7312 24.1875 20.4187 24.95 19.15 26.2125C17.7312 27.6375 16.8875 29.2375 16.5625 31.1562C15.8812 35.15 17.8125 39.0312 21.4437 40.9625C22.0937 41.3062 23.2687 41.7062 24.0625 41.85C24.8937 42.0062 26.5812 42.0062 27.3437 41.85C28.4937 41.625 29.7375 41.1312 30.6125 40.5687L31 40.3125L31.375 40.5562C32.2625 41.1312 33.5875 41.65 34.7125 41.8625C35.4812 42.0062 37.1187 42 37.9375 41.85C40.775 41.3375 43.2437 39.5125 44.55 36.9562C45.25 35.575 45.5625 34.3 45.5625 32.75C45.5625 30.1625 44.5812 27.8625 42.7125 26.0625C41.3187 24.7187 39.6875 23.9062 37.75 23.5875C37.1125 23.4875 35.7 23.475 35.025 23.5687C33.8562 23.7312 32.6375 24.1625 31.6 24.775C31.2812 24.9687 31 25.125 30.9812 25.125C30.9562 25.125 30.7937 25.0312 30.6125 24.9125C29.8062 24.4 28.7625 23.9687 27.6312 23.6812L27.3562 23.6125L28.0375 23.1687C28.4125 22.9187 29.25 22.375 29.8937 21.95C31.2125 21.0875 31.3 20.9937 31.1625 20.5375C31.1187 20.3937 30.8625 19.6875 30.5937 18.9687C30.2312 17.9875 30.0625 17.6125 29.9312 17.4812L29.75 17.3125H25.6875H21.6312L21.475 17.45ZM23.5562 18.4687C23.4812 18.5437 21.9062 19.4312 21.8875 19.4062C21.875 19.3937 21.9437 19.1687 22.0375 18.9125L22.2187 18.4375H22.9C23.275 18.4375 23.5687 18.45 23.5562 18.4687ZM29.3625 18.9187C29.4625 19.1875 29.5375 19.4125 29.5312 19.425C29.5062 19.45 27.875 18.5 27.875 18.4625C27.875 18.45 28.1687 18.4375 28.525 18.4375H29.175L29.3625 18.9187ZM27.1375 19.375L28.525 20.1875H25.7187C24.1812 20.1875 22.9312 20.175 22.9437 20.1562C23.0062 20.1 25.6562 18.5625 25.7062 18.5625C25.7312 18.5625 26.375 18.925 27.1375 19.375ZM28.6875 21.3437C28.6875 21.425 25.725 23.3187 25.65 23.2875C25.5375 23.2437 22.8687 21.5 22.75 21.3937C22.675 21.325 23.1437 21.3125 25.675 21.3125C27.3312 21.3125 28.6875 21.325 28.6875 21.3437ZM26.9812 24.7187C29.6437 25.15 31.9312 26.9062 33.075 29.4062C33.575 30.4875 33.7812 31.5 33.775 32.8437C33.7687 34.1812 33.5187 35.2125 32.9187 36.4062L32.6687 36.9062L32.35 36.5562C32.175 36.3687 31.95 36.0937 31.85 35.9437C31.675 35.7 31.6687 35.6625 31.7437 35.4812C32.15 34.475 32.3125 33.6937 32.3125 32.7187C32.3125 30.8625 31.5875 29.1875 30.2312 27.9C28.5312 26.2875 26.0937 25.7 23.8187 26.35C22.7437 26.6625 21.7937 27.225 20.975 28.0375C17.9062 31.1125 18.5437 36.1812 22.2875 38.4625C23.8125 39.3937 25.8875 39.6312 27.6562 39.0875C27.8312 39.0312 28.2125 38.875 28.5062 38.7375L29.05 38.4875L29.5375 39C29.8125 39.2812 30.0375 39.5375 30.05 39.5625C30.075 39.6375 28.6062 40.3437 28.1062 40.4937C26.4625 40.9937 24.5437 40.9562 22.9875 40.4C19.7188 39.225 17.5625 36.1625 17.5625 32.7187C17.5687 30.75 18.2562 28.9125 19.55 27.4125C20.8562 25.9062 22.5375 25.0062 24.6875 24.6687C25.0875 24.6062 26.4625 24.6375 26.9812 24.7187ZM38 24.7812C40.7687 25.4 42.975 27.3187 43.9562 29.9687C44.2812 30.8437 44.4375 31.7312 44.4375 32.7187C44.4437 36.5937 41.75 39.8937 37.9187 40.6937C37.1062 40.8687 35.7375 40.8812 34.9 40.7312C31.6313 40.1437 29.0562 37.6312 28.3687 34.3562C28.2 33.5812 28.175 32.1 28.3062 31.375C28.4625 30.5125 28.8187 29.4937 29.1687 28.8812L29.325 28.6125L29.6062 28.8812C29.7562 29.0312 29.9875 29.2937 30.1062 29.4625C30.3187 29.7437 30.3312 29.7812 30.2562 29.9625C29.7875 31.1687 29.6625 31.8375 29.7062 33C29.775 34.7625 30.4 36.2 31.6312 37.4312C32.9688 38.775 34.6437 39.425 36.5625 39.3625C37.7812 39.3187 38.7687 39.0312 39.75 38.4375C43 36.475 43.9562 32.1937 41.85 29.0375C39.9875 26.25 36.325 25.2937 33.3187 26.8062L32.9562 26.9937L32.45 26.4375L31.9375 25.8812L32.325 25.6625C33.1375 25.2062 34.0688 24.875 34.9625 24.7187C35.6313 24.6 37.35 24.6375 38 24.7812ZM26.8562 27.35C27.2312 27.4312 28.125 27.75 28.3 27.8687C28.3687 27.9062 28.3187 28.0562 28.075 28.5375C27.675 29.3312 27.425 30.0437 27.2437 30.9062C27.05 31.8062 27.0375 33.5312 27.2125 34.4062C27.375 35.2375 27.7062 36.2062 28.0625 36.9125C28.4312 37.6312 28.45 37.575 27.6875 37.8687C25.6 38.675 23.2437 38.1562 21.7125 36.5562C20.5687 35.35 20.0312 33.8187 20.1937 32.2125C20.2687 31.4625 20.4 30.9937 20.7187 30.3312C21.5437 28.6312 23.2125 27.45 25.0937 27.25C25.6312 27.1937 26.3438 27.2375 26.8562 27.35ZM37.625 27.3812C39.1687 27.7375 40.5687 28.8687 41.2812 30.3312C42.775 33.4312 41.15 37.0562 37.8312 38.0375C36.7375 38.3625 35.4187 38.3 34.3125 37.8687C33.55 37.575 33.5687 37.6312 33.9375 36.9125C34.2937 36.2062 34.625 35.2375 34.7875 34.4062C34.9625 33.5312 34.95 31.8125 34.7562 30.9062C34.5812 30.0687 34.2875 29.2437 33.9062 28.5125C33.75 28.2062 33.625 27.9437 33.625 27.925C33.625 27.8687 34.4562 27.5312 34.9062 27.4062C35.6937 27.175 36.6812 27.1687 37.625 27.3812ZM31.1187 31.8062C31.1562 32.05 31.1875 32.4562 31.1875 32.7187C31.1875 33.2312 31.0687 34.0625 31 34.0625C30.9312 34.0625 30.8125 33.2312 30.8125 32.7187C30.8125 32.2062 30.9312 31.375 31 31.375C31.025 31.375 31.075 31.5687 31.1187 31.8062Z" fill="#FFACB9"/>
</g>
<mask id="mask1_53_954" style="mask-type:alpha" maskUnits="userSpaceOnUse" x="16" y="23" width="30" height="19">
<path fill-rule="evenodd" clip-rule="evenodd" d="M25.5 39C29.0899 39 32 36.0899 32 32.5C32 28.9101 29.0899 26 25.5 26C21.9101 26 19 28.9101 19 32.5C19 36.0899 21.9101 39 25.5 39ZM25.5 42C30.7467 42 35 37.7467 35 32.5C35 27.2533 30.7467 23 25.5 23C20.2533 23 16 27.2533 16 32.5C16 37.7467 20.2533 42 25.5 42ZM36 39C39.5899 39 42.5 36.0899 42.5 32.5C42.5 28.9101 39.5899 26 36 26C32.4101 26 29.5 28.9101 29.5 32.5C29.5 36.0899 32.4101 39 36 39ZM36 42C41.2467 42 45.5 37.7467 45.5 32.5C45.5 27.2533 41.2467 23 36 23C30.7533 23 26.5 27.2533 26.5 32.5C26.5 37.7467 30.7533 42 36 42Z" fill="#FE798E"/>
</mask>
<g mask="url(#mask1_53_954)">
<circle cx="25.5" cy="32.5" r="8" stroke="#FFACB9" stroke-width="3"/>
<path d="M44 32.5C44 36.9183 40.4183 40.5 36 40.5C31.5817 40.5 28 36.9183 28 32.5C28 28.0817 31.5817 24.5 36 24.5C40.4183 24.5 44 28.0817 44 32.5Z" stroke="#FE798E" stroke-width="3"/>
</g>
<path d="M28.4789 38.2872C29.1173 39.1174 29.8899 39.8392 30.7641 40.4199C31.6384 39.8392 32.411 39.1174 33.0494 38.2872C32.1435 37.8221 31.361 37.1504 30.7641 36.3344C30.1673 37.1504 29.3848 37.8221 28.4789 38.2872Z" fill="#FE798E"/>
<path d="M30.7147 28.6623C31.3115 27.8462 32.094 27.1745 33 26.7094C32.3616 25.8792 31.589 25.1575 30.7147 24.5767C29.8404 25.1575 29.0679 25.8792 28.4294 26.7094C29.3354 27.1745 30.1179 27.8462 30.7147 28.6623Z" fill="#FFACB9"/>
</g>
<defs>
<filter id="filter0_d_53_954" x="0.140143" y="0" width="59.7197" height="61.7197" filterUnits="userSpaceOnUse" color-interpolation-filters="sRGB">
<feFlood flood-opacity="0" result="BackgroundImageFix"/>
<feColorMatrix in="SourceAlpha" type="matrix" values="0 0 0 0 0 0 0 0 0 0 0 0 0 0 0 0 0 0 127 0" result="hardAlpha"/>
<feOffset dy="3.85986"/>
<feGaussianBlur stdDeviation="1.92993"/>
<feComposite in2="hardAlpha" operator="out"/>
<feColorMatrix type="matrix" values="0 0 0 0 0.627451 0 0 0 0 0.890196 0 0 0 0 0.886274 0 0 0 0.15 0"/>
<feBlend mode="normal" in2="BackgroundImageFix" result="effect1_dropShadow_53_954"/>
<feBlend mode="normal" in="SourceGraphic" in2="effect1_dropShadow_53_954" result="shape"/>
</filter>
<clipPath id="clip0_53_954">
<rect width="32" height="32" fill="white" transform="translate(15 10)"/>
</clipPath>
</defs>
</svg>
