<svg width="40" height="40" viewBox="0 0 40 40" fill="none" xmlns="http://www.w3.org/2000/svg">
<g id="Group 48096263">
<path id="Vector" d="M20.0001 31.7073C13.4147 31.7073 8.29275 26.5854 8.29275 20C8.29275 13.4146 13.4147 8.29266 20.0001 8.29266C26.5854 8.29266 31.7074 13.4146 31.7074 20C31.7074 26.5854 26.5854 31.7073 20.0001 31.7073Z" fill="#F5C12E"/>
<path id="Vector_2" d="M20 0C19.5122 0 19.0244 0.4878 19.0244 0.975605V5.36586C19.0244 5.85367 19.5122 6.34146 20 6.34146C20.4878 6.34146 20.9756 5.85367 20.9756 5.36586V0.975605C20.9756 0.4878 20.4878 0 20 0Z" fill="#F9D67A"/>
<path id="Vector_3" d="M20 33.6585C19.5122 33.6585 19.0244 34.1463 19.0244 34.6341V39.0244C19.0244 39.5122 19.5122 40 20 40C20.4878 40 20.9756 39.5122 20.9756 39.0244V34.6341C20.9756 34.1463 20.4878 33.6585 20 33.6585Z" fill="#F9D67A"/>
<path id="Vector_4" d="M6.34147 20C6.34147 19.5122 5.85366 19.0244 5.36586 19.0244H0.97561C0.487804 19.0244 0 19.5122 0 20C0 20.4878 0.487804 20.9756 0.97561 20.9756H5.36586C5.85366 20.9756 6.34147 20.4878 6.34147 20Z" fill="#F9D67A"/>
<path id="Vector_5" d="M39.0244 19.0244H34.6341C34.1463 19.0244 33.6585 19.5122 33.6585 20C33.6585 20.4878 34.1463 20.9756 34.6341 20.9756H39.0244C39.5122 20.9756 40 20.4878 40 20C40 19.5122 39.5122 19.0244 39.0244 19.0244Z" fill="#F9D67A"/>
<path id="Vector_6" d="M30.244 10.7318C30.5692 10.7318 30.8131 10.6505 30.9757 10.4879L34.1464 7.07322C34.3903 6.82931 34.3903 6.34151 34.1464 5.8537C33.6586 5.6098 33.1708 5.6098 32.9269 5.8537L29.5123 9.02445C29.2684 9.51225 29.2684 10.0001 29.5123 10.4879C29.8375 10.6505 30.0814 10.7318 30.244 10.7318Z" fill="#F9D67A"/>
<path id="Vector_7" d="M9.02443 29.5122L5.8537 32.9268C5.60979 33.1707 5.60979 33.6585 5.8537 34.1463C6.0163 34.3089 6.2602 34.3902 6.5854 34.3902C6.74801 34.3902 6.91061 34.3089 7.07321 34.1463L10.4878 30.9756C10.7318 30.7317 10.9757 30 10.4878 29.5122C10.2439 29.2683 9.75614 29.0244 9.26833 29.5122C9.26833 29.5122 9.18703 29.5122 9.02443 29.5122Z" fill="#F9D67A"/>
<path id="Vector_8" d="M9.02443 10.4879C9.51224 10.7318 10 10.7318 10.4878 10.4879C10.7318 10.0001 10.7318 9.51225 10.4878 9.02445L7.07321 5.8537C6.82931 5.6098 6.3415 5.6098 5.8537 5.8537C5.60979 6.34151 5.60979 6.82931 5.8537 7.07322L9.02443 10.4879Z" fill="#F9D67A"/>
<path id="Vector_9" d="M30.9757 29.5122C30.7318 29.2683 30.0001 29.0244 29.5123 29.5122C29.2684 29.7561 29.0245 30.2439 29.5123 30.7317C29.5123 30.7317 29.5123 30.813 29.5123 30.9756L32.9269 34.1463C33.0895 34.3089 33.2521 34.3902 33.4147 34.3902C33.7399 34.3902 33.9838 34.3089 34.1464 34.1463C34.3903 33.6585 34.3903 33.1707 34.1464 32.9268L30.9757 29.5122Z" fill="#F9D67A"/>
</g>
</svg>
