<svg width="60" height="62" viewBox="0 0 60 62" fill="none" xmlns="http://www.w3.org/2000/svg">
<g filter="url(#filter0_d_145_1943)">
<rect x="4" width="52" height="54" rx="17.3241" fill="#E4E1FC"/>
</g>
<circle cx="29" cy="27" r="12" fill="#CBC5FF"/>
<circle cx="36.5" cy="34.5" r="6.5" fill="#ABA2FA"/>
<path d="M26.2066 31.7541L29.9633 27.9467C30.1507 27.7566 30.2557 27.5005 30.2557 27.2336V19.6707C30.2557 19.4015 30.1487 19.1433 29.9583 18.9529C29.768 18.7625 29.5098 18.6555 29.2406 18.6555C28.9713 18.6555 28.7131 18.7625 28.5228 18.9529C28.3324 19.1433 28.2254 19.4015 28.2254 19.6707V26.8177L24.7627 30.3279C24.669 30.4228 24.595 30.5353 24.5448 30.6588C24.4946 30.7823 24.4693 30.9145 24.4702 31.0479C24.472 31.3172 24.5807 31.5747 24.7724 31.7638C24.8673 31.8575 24.9798 31.9315 25.1033 31.9817C25.2268 32.0319 25.359 32.0572 25.4923 32.0563C25.7616 32.0545 26.0175 31.9458 26.2066 31.7541Z" fill="white"/>
<path d="M41.9303 31.5137L37.4947 35.8993L37.493 35.8928C37.1589 36.2217 36.7088 36.406 36.24 36.406C35.7712 36.406 35.3211 36.2217 34.9869 35.8928L33.4927 34.3985C33.3023 34.208 33.1953 33.9498 33.1953 33.6805C33.1953 33.4112 33.3023 33.153 33.4927 32.9626C33.6831 32.7721 33.9413 32.6652 34.2106 32.6652C34.4798 32.6652 34.7381 32.7721 34.9285 32.9626L36.244 34.2783L40.5027 30.0713C40.6957 29.891 40.9514 29.793 41.2155 29.7982C41.4795 29.8033 41.7312 29.9113 41.917 30.099C42.1028 30.2867 42.2082 30.5395 42.2106 30.8036C42.2131 31.0678 42.1126 31.3225 41.9303 31.5137Z" fill="#EBE9FF"/>
<defs>
<filter id="filter0_d_145_1943" x="0.140143" y="0" width="59.7197" height="61.7197" filterUnits="userSpaceOnUse" color-interpolation-filters="sRGB">
<feFlood flood-opacity="0" result="BackgroundImageFix"/>
<feColorMatrix in="SourceAlpha" type="matrix" values="0 0 0 0 0 0 0 0 0 0 0 0 0 0 0 0 0 0 127 0" result="hardAlpha"/>
<feOffset dy="3.85986"/>
<feGaussianBlur stdDeviation="1.92993"/>
<feComposite in2="hardAlpha" operator="out"/>
<feColorMatrix type="matrix" values="0 0 0 0 0.627451 0 0 0 0 0.890196 0 0 0 0 0.886274 0 0 0 0.15 0"/>
<feBlend mode="normal" in2="BackgroundImageFix" result="effect1_dropShadow_145_1943"/>
<feBlend mode="normal" in="SourceGraphic" in2="effect1_dropShadow_145_1943" result="shape"/>
</filter>
</defs>
</svg>
