<svg width="28" height="28" viewBox="0 0 28 28" fill="none" xmlns="http://www.w3.org/2000/svg">
<path d="M25.6667 15.3346V13.0013C25.6667 8.6018 25.6667 6.40147 24.2994 5.0353C22.932 3.66914 20.7329 3.66797 16.3334 3.66797H11.6667C7.26721 3.66797 5.06687 3.66797 3.70071 5.0353C2.33454 6.40264 2.33337 8.6018 2.33337 13.0013V15.3346C2.33337 19.7341 2.33337 21.9345 3.70071 23.3006C5.06804 24.6668 7.26721 24.668 11.6667 24.668H16.3334M8.16671 3.66797V1.91797M19.8334 3.66797V1.91797" stroke="#2589F4" stroke-width="1.75" stroke-linecap="round"/>
<path d="M21 23.5C22.933 23.5 24.5 21.933 24.5 20C24.5 18.067 22.933 16.5 21 16.5C19.067 16.5 17.5 18.067 17.5 20C17.5 21.933 19.067 23.5 21 23.5Z" stroke="#2589F4" stroke-width="1.75"/>
<path d="M23.9167 22.9167L25.6667 24.6667M2.91675 9.5H25.0834" stroke="#2589F4" stroke-width="1.75" stroke-linecap="round"/>
</svg>
