<svg width="24" height="24" viewBox="0 0 24 24" fill="none" xmlns="http://www.w3.org/2000/svg">
<path d="M13.125 4.125C13.125 3.82663 13.0065 3.54048 12.7955 3.3295C12.5845 3.11853 12.2984 3 12 3C11.7016 3 11.4155 3.11853 11.2045 3.3295C10.9935 3.54048 10.875 3.82663 10.875 4.125V10.5H4.5C4.20163 10.5 3.91548 10.6185 3.7045 10.8295C3.49353 11.0405 3.375 11.3266 3.375 11.625C3.375 11.9234 3.49353 12.2095 3.7045 12.4205C3.91548 12.6315 4.20163 12.75 4.5 12.75H10.875V19.125C10.875 19.4234 10.9935 19.7095 11.2045 19.9205C11.4155 20.1315 11.7016 20.25 12 20.25C12.2984 20.25 12.5845 20.1315 12.7955 19.9205C13.0065 19.7095 13.125 19.4234 13.125 19.125V12.75H19.5C19.7984 12.75 20.0845 12.6315 20.2955 12.4205C20.5065 12.2095 20.625 11.9234 20.625 11.625C20.625 11.3266 20.5065 11.0405 20.2955 10.8295C20.0845 10.6185 19.7984 10.5 19.5 10.5H13.125V4.125Z" fill="white"/>
</svg>
