<svg width="16" height="16" viewBox="0 0 16 16" fill="none" xmlns="http://www.w3.org/2000/svg">
<path d="M14.5461 3.48582C14.6823 3.63065 14.7555 3.82367 14.7495 4.02245C14.7435 4.22123 14.6588 4.40948 14.5141 4.54582L6.58406 12.0198C6.4224 12.1721 6.20759 12.255 5.98558 12.2509C5.76356 12.2468 5.55197 12.1559 5.39606 11.9978L2.71606 9.27782C2.64509 9.20809 2.5887 9.12494 2.55019 9.0332C2.51167 8.94147 2.49179 8.84299 2.4917 8.74349C2.49161 8.644 2.51132 8.54548 2.54968 8.45368C2.58804 8.36188 2.64428 8.27863 2.71513 8.20878C2.78598 8.13892 2.87002 8.08387 2.96235 8.04681C3.05469 8.00975 3.15347 7.99144 3.25296 7.99293C3.35244 7.99442 3.45063 8.0157 3.54181 8.05551C3.63299 8.09532 3.71534 8.15288 3.78406 8.22482L6.01806 10.4918L13.4861 3.45382C13.6309 3.31753 13.8239 3.24434 14.0227 3.25034C14.2215 3.25634 14.4097 3.34105 14.5461 3.48582Z" fill="white"/>
</svg>
