<svg width="50" height="50" viewBox="0 0 50 50" fill="none" xmlns="http://www.w3.org/2000/svg">
<path d="M19.0133 31.28L19.6133 32.08L19.0133 31.28L13.2 35.64L13.2 15.76C13.2 15.4523 13.3222 15.1573 13.5398 14.9397C13.7573 14.7222 14.0524 14.6 14.36 14.6H33.08C33.2323 14.6 33.3832 14.63 33.5239 14.6883C33.6647 14.7466 33.7925 14.832 33.9003 14.9397C34.008 15.0474 34.0934 15.1753 34.1517 15.3161C34.21 15.4568 34.24 15.6076 34.24 15.76V29.72C34.24 29.8723 34.21 30.0231 34.1517 30.1639C34.0934 30.3046 34.008 30.4325 33.9003 30.5402C33.7925 30.6479 33.6647 30.7334 33.5239 30.7917C33.3832 30.85 33.2324 30.88 33.08 30.88H32.36H20.2133C19.7806 30.88 19.3595 31.0203 19.0133 31.28Z" stroke="#24292F" stroke-width="2"/>
<path d="M27.2 24.6C28.1941 24.6 29 23.7941 29 22.8C29 21.8059 28.1941 21 27.2 21C26.2059 21 25.4 21.8059 25.4 22.8C25.4 23.7941 26.2059 24.6 27.2 24.6Z" fill="#24292F"/>
<path d="M21.2 24.6C22.1941 24.6 23 23.7941 23 22.8C23 21.8059 22.1941 21 21.2 21C20.2059 21 19.4 21.8059 19.4 22.8C19.4 23.7941 20.2059 24.6 21.2 24.6Z" fill="#24292F"/>
<path fill-rule="evenodd" clip-rule="evenodd" d="M20.8453 33C20.8781 33.4753 21.0815 33.9247 21.4205 34.2637C21.7919 34.635 22.2955 34.8436 22.8206 34.8436H32.2838L39.3254 40.1236V23.6206C39.3254 23.3606 39.2742 23.103 39.1746 22.8628C39.0751 22.6225 38.9292 22.4042 38.7453 22.2203C38.5613 22.0365 38.343 21.8906 38.1027 21.7912C37.8624 21.6917 37.6049 21.6405 37.3448 21.6406H36.9678C36.989 21.7572 37 21.8773 37 22V31C37 32.1046 36.1046 33 35 33H20.8453Z" fill="#24292F"/>
</svg>
