<svg width="50" height="50" viewBox="0 0 50 50" fill="none" xmlns="http://www.w3.org/2000/svg">
<path d="M38.242 27.124V12.6952C38.242 12.5798 38.2193 12.4655 38.1751 12.3588C38.1309 12.2522 38.0662 12.1553 37.9845 12.0737C37.9029 11.992 37.806 11.9273 37.6994 11.8831C37.5927 11.8389 37.4784 11.8162 37.363 11.8162H32.9104V10.879C32.9104 10.6459 32.8178 10.4223 32.6529 10.2575C32.4881 10.0926 32.2645 10 32.0314 10C31.7983 10 31.5747 10.0926 31.4099 10.2575C31.245 10.4223 31.1524 10.6459 31.1524 10.879V11.8162H27.637V10.879C27.637 10.6459 27.5444 10.4223 27.3795 10.2575C27.2147 10.0926 26.9911 10 26.758 10C26.5249 10 26.3013 10.0926 26.1365 10.2575C25.9716 10.4223 25.879 10.6459 25.879 10.879V11.8162H22.363V10.879C22.363 10.6459 22.2704 10.4223 22.1055 10.2575C21.9407 10.0926 21.7171 10 21.484 10C21.2509 10 21.0273 10.0926 20.8625 10.2575C20.6976 10.4223 20.605 10.6459 20.605 10.879V11.8162H17.0896V10.879C17.0896 10.6459 16.997 10.4223 16.8321 10.2575C16.6673 10.0926 16.4437 10 16.2106 10C15.9775 10 15.7539 10.0926 15.5891 10.2575C15.4242 10.4223 15.3316 10.6459 15.3316 10.879V11.8162H10.879C10.6459 11.8162 10.4223 11.9088 10.2575 12.0737C10.0926 12.2385 10 12.4621 10 12.6952V35.6056C10 35.8387 10.0926 36.0623 10.2575 36.2271C10.4223 36.392 10.6459 36.4846 10.879 36.4846H25.516C26.1087 37.3749 26.8759 38.1357 27.7711 38.721C28.6663 39.3063 29.6709 39.7038 30.7242 39.8897C31.7775 40.0755 32.8576 40.0457 33.899 39.8022C34.9405 39.5586 35.9217 39.1062 36.7833 38.4725C37.6449 37.8388 38.369 37.0369 38.9117 36.1153C39.4545 35.1937 39.8047 34.1715 39.941 33.1107C40.0774 32.0499 39.9971 30.9724 39.7051 29.9435C39.4131 28.9146 38.9153 27.955 38.242 27.124ZM15.3322 13.5742V14.4532C15.3322 14.6863 15.4248 14.9099 15.5897 15.0747C15.7545 15.2396 15.9781 15.3322 16.2112 15.3322C16.4443 15.3322 16.6679 15.2396 16.8327 15.0747C16.9976 14.9099 17.0902 14.6863 17.0902 14.4532V13.5742H20.6056V14.4532C20.6056 14.6863 20.6982 14.9099 20.8631 15.0747C21.0279 15.2396 21.2515 15.3322 21.4846 15.3322C21.7177 15.3322 21.9413 15.2396 22.1061 15.0747C22.271 14.9099 22.3636 14.6863 22.3636 14.4532V13.5742H25.879V14.4532C25.879 14.6863 25.9716 14.9099 26.1365 15.0747C26.3013 15.2396 26.5249 15.3322 26.758 15.3322C26.9911 15.3322 27.2147 15.2396 27.3795 15.0747C27.5444 14.9099 27.637 14.6863 27.637 14.4532V13.5742H31.1524V14.4532C31.1524 14.6863 31.245 14.9099 31.4099 15.0747C31.5747 15.2396 31.7983 15.3322 32.0314 15.3322C32.2645 15.3322 32.4881 15.2396 32.6529 15.0747C32.8178 14.9099 32.9104 14.6863 32.9104 14.4532V13.5742H36.4846V17.0896H11.758V13.5742H15.3322ZM11.758 34.7266V18.8476H36.4846V25.516C35.6137 24.9327 34.6353 24.5285 33.6066 24.327C32.5779 24.1255 31.5194 24.1307 30.4928 24.3424C29.4661 24.554 28.4918 24.9678 27.6267 25.5597C26.7615 26.1516 26.0228 26.9098 25.4536 27.79C25.3313 27.7278 25.196 27.6954 25.0588 27.6952H23.3008C23.0677 27.6952 22.8441 27.7878 22.6793 27.9527C22.5144 28.1175 22.4218 28.3411 22.4218 28.5742C22.4218 28.8073 22.5144 29.0309 22.6793 29.1957C22.8441 29.3606 23.0677 29.4532 23.3008 29.4532H24.6322C24.4307 30.0217 24.2954 30.6116 24.229 31.2112H23.3008C23.0677 31.2112 22.8441 31.3038 22.6793 31.4687C22.5144 31.6335 22.4218 31.8571 22.4218 32.0902C22.4218 32.3233 22.5144 32.5469 22.6793 32.7117C22.8441 32.8766 23.0677 32.9692 23.3008 32.9692H24.229C24.2953 33.5688 24.4306 34.1587 24.6322 34.7272L11.758 34.7266ZM32.0896 38.242C30.8728 38.242 29.6833 37.8812 28.6715 37.2051C27.6598 36.5291 26.8712 35.5682 26.4055 34.444C25.9399 33.3198 25.818 32.0828 26.0554 30.8893C26.2928 29.6959 26.8788 28.5996 27.7392 27.7392C28.5996 26.8788 29.6959 26.2928 30.8893 26.0554C32.0828 25.818 33.3198 25.9399 34.444 26.4055C35.5682 26.8712 36.5291 27.6598 37.2051 28.6715C37.8812 29.6833 38.242 30.8728 38.242 32.0896C38.2403 33.7208 37.5915 35.2847 36.4381 36.4381C35.2847 37.5915 33.7208 38.2403 32.0896 38.242Z" fill="#24292F"/>
<path d="M35.6056 31.2106H32.9692V28.5736C32.9692 28.3405 32.8766 28.1169 32.7118 27.952C32.5469 27.7872 32.3233 27.6946 32.0902 27.6946C31.8571 27.6946 31.6335 27.7872 31.4687 27.952C31.3038 28.1169 31.2112 28.3405 31.2112 28.5736V32.089C31.2112 32.3221 31.3038 32.5457 31.4687 32.7105C31.6335 32.8754 31.8571 32.968 32.0902 32.968H35.6056C35.8387 32.968 36.0623 32.8754 36.2272 32.7105C36.392 32.5457 36.4846 32.3221 36.4846 32.089C36.4846 31.8559 36.392 31.6323 36.2272 31.4674C36.0623 31.3026 35.8387 31.21 35.6056 31.21V31.2106Z" fill="#24292F"/>
<path d="M17.9692 20.6638H16.2112C15.9781 20.6638 15.7545 20.7564 15.5896 20.9213C15.4248 21.0861 15.3322 21.3097 15.3322 21.5428C15.3322 21.7759 15.4248 21.9995 15.5896 22.1644C15.7545 22.3292 15.9781 22.4218 16.2112 22.4218H17.9692C18.2023 22.4218 18.4259 22.3292 18.5907 22.1644C18.7556 21.9995 18.8482 21.7759 18.8482 21.5428C18.8482 21.3097 18.7556 21.0861 18.5907 20.9213C18.4259 20.7564 18.2023 20.6638 17.9692 20.6638Z" fill="#24292F"/>
<path d="M17.9692 24.1798H16.2112C15.9781 24.1798 15.7545 24.2724 15.5896 24.4373C15.4248 24.6021 15.3322 24.8257 15.3322 25.0588C15.3322 25.2919 15.4248 25.5155 15.5896 25.6804C15.7545 25.8452 15.9781 25.9378 16.2112 25.9378H17.9692C18.2023 25.9378 18.4259 25.8452 18.5907 25.6804C18.7556 25.5155 18.8482 25.2919 18.8482 25.0588C18.8482 24.8257 18.7556 24.6021 18.5907 24.4373C18.4259 24.2724 18.2023 24.1798 17.9692 24.1798Z" fill="#24292F"/>
<path d="M17.9692 27.6952H16.2112C15.9781 27.6952 15.7545 27.7878 15.5896 27.9526C15.4248 28.1175 15.3322 28.3411 15.3322 28.5742C15.3322 28.8073 15.4248 29.0309 15.5896 29.1957C15.7545 29.3606 15.9781 29.4532 16.2112 29.4532H17.9692C18.2023 29.4532 18.4259 29.3606 18.5907 29.1957C18.7556 29.0309 18.8482 28.8073 18.8482 28.5742C18.8482 28.3411 18.7556 28.1175 18.5907 27.9526C18.4259 27.7878 18.2023 27.6952 17.9692 27.6952Z" fill="#24292F"/>
<path d="M23.3008 22.4218H25.0588C25.2919 22.4218 25.5155 22.3292 25.6803 22.1644C25.8452 21.9995 25.9378 21.7759 25.9378 21.5428C25.9378 21.3097 25.8452 21.0861 25.6803 20.9213C25.5155 20.7564 25.2919 20.6638 25.0588 20.6638H23.3008C23.0677 20.6638 22.8441 20.7564 22.6793 20.9213C22.5144 21.0861 22.4218 21.3097 22.4218 21.5428C22.4218 21.7759 22.5144 21.9995 22.6793 22.1644C22.8441 22.3292 23.0677 22.4218 23.3008 22.4218Z" fill="#24292F"/>
<path d="M23.3008 25.9378H25.0588C25.2919 25.9378 25.5155 25.8452 25.6803 25.6804C25.8452 25.5155 25.9378 25.2919 25.9378 25.0588C25.9378 24.8257 25.8452 24.6021 25.6803 24.4373C25.5155 24.2724 25.2919 24.1798 25.0588 24.1798H23.3008C23.0677 24.1798 22.8441 24.2724 22.6793 24.4373C22.5144 24.6021 22.4218 24.8257 22.4218 25.0588C22.4218 25.2919 22.5144 25.5155 22.6793 25.6804C22.8441 25.8452 23.0677 25.9378 23.3008 25.9378Z" fill="#24292F"/>
<path d="M17.9692 31.2112H16.2112C15.9781 31.2112 15.7545 31.3038 15.5896 31.4686C15.4248 31.6335 15.3322 31.8571 15.3322 32.0902C15.3322 32.3233 15.4248 32.5469 15.5896 32.7117C15.7545 32.8766 15.9781 32.9692 16.2112 32.9692H17.9692C18.2023 32.9692 18.4259 32.8766 18.5907 32.7117C18.7556 32.5469 18.8482 32.3233 18.8482 32.0902C18.8482 31.8571 18.7556 31.6335 18.5907 31.4686C18.4259 31.3038 18.2023 31.2112 17.9692 31.2112Z" fill="#24292F"/>
<path d="M30.3322 22.4218H32.0902C32.3233 22.4218 32.5469 22.3292 32.7117 22.1644C32.8766 21.9995 32.9692 21.7759 32.9692 21.5428C32.9692 21.3097 32.8766 21.0861 32.7117 20.9213C32.5469 20.7564 32.3233 20.6638 32.0902 20.6638H30.3322C30.0991 20.6638 29.8755 20.7564 29.7106 20.9213C29.5458 21.0861 29.4532 21.3097 29.4532 21.5428C29.4532 21.7759 29.5458 21.9995 29.7106 22.1644C29.8755 22.3292 30.0991 22.4218 30.3322 22.4218Z" fill="#24292F"/>
</svg>
