<svg width="50" height="50" viewBox="0 0 50 50" fill="none" xmlns="http://www.w3.org/2000/svg">
<path d="M35.125 31.5364V28.5628C35.124 27.8172 34.8275 27.1025 34.3003 26.5753C33.7731 26.0481 33.0583 25.7515 32.3128 25.7506H25.9378V22.2808C27.076 22.0484 28.0875 21.4018 28.776 20.4661C29.4645 19.5304 29.7811 18.3724 29.6644 17.2165C29.5476 16.0607 29.0058 14.9894 28.1441 14.2103C27.2823 13.4312 26.162 12.9999 25.0003 12.9999C23.8386 12.9999 22.7182 13.4312 21.8565 14.2103C20.9948 14.9894 20.453 16.0607 20.3362 17.2165C20.2195 18.3724 20.5361 19.5304 21.2246 20.4661C21.9131 21.4018 22.9245 22.0484 24.0628 22.2808V25.75H17.6878C16.9421 25.7509 16.2273 26.0476 15.7001 26.5749C15.1729 27.1022 14.8764 27.8171 14.8756 28.5628V31.5364C14.25 31.7575 13.7227 32.1927 13.387 32.765C13.0512 33.3374 12.9286 34.01 13.0408 34.6639C13.153 35.3179 13.4928 35.9112 14.0001 36.3389C14.5074 36.7666 15.1496 37.0011 15.8131 37.0011C16.4766 37.0011 17.1188 36.7666 17.6261 36.3389C18.1334 35.9112 18.4732 35.3179 18.5854 34.6639C18.6976 34.01 18.575 33.3374 18.2392 32.765C17.9035 32.1927 17.3762 31.7575 16.7506 31.5364V28.5628C16.7509 28.3142 16.8498 28.0759 17.0257 27.9002C17.2015 27.7245 17.4398 27.6257 17.6884 27.6256H24.0628V31.537C23.4372 31.7581 22.9099 32.1933 22.5742 32.7656C22.2384 33.338 22.1158 34.0106 22.228 34.6645C22.3402 35.3185 22.68 35.9118 23.1873 36.3395C23.6946 36.7672 24.3368 37.0017 25.0003 37.0017C25.6638 37.0017 26.306 36.7672 26.8133 36.3395C27.3206 35.9118 27.6604 35.3185 27.7726 34.6645C27.8848 34.0106 27.7622 33.338 27.4264 32.7656C27.0907 32.1933 26.5634 31.7581 25.9378 31.537V27.625H32.3128C32.5615 27.6251 32.7999 27.724 32.9757 27.8998C33.1516 28.0757 33.2504 28.3141 33.2506 28.5628V31.5364C32.625 31.7575 32.0977 32.1927 31.762 32.765C31.4262 33.3374 31.3036 34.01 31.4158 34.6639C31.528 35.3179 31.8678 35.9112 32.3751 36.3389C32.8824 36.7666 33.5246 37.0011 34.1881 37.0011C34.8516 37.0011 35.4938 36.7666 36.0011 36.3389C36.5084 35.9112 36.8482 35.3179 36.9604 34.6639C37.0726 34.01 36.95 33.3374 36.6142 32.765C36.2785 32.1927 35.7506 31.7575 35.125 31.5364ZM15.8128 35.125C15.6273 35.1251 15.4459 35.0702 15.2916 34.9672C15.1372 34.8642 15.017 34.7177 14.9459 34.5463C14.8748 34.3749 14.8562 34.1863 14.8924 34.0044C14.9286 33.8224 15.0179 33.6552 15.1491 33.524C15.2803 33.3929 15.4474 33.3035 15.6294 33.2674C15.8114 33.2312 16 33.2498 16.1714 33.3209C16.3427 33.3919 16.4892 33.5122 16.5922 33.6665C16.6952 33.8208 16.7501 34.0022 16.75 34.1878C16.7497 34.4362 16.6508 34.6744 16.4751 34.8501C16.2995 35.0258 16.0613 35.1247 15.8128 35.125ZM25.0006 35.125C24.8151 35.125 24.6338 35.07 24.4795 34.9669C24.3253 34.8638 24.2051 34.7173 24.1341 34.5459C24.0632 34.3745 24.0446 34.1859 24.0809 34.004C24.1171 33.8221 24.2065 33.655 24.3377 33.5238C24.4689 33.3927 24.6361 33.3034 24.818 33.2673C25 33.2312 25.1885 33.2499 25.3599 33.3209C25.5312 33.392 25.6777 33.5123 25.7806 33.6666C25.8836 33.8209 25.9385 34.0023 25.9384 34.1878C25.9381 34.4364 25.8391 34.6748 25.6631 34.8505C25.4872 35.0263 25.2493 35.125 25.0006 35.125ZM25 20.5C24.4437 20.5 23.8998 20.335 23.4372 20.0259C22.9746 19.7168 22.6141 19.2775 22.4012 18.7635C22.1884 18.2494 22.1327 17.6839 22.2413 17.1382C22.3499 16.5926 22.6178 16.0914 23.0113 15.698C23.4047 15.3047 23.9059 15.0368 24.4516 14.9284C24.9973 14.8199 25.5629 14.8757 26.0768 15.0887C26.5908 15.3016 27.03 15.6623 27.339 16.1249C27.648 16.5875 27.8129 17.1314 27.8128 17.6878C27.8118 18.4334 27.5152 19.1483 26.9879 19.6755C26.4605 20.2027 25.7456 20.4992 25 20.5ZM34.1878 35.125C34.0023 35.125 33.8209 35.07 33.6667 34.9669C33.5125 34.8638 33.3923 34.7173 33.3213 34.5459C33.2504 34.3745 33.2318 34.1859 33.2681 34.004C33.3043 33.8221 33.3937 33.655 33.5249 33.5238C33.6561 33.3927 33.8232 33.3034 34.0052 33.2673C34.1872 33.2312 34.3757 33.2499 34.5471 33.3209C34.7184 33.392 34.8649 33.5123 34.9678 33.6666C35.0708 33.8209 35.1257 34.0023 35.1256 34.1878C35.1253 34.4363 35.0264 34.6746 34.8505 34.8503C34.6747 35.026 34.4364 35.1248 34.1878 35.125Z" fill="#24292F"/>
</svg>
