<svg width="50" height="50" viewBox="0 0 50 50" fill="none" xmlns="http://www.w3.org/2000/svg">
<path d="M37.4038 17.7616V15.6742C37.4142 14.9745 37.1468 14.2993 36.6601 13.7965C36.1734 13.2938 35.5072 13.0045 34.8076 12.9922H22.66L22.2064 12.2272C22.1312 12.0979 22.0236 11.9905 21.8941 11.9156C21.7647 11.8406 21.618 11.8008 21.4684 11.8H12.5962C11.8966 11.8123 11.2304 12.1015 10.7437 12.6043C10.257 13.1071 9.98957 13.7823 10 14.482V35.518C9.98957 36.2176 10.257 36.8929 10.7437 37.3957C11.2304 37.8984 11.8966 38.1877 12.5962 38.2H37.4038C38.1034 38.1877 38.7696 37.8984 39.2563 37.3957C39.743 36.8929 40.0104 36.2176 40 35.518V20.4436C40.0104 19.7439 39.743 19.0687 39.2563 18.5659C38.7696 18.0632 38.1034 17.7739 37.4038 17.7616ZM34.8076 14.7802C35.0407 14.7844 35.2627 14.8809 35.4249 15.0485C35.587 15.216 35.6762 15.441 35.6728 15.6742V17.7604H25.4842L23.7178 14.7802H34.8076ZM38.269 35.518C38.2725 35.7512 38.1834 35.9763 38.0212 36.1439C37.859 36.3115 37.637 36.4079 37.4038 36.412H12.5962C12.363 36.4079 12.141 36.3115 11.9788 36.1439C11.8166 35.9763 11.7275 35.7512 11.731 35.518V14.482C11.7275 14.2488 11.8166 14.0237 11.9788 13.8561C12.141 13.6885 12.363 13.5921 12.5962 13.588H20.98L21.4336 14.3524L24.2602 19.1206C24.3354 19.2499 24.443 19.3573 24.5725 19.4322C24.7019 19.5071 24.8486 19.547 24.9982 19.5478H37.402C37.6352 19.5519 37.8572 19.6483 38.0194 19.8159C38.1816 19.9835 38.2707 20.2086 38.2672 20.4418L38.269 35.518Z" fill="#24292F"/>
<path d="M23.7202 24.805L20.2714 22.5058C20.1298 22.4114 19.9634 22.361 19.7932 22.361C19.623 22.361 19.4566 22.4114 19.315 22.5058L15.8662 24.805C15.7477 24.8839 15.6506 24.991 15.5836 25.1166C15.5165 25.2423 15.4817 25.3826 15.4822 25.525V27.8242C15.4822 28.0529 15.573 28.2722 15.7347 28.4339C15.8964 28.5956 16.1157 28.6864 16.3444 28.6864H17.2066V32.998C17.2066 33.1112 17.2289 33.2233 17.2722 33.3279C17.3156 33.4325 17.3791 33.5276 17.4591 33.6077C17.5392 33.6877 17.6342 33.7512 17.7389 33.7945C17.8435 33.8379 17.9556 33.8602 18.0688 33.8602H21.5176C21.7463 33.8602 21.9656 33.7693 22.1273 33.6077C22.289 33.446 22.3798 33.2267 22.3798 32.998V28.6864H23.242C23.4707 28.6864 23.69 28.5956 23.8517 28.4339C24.0134 28.2722 24.1042 28.0529 24.1042 27.8242V25.525C24.1047 25.3826 24.0698 25.2423 24.0028 25.1166C23.9358 24.991 23.8387 24.8839 23.7202 24.805ZM22.3798 26.9596H21.5176C21.2889 26.9596 21.0696 27.0504 20.9079 27.2121C20.7462 27.3738 20.6554 27.5931 20.6554 27.8218V32.1328H18.931V27.8218C18.931 27.5931 18.8402 27.3738 18.6785 27.2121C18.5168 27.0504 18.2975 26.9596 18.0688 26.9596H17.2066V25.984L19.7932 24.259L22.3798 25.984V26.9596Z" fill="#24292F"/>
<path d="M26.2798 31.4134L29.7286 33.7126C29.8702 33.8069 30.0366 33.8573 30.2068 33.8573C30.377 33.8573 30.5433 33.8069 30.685 33.7126L34.1344 31.4134C34.2529 31.3344 34.35 31.2274 34.417 31.1017C34.484 30.9761 34.5188 30.8358 34.5184 30.6934V28.3942C34.5184 28.1655 34.4276 27.9462 34.2659 27.7845C34.1042 27.6229 33.8849 27.532 33.6562 27.532H32.794V23.2204C32.794 23.1072 32.7717 22.9951 32.7284 22.8905C32.685 22.7859 32.6215 22.6908 32.5415 22.6107C32.4614 22.5307 32.3664 22.4672 32.2618 22.4238C32.1571 22.3805 32.045 22.3582 31.9318 22.3582H28.483C28.3698 22.3582 28.2577 22.3805 28.1531 22.4238C28.0484 22.4672 27.9534 22.5307 27.8733 22.6107C27.7933 22.6908 27.7298 22.7859 27.6864 22.8905C27.6431 22.9951 27.6208 23.1072 27.6208 23.2204V27.532H26.7586C26.6453 27.5319 26.5332 27.5542 26.4286 27.5975C26.3239 27.6408 26.2288 27.7043 26.1488 27.7844C26.0687 27.8645 26.0052 27.9595 25.9619 28.0642C25.9186 28.1688 25.8963 28.281 25.8964 28.3942V30.6934C25.896 30.8358 25.9308 30.9761 25.9978 31.1017C26.0648 31.2274 26.1619 31.3344 26.2804 31.4134H26.2798ZM27.6202 29.2588H28.4824C28.7111 29.2588 28.9304 29.168 29.0921 29.0063C29.2538 28.8446 29.3446 28.6253 29.3446 28.3966V24.085H31.069V28.396C31.069 28.6247 31.1598 28.844 31.3215 29.0057C31.4832 29.1674 31.7025 29.2582 31.9312 29.2582H32.7934V30.2338L30.2068 31.9588L27.6202 30.2338V29.2588Z" fill="#24292F"/>
</svg>
