<svg width="50" height="50" viewBox="0 0 50 50" fill="none" xmlns="http://www.w3.org/2000/svg">
<path d="M36.4604 12.7C36.163 12.4002 35.809 12.1626 35.4189 12.0008C35.0288 11.8391 34.6105 11.7566 34.1882 11.758H32.7374V11.4646C32.7374 11.0768 32.5836 10.7048 32.3097 10.4302C32.0358 10.1557 31.6642 10.001 31.2764 10H20.753C20.3651 10.0008 19.9933 10.1555 19.7193 10.43C19.4453 10.7046 19.2914 11.0767 19.2914 11.4646V11.758H17.8358C16.9836 11.7607 16.1671 12.1009 15.5652 12.7042C14.9632 13.3075 14.6248 14.1248 14.624 14.977L14.6 36.7738C14.5988 37.1966 14.681 37.6155 14.8418 38.0065C15.0026 38.3975 15.2389 38.753 15.5372 39.0526C15.8355 39.3522 16.1899 39.5901 16.5802 39.7527C16.9705 39.9153 17.389 39.9993 17.8118 40H34.1636C35.0159 39.9975 35.8324 39.6573 36.4344 39.0539C37.0364 38.4506 37.3748 37.6333 37.3754 36.781L37.4 14.9842C37.4016 14.561 37.3194 14.1416 37.1582 13.7503C36.9969 13.3589 36.7598 13.0034 36.4604 12.7042V12.7ZM21.0452 11.758H30.9836V13.516H21.0452V11.758ZM35.6252 36.778C35.6249 37.1654 35.4711 37.5369 35.1975 37.8112C34.9239 38.0854 34.5528 38.2401 34.1654 38.2414H17.8118C17.6196 38.2411 17.4294 38.2029 17.252 38.129C17.0746 38.0551 16.9135 37.947 16.7779 37.8108C16.6424 37.6746 16.535 37.513 16.4619 37.3353C16.3888 37.1576 16.3515 36.9672 16.352 36.775L16.376 14.98C16.3763 14.5926 16.5301 14.2211 16.8037 13.9468C17.0773 13.6726 17.4484 13.5179 17.8358 13.5166H19.2914V13.8094C19.2914 14.1973 19.4453 14.5694 19.7193 14.844C19.9933 15.1185 20.3651 15.2732 20.753 15.274H31.2764C31.6643 15.2732 32.0361 15.1185 32.3101 14.844C32.5841 14.5694 32.738 14.1973 32.738 13.8094V13.5154H34.1882C34.3802 13.5157 34.5703 13.5538 34.7476 13.6276C34.9249 13.7014 35.0859 13.8094 35.2214 13.9454C35.357 14.0814 35.4644 14.2427 35.5376 14.4203C35.6108 14.5978 35.6483 14.788 35.648 14.98L35.6252 36.778Z" fill="#24292F"/>
<path d="M26.279 21.7204H32.5334C32.7669 21.7204 32.9907 21.6277 33.1558 21.4626C33.3209 21.2975 33.4136 21.0737 33.4136 20.8402C33.4136 20.6068 33.3209 20.3829 33.1558 20.2178C32.9907 20.0528 32.7669 19.96 32.5334 19.96H26.279C26.0456 19.96 25.8217 20.0528 25.6566 20.2178C25.4916 20.3829 25.3988 20.6068 25.3988 20.8402C25.3988 21.0737 25.4916 21.2975 25.6566 21.4626C25.8217 21.6277 26.0456 21.7204 26.279 21.7204Z" fill="#24292F"/>
<path d="M26.279 27.5794H32.5334C32.7669 27.5794 32.9907 27.4867 33.1558 27.3216C33.3209 27.1566 33.4136 26.9327 33.4136 26.6992C33.4136 26.4658 33.3209 26.2419 33.1558 26.0768C32.9907 25.9118 32.7669 25.819 32.5334 25.819H26.279C26.0456 25.819 25.8217 25.9118 25.6566 26.0768C25.4916 26.2419 25.3988 26.4658 25.3988 26.6992C25.3988 26.9327 25.4916 27.1566 25.6566 27.3216C25.8217 27.4867 26.0456 27.5794 26.279 27.5794Z" fill="#24292F"/>
<path d="M32.5586 31.6774H26.279C26.0456 31.6774 25.8217 31.7702 25.6566 31.9352C25.4916 32.1003 25.3988 32.3242 25.3988 32.5576C25.3988 32.7911 25.4916 33.015 25.6566 33.18C25.8217 33.3451 26.0456 33.4378 26.279 33.4378H32.5586C32.7921 33.4378 33.016 33.3451 33.181 33.18C33.3461 33.015 33.4388 32.7911 33.4388 32.5576C33.4388 32.3242 33.3461 32.1003 33.181 31.9352C33.016 31.7702 32.7921 31.6774 32.5586 31.6774Z" fill="#24292F"/>
<path d="M22.5758 18.4444L20.546 20.4742L20.066 19.9942C19.9009 19.8291 19.677 19.7364 19.4435 19.7364C19.21 19.7364 18.9861 19.8291 18.821 19.9942C18.6559 20.1593 18.5632 20.3832 18.5632 20.6167C18.5632 20.8502 18.6559 21.0741 18.821 21.2392L19.922 22.3402C20.0037 22.422 20.1008 22.4868 20.2076 22.5311C20.3144 22.5753 20.4289 22.5981 20.5445 22.5981C20.6601 22.5981 20.7746 22.5753 20.8814 22.5311C20.9882 22.4868 21.0853 22.422 21.167 22.3402L23.8196 19.6876C23.9847 19.5225 24.0775 19.2986 24.0775 19.0651C24.0775 18.8316 23.9847 18.6077 23.8196 18.4426C23.6545 18.2775 23.4306 18.1848 23.1971 18.1848C22.9636 18.1848 22.7397 18.2775 22.5746 18.4426L22.5758 18.4444Z" fill="#24292F"/>
<path d="M22.5758 24.7498L20.546 26.7796L20.066 26.2996C19.9009 26.1345 19.677 26.0418 19.4435 26.0418C19.21 26.0418 18.9861 26.1345 18.821 26.2996C18.6559 26.4647 18.5632 26.6886 18.5632 26.9221C18.5632 27.1556 18.6559 27.3795 18.821 27.5446L19.922 28.6456C20.0037 28.7274 20.1008 28.7922 20.2076 28.8365C20.3144 28.8808 20.4289 28.9035 20.5445 28.9035C20.6601 28.9035 20.7746 28.8808 20.8814 28.8365C20.9882 28.7922 21.0853 28.7274 21.167 28.6456L23.8196 25.993C23.9847 25.8279 24.0775 25.604 24.0775 25.3705C24.0775 25.137 23.9847 24.9131 23.8196 24.748C23.6545 24.5829 23.4306 24.4902 23.1971 24.4902C22.9636 24.4902 22.7397 24.5829 22.5746 24.748L22.5758 24.7498Z" fill="#24292F"/>
<path d="M22.5758 30.6076L20.546 32.6374L20.066 32.1574C19.9009 31.9923 19.677 31.8996 19.4435 31.8996C19.21 31.8996 18.9861 31.9923 18.821 32.1574C18.6559 32.3225 18.5632 32.5464 18.5632 32.7799C18.5632 33.0134 18.6559 33.2373 18.821 33.4024L19.922 34.5034C20.0037 34.5852 20.1008 34.65 20.2076 34.6943C20.3144 34.7385 20.4289 34.7613 20.5445 34.7613C20.6601 34.7613 20.7746 34.7385 20.8814 34.6943C20.9882 34.65 21.0853 34.5852 21.167 34.5034L23.8196 31.8508C23.9847 31.6857 24.0775 31.4618 24.0775 31.2283C24.0775 30.9948 23.9847 30.7709 23.8196 30.6058C23.6545 30.4407 23.4306 30.348 23.1971 30.348C22.9636 30.348 22.7397 30.4407 22.5746 30.6058L22.5758 30.6076Z" fill="#24292F"/>
</svg>
