<svg width="50" height="50" viewBox="0 0 50 50" fill="none" xmlns="http://www.w3.org/2000/svg">
<path d="M35.165 31.1816C35.8854 31.1816 36.4694 30.5976 36.4694 29.8772C36.4694 29.1568 35.8854 28.5728 35.165 28.5728C34.4446 28.5728 33.8606 29.1568 33.8606 29.8772C33.8606 30.5976 34.4446 31.1816 35.165 31.1816Z" fill="#24292F"/>
<path d="M32.1932 33.677C32.9136 33.677 33.4976 33.093 33.4976 32.3726C33.4976 31.6522 32.9136 31.0682 32.1932 31.0682C31.4728 31.0682 30.8888 31.6522 30.8888 32.3726C30.8888 33.093 31.4728 33.677 32.1932 33.677Z" fill="#24292F"/>
<path d="M36.5372 27.6734C37.3448 27.6734 37.9994 27.0188 37.9994 26.2112C37.9994 25.4037 37.3448 24.749 36.5372 24.749C35.7297 24.749 35.075 25.4037 35.075 26.2112C35.075 27.0188 35.7297 27.6734 36.5372 27.6734Z" fill="#24292F"/>
<path d="M29.789 36.4172C30.5094 36.4172 31.0934 35.8332 31.0934 35.1128C31.0934 34.3924 30.5094 33.8084 29.789 33.8084C29.0686 33.8084 28.4846 34.3924 28.4846 35.1128C28.4846 35.8332 29.0686 36.4172 29.789 36.4172Z" fill="#24292F"/>
<path d="M25.466 35.327C23.4631 35.3414 21.5089 34.7101 19.893 33.5267C18.2771 32.3434 17.0854 30.6709 16.4945 28.7571C15.9037 26.8433 15.9452 24.7901 16.6128 22.9018C17.2804 21.0134 18.5386 19.3904 20.201 18.2732C21.8672 17.1539 23.8474 16.5962 25.8528 16.6812C27.8583 16.7663 29.7841 17.4897 31.3496 18.746H29.6348C29.3599 18.746 29.0963 18.8552 28.9019 19.0496C28.7075 19.244 28.5983 19.5076 28.5983 19.7825C28.5983 20.0574 28.7075 20.321 28.9019 20.5154C29.0963 20.7098 29.3599 20.819 29.6348 20.819H33.8012C33.9379 20.8196 34.0734 20.7933 34.1999 20.7414C34.3265 20.6896 34.4415 20.6133 34.5385 20.517C34.6355 20.4206 34.7125 20.306 34.7651 20.1798C34.8177 20.0536 34.845 19.9183 34.8452 19.7816V15.6362C34.8452 15.3598 34.7354 15.0947 34.5399 14.8992C34.3445 14.7038 34.0794 14.594 33.803 14.594C33.5266 14.594 33.2615 14.7038 33.066 14.8992C32.8706 15.0947 32.7608 15.3598 32.7608 15.6362V17.2232C30.8601 15.6632 28.5097 14.7529 26.0541 14.6258C23.5985 14.4986 21.1667 15.1611 19.115 16.5164C17.0676 17.8692 15.5121 19.8472 14.6803 22.1558C13.8484 24.4644 13.7847 26.98 14.4987 29.3278C15.2127 31.6755 16.6661 33.7298 18.6424 35.1844C20.6187 36.639 23.0121 37.4161 25.466 37.4C25.6021 37.4 25.7369 37.3732 25.8626 37.3211C25.9884 37.269 26.1027 37.1927 26.1989 37.0964C26.2952 37.0002 26.3715 36.8859 26.4236 36.7601C26.4757 36.6344 26.5025 36.4996 26.5025 36.3635C26.5025 36.2274 26.4757 36.0926 26.4236 35.9668C26.3715 35.8411 26.2952 35.7268 26.1989 35.6306C26.1027 35.5343 25.9884 35.458 25.8626 35.4059C25.7369 35.3538 25.6021 35.327 25.466 35.327Z" fill="#24292F"/>
<path d="M30.1754 31.859C30.2966 31.7378 30.3927 31.594 30.4583 31.4357C30.5239 31.2775 30.5576 31.1078 30.5576 30.9365C30.5576 30.7651 30.5239 30.5955 30.4583 30.4372C30.3927 30.2789 30.2966 30.1351 30.1754 30.014L26.6438 26.4824V19.1948C26.6438 18.8487 26.5063 18.5169 26.2617 18.2722C26.017 18.0275 25.6851 17.8901 25.3391 17.8901C24.9931 17.8901 24.6612 18.0275 24.4165 18.2722C24.1719 18.5169 24.0344 18.8487 24.0344 19.1948V27.023C24.0345 27.3689 24.172 27.7006 24.4166 27.9452L28.3304 31.859C28.4515 31.9801 28.5954 32.0763 28.7536 32.1418C28.9119 32.2074 29.0816 32.2412 29.2529 32.2412C29.4242 32.2412 29.5939 32.2074 29.7522 32.1418C29.9105 32.0763 30.0543 31.9801 30.1754 31.859Z" fill="#24292F"/>
</svg>
