<svg width="25" height="25" viewBox="0 0 25 25" fill="none" xmlns="http://www.w3.org/2000/svg">
<g id="more-horizontal">
<g id="Vector">
<path d="M12.125 13.5C12.6773 13.5 13.125 13.0523 13.125 12.5C13.125 11.9477 12.6773 11.5 12.125 11.5C11.5727 11.5 11.125 11.9477 11.125 12.5C11.125 13.0523 11.5727 13.5 12.125 13.5Z" stroke="#8C959F" stroke-width="2" stroke-linecap="round" stroke-linejoin="round"/>
<path d="M19.125 13.5C19.6773 13.5 20.125 13.0523 20.125 12.5C20.125 11.9477 19.6773 11.5 19.125 11.5C18.5727 11.5 18.125 11.9477 18.125 12.5C18.125 13.0523 18.5727 13.5 19.125 13.5Z" stroke="#8C959F" stroke-width="2" stroke-linecap="round" stroke-linejoin="round"/>
<path d="M5.125 13.5C5.67728 13.5 6.125 13.0523 6.125 12.5C6.125 11.9477 5.67728 11.5 5.125 11.5C4.57272 11.5 4.125 11.9477 4.125 12.5C4.125 13.0523 4.57272 13.5 5.125 13.5Z" stroke="#8C959F" stroke-width="2" stroke-linecap="round" stroke-linejoin="round"/>
</g>
</g>
</svg>
