<svg width="23" height="23" viewBox="0 0 23 23" fill="none" xmlns="http://www.w3.org/2000/svg">
<g id="Group 48096455">
<path id="Rectangle 39590566" d="M5.625 3.5C5.625 2.39543 6.52043 1.5 7.625 1.5H15.625C16.7296 1.5 17.625 2.39543 17.625 3.5V21.5H5.625V3.5Z" stroke="#8C959F" stroke-width="2"/>
<path id="Rectangle 39590567" d="M1.625 13.5C1.625 12.3954 2.52043 11.5 3.625 11.5H5.625V21.5H3.625C2.52043 21.5 1.625 20.6046 1.625 19.5V13.5Z" stroke="#8C959F" stroke-width="2"/>
<path id="Rectangle 39590568" d="M17.625 7.5H19.625C20.7296 7.5 21.625 8.39543 21.625 9.5V19.5C21.625 20.6046 20.7296 21.5 19.625 21.5H17.625V7.5Z" stroke="#8C959F" stroke-width="2"/>
<path id="Vector (Stroke)" fill-rule="evenodd" clip-rule="evenodd" d="M8.625 6C8.625 5.44772 9.07272 5 9.625 5H13.625C14.1773 5 14.625 5.44772 14.625 6C14.625 6.55228 14.1773 7 13.625 7H9.625C9.07272 7 8.625 6.55228 8.625 6ZM8.625 10C8.625 9.44772 9.07272 9 9.625 9H13.625C14.1773 9 14.625 9.44772 14.625 10C14.625 10.5523 14.1773 11 13.625 11H9.625C9.07272 11 8.625 10.5523 8.625 10ZM8.625 14C8.625 13.4477 9.07272 13 9.625 13H13.625C14.1773 13 14.625 13.4477 14.625 14C14.625 14.5523 14.1773 15 13.625 15H9.625C9.07272 15 8.625 14.5523 8.625 14ZM8.625 18C8.625 17.4477 9.07272 17 9.625 17H13.625C14.1773 17 14.625 17.4477 14.625 18C14.625 18.5523 14.1773 19 13.625 19H9.625C9.07272 19 8.625 18.5523 8.625 18Z" fill="#8C959F"/>
</g>
</svg>
