<svg width="50" height="50" viewBox="0 0 50 50" fill="none" xmlns="http://www.w3.org/2000/svg">
<path d="M21.3542 15.7792H16.1024C15.9849 15.7762 15.868 15.7967 15.7586 15.8395C15.6491 15.8823 15.5494 15.9467 15.4652 16.0287C15.381 16.1107 15.3141 16.2087 15.2684 16.317C15.2228 16.4253 15.1992 16.5416 15.1992 16.6591C15.1992 16.7767 15.2228 16.893 15.2684 17.0013C15.3141 17.1095 15.381 17.2076 15.4652 17.2896C15.5494 17.3716 15.6491 17.4359 15.7586 17.4788C15.868 17.5216 15.9849 17.5421 16.1024 17.539H21.3536C21.583 17.533 21.801 17.4377 21.9611 17.2733C22.1212 17.109 22.2108 16.8886 22.2108 16.6591C22.2108 16.4297 22.1212 16.2093 21.9611 16.0449C21.801 15.8806 21.5836 15.7852 21.3542 15.7792Z" fill="#24292F"/>
<path d="M21.3542 19.2952H16.1024C15.9849 19.2922 15.868 19.3126 15.7586 19.3555C15.6491 19.3983 15.5494 19.4626 15.4652 19.5446C15.381 19.6267 15.3141 19.7247 15.2684 19.833C15.2228 19.9413 15.1992 20.0576 15.1992 20.1751C15.1992 20.2926 15.2228 20.409 15.2684 20.5173C15.3141 20.6255 15.381 20.7236 15.4652 20.8056C15.5494 20.8876 15.6491 20.9519 15.7586 20.9948C15.868 21.0376 15.9849 21.0581 16.1024 21.055H21.3536C21.583 21.049 21.801 20.9537 21.9611 20.7893C22.1212 20.625 22.2108 20.4046 22.2108 20.1751C22.2108 19.9457 22.1212 19.7253 21.9611 19.5609C21.801 19.3965 21.5836 19.3012 21.3542 19.2952Z" fill="#24292F"/>
<path d="M21.3542 22.8106H16.1024C15.9849 22.8075 15.868 22.828 15.7586 22.8709C15.6491 22.9137 15.5494 22.978 15.4652 23.06C15.381 23.142 15.3141 23.2401 15.2684 23.3484C15.2228 23.4566 15.1992 23.573 15.1992 23.6905C15.1992 23.808 15.2228 23.9244 15.2684 24.0326C15.3141 24.1409 15.381 24.239 15.4652 24.321C15.5494 24.403 15.6491 24.4673 15.7586 24.5101C15.868 24.553 15.9849 24.5735 16.1024 24.5704H21.3536C21.583 24.5644 21.801 24.4691 21.9611 24.3047C22.1212 24.1404 22.2108 23.92 22.2108 23.6905C22.2108 23.461 22.1212 23.2406 21.9611 23.0763C21.801 22.9119 21.5836 22.8166 21.3542 22.8106Z" fill="#24292F"/>
<path d="M21.3542 26.3254H16.1024C15.9849 26.3224 15.868 26.3429 15.7586 26.3857C15.6491 26.4285 15.5494 26.4929 15.4652 26.5749C15.381 26.6569 15.3141 26.7549 15.2684 26.8632C15.2228 26.9715 15.1992 27.0878 15.1992 27.2053C15.1992 27.3229 15.2228 27.4392 15.2684 27.5475C15.3141 27.6557 15.381 27.7538 15.4652 27.8358C15.5494 27.9178 15.6491 27.9821 15.7586 28.025C15.868 28.0678 15.9849 28.0883 16.1024 28.0852H21.3536C21.583 28.0792 21.801 27.9839 21.9611 27.8195C22.1212 27.6552 22.2108 27.4348 22.2108 27.2053C22.2108 26.9759 22.1212 26.7555 21.9611 26.5911C21.801 26.4267 21.5836 26.3314 21.3542 26.3254Z" fill="#24292F"/>
<path d="M21.3542 29.9002H16.1024C15.9849 29.8971 15.868 29.9176 15.7586 29.9605C15.6491 30.0033 15.5494 30.0676 15.4652 30.1496C15.381 30.2316 15.3141 30.3297 15.2684 30.438C15.2228 30.5462 15.1992 30.6626 15.1992 30.7801C15.1992 30.8976 15.2228 31.0139 15.2684 31.1222C15.3141 31.2305 15.381 31.3286 15.4652 31.4106C15.5494 31.4926 15.6491 31.5569 15.7586 31.5997C15.868 31.6426 15.9849 31.6631 16.1024 31.66H21.3536C21.583 31.654 21.801 31.5587 21.9611 31.3943C22.1212 31.23 22.2108 31.0096 22.2108 30.7801C22.2108 30.5506 22.1212 30.3302 21.9611 30.1659C21.801 30.0015 21.5836 29.9062 21.3542 29.9002Z" fill="#24292F"/>
<path d="M24.323 17.539H29.5742C29.8036 17.533 30.0216 17.4377 30.1817 17.2733C30.3418 17.1089 30.4314 16.8885 30.4314 16.6591C30.4314 16.4296 30.3418 16.2092 30.1817 16.0449C30.0216 15.8805 29.8036 15.7852 29.5742 15.7792H24.323C24.0936 15.7852 23.8756 15.8805 23.7155 16.0449C23.5554 16.2092 23.4658 16.4296 23.4658 16.6591C23.4658 16.8885 23.5554 17.1089 23.7155 17.2733C23.8756 17.4377 24.0936 17.533 24.323 17.539Z" fill="#24292F"/>
<path d="M24.323 21.055H29.5742C29.8036 21.049 30.0216 20.9537 30.1817 20.7893C30.3418 20.625 30.4314 20.4046 30.4314 20.1751C30.4314 19.9457 30.3418 19.7253 30.1817 19.5609C30.0216 19.3965 29.8036 19.3012 29.5742 19.2952H24.323C24.0936 19.3012 23.8756 19.3965 23.7155 19.5609C23.5554 19.7253 23.4658 19.9457 23.4658 20.1751C23.4658 20.4046 23.5554 20.625 23.7155 20.7893C23.8756 20.9537 24.0936 21.049 24.323 21.055Z" fill="#24292F"/>
<path d="M27.7274 23.6902C27.7275 23.5746 27.7048 23.4601 27.6606 23.3533C27.6164 23.2464 27.5515 23.1494 27.4698 23.0676C27.388 22.9859 27.291 22.921 27.1841 22.8768C27.0773 22.8326 26.9628 22.8099 26.8472 22.81H24.3182C24.0888 22.816 23.8708 22.9113 23.7107 23.0757C23.5506 23.24 23.461 23.4604 23.461 23.6899C23.461 23.9194 23.5506 24.1398 23.7107 24.3041C23.8708 24.4685 24.0888 24.5638 24.3182 24.5698H26.8472C26.9628 24.5699 27.0772 24.5472 27.184 24.503C27.2908 24.4588 27.3878 24.3941 27.4696 24.3124C27.5513 24.2307 27.6161 24.1337 27.6604 24.0269C27.7046 23.9202 27.7274 23.8058 27.7274 23.6902Z" fill="#24292F"/>
<path d="M36.0788 30.2686C35.8968 30.1227 35.6643 30.0551 35.4324 30.0805C35.2006 30.1059 34.9883 30.2223 34.8422 30.4042L32.576 33.2296L31.1732 32.2132C31.0796 32.1454 30.9736 32.0967 30.8612 32.0698C30.7488 32.043 30.6323 32.0386 30.5182 32.0568C30.4041 32.075 30.2947 32.1155 30.1962 32.176C30.0978 32.2365 30.0122 32.3158 29.9444 32.4094C29.8766 32.503 29.8279 32.609 29.8011 32.7213C29.7742 32.8337 29.7698 32.9503 29.788 33.0644C29.8062 33.1785 29.8467 33.2879 29.9072 33.3864C29.9677 33.4848 30.047 33.5704 30.1406 33.6382L32.222 35.146C32.4047 35.2778 32.631 35.3345 32.8543 35.3043C33.0776 35.2742 33.2808 35.1595 33.422 34.984L36.2126 31.504C36.3584 31.3223 36.4263 31.0902 36.4012 30.8586C36.3761 30.627 36.2602 30.4148 36.0788 30.2686Z" fill="#24292F"/>
<path d="M38.3 27.5746C37.1685 26.4199 35.6842 25.6754 34.082 25.459V13.54C34.0801 12.6007 33.7057 11.7005 33.0409 11.0368C32.3762 10.3732 31.4753 10.0003 30.536 10H15.1472C14.2077 10 13.3065 10.3727 12.6415 11.0364C11.9765 11.7001 11.6019 12.6005 11.6 13.54V33.8992C11.6019 34.8386 11.9764 35.7389 12.6413 36.4026C13.3062 37.0662 14.2072 37.439 15.1466 37.4392H27.524C28.1601 38.1886 28.9408 38.8021 29.8195 39.2428C30.6981 39.6836 31.6567 39.9426 32.6377 40.0043C33.6188 40.0661 34.6022 39.9293 35.5292 39.6023C36.4562 39.2752 37.3077 38.7645 38.0328 38.1008C38.7578 37.437 39.3416 36.6338 39.7491 35.7393C40.1566 34.8447 40.3795 33.8772 40.4044 32.8945C40.4294 31.9118 40.2559 30.9342 39.8943 30.0201C39.5327 29.106 38.9905 28.2743 38.3 27.5746ZM13.3616 33.8992V13.54C13.3627 13.0671 13.5513 12.6139 13.886 12.2799C14.2208 11.9458 14.6743 11.7582 15.1472 11.758H30.536C31.009 11.758 31.4626 11.9456 31.7973 12.2797C32.1321 12.6138 32.3207 13.0671 32.3216 13.54V25.4314C31.1733 25.551 30.0697 25.941 29.1013 26.5695C28.1329 27.198 27.3272 28.047 26.7503 29.047C26.1734 30.0471 25.8417 31.1696 25.7824 32.3225C25.7231 33.4755 25.9379 34.6261 26.4092 35.68H15.1472C14.6745 35.68 14.221 35.4925 13.8863 35.1587C13.5516 34.8249 13.3629 34.3719 13.3616 33.8992ZM33.086 38.242C32.3576 38.242 31.6364 38.0985 30.9635 37.8198C30.2906 37.5411 29.6791 37.1325 29.1641 36.6175C28.6491 36.1025 28.2405 35.491 27.9618 34.8181C27.6831 34.1452 27.5396 33.424 27.5396 32.6956C27.5396 31.9672 27.6831 31.246 27.9618 30.5731C28.2405 29.9002 28.6491 29.2887 29.1641 28.7737C29.6791 28.2587 30.2906 27.8501 30.9635 27.5714C31.6364 27.2927 32.3576 27.1492 33.086 27.1492H33.173H33.1868C34.6578 27.1626 36.0632 27.7597 37.0939 28.8093C38.1246 29.8589 38.6962 31.275 38.6828 32.746C38.6694 34.217 38.0723 35.6224 37.0227 36.6531C35.9731 37.6838 34.557 38.2554 33.086 38.242Z" fill="#24292F"/>
</svg>
