<svg width="50" height="50" viewBox="0 0 50 50" fill="none" xmlns="http://www.w3.org/2000/svg">
<path d="M35.5822 33.9922H29.692C29.4617 33.9982 29.2428 34.0939 29.082 34.2589C28.9212 34.424 28.8312 34.6453 28.8312 34.8757C28.8312 35.1061 28.9212 35.3274 29.082 35.4924C29.2428 35.6575 29.4617 35.7532 29.692 35.7592H35.5822C35.7002 35.7623 35.8175 35.7417 35.9274 35.6987C36.0373 35.6556 36.1374 35.5911 36.222 35.5087C36.3065 35.4264 36.3736 35.3279 36.4195 35.2192C36.4654 35.1105 36.489 34.9937 36.489 34.8757C36.489 34.7577 36.4654 34.6409 36.4195 34.5322C36.3736 34.4234 36.3065 34.325 36.222 34.2427C36.1374 34.1603 36.0373 34.0957 35.9274 34.0527C35.8175 34.0097 35.7002 33.9891 35.5822 33.9922Z" fill="#24292F"/>
<path d="M35.5822 30.5008H29.692C29.4617 30.5068 29.2428 30.6025 29.082 30.7675C28.9212 30.9326 28.8312 31.1539 28.8312 31.3843C28.8312 31.6147 28.9212 31.836 29.082 32.001C29.2428 32.1661 29.4617 32.2618 29.692 32.2678H35.5822C35.7002 32.2709 35.8175 32.2503 35.9274 32.2073C36.0373 32.1642 36.1374 32.0997 36.222 32.0173C36.3065 31.935 36.3736 31.8365 36.4195 31.7278C36.4654 31.6191 36.489 31.5023 36.489 31.3843C36.489 31.2663 36.4654 31.1495 36.4195 31.0408C36.3736 30.932 36.3065 30.8336 36.222 30.7513C36.1374 30.6689 36.0373 30.6043 35.9274 30.5613C35.8175 30.5183 35.7002 30.4977 35.5822 30.5008Z" fill="#24292F"/>
<path d="M35.5822 26.9866H23.8024C23.5721 26.9926 23.3532 27.0883 23.1924 27.2534C23.0316 27.4184 22.9416 27.6397 22.9416 27.8701C22.9416 28.1005 23.0316 28.3218 23.1924 28.4869C23.3532 28.6519 23.5721 28.7476 23.8024 28.7536H35.5828C35.7008 28.7567 35.8182 28.7361 35.928 28.6931C36.0379 28.6501 36.1381 28.5855 36.2226 28.5032C36.3071 28.4208 36.3743 28.3224 36.4201 28.2137C36.466 28.1049 36.4896 27.9881 36.4896 27.8701C36.4896 27.7521 36.466 27.6353 36.4201 27.5266C36.3743 27.4179 36.3071 27.3194 36.2226 27.2371C36.1381 27.1548 36.0379 27.0902 35.928 27.0471C35.8182 27.0041 35.7002 26.9836 35.5822 26.9866Z" fill="#24292F"/>
<path d="M35.5822 23.4724H23.8024C23.5721 23.4784 23.3532 23.5741 23.1924 23.7392C23.0316 23.9042 22.9416 24.1255 22.9416 24.3559C22.9416 24.5863 23.0316 24.8076 23.1924 24.9727C23.3532 25.1377 23.5721 25.2334 23.8024 25.2394H35.5828C35.7008 25.2425 35.8182 25.2219 35.928 25.1789C36.0379 25.1359 36.1381 25.0713 36.2226 24.9889C36.3071 24.9066 36.3743 24.8082 36.4201 24.6994C36.466 24.5907 36.4896 24.4739 36.4896 24.3559C36.4896 24.2379 36.466 24.1211 36.4201 24.0124C36.3743 23.9037 36.3071 23.8052 36.2226 23.7229C36.1381 23.6405 36.0379 23.576 35.928 23.5329C35.8182 23.4899 35.7002 23.4693 35.5822 23.4724Z" fill="#24292F"/>
<path d="M35.5822 19.9576H30.8698C30.6395 19.9636 30.4206 20.0593 30.2598 20.2243C30.099 20.3894 30.009 20.6107 30.009 20.8411C30.009 21.0715 30.099 21.2928 30.2598 21.4578C30.4206 21.6229 30.6395 21.7186 30.8698 21.7246H35.5822C35.7002 21.7277 35.8175 21.7071 35.9274 21.6641C36.0373 21.621 36.1374 21.5564 36.222 21.4741C36.3065 21.3918 36.3737 21.2933 36.4195 21.1846C36.4654 21.0759 36.489 20.9591 36.489 20.8411C36.489 20.7231 36.4654 20.6063 36.4195 20.4975C36.3737 20.3888 36.3065 20.2904 36.222 20.208C36.1374 20.1257 36.0373 20.0611 35.9274 20.0181C35.8175 19.9751 35.7002 19.9545 35.5822 19.9576Z" fill="#24292F"/>
<path d="M39.7426 16.117L33.883 10.2574C33.7183 10.0927 33.4949 10.0001 33.262 10H19.1992C18.9661 10 18.7425 10.0926 18.5777 10.2575C18.4128 10.4223 18.3202 10.6459 18.3202 10.879V20.8C17.7555 20.6466 17.163 20.6255 16.5888 20.7383C16.0146 20.851 15.4741 21.0947 15.0093 21.4502C14.5445 21.8058 14.168 22.2637 13.9089 22.7884C13.6498 23.3131 13.5151 23.8904 13.5154 24.4756C13.5158 24.9126 13.5522 25.3489 13.624 25.78L14.5288 31.21H13.2226C12.368 31.211 11.5487 31.5509 10.9445 32.1554C10.3403 32.7598 10.0006 33.5792 10 34.4338V35.6056C10 35.8387 10.0926 36.0623 10.2575 36.2271C10.4223 36.392 10.6459 36.4846 10.879 36.4846H11.1718V39.1216C11.172 39.3546 11.2646 39.578 11.4295 39.7428C11.5943 39.9075 11.8178 40 12.0508 40H39.121C39.2364 40 39.3507 39.9773 39.4574 39.9331C39.564 39.8889 39.6609 39.8242 39.7425 39.7425C39.8242 39.6609 39.8889 39.564 39.9331 39.4574C39.9773 39.3507 40 39.2364 40 39.121V16.738C39.9999 16.5051 39.9073 16.2817 39.7426 16.117ZM34.1404 13L37 15.8596H34.1404V13ZM15.358 25.492C15.3018 25.1549 15.2735 24.8137 15.2734 24.472C15.2734 24.2027 15.3264 23.936 15.4295 23.6872C15.5326 23.4384 15.6836 23.2123 15.8741 23.0219C16.0645 22.8314 16.2906 22.6804 16.5394 22.5773C16.7882 22.4742 17.0549 22.4212 17.3242 22.4212C17.5935 22.4212 17.8602 22.4742 18.109 22.5773C18.3578 22.6804 18.5839 22.8314 18.7743 23.0219C18.9648 23.2123 19.1158 23.4384 19.2189 23.6872C19.322 23.936 19.375 24.2027 19.375 24.472C19.3749 24.8137 19.3466 25.1549 19.2904 25.492L18.34 31.2112H16.3108L15.358 25.492ZM11.758 34.432C11.7585 34.0437 11.9129 33.6715 12.1875 33.3969C12.4621 33.1223 12.8343 32.9679 13.2226 32.9674H21.4258C21.8141 32.9679 22.1863 33.1223 22.4609 33.3969C22.7355 33.6715 22.8899 34.0437 22.8904 34.432V34.7248H11.758V34.432ZM12.9298 38.242V36.484H21.7186V38.242H12.9298ZM23.4766 38.242V36.484H23.7694C24.0025 36.484 24.2261 36.3914 24.3909 36.2265C24.5558 36.0617 24.6484 35.8381 24.6484 35.605V34.4338C24.6474 33.5794 24.3076 32.7603 23.7035 32.1561C23.0993 31.552 22.2802 31.2122 21.4258 31.2112H20.1196L21.0244 25.7812C21.0963 25.3487 21.1324 24.911 21.1324 24.4726C21.1334 23.4941 20.7564 22.5529 20.08 21.8458V11.758H32.38V16.738C32.3796 16.8539 32.4021 16.9688 32.4463 17.076C32.4905 17.1832 32.5555 17.2806 32.6374 17.3626C32.7194 17.4445 32.8168 17.5095 32.924 17.5537C33.0312 17.5979 33.1461 17.6204 33.262 17.62H38.242V38.242H23.4766Z" fill="#24292F"/>
<path d="M28.885 17.068C28.885 16.369 28.6777 15.6858 28.2894 15.1046C27.9011 14.5234 27.3492 14.0705 26.7034 13.803C26.0577 13.5355 25.3471 13.4655 24.6616 13.6019C23.976 13.7383 23.3463 14.0748 22.8521 14.5691C22.3579 15.0633 22.0213 15.693 21.8849 16.3786C21.7485 17.0641 21.8185 17.7746 22.086 18.4204C22.3535 19.0662 22.8065 19.6181 23.3876 20.0064C23.9688 20.3947 24.652 20.602 25.351 20.602C26.2878 20.6004 27.1858 20.2276 27.8482 19.5652C28.5106 18.9028 28.8834 18.0048 28.885 17.068ZM23.584 17.068C23.584 16.7185 23.6876 16.3769 23.8818 16.0863C24.076 15.7957 24.3519 15.5692 24.6748 15.4355C24.9977 15.3018 25.353 15.2668 25.6957 15.335C26.0385 15.4031 26.3533 15.5714 26.6005 15.8185C26.8476 16.0657 27.0159 16.3805 27.084 16.7233C27.1522 17.066 27.1172 17.4213 26.9835 17.7442C26.8498 18.0671 26.6233 18.343 26.3327 18.5372C26.0421 18.7314 25.7005 18.835 25.351 18.835C24.8825 18.8345 24.4333 18.6482 24.1021 18.3169C23.7708 17.9857 23.5845 17.5365 23.584 17.068Z" fill="#24292F"/>
</svg>
