<svg width="50" height="50" viewBox="0 0 50 50" fill="none" xmlns="http://www.w3.org/2000/svg">
<path fill-rule="evenodd" clip-rule="evenodd" d="M19.9228 20.632C19.7343 20.4438 19.5847 20.2203 19.4827 19.9742C19.3806 19.7281 19.3281 19.4644 19.3281 19.198C19.3281 18.9316 19.3806 18.6678 19.4827 18.4218C19.5847 18.1757 19.7343 17.9522 19.9228 17.764L27.1 10.5916C27.4811 10.2112 27.9976 9.9975 28.5361 9.9975C29.0746 9.9975 29.5911 10.2112 29.9722 10.5916L33.7054 14.32C33.8939 14.5082 34.0435 14.7317 34.1455 14.9778C34.2476 15.2238 34.3001 15.4876 34.3001 15.754C34.3001 16.0204 34.2476 16.2841 34.1455 16.5302C34.0435 16.7763 33.8939 16.9998 33.7054 17.188L29.1418 21.748H36.169C36.4355 21.7477 36.6995 21.8 36.9458 21.9018C37.1921 22.0036 37.416 22.1529 37.6046 22.3413C37.7932 22.5296 37.9429 22.7532 38.045 22.9994C38.1472 23.2456 38.1998 23.5095 38.2 23.776V25.804C38.2003 26.1637 38.1049 26.517 37.9235 26.8276C37.7422 27.1383 37.4814 27.395 37.168 27.5716C37.1792 27.6583 37.1848 27.7457 37.1848 27.8332V37.9732C37.1846 38.2397 37.132 38.5036 37.0298 38.7498C36.9277 38.9959 36.778 39.2196 36.5894 39.4079C36.4008 39.5962 36.1769 39.7456 35.9306 39.8474C35.6843 39.9491 35.4203 40.0014 35.1538 40.0012H14.8462C14.5797 40.0014 14.3157 39.9491 14.0694 39.8474C13.8231 39.7456 13.5992 39.5962 13.4106 39.4079C13.222 39.2196 13.0723 38.9959 12.9702 38.7498C12.868 38.5036 12.8154 38.2397 12.8152 37.9732V27.8332C12.8152 27.7457 12.8208 27.6583 12.832 27.5716C12.5186 27.395 12.2578 27.1383 12.0765 26.8276C11.8951 26.517 11.7997 26.1637 11.8 25.804V23.776C11.8002 23.5095 11.8528 23.2456 11.955 22.9994C12.0571 22.7532 12.2068 22.5296 12.3954 22.3413C12.584 22.1529 12.8079 22.0036 13.0542 21.9018C13.3005 21.8 13.5645 21.7477 13.831 21.748H21.04L19.9228 20.632ZM23.9122 21.748H26.2726L32.2726 15.7564L28.54 12.028L21.3592 19.198L23.9122 21.748ZM14.8462 27.832V37.972H35.1538V27.832H14.8462ZM35.1538 25.804H36.169V23.776H13.831V25.804H35.1538ZM28.5898 30.7516C28.6841 30.8457 28.7589 30.9574 28.81 31.0805C28.861 31.2035 28.8873 31.3354 28.8873 31.4686C28.8873 31.6018 28.861 31.7337 28.81 31.8567C28.7589 31.9797 28.6841 32.0915 28.5898 32.1856L25.72 35.053C25.6153 35.1577 25.489 35.2382 25.3499 35.2889C25.2108 35.3396 25.0623 35.3592 24.9148 35.3464C24.7673 35.3592 24.6188 35.3396 24.4797 35.2889C24.3406 35.2382 24.2143 35.1577 24.1096 35.053L21.2374 32.185C21.0581 31.9926 20.9604 31.7381 20.9651 31.4751C20.9698 31.2122 21.0764 30.9613 21.2624 30.7754C21.4485 30.5895 21.6994 30.4831 21.9624 30.4787C22.2254 30.4742 22.4798 30.5721 22.672 30.7516L24.913 32.9896L27.154 30.7516C27.3445 30.5615 27.6027 30.4547 27.8719 30.4547C28.1411 30.4547 28.3993 30.5615 28.5898 30.7516Z" fill="#24292F"/>
</svg>
