<svg width="25" height="25" viewBox="0 0 25 25" fill="none" xmlns="http://www.w3.org/2000/svg">
<g id="door-out">
<path id="Vector" d="M12.375 4.49994H15.375C15.9054 4.49994 16.4141 4.71065 16.7892 5.08573C17.1643 5.4608 17.375 5.96951 17.375 6.49994V8.5M17.375 20.4999V18.5M2.375 20.4999H4.375M4.375 20.4999L11.133 22.189C11.2804 22.2257 11.4342 22.2284 11.5828 22.1968C11.7314 22.1653 11.8708 22.1003 11.9905 22.0068C12.1102 21.9133 12.2071 21.7938 12.2737 21.6573C12.3403 21.5207 12.375 21.3708 12.375 21.219V5.06195C12.3748 4.75813 12.3054 4.45735 12.172 4.18437C12.0387 3.91138 11.8449 3.67237 11.6053 3.48547C11.3658 3.29857 11.0868 3.16869 10.7896 3.10571C10.4924 3.04272 10.1848 3.04828 9.89 3.12195L5.89 4.12195C5.45732 4.23011 5.07321 4.47978 4.79871 4.83128C4.5242 5.18279 4.37507 5.61596 4.375 6.06195V20.4999ZM12.375 20.4999H22.375M9.375 12.4999V12.5099" stroke="#8C959F" stroke-width="2" stroke-linecap="round" stroke-linejoin="round"/>
<path id="Vector_2" d="M22.375 13.5L15.375 13.5M22.375 13.5L19.375 10.5M22.375 13.5L19.375 16.5" stroke="#8C959F" stroke-width="2" stroke-linecap="round" stroke-linejoin="round"/>
</g>
</svg>
