<svg width="50" height="50" viewBox="0 0 50 50" fill="none" xmlns="http://www.w3.org/2000/svg">
<path d="M40.0576 22.0395L35.6692 18.3969V13.9257C35.669 13.81 35.6459 13.6955 35.6015 13.5887C35.557 13.482 35.4919 13.385 35.4099 13.3034C35.328 13.2217 35.2308 13.1571 35.1238 13.113C35.0169 13.069 34.9023 13.0464 34.7866 13.0467H29.2336L25.9528 10.2146C25.7921 10.0762 25.5871 10 25.375 10C25.1629 10 24.9579 10.0762 24.7972 10.2146L21.5164 13.0467H15.9634C15.8477 13.0464 15.7331 13.069 15.6262 13.113C15.5192 13.1571 15.422 13.2217 15.3401 13.3034C15.2581 13.385 15.193 13.482 15.1485 13.5887C15.1041 13.6955 15.081 13.81 15.0808 13.9257V18.3969L10.6924 22.0395C10.5932 22.1218 10.5133 22.225 10.4584 22.3416C10.4036 22.4583 10.3751 22.5856 10.375 22.7145V39.121C10.3752 39.2367 10.3983 39.3512 10.4427 39.4579C10.4872 39.5647 10.5523 39.6617 10.6343 39.7433C10.7162 39.8249 10.8134 39.8896 10.9204 39.9336C11.0273 39.9777 11.1419 40.0002 11.2576 40H39.4924C39.6081 40.0002 39.7227 39.9777 39.8296 39.9336C39.9366 39.8896 40.0338 39.8249 40.1157 39.7433C40.1977 39.6617 40.2628 39.5647 40.3073 39.4579C40.3517 39.3512 40.3748 39.2367 40.375 39.121V22.7145C40.3749 22.5856 40.3464 22.4583 40.2916 22.3416C40.2367 22.225 40.1568 22.1218 40.0576 22.0395ZM20.4082 30.9196L12.1396 37.324V24.5115L20.4082 30.9196ZM22.1482 31.7986H28.6018L36.9208 38.242H13.8292L22.1482 31.7986ZM30.3418 30.9196L38.6104 24.5115V37.324L30.3418 30.9196ZM38.086 22.6911L35.6692 24.5637V20.6847L38.086 22.6911ZM25.375 12.0399L26.539 13.0449H24.211L25.375 12.0399ZM33.9046 14.7999V25.9305L28.6018 30.0399H22.1482L16.8454 25.9317V14.8047L33.9046 14.7999ZM15.0808 24.5631L12.664 22.6911L15.0808 20.6847V24.5631Z" fill="#24292F"/>
<path d="M21.4486 27.5037C22.5346 28.3471 23.8602 28.8242 25.2346 28.8663H25.2592C25.4889 28.8643 25.7087 28.7725 25.8716 28.6104C26.0345 28.4484 26.1274 28.2291 26.1305 27.9993C26.1337 27.7696 26.0468 27.5478 25.8884 27.3814C25.73 27.215 25.5128 27.1172 25.2832 27.1089C24.1764 27.0781 23.1163 26.6565 22.2906 25.9188C21.4649 25.1811 20.9269 24.175 20.7721 23.0787C20.6172 21.9823 20.8554 20.8666 21.4444 19.929C22.0334 18.9915 22.9353 18.2927 23.9902 17.9565C24.5813 17.7681 25.2039 17.6989 25.822 17.753C26.44 17.807 27.0412 17.9833 27.5906 18.2714C28.14 18.5596 28.6267 18.9539 29.0226 19.4316C29.4184 19.9093 29.7155 20.4609 29.8966 21.0543C30.1231 21.9621 30.0316 22.9201 29.6374 23.7687C29.5587 24.0071 29.4091 24.2159 29.2086 24.3671C29.0081 24.5182 28.7663 24.6046 28.5154 24.6147C28.446 24.6069 28.3819 24.5738 28.3354 24.5217C28.2325 24.414 28.1757 24.2704 28.177 24.1215L28.201 19.2387C28.2016 19.1232 28.1794 19.0088 28.1357 18.902C28.092 18.7951 28.0278 18.6979 27.9465 18.6159C27.8653 18.5339 27.7687 18.4687 27.6623 18.424C27.5558 18.3793 27.4416 18.356 27.3262 18.3555H27.322C27.1174 18.3556 26.9193 18.4272 26.7618 18.5577C26.6043 18.6883 26.4973 18.8697 26.4592 19.0707C26.0577 18.8597 25.6107 18.7501 25.1572 18.7515C24.7274 18.7571 24.3034 18.8526 23.9127 19.0319C23.522 19.2112 23.1732 19.4703 22.8886 19.7925C22.268 20.5031 21.9331 21.4189 21.949 22.3623C21.9352 23.3042 22.2472 24.2219 22.8322 24.9603C23.1026 25.3049 23.4461 25.5852 23.838 25.7809C24.23 25.9766 24.6604 26.0828 25.0984 26.0919C25.7343 26.0897 26.3495 25.8661 26.8384 25.4595C26.9133 25.5666 26.9975 25.667 27.0898 25.7595C27.2756 25.9511 27.4976 26.1038 27.743 26.2088C27.9883 26.3138 28.2521 26.3689 28.519 26.3709C29.1224 26.3634 29.7093 26.1724 30.2015 25.8234C30.6938 25.4743 31.0681 24.9837 31.2748 24.4167C31.8153 23.2136 31.9286 21.8619 31.5958 20.5857C31.5958 20.5767 31.591 20.5677 31.588 20.5581C31.2952 19.5877 30.7777 18.7001 30.0774 17.9673C29.3772 17.2345 28.514 16.6771 27.558 16.3405C26.602 16.0039 25.58 15.8975 24.5751 16.03C23.5703 16.1625 22.6108 16.5301 21.7747 17.103C20.9385 17.6759 20.2493 18.4379 19.7629 19.3272C19.2765 20.2164 19.0068 21.2079 18.9755 22.2209C18.9442 23.234 19.1522 24.2402 19.5828 25.1578C20.0133 26.0754 20.6542 26.8785 21.4534 27.5019L21.4486 27.5037ZM25.0942 24.3333C24.4222 24.3333 23.7028 23.5413 23.7028 22.3617C23.7028 21.2019 24.4402 20.5089 25.153 20.5089C25.879 20.5089 26.3926 21.2169 26.4244 22.2441V22.4649C26.3818 23.5059 25.8016 24.3333 25.0942 24.3333Z" fill="#24292F"/>
</svg>
