<svg width="50" height="50" viewBox="0 0 50 50" fill="none" xmlns="http://www.w3.org/2000/svg">
<path d="M40.2272 19.441C39.7323 18.9471 39.0616 18.6697 38.3624 18.6697C37.6632 18.6697 36.9925 18.9471 36.4976 19.441L33.8534 22.0876V15.1228C33.8543 14.7763 33.7865 14.4331 33.6539 14.113C33.5212 13.7929 33.3264 13.5023 33.0806 13.258L30.5948 10.7722C30.3505 10.5266 30.0599 10.3319 29.7398 10.1993C29.4197 10.0668 29.0765 9.99902 28.73 10H13.637C12.9379 10.0008 12.2676 10.2789 11.7732 10.7732C11.2789 11.2676 11.0008 11.9379 11 12.637V37.363C11.0008 38.0621 11.2789 38.7324 11.7732 39.2268C12.2676 39.7211 12.9379 39.9992 13.637 40H31.217C31.9161 39.9992 32.5864 39.7211 33.0808 39.2268C33.5751 38.7324 33.8532 38.0621 33.854 37.363V29.5486L40.2272 23.17C40.4722 22.9253 40.6666 22.6346 40.7993 22.3147C40.9319 21.9948 41.0002 21.6518 41.0002 21.3055C41.0002 20.9592 40.9319 20.6162 40.7993 20.2963C40.6666 19.9764 40.4722 19.6858 40.2272 19.441ZM28.5794 11.758C28.7191 11.7417 28.8607 11.7563 28.9941 11.8008C29.1276 11.8453 29.2496 11.9186 29.3516 12.0154L31.838 14.5C31.9349 14.602 32.0081 14.724 32.0526 14.8575C32.0971 14.9909 32.1117 15.1325 32.0954 15.2722H28.5794V11.758ZM32.0954 37.3636C32.0952 37.5967 32.0026 37.8202 31.8378 37.985C31.673 38.1498 31.4495 38.2425 31.2164 38.2426H13.637C13.404 38.2423 13.1806 38.1496 13.0158 37.9848C12.851 37.82 12.7583 37.5966 12.758 37.3636V12.637C12.7583 12.404 12.851 12.1806 13.0158 12.0158C13.1806 11.851 13.404 11.7583 13.637 11.758H26.8214V16.1524C26.8214 16.3855 26.914 16.6091 27.0789 16.774C27.2437 16.9388 27.4673 17.0314 27.7004 17.0314H32.0954V23.8474L29.5022 26.44L28.2596 27.6826C28.1631 27.7792 28.0903 27.8969 28.0472 28.0264L26.804 31.7554C26.7524 31.9103 26.7449 32.0764 26.7824 32.2353C26.82 32.3941 26.901 32.5394 27.0164 32.6548C27.1318 32.7703 27.2771 32.8513 27.4359 32.8888C27.5948 32.9263 27.7609 32.9188 27.9158 32.8672L31.6448 31.624C31.7744 31.5815 31.8923 31.5094 31.9892 31.4134L32.096 31.3066V37.363L32.0954 37.3636ZM30.1244 28.3036L31.3676 29.5468L30.893 30.0214L29.0282 30.643L29.6492 28.78L30.1244 28.3036ZM32.6102 28.3036L31.367 27.0604L35.5892 22.8346L36.8324 24.0778L32.6102 28.3036ZM38.984 21.9274L38.078 22.834L36.8348 21.5908L37.7414 20.6836C37.8225 20.5996 37.9195 20.5327 38.0268 20.4866C38.134 20.4405 38.2494 20.4163 38.3661 20.4153C38.4829 20.4143 38.5986 20.4365 38.7067 20.4808C38.8147 20.525 38.9128 20.5903 38.9954 20.6728C39.0779 20.7554 39.1431 20.8536 39.1873 20.9616C39.2315 21.0697 39.2537 21.1855 39.2526 21.3022C39.2516 21.4189 39.2273 21.5343 39.1812 21.6415C39.135 21.7488 39.068 21.8464 38.984 21.9274Z" fill="#24292F"/>
<path d="M27.7124 18.7888H15.398C15.2825 18.7888 15.1681 18.8116 15.0614 18.8558C14.9547 18.9 14.8577 18.9648 14.776 19.0464C14.6944 19.1281 14.6296 19.2251 14.5854 19.3318C14.5412 19.4385 14.5184 19.5529 14.5184 19.6684C14.5184 19.7839 14.5412 19.8983 14.5854 20.005C14.6296 20.1117 14.6944 20.2087 14.776 20.2904C14.8577 20.3721 14.9547 20.4369 15.0614 20.4811C15.1681 20.5253 15.2825 20.548 15.398 20.548H27.7124C27.8279 20.548 27.9423 20.5253 28.049 20.4811C28.1557 20.4369 28.2527 20.3721 28.3344 20.2904C28.416 20.2087 28.4808 20.1117 28.525 20.005C28.5692 19.8983 28.592 19.7839 28.592 19.6684C28.592 19.5529 28.5692 19.4385 28.525 19.3318C28.4808 19.2251 28.416 19.1281 28.3344 19.0464C28.2527 18.9648 28.1557 18.9 28.049 18.8558C27.9423 18.8116 27.8279 18.7888 27.7124 18.7888Z" fill="#24292F"/>
<path d="M24.194 22.3042H15.398C15.1647 22.3042 14.941 22.3969 14.776 22.5618C14.6111 22.7268 14.5184 22.9505 14.5184 23.1838C14.5184 23.4171 14.6111 23.6408 14.776 23.8058C14.941 23.9707 15.1647 24.0634 15.398 24.0634H24.194C24.4273 24.0634 24.651 23.9707 24.816 23.8058C24.9809 23.6408 25.0736 23.4171 25.0736 23.1838C25.0736 22.9505 24.9809 22.7268 24.816 22.5618C24.651 22.3969 24.4273 22.3042 24.194 22.3042Z" fill="#24292F"/>
<path d="M24.194 25.8196H15.398C15.1647 25.8196 14.941 25.9123 14.776 26.0772C14.6111 26.2422 14.5184 26.4659 14.5184 26.6992C14.5184 26.9325 14.6111 27.1562 14.776 27.3212C14.941 27.4861 15.1647 27.5788 15.398 27.5788H24.194C24.4273 27.5788 24.651 27.4861 24.816 27.3212C24.9809 27.1562 25.0736 26.9325 25.0736 26.6992C25.0736 26.4659 24.9809 26.2422 24.816 26.0772C24.651 25.9123 24.4273 25.8196 24.194 25.8196Z" fill="#24292F"/>
<path d="M24.194 29.335H15.398C15.1647 29.335 14.941 29.4277 14.776 29.5927C14.6111 29.7576 14.5184 29.9813 14.5184 30.2146C14.5184 30.4479 14.6111 30.6716 14.776 30.8366C14.941 31.0016 15.1647 31.0942 15.398 31.0942H24.194C24.4273 31.0942 24.651 31.0016 24.816 30.8366C24.9809 30.6716 25.0736 30.4479 25.0736 30.2146C25.0736 29.9813 24.9809 29.7576 24.816 29.5927C24.651 29.4277 24.4273 29.335 24.194 29.335Z" fill="#24292F"/>
<path d="M27.7028 34.7224H22.4228C22.1895 34.7224 21.9658 34.8151 21.8008 34.98C21.6359 35.145 21.5432 35.3687 21.5432 35.602C21.5432 35.8353 21.6359 36.059 21.8008 36.224C21.9658 36.3889 22.1895 36.4816 22.4228 36.4816H27.7028C27.9361 36.4816 28.1598 36.3889 28.3248 36.224C28.4897 36.059 28.5824 35.8353 28.5824 35.602C28.5824 35.3687 28.4897 35.145 28.3248 34.98C28.1598 34.8151 27.9361 34.7224 27.7028 34.7224Z" fill="#24292F"/>
</svg>
