<svg width="30" height="30" viewBox="0 0 30 30" fill="none" xmlns="http://www.w3.org/2000/svg">
<rect width="30" height="30" rx="15" fill="#1B2025"/>
<path d="M17.0833 8.33331H12.9166L10.8333 10.8333H8.33329C7.89127 10.8333 7.46734 11.0089 7.15478 11.3215C6.84222 11.634 6.66663 12.058 6.66663 12.5V20C6.66663 20.442 6.84222 20.8659 7.15478 21.1785C7.46734 21.4911 7.89127 21.6666 8.33329 21.6666H21.6666C22.1087 21.6666 22.5326 21.4911 22.8451 21.1785C23.1577 20.8659 23.3333 20.442 23.3333 20V12.5C23.3333 12.058 23.1577 11.634 22.8451 11.3215C22.5326 11.0089 22.1087 10.8333 21.6666 10.8333H19.1666L17.0833 8.33331Z" stroke="#EEF3F9" stroke-width="2" stroke-linecap="round" stroke-linejoin="round"/>
<path d="M15 18.3333C16.3807 18.3333 17.5 17.214 17.5 15.8333C17.5 14.4526 16.3807 13.3333 15 13.3333C13.6192 13.3333 12.5 14.4526 12.5 15.8333C12.5 17.214 13.6192 18.3333 15 18.3333Z" stroke="#EEF3F9" stroke-width="2" stroke-linecap="round" stroke-linejoin="round"/>
</svg>
