<svg width="33" height="32" viewBox="0 0 33 32" fill="none" xmlns="http://www.w3.org/2000/svg">
<path d="M18.9694 27.2934L18.2468 28.5147C17.6028 29.6027 15.9934 29.6027 15.3481 28.5147L14.6254 27.2934C14.0654 26.3467 13.7854 25.8721 13.3348 25.6107C12.8841 25.3481 12.3174 25.3387 11.1841 25.3187C9.50944 25.2907 8.46011 25.1881 7.58011 24.8227C6.77127 24.4877 6.03633 23.9966 5.41727 23.3776C4.79821 22.7585 4.30714 22.0236 3.97211 21.2147C3.46411 19.9907 3.46411 18.4374 3.46411 15.3307V13.9974C3.46411 9.6334 3.46411 7.45073 4.44678 5.84806C4.99617 4.95099 5.75004 4.19666 6.64678 3.64673C8.25078 2.66406 10.4348 2.66406 14.7974 2.66406H18.7974C23.1614 2.66406 25.3441 2.66406 26.9481 3.64673C27.8447 4.19628 28.5986 4.95014 29.1481 5.84673C30.1308 7.45073 30.1308 9.63473 30.1308 13.9974V15.3307C30.1308 18.4374 30.1308 19.9907 29.6241 21.2147C29.2889 22.0237 28.7977 22.7587 28.1784 23.3778C27.5591 23.9968 26.8239 24.4878 26.0148 24.8227C25.1348 25.1881 24.0854 25.2894 22.4108 25.3187C21.2774 25.3387 20.7108 25.3481 20.2601 25.6107C19.8094 25.8721 19.5294 26.3454 18.9694 27.2934Z" stroke="#CFD4D9" stroke-width="2.25"/>
<path d="M16.8027 20.0026V9.33594M11.4694 17.3359V12.0026M22.136 17.3359V12.0026" stroke="#CFD4D9" stroke-width="2.25" stroke-linecap="round"/>
</svg>
