<svg width="48" height="49" viewBox="0 0 48 49" fill="none" xmlns="http://www.w3.org/2000/svg">
<path d="M13 24.5C15.9174 24.5 18.7153 25.6589 20.7782 27.7218C22.8411 29.7847 24 32.5826 24 35.5C24 38.4174 22.8411 41.2153 20.7782 43.2782C18.7153 45.3411 15.9174 46.5 13 46.5C10.0826 46.5 7.28473 45.3411 5.22183 43.2782C3.15893 41.2153 2 38.4174 2 35.5C2 32.5826 3.15893 29.7847 5.22183 27.7218C7.28473 25.6589 10.0826 24.5 13 24.5ZM24.258 4.5C25.4508 4.50052 26.5946 4.97458 27.438 5.818L33.062 11.438L38.678 17.062C39.52 17.906 39.994 19.05 39.994 20.242V40C39.994 41.1935 39.5199 42.3381 38.676 43.182C37.8321 44.0259 36.6875 44.5 35.494 44.5H22.38C23.237 43.6082 23.9623 42.5987 24.534 41.502L35.494 41.5C35.8918 41.5 36.2734 41.342 36.5547 41.0607C36.836 40.7794 36.994 40.3978 36.994 40L36.992 20.506H28.5C27.3601 20.5062 26.2626 20.0737 25.4291 19.296C24.5957 18.5183 24.0885 17.4532 24.01 16.316L24 16.008L23.998 7.5H12.5C12.1022 7.5 11.7206 7.65804 11.4393 7.93934C11.158 8.22064 11 8.60218 11 9V22.654C9.96977 22.814 8.96254 23.0974 8 23.498V9C8 7.80653 8.47411 6.66193 9.31802 5.81802C10.1619 4.97411 11.3065 4.5 12.5 4.5H24.258ZM8.186 30.432L8.046 30.548L7.932 30.688C7.81675 30.855 7.75503 31.0531 7.75503 31.256C7.75503 31.4589 7.81675 31.657 7.932 31.824L8.048 31.964L11.588 35.502L8.052 39.034L7.938 39.174C7.82275 39.341 7.76103 39.5391 7.76103 39.742C7.76103 39.9449 7.82275 40.143 7.938 40.31L8.052 40.45L8.192 40.564C8.35899 40.6792 8.5571 40.741 8.76 40.741C8.9629 40.741 9.16101 40.6792 9.328 40.564L9.468 40.45L13 36.916L16.54 40.454L16.678 40.57C16.845 40.6852 17.0431 40.747 17.246 40.747C17.4489 40.747 17.647 40.6852 17.814 40.57L17.954 40.454L18.068 40.314C18.1833 40.147 18.245 39.9489 18.245 39.746C18.245 39.5431 18.1833 39.345 18.068 39.178L17.952 39.038L14.414 35.502L17.958 31.962L18.074 31.824C18.1897 31.6568 18.2517 31.4583 18.2517 31.255C18.2517 31.0517 18.1897 30.8532 18.074 30.686L17.958 30.548L17.82 30.432C17.6528 30.3163 17.4543 30.2543 17.251 30.2543C17.0477 30.2543 16.8492 30.3163 16.682 30.432L16.544 30.548L13 34.088L9.46 30.548L9.324 30.432C9.15681 30.3163 8.95832 30.2543 8.755 30.2543C8.55168 30.2543 8.3532 30.3163 8.186 30.432ZM27 9.62L27.002 16.01C27.002 16.77 27.566 17.396 28.298 17.496L28.502 17.51L34.884 17.508L27 9.62Z" fill="#CFD4D9"/>
</svg>
