<svg width="48" height="48" viewBox="0 0 48 48" fill="none" xmlns="http://www.w3.org/2000/svg">
<g id="General/ico_caution_outlined_48_bk">
<path id="Vector" d="M24 13C24.69 13 25.25 13.56 25.25 14.25V26.75C25.25 27.0815 25.1183 27.3995 24.8839 27.6339C24.6495 27.8683 24.3315 28 24 28C23.6685 28 23.3505 27.8683 23.1161 27.6339C22.8817 27.3995 22.75 27.0815 22.75 26.75V14.25C22.75 13.56 23.31 13 24 13ZM24 34C24.5304 34 25.0391 33.7893 25.4142 33.4142C25.7893 33.0391 26 32.5304 26 32C26 31.4696 25.7893 30.9609 25.4142 30.5858C25.0391 30.2107 24.5304 30 24 30C23.4696 30 22.9609 30.2107 22.5858 30.5858C22.2107 30.9609 22 31.4696 22 32C22 32.5304 22.2107 33.0391 22.5858 33.4142C22.9609 33.7893 23.4696 34 24 34ZM4 24C4 12.954 12.954 4 24 4C35.046 4 44 12.954 44 24C44 35.046 35.046 44 24 44C12.954 44 4 35.046 4 24ZM24 6.5C14.335 6.5 6.5 14.335 6.5 24C6.5 33.665 14.335 41.5 24 41.5C33.665 41.5 41.5 33.665 41.5 24C41.5 14.335 33.665 6.5 24 6.5Z" fill="#A4A9AE"/>
</g>
</svg>
