<svg width="33" height="32" viewBox="0 0 33 32" fill="none" xmlns="http://www.w3.org/2000/svg">
<path d="M13.7334 7.33333H19.0667M21.7334 7.33333C21.7334 4.81867 21.7334 3.56267 20.952 2.78133C20.1707 2 18.9147 2 16.4 2C13.8854 2 12.6294 2 11.848 2.78133C11.0667 3.56267 11.0667 4.81867 11.0667 7.33333" stroke="#CFD4D9" stroke-width="2.25"/>
<path d="M3.06671 18.0026C3.06671 12.9746 3.06671 10.4599 4.62938 8.8986C6.19204 7.33727 8.70538 7.33594 13.7334 7.33594H19.0667C24.0947 7.33594 26.6094 7.33594 28.1707 8.8986C29.732 10.4613 29.7334 12.9746 29.7334 18.0026C29.7334 23.0306 29.7334 25.5453 28.1707 27.1066C26.608 28.6679 24.0947 28.6693 19.0667 28.6693H13.7334C8.70538 28.6693 6.19071 28.6693 4.62938 27.1066C3.06804 25.5439 3.06671 23.0306 3.06671 18.0026Z" stroke="#CFD4D9" stroke-width="2.25"/>
<path d="M16.4001 22.4414C17.8734 22.4414 19.0667 21.4467 19.0667 20.2201C19.0667 18.9934 17.8734 17.9974 16.4001 17.9974C14.9267 17.9974 13.7334 17.0027 13.7334 15.7747C13.7334 14.5481 14.9267 13.5534 16.4001 13.5534M16.4001 22.4414C14.9267 22.4414 13.7334 21.4467 13.7334 20.2201M16.4001 22.4414V23.3307M16.4001 13.5534V12.6641M16.4001 13.5534C17.8734 13.5534 19.0667 14.5481 19.0667 15.7747" stroke="#CFD4D9" stroke-width="2.25" stroke-linecap="round"/>
</svg>
