<svg width="24" height="24" viewBox="0 0 24 24" fill="none" xmlns="http://www.w3.org/2000/svg">
<g id="solar:volume-loud-bold">
<path id="Vector" d="M2.0029 11.7164C2.0399 9.87335 2.0589 8.95235 2.6709 8.16435C2.7939 8.00731 2.93225 7.86293 3.0839 7.73335C3.8359 7.09735 4.8299 7.09735 6.8169 7.09735C7.5269 7.09735 7.8819 7.09735 8.2199 7.00535C8.2899 6.98535 8.35957 6.96302 8.4289 6.93835C8.7589 6.81735 9.0559 6.60835 9.6489 6.19235C11.9869 4.54735 13.1569 3.72535 14.1379 4.08235C14.3259 4.15135 14.5079 4.25035 14.6709 4.37235C15.5189 5.00735 15.5839 6.48735 15.7129 9.44535C15.7609 10.5414 15.7929 11.4794 15.7929 12.0004C15.7929 12.5214 15.7609 13.4604 15.7129 14.5554C15.5829 17.5134 15.5189 18.9934 14.6709 19.6284C14.5082 19.7503 14.3287 19.848 14.1379 19.9184C13.1559 20.2754 11.9879 19.4534 9.6479 17.8084C9.0559 17.3924 8.7589 17.1834 8.4279 17.0624C8.35941 17.0375 8.29003 17.0152 8.2199 16.9954C7.8819 16.9034 7.5269 16.9034 6.8169 16.9034C4.8299 16.9034 3.8369 16.9034 3.0839 16.2674C2.9323 16.1381 2.79395 15.994 2.6709 15.8374C2.0589 15.0474 2.0409 14.1274 2.0029 12.2854C1.99903 12.0954 1.99903 11.9063 2.0029 11.7164Z" fill="#CFD4D9"/>
<path id="Vector_2" fill-rule="evenodd" clip-rule="evenodd" d="M19.4904 5.55273C19.5584 5.49132 19.6386 5.44477 19.7256 5.41604C19.8127 5.38731 19.9048 5.37705 19.9961 5.38589C20.0873 5.39473 20.1758 5.4225 20.2557 5.46741C20.3356 5.51232 20.4053 5.57339 20.4604 5.64673L19.9314 6.11773L20.4614 5.64773L20.4634 5.64973L20.4664 5.65373L20.4734 5.66273L20.5524 5.77473C20.6004 5.84606 20.6624 5.94773 20.7384 6.07973C20.8874 6.34373 21.0774 6.73173 21.2644 7.25073C21.6404 8.29173 22.0004 9.85173 22.0004 12.0007C22.0004 14.1497 21.6404 15.7107 21.2644 16.7507C21.0774 17.2707 20.8874 17.6577 20.7384 17.9227C20.6569 18.066 20.5685 18.2052 20.4734 18.3397L20.4664 18.3487L20.4634 18.3517L20.4624 18.3537C20.4624 18.3537 20.4614 18.3547 19.9314 17.8837L20.4614 18.3547C20.4063 18.4282 20.3366 18.4894 20.2566 18.5344C20.1765 18.5795 20.088 18.6073 19.9966 18.6161C19.9052 18.625 19.813 18.6146 19.7258 18.5858C19.6387 18.557 19.5585 18.5103 19.4904 18.4487C19.3489 18.3186 19.2612 18.1402 19.2445 17.9487C19.2278 17.7572 19.2834 17.5663 19.4004 17.4137L19.4304 17.3727C19.457 17.3327 19.4987 17.2637 19.5554 17.1657C19.7229 16.8641 19.8641 16.5486 19.9774 16.2227C20.2914 15.3517 20.6214 13.9697 20.6214 12.0007C20.6214 10.0317 20.2914 8.65073 19.9774 7.77873C19.864 7.45319 19.7228 7.13802 19.5554 6.83673C19.5072 6.74985 19.4548 6.66541 19.3984 6.58373M17.7574 8.41673C18.0904 8.21973 18.5104 8.34673 18.6954 8.70273L18.6964 8.70473L18.6984 8.70773L18.7014 8.71473L18.7114 8.73273L18.7354 8.78573C18.754 8.82773 18.7774 8.8844 18.8054 8.95573C18.8584 9.10073 18.9254 9.30573 18.9904 9.57573C19.1204 10.1157 19.2424 10.9127 19.2424 12.0007C19.2424 13.0897 19.1204 13.8867 18.9904 14.4267C18.9254 14.6967 18.8584 14.9017 18.8044 15.0457C18.776 15.1213 18.7447 15.1957 18.7104 15.2687L18.7014 15.2867L18.6984 15.2937L18.6964 15.2967V15.2987C18.6964 15.2987 18.6954 15.2997 18.0924 14.9427L18.6954 15.2997C18.5104 15.6547 18.0904 15.7827 17.7574 15.5857C17.4274 15.3897 17.3074 14.9477 17.4854 14.5947L17.4894 14.5847L17.5244 14.4997C17.5564 14.4137 17.6044 14.2697 17.6544 14.0617C17.7544 13.6457 17.8624 12.9717 17.8624 12.0017C17.8624 11.0307 17.7544 10.3567 17.6544 9.94173C17.6114 9.76349 17.5563 9.58841 17.4894 9.41773L17.4854 9.40773C17.3984 9.23848 17.3781 9.04278 17.4285 8.85929C17.4788 8.6758 17.5962 8.51788 17.7574 8.41673Z" fill="#CFD4D9"/>
</g>
</svg>
