<svg width="33" height="32" viewBox="0 0 33 32" fill="none" xmlns="http://www.w3.org/2000/svg">
<path d="M16.1999 29.3307C23.5639 29.3307 29.5332 23.3614 29.5332 15.9974C29.5332 8.6334 23.5639 2.66406 16.1999 2.66406C8.83591 2.66406 2.86658 8.6334 2.86658 15.9974C2.86658 18.1307 3.36791 20.1467 4.25724 21.9347C4.49458 22.4094 4.57324 22.9521 4.43591 23.4654L3.64258 26.4334C3.564 26.7271 3.56408 27.0363 3.64278 27.33C3.72149 27.6237 3.87607 27.8915 4.091 28.1066C4.30592 28.3217 4.57364 28.4764 4.86728 28.5553C5.16092 28.6342 5.47014 28.6345 5.76391 28.5561L8.73191 27.7614C9.24708 27.6312 9.79209 27.6943 10.2639 27.9387C12.1078 28.8568 14.1401 29.3334 16.1999 29.3307Z" stroke="#CFD4D9" stroke-width="2.25"/>
<path d="M16.1999 20.4414C17.6732 20.4414 18.8665 19.4467 18.8665 18.2201C18.8665 16.9934 17.6732 15.9974 16.1999 15.9974C14.7265 15.9974 13.5332 15.0027 13.5332 13.7747C13.5332 12.5481 14.7265 11.5534 16.1999 11.5534M16.1999 20.4414C14.7265 20.4414 13.5332 19.4467 13.5332 18.2201M16.1999 20.4414V21.3307M16.1999 11.5534V10.6641M16.1999 11.5534C17.6732 11.5534 18.8665 12.5481 18.8665 13.7747" stroke="#CFD4D9" stroke-width="2.25" stroke-linecap="round"/>
</svg>
