<svg width="24" height="24" viewBox="0 0 24 24" fill="none" xmlns="http://www.w3.org/2000/svg">
<g id="solar:radio-minimalistic-bold">
<path id="Vector" d="M6.34375 12.888C6.34375 12.3479 6.5583 11.8299 6.94021 11.448C7.32211 11.0661 7.84008 10.8516 8.38018 10.8516C8.92027 10.8516 9.43824 11.0661 9.82015 11.448C10.2021 11.8299 10.4166 12.3479 10.4166 12.888C10.4166 13.4281 10.2021 13.9461 9.82015 14.328C9.43824 14.7099 8.92027 14.9244 8.38018 14.9244C7.84008 14.9244 7.32211 14.7099 6.94021 14.328C6.5583 13.9461 6.34375 13.4281 6.34375 12.888Z" fill="white"/>
<path id="Vector_2" fill-rule="evenodd" clip-rule="evenodd" d="M15.0049 3.54306C15.1677 3.46625 15.2934 3.32788 15.3543 3.1584C15.4151 2.98892 15.4061 2.80221 15.3293 2.63934C15.2525 2.47647 15.1142 2.35079 14.9447 2.28994C14.7752 2.22909 14.5885 2.23806 14.4256 2.31487L7.26463 5.68538C5.69342 5.76593 4.71141 6.00307 4.01088 6.7045C2.94922 7.76435 2.94922 9.47132 2.94922 12.8844C2.94922 16.2974 2.94922 18.0044 4.00997 19.0642C5.07072 20.1241 6.77679 20.125 10.1898 20.125H13.8102C17.2232 20.125 18.9302 20.125 19.99 19.0642C21.0499 18.0035 21.0508 16.2974 21.0508 12.8844C21.0508 9.47132 21.0508 7.76435 19.99 6.7045C18.9293 5.64465 17.2232 5.64375 13.8102 5.64375H10.5401L15.0049 3.54306ZM8.37969 9.49033C7.47953 9.49033 6.61624 9.84792 5.97974 10.4844C5.34323 11.1209 4.98564 11.9842 4.98564 12.8844C4.98564 13.7845 5.34323 14.6478 5.97974 15.2843C6.61624 15.9208 7.47953 16.2784 8.37969 16.2784C9.27984 16.2784 10.1431 15.9208 10.7796 15.2843C11.4161 14.6478 11.7737 13.7845 11.7737 12.8844C11.7737 11.9842 11.4161 11.1209 10.7796 10.4844C10.1431 9.84792 9.27984 9.49033 8.37969 9.49033ZM12.6788 10.1691C12.6788 9.98911 12.7503 9.81645 12.8776 9.68915C13.0049 9.56185 13.1776 9.49033 13.3576 9.49033H18.3355C18.5156 9.49033 18.6882 9.56185 18.8155 9.68915C18.9428 9.81645 19.0144 9.98911 19.0144 10.1691C19.0144 10.3492 18.9428 10.5218 18.8155 10.6491C18.6882 10.7764 18.5156 10.8479 18.3355 10.8479H13.3576C13.1776 10.8479 13.0049 10.7764 12.8776 10.6491C12.7503 10.5218 12.6788 10.3492 12.6788 10.1691ZM13.3576 12.2056C13.1776 12.2056 13.0049 12.2771 12.8776 12.4044C12.7503 12.5317 12.6788 12.7043 12.6788 12.8844C12.6788 13.0644 12.7503 13.2371 12.8776 13.3644C13.0049 13.4917 13.1776 13.5632 13.3576 13.5632H18.3355C18.5156 13.5632 18.6882 13.4917 18.8155 13.3644C18.9428 13.2371 19.0144 13.0644 19.0144 12.8844C19.0144 12.7043 18.9428 12.5317 18.8155 12.4044C18.6882 12.2771 18.5156 12.2056 18.3355 12.2056H13.3576ZM12.6788 15.5996C12.6788 15.4196 12.7503 15.2469 12.8776 15.1196C13.0049 14.9923 13.1776 14.9208 13.3576 14.9208H18.3355C18.5156 14.9208 18.6882 14.9923 18.8155 15.1196C18.9428 15.2469 19.0144 15.4196 19.0144 15.5996C19.0144 15.7796 18.9428 15.9523 18.8155 16.0796C18.6882 16.2069 18.5156 16.2784 18.3355 16.2784H13.3576C13.1776 16.2784 13.0049 16.2069 12.8776 16.0796C12.7503 15.9523 12.6788 15.7796 12.6788 15.5996Z" fill="white"/>
</g>
</svg>
