<svg width="16" height="12" viewBox="0 0 16 12" fill="none" xmlns="http://www.w3.org/2000/svg">
    <g id="Group">
    <path id="Vector" d="M0.680558 5.41413C0.72311 4.70997 0.744678 4.35732 0.927711 4.01865C1.11315 3.6906 1.3936 3.42641 1.73212 3.26087C2.08245 3.0994 2.48291 3.0994 3.28324 3.0994C3.58169 3.0994 3.73092 3.0994 3.87548 3.07492C4.01846 3.05071 4.15787 3.0088 4.29051 2.95018C4.42458 2.8913 4.54932 2.80911 4.79822 2.64473L4.92646 2.56079C6.40763 1.58326 7.14909 1.0942 7.77164 1.30696C7.89113 1.34776 8.00655 1.40605 8.10972 1.47892C8.64716 1.85664 8.68855 2.73625 8.77016 4.49488C8.79677 5.00086 8.81368 5.50731 8.82087 6.01394C8.82087 6.32405 8.80047 6.88131 8.77016 7.53242C8.68855 9.29163 8.64775 10.1707 8.10972 10.549C8.00575 10.622 7.89191 10.6799 7.77164 10.7209C7.14967 10.9331 6.40821 10.4446 4.92588 9.46709L4.7988 9.38315C4.5499 9.21877 4.42574 9.13658 4.29109 9.07712C4.15843 9.01869 4.01902 8.97699 3.87606 8.95296C3.73092 8.92848 3.58169 8.92848 3.28324 8.92848C2.48233 8.92848 2.08245 8.92848 1.73271 8.76702C1.39397 8.60157 1.1133 8.33737 0.927711 8.00924C0.744678 7.66998 0.723693 7.31791 0.680558 6.61317C0.667715 6.41368 0.660911 6.21384 0.660156 6.01394C0.660156 5.82566 0.667734 5.62281 0.680558 5.41413Z" stroke="white"/>
        <!-- <g id="Group 3021">
            <path id="Vector 63" d="M12.5625 3.08594C12.8031 3.33438 13.2842 4.21125 13.2842 5.73114C13.2842 7.25104 12.8031 8.28866 12.5625 8.61749" stroke="white" stroke-width="1.00571" stroke-linecap="round"/>
            <path id="Vector 65" d="M14.1104 2.09375C14.4373 2.43147 15.0913 3.62342 15.0913 5.68946C15.0913 7.75551 14.4373 9.16598 14.1104 9.61296" stroke="white" stroke-width="1.00571" stroke-linecap="round"/>
            <path id="Vector 64" d="M11.0801 4.17188C11.2259 4.32252 11.5176 4.8542 11.5176 5.77577C11.5176 6.69735 11.2259 7.3265 11.0801 7.52588" stroke="white" stroke-width="1.00571" stroke-linecap="round"/>
        </g> -->
    </g>
</svg>
