<svg width="49" height="48" viewBox="0 0 49 48" fill="none" xmlns="http://www.w3.org/2000/svg">
<path d="M33.5005 8.00006C32.97 8.00006 32.4613 7.78935 32.0862 7.41427C31.7111 7.03919 31.5004 6.53047 31.5004 6.00003C31.5004 5.46959 31.7111 4.96087 32.0862 4.5858C32.4613 4.21072 32.97 4 33.5005 4H41.5006C42.031 4 42.5397 4.21072 42.9148 4.5858C43.2899 4.96087 43.5006 5.46959 43.5006 6.00003V14.0002C43.5006 14.5306 43.2899 15.0393 42.9148 15.4144C42.5397 15.7895 42.031 16.0002 41.5006 16.0002C40.9701 16.0002 40.4614 15.7895 40.0863 15.4144C39.7113 15.0393 39.5005 14.5306 39.5005 14.0002V10.8281L27.9144 22.4143C27.5393 22.7892 27.0307 22.9999 26.5003 22.9999C25.97 22.9999 25.4614 22.7892 25.0863 22.4143L19.5002 16.8282L8.91407 27.4144C8.53686 27.7787 8.03165 27.9803 7.50725 27.9757C6.98285 27.9712 6.48121 27.7608 6.11039 27.39C5.73957 27.0192 5.52923 26.5175 5.52467 25.9931C5.52012 25.4687 5.72171 24.9635 6.08603 24.5863L18.0862 12.5861C18.4613 12.2112 18.9699 12.0006 19.5002 12.0006C20.0306 12.0006 20.5392 12.2112 20.9143 12.5861L26.5003 18.1722L36.6725 8.00006H33.5005Z" fill="#3F72FD"/>
<path d="M9.50006 42.0002V36.0001C9.50006 35.4697 9.28934 34.9609 8.91427 34.5859C8.53919 34.2108 8.03047 34.0001 7.50003 34.0001C6.96959 34.0001 6.46087 34.2108 6.0858 34.5859C5.71072 34.9609 5.5 35.4697 5.5 36.0001V42.0002C5.5 42.5306 5.71072 43.0393 6.0858 43.4144C6.46087 43.7895 6.96959 44.0002 7.50003 44.0002C8.03047 44.0002 8.53919 43.7895 8.91427 43.4144C9.28934 43.0393 9.50006 42.5306 9.50006 42.0002Z" fill="#7A9EFA"/>
<path d="M28.9146 30.5858C28.5395 30.2107 28.0308 30 27.5003 30C26.9699 30 26.4612 30.2107 26.0861 30.5858C25.711 30.9609 25.5003 31.4696 25.5003 32V42.0002C25.5003 42.5306 25.711 43.0393 26.0861 43.4144C26.4612 43.7895 26.9699 44.0002 27.5003 44.0002C28.0308 44.0002 28.5395 43.7895 28.9146 43.4144C29.2896 43.0393 29.5004 42.5306 29.5004 42.0002V32C29.5004 31.4696 29.2896 30.9609 28.9146 30.5858Z" fill="#7A9EFA"/>
<path d="M18.9144 26.5869C19.2895 26.9619 19.5002 27.4707 19.5002 28.0011V42.0013C19.5002 42.5318 19.2895 43.0405 18.9144 43.4156C18.5394 43.7906 18.0307 44.0014 17.5002 44.0014C16.9698 44.0014 16.4611 43.7906 16.086 43.4156C15.7109 43.0405 15.5002 42.5318 15.5002 42.0013V28.0011C15.5002 27.4707 15.7109 26.9619 16.086 26.5869C16.4611 26.2118 16.9698 26.0011 17.5002 26.0011C18.0307 26.0011 18.5394 26.2118 18.9144 26.5869Z" fill="#3F72FD"/>
<path d="M38.9148 20.5868C39.2898 20.9619 39.5006 21.4706 39.5006 22.001V42.0013C39.5006 42.5318 39.2898 43.0405 38.9148 43.4156C38.5397 43.7906 38.031 44.0014 37.5005 44.0014C36.9701 44.0014 36.4614 43.7906 36.0863 43.4156C35.7112 43.0405 35.5005 42.5318 35.5005 42.0013V22.001C35.5005 21.4706 35.7112 20.9619 36.0863 20.5868C36.4614 20.2117 36.9701 20.001 37.5005 20.001C38.031 20.001 38.5397 20.2117 38.9148 20.5868Z" fill="#3F72FD"/>
</svg>
