<svg width="49" height="48" viewBox="0 0 49 48" fill="none" xmlns="http://www.w3.org/2000/svg">
<path d="M20.5 11H28.5M32.5 11C32.5 7.228 32.5 5.344 31.328 4.172C30.156 3 28.272 3 24.5 3C20.728 3 18.844 3 17.672 4.172C16.5 5.344 16.5 7.228 16.5 11" stroke="#7A9EFA" stroke-width="3"/>
<path d="M4.5 27C4.5 19.458 4.5 15.686 6.844 13.344C9.188 11.002 12.958 11 20.5 11H28.5C36.042 11 39.814 11 42.156 13.344C44.498 15.688 44.5 19.458 44.5 27C44.5 34.542 44.5 38.314 42.156 40.656C39.812 42.998 36.042 43 28.5 43H20.5C12.958 43 9.186 43 6.844 40.656C4.502 38.312 4.5 34.542 4.5 27Z" fill="white" stroke="#3F72FD" stroke-width="3"/>
<path d="M24.5 33.666C26.71 33.666 28.5 32.174 28.5 30.334C28.5 28.494 26.71 27 24.5 27C22.29 27 20.5 25.508 20.5 23.666C20.5 21.826 22.29 20.334 24.5 20.334M24.5 33.666C22.29 33.666 20.5 32.174 20.5 30.334M24.5 33.666V35M24.5 20.334V19M24.5 20.334C26.71 20.334 28.5 21.826 28.5 23.666" stroke="#3F72FD" stroke-width="3" stroke-linecap="round"/>
</svg>
