<svg width="47" height="48" viewBox="0 0 47 48" fill="none" xmlns="http://www.w3.org/2000/svg">
<g id="Group 2997">
<path id="Vector 57" d="M19.8648 12.8243C17.4317 15.8975 14.8921 18.1712 13.4129 19.3859C12.6271 20.0312 12.1538 20.9999 12.1967 22.0158L12.9539 39.9507C13.0082 41.239 13.8791 42.3477 15.1237 42.6847C18.4016 43.5721 24.7709 45.1995 28.404 45.4885C33.4473 45.8897 35.7397 45.3739 36.7713 44.1131C37.8029 42.8522 37.3473 40.9435 37.8029 40.2759C38.2585 39.6083 40.2001 38.6973 40.6503 37.8103C41.1005 36.9232 40.9859 34.8348 41.2702 34.115C41.5544 33.3952 43.6869 32.0111 44.0832 30.2692C44.4795 28.5273 42.5023 27.5244 42.531 25.6045C42.5596 23.6846 44.7661 22.8536 45.1959 20.9835C45.6257 19.1134 45.2346 17.9526 43.362 16.6928C41.4893 15.433 30.8019 16.4251 30.8019 16.4251C30.8019 16.4251 32.5746 12.0636 32.7997 10.5162C33.0248 8.96887 33.0999 6.93482 32.1525 4.96949C31.2051 3.00416 29.2323 1.54712 26.742 2.90921C24.2518 4.2713 23.6072 8.09731 19.8648 12.8243Z" fill="white" stroke="#0871F3" stroke-width="3" stroke-linecap="round" stroke-linejoin="round"/>
<path id="Vector 56" d="M13.4451 31.8828C13.431 29.7969 13.2873 27.1109 13.1363 24.8191L13.1363 24.819C13.1244 24.6382 13.1184 24.5477 13.1065 24.4393C12.8412 22.0246 10.7815 20.0961 8.3545 19.9901C8.24551 19.9854 8.13817 19.9854 7.92347 19.9854C7.77058 19.9854 7.69413 19.9854 7.5872 19.9899C5.2623 20.0895 3.16595 21.9971 2.84804 24.3023C2.83342 24.4083 2.82967 24.448 2.82217 24.5273C2.61742 26.6937 2.43109 29.3585 2.43109 31.8828C2.43109 34.3725 2.61234 36.9741 2.81375 39.0964C2.82322 39.1962 2.82796 39.2461 2.84498 39.3647C3.17218 41.6448 5.25397 43.5384 7.55481 43.6487C7.67447 43.6544 7.76295 43.6544 7.93991 43.6544C8.17148 43.6544 8.28726 43.6544 8.40901 43.6485C10.7986 43.5319 12.85 41.6172 13.1308 39.2413C13.1451 39.1202 13.1516 39.0267 13.1645 38.8397C13.3199 36.5879 13.4591 33.953 13.4451 31.8828Z" fill="white" stroke="#0871F3" stroke-width="3" stroke-linecap="round" stroke-linejoin="round"/>
<path id="Vector 58" d="M23.2123 36.3975C24.8693 36.7734 28.6113 37.5368 30.3233 37.5829" stroke="#2589F4" stroke-width="3" stroke-linecap="round" stroke-linejoin="round"/>
</g>
</svg>
