<svg width="43" height="47" viewBox="0 0 43 47" fill="none" xmlns="http://www.w3.org/2000/svg">
<g id="Group 3012">
<g id="Vector">
<path d="M30.1667 4.67188C34.8792 4.69864 37.4315 4.91498 39.0955 6.62783C41 8.58825 41 11.7419 41 18.0491V31.4308C41 37.7403 41 40.8939 39.0955 42.8543C37.1932 44.8125 34.1273 44.8125 28 44.8125H15C8.87267 44.8125 5.80683 44.8125 3.9045 42.8543C2 40.8917 2 37.7403 2 31.4308V18.0491C2 11.7419 2 8.58825 3.9045 6.62783C5.5685 4.91498 8.12083 4.69864 12.8333 4.67188" fill="white"/>
<path d="M30.1667 4.67188C34.8792 4.69864 37.4315 4.91498 39.0955 6.62783C41 8.58825 41 11.7419 41 18.0491V31.4308C41 37.7403 41 40.8939 39.0955 42.8543C37.1932 44.8125 34.1273 44.8125 28 44.8125H15C8.87267 44.8125 5.80683 44.8125 3.9045 42.8543C2 40.8917 2 37.7403 2 31.4308V18.0491C2 11.7419 2 8.58825 3.9045 6.62783C5.5685 4.91498 8.12083 4.69864 12.8333 4.67188" stroke="#2589F4" stroke-width="3" stroke-linecap="round"/>
</g>
<g id="Vector_2">
<path d="M35.75 37.0938L7.25 37.1875L35.75 37.0938Z" fill="white"/>
<path d="M35.75 37.0938L7.25 37.1875" stroke="#0871F3" stroke-width="2.9" stroke-linecap="round"/>
</g>
<path id="Vector_3" d="M13.7878 2.51463C14.3973 2.12509 15.224 1.90625 16.0859 1.90625H26.9193C27.7812 1.90625 28.6079 2.12509 29.2174 2.51463C30.0668 3.05752 30.4688 3.76519 30.4688 4.67578C30.4688 5.58638 30.0668 6.29404 29.2174 6.83693C28.6079 7.22647 27.7812 7.44531 26.9193 7.44531H16.0859C15.224 7.44531 14.3973 7.22647 13.7878 6.83693C12.9384 6.29404 12.5312 5.58638 12.5312 4.67578C12.5312 3.76519 12.9384 3.05752 13.7878 2.51463Z" fill="white" stroke="#0871F3" stroke-width="3"/>
<g id="Group 2995">
<path id="Rectangle 4022" d="M9.81497 24.8203C9.81497 23.4396 10.9343 22.3203 12.315 22.3203H15.1086C16.4893 22.3203 17.6086 23.4396 17.6086 24.8203V37.0852H9.81497V24.8203Z" fill="white" stroke="#0871F3" stroke-width="2.9" stroke-linecap="round"/>
<path id="Rectangle 4023" d="M17.6071 18.5937C17.6071 17.213 18.7264 16.0938 20.1071 16.0938H22.9008C24.2815 16.0938 25.4008 17.213 25.4008 18.5938V37.0912H17.6071V18.5937Z" fill="white" stroke="#0871F3" stroke-width="2.9" stroke-linecap="round"/>
<path id="Rectangle 4024" d="M25.3992 30.1953C25.3992 28.8146 26.5185 27.6953 27.8992 27.6953H30.6929C32.0736 27.6953 33.1929 28.8146 33.1929 30.1953V37.0942H25.3992V30.1953Z" fill="white" stroke="#0871F3" stroke-width="2.9" stroke-linecap="round"/>
</g>
</g>
</svg>
