<svg width="49" height="48" viewBox="0 0 49 48" fill="none" xmlns="http://www.w3.org/2000/svg">
<path fill-rule="evenodd" clip-rule="evenodd" d="M21.7927 6.30018L14.329 11.25C13.6386 11.7078 12.7078 11.5193 12.2499 10.8289C11.792 10.1385 11.9805 9.20768 12.6709 8.74981L20.1469 3.79188L20.1528 3.788C21.4469 2.94739 22.9569 2.5 24.5 2.5C26.0431 2.5 27.5531 2.94739 28.8471 3.788L28.8531 3.79188L36.329 8.74981C37.0194 9.20768 37.2079 10.1385 36.7501 10.8289C36.2922 11.5193 35.3613 11.7078 34.6709 11.25L27.2073 6.30018C26.401 5.77792 25.4608 5.5 24.5 5.5C23.5392 5.5 22.599 5.77792 21.7927 6.30018Z" fill="#7A9EFA"/>
<path d="M43.43 20C43.274 16.256 42.774 13.96 41.156 12.344C38.814 10 35.042 10 27.5 10H21.5C13.958 10 10.186 10 7.844 12.344C5.502 14.688 5.5 18.458 5.5 26C5.5 33.542 5.5 37.314 7.844 39.656C10.188 41.998 13.958 42 21.5 42H27.5C35.042 42 38.814 42 41.156 39.656C42.774 38.04 43.276 35.744 43.43 32" fill="white"/>
<path fill-rule="evenodd" clip-rule="evenodd" d="M21.3871 8.5H27.6129C31.2881 8.49997 34.1995 8.49994 36.4779 8.80639C38.8222 9.12168 40.7199 9.78594 42.216 11.2827C44.2762 13.3404 44.772 16.1762 44.9287 19.9376L41.9313 20.0624C41.776 16.3358 41.2718 14.5796 40.096 13.4053L40.0949 13.4042C39.2491 12.5577 38.0902 12.0502 36.0781 11.7796C34.0228 11.5032 31.3134 11.5 27.5 11.5H21.5C17.6866 11.5 14.9772 11.5032 12.9219 11.7796C10.9098 12.0502 9.75087 12.5577 8.90511 13.4042C8.05871 14.2513 7.55119 15.411 7.28034 17.4229C7.00369 19.4779 7 22.1868 7 26C7 29.8134 7.00319 32.5228 7.27962 34.5781C7.55024 36.5902 8.05773 37.7491 8.90421 38.5949C9.75134 39.4413 10.911 39.9488 12.9229 40.2197C14.9779 40.4963 17.6868 40.5 21.5 40.5H27.5C31.3134 40.5 34.0228 40.4968 36.0781 40.2204C38.0902 39.9498 39.2491 39.4423 40.0949 38.5958L40.096 38.5947C41.2719 37.4202 41.778 35.6634 41.9313 31.9384L44.9287 32.0616C44.774 35.8246 44.276 38.6598 42.216 40.7173C40.7199 42.2141 38.8222 42.8783 36.4779 43.1936C34.1995 43.5001 31.2881 43.5 27.6129 43.5H21.4047C17.7209 43.5 14.8045 43.5 12.5226 43.1928C10.178 42.8772 8.28066 42.2127 6.78379 40.7171C5.28627 39.2209 4.62176 37.3228 4.30639 34.9779C3.99994 32.6995 3.99997 29.7881 4 26.1129L4 25.9047C3.99998 22.2209 3.99996 19.3045 4.30716 17.0226C4.62282 14.678 5.2873 12.7807 6.78289 11.2838C8.27913 9.78627 10.1772 9.12176 12.5221 8.80639C14.8005 8.49994 17.7119 8.49997 21.3871 8.5Z" fill="#3F72FD"/>
<path fill-rule="evenodd" clip-rule="evenodd" d="M35.982 26C35.982 25.1716 36.6536 24.5 37.482 24.5H37.502C38.3304 24.5 39.002 25.1716 39.002 26C39.002 26.8284 38.3304 27.5 37.502 27.5H37.482C36.6536 27.5 35.982 26.8284 35.982 26Z" fill="#3F72FD"/>
<path fill-rule="evenodd" clip-rule="evenodd" d="M43.1988 18.5C43.3333 18.5 43.4573 18.4999 43.5716 18.5065L43.5775 18.5068L43.5775 18.5068C45.3227 18.6135 46.8604 19.9287 46.9921 21.7625L46.9931 21.7764L46.9931 21.7764C47.0001 21.8892 47.0001 22.0133 47 22.1342C47 22.1448 47 22.1554 47 22.166V29.834C47 29.8446 47 29.8552 47 29.8659C47.0001 29.9867 47.0001 30.1109 46.9931 30.2236L46.9924 30.2346L46.9924 30.2346C46.8639 32.0731 45.3201 33.3867 43.5775 33.4932L43.5716 33.4936C43.4573 33.5001 43.3333 33.5001 43.1987 33.5C43.1879 33.5 43.177 33.5 43.166 33.5H37.96C33.6722 33.5 30 30.2452 30 26C30 21.7549 33.6702 18.5 37.962 18.5H43.166C43.177 18.5 43.188 18.5 43.1988 18.5ZM43.398 21.5014C43.3808 21.5006 43.3457 21.5 43.166 21.5H37.962C35.1138 21.5 33 23.6172 33 26C33 28.3829 35.1158 30.5 37.96 30.5H43.166C43.3457 30.5 43.3808 30.4995 43.398 30.4986C43.8065 30.4722 43.9826 30.1991 43.999 30.0332C43.9992 30.0278 43.9994 30.0173 43.9996 29.9997C44 29.9628 44 29.9142 44 29.834V22.166C44 22.0859 44 22.0372 43.9996 22.0003C43.9994 21.9841 43.9992 21.974 43.999 21.9682C43.9812 21.7977 43.8029 21.5276 43.398 21.5014Z" fill="#3F72FD"/>
<path fill-rule="evenodd" clip-rule="evenodd" d="M12 18C12 17.1716 12.6716 16.5 13.5 16.5H21.5C22.3284 16.5 23 17.1716 23 18C23 18.8284 22.3284 19.5 21.5 19.5H13.5C12.6716 19.5 12 18.8284 12 18Z" fill="#7A9EFA"/>
</svg>
