<svg width="49" height="48" viewBox="0 0 49 48" fill="none" xmlns="http://www.w3.org/2000/svg">
<path d="M10 9.99902L8.102 10.631C6.122 11.291 5.132 11.621 4.566 12.407C4 13.193 4 14.239 4 16.323V16.469C4 18.189 4 19.051 4.414 19.755C4.828 20.459 5.582 20.877 7.086 21.715L13 24.999" stroke="#7A9EFA" stroke-width="3"/>
<path d="M38.5 9.99902L40.398 10.631C42.378 11.291 43.368 11.621 43.934 12.407C44.5 13.193 44.5 14.239 44.5 16.323V16.469C44.5 18.189 44.5 19.051 44.086 19.755C43.672 20.459 42.918 20.877 41.414 21.715L35.5 24.999" stroke="#7A9EFA" stroke-width="3"/>
<path d="M24.5 31.999V37.999" stroke="#5682FB" stroke-width="3" stroke-linecap="round"/>
<path d="M24.5 31.9995C12.98 31.9995 10.94 20.5195 10.58 11.4115C10.478 8.87948 10.428 7.61148 11.38 6.44148C12.33 5.26948 13.468 5.07748 15.746 4.69348C18.6397 4.21947 21.5678 3.98733 24.5 3.99948C28.068 3.99948 31.006 4.31348 33.254 4.69348C35.532 5.07748 36.67 5.26948 37.622 6.44148C38.574 7.61348 38.522 8.87948 38.422 11.4115C38.062 20.5195 36.022 31.9995 24.502 31.9995H24.5Z" fill="white" stroke="#3F72FD" stroke-width="3"/>
<path d="M31.5 43.999H17.5L18.18 40.607C18.2706 40.1538 18.5154 39.7459 18.8727 39.4528C19.23 39.1596 19.6778 38.9993 20.14 38.999H28.86C29.3222 38.9993 29.77 39.1596 30.1273 39.4528C30.4846 39.7459 30.7294 40.1538 30.82 40.607L31.5 43.999Z" stroke="#5682FB" stroke-width="3" stroke-linecap="round" stroke-linejoin="round"/>
<path d="M22.792 12.045C23.552 10.679 23.932 9.99902 24.5 9.99902C25.068 9.99902 25.448 10.679 26.208 12.045L26.404 12.397C26.62 12.785 26.728 12.977 26.896 13.105C27.066 13.233 27.276 13.281 27.696 13.375L28.076 13.463C29.552 13.797 30.29 13.963 30.466 14.527C30.642 15.091 30.138 15.681 29.132 16.857L28.872 17.161C28.586 17.495 28.442 17.661 28.378 17.869C28.314 18.077 28.336 18.299 28.378 18.745L28.418 19.151C28.57 20.721 28.646 21.507 28.188 21.855C27.728 22.203 27.036 21.885 25.654 21.249L25.298 21.085C24.904 20.905 24.708 20.815 24.5 20.815C24.292 20.815 24.096 20.905 23.702 21.085L23.346 21.249C21.964 21.887 21.272 22.203 20.812 21.855C20.352 21.507 20.43 20.721 20.582 19.151L20.622 18.745C20.664 18.299 20.686 18.077 20.622 17.869C20.558 17.661 20.414 17.495 20.128 17.161L19.868 16.857C18.862 15.681 18.358 15.093 18.534 14.527C18.71 13.963 19.448 13.797 20.924 13.463L21.304 13.375C21.724 13.281 21.934 13.235 22.104 13.105C22.272 12.977 22.38 12.785 22.596 12.397L22.792 12.045Z" stroke="#3F72FD" stroke-width="3"/>
<path d="M36.5 43.999H12.5" stroke="#3F72FD" stroke-width="3" stroke-linecap="round"/>
</svg>
