<svg width="18" height="18" viewBox="0 0 18 18" fill="none" xmlns="http://www.w3.org/2000/svg">
<g clip-path="url(#clip0_3159_13389)">
<path d="M17.4248 7.83189C17.4156 7.7529 17.4055 7.67403 17.3943 7.59529C17.3919 7.59286 17.3892 7.591 17.3867 7.58868C17.0816 5.80689 16.2224 4.21452 14.993 2.99467C14.852 3.14971 14.6585 3.17245 14.347 3.08994C14.0799 3.01921 13.8327 2.87616 13.568 2.79234C12.7941 2.54724 12.2699 2.77951 11.9196 3.50609C11.9095 3.52704 11.8964 3.54729 11.8905 3.5694C11.7541 4.08265 11.1354 4.11383 10.9197 4.52242C10.715 4.91012 10.5678 5.29252 10.1822 5.58421C9.80889 5.86655 9.51681 6.28375 9.26411 6.68854C9.08639 6.9732 9.15607 7.32079 9.38227 7.59884C9.44017 7.66999 9.52272 7.72048 9.58786 7.78643C10.171 8.37656 10.1842 8.90215 9.5873 9.46363C9.30049 9.73342 9.08172 9.9665 8.9876 10.4042C8.88488 10.8818 8.42521 10.9694 7.93921 10.9274C7.85438 10.92 7.77686 10.8746 7.73274 10.8017C7.53607 10.4771 7.28949 10.2033 6.81618 10.1945C6.65421 10.1914 6.50519 9.93673 6.33538 9.81864C5.99595 9.58263 5.67022 9.30486 5.2957 9.14592C4.51696 8.81538 3.7946 9.15897 3.5368 9.9819C3.39291 10.4412 3.3503 10.9337 3.2784 11.4136C3.23442 11.7073 3.29264 12.0704 2.93887 12.1836C2.5584 12.3053 2.35534 11.9886 2.15137 11.7343C1.75934 11.2456 1.59547 10.6707 1.52906 10.0609C1.51651 9.94569 1.52418 9.82841 1.51528 9.71264C1.45211 8.88939 1.25924 8.6814 0.49765 8.68745C0.49293 8.80329 0.490538 8.91921 0.490479 9.03515C0.490479 13.7348 4.30033 17.5447 9.00001 17.5447C13.6997 17.5447 17.5096 13.7348 17.5096 9.03508C17.5096 8.62663 17.4805 8.22497 17.4248 7.83189Z" fill="#CACACA"/>
<path d="M0.497681 8.68721C0.571614 6.84949 1.22854 5.16206 2.28826 3.80422C2.56481 3.44958 2.86888 3.11729 3.19765 2.81042C3.49755 2.53068 3.81721 2.27289 4.15414 2.03906C4.699 1.66101 5.2863 1.34813 5.90401 1.10682C6.2334 0.977897 6.57057 0.869812 6.91352 0.783208C7.30249 0.685207 7.69792 0.614953 8.09685 0.572974C8.14898 0.56749 8.20122 0.562322 8.25361 0.557751C8.78775 0.511318 9.32507 0.514861 9.85856 0.568333C10.0479 0.587318 10.2354 0.612736 10.4209 0.643955C10.8213 0.71119 11.2164 0.807121 11.603 0.931005C12.4377 1.1989 13.2161 1.59226 13.9163 2.0887C14.0154 2.15906 14.1129 2.23145 14.2089 2.30586C14.2588 2.34401 14.3084 2.38252 14.3578 2.42138C14.3784 2.43772 14.3983 2.45488 14.4176 2.47282C14.6172 2.6379 14.8092 2.81197 14.993 2.9945C14.852 3.14954 14.6585 3.17229 14.347 3.08977C14.0799 3.01904 13.8327 2.87599 13.568 2.79218C12.7941 2.54707 12.2699 2.77935 11.9196 3.50592C11.9095 3.52687 11.8964 3.54712 11.8905 3.56924C11.7541 4.08248 11.1354 4.11367 10.9197 4.52225C10.715 4.90995 10.5678 5.29235 10.1822 5.58404C9.80888 5.86638 9.51681 6.28358 9.2641 6.68837C9.08639 6.97303 9.15607 7.32062 9.38226 7.59867C9.44017 7.66983 9.52271 7.72031 9.58786 7.78626C10.171 8.3764 10.1842 8.90198 9.58729 9.46346C9.30049 9.73325 9.08171 9.96634 8.9876 10.404C8.88487 10.8816 8.4252 10.9693 7.9392 10.9272C7.85437 10.9198 7.77685 10.8744 7.73273 10.8016C7.53607 10.4769 7.28948 10.2031 6.81617 10.1943C6.65421 10.1913 6.50518 9.93656 6.33538 9.81847C5.99594 9.58247 5.67022 9.3047 5.2957 9.14576C4.51695 8.81522 3.7946 9.1588 3.5368 9.98174C3.3929 10.4411 3.35029 10.9335 3.2784 11.4134C3.23442 11.7071 3.29264 12.0702 2.93886 12.1834C2.5584 12.3052 2.35534 11.9884 2.15136 11.7341C1.75933 11.2455 1.59547 10.6705 1.52906 10.0607C1.51651 9.94552 1.52417 9.82824 1.51528 9.71247C1.45214 8.88915 1.25927 8.68113 0.497681 8.68721ZM11.9952 12.2407C11.6079 12.4587 11.2562 12.4995 10.9025 12.2126C10.5743 11.9465 10.2549 12.0059 9.94663 12.2317C9.62878 12.4646 9.32201 12.7127 9.0134 12.958C8.9599 13.0005 8.91595 13.0582 8.87675 13.1151C8.52122 13.6314 8.77768 14.27 9.40322 14.2867C10.0649 14.3043 10.681 14.3935 11.2773 14.6957C11.5159 14.8167 11.8155 14.8172 11.952 14.8449C12.8729 14.8678 13.351 14.4702 13.3411 13.6917C13.336 13.2933 13.2039 12.8667 13.0213 12.5077C12.7715 12.0171 12.4917 11.9611 11.9952 12.2407ZM10.6135 7.78665C10.6807 7.75817 10.7489 7.73374 10.819 7.71718C11.1016 7.65035 11.2162 7.50705 11.312 7.22682C11.457 6.80277 11.6699 6.38704 11.9283 6.02022C12.2374 5.58161 12.2915 5.41754 11.9688 5.13766C11.8337 5.02049 11.6402 4.99549 11.4807 5.07631C11.2268 5.20502 11.0222 5.36505 11.2018 5.79508C11.2426 5.89282 11.1631 6.06062 11.1022 6.1767C11.0162 6.34067 10.9116 6.49487 10.791 6.67983C10.7347 6.76628 10.6495 6.8297 10.5512 6.86127C10.2029 6.97317 10.0223 7.12413 9.99841 7.34495C9.96276 7.67475 10.3082 7.91617 10.6135 7.78665ZM9.43176 11.1128C9.95278 11.189 10.4738 11.271 10.998 11.3144C11.0819 11.3214 11.2323 11.1631 11.2619 11.0562C11.322 10.8391 11.1745 10.681 10.9702 10.6701C10.5323 10.6468 10.0906 10.6447 9.65409 10.6799C9.57081 10.6867 9.49385 10.7716 9.41819 10.8543C9.35871 10.9194 9.34971 11.0185 9.40209 11.0894C9.41215 11.103 9.42146 11.1113 9.43176 11.1128ZM3.91501 11.7757C3.76623 11.8496 3.58974 11.9581 3.53202 12.0978C3.49408 12.1895 3.53497 12.3139 3.57596 12.4648C3.59843 12.5475 3.69198 12.5881 3.76739 12.5475C3.89796 12.4772 3.99197 12.4331 4.04284 12.3592C4.12342 12.2423 4.16571 12.0772 4.16233 11.9345C4.16096 11.8753 3.96402 11.7514 3.91501 11.7757ZM11.615 10.4996C11.5101 10.554 11.4894 10.6956 11.5728 10.7792C11.7559 10.9627 11.9596 10.9682 12.1792 10.9088C12.2748 10.8829 12.3325 10.7839 12.3033 10.6893C12.1958 10.3424 12.0168 10.291 11.615 10.4996Z" fill="#13A047"/>
</g>
<defs>
<clipPath id="clip0_3159_13389">
<rect width="18" height="18" fill="white"/>
</clipPath>
</defs>
</svg>
