<svg width="18" height="18" viewBox="0 0 18 18" fill="none" xmlns="http://www.w3.org/2000/svg">
<g clip-path="url(#clip0_3159_15583)">
<path d="M4.26981 2.12268C4.37813 2.2491 4.47129 2.39075 4.55538 2.53496C4.63136 2.66525 4.47976 2.92189 4.71974 2.94572C4.9227 2.96587 5.18879 3.05611 5.34074 2.87443C5.8401 2.27726 6.48096 2.2844 7.17354 2.33393C7.57281 2.36252 7.97018 1.82424 7.91277 1.4268C7.8876 1.25267 7.72799 1.26764 7.63975 1.34534C7.47915 1.48674 7.34788 1.66185 7.20733 1.82543C6.86751 2.22094 5.79661 2.25719 5.43988 1.88281C5.36848 1.80789 5.33237 1.72141 5.40631 1.62807C5.46562 1.55322 5.51919 1.46023 5.59812 1.41657C6.02804 1.1787 6.46173 0.946598 6.91353 0.783156C5.91119 1.03582 4.97951 1.46617 4.15415 2.03901C4.19739 2.05609 4.23796 2.08552 4.26981 2.12268ZM9.87998 0.986852C10.4294 1.32432 10.917 1.2752 11.4419 1.01635C11.4964 0.989488 11.5499 0.96052 11.6031 0.931023C10.7826 0.667703 9.90796 0.525391 9.00001 0.525391C8.74851 0.525391 8.4996 0.536395 8.25361 0.55777C8.3659 0.562902 8.47974 0.574187 8.59544 0.593066C9.03615 0.665066 9.50957 0.75932 9.87998 0.986852ZM17.5096 9.03493C17.5096 13.7346 13.6997 17.5445 9.00001 17.5445C4.30033 17.5445 0.490479 13.7346 0.490479 9.03493C0.490479 6.57771 1.53198 4.36378 3.19762 2.81044C3.20162 2.82995 3.20865 2.84883 3.21976 2.86637C3.35427 3.07886 3.55674 3.23284 3.63805 3.5007C3.68534 3.65651 3.93467 3.62238 4.09892 3.59045C4.26236 3.55867 4.31601 3.62684 4.31913 3.77052C4.32191 3.89842 4.29235 4.022 4.1456 4.03894C4.00389 4.05529 3.85697 4.02407 3.71455 4.03729C3.4352 4.0632 3.19431 4.37479 3.18169 4.70659C3.17118 4.98373 3.34281 5.15259 3.69226 5.18317C3.88362 5.19991 4.07744 5.18816 4.27016 5.18929C4.51295 5.17832 4.72979 5.09201 4.94263 4.97863C5.33561 4.76928 5.71818 4.57926 6.06654 5.08568C6.19324 5.2699 6.49358 5.33227 6.6578 5.18887C7.08305 4.81748 7.52039 5.06902 7.95468 5.08502C8.29327 5.0975 8.4989 5.39724 8.77111 5.55312C8.4951 5.50478 8.22025 5.5367 7.93752 5.63127C7.26751 5.85532 6.65158 5.68032 6.09073 5.29701C5.31782 4.76875 5.18454 4.76291 4.44928 5.32053C2.98014 5.76786 2.1867 6.74935 1.96145 8.27717C1.7791 9.51404 2.51154 10.4341 3.75867 10.3747C3.97481 10.3644 4.18951 10.3129 4.4053 10.3096C5.13409 10.2983 5.52605 10.5707 5.77323 11.2511C5.88837 11.5681 5.96364 11.9022 6.10472 12.2064C6.29354 12.6136 6.39128 13.0281 6.32515 13.4696C6.21381 14.2129 6.48406 14.8388 6.88368 15.4356C7.59591 16.4994 8.99917 16.5259 9.71576 15.4749C9.86352 15.2581 9.99293 15.0174 10.0734 14.7692C10.1808 14.4382 10.342 14.1607 10.5876 13.9135C10.9383 13.5603 11.0544 13.1066 10.9133 12.6422C10.7069 11.9633 10.9079 11.4744 11.4647 11.0746C11.798 10.8353 12.1054 10.5562 12.3332 10.2096C12.6231 9.76871 12.554 9.50461 12.0798 9.29691C11.8575 9.19953 11.6223 9.1244 11.4534 8.94978C10.9315 8.4103 10.4617 7.8284 10.116 7.15727C10.0509 7.03081 10.0101 6.88702 9.98632 6.74643C9.97736 6.69324 10.0371 6.6141 10.086 6.5691C10.1478 6.51222 10.233 6.54484 10.2771 6.598C10.3688 6.70874 10.4436 6.83344 10.5257 6.95216C10.8686 7.44818 11.2031 7.95036 11.5581 8.43759C11.7495 8.70024 12.0051 8.9117 12.3579 8.81808C12.8893 8.6771 13.3301 8.38738 13.5815 7.87927C13.7337 7.57179 13.6503 7.38884 13.3272 7.25373C13.1503 7.17973 12.9572 7.14088 12.787 7.05521C12.6048 6.96348 12.4328 6.74137 12.5168 6.59642C12.639 6.38566 12.8536 6.55128 13.0154 6.65717C13.3969 6.90681 13.753 7.21949 14.2536 7.18775C14.8402 7.15055 15.1441 7.49663 15.31 7.99265C15.4088 8.28821 15.4453 8.60405 15.5205 8.90808C15.6496 9.42955 15.8684 9.64499 16.2184 9.57637C16.6356 9.49452 16.6399 9.15298 16.6161 8.83784C16.5856 8.4327 16.7387 8.1389 17.0564 7.90687C17.1743 7.82077 17.2825 7.72138 17.3934 7.62555C17.4708 8.09134 17.5097 8.56274 17.5096 9.03493Z" fill="#CACACA"/>
<path d="M12.2849 13.8422C12.2886 14.1901 12.1616 14.4904 11.9456 14.7561C11.813 14.9192 11.6402 14.9825 11.4389 14.9144C11.2356 14.8457 11.2484 14.6576 11.2511 14.4964C11.2579 14.092 11.3941 13.7548 11.7821 13.5611C12.1276 13.3887 12.2792 13.4714 12.2849 13.8422ZM3.21969 2.86629C3.20895 2.84916 3.20144 2.8302 3.19754 2.81036C3.49745 2.53061 3.81711 2.27282 4.15404 2.039C4.19732 2.05601 4.23789 2.08544 4.26974 2.1226C4.37806 2.24902 4.47122 2.39066 4.55531 2.53488C4.63129 2.66516 4.47969 2.9218 4.71967 2.94564C4.92263 2.96579 5.18872 3.05603 5.34067 2.87434C5.84003 2.27718 6.48089 2.28432 7.17347 2.33385C7.57274 2.36243 7.97011 1.82416 7.9127 1.42671C7.88753 1.25259 7.72792 1.26756 7.63968 1.34526C7.47908 1.48666 7.34781 1.66177 7.20725 1.82535C6.86743 2.22086 5.79654 2.25711 5.43981 1.88273C5.36841 1.80781 5.3323 1.72132 5.40624 1.62798C5.46554 1.55314 5.51912 1.46015 5.59805 1.41648C6.02797 1.17862 6.46166 0.946516 6.91345 0.783074C7.3534 0.672161 7.80155 0.596766 8.25358 0.557617C8.36586 0.56275 8.4797 0.574035 8.5954 0.592914C9.03612 0.664879 9.50953 0.759133 9.87994 0.986664C10.4293 1.32413 10.917 1.27502 11.4419 1.01616C11.4964 0.989301 11.5498 0.960332 11.603 0.930836C14.5956 1.89145 16.8663 4.46348 17.3933 7.62561C17.2825 7.72144 17.1742 7.82083 17.0563 7.90693C16.7386 8.13896 16.5855 8.43272 16.616 8.8379C16.6397 9.153 16.6355 9.49458 16.2183 9.57643C15.8683 9.64505 15.6495 9.42961 15.5205 8.90814C15.4452 8.60407 15.4087 8.28823 15.3099 7.99271C15.1441 7.49669 14.8401 7.15061 14.2535 7.18781C13.7529 7.21952 13.3968 6.90687 13.0153 6.65723C12.8535 6.55134 12.639 6.38572 12.5168 6.59648C12.4327 6.74139 12.6047 6.96351 12.7869 7.05527C12.9571 7.14094 13.1502 7.17982 13.3271 7.25379C13.6502 7.3889 13.7336 7.57185 13.5815 7.87933C13.33 8.38748 12.8892 8.67716 12.3578 8.81814C12.0051 8.91173 11.7494 8.7003 11.5581 8.43764C11.2031 7.95038 10.8685 7.44824 10.5256 6.95222C10.4435 6.8335 10.3687 6.7088 10.277 6.59806C10.233 6.54487 10.1477 6.51228 10.0859 6.56916C10.037 6.61416 9.97729 6.6933 9.98625 6.74649C10.01 6.88708 10.0508 7.03083 10.116 7.15732C10.4617 7.82846 10.9314 8.41036 11.4533 8.94984C11.6222 9.12446 11.8574 9.19959 12.0797 9.29697C12.5539 9.50467 12.623 9.76877 12.3332 10.2096C12.1053 10.5562 11.7979 10.8353 11.4646 11.0746C10.9078 11.4744 10.7068 11.9634 10.9132 12.6423C11.0544 13.1066 10.9382 13.5604 10.5875 13.9135C10.342 14.1608 10.1807 14.4383 10.0734 14.7692C9.99286 15.0175 9.86345 15.2582 9.71569 15.4749C8.9991 16.5259 7.59584 16.4995 6.88361 15.4357C6.48399 14.8388 6.21374 14.2129 6.32508 13.4697C6.39121 13.0282 6.29347 12.6137 6.10465 12.2065C5.96357 11.9023 5.8883 11.5681 5.77316 11.2512C5.52598 10.5707 5.13402 10.2984 4.40523 10.3096C4.18941 10.3129 3.97471 10.3645 3.7586 10.3748C2.51147 10.4342 1.77906 9.51409 1.96138 8.27723C2.18663 6.74941 2.98007 5.76791 4.44921 5.32059C5.18447 4.76297 5.31775 4.76881 6.09066 5.29707C6.6515 5.68038 7.26744 5.85535 7.93745 5.63133C8.22021 5.5368 8.49503 5.50484 8.77104 5.55318C8.49883 5.3973 8.2932 5.09755 7.95461 5.08507C7.52032 5.06904 7.08301 4.81754 6.65773 5.18893C6.49351 5.33233 6.19321 5.26996 6.06647 5.08574C5.71811 4.57932 5.3355 4.76934 4.94256 4.97869C4.72972 5.09211 4.51288 5.17838 4.27009 5.18935C4.0774 5.18826 3.88355 5.19997 3.69219 5.18323C3.34274 5.15264 3.17111 4.98382 3.18162 4.70665C3.1942 4.37485 3.43509 4.06326 3.71448 4.03735C3.85693 4.02413 4.00382 4.05535 4.14553 4.039C4.29227 4.02209 4.32184 3.89852 4.31906 3.77058C4.31593 3.62686 4.26229 3.55873 4.09884 3.59051C3.93459 3.62243 3.68527 3.65657 3.63798 3.50076C3.55666 3.23276 3.3542 3.07878 3.21969 2.86629Z" fill="#13A09B"/>
</g>
<defs>
<clipPath id="clip0_3159_15583">
<rect width="18" height="18" fill="white"/>
</clipPath>
</defs>
</svg>
