<svg width="18" height="18" viewBox="0 0 18 18" fill="none" xmlns="http://www.w3.org/2000/svg">
<g clip-path="url(#clip0_3159_15632)">
<path d="M14.9552 3.04486C13.3645 1.45418 11.2495 0.578125 8.99996 0.578125C6.75039 0.578125 4.63546 1.45418 3.04474 3.04486C1.45403 4.63554 0.578003 6.75051 0.578003 9.00009C0.578003 11.2497 1.45403 13.3646 3.04474 14.9553C4.63546 16.546 6.75039 17.422 8.99996 17.422C11.2495 17.422 13.3645 16.546 14.9552 14.9553C16.5459 13.3646 17.4219 11.2497 17.4219 9.00009C17.4219 6.75051 16.5459 4.63558 14.9552 3.04486ZM13.5712 8.52548C13.5311 7.16194 13.3186 5.85807 12.9537 4.70733C13.5486 4.5389 14.1016 4.32982 14.6183 4.07867C15.6744 5.28288 16.3503 6.82813 16.4572 8.52548H13.5712ZM8.52535 16.4053C7.78746 16.1962 7.08855 15.5034 6.51976 14.402C6.44704 14.2609 6.37852 14.1176 6.31431 13.9724C6.72187 13.895 7.14681 13.8341 7.58967 13.7911C7.90085 13.761 8.2129 13.7406 8.52535 13.7299V16.4053ZM9.47457 13.7282C10.2243 13.7512 10.9629 13.8328 11.6854 13.9727C11.6213 14.1178 11.5528 14.2609 11.4802 14.4019C10.9114 15.5034 10.2125 16.1962 9.47457 16.4053V13.7282ZM8.52535 12.7803C8.18434 12.7913 7.84178 12.8129 7.49791 12.8463C6.96667 12.8978 6.45771 12.9736 5.97136 13.0723C5.62254 11.9987 5.41846 10.7688 5.37827 9.4747H8.52535V12.7803ZM5.37831 8.52548C5.41849 7.23116 5.62264 6.00108 5.97153 4.92741C6.80516 5.09862 7.65865 5.19681 8.52535 5.22184V8.52548H5.37831ZM8.52535 4.27238C7.77558 4.24928 7.03691 4.16747 6.31434 4.02773C6.37857 3.88255 6.44707 3.73931 6.51976 3.59819C7.08855 2.49674 7.78742 1.80392 8.52535 1.59481V4.27238ZM9.47457 1.59484C10.2125 1.80395 10.9114 2.49678 11.4802 3.59822C11.5533 3.74007 11.6221 3.88406 11.6866 4.03001C11.3203 4.09885 10.9377 4.15415 10.5373 4.1963C10.1841 4.23334 9.82961 4.25792 9.47461 4.26999L9.47457 1.59484ZM12.3236 3.16271C12.0909 2.71214 11.8347 2.31681 11.5596 1.97903C12.4264 2.29604 13.2186 2.76934 13.902 3.36457C13.5026 3.53948 13.078 3.68836 12.6263 3.81299C12.5318 3.58799 12.431 3.37076 12.3236 3.16271ZM5.67636 3.16271C5.56945 3.36971 5.46908 3.58581 5.37507 3.80962C4.91744 3.68397 4.4936 3.53628 4.09799 3.36457C4.78135 2.76938 5.57349 2.29607 6.44038 1.97907C6.16525 2.31681 5.90903 2.71214 5.67636 3.16271ZM5.04735 4.70396C4.68179 5.8555 4.46885 7.16061 4.4287 8.52548H1.54273C1.64964 6.82863 2.32509 5.28379 3.38073 4.07972C3.89236 4.32719 4.44396 4.53405 5.04735 4.70396ZM4.4287 9.4747C4.46885 10.8392 4.68169 12.144 5.04707 13.2954C4.45018 13.4646 3.89471 13.674 3.3821 13.922C2.32569 12.7177 1.64967 11.1722 1.54273 9.4747H4.4287ZM5.37472 14.1897C5.46672 14.4095 5.56735 14.6256 5.67636 14.8375C5.90903 15.288 6.16525 15.6834 6.44034 16.0211C5.57385 15.7042 4.78199 15.2312 4.0988 14.6364C4.49641 14.4634 4.92244 14.3147 5.37472 14.1897ZM12.6245 14.1915C13.0742 14.3162 13.5004 14.4656 13.8992 14.6381C13.2165 15.2321 12.4253 15.7046 11.5596 16.0211C11.8347 15.6834 12.0909 15.288 12.3236 14.8375C12.4303 14.6307 12.5306 14.415 12.6245 14.1915ZM12.0284 13.0727C11.1949 12.9013 10.3413 12.8035 9.47457 12.7785V9.4747H12.6216C12.5814 10.769 12.3773 11.999 12.0284 13.0727ZM9.47457 8.52548V5.21998C9.86278 5.20747 10.2504 5.18089 10.6367 5.14028C11.1238 5.08902 11.5868 5.0185 12.0291 4.92959C12.3776 6.00273 12.5815 7.23204 12.6217 8.52548H9.47457ZM14.6142 13.9261L14.6166 13.9212C14.1034 13.6748 13.5456 13.4658 12.9523 13.2971C13.318 12.1453 13.5311 10.8399 13.5712 9.47466H16.4572C16.3501 11.1742 15.6727 12.7212 14.6142 13.9261Z" fill="#0096D1"/>
</g>
<defs>
<clipPath id="clip0_3159_15632">
<rect width="18" height="18" fill="white"/>
</clipPath>
</defs>
</svg>
