<svg width="18" height="18" viewBox="0 0 18 18" fill="none" xmlns="http://www.w3.org/2000/svg">
<path d="M2.47375 4.04566L4.77821 1.74121L5.3393 2.3023L3.03485 4.60676L2.47375 4.04566ZM6.50031 4.62517L8.80504 2.32129L9.36614 2.88238L7.0614 5.18627L6.50031 4.62517ZM14.4035 15.9766L16.7085 13.6727L17.2696 14.234L14.9646 16.5379L14.4035 15.9766ZM13.828 11.9251L16.133 9.62117L16.6941 10.1826L14.3888 12.4864L13.828 11.9251Z" fill="#ACB8BF"/>
<path d="M16.4127 17.6341L15.0808 5.7038L13.2955 3.9185L1.36521 2.58661C0.798446 2.52994 0.911798 3.94684 1.56357 4.25856L10.5467 8.45259L14.7408 17.4358C15.0525 18.0875 16.4694 18.2009 16.4127 17.6341Z" fill="#42ADE2"/>
<path d="M17.8013 2.72899C18.4247 1.51046 17.4895 0.575302 16.271 1.19874C14.7124 1.99221 12.417 3.7775 10.0933 6.07289C6.46604 9.70016 4.14232 13.2991 4.90745 14.0926C5.67258 14.8577 9.29985 12.534 12.9271 8.90669C15.2225 6.61131 17.0078 4.28759 17.8013 2.72899Z" fill="#DAE3EA"/>
<path d="M6.7778 17.4917L6.32439 13.2977L5.70095 12.6743L1.50692 12.2209C1.30856 12.1925 1.33689 12.7026 1.5636 12.816L4.70912 14.2895L6.1827 17.4351C6.29605 17.6618 6.80614 17.6901 6.7778 17.4917Z" fill="#42ADE2"/>
<path d="M6.1544 13.5267C4.87919 14.8019 3.71733 15.6804 3.5473 15.482C3.37727 15.312 4.25575 14.1218 5.50263 12.8466C6.77784 11.5714 7.9397 10.6929 8.13807 10.8912C8.27976 11.0613 7.40128 12.2515 6.1544 13.5267Z" fill="#ACB8BF"/>
<path d="M17.3762 3.18277C17.5179 2.67269 17.4612 2.19094 17.1495 1.85088C16.8378 1.53917 16.3277 1.45415 15.8459 1.62418L14.8824 2.21928C15.3642 2.04925 16.0726 2.30429 16.3844 2.61601C16.7244 2.95607 16.9511 3.63618 16.7811 4.11793L17.3762 3.18277Z" fill="#3E4347"/>
<path d="M15.6375 3.18178L17.2397 1.57812L17.4202 1.75836L15.8177 3.36229L15.6375 3.18178Z" fill="#DAE3EA"/>
</svg>
